M48
; DRILL file {KiCad 7.0.1} date Sat Nov 25 16:04:22 2023
; FORMAT={-:-/ absolute / metric / decimal}
; #@! TF.CreationDate,2023-11-25T16:04:22-05:00
; #@! TF.GenerationSoftware,Kicad,Pcbnew,7.0.1
; #@! TF.FileFunction,Plated,1,2,PTH
FMAT,2
METRIC
; #@! TA.AperFunction,Plated,PTH,ViaDrill
T1C0.400
; #@! TA.AperFunction,Plated,PTH,ComponentDrill
T2C0.800
; #@! TA.AperFunction,Plated,PTH,ComponentDrill
T3C1.000
; #@! TA.AperFunction,Plated,PTH,ComponentDrill
T4C3.200
%
G90
G05
T1
X1.905Y-60.96
X1.905Y-66.675
X1.905Y-71.755
X1.905Y-76.835
X1.905Y-81.915
X1.905Y-86.995
X1.905Y-92.71
X4.445Y-68.58
X13.335Y-2.54
X15.24Y-8.89
X16.51Y-89.535
X16.51Y-92.71
X16.51Y-95.25
X16.51Y-97.79
X18.415Y-2.54
X19.05Y-53.975
X20.32Y-92.71
X20.32Y-95.25
X20.32Y-97.79
X20.955Y-26.67
X22.225Y-3.175
X22.225Y-8.89
X25.4Y-7.62
X25.4Y-15.24
X25.4Y-20.955
X25.4Y-26.67
X25.4Y-34.29
X25.4Y-41.275
X25.4Y-45.72
X25.4Y-50.8
X25.4Y-53.975
X25.4Y-70.485
X25.4Y-76.2
X25.4Y-83.82
X25.4Y-90.805
X25.4Y-97.79
T2
X16.154Y-70.155
X16.154Y-80.315
X19.304Y-70.155
X19.304Y-80.315
T3
X8.046Y-71.425
X8.046Y-74.195
X8.046Y-76.965
X8.046Y-79.735
X10.886Y-70.04
X10.886Y-72.81
X10.886Y-75.58
X10.886Y-78.35
X10.886Y-81.12
X15.584Y-23.932
X15.584Y-26.472
X15.584Y-29.012
X15.584Y-31.552
X15.584Y-34.092
X15.584Y-36.632
X15.584Y-39.172
X15.584Y-41.712
X15.584Y-44.252
X15.584Y-46.792
X18.124Y-23.932
X18.124Y-26.472
X18.124Y-29.012
X18.124Y-31.552
X18.124Y-34.092
X18.124Y-36.632
X18.124Y-39.172
X18.124Y-41.712
X18.124Y-44.252
X18.124Y-46.792
X21.509Y-57.536
X21.509Y-60.076
X24.049Y-57.536
X24.049Y-60.076
T4
X4.5Y-98.0
X9.466Y-63.08
X9.466Y-88.08
T2
X4.504Y-12.65G85X4.504Y-13.35
G05
X4.504Y-25.65G85X4.504Y-26.35
G05
X4.504Y-38.65G85X4.504Y-39.35
G05
X4.504Y-51.65G85X4.504Y-52.35
G05
X9.154Y-8.0G85X9.854Y-8.0
G05
X9.154Y-10.5G85X9.854Y-10.5
G05
X9.154Y-15.5G85X9.854Y-15.5
G05
X9.154Y-18.0G85X9.854Y-18.0
G05
X9.154Y-21.0G85X9.854Y-21.0
G05
X9.154Y-23.5G85X9.854Y-23.5
G05
X9.154Y-28.5G85X9.854Y-28.5
G05
X9.154Y-31.0G85X9.854Y-31.0
G05
X9.154Y-34.0G85X9.854Y-34.0
G05
X9.154Y-36.5G85X9.854Y-36.5
G05
X9.154Y-41.5G85X9.854Y-41.5
G05
X9.154Y-44.0G85X9.854Y-44.0
G05
X9.154Y-47.0G85X9.854Y-47.0
G05
X9.154Y-49.5G85X9.854Y-49.5
G05
X9.154Y-54.5G85X9.854Y-54.5
G05
X9.154Y-57.0G85X9.854Y-57.0
G05
T0
M30
