%TF.GenerationSoftware,KiCad,Pcbnew,(6.0.0)*%
%TF.CreationDate,2022-03-13T21:14:02-04:00*%
%TF.ProjectId,PCI bracket board,50434920-6272-4616-936b-657420626f61,rev?*%
%TF.SameCoordinates,Original*%
%TF.FileFunction,Copper,L1,Top*%
%TF.FilePolarity,Positive*%
%FSLAX46Y46*%
G04 Gerber Fmt 4.6, Leading zero omitted, Abs format (unit mm)*
G04 Created by KiCad (PCBNEW (6.0.0)) date 2022-03-13 21:14:02*
%MOMM*%
%LPD*%
G01*
G04 APERTURE LIST*
%TA.AperFunction,ComponentPad*%
%ADD10O,1.308000X2.616000*%
%TD*%
%TA.AperFunction,ComponentPad*%
%ADD11O,2.616000X1.308000*%
%TD*%
%TA.AperFunction,ComponentPad*%
%ADD12R,1.700000X1.700000*%
%TD*%
%TA.AperFunction,ComponentPad*%
%ADD13O,1.700000X1.700000*%
%TD*%
%TA.AperFunction,ComponentPad*%
%ADD14C,4.000000*%
%TD*%
%TA.AperFunction,ComponentPad*%
%ADD15R,1.600000X1.600000*%
%TD*%
%TA.AperFunction,ComponentPad*%
%ADD16C,1.600000*%
%TD*%
%TA.AperFunction,ComponentPad*%
%ADD17O,1.600000X1.600000*%
%TD*%
%TA.AperFunction,ComponentPad*%
%ADD18C,5.600000*%
%TD*%
%TA.AperFunction,ViaPad*%
%ADD19C,0.800000*%
%TD*%
%TA.AperFunction,Conductor*%
%ADD20C,0.250000*%
%TD*%
%TA.AperFunction,Conductor*%
%ADD21C,1.000000*%
%TD*%
G04 APERTURE END LIST*
D10*
%TO.P,J4,1*%
%TO.N,GNDA*%
X4503800Y-26000000D03*
D11*
%TO.P,J4,2*%
%TO.N,/Line out left*%
X9503800Y-31000000D03*
%TO.P,J4,3*%
%TO.N,/Line out right*%
X9503800Y-21000000D03*
%TO.P,J4,10*%
%TO.N,/Line out left*%
X9503800Y-28500000D03*
%TO.P,J4,11*%
%TO.N,/Line out right*%
X9503800Y-23500000D03*
%TD*%
D12*
%TO.P,J1,1,Pin_1*%
%TO.N,GNDD*%
X21508800Y-60076000D03*
D13*
%TO.P,J1,2,Pin_2*%
%TO.N,unconnected-(J1-Pad2)*%
X21508800Y-57536000D03*
%TO.P,J1,3,Pin_3*%
%TO.N,GNDD*%
X24048800Y-60076000D03*
%TO.P,J1,4,Pin_4*%
%TO.N,GNDA*%
X24048800Y-57536000D03*
%TD*%
D14*
%TO.P,J7,0,PAD*%
%TO.N,GNDD*%
X9466331Y-88080400D03*
X9466331Y-63080400D03*
D15*
%TO.P,J7,1,1*%
%TO.N,Net-(J7-Pad1)*%
X10886331Y-70040400D03*
D16*
%TO.P,J7,2,2*%
%TO.N,/Rx*%
X10886331Y-72810400D03*
%TO.P,J7,3,3*%
%TO.N,/Tx*%
X10886331Y-75580400D03*
%TO.P,J7,4,4*%
%TO.N,Net-(J7-Pad4)*%
X10886331Y-78350400D03*
%TO.P,J7,5,5*%
%TO.N,GNDD*%
X10886331Y-81120400D03*
%TO.P,J7,6,6*%
%TO.N,Net-(J7-Pad1)*%
X8046331Y-71425400D03*
%TO.P,J7,7,7*%
%TO.N,Net-(J7-Pad7)*%
X8046331Y-74195400D03*
%TO.P,J7,8,8*%
%TO.N,Net-(J7-Pad8)*%
X8046331Y-76965400D03*
%TO.P,J7,9,9*%
%TO.N,unconnected-(J7-Pad9)*%
X8046331Y-79735400D03*
%TD*%
%TO.P,AR1,1*%
%TO.N,Net-(J7-Pad4)*%
X16154400Y-80314800D03*
D17*
%TO.P,AR1,2*%
%TO.N,Net-(J7-Pad1)*%
X16154400Y-70154800D03*
%TD*%
D12*
%TO.P,W8,1,Pin_1*%
%TO.N,/Mic pass through*%
X15584400Y-23931800D03*
D13*
%TO.P,W8,2,Pin_2*%
%TO.N,/Mic right*%
X18124400Y-23931800D03*
%TO.P,W8,3,Pin_3*%
%TO.N,/Mic left*%
X15584400Y-26471800D03*
%TO.P,W8,4,Pin_4*%
%TO.N,GNDA*%
X18124400Y-26471800D03*
%TO.P,W8,5,Pin_5*%
%TO.N,/Line out left*%
X15584400Y-29011800D03*
%TO.P,W8,6,Pin_6*%
%TO.N,/Line out right*%
X18124400Y-29011800D03*
%TO.P,W8,7,Pin_7*%
%TO.N,GNDA*%
X15584400Y-31551800D03*
%TO.P,W8,8,Pin_8*%
%TO.N,/Speaker in left*%
X18124400Y-31551800D03*
%TO.P,W8,9,Pin_9*%
%TO.N,/Speaker in right*%
X15584400Y-34091800D03*
%TO.P,W8,10,Pin_10*%
%TO.N,GNDA*%
X18124400Y-34091800D03*
%TO.P,W8,11,Pin_11*%
%TO.N,/Speaker out left*%
X15584400Y-36631800D03*
%TO.P,W8,12,Pin_12*%
%TO.N,/Speaker out right*%
X18124400Y-36631800D03*
%TO.P,W8,13,Pin_13*%
%TO.N,unconnected-(W8-Pad13)*%
X15584400Y-39171800D03*
%TO.P,W8,14,Pin_14*%
%TO.N,unconnected-(W8-Pad14)*%
X18124400Y-39171800D03*
%TO.P,W8,15,Pin_15*%
%TO.N,unconnected-(W8-Pad15)*%
X15584400Y-41711800D03*
%TO.P,W8,16,Pin_16*%
%TO.N,unconnected-(W8-Pad16)*%
X18124400Y-41711800D03*
%TO.P,W8,17,Pin_17*%
%TO.N,unconnected-(W8-Pad17)*%
X15584400Y-44251800D03*
%TO.P,W8,18,Pin_18*%
%TO.N,GNDA*%
X18124400Y-44251800D03*
%TO.P,W8,19,Pin_19*%
%TO.N,/Tx*%
X15584400Y-46791800D03*
%TO.P,W8,20,Pin_20*%
%TO.N,/Rx*%
X18124400Y-46791800D03*
%TD*%
D10*
%TO.P,J3,1*%
%TO.N,/Mic pass through*%
X4503800Y-13000000D03*
D11*
%TO.P,J3,2*%
%TO.N,/Mic left*%
X9503800Y-18000000D03*
%TO.P,J3,3*%
%TO.N,/Mic right*%
X9503800Y-8000000D03*
%TO.P,J3,10*%
%TO.N,/Mic pass through*%
X9503800Y-15500000D03*
%TO.P,J3,11*%
X9503800Y-10500000D03*
%TD*%
D10*
%TO.P,J6,1*%
%TO.N,GNDA*%
X4503800Y-52000000D03*
D11*
%TO.P,J6,2*%
%TO.N,/Speaker out left*%
X9503800Y-57000000D03*
%TO.P,J6,3*%
%TO.N,/Speaker out right*%
X9503800Y-47000000D03*
%TO.P,J6,10*%
%TO.N,/Speaker out left*%
X9503800Y-54500000D03*
%TO.P,J6,11*%
%TO.N,/Speaker out right*%
X9503800Y-49500000D03*
%TD*%
D16*
%TO.P,AR2,1*%
%TO.N,Net-(J7-Pad8)*%
X19304000Y-80314800D03*
D17*
%TO.P,AR2,2*%
%TO.N,Net-(J7-Pad7)*%
X19304000Y-70154800D03*
%TD*%
D18*
%TO.P,REF\u002A\u002A,1*%
%TO.N,GNDD*%
X4500000Y-98000000D03*
%TD*%
D10*
%TO.P,J5,1*%
%TO.N,GNDA*%
X4503800Y-39000000D03*
D11*
%TO.P,J5,2*%
%TO.N,/Speaker in left*%
X9503800Y-44000000D03*
%TO.P,J5,3*%
%TO.N,/Speaker in right*%
X9503800Y-34000000D03*
%TO.P,J5,10*%
%TO.N,GNDA*%
X9503800Y-41500000D03*
%TO.P,J5,11*%
X9503800Y-36500000D03*
%TD*%
D19*
%TO.N,GNDD*%
X16510000Y-97790000D03*
X1905000Y-86995000D03*
X25400000Y-76200000D03*
X4445000Y-68580000D03*
X1905000Y-92710000D03*
X20320000Y-95250000D03*
X1905000Y-76835000D03*
X1905000Y-60960000D03*
X16510000Y-95250000D03*
X16510000Y-92710000D03*
X1905000Y-81915000D03*
X16510000Y-89535000D03*
X25400000Y-97790000D03*
X1905000Y-66675000D03*
X25400000Y-90805000D03*
X25400000Y-83820000D03*
X25400000Y-70485000D03*
X1905000Y-71755000D03*
X20320000Y-97790000D03*
X20320000Y-92710000D03*
%TO.N,GNDA*%
X25400000Y-7620000D03*
X13335000Y-2540000D03*
X18415000Y-2540000D03*
X25400000Y-20955000D03*
X15240000Y-8890000D03*
X19050000Y-53975000D03*
X25400000Y-15240000D03*
X25400000Y-50800000D03*
X22225000Y-8890000D03*
X22225000Y-3175000D03*
X25400000Y-41275000D03*
X25400000Y-26670000D03*
X25400000Y-45720000D03*
X25400000Y-53975000D03*
X20955000Y-26670000D03*
X25400000Y-34290000D03*
%TD*%
D20*
%TO.N,Net-(J7-Pad4)*%
X11275931Y-78740000D02*
X10886331Y-78350400D01*
X16154400Y-80314800D02*
X14579600Y-78740000D01*
X14579600Y-78740000D02*
X11275931Y-78740000D01*
%TO.N,Net-(J7-Pad1)*%
X14883800Y-71425400D02*
X8046331Y-71425400D01*
X10886331Y-70040400D02*
X9431331Y-70040400D01*
X16154400Y-70154800D02*
X14883800Y-71425400D01*
X9431331Y-70040400D02*
X8046331Y-71425400D01*
%TO.N,Net-(J7-Pad8)*%
X15954600Y-76965400D02*
X8046331Y-76965400D01*
X19304000Y-80314800D02*
X15954600Y-76965400D01*
%TO.N,Net-(J7-Pad7)*%
X15263400Y-74195400D02*
X8046331Y-74195400D01*
X19304000Y-70154800D02*
X15263400Y-74195400D01*
D21*
%TO.N,GNDA*%
X15584400Y-31551800D02*
X18124400Y-34091800D01*
D20*
%TO.N,/Speaker in right*%
X9595600Y-34091800D02*
X9503800Y-34000000D01*
X15584400Y-34091800D02*
X9595600Y-34091800D01*
%TD*%
%TA.AperFunction,Conductor*%
%TO.N,GNDA*%
G36*
X25923931Y-528002D02*
G01*
X25944905Y-544905D01*
X27106995Y-1706995D01*
X27141021Y-1769307D01*
X27143900Y-1796090D01*
X27143900Y-55754000D01*
X27123898Y-55822121D01*
X27070242Y-55868614D01*
X27017900Y-55880000D01*
X15240000Y-55880000D01*
X15240000Y-58929000D01*
X15219998Y-58997121D01*
X15166342Y-59043614D01*
X15114000Y-59055000D01*
X634000Y-59055000D01*
X565879Y-59034998D01*
X519386Y-58981342D01*
X508000Y-58929000D01*
X508000Y-56945604D01*
X3391587Y-56945604D01*
X3401367Y-57156899D01*
X3402771Y-57162724D01*
X3402771Y-57162725D01*
X3443466Y-57331582D01*
X3450925Y-57362534D01*
X3453407Y-57367992D01*
X3453408Y-57367996D01*
X3496853Y-57463546D01*
X3538474Y-57555087D01*
X3660854Y-57727611D01*
X3813650Y-57873881D01*
X3991348Y-57988620D01*
X4051446Y-58012840D01*
X4181968Y-58065442D01*
X4181971Y-58065443D01*
X4187537Y-58067686D01*
X4395137Y-58108228D01*
X4400699Y-58108500D01*
X4556646Y-58108500D01*
X4714366Y-58093452D01*
X4917334Y-58033908D01*
X4922662Y-58031164D01*
X5100049Y-57939804D01*
X5100052Y-57939802D01*
X5105380Y-57937058D01*
X5271720Y-57806396D01*
X5275652Y-57801865D01*
X5275655Y-57801862D01*
X5406421Y-57651167D01*
X5410352Y-57646637D01*
X5413352Y-57641451D01*
X5413355Y-57641447D01*
X5513267Y-57468742D01*
X5516273Y-57463546D01*
X5585661Y-57263729D01*
X5610619Y-57091599D01*
X7685919Y-57091599D01*
X7686898Y-57097296D01*
X7686898Y-57097297D01*
X7718390Y-57280570D01*
X7722101Y-57302166D01*
X7796050Y-57502613D01*
X7799002Y-57507574D01*
X7799002Y-57507575D01*
X7827269Y-57555087D01*
X7905289Y-57686228D01*
X7909095Y-57690568D01*
X7909098Y-57690572D01*
X8010674Y-57806396D01*
X8046160Y-57846860D01*
X8213945Y-57979131D01*
X8219056Y-57981820D01*
X8219059Y-57981822D01*
X8238376Y-57991985D01*
X8403025Y-58078611D01*
X8408546Y-58080325D01*
X8408550Y-58080327D01*
X8601552Y-58140256D01*
X8601557Y-58140257D01*
X8607067Y-58141968D01*
X8637518Y-58145572D01*
X8776855Y-58162064D01*
X8776861Y-58162064D01*
X8780542Y-58162500D01*
X10211996Y-58162500D01*
X10321940Y-58152397D01*
X10364801Y-58148459D01*
X10364803Y-58148459D01*
X10370556Y-58147930D01*
X10514417Y-58107357D01*
X10570628Y-58091504D01*
X10570630Y-58091503D01*
X10576187Y-58089936D01*
X10581363Y-58087384D01*
X10581367Y-58087382D01*
X10762626Y-57997995D01*
X10767807Y-57995440D01*
X10773937Y-57990863D01*
X10934373Y-57871060D01*
X10934374Y-57871059D01*
X10938997Y-57867607D01*
X10954870Y-57850436D01*
X11080105Y-57714957D01*
X11080107Y-57714954D01*
X11084024Y-57710717D01*
X11198032Y-57530025D01*
X11277203Y-57331582D01*
X11278328Y-57325925D01*
X11278330Y-57325919D01*
X11317757Y-57127703D01*
X11317757Y-57127699D01*
X11318884Y-57122035D01*
X11319283Y-57091599D01*
X11321194Y-56945604D01*
X11321681Y-56908401D01*
X11310461Y-56843101D01*
X11286478Y-56703531D01*
X11286478Y-56703530D01*
X11285499Y-56697834D01*
X11211550Y-56497387D01*
X11183577Y-56450368D01*
X11105267Y-56318740D01*
X11105265Y-56318737D01*
X11102311Y-56313772D01*
X11098505Y-56309432D01*
X11098502Y-56309428D01*
X10965247Y-56157481D01*
X10961440Y-56153140D01*
X10793655Y-56020869D01*
X10788544Y-56018180D01*
X10788541Y-56018178D01*
X10623154Y-55931164D01*
X10604575Y-55921389D01*
X10437915Y-55869640D01*
X10378794Y-55830339D01*
X10350303Y-55765309D01*
X10361493Y-55695200D01*
X10408810Y-55642270D01*
X10441081Y-55628040D01*
X10570628Y-55591504D01*
X10570630Y-55591503D01*
X10576187Y-55589936D01*
X10581363Y-55587384D01*
X10581367Y-55587382D01*
X10762626Y-55497995D01*
X10767807Y-55495440D01*
X10938997Y-55367607D01*
X10954870Y-55350436D01*
X11080105Y-55214957D01*
X11080107Y-55214954D01*
X11084024Y-55210717D01*
X11198032Y-55030025D01*
X11277203Y-54831582D01*
X11278328Y-54825925D01*
X11278330Y-54825919D01*
X11317757Y-54627703D01*
X11317757Y-54627699D01*
X11318884Y-54622035D01*
X11319283Y-54591599D01*
X11321605Y-54414183D01*
X11321681Y-54408401D01*
X11285499Y-54197834D01*
X11211550Y-53997387D01*
X11102311Y-53813772D01*
X11098505Y-53809432D01*
X11098502Y-53809428D01*
X10965247Y-53657481D01*
X10961440Y-53653140D01*
X10793655Y-53520869D01*
X10788544Y-53518180D01*
X10788541Y-53518178D01*
X10621369Y-53430225D01*
X10604575Y-53421389D01*
X10599054Y-53419675D01*
X10599050Y-53419673D01*
X10406048Y-53359744D01*
X10406043Y-53359743D01*
X10400533Y-53358032D01*
X10350160Y-53352070D01*
X10230745Y-53337936D01*
X10230739Y-53337936D01*
X10227058Y-53337500D01*
X9759574Y-53337500D01*
X9691453Y-53317498D01*
X9644960Y-53263842D01*
X9634856Y-53193568D01*
X9664350Y-53128988D01*
X9724105Y-53090595D01*
X9809844Y-53065442D01*
X9917334Y-53033908D01*
X10000911Y-52990863D01*
X10100049Y-52939804D01*
X10100052Y-52939802D01*
X10105380Y-52937058D01*
X10271720Y-52806396D01*
X10275652Y-52801865D01*
X10275655Y-52801862D01*
X10406421Y-52651167D01*
X10410352Y-52646637D01*
X10413352Y-52641451D01*
X10413355Y-52641447D01*
X10513267Y-52468742D01*
X10516273Y-52463546D01*
X10585661Y-52263729D01*
X10586655Y-52256876D01*
X10615152Y-52060336D01*
X10615152Y-52060333D01*
X10616013Y-52054396D01*
X10606233Y-51843101D01*
X10556675Y-51637466D01*
X10513325Y-51542122D01*
X10471606Y-51450368D01*
X10469126Y-51444913D01*
X10362588Y-51294722D01*
X10350212Y-51277275D01*
X10350211Y-51277274D01*
X10346746Y-51272389D01*
X10193950Y-51126119D01*
X10016252Y-51011380D01*
X9956154Y-50987160D01*
X9825632Y-50934558D01*
X9825629Y-50934557D01*
X9820063Y-50932314D01*
X9716883Y-50912164D01*
X9653859Y-50879476D01*
X9618512Y-50817904D01*
X9622065Y-50746996D01*
X9663389Y-50689266D01*
X9729365Y-50663041D01*
X9741033Y-50662500D01*
X10211996Y-50662500D01*
X10321940Y-50652397D01*
X10364801Y-50648459D01*
X10364803Y-50648459D01*
X10370556Y-50647930D01*
X10500571Y-50611262D01*
X10570628Y-50591504D01*
X10570630Y-50591503D01*
X10576187Y-50589936D01*
X10581363Y-50587384D01*
X10581367Y-50587382D01*
X10762626Y-50497995D01*
X10767807Y-50495440D01*
X10897036Y-50398941D01*
X10934373Y-50371060D01*
X10934374Y-50371059D01*
X10938997Y-50367607D01*
X10954870Y-50350436D01*
X11080105Y-50214957D01*
X11080107Y-50214954D01*
X11084024Y-50210717D01*
X11198032Y-50030025D01*
X11277203Y-49831582D01*
X11278328Y-49825925D01*
X11278330Y-49825919D01*
X11317757Y-49627703D01*
X11317757Y-49627699D01*
X11318884Y-49622035D01*
X11319283Y-49591599D01*
X11321605Y-49414183D01*
X11321681Y-49408401D01*
X11285499Y-49197834D01*
X11211550Y-48997387D01*
X11102311Y-48813772D01*
X11098505Y-48809432D01*
X11098502Y-48809428D01*
X10965247Y-48657481D01*
X10961440Y-48653140D01*
X10793655Y-48520869D01*
X10788544Y-48518180D01*
X10788541Y-48518178D01*
X10685243Y-48463830D01*
X10604575Y-48421389D01*
X10437915Y-48369640D01*
X10378794Y-48330339D01*
X10350303Y-48265309D01*
X10361493Y-48195200D01*
X10408810Y-48142270D01*
X10441081Y-48128040D01*
X10570628Y-48091504D01*
X10570630Y-48091503D01*
X10576187Y-48089936D01*
X10581363Y-48087384D01*
X10581367Y-48087382D01*
X10762626Y-47997995D01*
X10767807Y-47995440D01*
X10773937Y-47990863D01*
X10934373Y-47871060D01*
X10934374Y-47871059D01*
X10938997Y-47867607D01*
X10954870Y-47850436D01*
X11080105Y-47714957D01*
X11080107Y-47714954D01*
X11084024Y-47710717D01*
X11198032Y-47530025D01*
X11277203Y-47331582D01*
X11278328Y-47325925D01*
X11278330Y-47325919D01*
X11317757Y-47127703D01*
X11317757Y-47127699D01*
X11318884Y-47122035D01*
X11319283Y-47091599D01*
X11321194Y-46945604D01*
X11321681Y-46908401D01*
X11310461Y-46843101D01*
X11286478Y-46703531D01*
X11286478Y-46703530D01*
X11285499Y-46697834D01*
X11211550Y-46497387D01*
X11183577Y-46450368D01*
X11105267Y-46318740D01*
X11105265Y-46318737D01*
X11102311Y-46313772D01*
X11098505Y-46309432D01*
X11098502Y-46309428D01*
X10965247Y-46157481D01*
X10961440Y-46153140D01*
X10793655Y-46020869D01*
X10788544Y-46018180D01*
X10788541Y-46018178D01*
X10629605Y-45934558D01*
X10604575Y-45921389D01*
X10599054Y-45919675D01*
X10599050Y-45919673D01*
X10406048Y-45859744D01*
X10406043Y-45859743D01*
X10400533Y-45858032D01*
X10350160Y-45852070D01*
X10230745Y-45837936D01*
X10230739Y-45837936D01*
X10227058Y-45837500D01*
X8795604Y-45837500D01*
X8685660Y-45847603D01*
X8642799Y-45851541D01*
X8642797Y-45851541D01*
X8637044Y-45852070D01*
X8507029Y-45888738D01*
X8436972Y-45908496D01*
X8436970Y-45908497D01*
X8431413Y-45910064D01*
X8426237Y-45912616D01*
X8426233Y-45912618D01*
X8244974Y-46002005D01*
X8239793Y-46004560D01*
X8235167Y-46008014D01*
X8235166Y-46008015D01*
X8080947Y-46123175D01*
X8068603Y-46132393D01*
X8064689Y-46136627D01*
X8064687Y-46136629D01*
X7939193Y-46272389D01*
X7923576Y-46289283D01*
X7809568Y-46469975D01*
X7730397Y-46668418D01*
X7729272Y-46674075D01*
X7729270Y-46674081D01*
X7689843Y-46872297D01*
X7688716Y-46877965D01*
X7688640Y-46883740D01*
X7688640Y-46883744D01*
X7688242Y-46914183D01*
X7685919Y-47091599D01*
X7686898Y-47097296D01*
X7686898Y-47097297D01*
X7718203Y-47279480D01*
X7722101Y-47302166D01*
X7796050Y-47502613D01*
X7799002Y-47507574D01*
X7799002Y-47507575D01*
X7852138Y-47596888D01*
X7905289Y-47686228D01*
X7909095Y-47690568D01*
X7909098Y-47690572D01*
X8010674Y-47806396D01*
X8046160Y-47846860D01*
X8213945Y-47979131D01*
X8219056Y-47981820D01*
X8219059Y-47981822D01*
X8238376Y-47991985D01*
X8403025Y-48078611D01*
X8569685Y-48130360D01*
X8628806Y-48169661D01*
X8657297Y-48234691D01*
X8646107Y-48304800D01*
X8598790Y-48357730D01*
X8566519Y-48371960D01*
X8436972Y-48408496D01*
X8436970Y-48408497D01*
X8431413Y-48410064D01*
X8426237Y-48412616D01*
X8426233Y-48412618D01*
X8244974Y-48502005D01*
X8239793Y-48504560D01*
X8068603Y-48632393D01*
X8064689Y-48636627D01*
X8064687Y-48636629D01*
X8049425Y-48653140D01*
X7923576Y-48789283D01*
X7809568Y-48969975D01*
X7730397Y-49168418D01*
X7729272Y-49174075D01*
X7729270Y-49174081D01*
X7689843Y-49372297D01*
X7688716Y-49377965D01*
X7688640Y-49383740D01*
X7688640Y-49383744D01*
X7688242Y-49414183D01*
X7685919Y-49591599D01*
X7722101Y-49802166D01*
X7796050Y-50002613D01*
X7905289Y-50186228D01*
X7909095Y-50190568D01*
X7909098Y-50190572D01*
X7996913Y-50290705D01*
X8046160Y-50346860D01*
X8213945Y-50479131D01*
X8219056Y-50481820D01*
X8219059Y-50481822D01*
X8238376Y-50491985D01*
X8403025Y-50578611D01*
X8408546Y-50580325D01*
X8408550Y-50580327D01*
X8601552Y-50640256D01*
X8601557Y-50640257D01*
X8607067Y-50641968D01*
X8637518Y-50645572D01*
X8776855Y-50662064D01*
X8776861Y-50662064D01*
X8780542Y-50662500D01*
X9248026Y-50662500D01*
X9316147Y-50682502D01*
X9362640Y-50736158D01*
X9372744Y-50806432D01*
X9343250Y-50871012D01*
X9283495Y-50909405D01*
X9238483Y-50922610D01*
X9090266Y-50966092D01*
X9084939Y-50968836D01*
X9084938Y-50968836D01*
X8907551Y-51060196D01*
X8907548Y-51060198D01*
X8902220Y-51062942D01*
X8735880Y-51193604D01*
X8731948Y-51198135D01*
X8731945Y-51198138D01*
X8648134Y-51294722D01*
X8597248Y-51353363D01*
X8594248Y-51358549D01*
X8594245Y-51358553D01*
X8547112Y-51440026D01*
X8491327Y-51536454D01*
X8421939Y-51736271D01*
X8421078Y-51742206D01*
X8421078Y-51742208D01*
X8420771Y-51744329D01*
X8391587Y-51945604D01*
X8401367Y-52156899D01*
X8450925Y-52362534D01*
X8453407Y-52367992D01*
X8453408Y-52367996D01*
X8496853Y-52463546D01*
X8538474Y-52555087D01*
X8632131Y-52687120D01*
X8649119Y-52711067D01*
X8660854Y-52727611D01*
X8813650Y-52873881D01*
X8991348Y-52988620D01*
X8996914Y-52990863D01*
X9181968Y-53065442D01*
X9181971Y-53065443D01*
X9187537Y-53067686D01*
X9267476Y-53083297D01*
X9290717Y-53087836D01*
X9353741Y-53120524D01*
X9389088Y-53182096D01*
X9385535Y-53253004D01*
X9344211Y-53310734D01*
X9278235Y-53336959D01*
X9266567Y-53337500D01*
X8795604Y-53337500D01*
X8685660Y-53347603D01*
X8642799Y-53351541D01*
X8642797Y-53351541D01*
X8637044Y-53352070D01*
X8507029Y-53388738D01*
X8436972Y-53408496D01*
X8436970Y-53408497D01*
X8431413Y-53410064D01*
X8426237Y-53412616D01*
X8426233Y-53412618D01*
X8244974Y-53502005D01*
X8239793Y-53504560D01*
X8235167Y-53508014D01*
X8235166Y-53508015D01*
X8073227Y-53628940D01*
X8068603Y-53632393D01*
X8064689Y-53636627D01*
X8064687Y-53636629D01*
X7932885Y-53779213D01*
X7923576Y-53789283D01*
X7809568Y-53969975D01*
X7730397Y-54168418D01*
X7729272Y-54174075D01*
X7729270Y-54174081D01*
X7689843Y-54372297D01*
X7688716Y-54377965D01*
X7688640Y-54383740D01*
X7688640Y-54383744D01*
X7688242Y-54414183D01*
X7685919Y-54591599D01*
X7722101Y-54802166D01*
X7796050Y-55002613D01*
X7905289Y-55186228D01*
X7909095Y-55190568D01*
X7909098Y-55190572D01*
X8042353Y-55342519D01*
X8046160Y-55346860D01*
X8213945Y-55479131D01*
X8219056Y-55481820D01*
X8219059Y-55481822D01*
X8238376Y-55491985D01*
X8403025Y-55578611D01*
X8569685Y-55630360D01*
X8628806Y-55669661D01*
X8657297Y-55734691D01*
X8646107Y-55804800D01*
X8598790Y-55857730D01*
X8566519Y-55871960D01*
X8436972Y-55908496D01*
X8436970Y-55908497D01*
X8431413Y-55910064D01*
X8426237Y-55912616D01*
X8426233Y-55912618D01*
X8244974Y-56002005D01*
X8239793Y-56004560D01*
X8235167Y-56008014D01*
X8235166Y-56008015D01*
X8077005Y-56126119D01*
X8068603Y-56132393D01*
X8064689Y-56136627D01*
X8064687Y-56136629D01*
X7939193Y-56272389D01*
X7923576Y-56289283D01*
X7809568Y-56469975D01*
X7730397Y-56668418D01*
X7729272Y-56674075D01*
X7729270Y-56674081D01*
X7694459Y-56849091D01*
X7688716Y-56877965D01*
X7688640Y-56883740D01*
X7688640Y-56883744D01*
X7688242Y-56914183D01*
X7685919Y-57091599D01*
X5610619Y-57091599D01*
X5611457Y-57085817D01*
X5615152Y-57060336D01*
X5615152Y-57060333D01*
X5616013Y-57054396D01*
X5606233Y-56843101D01*
X5565499Y-56674081D01*
X5558081Y-56643299D01*
X5558080Y-56643297D01*
X5556675Y-56637466D01*
X5513325Y-56542122D01*
X5492985Y-56497387D01*
X5469126Y-56444913D01*
X5346746Y-56272389D01*
X5193950Y-56126119D01*
X5016252Y-56011380D01*
X4956154Y-55987160D01*
X4825632Y-55934558D01*
X4825629Y-55934557D01*
X4820063Y-55932314D01*
X4612463Y-55891772D01*
X4606901Y-55891500D01*
X4450954Y-55891500D01*
X4293234Y-55906548D01*
X4090266Y-55966092D01*
X4084939Y-55968836D01*
X4084938Y-55968836D01*
X3907551Y-56060196D01*
X3907548Y-56060198D01*
X3902220Y-56062942D01*
X3735880Y-56193604D01*
X3731948Y-56198135D01*
X3731945Y-56198138D01*
X3648615Y-56294168D01*
X3597248Y-56353363D01*
X3594248Y-56358549D01*
X3594245Y-56358553D01*
X3547112Y-56440026D01*
X3491327Y-56536454D01*
X3421939Y-56736271D01*
X3391587Y-56945604D01*
X508000Y-56945604D01*
X508000Y-52705278D01*
X3341800Y-52705278D01*
X3342066Y-52711067D01*
X3355834Y-52860908D01*
X3357932Y-52872229D01*
X3412762Y-53066643D01*
X3416887Y-53077390D01*
X3506234Y-53258565D01*
X3512246Y-53268374D01*
X3633104Y-53430225D01*
X3640811Y-53438785D01*
X3789149Y-53575907D01*
X3798274Y-53582908D01*
X3969120Y-53690704D01*
X3979364Y-53695924D01*
X4166997Y-53770782D01*
X4178026Y-53774049D01*
X4232032Y-53784791D01*
X4244906Y-53783639D01*
X4248874Y-53771353D01*
X4757800Y-53771353D01*
X4761606Y-53784315D01*
X4776522Y-53786251D01*
X4800139Y-53782193D01*
X4811259Y-53779213D01*
X5000781Y-53709295D01*
X5011159Y-53704345D01*
X5184767Y-53601059D01*
X5194076Y-53594295D01*
X5345957Y-53461100D01*
X5353867Y-53452765D01*
X5478932Y-53294121D01*
X5485203Y-53284464D01*
X5579254Y-53105702D01*
X5583662Y-53095059D01*
X5643565Y-52902143D01*
X5645955Y-52890899D01*
X5665364Y-52726915D01*
X5665800Y-52719512D01*
X5665800Y-52272115D01*
X5661325Y-52256876D01*
X5659935Y-52255671D01*
X5652252Y-52254000D01*
X4775915Y-52254000D01*
X4760676Y-52258475D01*
X4759471Y-52259865D01*
X4757800Y-52267548D01*
X4757800Y-53771353D01*
X4248874Y-53771353D01*
X4249800Y-53768484D01*
X4249800Y-52272115D01*
X4245325Y-52256876D01*
X4243935Y-52255671D01*
X4236252Y-52254000D01*
X3359915Y-52254000D01*
X3344676Y-52258475D01*
X3343471Y-52259865D01*
X3341800Y-52267548D01*
X3341800Y-52705278D01*
X508000Y-52705278D01*
X508000Y-51727885D01*
X3341800Y-51727885D01*
X3346275Y-51743124D01*
X3347665Y-51744329D01*
X3355348Y-51746000D01*
X4231685Y-51746000D01*
X4246924Y-51741525D01*
X4248129Y-51740135D01*
X4249800Y-51732452D01*
X4249800Y-51727885D01*
X4757800Y-51727885D01*
X4762275Y-51743124D01*
X4763665Y-51744329D01*
X4771348Y-51746000D01*
X5647685Y-51746000D01*
X5662924Y-51741525D01*
X5664129Y-51740135D01*
X5665800Y-51732452D01*
X5665800Y-51294722D01*
X5665534Y-51288933D01*
X5651766Y-51139092D01*
X5649668Y-51127771D01*
X5594838Y-50933357D01*
X5590713Y-50922610D01*
X5501366Y-50741435D01*
X5495354Y-50731626D01*
X5374496Y-50569775D01*
X5366789Y-50561215D01*
X5218451Y-50424093D01*
X5209326Y-50417092D01*
X5038480Y-50309296D01*
X5028236Y-50304076D01*
X4840603Y-50229218D01*
X4829574Y-50225951D01*
X4775568Y-50215209D01*
X4762694Y-50216361D01*
X4757800Y-50231516D01*
X4757800Y-51727885D01*
X4249800Y-51727885D01*
X4249800Y-50228647D01*
X4245994Y-50215685D01*
X4231078Y-50213749D01*
X4207461Y-50217807D01*
X4196341Y-50220787D01*
X4006819Y-50290705D01*
X3996441Y-50295655D01*
X3822833Y-50398941D01*
X3813524Y-50405705D01*
X3661643Y-50538900D01*
X3653733Y-50547235D01*
X3528668Y-50705879D01*
X3522397Y-50715536D01*
X3428346Y-50894298D01*
X3423938Y-50904941D01*
X3364035Y-51097857D01*
X3361645Y-51109101D01*
X3342236Y-51273085D01*
X3341800Y-51280488D01*
X3341800Y-51727885D01*
X508000Y-51727885D01*
X508000Y-46945604D01*
X3391587Y-46945604D01*
X3401367Y-47156899D01*
X3402771Y-47162724D01*
X3402771Y-47162725D01*
X3443466Y-47331582D01*
X3450925Y-47362534D01*
X3453407Y-47367992D01*
X3453408Y-47367996D01*
X3496853Y-47463546D01*
X3538474Y-47555087D01*
X3660854Y-47727611D01*
X3813650Y-47873881D01*
X3991348Y-47988620D01*
X4051446Y-48012840D01*
X4181968Y-48065442D01*
X4181971Y-48065443D01*
X4187537Y-48067686D01*
X4395137Y-48108228D01*
X4400699Y-48108500D01*
X4556646Y-48108500D01*
X4714366Y-48093452D01*
X4917334Y-48033908D01*
X4942129Y-48021138D01*
X5100049Y-47939804D01*
X5100052Y-47939802D01*
X5105380Y-47937058D01*
X5271720Y-47806396D01*
X5275652Y-47801865D01*
X5275655Y-47801862D01*
X5406421Y-47651167D01*
X5410352Y-47646637D01*
X5413352Y-47641451D01*
X5413355Y-47641447D01*
X5513267Y-47468742D01*
X5516273Y-47463546D01*
X5585661Y-47263729D01*
X5611457Y-47085817D01*
X5615152Y-47060336D01*
X5615152Y-47060333D01*
X5616013Y-47054396D01*
X5606233Y-46843101D01*
X5565499Y-46674081D01*
X5558081Y-46643299D01*
X5558080Y-46643297D01*
X5556675Y-46637466D01*
X5525619Y-46569161D01*
X5492985Y-46497387D01*
X5469126Y-46444913D01*
X5346746Y-46272389D01*
X5193950Y-46126119D01*
X5016252Y-46011380D01*
X4956154Y-45987160D01*
X4825632Y-45934558D01*
X4825629Y-45934557D01*
X4820063Y-45932314D01*
X4612463Y-45891772D01*
X4606901Y-45891500D01*
X4450954Y-45891500D01*
X4293234Y-45906548D01*
X4090266Y-45966092D01*
X4084939Y-45968836D01*
X4084938Y-45968836D01*
X3907551Y-46060196D01*
X3907548Y-46060198D01*
X3902220Y-46062942D01*
X3735880Y-46193604D01*
X3731948Y-46198135D01*
X3731945Y-46198138D01*
X3663274Y-46277275D01*
X3597248Y-46353363D01*
X3594248Y-46358549D01*
X3594245Y-46358553D01*
X3547112Y-46440026D01*
X3491327Y-46536454D01*
X3421939Y-46736271D01*
X3421078Y-46742206D01*
X3421078Y-46742208D01*
X3413888Y-46791800D01*
X3391587Y-46945604D01*
X508000Y-46945604D01*
X508000Y-43945604D01*
X3391587Y-43945604D01*
X3401367Y-44156899D01*
X3402771Y-44162724D01*
X3402771Y-44162725D01*
X3443466Y-44331582D01*
X3450925Y-44362534D01*
X3453407Y-44367992D01*
X3453408Y-44367996D01*
X3496853Y-44463546D01*
X3538474Y-44555087D01*
X3660854Y-44727611D01*
X3813650Y-44873881D01*
X3991348Y-44988620D01*
X4051446Y-45012840D01*
X4181968Y-45065442D01*
X4181971Y-45065443D01*
X4187537Y-45067686D01*
X4395137Y-45108228D01*
X4400699Y-45108500D01*
X4556646Y-45108500D01*
X4714366Y-45093452D01*
X4917334Y-45033908D01*
X4922662Y-45031164D01*
X5100049Y-44939804D01*
X5100052Y-44939802D01*
X5105380Y-44937058D01*
X5271720Y-44806396D01*
X5275652Y-44801865D01*
X5275655Y-44801862D01*
X5406421Y-44651167D01*
X5410352Y-44646637D01*
X5413352Y-44641451D01*
X5413355Y-44641447D01*
X5513267Y-44468742D01*
X5516273Y-44463546D01*
X5585661Y-44263729D01*
X5610619Y-44091599D01*
X7685919Y-44091599D01*
X7686898Y-44097296D01*
X7686898Y-44097297D01*
X7721122Y-44296469D01*
X7722101Y-44302166D01*
X7796050Y-44502613D01*
X7799002Y-44507574D01*
X7799002Y-44507575D01*
X7892199Y-44664225D01*
X7905289Y-44686228D01*
X7909095Y-44690568D01*
X7909098Y-44690572D01*
X8010674Y-44806396D01*
X8046160Y-44846860D01*
X8213945Y-44979131D01*
X8219056Y-44981820D01*
X8219059Y-44981822D01*
X8238376Y-44991985D01*
X8403025Y-45078611D01*
X8408546Y-45080325D01*
X8408550Y-45080327D01*
X8601552Y-45140256D01*
X8601557Y-45140257D01*
X8607067Y-45141968D01*
X8637518Y-45145572D01*
X8776855Y-45162064D01*
X8776861Y-45162064D01*
X8780542Y-45162500D01*
X10211996Y-45162500D01*
X10321940Y-45152397D01*
X10364801Y-45148459D01*
X10364803Y-45148459D01*
X10370556Y-45147930D01*
X10514417Y-45107357D01*
X10570628Y-45091504D01*
X10570630Y-45091503D01*
X10576187Y-45089936D01*
X10581363Y-45087384D01*
X10581367Y-45087382D01*
X10762626Y-44997995D01*
X10767807Y-44995440D01*
X10773937Y-44990863D01*
X10934373Y-44871060D01*
X10934374Y-44871059D01*
X10938997Y-44867607D01*
X10954870Y-44850436D01*
X11080105Y-44714957D01*
X11080107Y-44714954D01*
X11084024Y-44710717D01*
X11198032Y-44530025D01*
X11277203Y-44331582D01*
X11278328Y-44325925D01*
X11278330Y-44325919D01*
X11317757Y-44127703D01*
X11317757Y-44127699D01*
X11318884Y-44122035D01*
X11319283Y-44091599D01*
X11321194Y-43945604D01*
X11321681Y-43908401D01*
X11310461Y-43843101D01*
X11286478Y-43703531D01*
X11286478Y-43703530D01*
X11285499Y-43697834D01*
X11211550Y-43497387D01*
X11183577Y-43450368D01*
X11105267Y-43318740D01*
X11105265Y-43318737D01*
X11102311Y-43313772D01*
X11098505Y-43309432D01*
X11098502Y-43309428D01*
X10965247Y-43157481D01*
X10961440Y-43153140D01*
X10793655Y-43020869D01*
X10788544Y-43018180D01*
X10788541Y-43018178D01*
X10685243Y-42963830D01*
X10604575Y-42921389D01*
X10599054Y-42919675D01*
X10599050Y-42919673D01*
X10437044Y-42869369D01*
X10377918Y-42830066D01*
X10349428Y-42765037D01*
X10360618Y-42694928D01*
X10407935Y-42641998D01*
X10440206Y-42627768D01*
X10570446Y-42591036D01*
X10581190Y-42586913D01*
X10762365Y-42497566D01*
X10772174Y-42491554D01*
X10934025Y-42370696D01*
X10942585Y-42362989D01*
X11079707Y-42214651D01*
X11086708Y-42205526D01*
X11194504Y-42034680D01*
X11199724Y-42024436D01*
X11274582Y-41836803D01*
X11277849Y-41825774D01*
X11288591Y-41771768D01*
X11287439Y-41758894D01*
X11272284Y-41754000D01*
X7732447Y-41754000D01*
X7719485Y-41757806D01*
X7717549Y-41772722D01*
X7721607Y-41796339D01*
X7724587Y-41807459D01*
X7794505Y-41996981D01*
X7799455Y-42007359D01*
X7902741Y-42180967D01*
X7909505Y-42190276D01*
X8042700Y-42342157D01*
X8051035Y-42350067D01*
X8209679Y-42475132D01*
X8219336Y-42481403D01*
X8398098Y-42575454D01*
X8408741Y-42579862D01*
X8570564Y-42630110D01*
X8629690Y-42669413D01*
X8658180Y-42734442D01*
X8646990Y-42804551D01*
X8599673Y-42857481D01*
X8567402Y-42871711D01*
X8436972Y-42908496D01*
X8436970Y-42908497D01*
X8431413Y-42910064D01*
X8426237Y-42912616D01*
X8426233Y-42912618D01*
X8244974Y-43002005D01*
X8239793Y-43004560D01*
X8235167Y-43008014D01*
X8235166Y-43008015D01*
X8077005Y-43126119D01*
X8068603Y-43132393D01*
X8064689Y-43136627D01*
X8064687Y-43136629D01*
X7939193Y-43272389D01*
X7923576Y-43289283D01*
X7809568Y-43469975D01*
X7730397Y-43668418D01*
X7729272Y-43674075D01*
X7729270Y-43674081D01*
X7694459Y-43849091D01*
X7688716Y-43877965D01*
X7688640Y-43883740D01*
X7688640Y-43883744D01*
X7688242Y-43914183D01*
X7685919Y-44091599D01*
X5610619Y-44091599D01*
X5616013Y-44054396D01*
X5606233Y-43843101D01*
X5565499Y-43674081D01*
X5558081Y-43643299D01*
X5558080Y-43643297D01*
X5556675Y-43637466D01*
X5545376Y-43612614D01*
X5492985Y-43497387D01*
X5469126Y-43444913D01*
X5346746Y-43272389D01*
X5193950Y-43126119D01*
X5016252Y-43011380D01*
X4940730Y-42980944D01*
X4825632Y-42934558D01*
X4825629Y-42934557D01*
X4820063Y-42932314D01*
X4612463Y-42891772D01*
X4606901Y-42891500D01*
X4450954Y-42891500D01*
X4293234Y-42906548D01*
X4090266Y-42966092D01*
X4084939Y-42968836D01*
X4084938Y-42968836D01*
X3907551Y-43060196D01*
X3907548Y-43060198D01*
X3902220Y-43062942D01*
X3735880Y-43193604D01*
X3731948Y-43198135D01*
X3731945Y-43198138D01*
X3663274Y-43277275D01*
X3597248Y-43353363D01*
X3594248Y-43358549D01*
X3594245Y-43358553D01*
X3560863Y-43416257D01*
X3491327Y-43536454D01*
X3421939Y-43736271D01*
X3421078Y-43742206D01*
X3421078Y-43742208D01*
X3414715Y-43786097D01*
X3391587Y-43945604D01*
X508000Y-43945604D01*
X508000Y-39705278D01*
X3341800Y-39705278D01*
X3342066Y-39711067D01*
X3355834Y-39860908D01*
X3357932Y-39872229D01*
X3412762Y-40066643D01*
X3416887Y-40077390D01*
X3506234Y-40258565D01*
X3512246Y-40268374D01*
X3633104Y-40430225D01*
X3640811Y-40438785D01*
X3789149Y-40575907D01*
X3798274Y-40582908D01*
X3969120Y-40690704D01*
X3979364Y-40695924D01*
X4166997Y-40770782D01*
X4178026Y-40774049D01*
X4232032Y-40784791D01*
X4244906Y-40783639D01*
X4248874Y-40771353D01*
X4757800Y-40771353D01*
X4761606Y-40784315D01*
X4776522Y-40786251D01*
X4800139Y-40782193D01*
X4811259Y-40779213D01*
X5000781Y-40709295D01*
X5011159Y-40704345D01*
X5184767Y-40601059D01*
X5194076Y-40594295D01*
X5345957Y-40461100D01*
X5353867Y-40452765D01*
X5478932Y-40294121D01*
X5485203Y-40284464D01*
X5579254Y-40105702D01*
X5583662Y-40095059D01*
X5643565Y-39902143D01*
X5645955Y-39890899D01*
X5665364Y-39726915D01*
X5665800Y-39719512D01*
X5665800Y-39272115D01*
X5661325Y-39256876D01*
X5659935Y-39255671D01*
X5652252Y-39254000D01*
X4775915Y-39254000D01*
X4760676Y-39258475D01*
X4759471Y-39259865D01*
X4757800Y-39267548D01*
X4757800Y-40771353D01*
X4248874Y-40771353D01*
X4249800Y-40768484D01*
X4249800Y-39272115D01*
X4245325Y-39256876D01*
X4243935Y-39255671D01*
X4236252Y-39254000D01*
X3359915Y-39254000D01*
X3344676Y-39258475D01*
X3343471Y-39259865D01*
X3341800Y-39267548D01*
X3341800Y-39705278D01*
X508000Y-39705278D01*
X508000Y-38727885D01*
X3341800Y-38727885D01*
X3346275Y-38743124D01*
X3347665Y-38744329D01*
X3355348Y-38746000D01*
X4231685Y-38746000D01*
X4246924Y-38741525D01*
X4248129Y-38740135D01*
X4249800Y-38732452D01*
X4249800Y-38727885D01*
X4757800Y-38727885D01*
X4762275Y-38743124D01*
X4763665Y-38744329D01*
X4771348Y-38746000D01*
X5647685Y-38746000D01*
X5662924Y-38741525D01*
X5664129Y-38740135D01*
X5665800Y-38732452D01*
X5665800Y-38294722D01*
X5665534Y-38288933D01*
X5651766Y-38139092D01*
X5649668Y-38127771D01*
X5594838Y-37933357D01*
X5590713Y-37922610D01*
X5501366Y-37741435D01*
X5495354Y-37731626D01*
X5374496Y-37569775D01*
X5366789Y-37561215D01*
X5218451Y-37424093D01*
X5209326Y-37417092D01*
X5038480Y-37309296D01*
X5028236Y-37304076D01*
X4840603Y-37229218D01*
X4829574Y-37225951D01*
X4775568Y-37215209D01*
X4762694Y-37216361D01*
X4757800Y-37231516D01*
X4757800Y-38727885D01*
X4249800Y-38727885D01*
X4249800Y-37228647D01*
X4245994Y-37215685D01*
X4231078Y-37213749D01*
X4207461Y-37217807D01*
X4196341Y-37220787D01*
X4006819Y-37290705D01*
X3996441Y-37295655D01*
X3822833Y-37398941D01*
X3813524Y-37405705D01*
X3661643Y-37538900D01*
X3653733Y-37547235D01*
X3528668Y-37705879D01*
X3522397Y-37715536D01*
X3428346Y-37894298D01*
X3423938Y-37904941D01*
X3364035Y-38097857D01*
X3361645Y-38109101D01*
X3342236Y-38273085D01*
X3341800Y-38280488D01*
X3341800Y-38727885D01*
X508000Y-38727885D01*
X508000Y-36772722D01*
X7717549Y-36772722D01*
X7721607Y-36796339D01*
X7724587Y-36807459D01*
X7794505Y-36996981D01*
X7799455Y-37007359D01*
X7902741Y-37180967D01*
X7909505Y-37190276D01*
X8042700Y-37342157D01*
X8051035Y-37350067D01*
X8209679Y-37475132D01*
X8219336Y-37481403D01*
X8398098Y-37575454D01*
X8408741Y-37579862D01*
X8601657Y-37639765D01*
X8612901Y-37642155D01*
X8776885Y-37661564D01*
X8784288Y-37662000D01*
X9249731Y-37662000D01*
X9317852Y-37682002D01*
X9364345Y-37735658D01*
X9374449Y-37805932D01*
X9344955Y-37870512D01*
X9285200Y-37908905D01*
X9090266Y-37966092D01*
X9084939Y-37968836D01*
X9084938Y-37968836D01*
X8907551Y-38060196D01*
X8907548Y-38060198D01*
X8902220Y-38062942D01*
X8735880Y-38193604D01*
X8731948Y-38198135D01*
X8731945Y-38198138D01*
X8648134Y-38294722D01*
X8597248Y-38353363D01*
X8594248Y-38358549D01*
X8594245Y-38358553D01*
X8510579Y-38503175D01*
X8491327Y-38536454D01*
X8421939Y-38736271D01*
X8421078Y-38742206D01*
X8421078Y-38742208D01*
X8395826Y-38916370D01*
X8391587Y-38945604D01*
X8401367Y-39156899D01*
X8450925Y-39362534D01*
X8453407Y-39367992D01*
X8453408Y-39367996D01*
X8495181Y-39459869D01*
X8538474Y-39555087D01*
X8612525Y-39659480D01*
X8649119Y-39711067D01*
X8660854Y-39727611D01*
X8813650Y-39873881D01*
X8991348Y-39988620D01*
X8996914Y-39990863D01*
X9181968Y-40065442D01*
X9181971Y-40065443D01*
X9187537Y-40067686D01*
X9293278Y-40088336D01*
X9356302Y-40121024D01*
X9391649Y-40182596D01*
X9388096Y-40253504D01*
X9346772Y-40311234D01*
X9280796Y-40337459D01*
X9269128Y-40338000D01*
X8798522Y-40338000D01*
X8792733Y-40338266D01*
X8642892Y-40352034D01*
X8631571Y-40354132D01*
X8437157Y-40408962D01*
X8426410Y-40413087D01*
X8245235Y-40502434D01*
X8235426Y-40508446D01*
X8073575Y-40629304D01*
X8065015Y-40637011D01*
X7927893Y-40785349D01*
X7920892Y-40794474D01*
X7813096Y-40965320D01*
X7807876Y-40975564D01*
X7733018Y-41163197D01*
X7729751Y-41174226D01*
X7719009Y-41228232D01*
X7720161Y-41241106D01*
X7735316Y-41246000D01*
X11275153Y-41246000D01*
X11288115Y-41242194D01*
X11290051Y-41227278D01*
X11285993Y-41203661D01*
X11283013Y-41192541D01*
X11213095Y-41003019D01*
X11208145Y-40992641D01*
X11104859Y-40819033D01*
X11098095Y-40809724D01*
X10964900Y-40657843D01*
X10956565Y-40649933D01*
X10797921Y-40524868D01*
X10788264Y-40518597D01*
X10609502Y-40424546D01*
X10598859Y-40420138D01*
X10405943Y-40360235D01*
X10394699Y-40357845D01*
X10230715Y-40338436D01*
X10223312Y-40338000D01*
X9757869Y-40338000D01*
X9689748Y-40317998D01*
X9643255Y-40264342D01*
X9633151Y-40194068D01*
X9662645Y-40129488D01*
X9722400Y-40091095D01*
X9731805Y-40088336D01*
X9917334Y-40033908D01*
X10000911Y-39990863D01*
X10100049Y-39939804D01*
X10100052Y-39939802D01*
X10105380Y-39937058D01*
X10271720Y-39806396D01*
X10275652Y-39801865D01*
X10275655Y-39801862D01*
X10406421Y-39651167D01*
X10410352Y-39646637D01*
X10413352Y-39641451D01*
X10413355Y-39641447D01*
X10513267Y-39468742D01*
X10516273Y-39463546D01*
X10585661Y-39263729D01*
X10586655Y-39256876D01*
X10615152Y-39060336D01*
X10615152Y-39060333D01*
X10616013Y-39054396D01*
X10606233Y-38843101D01*
X10572012Y-38701105D01*
X10558081Y-38643299D01*
X10558080Y-38643297D01*
X10556675Y-38637466D01*
X10513325Y-38542122D01*
X10495616Y-38503175D01*
X10469126Y-38444913D01*
X10362588Y-38294722D01*
X10350212Y-38277275D01*
X10350211Y-38277274D01*
X10346746Y-38272389D01*
X10193950Y-38126119D01*
X10016252Y-38011380D01*
X9934589Y-37978469D01*
X9825632Y-37934558D01*
X9825629Y-37934557D01*
X9820063Y-37932314D01*
X9714322Y-37911664D01*
X9651298Y-37878976D01*
X9615951Y-37817404D01*
X9619504Y-37746496D01*
X9660828Y-37688766D01*
X9726804Y-37662541D01*
X9738472Y-37662000D01*
X10209078Y-37662000D01*
X10214867Y-37661734D01*
X10364708Y-37647966D01*
X10376029Y-37645868D01*
X10570443Y-37591038D01*
X10581190Y-37586913D01*
X10762365Y-37497566D01*
X10772174Y-37491554D01*
X10934025Y-37370696D01*
X10942585Y-37362989D01*
X11079707Y-37214651D01*
X11086708Y-37205526D01*
X11194504Y-37034680D01*
X11199724Y-37024436D01*
X11274582Y-36836803D01*
X11277849Y-36825774D01*
X11288591Y-36771768D01*
X11287439Y-36758894D01*
X11272284Y-36754000D01*
X7732447Y-36754000D01*
X7719485Y-36757806D01*
X7717549Y-36772722D01*
X508000Y-36772722D01*
X508000Y-33945604D01*
X3391587Y-33945604D01*
X3401367Y-34156899D01*
X3402771Y-34162724D01*
X3402771Y-34162725D01*
X3447803Y-34349578D01*
X3450925Y-34362534D01*
X3453407Y-34367992D01*
X3453408Y-34367996D01*
X3496853Y-34463546D01*
X3538474Y-34555087D01*
X3660854Y-34727611D01*
X3813650Y-34873881D01*
X3991348Y-34988620D01*
X4051446Y-35012840D01*
X4181968Y-35065442D01*
X4181971Y-35065443D01*
X4187537Y-35067686D01*
X4395137Y-35108228D01*
X4400699Y-35108500D01*
X4556646Y-35108500D01*
X4714366Y-35093452D01*
X4917334Y-35033908D01*
X4922662Y-35031164D01*
X5100049Y-34939804D01*
X5100052Y-34939802D01*
X5105380Y-34937058D01*
X5271720Y-34806396D01*
X5275652Y-34801865D01*
X5275655Y-34801862D01*
X5406421Y-34651167D01*
X5410352Y-34646637D01*
X5413352Y-34641451D01*
X5413355Y-34641447D01*
X5513267Y-34468742D01*
X5516273Y-34463546D01*
X5585661Y-34263729D01*
X5586522Y-34257792D01*
X5610619Y-34091599D01*
X7685919Y-34091599D01*
X7686898Y-34097296D01*
X7686898Y-34097297D01*
X7716942Y-34272142D01*
X7722101Y-34302166D01*
X7796050Y-34502613D01*
X7799002Y-34507574D01*
X7799002Y-34507575D01*
X7847131Y-34588472D01*
X7905289Y-34686228D01*
X7909095Y-34690568D01*
X7909098Y-34690572D01*
X8010674Y-34806396D01*
X8046160Y-34846860D01*
X8213945Y-34979131D01*
X8219056Y-34981820D01*
X8219059Y-34981822D01*
X8238376Y-34991985D01*
X8403025Y-35078611D01*
X8408546Y-35080325D01*
X8408550Y-35080327D01*
X8570556Y-35130631D01*
X8629682Y-35169934D01*
X8658172Y-35234963D01*
X8646982Y-35305072D01*
X8599665Y-35358002D01*
X8567394Y-35372232D01*
X8437154Y-35408964D01*
X8426410Y-35413087D01*
X8245235Y-35502434D01*
X8235426Y-35508446D01*
X8073575Y-35629304D01*
X8065015Y-35637011D01*
X7927893Y-35785349D01*
X7920892Y-35794474D01*
X7813096Y-35965320D01*
X7807876Y-35975564D01*
X7733018Y-36163197D01*
X7729751Y-36174226D01*
X7719009Y-36228232D01*
X7720161Y-36241106D01*
X7735316Y-36246000D01*
X11275153Y-36246000D01*
X11288115Y-36242194D01*
X11290051Y-36227278D01*
X11285993Y-36203661D01*
X11283013Y-36192541D01*
X11213095Y-36003019D01*
X11208145Y-35992641D01*
X11104859Y-35819033D01*
X11098095Y-35809724D01*
X10964900Y-35657843D01*
X10956565Y-35649933D01*
X10797921Y-35524868D01*
X10788264Y-35518597D01*
X10609502Y-35424546D01*
X10598859Y-35420138D01*
X10437036Y-35369890D01*
X10377910Y-35330587D01*
X10349420Y-35265558D01*
X10360610Y-35195449D01*
X10407927Y-35142519D01*
X10440198Y-35128289D01*
X10570628Y-35091504D01*
X10570630Y-35091503D01*
X10576187Y-35089936D01*
X10581363Y-35087384D01*
X10581367Y-35087382D01*
X10762626Y-34997995D01*
X10767807Y-34995440D01*
X10773937Y-34990863D01*
X10934373Y-34871060D01*
X10934374Y-34871059D01*
X10938997Y-34867607D01*
X10958176Y-34846860D01*
X11017618Y-34782555D01*
X11033133Y-34765771D01*
X11094062Y-34729326D01*
X11125658Y-34725300D01*
X14308674Y-34725300D01*
X14376795Y-34745302D01*
X14416107Y-34785465D01*
X14484387Y-34896888D01*
X14630650Y-35065738D01*
X14802526Y-35208432D01*
X14847929Y-35234963D01*
X14875845Y-35251276D01*
X14924569Y-35302914D01*
X14937640Y-35372697D01*
X14910909Y-35438469D01*
X14870455Y-35471827D01*
X14858007Y-35478307D01*
X14853874Y-35481410D01*
X14853871Y-35481412D01*
X14795993Y-35524868D01*
X14679365Y-35612435D01*
X14525029Y-35773938D01*
X14399143Y-35958480D01*
X14305088Y-36161105D01*
X14245389Y-36376370D01*
X14221651Y-36598495D01*
X14221948Y-36603648D01*
X14221948Y-36603651D01*
X14227411Y-36698390D01*
X14234510Y-36821515D01*
X14235647Y-36826561D01*
X14235648Y-36826567D01*
X14237955Y-36836803D01*
X14283622Y-37039439D01*
X14321861Y-37133611D01*
X14355188Y-37215685D01*
X14367666Y-37246416D01*
X14406199Y-37309296D01*
X14481691Y-37432488D01*
X14484387Y-37436888D01*
X14630650Y-37605738D01*
X14802526Y-37748432D01*
X14872995Y-37789611D01*
X14875845Y-37791276D01*
X14924569Y-37842914D01*
X14937640Y-37912697D01*
X14910909Y-37978469D01*
X14870455Y-38011827D01*
X14858007Y-38018307D01*
X14853874Y-38021410D01*
X14853871Y-38021412D01*
X14712214Y-38127771D01*
X14679365Y-38152435D01*
X14640023Y-38193604D01*
X14556995Y-38280488D01*
X14525029Y-38313938D01*
X14399143Y-38498480D01*
X14383928Y-38531258D01*
X14331921Y-38643299D01*
X14305088Y-38701105D01*
X14245389Y-38916370D01*
X14221651Y-39138495D01*
X14221948Y-39143648D01*
X14221948Y-39143651D01*
X14227411Y-39238390D01*
X14234510Y-39361515D01*
X14235647Y-39366561D01*
X14235648Y-39366567D01*
X14255519Y-39454739D01*
X14283622Y-39579439D01*
X14367666Y-39786416D01*
X14413315Y-39860908D01*
X14481691Y-39972488D01*
X14484387Y-39976888D01*
X14630650Y-40145738D01*
X14675046Y-40182596D01*
X14797747Y-40284464D01*
X14802526Y-40288432D01*
X14872995Y-40329611D01*
X14875845Y-40331276D01*
X14924569Y-40382914D01*
X14937640Y-40452697D01*
X14910909Y-40518469D01*
X14870455Y-40551827D01*
X14858007Y-40558307D01*
X14853874Y-40561410D01*
X14853871Y-40561412D01*
X14735972Y-40649933D01*
X14679365Y-40692435D01*
X14525029Y-40853938D01*
X14399143Y-41038480D01*
X14383403Y-41072390D01*
X14327631Y-41192541D01*
X14305088Y-41241105D01*
X14245389Y-41456370D01*
X14221651Y-41678495D01*
X14221948Y-41683648D01*
X14221948Y-41683651D01*
X14227411Y-41778390D01*
X14234510Y-41901515D01*
X14235647Y-41906561D01*
X14235648Y-41906567D01*
X14256675Y-41999869D01*
X14283622Y-42119439D01*
X14367666Y-42326416D01*
X14418419Y-42409238D01*
X14481691Y-42512488D01*
X14484387Y-42516888D01*
X14630650Y-42685738D01*
X14802526Y-42828432D01*
X14842978Y-42852070D01*
X14875845Y-42871276D01*
X14924569Y-42922914D01*
X14937640Y-42992697D01*
X14910909Y-43058469D01*
X14870455Y-43091827D01*
X14858007Y-43098307D01*
X14853874Y-43101410D01*
X14853871Y-43101412D01*
X14736019Y-43189898D01*
X14679365Y-43232435D01*
X14525029Y-43393938D01*
X14399143Y-43578480D01*
X14383299Y-43612614D01*
X14341097Y-43703531D01*
X14305088Y-43781105D01*
X14245389Y-43996370D01*
X14221651Y-44218495D01*
X14221948Y-44223648D01*
X14221948Y-44223651D01*
X14226147Y-44296469D01*
X14234510Y-44441515D01*
X14235647Y-44446561D01*
X14235648Y-44446567D01*
X14248279Y-44502613D01*
X14283622Y-44659439D01*
X14341454Y-44801862D01*
X14357963Y-44842519D01*
X14367666Y-44866416D01*
X14370365Y-44870820D01*
X14444615Y-44991985D01*
X14484387Y-45056888D01*
X14630650Y-45225738D01*
X14802526Y-45368432D01*
X14872995Y-45409611D01*
X14875845Y-45411276D01*
X14924569Y-45462914D01*
X14937640Y-45532697D01*
X14910909Y-45598469D01*
X14870455Y-45631827D01*
X14858007Y-45638307D01*
X14853874Y-45641410D01*
X14853871Y-45641412D01*
X14829647Y-45659600D01*
X14679365Y-45772435D01*
X14675793Y-45776173D01*
X14534448Y-45924082D01*
X14525029Y-45933938D01*
X14399143Y-46118480D01*
X14365992Y-46189898D01*
X14317592Y-46294168D01*
X14305088Y-46321105D01*
X14245389Y-46536370D01*
X14221651Y-46758495D01*
X14221948Y-46763648D01*
X14221948Y-46763651D01*
X14227411Y-46858390D01*
X14234510Y-46981515D01*
X14235647Y-46986561D01*
X14235648Y-46986567D01*
X14252273Y-47060336D01*
X14283622Y-47199439D01*
X14323746Y-47298253D01*
X14349848Y-47362534D01*
X14367666Y-47406416D01*
X14405859Y-47468742D01*
X14481691Y-47592488D01*
X14484387Y-47596888D01*
X14630650Y-47765738D01*
X14802526Y-47908432D01*
X14995400Y-48021138D01*
X15204092Y-48100830D01*
X15209160Y-48101861D01*
X15209163Y-48101862D01*
X15316417Y-48123683D01*
X15422997Y-48145367D01*
X15428172Y-48145557D01*
X15428174Y-48145557D01*
X15641073Y-48153364D01*
X15641077Y-48153364D01*
X15646237Y-48153553D01*
X15651357Y-48152897D01*
X15651359Y-48152897D01*
X15862688Y-48125825D01*
X15862689Y-48125825D01*
X15867816Y-48125168D01*
X15927183Y-48107357D01*
X16076829Y-48062461D01*
X16076834Y-48062459D01*
X16081784Y-48060974D01*
X16282394Y-47962696D01*
X16464260Y-47832973D01*
X16622496Y-47675289D01*
X16643085Y-47646637D01*
X16752853Y-47493877D01*
X16754176Y-47494828D01*
X16801045Y-47451657D01*
X16870980Y-47439425D01*
X16936426Y-47466944D01*
X16964275Y-47498794D01*
X17024387Y-47596888D01*
X17170650Y-47765738D01*
X17342526Y-47908432D01*
X17535400Y-48021138D01*
X17744092Y-48100830D01*
X17749160Y-48101861D01*
X17749163Y-48101862D01*
X17856417Y-48123683D01*
X17962997Y-48145367D01*
X17968172Y-48145557D01*
X17968174Y-48145557D01*
X18181073Y-48153364D01*
X18181077Y-48153364D01*
X18186237Y-48153553D01*
X18191357Y-48152897D01*
X18191359Y-48152897D01*
X18402688Y-48125825D01*
X18402689Y-48125825D01*
X18407816Y-48125168D01*
X18467183Y-48107357D01*
X18616829Y-48062461D01*
X18616834Y-48062459D01*
X18621784Y-48060974D01*
X18822394Y-47962696D01*
X19004260Y-47832973D01*
X19162496Y-47675289D01*
X19183085Y-47646637D01*
X19289835Y-47498077D01*
X19292853Y-47493877D01*
X19305276Y-47468742D01*
X19389536Y-47298253D01*
X19389537Y-47298251D01*
X19391830Y-47293611D01*
X19456770Y-47079869D01*
X19485929Y-46858390D01*
X19487556Y-46791800D01*
X19469252Y-46569161D01*
X19414831Y-46352502D01*
X19325754Y-46147640D01*
X19239708Y-46014633D01*
X19207222Y-45964417D01*
X19207220Y-45964414D01*
X19204414Y-45960077D01*
X19054070Y-45794851D01*
X19050019Y-45791652D01*
X19050015Y-45791648D01*
X18882814Y-45659600D01*
X18882810Y-45659598D01*
X18878759Y-45656398D01*
X18836969Y-45633329D01*
X18786998Y-45582897D01*
X18772226Y-45513454D01*
X18797342Y-45447048D01*
X18824694Y-45420441D01*
X18999728Y-45295592D01*
X19007600Y-45288939D01*
X19158452Y-45138612D01*
X19165130Y-45130765D01*
X19289403Y-44957820D01*
X19294713Y-44948983D01*
X19389070Y-44758067D01*
X19392869Y-44748472D01*
X19454777Y-44544710D01*
X19456955Y-44534637D01*
X19458386Y-44523762D01*
X19456175Y-44509578D01*
X19443017Y-44505800D01*
X17996400Y-44505800D01*
X17928279Y-44485798D01*
X17881786Y-44432142D01*
X17870400Y-44379800D01*
X17870400Y-44123800D01*
X17890402Y-44055679D01*
X17944058Y-44009186D01*
X17996400Y-43997800D01*
X19442744Y-43997800D01*
X19456275Y-43993827D01*
X19457580Y-43984747D01*
X19415614Y-43817675D01*
X19412294Y-43807924D01*
X19327372Y-43612614D01*
X19322505Y-43603539D01*
X19206826Y-43424726D01*
X19200536Y-43416557D01*
X19057206Y-43259040D01*
X19049673Y-43252015D01*
X18882539Y-43120022D01*
X18873956Y-43114320D01*
X18837002Y-43093920D01*
X18787031Y-43043487D01*
X18772259Y-42974045D01*
X18797375Y-42907639D01*
X18824727Y-42881032D01*
X18885757Y-42837500D01*
X19004260Y-42752973D01*
X19162496Y-42595289D01*
X19173582Y-42579862D01*
X19289835Y-42418077D01*
X19292853Y-42413877D01*
X19313720Y-42371657D01*
X19389536Y-42218253D01*
X19389537Y-42218251D01*
X19391830Y-42213611D01*
X19456770Y-41999869D01*
X19485929Y-41778390D01*
X19486011Y-41775040D01*
X19487474Y-41715165D01*
X19487474Y-41715161D01*
X19487556Y-41711800D01*
X19469252Y-41489161D01*
X19414831Y-41272502D01*
X19325754Y-41067640D01*
X19204414Y-40880077D01*
X19054070Y-40714851D01*
X19050019Y-40711652D01*
X19050015Y-40711648D01*
X18882814Y-40579600D01*
X18882810Y-40579598D01*
X18878759Y-40576398D01*
X18837453Y-40553596D01*
X18787484Y-40503164D01*
X18772712Y-40433721D01*
X18797828Y-40367316D01*
X18825180Y-40340709D01*
X18890494Y-40294121D01*
X19004260Y-40212973D01*
X19162496Y-40055289D01*
X19179832Y-40031164D01*
X19289835Y-39878077D01*
X19292853Y-39873877D01*
X19313720Y-39831657D01*
X19389536Y-39678253D01*
X19389537Y-39678251D01*
X19391830Y-39673611D01*
X19456770Y-39459869D01*
X19485929Y-39238390D01*
X19487556Y-39171800D01*
X19469252Y-38949161D01*
X19414831Y-38732502D01*
X19325754Y-38527640D01*
X19286306Y-38466662D01*
X19207222Y-38344417D01*
X19207220Y-38344414D01*
X19204414Y-38340077D01*
X19054070Y-38174851D01*
X19050019Y-38171652D01*
X19050015Y-38171648D01*
X18882814Y-38039600D01*
X18882810Y-38039598D01*
X18878759Y-38036398D01*
X18837453Y-38013596D01*
X18787484Y-37963164D01*
X18772712Y-37893721D01*
X18797828Y-37827316D01*
X18825180Y-37800709D01*
X18869003Y-37769450D01*
X19004260Y-37672973D01*
X19015272Y-37662000D01*
X19158835Y-37518937D01*
X19162496Y-37515289D01*
X19186846Y-37481403D01*
X19289835Y-37338077D01*
X19292853Y-37333877D01*
X19307582Y-37304076D01*
X19389536Y-37138253D01*
X19389537Y-37138251D01*
X19391830Y-37133611D01*
X19456770Y-36919869D01*
X19485929Y-36698390D01*
X19487556Y-36631800D01*
X19469252Y-36409161D01*
X19414831Y-36192502D01*
X19325754Y-35987640D01*
X19204414Y-35800077D01*
X19054070Y-35634851D01*
X19050019Y-35631652D01*
X19050015Y-35631648D01*
X18882814Y-35499600D01*
X18882810Y-35499598D01*
X18878759Y-35496398D01*
X18836969Y-35473329D01*
X18786998Y-35422897D01*
X18772226Y-35353454D01*
X18797342Y-35287048D01*
X18824694Y-35260441D01*
X18999728Y-35135592D01*
X19007600Y-35128939D01*
X19158452Y-34978612D01*
X19165130Y-34970765D01*
X19289403Y-34797820D01*
X19294713Y-34788983D01*
X19389070Y-34598067D01*
X19392869Y-34588472D01*
X19454777Y-34384710D01*
X19456955Y-34374637D01*
X19458386Y-34363762D01*
X19456175Y-34349578D01*
X19443017Y-34345800D01*
X17996400Y-34345800D01*
X17928279Y-34325798D01*
X17881786Y-34272142D01*
X17870400Y-34219800D01*
X17870400Y-33963800D01*
X17890402Y-33895679D01*
X17944058Y-33849186D01*
X17996400Y-33837800D01*
X19442744Y-33837800D01*
X19456275Y-33833827D01*
X19457580Y-33824747D01*
X19415614Y-33657675D01*
X19412294Y-33647924D01*
X19327372Y-33452614D01*
X19322505Y-33443539D01*
X19206826Y-33264726D01*
X19200536Y-33256557D01*
X19057206Y-33099040D01*
X19049673Y-33092015D01*
X18882539Y-32960022D01*
X18873956Y-32954320D01*
X18837002Y-32933920D01*
X18787031Y-32883487D01*
X18772259Y-32814045D01*
X18797375Y-32747639D01*
X18824727Y-32721032D01*
X18848197Y-32704291D01*
X19004260Y-32592973D01*
X19162496Y-32435289D01*
X19292853Y-32253877D01*
X19306395Y-32226478D01*
X19389536Y-32058253D01*
X19389537Y-32058251D01*
X19391830Y-32053611D01*
X19446436Y-31873881D01*
X19455265Y-31844823D01*
X19455265Y-31844821D01*
X19456770Y-31839869D01*
X19485929Y-31618390D01*
X19487556Y-31551800D01*
X19469252Y-31329161D01*
X19414831Y-31112502D01*
X19325754Y-30907640D01*
X19218731Y-30742208D01*
X19207222Y-30724417D01*
X19207220Y-30724414D01*
X19204414Y-30720077D01*
X19054070Y-30554851D01*
X19050019Y-30551652D01*
X19050015Y-30551648D01*
X18882814Y-30419600D01*
X18882810Y-30419598D01*
X18878759Y-30416398D01*
X18837453Y-30393596D01*
X18787484Y-30343164D01*
X18772712Y-30273721D01*
X18797828Y-30207316D01*
X18825180Y-30180709D01*
X18886978Y-30136629D01*
X19004260Y-30052973D01*
X19036477Y-30020869D01*
X19093137Y-29964406D01*
X19162496Y-29895289D01*
X19179260Y-29871960D01*
X19289835Y-29718077D01*
X19292853Y-29713877D01*
X19313720Y-29671657D01*
X19389536Y-29518253D01*
X19389537Y-29518251D01*
X19391830Y-29513611D01*
X19456770Y-29299869D01*
X19485929Y-29078390D01*
X19486011Y-29075040D01*
X19487474Y-29015165D01*
X19487474Y-29015161D01*
X19487556Y-29011800D01*
X19469252Y-28789161D01*
X19414831Y-28572502D01*
X19325754Y-28367640D01*
X19215902Y-28197834D01*
X19207222Y-28184417D01*
X19207220Y-28184414D01*
X19204414Y-28180077D01*
X19054070Y-28014851D01*
X19050019Y-28011652D01*
X19050015Y-28011648D01*
X18882814Y-27879600D01*
X18882810Y-27879598D01*
X18878759Y-27876398D01*
X18836969Y-27853329D01*
X18786998Y-27802897D01*
X18772226Y-27733454D01*
X18797342Y-27667048D01*
X18824694Y-27640441D01*
X18999728Y-27515592D01*
X19007600Y-27508939D01*
X19158452Y-27358612D01*
X19165130Y-27350765D01*
X19289403Y-27177820D01*
X19294713Y-27168983D01*
X19389070Y-26978067D01*
X19392869Y-26968472D01*
X19454777Y-26764710D01*
X19456955Y-26754637D01*
X19458386Y-26743762D01*
X19456175Y-26729578D01*
X19443017Y-26725800D01*
X17996400Y-26725800D01*
X17928279Y-26705798D01*
X17881786Y-26652142D01*
X17870400Y-26599800D01*
X17870400Y-26343800D01*
X17890402Y-26275679D01*
X17944058Y-26229186D01*
X17996400Y-26217800D01*
X19442744Y-26217800D01*
X19456275Y-26213827D01*
X19457580Y-26204747D01*
X19415614Y-26037675D01*
X19412294Y-26027924D01*
X19327372Y-25832614D01*
X19322505Y-25823539D01*
X19206826Y-25644726D01*
X19200536Y-25636557D01*
X19057206Y-25479040D01*
X19049673Y-25472015D01*
X18882539Y-25340022D01*
X18873956Y-25334320D01*
X18837002Y-25313920D01*
X18787031Y-25263487D01*
X18772259Y-25194045D01*
X18797375Y-25127639D01*
X18824727Y-25101032D01*
X18848197Y-25084291D01*
X19004260Y-24972973D01*
X19008412Y-24968836D01*
X19148016Y-24829718D01*
X19162496Y-24815289D01*
X19168861Y-24806432D01*
X19289835Y-24638077D01*
X19292853Y-24633877D01*
X19339794Y-24538900D01*
X19389536Y-24438253D01*
X19389537Y-24438251D01*
X19391830Y-24433611D01*
X19456770Y-24219869D01*
X19485929Y-23998390D01*
X19487556Y-23931800D01*
X19469252Y-23709161D01*
X19414831Y-23492502D01*
X19325754Y-23287640D01*
X19204414Y-23100077D01*
X19054070Y-22934851D01*
X19050019Y-22931652D01*
X19050015Y-22931648D01*
X18882814Y-22799600D01*
X18882810Y-22799598D01*
X18878759Y-22796398D01*
X18858190Y-22785043D01*
X18826536Y-22767569D01*
X18683189Y-22688438D01*
X18678320Y-22686714D01*
X18678316Y-22686712D01*
X18477487Y-22615595D01*
X18477483Y-22615594D01*
X18472612Y-22613869D01*
X18467519Y-22612962D01*
X18467516Y-22612961D01*
X18257773Y-22575600D01*
X18257767Y-22575599D01*
X18252684Y-22574694D01*
X18178852Y-22573792D01*
X18034481Y-22572028D01*
X18034479Y-22572028D01*
X18029311Y-22571965D01*
X17808491Y-22605755D01*
X17596156Y-22675157D01*
X17398007Y-22778307D01*
X17393874Y-22781410D01*
X17393871Y-22781412D01*
X17223500Y-22909330D01*
X17219365Y-22912435D01*
X17159253Y-22975339D01*
X17138683Y-22996864D01*
X17077159Y-23032294D01*
X17006246Y-23028837D01*
X16948460Y-22987591D01*
X16929607Y-22954043D01*
X16888167Y-22843503D01*
X16885015Y-22835095D01*
X16797661Y-22718539D01*
X16681105Y-22631185D01*
X16544716Y-22580055D01*
X16482534Y-22573300D01*
X14686266Y-22573300D01*
X14624084Y-22580055D01*
X14487695Y-22631185D01*
X14371139Y-22718539D01*
X14283785Y-22835095D01*
X14232655Y-22971484D01*
X14225900Y-23033666D01*
X14225900Y-24829934D01*
X14232655Y-24892116D01*
X14283785Y-25028505D01*
X14371139Y-25145061D01*
X14487695Y-25232415D01*
X14496104Y-25235567D01*
X14496105Y-25235568D01*
X14604851Y-25276335D01*
X14661616Y-25318976D01*
X14686316Y-25385538D01*
X14671109Y-25454887D01*
X14651716Y-25481368D01*
X14599075Y-25536454D01*
X14525029Y-25613938D01*
X14399143Y-25798480D01*
X14383299Y-25832614D01*
X14330851Y-25945604D01*
X14305088Y-26001105D01*
X14245389Y-26216370D01*
X14221651Y-26438495D01*
X14221948Y-26443648D01*
X14221948Y-26443651D01*
X14228655Y-26559974D01*
X14234510Y-26661515D01*
X14235647Y-26666561D01*
X14235648Y-26666567D01*
X14249849Y-26729578D01*
X14283622Y-26879439D01*
X14328866Y-26990863D01*
X14360528Y-27068836D01*
X14367666Y-27086416D01*
X14381199Y-27108500D01*
X14479170Y-27268374D01*
X14484387Y-27276888D01*
X14630650Y-27445738D01*
X14778010Y-27568079D01*
X14787440Y-27575907D01*
X14802526Y-27588432D01*
X14824135Y-27601059D01*
X14875845Y-27631276D01*
X14924569Y-27682914D01*
X14937640Y-27752697D01*
X14910909Y-27818469D01*
X14870455Y-27851827D01*
X14858007Y-27858307D01*
X14853874Y-27861410D01*
X14853871Y-27861412D01*
X14683500Y-27989330D01*
X14679365Y-27992435D01*
X14525029Y-28153938D01*
X14522120Y-28158203D01*
X14522114Y-28158211D01*
X14495085Y-28197834D01*
X14399143Y-28338480D01*
X14305088Y-28541105D01*
X14245389Y-28756370D01*
X14221651Y-28978495D01*
X14221948Y-28983648D01*
X14221948Y-28983651D01*
X14227411Y-29078390D01*
X14234510Y-29201515D01*
X14235647Y-29206561D01*
X14235648Y-29206567D01*
X14237539Y-29214957D01*
X14283622Y-29419439D01*
X14367666Y-29626416D01*
X14409817Y-29695200D01*
X14481691Y-29812488D01*
X14484387Y-29816888D01*
X14630650Y-29985738D01*
X14802526Y-30128432D01*
X14844809Y-30153140D01*
X14876355Y-30171574D01*
X14925079Y-30223212D01*
X14938150Y-30292995D01*
X14911419Y-30358767D01*
X14870962Y-30392127D01*
X14862857Y-30396346D01*
X14854138Y-30401836D01*
X14683833Y-30529705D01*
X14676126Y-30536548D01*
X14528990Y-30690517D01*
X14522504Y-30698527D01*
X14402498Y-30874449D01*
X14397400Y-30883423D01*
X14307738Y-31076583D01*
X14304175Y-31086270D01*
X14248789Y-31285983D01*
X14250312Y-31294407D01*
X14262692Y-31297800D01*
X15712400Y-31297800D01*
X15780521Y-31317802D01*
X15827014Y-31371458D01*
X15838400Y-31423800D01*
X15838400Y-31679800D01*
X15818398Y-31747921D01*
X15764742Y-31794414D01*
X15712400Y-31805800D01*
X14267625Y-31805800D01*
X14254094Y-31809773D01*
X14252657Y-31819766D01*
X14282965Y-31954246D01*
X14286045Y-31964075D01*
X14366170Y-32161403D01*
X14370813Y-32170594D01*
X14482094Y-32352188D01*
X14488177Y-32360499D01*
X14627613Y-32521467D01*
X14634980Y-32528683D01*
X14798834Y-32664716D01*
X14807281Y-32670631D01*
X14876369Y-32711003D01*
X14925093Y-32762642D01*
X14938164Y-32832425D01*
X14911433Y-32898196D01*
X14870984Y-32931552D01*
X14858007Y-32938307D01*
X14853874Y-32941410D01*
X14853871Y-32941412D01*
X14687075Y-33066646D01*
X14679365Y-33072435D01*
X14525029Y-33233938D01*
X14522115Y-33238210D01*
X14522114Y-33238211D01*
X14409495Y-33403304D01*
X14354584Y-33448307D01*
X14305407Y-33458300D01*
X11259947Y-33458300D01*
X11191826Y-33438298D01*
X11151662Y-33396723D01*
X11105267Y-33318740D01*
X11105265Y-33318737D01*
X11102311Y-33313772D01*
X11098505Y-33309432D01*
X11098502Y-33309428D01*
X10965247Y-33157481D01*
X10961440Y-33153140D01*
X10793655Y-33020869D01*
X10788544Y-33018180D01*
X10788541Y-33018178D01*
X10642632Y-32941412D01*
X10604575Y-32921389D01*
X10599054Y-32919675D01*
X10599050Y-32919673D01*
X10406048Y-32859744D01*
X10406043Y-32859743D01*
X10400533Y-32858032D01*
X10350160Y-32852070D01*
X10230745Y-32837936D01*
X10230739Y-32837936D01*
X10227058Y-32837500D01*
X8795604Y-32837500D01*
X8685660Y-32847603D01*
X8642799Y-32851541D01*
X8642797Y-32851541D01*
X8637044Y-32852070D01*
X8507029Y-32888738D01*
X8436972Y-32908496D01*
X8436970Y-32908497D01*
X8431413Y-32910064D01*
X8426237Y-32912616D01*
X8426233Y-32912618D01*
X8244974Y-33002005D01*
X8239793Y-33004560D01*
X8235167Y-33008014D01*
X8235166Y-33008015D01*
X8077005Y-33126119D01*
X8068603Y-33132393D01*
X8064689Y-33136627D01*
X8064687Y-33136629D01*
X7939193Y-33272389D01*
X7923576Y-33289283D01*
X7809568Y-33469975D01*
X7730397Y-33668418D01*
X7729272Y-33674075D01*
X7729270Y-33674081D01*
X7694459Y-33849091D01*
X7688716Y-33877965D01*
X7685919Y-34091599D01*
X5610619Y-34091599D01*
X5615152Y-34060336D01*
X5615152Y-34060333D01*
X5616013Y-34054396D01*
X5606233Y-33843101D01*
X5565499Y-33674081D01*
X5558081Y-33643299D01*
X5558080Y-33643297D01*
X5556675Y-33637466D01*
X5513325Y-33542122D01*
X5471606Y-33450368D01*
X5469126Y-33444913D01*
X5346746Y-33272389D01*
X5193950Y-33126119D01*
X5016252Y-33011380D01*
X4956154Y-32987160D01*
X4825632Y-32934558D01*
X4825629Y-32934557D01*
X4820063Y-32932314D01*
X4612463Y-32891772D01*
X4606901Y-32891500D01*
X4450954Y-32891500D01*
X4293234Y-32906548D01*
X4090266Y-32966092D01*
X4084939Y-32968836D01*
X4084938Y-32968836D01*
X3907551Y-33060196D01*
X3907548Y-33060198D01*
X3902220Y-33062942D01*
X3735880Y-33193604D01*
X3731948Y-33198135D01*
X3731945Y-33198138D01*
X3663274Y-33277275D01*
X3597248Y-33353363D01*
X3594248Y-33358549D01*
X3594245Y-33358553D01*
X3548934Y-33436876D01*
X3491327Y-33536454D01*
X3421939Y-33736271D01*
X3421078Y-33742206D01*
X3421078Y-33742208D01*
X3409111Y-33824747D01*
X3391587Y-33945604D01*
X508000Y-33945604D01*
X508000Y-30945604D01*
X3391587Y-30945604D01*
X3401367Y-31156899D01*
X3402771Y-31162724D01*
X3402771Y-31162725D01*
X3443466Y-31331582D01*
X3450925Y-31362534D01*
X3453407Y-31367992D01*
X3453408Y-31367996D01*
X3496853Y-31463546D01*
X3538474Y-31555087D01*
X3660854Y-31727611D01*
X3813650Y-31873881D01*
X3991348Y-31988620D01*
X4051446Y-32012840D01*
X4181968Y-32065442D01*
X4181971Y-32065443D01*
X4187537Y-32067686D01*
X4395137Y-32108228D01*
X4400699Y-32108500D01*
X4556646Y-32108500D01*
X4714366Y-32093452D01*
X4917334Y-32033908D01*
X4922662Y-32031164D01*
X5100049Y-31939804D01*
X5100052Y-31939802D01*
X5105380Y-31937058D01*
X5271720Y-31806396D01*
X5275652Y-31801865D01*
X5275655Y-31801862D01*
X5406421Y-31651167D01*
X5410352Y-31646637D01*
X5413352Y-31641451D01*
X5413355Y-31641447D01*
X5513267Y-31468742D01*
X5516273Y-31463546D01*
X5585661Y-31263729D01*
X5606206Y-31122035D01*
X5610619Y-31091599D01*
X7685919Y-31091599D01*
X7686898Y-31097296D01*
X7686898Y-31097297D01*
X7716470Y-31269393D01*
X7722101Y-31302166D01*
X7796050Y-31502613D01*
X7799002Y-31507574D01*
X7799002Y-31507575D01*
X7901465Y-31679800D01*
X7905289Y-31686228D01*
X7909095Y-31690568D01*
X7909098Y-31690572D01*
X8010151Y-31805800D01*
X8046160Y-31846860D01*
X8213945Y-31979131D01*
X8219056Y-31981820D01*
X8219059Y-31981822D01*
X8238376Y-31991985D01*
X8403025Y-32078611D01*
X8408546Y-32080325D01*
X8408550Y-32080327D01*
X8601552Y-32140256D01*
X8601557Y-32140257D01*
X8607067Y-32141968D01*
X8637518Y-32145572D01*
X8776855Y-32162064D01*
X8776861Y-32162064D01*
X8780542Y-32162500D01*
X10211996Y-32162500D01*
X10321940Y-32152397D01*
X10364801Y-32148459D01*
X10364803Y-32148459D01*
X10370556Y-32147930D01*
X10514417Y-32107357D01*
X10570628Y-32091504D01*
X10570630Y-32091503D01*
X10576187Y-32089936D01*
X10581363Y-32087384D01*
X10581367Y-32087382D01*
X10762626Y-31997995D01*
X10767807Y-31995440D01*
X10773937Y-31990863D01*
X10934373Y-31871060D01*
X10934374Y-31871059D01*
X10938997Y-31867607D01*
X10954870Y-31850436D01*
X11080105Y-31714957D01*
X11080107Y-31714954D01*
X11084024Y-31710717D01*
X11198032Y-31530025D01*
X11277203Y-31331582D01*
X11278328Y-31325925D01*
X11278330Y-31325919D01*
X11317757Y-31127703D01*
X11317757Y-31127699D01*
X11318884Y-31122035D01*
X11319283Y-31091599D01*
X11321194Y-30945604D01*
X11321681Y-30908401D01*
X11319700Y-30896869D01*
X11286478Y-30703531D01*
X11286478Y-30703530D01*
X11285499Y-30697834D01*
X11211550Y-30497387D01*
X11183577Y-30450368D01*
X11105267Y-30318740D01*
X11105265Y-30318737D01*
X11102311Y-30313772D01*
X11098505Y-30309432D01*
X11098502Y-30309428D01*
X10965247Y-30157481D01*
X10961440Y-30153140D01*
X10793655Y-30020869D01*
X10788544Y-30018180D01*
X10788541Y-30018178D01*
X10623154Y-29931164D01*
X10604575Y-29921389D01*
X10437915Y-29869640D01*
X10378794Y-29830339D01*
X10350303Y-29765309D01*
X10361493Y-29695200D01*
X10408810Y-29642270D01*
X10441081Y-29628040D01*
X10570628Y-29591504D01*
X10570630Y-29591503D01*
X10576187Y-29589936D01*
X10581363Y-29587384D01*
X10581367Y-29587382D01*
X10762626Y-29497995D01*
X10767807Y-29495440D01*
X10938997Y-29367607D01*
X10954870Y-29350436D01*
X11080105Y-29214957D01*
X11080107Y-29214954D01*
X11084024Y-29210717D01*
X11198032Y-29030025D01*
X11277203Y-28831582D01*
X11278328Y-28825925D01*
X11278330Y-28825919D01*
X11317757Y-28627703D01*
X11317757Y-28627699D01*
X11318884Y-28622035D01*
X11319283Y-28591599D01*
X11321605Y-28414183D01*
X11321681Y-28408401D01*
X11285499Y-28197834D01*
X11211550Y-27997387D01*
X11192337Y-27965092D01*
X11105267Y-27818740D01*
X11105265Y-27818737D01*
X11102311Y-27813772D01*
X11098505Y-27809432D01*
X11098502Y-27809428D01*
X10965247Y-27657481D01*
X10961440Y-27653140D01*
X10793655Y-27520869D01*
X10788544Y-27518180D01*
X10788541Y-27518178D01*
X10656452Y-27448683D01*
X10604575Y-27421389D01*
X10599054Y-27419675D01*
X10599050Y-27419673D01*
X10406048Y-27359744D01*
X10406043Y-27359743D01*
X10400533Y-27358032D01*
X10350160Y-27352070D01*
X10230745Y-27337936D01*
X10230739Y-27337936D01*
X10227058Y-27337500D01*
X9759574Y-27337500D01*
X9691453Y-27317498D01*
X9644960Y-27263842D01*
X9634856Y-27193568D01*
X9664350Y-27128988D01*
X9724105Y-27090595D01*
X9809844Y-27065442D01*
X9917334Y-27033908D01*
X10000911Y-26990863D01*
X10100049Y-26939804D01*
X10100052Y-26939802D01*
X10105380Y-26937058D01*
X10271720Y-26806396D01*
X10275652Y-26801865D01*
X10275655Y-26801862D01*
X10394246Y-26665198D01*
X10410352Y-26646637D01*
X10413352Y-26641451D01*
X10413355Y-26641447D01*
X10513267Y-26468742D01*
X10516273Y-26463546D01*
X10585661Y-26263729D01*
X10586655Y-26256876D01*
X10615152Y-26060336D01*
X10615152Y-26060333D01*
X10616013Y-26054396D01*
X10606233Y-25843101D01*
X10556675Y-25637466D01*
X10547921Y-25618211D01*
X10482738Y-25474851D01*
X10469126Y-25444913D01*
X10358653Y-25289175D01*
X10350212Y-25277275D01*
X10350211Y-25277274D01*
X10346746Y-25272389D01*
X10193950Y-25126119D01*
X10016252Y-25011380D01*
X9928391Y-24975971D01*
X9825632Y-24934558D01*
X9825629Y-24934557D01*
X9820063Y-24932314D01*
X9716883Y-24912164D01*
X9653859Y-24879476D01*
X9618512Y-24817904D01*
X9622065Y-24746996D01*
X9663389Y-24689266D01*
X9729365Y-24663041D01*
X9741033Y-24662500D01*
X10211996Y-24662500D01*
X10321940Y-24652397D01*
X10364801Y-24648459D01*
X10364803Y-24648459D01*
X10370556Y-24647930D01*
X10500571Y-24611262D01*
X10570628Y-24591504D01*
X10570630Y-24591503D01*
X10576187Y-24589936D01*
X10581363Y-24587384D01*
X10581367Y-24587382D01*
X10762626Y-24497995D01*
X10767807Y-24495440D01*
X10850607Y-24433611D01*
X10934373Y-24371060D01*
X10934374Y-24371059D01*
X10938997Y-24367607D01*
X10954870Y-24350436D01*
X11080105Y-24214957D01*
X11080107Y-24214954D01*
X11084024Y-24210717D01*
X11198032Y-24030025D01*
X11277203Y-23831582D01*
X11278328Y-23825925D01*
X11278330Y-23825919D01*
X11317757Y-23627703D01*
X11317757Y-23627699D01*
X11318884Y-23622035D01*
X11319283Y-23591599D01*
X11321605Y-23414183D01*
X11321681Y-23408401D01*
X11300931Y-23287640D01*
X11286478Y-23203531D01*
X11286478Y-23203530D01*
X11285499Y-23197834D01*
X11211550Y-22997387D01*
X11198433Y-22975339D01*
X11105267Y-22818740D01*
X11105265Y-22818737D01*
X11102311Y-22813772D01*
X11098505Y-22809432D01*
X11098502Y-22809428D01*
X10965247Y-22657481D01*
X10961440Y-22653140D01*
X10793655Y-22520869D01*
X10788544Y-22518180D01*
X10788541Y-22518178D01*
X10685243Y-22463830D01*
X10604575Y-22421389D01*
X10437915Y-22369640D01*
X10378794Y-22330339D01*
X10350303Y-22265309D01*
X10361493Y-22195200D01*
X10408810Y-22142270D01*
X10441081Y-22128040D01*
X10570628Y-22091504D01*
X10570630Y-22091503D01*
X10576187Y-22089936D01*
X10581363Y-22087384D01*
X10581367Y-22087382D01*
X10762626Y-21997995D01*
X10767807Y-21995440D01*
X10773937Y-21990863D01*
X10934373Y-21871060D01*
X10934374Y-21871059D01*
X10938997Y-21867607D01*
X10954870Y-21850436D01*
X11080105Y-21714957D01*
X11080107Y-21714954D01*
X11084024Y-21710717D01*
X11198032Y-21530025D01*
X11277203Y-21331582D01*
X11278328Y-21325925D01*
X11278330Y-21325919D01*
X11317757Y-21127703D01*
X11317757Y-21127699D01*
X11318884Y-21122035D01*
X11319283Y-21091599D01*
X11321194Y-20945604D01*
X11321681Y-20908401D01*
X11310461Y-20843101D01*
X11286478Y-20703531D01*
X11286478Y-20703530D01*
X11285499Y-20697834D01*
X11211550Y-20497387D01*
X11183577Y-20450368D01*
X11105267Y-20318740D01*
X11105265Y-20318737D01*
X11102311Y-20313772D01*
X11098505Y-20309432D01*
X11098502Y-20309428D01*
X10965247Y-20157481D01*
X10961440Y-20153140D01*
X10793655Y-20020869D01*
X10788544Y-20018180D01*
X10788541Y-20018178D01*
X10623154Y-19931164D01*
X10604575Y-19921389D01*
X10599054Y-19919675D01*
X10599050Y-19919673D01*
X10406048Y-19859744D01*
X10406043Y-19859743D01*
X10400533Y-19858032D01*
X10350160Y-19852070D01*
X10230745Y-19837936D01*
X10230739Y-19837936D01*
X10227058Y-19837500D01*
X8795604Y-19837500D01*
X8685660Y-19847603D01*
X8642799Y-19851541D01*
X8642797Y-19851541D01*
X8637044Y-19852070D01*
X8507029Y-19888738D01*
X8436972Y-19908496D01*
X8436970Y-19908497D01*
X8431413Y-19910064D01*
X8426237Y-19912616D01*
X8426233Y-19912618D01*
X8244974Y-20002005D01*
X8239793Y-20004560D01*
X8235167Y-20008014D01*
X8235166Y-20008015D01*
X8077005Y-20126119D01*
X8068603Y-20132393D01*
X8064689Y-20136627D01*
X8064687Y-20136629D01*
X7939193Y-20272389D01*
X7923576Y-20289283D01*
X7809568Y-20469975D01*
X7730397Y-20668418D01*
X7729272Y-20674075D01*
X7729270Y-20674081D01*
X7694459Y-20849091D01*
X7688716Y-20877965D01*
X7688640Y-20883740D01*
X7688640Y-20883744D01*
X7688242Y-20914183D01*
X7685919Y-21091599D01*
X7686898Y-21097296D01*
X7686898Y-21097297D01*
X7721122Y-21296469D01*
X7722101Y-21302166D01*
X7796050Y-21502613D01*
X7799002Y-21507574D01*
X7799002Y-21507575D01*
X7827269Y-21555087D01*
X7905289Y-21686228D01*
X7909095Y-21690568D01*
X7909098Y-21690572D01*
X8010674Y-21806396D01*
X8046160Y-21846860D01*
X8213945Y-21979131D01*
X8219056Y-21981820D01*
X8219059Y-21981822D01*
X8238376Y-21991985D01*
X8403025Y-22078611D01*
X8569685Y-22130360D01*
X8628806Y-22169661D01*
X8657297Y-22234691D01*
X8646107Y-22304800D01*
X8598790Y-22357730D01*
X8566519Y-22371960D01*
X8436972Y-22408496D01*
X8436970Y-22408497D01*
X8431413Y-22410064D01*
X8426237Y-22412616D01*
X8426233Y-22412618D01*
X8244974Y-22502005D01*
X8239793Y-22504560D01*
X8235167Y-22508014D01*
X8235166Y-22508015D01*
X8105323Y-22604973D01*
X8068603Y-22632393D01*
X8064689Y-22636627D01*
X8064687Y-22636629D01*
X7930852Y-22781412D01*
X7923576Y-22789283D01*
X7809568Y-22969975D01*
X7730397Y-23168418D01*
X7729272Y-23174075D01*
X7729270Y-23174081D01*
X7689843Y-23372297D01*
X7688716Y-23377965D01*
X7688640Y-23383740D01*
X7688640Y-23383744D01*
X7688242Y-23414183D01*
X7685919Y-23591599D01*
X7722101Y-23802166D01*
X7796050Y-24002613D01*
X7905289Y-24186228D01*
X7909095Y-24190568D01*
X7909098Y-24190572D01*
X7996913Y-24290705D01*
X8046160Y-24346860D01*
X8213945Y-24479131D01*
X8219056Y-24481820D01*
X8219059Y-24481822D01*
X8238376Y-24491985D01*
X8403025Y-24578611D01*
X8408546Y-24580325D01*
X8408550Y-24580327D01*
X8601552Y-24640256D01*
X8601557Y-24640257D01*
X8607067Y-24641968D01*
X8637518Y-24645572D01*
X8776855Y-24662064D01*
X8776861Y-24662064D01*
X8780542Y-24662500D01*
X9248026Y-24662500D01*
X9316147Y-24682502D01*
X9362640Y-24736158D01*
X9372744Y-24806432D01*
X9343250Y-24871012D01*
X9283495Y-24909405D01*
X9238483Y-24922610D01*
X9090266Y-24966092D01*
X9084939Y-24968836D01*
X9084938Y-24968836D01*
X8907551Y-25060196D01*
X8907548Y-25060198D01*
X8902220Y-25062942D01*
X8735880Y-25193604D01*
X8731948Y-25198135D01*
X8731945Y-25198138D01*
X8624606Y-25321836D01*
X8597248Y-25353363D01*
X8594248Y-25358549D01*
X8594245Y-25358553D01*
X8541129Y-25450368D01*
X8491327Y-25536454D01*
X8421939Y-25736271D01*
X8421078Y-25742206D01*
X8421078Y-25742208D01*
X8409286Y-25823539D01*
X8391587Y-25945604D01*
X8401367Y-26156899D01*
X8402771Y-26162724D01*
X8402771Y-26162725D01*
X8416938Y-26221507D01*
X8450925Y-26362534D01*
X8453407Y-26367992D01*
X8453408Y-26367996D01*
X8496853Y-26463546D01*
X8538474Y-26555087D01*
X8607320Y-26652142D01*
X8649119Y-26711067D01*
X8660854Y-26727611D01*
X8813650Y-26873881D01*
X8991348Y-26988620D01*
X8996914Y-26990863D01*
X9181968Y-27065442D01*
X9181971Y-27065443D01*
X9187537Y-27067686D01*
X9258934Y-27081629D01*
X9290717Y-27087836D01*
X9353741Y-27120524D01*
X9389088Y-27182096D01*
X9385535Y-27253004D01*
X9344211Y-27310734D01*
X9278235Y-27336959D01*
X9266567Y-27337500D01*
X8795604Y-27337500D01*
X8685660Y-27347603D01*
X8642799Y-27351541D01*
X8642797Y-27351541D01*
X8637044Y-27352070D01*
X8507029Y-27388738D01*
X8436972Y-27408496D01*
X8436970Y-27408497D01*
X8431413Y-27410064D01*
X8426237Y-27412616D01*
X8426233Y-27412618D01*
X8244974Y-27502005D01*
X8239793Y-27504560D01*
X8235167Y-27508014D01*
X8235166Y-27508015D01*
X8073227Y-27628940D01*
X8068603Y-27632393D01*
X8064689Y-27636627D01*
X8064687Y-27636629D01*
X7932885Y-27779213D01*
X7923576Y-27789283D01*
X7809568Y-27969975D01*
X7730397Y-28168418D01*
X7729272Y-28174075D01*
X7729270Y-28174081D01*
X7689843Y-28372297D01*
X7688716Y-28377965D01*
X7688640Y-28383740D01*
X7688640Y-28383744D01*
X7688242Y-28414183D01*
X7685919Y-28591599D01*
X7686898Y-28597296D01*
X7686898Y-28597297D01*
X7719004Y-28784142D01*
X7722101Y-28802166D01*
X7796050Y-29002613D01*
X7905289Y-29186228D01*
X7909095Y-29190568D01*
X7909098Y-29190572D01*
X8000451Y-29294739D01*
X8046160Y-29346860D01*
X8213945Y-29479131D01*
X8219056Y-29481820D01*
X8219059Y-29481822D01*
X8322357Y-29536170D01*
X8403025Y-29578611D01*
X8569685Y-29630360D01*
X8628806Y-29669661D01*
X8657297Y-29734691D01*
X8646107Y-29804800D01*
X8598790Y-29857730D01*
X8566519Y-29871960D01*
X8436972Y-29908496D01*
X8436970Y-29908497D01*
X8431413Y-29910064D01*
X8426237Y-29912616D01*
X8426233Y-29912618D01*
X8244974Y-30002005D01*
X8239793Y-30004560D01*
X8235167Y-30008014D01*
X8235166Y-30008015D01*
X8078333Y-30125127D01*
X8068603Y-30132393D01*
X8064689Y-30136627D01*
X8064687Y-30136629D01*
X7931257Y-30280974D01*
X7923576Y-30289283D01*
X7809568Y-30469975D01*
X7730397Y-30668418D01*
X7729272Y-30674075D01*
X7729270Y-30674081D01*
X7694459Y-30849091D01*
X7688716Y-30877965D01*
X7688640Y-30883740D01*
X7688640Y-30883744D01*
X7688265Y-30912390D01*
X7685919Y-31091599D01*
X5610619Y-31091599D01*
X5615152Y-31060336D01*
X5615152Y-31060333D01*
X5616013Y-31054396D01*
X5606233Y-30843101D01*
X5565499Y-30674081D01*
X5558081Y-30643299D01*
X5558080Y-30643297D01*
X5556675Y-30637466D01*
X5520849Y-30558670D01*
X5492985Y-30497387D01*
X5469126Y-30444913D01*
X5372317Y-30308438D01*
X5350212Y-30277275D01*
X5350211Y-30277274D01*
X5346746Y-30272389D01*
X5193950Y-30126119D01*
X5016252Y-30011380D01*
X4942931Y-29981831D01*
X4825632Y-29934558D01*
X4825629Y-29934557D01*
X4820063Y-29932314D01*
X4612463Y-29891772D01*
X4606901Y-29891500D01*
X4450954Y-29891500D01*
X4293234Y-29906548D01*
X4090266Y-29966092D01*
X4084939Y-29968836D01*
X4084938Y-29968836D01*
X3907551Y-30060196D01*
X3907548Y-30060198D01*
X3902220Y-30062942D01*
X3735880Y-30193604D01*
X3731948Y-30198135D01*
X3731945Y-30198138D01*
X3636232Y-30308438D01*
X3597248Y-30353363D01*
X3594248Y-30358549D01*
X3594245Y-30358553D01*
X3547112Y-30440026D01*
X3491327Y-30536454D01*
X3421939Y-30736271D01*
X3421078Y-30742206D01*
X3421078Y-30742208D01*
X3397092Y-30907640D01*
X3391587Y-30945604D01*
X508000Y-30945604D01*
X508000Y-26705278D01*
X3341800Y-26705278D01*
X3342066Y-26711067D01*
X3355834Y-26860908D01*
X3357932Y-26872229D01*
X3412762Y-27066643D01*
X3416887Y-27077390D01*
X3506234Y-27258565D01*
X3512246Y-27268374D01*
X3633104Y-27430225D01*
X3640811Y-27438785D01*
X3789149Y-27575907D01*
X3798274Y-27582908D01*
X3969120Y-27690704D01*
X3979364Y-27695924D01*
X4166997Y-27770782D01*
X4178026Y-27774049D01*
X4232032Y-27784791D01*
X4244906Y-27783639D01*
X4248874Y-27771353D01*
X4757800Y-27771353D01*
X4761606Y-27784315D01*
X4776522Y-27786251D01*
X4800139Y-27782193D01*
X4811259Y-27779213D01*
X5000781Y-27709295D01*
X5011159Y-27704345D01*
X5184767Y-27601059D01*
X5194076Y-27594295D01*
X5345957Y-27461100D01*
X5353867Y-27452765D01*
X5478932Y-27294121D01*
X5485203Y-27284464D01*
X5579254Y-27105702D01*
X5583662Y-27095059D01*
X5643565Y-26902143D01*
X5645955Y-26890899D01*
X5665364Y-26726915D01*
X5665800Y-26719512D01*
X5665800Y-26272115D01*
X5661325Y-26256876D01*
X5659935Y-26255671D01*
X5652252Y-26254000D01*
X4775915Y-26254000D01*
X4760676Y-26258475D01*
X4759471Y-26259865D01*
X4757800Y-26267548D01*
X4757800Y-27771353D01*
X4248874Y-27771353D01*
X4249800Y-27768484D01*
X4249800Y-26272115D01*
X4245325Y-26256876D01*
X4243935Y-26255671D01*
X4236252Y-26254000D01*
X3359915Y-26254000D01*
X3344676Y-26258475D01*
X3343471Y-26259865D01*
X3341800Y-26267548D01*
X3341800Y-26705278D01*
X508000Y-26705278D01*
X508000Y-25727885D01*
X3341800Y-25727885D01*
X3346275Y-25743124D01*
X3347665Y-25744329D01*
X3355348Y-25746000D01*
X4231685Y-25746000D01*
X4246924Y-25741525D01*
X4248129Y-25740135D01*
X4249800Y-25732452D01*
X4249800Y-25727885D01*
X4757800Y-25727885D01*
X4762275Y-25743124D01*
X4763665Y-25744329D01*
X4771348Y-25746000D01*
X5647685Y-25746000D01*
X5662924Y-25741525D01*
X5664129Y-25740135D01*
X5665800Y-25732452D01*
X5665800Y-25294722D01*
X5665534Y-25288933D01*
X5651766Y-25139092D01*
X5649668Y-25127771D01*
X5594838Y-24933357D01*
X5590713Y-24922610D01*
X5501366Y-24741435D01*
X5495354Y-24731626D01*
X5374496Y-24569775D01*
X5366789Y-24561215D01*
X5218451Y-24424093D01*
X5209326Y-24417092D01*
X5038480Y-24309296D01*
X5028236Y-24304076D01*
X4840603Y-24229218D01*
X4829574Y-24225951D01*
X4775568Y-24215209D01*
X4762694Y-24216361D01*
X4757800Y-24231516D01*
X4757800Y-25727885D01*
X4249800Y-25727885D01*
X4249800Y-24228647D01*
X4245994Y-24215685D01*
X4231078Y-24213749D01*
X4207461Y-24217807D01*
X4196341Y-24220787D01*
X4006819Y-24290705D01*
X3996441Y-24295655D01*
X3822833Y-24398941D01*
X3813524Y-24405705D01*
X3661643Y-24538900D01*
X3653733Y-24547235D01*
X3528668Y-24705879D01*
X3522397Y-24715536D01*
X3428346Y-24894298D01*
X3423938Y-24904941D01*
X3364035Y-25097857D01*
X3361645Y-25109101D01*
X3342236Y-25273085D01*
X3341800Y-25280488D01*
X3341800Y-25727885D01*
X508000Y-25727885D01*
X508000Y-20945604D01*
X3391587Y-20945604D01*
X3401367Y-21156899D01*
X3402771Y-21162724D01*
X3402771Y-21162725D01*
X3443466Y-21331582D01*
X3450925Y-21362534D01*
X3453407Y-21367992D01*
X3453408Y-21367996D01*
X3496853Y-21463546D01*
X3538474Y-21555087D01*
X3660854Y-21727611D01*
X3813650Y-21873881D01*
X3991348Y-21988620D01*
X4051446Y-22012840D01*
X4181968Y-22065442D01*
X4181971Y-22065443D01*
X4187537Y-22067686D01*
X4395137Y-22108228D01*
X4400699Y-22108500D01*
X4556646Y-22108500D01*
X4714366Y-22093452D01*
X4917334Y-22033908D01*
X4922662Y-22031164D01*
X5100049Y-21939804D01*
X5100052Y-21939802D01*
X5105380Y-21937058D01*
X5271720Y-21806396D01*
X5275652Y-21801865D01*
X5275655Y-21801862D01*
X5406421Y-21651167D01*
X5410352Y-21646637D01*
X5413352Y-21641451D01*
X5413355Y-21641447D01*
X5513267Y-21468742D01*
X5516273Y-21463546D01*
X5585661Y-21263729D01*
X5616013Y-21054396D01*
X5606233Y-20843101D01*
X5565499Y-20674081D01*
X5558081Y-20643299D01*
X5558080Y-20643297D01*
X5556675Y-20637466D01*
X5513325Y-20542122D01*
X5492985Y-20497387D01*
X5469126Y-20444913D01*
X5346746Y-20272389D01*
X5193950Y-20126119D01*
X5016252Y-20011380D01*
X4956154Y-19987160D01*
X4825632Y-19934558D01*
X4825629Y-19934557D01*
X4820063Y-19932314D01*
X4612463Y-19891772D01*
X4606901Y-19891500D01*
X4450954Y-19891500D01*
X4293234Y-19906548D01*
X4090266Y-19966092D01*
X4084939Y-19968836D01*
X4084938Y-19968836D01*
X3907551Y-20060196D01*
X3907548Y-20060198D01*
X3902220Y-20062942D01*
X3735880Y-20193604D01*
X3731948Y-20198135D01*
X3731945Y-20198138D01*
X3663274Y-20277275D01*
X3597248Y-20353363D01*
X3594248Y-20358549D01*
X3594245Y-20358553D01*
X3547112Y-20440026D01*
X3491327Y-20536454D01*
X3421939Y-20736271D01*
X3391587Y-20945604D01*
X508000Y-20945604D01*
X508000Y-17945604D01*
X3391587Y-17945604D01*
X3401367Y-18156899D01*
X3402771Y-18162724D01*
X3402771Y-18162725D01*
X3443466Y-18331582D01*
X3450925Y-18362534D01*
X3453407Y-18367992D01*
X3453408Y-18367996D01*
X3496853Y-18463546D01*
X3538474Y-18555087D01*
X3660854Y-18727611D01*
X3813650Y-18873881D01*
X3991348Y-18988620D01*
X4051446Y-19012840D01*
X4181968Y-19065442D01*
X4181971Y-19065443D01*
X4187537Y-19067686D01*
X4395137Y-19108228D01*
X4400699Y-19108500D01*
X4556646Y-19108500D01*
X4714366Y-19093452D01*
X4917334Y-19033908D01*
X4922662Y-19031164D01*
X5100049Y-18939804D01*
X5100052Y-18939802D01*
X5105380Y-18937058D01*
X5271720Y-18806396D01*
X5275652Y-18801865D01*
X5275655Y-18801862D01*
X5406421Y-18651167D01*
X5410352Y-18646637D01*
X5413352Y-18641451D01*
X5413355Y-18641447D01*
X5513267Y-18468742D01*
X5516273Y-18463546D01*
X5585661Y-18263729D01*
X5616013Y-18054396D01*
X5606233Y-17843101D01*
X5565499Y-17674081D01*
X5558081Y-17643299D01*
X5558080Y-17643297D01*
X5556675Y-17637466D01*
X5513325Y-17542122D01*
X5492985Y-17497387D01*
X5469126Y-17444913D01*
X5346746Y-17272389D01*
X5193950Y-17126119D01*
X5016252Y-17011380D01*
X4956154Y-16987160D01*
X4825632Y-16934558D01*
X4825629Y-16934557D01*
X4820063Y-16932314D01*
X4612463Y-16891772D01*
X4606901Y-16891500D01*
X4450954Y-16891500D01*
X4293234Y-16906548D01*
X4090266Y-16966092D01*
X4084939Y-16968836D01*
X4084938Y-16968836D01*
X3907551Y-17060196D01*
X3907548Y-17060198D01*
X3902220Y-17062942D01*
X3735880Y-17193604D01*
X3731948Y-17198135D01*
X3731945Y-17198138D01*
X3663274Y-17277275D01*
X3597248Y-17353363D01*
X3594248Y-17358549D01*
X3594245Y-17358553D01*
X3547112Y-17440026D01*
X3491327Y-17536454D01*
X3421939Y-17736271D01*
X3391587Y-17945604D01*
X508000Y-17945604D01*
X508000Y-13708196D01*
X3341300Y-13708196D01*
X3355870Y-13866756D01*
X3413864Y-14072387D01*
X3416416Y-14077563D01*
X3416418Y-14077567D01*
X3502934Y-14253004D01*
X3508360Y-14264007D01*
X3511814Y-14268633D01*
X3511815Y-14268634D01*
X3624601Y-14419673D01*
X3636193Y-14435197D01*
X3640427Y-14439111D01*
X3640429Y-14439113D01*
X3728873Y-14520869D01*
X3793083Y-14580224D01*
X3973775Y-14694232D01*
X4172218Y-14773403D01*
X4177875Y-14774528D01*
X4177881Y-14774530D01*
X4376097Y-14813957D01*
X4376101Y-14813957D01*
X4381765Y-14815084D01*
X4387540Y-14815160D01*
X4387544Y-14815160D01*
X4494803Y-14816564D01*
X4595399Y-14817881D01*
X4601096Y-14816902D01*
X4601097Y-14816902D01*
X4800269Y-14782678D01*
X4800270Y-14782678D01*
X4805966Y-14781699D01*
X5006413Y-14707750D01*
X5098205Y-14653140D01*
X5185060Y-14601467D01*
X5185063Y-14601465D01*
X5190028Y-14598511D01*
X5194368Y-14594705D01*
X5194372Y-14594702D01*
X5346319Y-14461447D01*
X5350660Y-14457640D01*
X5482931Y-14289855D01*
X5496531Y-14264007D01*
X5567567Y-14128988D01*
X5582411Y-14100775D01*
X5586429Y-14087836D01*
X5644056Y-13902248D01*
X5644057Y-13902243D01*
X5645768Y-13896733D01*
X5649997Y-13861001D01*
X5665864Y-13726945D01*
X5665864Y-13726939D01*
X5666300Y-13723258D01*
X5666300Y-12291804D01*
X5651730Y-12133244D01*
X5593736Y-11927613D01*
X5586118Y-11912164D01*
X5501795Y-11741174D01*
X5499240Y-11735993D01*
X5479939Y-11710145D01*
X5374860Y-11569427D01*
X5374859Y-11569426D01*
X5371407Y-11564803D01*
X5367171Y-11560887D01*
X5218757Y-11423695D01*
X5218754Y-11423693D01*
X5214517Y-11419776D01*
X5033825Y-11305768D01*
X4835382Y-11226597D01*
X4829725Y-11225472D01*
X4829719Y-11225470D01*
X4631503Y-11186043D01*
X4631499Y-11186043D01*
X4625835Y-11184916D01*
X4620060Y-11184840D01*
X4620056Y-11184840D01*
X4512797Y-11183436D01*
X4412201Y-11182119D01*
X4406504Y-11183098D01*
X4406503Y-11183098D01*
X4207331Y-11217322D01*
X4201634Y-11218301D01*
X4001187Y-11292250D01*
X3996226Y-11295202D01*
X3996225Y-11295202D01*
X3822540Y-11398533D01*
X3822537Y-11398535D01*
X3817572Y-11401489D01*
X3813232Y-11405295D01*
X3813228Y-11405298D01*
X3725970Y-11481822D01*
X3656940Y-11542360D01*
X3524669Y-11710145D01*
X3521980Y-11715256D01*
X3521978Y-11715259D01*
X3474010Y-11806432D01*
X3425189Y-11899225D01*
X3423475Y-11904746D01*
X3423473Y-11904750D01*
X3389354Y-12014633D01*
X3361832Y-12103267D01*
X3361154Y-12108996D01*
X3351579Y-12189898D01*
X3341300Y-12276742D01*
X3341300Y-13708196D01*
X508000Y-13708196D01*
X508000Y-7111000D01*
X528002Y-7042879D01*
X581658Y-6996386D01*
X634000Y-6985000D01*
X3640740Y-6985000D01*
X3708861Y-7005002D01*
X3755354Y-7058658D01*
X3765458Y-7128932D01*
X3735964Y-7193512D01*
X3735878Y-7193602D01*
X3735880Y-7193604D01*
X3597248Y-7353363D01*
X3594248Y-7358549D01*
X3594245Y-7358553D01*
X3547112Y-7440026D01*
X3491327Y-7536454D01*
X3421939Y-7736271D01*
X3391587Y-7945604D01*
X3401367Y-8156899D01*
X3402771Y-8162724D01*
X3402771Y-8162725D01*
X3443466Y-8331582D01*
X3450925Y-8362534D01*
X3453407Y-8367992D01*
X3453408Y-8367996D01*
X3496853Y-8463546D01*
X3538474Y-8555087D01*
X3660854Y-8727611D01*
X3813650Y-8873881D01*
X3991348Y-8988620D01*
X4051446Y-9012840D01*
X4181968Y-9065442D01*
X4181971Y-9065443D01*
X4187537Y-9067686D01*
X4395137Y-9108228D01*
X4400699Y-9108500D01*
X4556646Y-9108500D01*
X4714366Y-9093452D01*
X4917334Y-9033908D01*
X4922662Y-9031164D01*
X5100049Y-8939804D01*
X5100052Y-8939802D01*
X5105380Y-8937058D01*
X5271720Y-8806396D01*
X5275652Y-8801865D01*
X5275655Y-8801862D01*
X5406421Y-8651167D01*
X5410352Y-8646637D01*
X5413352Y-8641451D01*
X5413355Y-8641447D01*
X5513267Y-8468742D01*
X5516273Y-8463546D01*
X5585661Y-8263729D01*
X5616013Y-8054396D01*
X5606233Y-7843101D01*
X5565499Y-7674081D01*
X5558081Y-7643299D01*
X5558080Y-7643297D01*
X5556675Y-7637466D01*
X5513325Y-7542122D01*
X5492985Y-7497387D01*
X5469126Y-7444913D01*
X5346746Y-7272389D01*
X5342419Y-7268247D01*
X5342414Y-7268241D01*
X5273236Y-7202018D01*
X5237859Y-7140463D01*
X5241378Y-7069554D01*
X5282674Y-7011803D01*
X5348637Y-6985547D01*
X5360366Y-6985000D01*
X7916792Y-6985000D01*
X7984913Y-7005002D01*
X8031406Y-7058658D01*
X8041510Y-7128932D01*
X8009317Y-7196529D01*
X7939193Y-7272389D01*
X7923576Y-7289283D01*
X7809568Y-7469975D01*
X7730397Y-7668418D01*
X7729272Y-7674075D01*
X7729270Y-7674081D01*
X7694459Y-7849091D01*
X7688716Y-7877965D01*
X7688640Y-7883740D01*
X7688640Y-7883744D01*
X7688242Y-7914183D01*
X7685919Y-8091599D01*
X7686898Y-8097296D01*
X7686898Y-8097297D01*
X7721122Y-8296469D01*
X7722101Y-8302166D01*
X7796050Y-8502613D01*
X7799002Y-8507574D01*
X7799002Y-8507575D01*
X7827269Y-8555087D01*
X7905289Y-8686228D01*
X7909095Y-8690568D01*
X7909098Y-8690572D01*
X8010674Y-8806396D01*
X8046160Y-8846860D01*
X8213945Y-8979131D01*
X8219056Y-8981820D01*
X8219059Y-8981822D01*
X8238376Y-8991985D01*
X8403025Y-9078611D01*
X8569685Y-9130360D01*
X8628806Y-9169661D01*
X8657297Y-9234691D01*
X8646107Y-9304800D01*
X8598790Y-9357730D01*
X8566519Y-9371960D01*
X8436972Y-9408496D01*
X8436970Y-9408497D01*
X8431413Y-9410064D01*
X8426237Y-9412616D01*
X8426233Y-9412618D01*
X8244974Y-9502005D01*
X8239793Y-9504560D01*
X8068603Y-9632393D01*
X8064689Y-9636627D01*
X8064687Y-9636629D01*
X8049425Y-9653140D01*
X7923576Y-9789283D01*
X7809568Y-9969975D01*
X7730397Y-10168418D01*
X7729272Y-10174075D01*
X7729270Y-10174081D01*
X7689843Y-10372297D01*
X7688716Y-10377965D01*
X7688640Y-10383740D01*
X7688640Y-10383744D01*
X7688242Y-10414183D01*
X7685919Y-10591599D01*
X7722101Y-10802166D01*
X7796050Y-11002613D01*
X7905289Y-11186228D01*
X7909095Y-11190568D01*
X7909098Y-11190572D01*
X7996516Y-11290252D01*
X8046160Y-11346860D01*
X8213945Y-11479131D01*
X8219056Y-11481820D01*
X8219059Y-11481822D01*
X8238376Y-11491985D01*
X8403025Y-11578611D01*
X8408546Y-11580325D01*
X8408550Y-11580327D01*
X8601552Y-11640256D01*
X8601557Y-11640257D01*
X8607067Y-11641968D01*
X8637518Y-11645572D01*
X8776855Y-11662064D01*
X8776861Y-11662064D01*
X8780542Y-11662500D01*
X9248026Y-11662500D01*
X9316147Y-11682502D01*
X9362640Y-11736158D01*
X9372744Y-11806432D01*
X9343250Y-11871012D01*
X9283495Y-11909405D01*
X9239087Y-11922433D01*
X9090266Y-11966092D01*
X9084939Y-11968836D01*
X9084938Y-11968836D01*
X8907551Y-12060196D01*
X8907548Y-12060198D01*
X8902220Y-12062942D01*
X8735880Y-12193604D01*
X8731948Y-12198135D01*
X8731945Y-12198138D01*
X8666936Y-12273055D01*
X8597248Y-12353363D01*
X8594248Y-12358549D01*
X8594245Y-12358553D01*
X8547112Y-12440026D01*
X8491327Y-12536454D01*
X8421939Y-12736271D01*
X8391587Y-12945604D01*
X8401367Y-13156899D01*
X8450925Y-13362534D01*
X8453407Y-13367992D01*
X8453408Y-13367996D01*
X8496853Y-13463546D01*
X8538474Y-13555087D01*
X8660854Y-13727611D01*
X8813650Y-13873881D01*
X8991348Y-13988620D01*
X8996914Y-13990863D01*
X9181968Y-14065442D01*
X9181971Y-14065443D01*
X9187537Y-14067686D01*
X9238134Y-14077567D01*
X9290717Y-14087836D01*
X9353741Y-14120524D01*
X9389088Y-14182096D01*
X9385535Y-14253004D01*
X9344211Y-14310734D01*
X9278235Y-14336959D01*
X9266567Y-14337500D01*
X8795604Y-14337500D01*
X8685660Y-14347603D01*
X8642799Y-14351541D01*
X8642797Y-14351541D01*
X8637044Y-14352070D01*
X8507029Y-14388738D01*
X8436972Y-14408496D01*
X8436970Y-14408497D01*
X8431413Y-14410064D01*
X8426237Y-14412616D01*
X8426233Y-14412618D01*
X8327218Y-14461447D01*
X8239793Y-14504560D01*
X8235167Y-14508014D01*
X8235166Y-14508015D01*
X8113977Y-14598511D01*
X8068603Y-14632393D01*
X8064689Y-14636627D01*
X8064687Y-14636629D01*
X7929682Y-14782678D01*
X7923576Y-14789283D01*
X7809568Y-14969975D01*
X7730397Y-15168418D01*
X7729272Y-15174075D01*
X7729270Y-15174081D01*
X7689843Y-15372297D01*
X7688716Y-15377965D01*
X7688640Y-15383740D01*
X7688640Y-15383744D01*
X7688242Y-15414183D01*
X7685919Y-15591599D01*
X7722101Y-15802166D01*
X7796050Y-16002613D01*
X7905289Y-16186228D01*
X7909095Y-16190568D01*
X7909098Y-16190572D01*
X8042353Y-16342519D01*
X8046160Y-16346860D01*
X8213945Y-16479131D01*
X8219056Y-16481820D01*
X8219059Y-16481822D01*
X8238376Y-16491985D01*
X8403025Y-16578611D01*
X8569685Y-16630360D01*
X8628806Y-16669661D01*
X8657297Y-16734691D01*
X8646107Y-16804800D01*
X8598790Y-16857730D01*
X8566519Y-16871960D01*
X8436972Y-16908496D01*
X8436970Y-16908497D01*
X8431413Y-16910064D01*
X8426237Y-16912616D01*
X8426233Y-16912618D01*
X8244974Y-17002005D01*
X8239793Y-17004560D01*
X8235167Y-17008014D01*
X8235166Y-17008015D01*
X8077005Y-17126119D01*
X8068603Y-17132393D01*
X8064689Y-17136627D01*
X8064687Y-17136629D01*
X7939193Y-17272389D01*
X7923576Y-17289283D01*
X7809568Y-17469975D01*
X7730397Y-17668418D01*
X7729272Y-17674075D01*
X7729270Y-17674081D01*
X7694459Y-17849091D01*
X7688716Y-17877965D01*
X7688640Y-17883740D01*
X7688640Y-17883744D01*
X7688242Y-17914183D01*
X7685919Y-18091599D01*
X7686898Y-18097296D01*
X7686898Y-18097297D01*
X7721122Y-18296469D01*
X7722101Y-18302166D01*
X7796050Y-18502613D01*
X7799002Y-18507574D01*
X7799002Y-18507575D01*
X7827269Y-18555087D01*
X7905289Y-18686228D01*
X7909095Y-18690568D01*
X7909098Y-18690572D01*
X8010674Y-18806396D01*
X8046160Y-18846860D01*
X8213945Y-18979131D01*
X8219056Y-18981820D01*
X8219059Y-18981822D01*
X8238376Y-18991985D01*
X8403025Y-19078611D01*
X8408546Y-19080325D01*
X8408550Y-19080327D01*
X8601552Y-19140256D01*
X8601557Y-19140257D01*
X8607067Y-19141968D01*
X8637518Y-19145572D01*
X8776855Y-19162064D01*
X8776861Y-19162064D01*
X8780542Y-19162500D01*
X10211996Y-19162500D01*
X10321940Y-19152397D01*
X10364801Y-19148459D01*
X10364803Y-19148459D01*
X10370556Y-19147930D01*
X10514417Y-19107357D01*
X10570628Y-19091504D01*
X10570630Y-19091503D01*
X10576187Y-19089936D01*
X10581363Y-19087384D01*
X10581367Y-19087382D01*
X10762626Y-18997995D01*
X10767807Y-18995440D01*
X10773937Y-18990863D01*
X10934373Y-18871060D01*
X10934374Y-18871059D01*
X10938997Y-18867607D01*
X10954870Y-18850436D01*
X11080105Y-18714957D01*
X11080107Y-18714954D01*
X11084024Y-18710717D01*
X11198032Y-18530025D01*
X11277203Y-18331582D01*
X11278328Y-18325925D01*
X11278330Y-18325919D01*
X11317757Y-18127703D01*
X11317757Y-18127699D01*
X11318884Y-18122035D01*
X11319283Y-18091599D01*
X11321194Y-17945604D01*
X11321681Y-17908401D01*
X11310461Y-17843101D01*
X11286478Y-17703531D01*
X11286478Y-17703530D01*
X11285499Y-17697834D01*
X11211550Y-17497387D01*
X11183577Y-17450368D01*
X11105267Y-17318740D01*
X11105265Y-17318737D01*
X11102311Y-17313772D01*
X11098505Y-17309432D01*
X11098502Y-17309428D01*
X10965247Y-17157481D01*
X10961440Y-17153140D01*
X10793655Y-17020869D01*
X10788544Y-17018180D01*
X10788541Y-17018178D01*
X10623154Y-16931164D01*
X10604575Y-16921389D01*
X10437915Y-16869640D01*
X10378794Y-16830339D01*
X10350303Y-16765309D01*
X10361493Y-16695200D01*
X10408810Y-16642270D01*
X10441081Y-16628040D01*
X10570628Y-16591504D01*
X10570630Y-16591503D01*
X10576187Y-16589936D01*
X10581363Y-16587384D01*
X10581367Y-16587382D01*
X10762626Y-16497995D01*
X10767807Y-16495440D01*
X10938997Y-16367607D01*
X10954870Y-16350436D01*
X11080105Y-16214957D01*
X11080107Y-16214954D01*
X11084024Y-16210717D01*
X11198032Y-16030025D01*
X11277203Y-15831582D01*
X11278328Y-15825925D01*
X11278330Y-15825919D01*
X11317757Y-15627703D01*
X11317757Y-15627699D01*
X11318884Y-15622035D01*
X11319283Y-15591599D01*
X11321605Y-15414183D01*
X11321681Y-15408401D01*
X11285499Y-15197834D01*
X11211550Y-14997387D01*
X11102311Y-14813772D01*
X11098505Y-14809432D01*
X11098502Y-14809428D01*
X10965247Y-14657481D01*
X10961440Y-14653140D01*
X10793655Y-14520869D01*
X10788544Y-14518180D01*
X10788541Y-14518178D01*
X10664855Y-14453104D01*
X10604575Y-14421389D01*
X10599054Y-14419675D01*
X10599050Y-14419673D01*
X10406048Y-14359744D01*
X10406043Y-14359743D01*
X10400533Y-14358032D01*
X10350160Y-14352070D01*
X10230745Y-14337936D01*
X10230739Y-14337936D01*
X10227058Y-14337500D01*
X9759574Y-14337500D01*
X9691453Y-14317498D01*
X9644960Y-14263842D01*
X9634856Y-14193568D01*
X9664350Y-14128988D01*
X9724105Y-14090595D01*
X9809844Y-14065442D01*
X9917334Y-14033908D01*
X10000911Y-13990863D01*
X10100049Y-13939804D01*
X10100052Y-13939802D01*
X10105380Y-13937058D01*
X10271720Y-13806396D01*
X10275652Y-13801865D01*
X10275655Y-13801862D01*
X10406421Y-13651167D01*
X10410352Y-13646637D01*
X10413352Y-13641451D01*
X10413355Y-13641447D01*
X10513267Y-13468742D01*
X10516273Y-13463546D01*
X10585661Y-13263729D01*
X10616013Y-13054396D01*
X10606233Y-12843101D01*
X10556675Y-12637466D01*
X10513325Y-12542122D01*
X10471606Y-12450368D01*
X10469126Y-12444913D01*
X10346746Y-12272389D01*
X10193950Y-12126119D01*
X10016252Y-12011380D01*
X9956154Y-11987160D01*
X9825632Y-11934558D01*
X9825629Y-11934557D01*
X9820063Y-11932314D01*
X9716883Y-11912164D01*
X9653859Y-11879476D01*
X9618512Y-11817904D01*
X9622065Y-11746996D01*
X9663389Y-11689266D01*
X9729365Y-11663041D01*
X9741033Y-11662500D01*
X10211996Y-11662500D01*
X10321940Y-11652397D01*
X10364801Y-11648459D01*
X10364803Y-11648459D01*
X10370556Y-11647930D01*
X10500571Y-11611262D01*
X10570628Y-11591504D01*
X10570630Y-11591503D01*
X10576187Y-11589936D01*
X10581363Y-11587384D01*
X10581367Y-11587382D01*
X10762626Y-11497995D01*
X10767807Y-11495440D01*
X10888523Y-11405298D01*
X10934373Y-11371060D01*
X10934374Y-11371059D01*
X10938997Y-11367607D01*
X10954870Y-11350436D01*
X11080105Y-11214957D01*
X11080107Y-11214954D01*
X11084024Y-11210717D01*
X11198032Y-11030025D01*
X11277203Y-10831582D01*
X11278328Y-10825925D01*
X11278330Y-10825919D01*
X11317757Y-10627703D01*
X11317757Y-10627699D01*
X11318884Y-10622035D01*
X11319283Y-10591599D01*
X11321605Y-10414183D01*
X11321681Y-10408401D01*
X11285499Y-10197834D01*
X11211550Y-9997387D01*
X11102311Y-9813772D01*
X11098505Y-9809432D01*
X11098502Y-9809428D01*
X10965247Y-9657481D01*
X10961440Y-9653140D01*
X10793655Y-9520869D01*
X10788544Y-9518180D01*
X10788541Y-9518178D01*
X10685243Y-9463830D01*
X10604575Y-9421389D01*
X10437915Y-9369640D01*
X10378794Y-9330339D01*
X10350303Y-9265309D01*
X10361493Y-9195200D01*
X10408810Y-9142270D01*
X10441081Y-9128040D01*
X10570628Y-9091504D01*
X10570630Y-9091503D01*
X10576187Y-9089936D01*
X10581363Y-9087384D01*
X10581367Y-9087382D01*
X10762626Y-8997995D01*
X10767807Y-8995440D01*
X10773937Y-8990863D01*
X10934373Y-8871060D01*
X10934374Y-8871059D01*
X10938997Y-8867607D01*
X10954870Y-8850436D01*
X11080105Y-8714957D01*
X11080107Y-8714954D01*
X11084024Y-8710717D01*
X11198032Y-8530025D01*
X11277203Y-8331582D01*
X11278328Y-8325925D01*
X11278330Y-8325919D01*
X11317757Y-8127703D01*
X11317757Y-8127699D01*
X11318884Y-8122035D01*
X11319283Y-8091599D01*
X11321194Y-7945604D01*
X11321681Y-7908401D01*
X11310461Y-7843101D01*
X11286478Y-7703531D01*
X11286478Y-7703530D01*
X11285499Y-7697834D01*
X11211550Y-7497387D01*
X11183577Y-7450368D01*
X11105267Y-7318740D01*
X11105265Y-7318737D01*
X11102311Y-7313772D01*
X10997342Y-7194078D01*
X10967465Y-7129674D01*
X10977151Y-7059341D01*
X11023324Y-7005409D01*
X11092074Y-6985000D01*
X11430000Y-6985000D01*
X11430000Y-634000D01*
X11450002Y-565879D01*
X11503658Y-519386D01*
X11556000Y-508000D01*
X25855810Y-508000D01*
X25923931Y-528002D01*
G37*
%TD.AperFunction*%
%TD*%
%TA.AperFunction,Conductor*%
%TO.N,GNDD*%
G36*
X15182121Y-59710002D02*
G01*
X15228614Y-59763658D01*
X15240000Y-59816000D01*
X15240000Y-62230000D01*
X27017900Y-62230000D01*
X27086021Y-62250002D01*
X27132514Y-62303658D01*
X27143900Y-62356000D01*
X27143900Y-99558568D01*
X27123898Y-99626689D01*
X27098564Y-99655363D01*
X26516374Y-100140522D01*
X26129645Y-100462796D01*
X26064508Y-100491040D01*
X26048982Y-100492000D01*
X6684979Y-100492000D01*
X6616858Y-100471998D01*
X6595884Y-100455095D01*
X4512810Y-98372020D01*
X4498869Y-98364408D01*
X4497034Y-98364539D01*
X4490420Y-98368790D01*
X2404116Y-100455095D01*
X2341804Y-100489120D01*
X2315021Y-100492000D01*
X1484190Y-100492000D01*
X1416069Y-100471998D01*
X1395095Y-100455095D01*
X544905Y-99604905D01*
X510879Y-99542593D01*
X508000Y-99515810D01*
X508000Y-97991832D01*
X1187333Y-97991832D01*
X1205117Y-98342893D01*
X1205827Y-98349649D01*
X1261420Y-98696723D01*
X1262859Y-98703378D01*
X1355608Y-99042410D01*
X1357757Y-99048871D01*
X1486581Y-99375912D01*
X1489412Y-99382095D01*
X1652803Y-99693310D01*
X1656286Y-99699152D01*
X1852330Y-99990896D01*
X1856433Y-99996340D01*
X1976425Y-100138836D01*
X1989164Y-100147279D01*
X1999608Y-100141181D01*
X4127980Y-98012810D01*
X4134357Y-98001131D01*
X4864408Y-98001131D01*
X4864539Y-98002966D01*
X4868790Y-98009580D01*
X6999009Y-100139798D01*
X7012605Y-100147223D01*
X7022218Y-100140522D01*
X7122518Y-100023912D01*
X7126676Y-100018514D01*
X7325762Y-99728840D01*
X7329310Y-99723029D01*
X7495942Y-99413559D01*
X7498849Y-99407381D01*
X7631090Y-99081713D01*
X7633304Y-99075283D01*
X7729598Y-98737237D01*
X7731105Y-98730607D01*
X7790332Y-98384118D01*
X7791112Y-98377378D01*
X7812668Y-98024925D01*
X7812784Y-98021323D01*
X7812853Y-98001819D01*
X7812761Y-97998194D01*
X7793666Y-97645615D01*
X7792931Y-97638849D01*
X7736130Y-97291985D01*
X7734663Y-97285313D01*
X7640736Y-96946627D01*
X7638562Y-96940163D01*
X7508598Y-96613578D01*
X7505742Y-96607398D01*
X7341269Y-96296763D01*
X7337769Y-96290937D01*
X7140697Y-95999862D01*
X7136590Y-95994453D01*
X7023565Y-95861179D01*
X7010740Y-95852743D01*
X7000416Y-95858795D01*
X4872020Y-97987190D01*
X4864408Y-98001131D01*
X4134357Y-98001131D01*
X4135592Y-97998869D01*
X4135461Y-97997034D01*
X4131210Y-97990420D01*
X2000992Y-95860203D01*
X1987455Y-95852811D01*
X1977753Y-95859599D01*
X1870430Y-95985257D01*
X1866296Y-95990664D01*
X1668215Y-96281041D01*
X1664697Y-96286851D01*
X1499134Y-96596922D01*
X1496259Y-96603087D01*
X1365155Y-96929218D01*
X1362962Y-96935658D01*
X1267846Y-97274044D01*
X1266363Y-97280679D01*
X1208350Y-97627354D01*
X1207591Y-97634126D01*
X1187357Y-97985037D01*
X1187333Y-97991832D01*
X508000Y-97991832D01*
X508000Y-95486862D01*
X2349950Y-95486862D01*
X2349986Y-95487704D01*
X2355037Y-95495826D01*
X4487190Y-97627980D01*
X4501131Y-97635592D01*
X4502966Y-97635461D01*
X4509580Y-97631210D01*
X6642798Y-95497991D01*
X6650412Y-95484047D01*
X6650344Y-95483089D01*
X6645836Y-95476272D01*
X6644418Y-95475065D01*
X6364813Y-95262064D01*
X6359187Y-95258240D01*
X6058214Y-95076681D01*
X6052202Y-95073484D01*
X5733370Y-94925487D01*
X5727070Y-94922967D01*
X5394129Y-94810273D01*
X5387551Y-94808437D01*
X5044417Y-94732367D01*
X5037678Y-94731251D01*
X4688310Y-94692680D01*
X4681529Y-94692301D01*
X4330015Y-94691687D01*
X4323242Y-94692042D01*
X3973720Y-94729395D01*
X3967010Y-94730482D01*
X3623586Y-94805361D01*
X3617011Y-94807172D01*
X3283683Y-94918702D01*
X3277361Y-94921205D01*
X2958034Y-95068079D01*
X2951991Y-95071265D01*
X2650401Y-95251763D01*
X2644755Y-95255571D01*
X2364408Y-95467596D01*
X2359211Y-95471987D01*
X2357972Y-95473155D01*
X2349950Y-95486862D01*
X508000Y-95486862D01*
X508000Y-90026387D01*
X7885052Y-90026387D01*
X7893879Y-90038005D01*
X8116612Y-90199830D01*
X8123292Y-90204070D01*
X8392903Y-90352290D01*
X8400038Y-90355647D01*
X8686101Y-90468908D01*
X8693627Y-90471353D01*
X8991610Y-90547862D01*
X8999381Y-90549345D01*
X9304609Y-90587903D01*
X9312500Y-90588400D01*
X9620162Y-90588400D01*
X9628053Y-90587903D01*
X9933281Y-90549345D01*
X9941052Y-90547862D01*
X10239035Y-90471353D01*
X10246561Y-90468908D01*
X10532624Y-90355647D01*
X10539759Y-90352290D01*
X10809370Y-90204070D01*
X10816050Y-90199830D01*
X11039154Y-90037736D01*
X11047577Y-90026813D01*
X11040673Y-90013952D01*
X9479143Y-88452422D01*
X9465199Y-88444808D01*
X9463366Y-88444939D01*
X9456751Y-88449190D01*
X7891665Y-90014276D01*
X7885052Y-90026387D01*
X508000Y-90026387D01*
X508000Y-88084358D01*
X6953621Y-88084358D01*
X6972938Y-88391394D01*
X6973931Y-88399255D01*
X7031577Y-88701446D01*
X7033548Y-88709123D01*
X7128615Y-89001709D01*
X7131530Y-89009072D01*
X7262520Y-89287441D01*
X7266332Y-89294374D01*
X7431182Y-89554136D01*
X7435826Y-89560529D01*
X7510828Y-89651190D01*
X7523345Y-89659645D01*
X7534083Y-89653438D01*
X9094309Y-88093212D01*
X9100687Y-88081532D01*
X9830739Y-88081532D01*
X9830870Y-88083365D01*
X9835121Y-88089980D01*
X11397476Y-89652335D01*
X11410738Y-89659577D01*
X11420843Y-89652388D01*
X11496836Y-89560529D01*
X11501480Y-89554136D01*
X11666330Y-89294374D01*
X11670142Y-89287441D01*
X11801132Y-89009072D01*
X11804047Y-89001709D01*
X11899114Y-88709123D01*
X11901085Y-88701446D01*
X11958731Y-88399255D01*
X11959724Y-88391394D01*
X11979041Y-88084358D01*
X11979041Y-88076442D01*
X11959724Y-87769406D01*
X11958731Y-87761545D01*
X11901085Y-87459354D01*
X11899114Y-87451677D01*
X11804047Y-87159091D01*
X11801132Y-87151728D01*
X11670142Y-86873359D01*
X11666330Y-86866426D01*
X11501480Y-86606664D01*
X11496836Y-86600271D01*
X11421834Y-86509610D01*
X11409317Y-86501155D01*
X11398579Y-86507362D01*
X9838353Y-88067588D01*
X9830739Y-88081532D01*
X9100687Y-88081532D01*
X9101923Y-88079268D01*
X9101792Y-88077435D01*
X9097541Y-88070820D01*
X7535186Y-86508465D01*
X7521924Y-86501223D01*
X7511819Y-86508412D01*
X7435826Y-86600271D01*
X7431182Y-86606664D01*
X7266332Y-86866426D01*
X7262520Y-86873359D01*
X7131530Y-87151728D01*
X7128615Y-87159091D01*
X7033548Y-87451677D01*
X7031577Y-87459354D01*
X6973931Y-87761545D01*
X6972938Y-87769406D01*
X6953621Y-88076442D01*
X6953621Y-88084358D01*
X508000Y-88084358D01*
X508000Y-86133987D01*
X7885085Y-86133987D01*
X7891989Y-86146848D01*
X9453519Y-87708378D01*
X9467463Y-87715992D01*
X9469296Y-87715861D01*
X9475911Y-87711610D01*
X11040997Y-86146524D01*
X11047610Y-86134413D01*
X11038783Y-86122795D01*
X10816050Y-85960970D01*
X10809370Y-85956730D01*
X10539759Y-85808510D01*
X10532624Y-85805153D01*
X10246561Y-85691892D01*
X10239035Y-85689447D01*
X9941052Y-85612938D01*
X9933281Y-85611455D01*
X9628053Y-85572897D01*
X9620162Y-85572400D01*
X9312500Y-85572400D01*
X9304609Y-85572897D01*
X8999381Y-85611455D01*
X8991610Y-85612938D01*
X8693627Y-85689447D01*
X8686101Y-85691892D01*
X8400038Y-85805153D01*
X8392903Y-85808510D01*
X8123292Y-85956730D01*
X8116612Y-85960970D01*
X7893508Y-86123064D01*
X7885085Y-86133987D01*
X508000Y-86133987D01*
X508000Y-82206462D01*
X10164824Y-82206462D01*
X10174120Y-82218477D01*
X10225325Y-82254331D01*
X10234820Y-82259814D01*
X10432278Y-82351890D01*
X10442570Y-82355636D01*
X10653019Y-82412025D01*
X10663812Y-82413928D01*
X10880856Y-82432917D01*
X10891806Y-82432917D01*
X11108850Y-82413928D01*
X11119643Y-82412025D01*
X11330092Y-82355636D01*
X11340384Y-82351890D01*
X11537842Y-82259814D01*
X11547337Y-82254331D01*
X11599379Y-82217891D01*
X11607755Y-82207412D01*
X11600687Y-82193966D01*
X10899143Y-81492422D01*
X10885199Y-81484808D01*
X10883366Y-81484939D01*
X10876751Y-81489190D01*
X10171254Y-82194687D01*
X10164824Y-82206462D01*
X508000Y-82206462D01*
X508000Y-81125875D01*
X9573814Y-81125875D01*
X9592803Y-81342919D01*
X9594706Y-81353712D01*
X9651095Y-81564161D01*
X9654841Y-81574453D01*
X9746917Y-81771911D01*
X9752400Y-81781406D01*
X9788840Y-81833448D01*
X9799319Y-81841824D01*
X9812765Y-81834756D01*
X10514309Y-81133212D01*
X10520687Y-81121532D01*
X11250739Y-81121532D01*
X11250870Y-81123365D01*
X11255121Y-81129980D01*
X11960618Y-81835477D01*
X11972393Y-81841907D01*
X11984408Y-81832611D01*
X12020262Y-81781406D01*
X12025745Y-81771911D01*
X12117821Y-81574453D01*
X12121567Y-81564161D01*
X12177956Y-81353712D01*
X12179859Y-81342919D01*
X12198848Y-81125875D01*
X12198848Y-81114925D01*
X12179859Y-80897881D01*
X12177956Y-80887088D01*
X12121567Y-80676639D01*
X12117821Y-80666347D01*
X12025745Y-80468889D01*
X12020262Y-80459394D01*
X11983822Y-80407352D01*
X11973343Y-80398976D01*
X11959897Y-80406044D01*
X11258353Y-81107588D01*
X11250739Y-81121532D01*
X10520687Y-81121532D01*
X10521923Y-81119268D01*
X10521792Y-81117435D01*
X10517541Y-81110820D01*
X9812044Y-80405323D01*
X9800269Y-80398893D01*
X9788254Y-80408189D01*
X9752400Y-80459394D01*
X9746917Y-80468889D01*
X9654841Y-80666347D01*
X9651095Y-80676639D01*
X9594706Y-80887088D01*
X9592803Y-80897881D01*
X9573814Y-81114925D01*
X9573814Y-81125875D01*
X508000Y-81125875D01*
X508000Y-79735400D01*
X6732833Y-79735400D01*
X6752788Y-79963487D01*
X6754212Y-79968800D01*
X6754212Y-79968802D01*
X6785807Y-80086713D01*
X6812047Y-80184643D01*
X6814370Y-80189624D01*
X6814370Y-80189625D01*
X6906482Y-80387162D01*
X6906485Y-80387167D01*
X6908808Y-80392149D01*
X7040133Y-80579700D01*
X7202031Y-80741598D01*
X7206539Y-80744755D01*
X7206542Y-80744757D01*
X7284720Y-80799498D01*
X7389582Y-80872923D01*
X7394564Y-80875246D01*
X7394569Y-80875249D01*
X7590393Y-80966562D01*
X7597088Y-80969684D01*
X7602396Y-80971106D01*
X7602398Y-80971107D01*
X7812929Y-81027519D01*
X7812931Y-81027519D01*
X7818244Y-81028943D01*
X8046331Y-81048898D01*
X8274418Y-81028943D01*
X8279731Y-81027519D01*
X8279733Y-81027519D01*
X8490264Y-80971107D01*
X8490266Y-80971106D01*
X8495574Y-80969684D01*
X8502269Y-80966562D01*
X8698093Y-80875249D01*
X8698098Y-80875246D01*
X8703080Y-80872923D01*
X8807942Y-80799498D01*
X8886120Y-80744757D01*
X8886123Y-80744755D01*
X8890631Y-80741598D01*
X9052529Y-80579700D01*
X9183854Y-80392149D01*
X9186177Y-80387167D01*
X9186180Y-80387162D01*
X9278292Y-80189625D01*
X9278292Y-80189624D01*
X9280615Y-80184643D01*
X9306856Y-80086713D01*
X9338450Y-79968802D01*
X9338450Y-79968800D01*
X9339874Y-79963487D01*
X9359829Y-79735400D01*
X9339874Y-79507313D01*
X9335302Y-79490249D01*
X9282038Y-79291467D01*
X9282037Y-79291465D01*
X9280615Y-79286157D01*
X9278292Y-79281175D01*
X9186180Y-79083638D01*
X9186177Y-79083633D01*
X9183854Y-79078651D01*
X9052529Y-78891100D01*
X8890631Y-78729202D01*
X8886123Y-78726045D01*
X8886120Y-78726043D01*
X8807942Y-78671302D01*
X8703080Y-78597877D01*
X8698098Y-78595554D01*
X8698093Y-78595551D01*
X8500556Y-78503439D01*
X8500555Y-78503439D01*
X8495574Y-78501116D01*
X8490266Y-78499694D01*
X8490264Y-78499693D01*
X8387312Y-78472107D01*
X8326689Y-78435155D01*
X8295668Y-78371294D01*
X8304096Y-78300800D01*
X8349299Y-78246053D01*
X8387312Y-78228693D01*
X8490264Y-78201107D01*
X8490266Y-78201106D01*
X8495574Y-78199684D01*
X8553172Y-78172826D01*
X8698093Y-78105249D01*
X8698098Y-78105246D01*
X8703080Y-78102923D01*
X8807942Y-78029498D01*
X8886120Y-77974757D01*
X8886123Y-77974755D01*
X8890631Y-77971598D01*
X9052529Y-77809700D01*
X9133788Y-77693651D01*
X9162512Y-77652629D01*
X9217969Y-77608301D01*
X9265725Y-77598900D01*
X9595211Y-77598900D01*
X9663332Y-77618902D01*
X9709825Y-77672558D01*
X9719929Y-77742832D01*
X9709406Y-77778148D01*
X9652047Y-77901157D01*
X9650625Y-77906465D01*
X9650624Y-77906467D01*
X9597441Y-78104949D01*
X9592788Y-78122313D01*
X9572833Y-78350400D01*
X9592788Y-78578487D01*
X9594212Y-78583800D01*
X9594212Y-78583802D01*
X9597984Y-78597877D01*
X9652047Y-78799643D01*
X9654370Y-78804624D01*
X9654370Y-78804625D01*
X9746482Y-79002162D01*
X9746485Y-79002167D01*
X9748808Y-79007149D01*
X9799184Y-79079093D01*
X9866305Y-79174951D01*
X9880133Y-79194700D01*
X10042031Y-79356598D01*
X10046539Y-79359755D01*
X10046542Y-79359757D01*
X10118875Y-79410405D01*
X10229582Y-79487923D01*
X10234564Y-79490246D01*
X10234569Y-79490249D01*
X10432106Y-79582361D01*
X10437088Y-79584684D01*
X10442395Y-79586106D01*
X10546317Y-79613952D01*
X10606939Y-79650904D01*
X10637961Y-79714765D01*
X10629532Y-79785259D01*
X10584329Y-79840006D01*
X10546316Y-79857366D01*
X10442570Y-79885164D01*
X10432278Y-79888910D01*
X10234820Y-79980986D01*
X10225325Y-79986469D01*
X10173283Y-80022909D01*
X10164907Y-80033388D01*
X10171975Y-80046834D01*
X10873519Y-80748378D01*
X10887463Y-80755992D01*
X10889296Y-80755861D01*
X10895911Y-80751610D01*
X11601408Y-80046113D01*
X11607838Y-80034338D01*
X11598542Y-80022323D01*
X11547337Y-79986469D01*
X11537842Y-79980986D01*
X11340384Y-79888910D01*
X11330092Y-79885164D01*
X11226346Y-79857366D01*
X11165723Y-79820415D01*
X11134702Y-79756554D01*
X11143130Y-79686060D01*
X11188333Y-79631312D01*
X11226345Y-79613952D01*
X11330267Y-79586106D01*
X11335574Y-79584684D01*
X11340556Y-79582361D01*
X11538093Y-79490249D01*
X11538098Y-79490246D01*
X11543080Y-79487923D01*
X11561521Y-79475011D01*
X11673950Y-79396287D01*
X11746221Y-79373500D01*
X14265006Y-79373500D01*
X14333127Y-79393502D01*
X14354101Y-79410405D01*
X14845248Y-79901552D01*
X14879274Y-79963864D01*
X14877859Y-80023259D01*
X14862282Y-80081391D01*
X14862281Y-80081398D01*
X14860857Y-80086713D01*
X14840902Y-80314800D01*
X14860857Y-80542887D01*
X14862281Y-80548200D01*
X14862281Y-80548202D01*
X14917924Y-80755861D01*
X14920116Y-80764043D01*
X14922439Y-80769024D01*
X14922439Y-80769025D01*
X15014551Y-80966562D01*
X15014554Y-80966567D01*
X15016877Y-80971549D01*
X15020034Y-80976057D01*
X15124938Y-81125875D01*
X15148202Y-81159100D01*
X15310100Y-81320998D01*
X15314608Y-81324155D01*
X15314611Y-81324157D01*
X15341406Y-81342919D01*
X15497651Y-81452323D01*
X15502633Y-81454646D01*
X15502638Y-81454649D01*
X15700175Y-81546761D01*
X15705157Y-81549084D01*
X15710465Y-81550506D01*
X15710467Y-81550507D01*
X15920998Y-81606919D01*
X15921000Y-81606919D01*
X15926313Y-81608343D01*
X16154400Y-81628298D01*
X16382487Y-81608343D01*
X16387800Y-81606919D01*
X16387802Y-81606919D01*
X16598333Y-81550507D01*
X16598335Y-81550506D01*
X16603643Y-81549084D01*
X16608625Y-81546761D01*
X16806162Y-81454649D01*
X16806167Y-81454646D01*
X16811149Y-81452323D01*
X16967394Y-81342919D01*
X16994189Y-81324157D01*
X16994192Y-81324155D01*
X16998700Y-81320998D01*
X17160598Y-81159100D01*
X17183863Y-81125875D01*
X17288766Y-80976057D01*
X17291923Y-80971549D01*
X17294246Y-80966567D01*
X17294249Y-80966562D01*
X17386361Y-80769025D01*
X17386361Y-80769024D01*
X17388684Y-80764043D01*
X17390877Y-80755861D01*
X17446519Y-80548202D01*
X17446519Y-80548200D01*
X17447943Y-80542887D01*
X17467898Y-80314800D01*
X17447943Y-80086713D01*
X17446517Y-80081391D01*
X17390107Y-79870867D01*
X17390106Y-79870865D01*
X17388684Y-79865557D01*
X17386361Y-79860575D01*
X17294249Y-79663038D01*
X17294246Y-79663033D01*
X17291923Y-79658051D01*
X17182653Y-79501998D01*
X17163757Y-79475011D01*
X17163755Y-79475008D01*
X17160598Y-79470500D01*
X16998700Y-79308602D01*
X16994192Y-79305445D01*
X16994189Y-79305443D01*
X16841597Y-79198597D01*
X16811149Y-79177277D01*
X16806167Y-79174954D01*
X16806162Y-79174951D01*
X16608625Y-79082839D01*
X16608624Y-79082839D01*
X16603643Y-79080516D01*
X16598335Y-79079094D01*
X16598333Y-79079093D01*
X16387802Y-79022681D01*
X16387800Y-79022681D01*
X16382487Y-79021257D01*
X16154400Y-79001302D01*
X15926313Y-79021257D01*
X15921008Y-79022679D01*
X15920994Y-79022681D01*
X15862861Y-79038259D01*
X15791884Y-79036571D01*
X15741152Y-79005648D01*
X15083247Y-78347742D01*
X15075713Y-78339463D01*
X15071600Y-78332982D01*
X15021948Y-78286356D01*
X15019107Y-78283602D01*
X14999370Y-78263865D01*
X14996173Y-78261385D01*
X14987151Y-78253680D01*
X14960700Y-78228841D01*
X14954921Y-78223414D01*
X14947975Y-78219595D01*
X14947972Y-78219593D01*
X14937166Y-78213652D01*
X14920647Y-78202801D01*
X14913633Y-78197361D01*
X14904641Y-78190386D01*
X14897372Y-78187241D01*
X14897368Y-78187238D01*
X14864063Y-78172826D01*
X14853413Y-78167609D01*
X14814660Y-78146305D01*
X14795037Y-78141267D01*
X14776334Y-78134863D01*
X14765020Y-78129967D01*
X14765019Y-78129967D01*
X14757745Y-78126819D01*
X14749922Y-78125580D01*
X14749912Y-78125577D01*
X14714076Y-78119901D01*
X14702456Y-78117495D01*
X14667311Y-78108472D01*
X14667310Y-78108472D01*
X14659630Y-78106500D01*
X14639376Y-78106500D01*
X14619665Y-78104949D01*
X14607486Y-78103020D01*
X14599657Y-78101780D01*
X14591765Y-78102526D01*
X14555639Y-78105941D01*
X14543781Y-78106500D01*
X12272320Y-78106500D01*
X12204199Y-78086498D01*
X12157706Y-78032842D01*
X12150613Y-78013111D01*
X12122038Y-77906467D01*
X12122037Y-77906465D01*
X12120615Y-77901157D01*
X12063256Y-77778149D01*
X12052595Y-77707958D01*
X12081575Y-77643146D01*
X12140995Y-77604289D01*
X12177451Y-77598900D01*
X15640006Y-77598900D01*
X15708127Y-77618902D01*
X15729101Y-77635805D01*
X17994848Y-79901552D01*
X18028874Y-79963864D01*
X18027459Y-80023259D01*
X18011882Y-80081391D01*
X18011881Y-80081398D01*
X18010457Y-80086713D01*
X17990502Y-80314800D01*
X18010457Y-80542887D01*
X18011881Y-80548200D01*
X18011881Y-80548202D01*
X18067524Y-80755861D01*
X18069716Y-80764043D01*
X18072039Y-80769024D01*
X18072039Y-80769025D01*
X18164151Y-80966562D01*
X18164154Y-80966567D01*
X18166477Y-80971549D01*
X18169634Y-80976057D01*
X18274538Y-81125875D01*
X18297802Y-81159100D01*
X18459700Y-81320998D01*
X18464208Y-81324155D01*
X18464211Y-81324157D01*
X18491006Y-81342919D01*
X18647251Y-81452323D01*
X18652233Y-81454646D01*
X18652238Y-81454649D01*
X18849775Y-81546761D01*
X18854757Y-81549084D01*
X18860065Y-81550506D01*
X18860067Y-81550507D01*
X19070598Y-81606919D01*
X19070600Y-81606919D01*
X19075913Y-81608343D01*
X19304000Y-81628298D01*
X19532087Y-81608343D01*
X19537400Y-81606919D01*
X19537402Y-81606919D01*
X19747933Y-81550507D01*
X19747935Y-81550506D01*
X19753243Y-81549084D01*
X19758225Y-81546761D01*
X19955762Y-81454649D01*
X19955767Y-81454646D01*
X19960749Y-81452323D01*
X20116994Y-81342919D01*
X20143789Y-81324157D01*
X20143792Y-81324155D01*
X20148300Y-81320998D01*
X20310198Y-81159100D01*
X20333463Y-81125875D01*
X20438366Y-80976057D01*
X20441523Y-80971549D01*
X20443846Y-80966567D01*
X20443849Y-80966562D01*
X20535961Y-80769025D01*
X20535961Y-80769024D01*
X20538284Y-80764043D01*
X20540477Y-80755861D01*
X20596119Y-80548202D01*
X20596119Y-80548200D01*
X20597543Y-80542887D01*
X20617498Y-80314800D01*
X20597543Y-80086713D01*
X20596117Y-80081391D01*
X20539707Y-79870867D01*
X20539706Y-79870865D01*
X20538284Y-79865557D01*
X20535961Y-79860575D01*
X20443849Y-79663038D01*
X20443846Y-79663033D01*
X20441523Y-79658051D01*
X20332253Y-79501998D01*
X20313357Y-79475011D01*
X20313355Y-79475008D01*
X20310198Y-79470500D01*
X20148300Y-79308602D01*
X20143792Y-79305445D01*
X20143789Y-79305443D01*
X19991197Y-79198597D01*
X19960749Y-79177277D01*
X19955767Y-79174954D01*
X19955762Y-79174951D01*
X19758225Y-79082839D01*
X19758224Y-79082839D01*
X19753243Y-79080516D01*
X19747935Y-79079094D01*
X19747933Y-79079093D01*
X19537402Y-79022681D01*
X19537400Y-79022681D01*
X19532087Y-79021257D01*
X19304000Y-79001302D01*
X19075913Y-79021257D01*
X19070602Y-79022680D01*
X19070591Y-79022682D01*
X19012459Y-79038259D01*
X18941483Y-79036570D01*
X18890752Y-79005648D01*
X17694805Y-77809700D01*
X16458252Y-76573147D01*
X16450712Y-76564861D01*
X16446600Y-76558382D01*
X16396948Y-76511756D01*
X16394107Y-76509002D01*
X16374370Y-76489265D01*
X16371173Y-76486785D01*
X16362151Y-76479080D01*
X16335700Y-76454241D01*
X16329921Y-76448814D01*
X16322975Y-76444995D01*
X16322972Y-76444993D01*
X16312166Y-76439052D01*
X16295647Y-76428201D01*
X16295183Y-76427841D01*
X16279641Y-76415786D01*
X16272372Y-76412641D01*
X16272368Y-76412638D01*
X16239063Y-76398226D01*
X16228413Y-76393009D01*
X16189660Y-76371705D01*
X16170037Y-76366667D01*
X16151334Y-76360263D01*
X16140020Y-76355367D01*
X16140019Y-76355367D01*
X16132745Y-76352219D01*
X16124922Y-76350980D01*
X16124912Y-76350977D01*
X16089076Y-76345301D01*
X16077456Y-76342895D01*
X16042311Y-76333872D01*
X16042310Y-76333872D01*
X16034630Y-76331900D01*
X16014376Y-76331900D01*
X15994665Y-76330349D01*
X15982486Y-76328420D01*
X15974657Y-76327180D01*
X15966765Y-76327926D01*
X15930639Y-76331341D01*
X15918781Y-76331900D01*
X12177451Y-76331900D01*
X12109330Y-76311898D01*
X12062837Y-76258242D01*
X12052733Y-76187968D01*
X12063256Y-76152650D01*
X12118292Y-76034625D01*
X12118292Y-76034624D01*
X12120615Y-76029643D01*
X12174679Y-75827877D01*
X12178450Y-75813802D01*
X12178450Y-75813800D01*
X12179874Y-75808487D01*
X12199829Y-75580400D01*
X12179874Y-75352313D01*
X12175302Y-75335249D01*
X12122038Y-75136467D01*
X12122037Y-75136465D01*
X12120615Y-75131157D01*
X12063256Y-75008149D01*
X12052595Y-74937958D01*
X12081575Y-74873146D01*
X12140995Y-74834289D01*
X12177451Y-74828900D01*
X15184633Y-74828900D01*
X15195816Y-74829427D01*
X15203309Y-74831102D01*
X15211235Y-74830853D01*
X15211236Y-74830853D01*
X15271386Y-74828962D01*
X15275345Y-74828900D01*
X15303256Y-74828900D01*
X15307191Y-74828403D01*
X15307256Y-74828395D01*
X15319093Y-74827462D01*
X15351351Y-74826448D01*
X15355370Y-74826322D01*
X15363289Y-74826073D01*
X15382743Y-74820421D01*
X15402100Y-74816413D01*
X15414330Y-74814868D01*
X15414331Y-74814868D01*
X15422197Y-74813874D01*
X15429568Y-74810955D01*
X15429570Y-74810955D01*
X15463312Y-74797596D01*
X15474542Y-74793751D01*
X15509383Y-74783629D01*
X15509384Y-74783629D01*
X15516993Y-74781418D01*
X15523812Y-74777385D01*
X15523817Y-74777383D01*
X15534428Y-74771107D01*
X15552176Y-74762412D01*
X15571017Y-74754952D01*
X15606787Y-74728964D01*
X15616707Y-74722448D01*
X15647935Y-74703980D01*
X15647938Y-74703978D01*
X15654762Y-74699942D01*
X15669083Y-74685621D01*
X15684117Y-74672780D01*
X15694094Y-74665531D01*
X15700507Y-74660872D01*
X15728698Y-74626795D01*
X15736688Y-74618016D01*
X18890752Y-71463952D01*
X18953064Y-71429926D01*
X19012459Y-71431341D01*
X19070591Y-71446918D01*
X19070602Y-71446920D01*
X19075913Y-71448343D01*
X19304000Y-71468298D01*
X19532087Y-71448343D01*
X19537400Y-71446919D01*
X19537402Y-71446919D01*
X19747933Y-71390507D01*
X19747935Y-71390506D01*
X19753243Y-71389084D01*
X19758225Y-71386761D01*
X19955762Y-71294649D01*
X19955767Y-71294646D01*
X19960749Y-71292323D01*
X20104028Y-71191998D01*
X20143789Y-71164157D01*
X20143792Y-71164155D01*
X20148300Y-71160998D01*
X20310198Y-70999100D01*
X20329752Y-70971175D01*
X20438366Y-70816057D01*
X20441523Y-70811549D01*
X20443846Y-70806567D01*
X20443849Y-70806562D01*
X20535961Y-70609025D01*
X20535961Y-70609024D01*
X20538284Y-70604043D01*
X20580541Y-70446341D01*
X20596119Y-70388202D01*
X20596120Y-70388198D01*
X20597543Y-70382887D01*
X20617498Y-70154800D01*
X20597543Y-69926713D01*
X20538284Y-69705557D01*
X20497355Y-69617784D01*
X20443849Y-69503038D01*
X20443846Y-69503033D01*
X20441523Y-69498051D01*
X20310198Y-69310500D01*
X20148300Y-69148602D01*
X20143792Y-69145445D01*
X20143789Y-69145443D01*
X20065611Y-69090702D01*
X19960749Y-69017277D01*
X19955767Y-69014954D01*
X19955762Y-69014951D01*
X19758225Y-68922839D01*
X19758224Y-68922839D01*
X19753243Y-68920516D01*
X19747935Y-68919094D01*
X19747933Y-68919093D01*
X19537402Y-68862681D01*
X19537400Y-68862681D01*
X19532087Y-68861257D01*
X19304000Y-68841302D01*
X19075913Y-68861257D01*
X19070600Y-68862681D01*
X19070598Y-68862681D01*
X18860067Y-68919093D01*
X18860065Y-68919094D01*
X18854757Y-68920516D01*
X18849776Y-68922839D01*
X18849775Y-68922839D01*
X18652238Y-69014951D01*
X18652233Y-69014954D01*
X18647251Y-69017277D01*
X18542389Y-69090702D01*
X18464211Y-69145443D01*
X18464208Y-69145445D01*
X18459700Y-69148602D01*
X18297802Y-69310500D01*
X18166477Y-69498051D01*
X18164154Y-69503033D01*
X18164151Y-69503038D01*
X18110645Y-69617784D01*
X18069716Y-69705557D01*
X18010457Y-69926713D01*
X17990502Y-70154800D01*
X18010457Y-70382887D01*
X18020188Y-70419202D01*
X18027460Y-70446341D01*
X18025770Y-70517318D01*
X17994848Y-70568047D01*
X15037900Y-73524995D01*
X14975588Y-73559021D01*
X14948805Y-73561900D01*
X12177451Y-73561900D01*
X12109330Y-73541898D01*
X12062837Y-73488242D01*
X12052733Y-73417968D01*
X12063256Y-73382650D01*
X12118292Y-73264625D01*
X12118292Y-73264624D01*
X12120615Y-73259643D01*
X12174679Y-73057877D01*
X12178450Y-73043802D01*
X12178450Y-73043800D01*
X12179874Y-73038487D01*
X12199829Y-72810400D01*
X12179874Y-72582313D01*
X12175302Y-72565249D01*
X12122038Y-72366467D01*
X12122037Y-72366465D01*
X12120615Y-72361157D01*
X12063256Y-72238149D01*
X12052595Y-72167958D01*
X12081575Y-72103146D01*
X12140995Y-72064289D01*
X12177451Y-72058900D01*
X14805033Y-72058900D01*
X14816216Y-72059427D01*
X14823709Y-72061102D01*
X14831635Y-72060853D01*
X14831636Y-72060853D01*
X14891786Y-72058962D01*
X14895745Y-72058900D01*
X14923656Y-72058900D01*
X14927591Y-72058403D01*
X14927656Y-72058395D01*
X14939493Y-72057462D01*
X14971751Y-72056448D01*
X14975770Y-72056322D01*
X14983689Y-72056073D01*
X15003143Y-72050421D01*
X15022500Y-72046413D01*
X15034730Y-72044868D01*
X15034731Y-72044868D01*
X15042597Y-72043874D01*
X15049968Y-72040955D01*
X15049970Y-72040955D01*
X15083712Y-72027596D01*
X15094942Y-72023751D01*
X15129783Y-72013629D01*
X15129784Y-72013629D01*
X15137393Y-72011418D01*
X15144212Y-72007385D01*
X15144217Y-72007383D01*
X15154828Y-72001107D01*
X15172576Y-71992412D01*
X15191417Y-71984952D01*
X15227187Y-71958964D01*
X15237107Y-71952448D01*
X15268335Y-71933980D01*
X15268338Y-71933978D01*
X15275162Y-71929942D01*
X15289483Y-71915621D01*
X15304517Y-71902780D01*
X15314494Y-71895531D01*
X15320907Y-71890872D01*
X15349098Y-71856795D01*
X15357088Y-71848016D01*
X15741152Y-71463952D01*
X15803464Y-71429926D01*
X15862859Y-71431341D01*
X15920991Y-71446918D01*
X15921002Y-71446920D01*
X15926313Y-71448343D01*
X16154400Y-71468298D01*
X16382487Y-71448343D01*
X16387800Y-71446919D01*
X16387802Y-71446919D01*
X16598333Y-71390507D01*
X16598335Y-71390506D01*
X16603643Y-71389084D01*
X16608625Y-71386761D01*
X16806162Y-71294649D01*
X16806167Y-71294646D01*
X16811149Y-71292323D01*
X16954428Y-71191998D01*
X16994189Y-71164157D01*
X16994192Y-71164155D01*
X16998700Y-71160998D01*
X17160598Y-70999100D01*
X17180152Y-70971175D01*
X17288766Y-70816057D01*
X17291923Y-70811549D01*
X17294246Y-70806567D01*
X17294249Y-70806562D01*
X17386361Y-70609025D01*
X17386361Y-70609024D01*
X17388684Y-70604043D01*
X17430941Y-70446341D01*
X17446519Y-70388202D01*
X17446520Y-70388198D01*
X17447943Y-70382887D01*
X17467898Y-70154800D01*
X17447943Y-69926713D01*
X17388684Y-69705557D01*
X17347755Y-69617784D01*
X17294249Y-69503038D01*
X17294246Y-69503033D01*
X17291923Y-69498051D01*
X17160598Y-69310500D01*
X16998700Y-69148602D01*
X16994192Y-69145445D01*
X16994189Y-69145443D01*
X16916011Y-69090702D01*
X16811149Y-69017277D01*
X16806167Y-69014954D01*
X16806162Y-69014951D01*
X16608625Y-68922839D01*
X16608624Y-68922839D01*
X16603643Y-68920516D01*
X16598335Y-68919094D01*
X16598333Y-68919093D01*
X16387802Y-68862681D01*
X16387800Y-68862681D01*
X16382487Y-68861257D01*
X16154400Y-68841302D01*
X15926313Y-68861257D01*
X15921000Y-68862681D01*
X15920998Y-68862681D01*
X15710467Y-68919093D01*
X15710465Y-68919094D01*
X15705157Y-68920516D01*
X15700176Y-68922839D01*
X15700175Y-68922839D01*
X15502638Y-69014951D01*
X15502633Y-69014954D01*
X15497651Y-69017277D01*
X15392789Y-69090702D01*
X15314611Y-69145443D01*
X15314608Y-69145445D01*
X15310100Y-69148602D01*
X15148202Y-69310500D01*
X15016877Y-69498051D01*
X15014554Y-69503033D01*
X15014551Y-69503038D01*
X14961045Y-69617784D01*
X14920116Y-69705557D01*
X14860857Y-69926713D01*
X14840902Y-70154800D01*
X14860857Y-70382887D01*
X14862279Y-70388192D01*
X14862281Y-70388206D01*
X14877859Y-70446339D01*
X14876171Y-70517316D01*
X14845248Y-70568048D01*
X14658299Y-70754996D01*
X14595987Y-70789021D01*
X14569204Y-70791900D01*
X12320831Y-70791900D01*
X12252710Y-70771898D01*
X12206217Y-70718242D01*
X12194831Y-70665900D01*
X12194831Y-69192266D01*
X12188076Y-69130084D01*
X12136946Y-68993695D01*
X12049592Y-68877139D01*
X11933036Y-68789785D01*
X11796647Y-68738655D01*
X11734465Y-68731900D01*
X10038197Y-68731900D01*
X9976015Y-68738655D01*
X9839626Y-68789785D01*
X9723070Y-68877139D01*
X9635716Y-68993695D01*
X9584586Y-69130084D01*
X9577831Y-69192266D01*
X9577831Y-69279880D01*
X9557829Y-69348001D01*
X9504173Y-69394494D01*
X9455789Y-69405818D01*
X9423333Y-69406838D01*
X9419375Y-69406900D01*
X9391475Y-69406900D01*
X9387485Y-69407404D01*
X9375651Y-69408336D01*
X9331442Y-69409726D01*
X9323828Y-69411938D01*
X9323823Y-69411939D01*
X9311990Y-69415377D01*
X9292627Y-69419388D01*
X9272534Y-69421926D01*
X9265167Y-69424843D01*
X9265162Y-69424844D01*
X9231423Y-69438202D01*
X9220196Y-69442046D01*
X9177738Y-69454382D01*
X9170912Y-69458419D01*
X9160303Y-69464693D01*
X9142555Y-69473388D01*
X9123714Y-69480848D01*
X9117298Y-69485510D01*
X9117297Y-69485510D01*
X9087944Y-69506836D01*
X9078024Y-69513352D01*
X9046796Y-69531820D01*
X9046793Y-69531822D01*
X9039969Y-69535858D01*
X9025648Y-69550179D01*
X9010615Y-69563019D01*
X8994224Y-69574928D01*
X8989173Y-69581034D01*
X8966033Y-69609005D01*
X8958043Y-69617784D01*
X8459579Y-70116248D01*
X8397267Y-70150274D01*
X8337872Y-70148859D01*
X8279740Y-70133282D01*
X8279729Y-70133280D01*
X8274418Y-70131857D01*
X8046331Y-70111902D01*
X7818244Y-70131857D01*
X7812931Y-70133281D01*
X7812929Y-70133281D01*
X7602398Y-70189693D01*
X7602396Y-70189694D01*
X7597088Y-70191116D01*
X7592107Y-70193439D01*
X7592106Y-70193439D01*
X7394569Y-70285551D01*
X7394564Y-70285554D01*
X7389582Y-70287877D01*
X7284720Y-70361302D01*
X7206542Y-70416043D01*
X7206539Y-70416045D01*
X7202031Y-70419202D01*
X7040133Y-70581100D01*
X7036976Y-70585608D01*
X7036974Y-70585611D01*
X6982233Y-70663789D01*
X6908808Y-70768651D01*
X6906485Y-70773633D01*
X6906482Y-70773638D01*
X6888804Y-70811549D01*
X6812047Y-70976157D01*
X6810625Y-70981465D01*
X6810624Y-70981467D01*
X6761672Y-71164157D01*
X6752788Y-71197313D01*
X6732833Y-71425400D01*
X6752788Y-71653487D01*
X6754212Y-71658800D01*
X6754212Y-71658802D01*
X6807265Y-71856795D01*
X6812047Y-71874643D01*
X6814370Y-71879624D01*
X6814370Y-71879625D01*
X6906482Y-72077162D01*
X6906485Y-72077167D01*
X6908808Y-72082149D01*
X7040133Y-72269700D01*
X7202031Y-72431598D01*
X7206539Y-72434755D01*
X7206542Y-72434757D01*
X7284720Y-72489498D01*
X7389582Y-72562923D01*
X7394564Y-72565246D01*
X7394569Y-72565249D01*
X7592106Y-72657361D01*
X7597088Y-72659684D01*
X7602396Y-72661106D01*
X7602398Y-72661107D01*
X7705350Y-72688693D01*
X7765973Y-72725645D01*
X7796994Y-72789506D01*
X7788566Y-72860000D01*
X7743363Y-72914747D01*
X7705350Y-72932107D01*
X7602398Y-72959693D01*
X7602396Y-72959694D01*
X7597088Y-72961116D01*
X7592107Y-72963439D01*
X7592106Y-72963439D01*
X7394569Y-73055551D01*
X7394564Y-73055554D01*
X7389582Y-73057877D01*
X7284720Y-73131302D01*
X7206542Y-73186043D01*
X7206539Y-73186045D01*
X7202031Y-73189202D01*
X7040133Y-73351100D01*
X6908808Y-73538651D01*
X6906485Y-73543633D01*
X6906482Y-73543638D01*
X6814370Y-73741175D01*
X6812047Y-73746157D01*
X6752788Y-73967313D01*
X6732833Y-74195400D01*
X6752788Y-74423487D01*
X6754212Y-74428800D01*
X6754212Y-74428802D01*
X6807265Y-74626795D01*
X6812047Y-74644643D01*
X6814370Y-74649624D01*
X6814370Y-74649625D01*
X6906482Y-74847162D01*
X6906485Y-74847167D01*
X6908808Y-74852149D01*
X7040133Y-75039700D01*
X7202031Y-75201598D01*
X7206539Y-75204755D01*
X7206542Y-75204757D01*
X7284720Y-75259498D01*
X7389582Y-75332923D01*
X7394564Y-75335246D01*
X7394569Y-75335249D01*
X7592106Y-75427361D01*
X7597088Y-75429684D01*
X7602396Y-75431106D01*
X7602398Y-75431107D01*
X7705350Y-75458693D01*
X7765973Y-75495645D01*
X7796994Y-75559506D01*
X7788566Y-75630000D01*
X7743363Y-75684747D01*
X7705350Y-75702107D01*
X7602398Y-75729693D01*
X7602396Y-75729694D01*
X7597088Y-75731116D01*
X7592107Y-75733439D01*
X7592106Y-75733439D01*
X7394569Y-75825551D01*
X7394564Y-75825554D01*
X7389582Y-75827877D01*
X7284720Y-75901302D01*
X7206542Y-75956043D01*
X7206539Y-75956045D01*
X7202031Y-75959202D01*
X7040133Y-76121100D01*
X6908808Y-76308651D01*
X6906485Y-76313633D01*
X6906482Y-76313638D01*
X6825740Y-76486792D01*
X6812047Y-76516157D01*
X6752788Y-76737313D01*
X6732833Y-76965400D01*
X6752788Y-77193487D01*
X6812047Y-77414643D01*
X6814370Y-77419624D01*
X6814370Y-77419625D01*
X6906482Y-77617162D01*
X6906485Y-77617167D01*
X6908808Y-77622149D01*
X7040133Y-77809700D01*
X7202031Y-77971598D01*
X7206539Y-77974755D01*
X7206542Y-77974757D01*
X7284720Y-78029498D01*
X7389582Y-78102923D01*
X7394564Y-78105246D01*
X7394569Y-78105249D01*
X7539490Y-78172826D01*
X7597088Y-78199684D01*
X7602396Y-78201106D01*
X7602398Y-78201107D01*
X7705350Y-78228693D01*
X7765973Y-78265645D01*
X7796994Y-78329506D01*
X7788566Y-78400000D01*
X7743363Y-78454747D01*
X7705350Y-78472107D01*
X7602398Y-78499693D01*
X7602396Y-78499694D01*
X7597088Y-78501116D01*
X7592107Y-78503439D01*
X7592106Y-78503439D01*
X7394569Y-78595551D01*
X7394564Y-78595554D01*
X7389582Y-78597877D01*
X7284720Y-78671302D01*
X7206542Y-78726043D01*
X7206539Y-78726045D01*
X7202031Y-78729202D01*
X7040133Y-78891100D01*
X6908808Y-79078651D01*
X6906485Y-79083633D01*
X6906482Y-79083638D01*
X6814370Y-79281175D01*
X6812047Y-79286157D01*
X6810625Y-79291465D01*
X6810624Y-79291467D01*
X6757360Y-79490249D01*
X6752788Y-79507313D01*
X6732833Y-79735400D01*
X508000Y-79735400D01*
X508000Y-65026387D01*
X7885052Y-65026387D01*
X7893879Y-65038005D01*
X8116612Y-65199830D01*
X8123292Y-65204070D01*
X8392903Y-65352290D01*
X8400038Y-65355647D01*
X8686101Y-65468908D01*
X8693627Y-65471353D01*
X8991610Y-65547862D01*
X8999381Y-65549345D01*
X9304609Y-65587903D01*
X9312500Y-65588400D01*
X9620162Y-65588400D01*
X9628053Y-65587903D01*
X9933281Y-65549345D01*
X9941052Y-65547862D01*
X10239035Y-65471353D01*
X10246561Y-65468908D01*
X10532624Y-65355647D01*
X10539759Y-65352290D01*
X10809370Y-65204070D01*
X10816050Y-65199830D01*
X11039154Y-65037736D01*
X11047577Y-65026813D01*
X11040673Y-65013952D01*
X9479143Y-63452422D01*
X9465199Y-63444808D01*
X9463366Y-63444939D01*
X9456751Y-63449190D01*
X7891665Y-65014276D01*
X7885052Y-65026387D01*
X508000Y-65026387D01*
X508000Y-63084358D01*
X6953621Y-63084358D01*
X6972938Y-63391394D01*
X6973931Y-63399255D01*
X7031577Y-63701446D01*
X7033548Y-63709123D01*
X7128615Y-64001709D01*
X7131530Y-64009072D01*
X7262520Y-64287441D01*
X7266332Y-64294374D01*
X7431182Y-64554136D01*
X7435826Y-64560529D01*
X7510828Y-64651190D01*
X7523345Y-64659645D01*
X7534083Y-64653438D01*
X9094309Y-63093212D01*
X9100687Y-63081532D01*
X9830739Y-63081532D01*
X9830870Y-63083365D01*
X9835121Y-63089980D01*
X11397476Y-64652335D01*
X11410738Y-64659577D01*
X11420843Y-64652388D01*
X11496836Y-64560529D01*
X11501480Y-64554136D01*
X11666330Y-64294374D01*
X11670142Y-64287441D01*
X11801132Y-64009072D01*
X11804047Y-64001709D01*
X11899114Y-63709123D01*
X11901085Y-63701446D01*
X11958731Y-63399255D01*
X11959724Y-63391394D01*
X11979041Y-63084358D01*
X11979041Y-63076442D01*
X11959724Y-62769406D01*
X11958731Y-62761545D01*
X11901085Y-62459354D01*
X11899114Y-62451677D01*
X11804047Y-62159091D01*
X11801132Y-62151728D01*
X11670142Y-61873359D01*
X11666330Y-61866426D01*
X11501480Y-61606664D01*
X11496836Y-61600271D01*
X11421834Y-61509610D01*
X11409317Y-61501155D01*
X11398579Y-61507362D01*
X9838353Y-63067588D01*
X9830739Y-63081532D01*
X9100687Y-63081532D01*
X9101923Y-63079268D01*
X9101792Y-63077435D01*
X9097541Y-63070820D01*
X7535186Y-61508465D01*
X7521924Y-61501223D01*
X7511819Y-61508412D01*
X7435826Y-61600271D01*
X7431182Y-61606664D01*
X7266332Y-61866426D01*
X7262520Y-61873359D01*
X7131530Y-62151728D01*
X7128615Y-62159091D01*
X7033548Y-62451677D01*
X7031577Y-62459354D01*
X6973931Y-62761545D01*
X6972938Y-62769406D01*
X6953621Y-63076442D01*
X6953621Y-63084358D01*
X508000Y-63084358D01*
X508000Y-61133987D01*
X7885085Y-61133987D01*
X7891989Y-61146848D01*
X9453519Y-62708378D01*
X9467463Y-62715992D01*
X9469296Y-62715861D01*
X9475911Y-62711610D01*
X11040997Y-61146524D01*
X11047610Y-61134413D01*
X11038783Y-61122795D01*
X10816050Y-60960970D01*
X10809370Y-60956730D01*
X10539759Y-60808510D01*
X10532624Y-60805153D01*
X10246561Y-60691892D01*
X10239035Y-60689447D01*
X9941052Y-60612938D01*
X9933281Y-60611455D01*
X9628053Y-60572897D01*
X9620162Y-60572400D01*
X9312500Y-60572400D01*
X9304609Y-60572897D01*
X8999381Y-60611455D01*
X8991610Y-60612938D01*
X8693627Y-60689447D01*
X8686101Y-60691892D01*
X8400038Y-60805153D01*
X8392903Y-60808510D01*
X8123292Y-60956730D01*
X8116612Y-60960970D01*
X7893508Y-61123064D01*
X7885085Y-61133987D01*
X508000Y-61133987D01*
X508000Y-59816000D01*
X528002Y-59747879D01*
X581658Y-59701386D01*
X634000Y-59690000D01*
X15114000Y-59690000D01*
X15182121Y-59710002D01*
G37*
%TD.AperFunction*%
%TD*%
M02*
