%TF.GenerationSoftware,KiCad,Pcbnew,(6.0.0)*%
%TF.CreationDate,2022-03-13T21:14:02-04:00*%
%TF.ProjectId,PCI bracket board,50434920-6272-4616-936b-657420626f61,rev?*%
%TF.SameCoordinates,Original*%
%TF.FileFunction,Legend,Top*%
%TF.FilePolarity,Positive*%
%FSLAX46Y46*%
G04 Gerber Fmt 4.6, Leading zero omitted, Abs format (unit mm)*
G04 Created by KiCad (PCBNEW (6.0.0)) date 2022-03-13 21:14:02*
%MOMM*%
%LPD*%
G01*
G04 APERTURE LIST*
%ADD10C,0.150000*%
%ADD11C,0.300000*%
%ADD12C,0.127000*%
%ADD13C,0.340000*%
%ADD14C,0.120000*%
%ADD15C,1.200000*%
%ADD16O,1.308000X2.616000*%
%ADD17O,2.616000X1.308000*%
%ADD18R,1.700000X1.700000*%
%ADD19O,1.700000X1.700000*%
%ADD20C,4.000000*%
%ADD21R,1.600000X1.600000*%
%ADD22C,1.600000*%
%ADD23O,1.600000X1.600000*%
%ADD24C,3.200000*%
%ADD25C,5.600000*%
G04 APERTURE END LIST*
D10*
X17327619Y-50291904D02*
X17280000Y-50244285D01*
X17232380Y-50149047D01*
X17232380Y-49910952D01*
X17280000Y-49815714D01*
X17327619Y-49768095D01*
X17422857Y-49720476D01*
X17518095Y-49720476D01*
X17660952Y-49768095D01*
X18232380Y-50339523D01*
X18232380Y-49720476D01*
X17232380Y-49101428D02*
X17232380Y-49006190D01*
X17280000Y-48910952D01*
X17327619Y-48863333D01*
X17422857Y-48815714D01*
X17613333Y-48768095D01*
X17851428Y-48768095D01*
X18041904Y-48815714D01*
X18137142Y-48863333D01*
X18184761Y-48910952D01*
X18232380Y-49006190D01*
X18232380Y-49101428D01*
X18184761Y-49196666D01*
X18137142Y-49244285D01*
X18041904Y-49291904D01*
X17851428Y-49339523D01*
X17613333Y-49339523D01*
X17422857Y-49291904D01*
X17327619Y-49244285D01*
X17280000Y-49196666D01*
X17232380Y-49101428D01*
D11*
X20692371Y-67508142D02*
X20692371Y-67222428D01*
X20763800Y-67079571D01*
X20906657Y-66936714D01*
X21192371Y-66865285D01*
X21692371Y-66865285D01*
X21978085Y-66936714D01*
X22120942Y-67079571D01*
X22192371Y-67222428D01*
X22192371Y-67508142D01*
X22120942Y-67651000D01*
X21978085Y-67793857D01*
X21692371Y-67865285D01*
X21192371Y-67865285D01*
X20906657Y-67793857D01*
X20763800Y-67651000D01*
X20692371Y-67508142D01*
X22192371Y-66222428D02*
X20692371Y-66222428D01*
X20692371Y-65651000D01*
X20763800Y-65508142D01*
X20835228Y-65436714D01*
X20978085Y-65365285D01*
X21192371Y-65365285D01*
X21335228Y-65436714D01*
X21406657Y-65508142D01*
X21478085Y-65651000D01*
X21478085Y-66222428D01*
X21406657Y-64722428D02*
X21406657Y-64222428D01*
X22192371Y-64008142D02*
X22192371Y-64722428D01*
X20692371Y-64722428D01*
X20692371Y-64008142D01*
X22192371Y-63365285D02*
X20692371Y-63365285D01*
X22192371Y-62508142D01*
X20692371Y-62508142D01*
D10*
X15692380Y-49720476D02*
X15692380Y-50291904D01*
X15692380Y-50006190D02*
X14692380Y-50006190D01*
X14835238Y-50101428D01*
X14930476Y-50196666D01*
X14978095Y-50291904D01*
X15692380Y-49244285D02*
X15692380Y-49053809D01*
X15644761Y-48958571D01*
X15597142Y-48910952D01*
X15454285Y-48815714D01*
X15263809Y-48768095D01*
X14882857Y-48768095D01*
X14787619Y-48815714D01*
X14740000Y-48863333D01*
X14692380Y-48958571D01*
X14692380Y-49149047D01*
X14740000Y-49244285D01*
X14787619Y-49291904D01*
X14882857Y-49339523D01*
X15120952Y-49339523D01*
X15216190Y-49291904D01*
X15263809Y-49244285D01*
X15311428Y-49149047D01*
X15311428Y-48958571D01*
X15263809Y-48863333D01*
X15216190Y-48815714D01*
X15120952Y-48768095D01*
D11*
X24889542Y-69056628D02*
X24960971Y-68842342D01*
X24960971Y-68485200D01*
X24889542Y-68342342D01*
X24818114Y-68270914D01*
X24675257Y-68199485D01*
X24532400Y-68199485D01*
X24389542Y-68270914D01*
X24318114Y-68342342D01*
X24246685Y-68485200D01*
X24175257Y-68770914D01*
X24103828Y-68913771D01*
X24032400Y-68985200D01*
X23889542Y-69056628D01*
X23746685Y-69056628D01*
X23603828Y-68985200D01*
X23532400Y-68913771D01*
X23460971Y-68770914D01*
X23460971Y-68413771D01*
X23532400Y-68199485D01*
X24960971Y-67556628D02*
X23460971Y-67556628D01*
X24175257Y-67556628D02*
X24175257Y-66699485D01*
X24960971Y-66699485D02*
X23460971Y-66699485D01*
X23460971Y-65699485D02*
X23460971Y-65413771D01*
X23532400Y-65270914D01*
X23675257Y-65128057D01*
X23960971Y-65056628D01*
X24460971Y-65056628D01*
X24746685Y-65128057D01*
X24889542Y-65270914D01*
X24960971Y-65413771D01*
X24960971Y-65699485D01*
X24889542Y-65842342D01*
X24746685Y-65985200D01*
X24460971Y-66056628D01*
X23960971Y-66056628D01*
X23675257Y-65985200D01*
X23532400Y-65842342D01*
X23460971Y-65699485D01*
X24960971Y-63556628D02*
X24246685Y-64056628D01*
X24960971Y-64413771D02*
X23460971Y-64413771D01*
X23460971Y-63842342D01*
X23532400Y-63699485D01*
X23603828Y-63628057D01*
X23746685Y-63556628D01*
X23960971Y-63556628D01*
X24103828Y-63628057D01*
X24175257Y-63699485D01*
X24246685Y-63842342D01*
X24246685Y-64413771D01*
X23460971Y-63128057D02*
X23460971Y-62270914D01*
X24960971Y-62699485D02*
X23460971Y-62699485D01*
D10*
%TO.C,J4*%
X12583930Y-26508985D02*
X13298542Y-26508985D01*
X13441465Y-26556626D01*
X13536746Y-26651908D01*
X13584387Y-26794830D01*
X13584387Y-26890112D01*
X12917416Y-25603810D02*
X13584387Y-25603810D01*
X12536289Y-25842014D02*
X13250902Y-26080218D01*
X13250902Y-25460887D01*
%TO.C,J7*%
X13138711Y-75913733D02*
X13852997Y-75913733D01*
X13995854Y-75961352D01*
X14091092Y-76056590D01*
X14138711Y-76199447D01*
X14138711Y-76294685D01*
X13138711Y-75532780D02*
X13138711Y-74866114D01*
X14138711Y-75294685D01*
%TO.C,AR1*%
X16321066Y-84577085D02*
X16321066Y-84100895D01*
X16606780Y-84672323D02*
X15606780Y-84338990D01*
X16606780Y-84005657D01*
X16606780Y-83100895D02*
X16130590Y-83434228D01*
X16606780Y-83672323D02*
X15606780Y-83672323D01*
X15606780Y-83291371D01*
X15654400Y-83196133D01*
X15702019Y-83148514D01*
X15797257Y-83100895D01*
X15940114Y-83100895D01*
X16035352Y-83148514D01*
X16082971Y-83196133D01*
X16130590Y-83291371D01*
X16130590Y-83672323D01*
X16606780Y-82148514D02*
X16606780Y-82719942D01*
X16606780Y-82434228D02*
X15606780Y-82434228D01*
X15749638Y-82529466D01*
X15844876Y-82624704D01*
X15892495Y-82719942D01*
X16606780Y-76655466D02*
X16606780Y-77226895D01*
X16606780Y-76941180D02*
X15606780Y-76941180D01*
X15749638Y-77036419D01*
X15844876Y-77131657D01*
X15892495Y-77226895D01*
X15606780Y-76036419D02*
X15606780Y-75941180D01*
X15654400Y-75845942D01*
X15702019Y-75798323D01*
X15797257Y-75750704D01*
X15987733Y-75703085D01*
X16225828Y-75703085D01*
X16416304Y-75750704D01*
X16511542Y-75798323D01*
X16559161Y-75845942D01*
X16606780Y-75941180D01*
X16606780Y-76036419D01*
X16559161Y-76131657D01*
X16511542Y-76179276D01*
X16416304Y-76226895D01*
X16225828Y-76274514D01*
X15987733Y-76274514D01*
X15797257Y-76226895D01*
X15702019Y-76179276D01*
X15654400Y-76131657D01*
X15606780Y-76036419D01*
X15606780Y-75084038D02*
X15606780Y-74988800D01*
X15654400Y-74893561D01*
X15702019Y-74845942D01*
X15797257Y-74798323D01*
X15987733Y-74750704D01*
X16225828Y-74750704D01*
X16416304Y-74798323D01*
X16511542Y-74845942D01*
X16559161Y-74893561D01*
X16606780Y-74988800D01*
X16606780Y-75084038D01*
X16559161Y-75179276D01*
X16511542Y-75226895D01*
X16416304Y-75274514D01*
X16225828Y-75322133D01*
X15987733Y-75322133D01*
X15797257Y-75274514D01*
X15702019Y-75226895D01*
X15654400Y-75179276D01*
X15606780Y-75084038D01*
X16606780Y-73750704D02*
X16130590Y-74084038D01*
X16606780Y-74322133D02*
X15606780Y-74322133D01*
X15606780Y-73941180D01*
X15654400Y-73845942D01*
X15702019Y-73798323D01*
X15797257Y-73750704D01*
X15940114Y-73750704D01*
X16035352Y-73798323D01*
X16082971Y-73845942D01*
X16130590Y-73941180D01*
X16130590Y-74322133D01*
%TO.C,W8*%
X12787380Y-35880561D02*
X13787380Y-35642466D01*
X13073095Y-35451990D01*
X13787380Y-35261514D01*
X12787380Y-35023419D01*
X13215952Y-34499609D02*
X13168333Y-34594847D01*
X13120714Y-34642466D01*
X13025476Y-34690085D01*
X12977857Y-34690085D01*
X12882619Y-34642466D01*
X12835000Y-34594847D01*
X12787380Y-34499609D01*
X12787380Y-34309133D01*
X12835000Y-34213895D01*
X12882619Y-34166276D01*
X12977857Y-34118657D01*
X13025476Y-34118657D01*
X13120714Y-34166276D01*
X13168333Y-34213895D01*
X13215952Y-34309133D01*
X13215952Y-34499609D01*
X13263571Y-34594847D01*
X13311190Y-34642466D01*
X13406428Y-34690085D01*
X13596904Y-34690085D01*
X13692142Y-34642466D01*
X13739761Y-34594847D01*
X13787380Y-34499609D01*
X13787380Y-34309133D01*
X13739761Y-34213895D01*
X13692142Y-34166276D01*
X13596904Y-34118657D01*
X13406428Y-34118657D01*
X13311190Y-34166276D01*
X13263571Y-34213895D01*
X13215952Y-34309133D01*
%TO.C,J3*%
X12583930Y-13508985D02*
X13298542Y-13508985D01*
X13441465Y-13556626D01*
X13536746Y-13651908D01*
X13584387Y-13794830D01*
X13584387Y-13890112D01*
X12583930Y-13127859D02*
X12583930Y-12508528D01*
X12965057Y-12842014D01*
X12965057Y-12699091D01*
X13012697Y-12603810D01*
X13060338Y-12556169D01*
X13155620Y-12508528D01*
X13393824Y-12508528D01*
X13489106Y-12556169D01*
X13536746Y-12603810D01*
X13584387Y-12699091D01*
X13584387Y-12984936D01*
X13536746Y-13080218D01*
X13489106Y-13127859D01*
%TO.C,J6*%
X12583930Y-52508985D02*
X13298542Y-52508985D01*
X13441465Y-52556626D01*
X13536746Y-52651908D01*
X13584387Y-52794830D01*
X13584387Y-52890112D01*
X12583930Y-51603810D02*
X12583930Y-51794373D01*
X12631571Y-51889655D01*
X12679212Y-51937295D01*
X12822134Y-52032577D01*
X13012697Y-52080218D01*
X13393824Y-52080218D01*
X13489106Y-52032577D01*
X13536746Y-51984936D01*
X13584387Y-51889655D01*
X13584387Y-51699091D01*
X13536746Y-51603810D01*
X13489106Y-51556169D01*
X13393824Y-51508528D01*
X13155620Y-51508528D01*
X13060338Y-51556169D01*
X13012697Y-51603810D01*
X12965057Y-51699091D01*
X12965057Y-51889655D01*
X13012697Y-51984936D01*
X13060338Y-52032577D01*
X13155620Y-52080218D01*
%TO.C,AR2*%
X19470666Y-84323085D02*
X19470666Y-83846895D01*
X19756380Y-84418323D02*
X18756380Y-84084990D01*
X19756380Y-83751657D01*
X19756380Y-82846895D02*
X19280190Y-83180228D01*
X19756380Y-83418323D02*
X18756380Y-83418323D01*
X18756380Y-83037371D01*
X18804000Y-82942133D01*
X18851619Y-82894514D01*
X18946857Y-82846895D01*
X19089714Y-82846895D01*
X19184952Y-82894514D01*
X19232571Y-82942133D01*
X19280190Y-83037371D01*
X19280190Y-83418323D01*
X18851619Y-82465942D02*
X18804000Y-82418323D01*
X18756380Y-82323085D01*
X18756380Y-82084990D01*
X18804000Y-81989752D01*
X18851619Y-81942133D01*
X18946857Y-81894514D01*
X19042095Y-81894514D01*
X19184952Y-81942133D01*
X19756380Y-82513561D01*
X19756380Y-81894514D01*
X19756380Y-76401466D02*
X19756380Y-76972895D01*
X19756380Y-76687180D02*
X18756380Y-76687180D01*
X18899238Y-76782419D01*
X18994476Y-76877657D01*
X19042095Y-76972895D01*
X18756380Y-75782419D02*
X18756380Y-75687180D01*
X18804000Y-75591942D01*
X18851619Y-75544323D01*
X18946857Y-75496704D01*
X19137333Y-75449085D01*
X19375428Y-75449085D01*
X19565904Y-75496704D01*
X19661142Y-75544323D01*
X19708761Y-75591942D01*
X19756380Y-75687180D01*
X19756380Y-75782419D01*
X19708761Y-75877657D01*
X19661142Y-75925276D01*
X19565904Y-75972895D01*
X19375428Y-76020514D01*
X19137333Y-76020514D01*
X18946857Y-75972895D01*
X18851619Y-75925276D01*
X18804000Y-75877657D01*
X18756380Y-75782419D01*
X18756380Y-74830038D02*
X18756380Y-74734800D01*
X18804000Y-74639561D01*
X18851619Y-74591942D01*
X18946857Y-74544323D01*
X19137333Y-74496704D01*
X19375428Y-74496704D01*
X19565904Y-74544323D01*
X19661142Y-74591942D01*
X19708761Y-74639561D01*
X19756380Y-74734800D01*
X19756380Y-74830038D01*
X19708761Y-74925276D01*
X19661142Y-74972895D01*
X19565904Y-75020514D01*
X19375428Y-75068133D01*
X19137333Y-75068133D01*
X18946857Y-75020514D01*
X18851619Y-74972895D01*
X18804000Y-74925276D01*
X18756380Y-74830038D01*
X19756380Y-73496704D02*
X19280190Y-73830038D01*
X19756380Y-74068133D02*
X18756380Y-74068133D01*
X18756380Y-73687180D01*
X18804000Y-73591942D01*
X18851619Y-73544323D01*
X18946857Y-73496704D01*
X19089714Y-73496704D01*
X19184952Y-73544323D01*
X19232571Y-73591942D01*
X19280190Y-73687180D01*
X19280190Y-74068133D01*
%TO.C,J5*%
X12583930Y-39508985D02*
X13298542Y-39508985D01*
X13441465Y-39556626D01*
X13536746Y-39651908D01*
X13584387Y-39794830D01*
X13584387Y-39890112D01*
X12583930Y-38556169D02*
X12583930Y-39032577D01*
X13060338Y-39080218D01*
X13012697Y-39032577D01*
X12965057Y-38937295D01*
X12965057Y-38699091D01*
X13012697Y-38603810D01*
X13060338Y-38556169D01*
X13155620Y-38508528D01*
X13393824Y-38508528D01*
X13489106Y-38556169D01*
X13536746Y-38603810D01*
X13584387Y-38699091D01*
X13584387Y-38937295D01*
X13536746Y-39032577D01*
X13489106Y-39080218D01*
D12*
%TO.C,J4*%
X1003800Y-30500000D02*
X203800Y-30500000D01*
X12003800Y-32200000D02*
X1003800Y-32200000D01*
X1003800Y-21500000D02*
X203800Y-21500000D01*
X1003800Y-19800000D02*
X1003800Y-21500000D01*
X12003800Y-19800000D02*
X1003800Y-19800000D01*
X1003800Y-30500000D02*
X1003800Y-32200000D01*
X12003800Y-19800000D02*
X12003800Y-32200000D01*
D13*
X4673800Y-19200000D02*
G75*
G03*
X4673800Y-19200000I-170000J0D01*
G01*
D14*
%TO.C,J1*%
X22778800Y-61406000D02*
X22778800Y-58806000D01*
X22778800Y-61406000D02*
X25378800Y-61406000D01*
X21508800Y-61406000D02*
X20178800Y-61406000D01*
X22778800Y-58806000D02*
X20178800Y-58806000D01*
X25378800Y-61406000D02*
X25378800Y-56206000D01*
X20178800Y-58806000D02*
X20178800Y-56206000D01*
X20178800Y-61406000D02*
X20178800Y-60076000D01*
X20178800Y-56206000D02*
X25378800Y-56206000D01*
%TO.C,J7*%
X13207656Y-70040400D02*
X13640669Y-69790400D01*
X13640669Y-69790400D02*
X13640669Y-70290400D01*
X12746331Y-91065400D02*
X406331Y-91065400D01*
X13640669Y-70290400D02*
X13207656Y-70040400D01*
X12746331Y-60095400D02*
X12746331Y-91065400D01*
X406331Y-60095400D02*
X12746331Y-60095400D01*
%TO.C,AR1*%
X17524400Y-71964800D02*
X14784400Y-71964800D01*
X16154400Y-71194800D02*
X16154400Y-71964800D01*
X14784400Y-71964800D02*
X14784400Y-78504800D01*
X14784400Y-78504800D02*
X17524400Y-78504800D01*
X16154400Y-79274800D02*
X16154400Y-78504800D01*
X17524400Y-78504800D02*
X17524400Y-71964800D01*
%TO.C,W8*%
X16627329Y-33711800D02*
X17081471Y-33711800D01*
X19564400Y-30281800D02*
X22224400Y-30281800D01*
X14314400Y-23931800D02*
X14314400Y-22661800D01*
X28224400Y-26091800D02*
X28224400Y-26851800D01*
X22224400Y-23731800D02*
X28224400Y-23731800D01*
X19564400Y-37901800D02*
X22224400Y-37901800D01*
X16627329Y-26091800D02*
X17081471Y-26091800D01*
X19167329Y-23551800D02*
X19564400Y-23551800D01*
X22224400Y-22601800D02*
X19564400Y-22601800D01*
X19564400Y-48121800D02*
X22224400Y-48121800D01*
X19167329Y-36251800D02*
X19564400Y-36251800D01*
X28224400Y-43871800D02*
X28224400Y-44631800D01*
X16627329Y-46411800D02*
X17081471Y-46411800D01*
X19167329Y-39551800D02*
X19564400Y-39551800D01*
X19167329Y-26091800D02*
X19564400Y-26091800D01*
X22224400Y-38791800D02*
X28224400Y-38791800D01*
X28224400Y-34471800D02*
X22224400Y-34471800D01*
X28224400Y-36251800D02*
X28224400Y-37011800D01*
X16694400Y-23551800D02*
X17081471Y-23551800D01*
X28224400Y-41331800D02*
X28224400Y-42091800D01*
X16627329Y-37011800D02*
X17081471Y-37011800D01*
X19167329Y-34471800D02*
X19564400Y-34471800D01*
X28224400Y-29391800D02*
X22224400Y-29391800D01*
X19167329Y-43871800D02*
X19564400Y-43871800D01*
X22224400Y-31171800D02*
X28224400Y-31171800D01*
X16627329Y-26851800D02*
X17081471Y-26851800D01*
X22224400Y-41331800D02*
X28224400Y-41331800D01*
X16627329Y-29391800D02*
X17081471Y-29391800D01*
X19564400Y-40441800D02*
X22224400Y-40441800D01*
X28224400Y-24311800D02*
X22224400Y-24311800D01*
X16627329Y-31171800D02*
X17081471Y-31171800D01*
X14314400Y-22661800D02*
X15584400Y-22661800D01*
X16627329Y-43871800D02*
X17081471Y-43871800D01*
X22224400Y-46411800D02*
X28224400Y-46411800D01*
X19564400Y-35361800D02*
X22224400Y-35361800D01*
X19167329Y-26851800D02*
X19564400Y-26851800D01*
X19167329Y-31171800D02*
X19564400Y-31171800D01*
X28224400Y-44631800D02*
X22224400Y-44631800D01*
X19564400Y-25201800D02*
X22224400Y-25201800D01*
X19564400Y-32821800D02*
X22224400Y-32821800D01*
X16627329Y-44631800D02*
X17081471Y-44631800D01*
X19167329Y-33711800D02*
X19564400Y-33711800D01*
X19167329Y-38791800D02*
X19564400Y-38791800D01*
X19167329Y-37011800D02*
X19564400Y-37011800D01*
X28224400Y-42091800D02*
X22224400Y-42091800D01*
X22224400Y-48121800D02*
X22224400Y-22601800D01*
X19564400Y-22601800D02*
X19564400Y-48121800D01*
X19167329Y-29391800D02*
X19564400Y-29391800D01*
X16627329Y-38791800D02*
X17081471Y-38791800D01*
X16627329Y-39551800D02*
X17081471Y-39551800D01*
X16627329Y-47171800D02*
X17081471Y-47171800D01*
X22224400Y-23611800D02*
X28224400Y-23611800D01*
X28224400Y-31171800D02*
X28224400Y-31931800D01*
X22224400Y-23851800D02*
X28224400Y-23851800D01*
X22224400Y-33711800D02*
X28224400Y-33711800D01*
X16694400Y-24311800D02*
X17081471Y-24311800D01*
X22224400Y-43871800D02*
X28224400Y-43871800D01*
X19564400Y-42981800D02*
X22224400Y-42981800D01*
X19167329Y-44631800D02*
X19564400Y-44631800D01*
X19167329Y-47171800D02*
X19564400Y-47171800D01*
X19167329Y-42091800D02*
X19564400Y-42091800D01*
X19167329Y-24311800D02*
X19564400Y-24311800D01*
X28224400Y-47171800D02*
X22224400Y-47171800D01*
X28224400Y-26851800D02*
X22224400Y-26851800D01*
X28224400Y-37011800D02*
X22224400Y-37011800D01*
X22224400Y-28631800D02*
X28224400Y-28631800D01*
X22224400Y-23971800D02*
X28224400Y-23971800D01*
X19167329Y-31931800D02*
X19564400Y-31931800D01*
X28224400Y-23551800D02*
X28224400Y-24311800D01*
X16627329Y-41331800D02*
X17081471Y-41331800D01*
X19167329Y-41331800D02*
X19564400Y-41331800D01*
X28224400Y-31931800D02*
X22224400Y-31931800D01*
X28224400Y-46411800D02*
X28224400Y-47171800D01*
X28224400Y-33711800D02*
X28224400Y-34471800D01*
X22224400Y-26091800D02*
X28224400Y-26091800D01*
X16627329Y-34471800D02*
X17081471Y-34471800D01*
X22224400Y-24211800D02*
X28224400Y-24211800D01*
X16627329Y-42091800D02*
X17081471Y-42091800D01*
X19564400Y-27741800D02*
X22224400Y-27741800D01*
X16627329Y-28631800D02*
X17081471Y-28631800D01*
X19167329Y-28631800D02*
X19564400Y-28631800D01*
X28224400Y-39551800D02*
X22224400Y-39551800D01*
X19564400Y-45521800D02*
X22224400Y-45521800D01*
X28224400Y-38791800D02*
X28224400Y-39551800D01*
X19167329Y-46411800D02*
X19564400Y-46411800D01*
X22224400Y-24091800D02*
X28224400Y-24091800D01*
X16627329Y-36251800D02*
X17081471Y-36251800D01*
X22224400Y-23551800D02*
X28224400Y-23551800D01*
X28224400Y-28631800D02*
X28224400Y-29391800D01*
X22224400Y-36251800D02*
X28224400Y-36251800D01*
X16627329Y-31931800D02*
X17081471Y-31931800D01*
D12*
%TO.C,J3*%
X12003800Y-6800000D02*
X1003800Y-6800000D01*
X1003800Y-8500000D02*
X203800Y-8500000D01*
X1003800Y-6800000D02*
X1003800Y-8500000D01*
X12003800Y-6800000D02*
X12003800Y-19200000D01*
X1003800Y-17500000D02*
X1003800Y-19200000D01*
X12003800Y-19200000D02*
X1003800Y-19200000D01*
X1003800Y-17500000D02*
X203800Y-17500000D01*
D13*
X4673800Y-6200000D02*
G75*
G03*
X4673800Y-6200000I-170000J0D01*
G01*
D12*
%TO.C,J6*%
X12003800Y-45800000D02*
X12003800Y-58200000D01*
X1003800Y-47500000D02*
X203800Y-47500000D01*
X12003800Y-58200000D02*
X1003800Y-58200000D01*
X12003800Y-45800000D02*
X1003800Y-45800000D01*
X1003800Y-56500000D02*
X203800Y-56500000D01*
X1003800Y-45800000D02*
X1003800Y-47500000D01*
X1003800Y-56500000D02*
X1003800Y-58200000D01*
D13*
X4673800Y-45200000D02*
G75*
G03*
X4673800Y-45200000I-170000J0D01*
G01*
D14*
%TO.C,AR2*%
X20674000Y-78504800D02*
X20674000Y-71964800D01*
X17934000Y-71964800D02*
X17934000Y-78504800D01*
X19304000Y-71194800D02*
X19304000Y-71964800D01*
X20674000Y-71964800D02*
X17934000Y-71964800D01*
X17934000Y-78504800D02*
X20674000Y-78504800D01*
X19304000Y-79274800D02*
X19304000Y-78504800D01*
D12*
%TO.C,J5*%
X1003800Y-43500000D02*
X1003800Y-45200000D01*
X1003800Y-43500000D02*
X203800Y-43500000D01*
X12003800Y-32800000D02*
X12003800Y-45200000D01*
X12003800Y-45200000D02*
X1003800Y-45200000D01*
X12003800Y-32800000D02*
X1003800Y-32800000D01*
X1003800Y-34500000D02*
X203800Y-34500000D01*
X1003800Y-32800000D02*
X1003800Y-34500000D01*
D13*
X4673800Y-32200000D02*
G75*
G03*
X4673800Y-32200000I-170000J0D01*
G01*
%TD*%
%LPC*%
D15*
%TO.C,J4*%
X9503800Y-26000000D03*
X4503800Y-21000000D03*
X4503800Y-31000000D03*
D16*
X4503800Y-26000000D03*
D17*
X9503800Y-31000000D03*
X9503800Y-21000000D03*
X9503800Y-28500000D03*
X9503800Y-23500000D03*
%TD*%
D18*
%TO.C,J1*%
X21508800Y-60076000D03*
D19*
X21508800Y-57536000D03*
X24048800Y-60076000D03*
X24048800Y-57536000D03*
%TD*%
D20*
%TO.C,J7*%
X9466331Y-88080400D03*
X9466331Y-63080400D03*
D21*
X10886331Y-70040400D03*
D22*
X10886331Y-72810400D03*
X10886331Y-75580400D03*
X10886331Y-78350400D03*
X10886331Y-81120400D03*
X8046331Y-71425400D03*
X8046331Y-74195400D03*
X8046331Y-76965400D03*
X8046331Y-79735400D03*
%TD*%
%TO.C,AR1*%
X16154400Y-80314800D03*
D23*
X16154400Y-70154800D03*
%TD*%
D18*
%TO.C,W8*%
X15584400Y-23931800D03*
D19*
X18124400Y-23931800D03*
X15584400Y-26471800D03*
X18124400Y-26471800D03*
X15584400Y-29011800D03*
X18124400Y-29011800D03*
X15584400Y-31551800D03*
X18124400Y-31551800D03*
X15584400Y-34091800D03*
X18124400Y-34091800D03*
X15584400Y-36631800D03*
X18124400Y-36631800D03*
X15584400Y-39171800D03*
X18124400Y-39171800D03*
X15584400Y-41711800D03*
X18124400Y-41711800D03*
X15584400Y-44251800D03*
X18124400Y-44251800D03*
X15584400Y-46791800D03*
X18124400Y-46791800D03*
%TD*%
D15*
%TO.C,J3*%
X4503800Y-8000000D03*
X4503800Y-18000000D03*
X9503800Y-13000000D03*
D16*
X4503800Y-13000000D03*
D17*
X9503800Y-18000000D03*
X9503800Y-8000000D03*
X9503800Y-15500000D03*
X9503800Y-10500000D03*
%TD*%
D15*
%TO.C,J6*%
X4503800Y-47000000D03*
X9503800Y-52000000D03*
X4503800Y-57000000D03*
D16*
X4503800Y-52000000D03*
D17*
X9503800Y-57000000D03*
X9503800Y-47000000D03*
X9503800Y-54500000D03*
X9503800Y-49500000D03*
%TD*%
D22*
%TO.C,AR2*%
X19304000Y-80314800D03*
D23*
X19304000Y-70154800D03*
%TD*%
D24*
%TO.C,REF\u002A\u002A*%
X4500000Y-3000000D03*
%TD*%
D25*
%TO.C,REF\u002A\u002A*%
X4500000Y-98000000D03*
%TD*%
D15*
%TO.C,J5*%
X4503800Y-44000000D03*
X4503800Y-34000000D03*
X9503800Y-39000000D03*
D16*
X4503800Y-39000000D03*
D17*
X9503800Y-44000000D03*
X9503800Y-34000000D03*
X9503800Y-41500000D03*
X9503800Y-36500000D03*
%TD*%
M02*
