%TF.GenerationSoftware,KiCad,Pcbnew,7.0.1*%
%TF.CreationDate,2023-11-25T16:04:20-05:00*%
%TF.ProjectId,PCI bracket board,50434920-6272-4616-936b-657420626f61,rev?*%
%TF.SameCoordinates,Original*%
%TF.FileFunction,Copper,L2,Bot*%
%TF.FilePolarity,Positive*%
%FSLAX46Y46*%
G04 Gerber Fmt 4.6, Leading zero omitted, Abs format (unit mm)*
G04 Created by KiCad (PCBNEW 7.0.1) date 2023-11-25 16:04:20*
%MOMM*%
%LPD*%
G01*
G04 APERTURE LIST*
%TA.AperFunction,ComponentPad*%
%ADD10O,1.308000X2.616000*%
%TD*%
%TA.AperFunction,ComponentPad*%
%ADD11O,2.616000X1.308000*%
%TD*%
%TA.AperFunction,ComponentPad*%
%ADD12R,1.700000X1.700000*%
%TD*%
%TA.AperFunction,ComponentPad*%
%ADD13O,1.700000X1.700000*%
%TD*%
%TA.AperFunction,ComponentPad*%
%ADD14C,4.000000*%
%TD*%
%TA.AperFunction,ComponentPad*%
%ADD15R,1.600000X1.600000*%
%TD*%
%TA.AperFunction,ComponentPad*%
%ADD16C,1.600000*%
%TD*%
%TA.AperFunction,ComponentPad*%
%ADD17O,1.600000X1.600000*%
%TD*%
%TA.AperFunction,ComponentPad*%
%ADD18C,5.600000*%
%TD*%
%TA.AperFunction,ViaPad*%
%ADD19C,0.800000*%
%TD*%
%TA.AperFunction,Conductor*%
%ADD20C,1.000000*%
%TD*%
%TA.AperFunction,Conductor*%
%ADD21C,0.250000*%
%TD*%
G04 APERTURE END LIST*
D10*
%TO.P,J4,1*%
%TO.N,GNDA*%
X4503800Y-26000000D03*
D11*
%TO.P,J4,2*%
%TO.N,/Line out left*%
X9503800Y-31000000D03*
%TO.P,J4,3*%
%TO.N,/Line out right*%
X9503800Y-21000000D03*
%TO.P,J4,10*%
%TO.N,/Line out left*%
X9503800Y-28500000D03*
%TO.P,J4,11*%
%TO.N,/Line out right*%
X9503800Y-23500000D03*
%TD*%
D12*
%TO.P,J1,1,Pin_1*%
%TO.N,GNDD*%
X21508800Y-60076000D03*
D13*
%TO.P,J1,2,Pin_2*%
%TO.N,unconnected-(J1-Pad2)*%
X21508800Y-57536000D03*
%TO.P,J1,3,Pin_3*%
%TO.N,GNDD*%
X24048800Y-60076000D03*
%TO.P,J1,4,Pin_4*%
%TO.N,GNDA*%
X24048800Y-57536000D03*
%TD*%
D14*
%TO.P,J7,0,PAD*%
%TO.N,GNDD*%
X9466331Y-63080400D03*
X9466331Y-88080400D03*
D15*
%TO.P,J7,1,1*%
%TO.N,Net-(J7-Pad1)*%
X10886331Y-70040400D03*
D16*
%TO.P,J7,2,2*%
%TO.N,/Rx*%
X10886331Y-72810400D03*
%TO.P,J7,3,3*%
%TO.N,/Tx*%
X10886331Y-75580400D03*
%TO.P,J7,4,4*%
%TO.N,Net-(J7-Pad4)*%
X10886331Y-78350400D03*
%TO.P,J7,5,5*%
%TO.N,GNDD*%
X10886331Y-81120400D03*
%TO.P,J7,6,6*%
%TO.N,Net-(J7-Pad1)*%
X8046331Y-71425400D03*
%TO.P,J7,7,7*%
%TO.N,Net-(J7-Pad7)*%
X8046331Y-74195400D03*
%TO.P,J7,8,8*%
%TO.N,Net-(J7-Pad8)*%
X8046331Y-76965400D03*
%TO.P,J7,9,9*%
%TO.N,unconnected-(J7-Pad9)*%
X8046331Y-79735400D03*
%TD*%
%TO.P,AR1,1*%
%TO.N,Net-(J7-Pad4)*%
X16154400Y-80314800D03*
D17*
%TO.P,AR1,2*%
%TO.N,Net-(J7-Pad1)*%
X16154400Y-70154800D03*
%TD*%
D12*
%TO.P,W8,1,Pin_1*%
%TO.N,/Mic pass through*%
X15584400Y-23931800D03*
D13*
%TO.P,W8,2,Pin_2*%
%TO.N,/Mic right*%
X18124400Y-23931800D03*
%TO.P,W8,3,Pin_3*%
%TO.N,/Mic left*%
X15584400Y-26471800D03*
%TO.P,W8,4,Pin_4*%
%TO.N,GNDA*%
X18124400Y-26471800D03*
%TO.P,W8,5,Pin_5*%
%TO.N,/Line out left*%
X15584400Y-29011800D03*
%TO.P,W8,6,Pin_6*%
%TO.N,/Line out right*%
X18124400Y-29011800D03*
%TO.P,W8,7,Pin_7*%
%TO.N,GNDA*%
X15584400Y-31551800D03*
%TO.P,W8,8,Pin_8*%
%TO.N,/Speaker in left*%
X18124400Y-31551800D03*
%TO.P,W8,9,Pin_9*%
%TO.N,/Speaker in right*%
X15584400Y-34091800D03*
%TO.P,W8,10,Pin_10*%
%TO.N,GNDA*%
X18124400Y-34091800D03*
%TO.P,W8,11,Pin_11*%
%TO.N,/Speaker out left*%
X15584400Y-36631800D03*
%TO.P,W8,12,Pin_12*%
%TO.N,/Speaker out right*%
X18124400Y-36631800D03*
%TO.P,W8,13,Pin_13*%
%TO.N,unconnected-(W8-Pad13)*%
X15584400Y-39171800D03*
%TO.P,W8,14,Pin_14*%
%TO.N,unconnected-(W8-Pad14)*%
X18124400Y-39171800D03*
%TO.P,W8,15,Pin_15*%
%TO.N,unconnected-(W8-Pad15)*%
X15584400Y-41711800D03*
%TO.P,W8,16,Pin_16*%
%TO.N,unconnected-(W8-Pad16)*%
X18124400Y-41711800D03*
%TO.P,W8,17,Pin_17*%
%TO.N,unconnected-(W8-Pad17)*%
X15584400Y-44251800D03*
%TO.P,W8,18,Pin_18*%
%TO.N,GNDA*%
X18124400Y-44251800D03*
%TO.P,W8,19,Pin_19*%
%TO.N,/Tx*%
X15584400Y-46791800D03*
%TO.P,W8,20,Pin_20*%
%TO.N,/Rx*%
X18124400Y-46791800D03*
%TD*%
D10*
%TO.P,J3,1*%
%TO.N,/Mic pass through*%
X4503800Y-13000000D03*
D11*
%TO.P,J3,2*%
%TO.N,/Mic left*%
X9503800Y-18000000D03*
%TO.P,J3,3*%
%TO.N,/Mic right*%
X9503800Y-8000000D03*
%TO.P,J3,10*%
%TO.N,/Mic pass through*%
X9503800Y-15500000D03*
%TO.P,J3,11*%
X9503800Y-10500000D03*
%TD*%
D10*
%TO.P,J6,1*%
%TO.N,GNDA*%
X4503800Y-52000000D03*
D11*
%TO.P,J6,2*%
%TO.N,/Speaker out left*%
X9503800Y-57000000D03*
%TO.P,J6,3*%
%TO.N,/Speaker out right*%
X9503800Y-47000000D03*
%TO.P,J6,10*%
%TO.N,/Speaker out left*%
X9503800Y-54500000D03*
%TO.P,J6,11*%
%TO.N,/Speaker out right*%
X9503800Y-49500000D03*
%TD*%
D16*
%TO.P,AR2,1*%
%TO.N,Net-(J7-Pad8)*%
X19304000Y-80314800D03*
D17*
%TO.P,AR2,2*%
%TO.N,Net-(J7-Pad7)*%
X19304000Y-70154800D03*
%TD*%
D18*
%TO.P,REF\u002A\u002A,1*%
%TO.N,GNDD*%
X4500000Y-98000000D03*
%TD*%
D10*
%TO.P,J5,1*%
%TO.N,GNDA*%
X4503800Y-39000000D03*
D11*
%TO.P,J5,2*%
%TO.N,/Speaker in left*%
X9503800Y-44000000D03*
%TO.P,J5,3*%
%TO.N,/Speaker in right*%
X9503800Y-34000000D03*
%TO.P,J5,10*%
%TO.N,GNDA*%
X9503800Y-41500000D03*
%TO.P,J5,11*%
X9503800Y-36500000D03*
%TD*%
D19*
%TO.N,GNDD*%
X16510000Y-97790000D03*
X1905000Y-86995000D03*
X25400000Y-76200000D03*
X4445000Y-68580000D03*
X1905000Y-92710000D03*
X20320000Y-95250000D03*
X1905000Y-76835000D03*
X1905000Y-60960000D03*
X16510000Y-95250000D03*
X16510000Y-92710000D03*
X1905000Y-81915000D03*
X16510000Y-89535000D03*
X25400000Y-97790000D03*
X1905000Y-66675000D03*
X25400000Y-90805000D03*
X25400000Y-83820000D03*
X25400000Y-70485000D03*
X1905000Y-71755000D03*
X20320000Y-97790000D03*
X20320000Y-92710000D03*
%TO.N,GNDA*%
X25400000Y-7620000D03*
X13335000Y-2540000D03*
X18415000Y-2540000D03*
X25400000Y-20955000D03*
X15240000Y-8890000D03*
X19050000Y-53975000D03*
X25400000Y-15240000D03*
X25400000Y-50800000D03*
X22225000Y-8890000D03*
X22225000Y-3175000D03*
X25400000Y-41275000D03*
X25400000Y-26670000D03*
X25400000Y-45720000D03*
X25400000Y-53975000D03*
X20955000Y-26670000D03*
X25400000Y-34290000D03*
%TD*%
D20*
%TO.N,GNDD*%
X21508800Y-65323800D02*
X21508800Y-60076000D01*
X24048800Y-67863800D02*
X21508800Y-65323800D01*
X24048800Y-69133800D02*
X25400000Y-70485000D01*
X24048800Y-67863800D02*
X24048800Y-69133800D01*
X24048800Y-60076000D02*
X24048800Y-67863800D01*
%TO.N,GNDA*%
X24048800Y-55326200D02*
X25400000Y-53975000D01*
X24048800Y-57536000D02*
X24048800Y-55326200D01*
%TO.N,/Mic pass through*%
X7620000Y-12700000D02*
X7620000Y-11430000D01*
X7320000Y-13000000D02*
X7620000Y-12700000D01*
X7620000Y-11430000D02*
X8550000Y-10500000D01*
X9150000Y-15500000D02*
X7620000Y-13970000D01*
X11690000Y-15500000D02*
X15584400Y-19394400D01*
X9503800Y-15500000D02*
X9150000Y-15500000D01*
X15584400Y-19394400D02*
X15584400Y-23931800D01*
X9503800Y-15500000D02*
X11690000Y-15500000D01*
X4503800Y-13000000D02*
X7320000Y-13000000D01*
X8550000Y-10500000D02*
X9503800Y-10500000D01*
X7620000Y-13970000D02*
X7620000Y-12700000D01*
D21*
%TO.N,/Mic left*%
X9503800Y-18000000D02*
X11650000Y-18000000D01*
X11650000Y-18000000D02*
X13970000Y-20320000D01*
X13970000Y-20320000D02*
X13970000Y-24857400D01*
X13970000Y-24857400D02*
X15584400Y-26471800D01*
%TO.N,/Mic right*%
X12065000Y-9525000D02*
X12065000Y-12065000D01*
X10540000Y-8000000D02*
X12065000Y-9525000D01*
X9503800Y-8000000D02*
X10540000Y-8000000D01*
X12065000Y-12065000D02*
X18124400Y-18124400D01*
X18124400Y-18124400D02*
X18124400Y-23931800D01*
%TO.N,/Line out left*%
X9842000Y-28161800D02*
X9503800Y-28500000D01*
X14734400Y-28161800D02*
X9842000Y-28161800D01*
X15584400Y-29011800D02*
X14734400Y-28161800D01*
X9503800Y-31000000D02*
X9503800Y-28500000D01*
%TO.N,/Line out right*%
X18124400Y-29011800D02*
X16949889Y-27837289D01*
X15137289Y-27837289D02*
X10800000Y-23500000D01*
X9503800Y-21000000D02*
X9503800Y-23500000D01*
X10800000Y-23500000D02*
X9503800Y-23500000D01*
X16949889Y-27837289D02*
X15137289Y-27837289D01*
%TO.N,/Speaker in left*%
X15097901Y-32917289D02*
X12789511Y-35225679D01*
X18124400Y-31551800D02*
X16758911Y-32917289D01*
X10610000Y-44000000D02*
X9503800Y-44000000D01*
X12789511Y-41820489D02*
X10610000Y-44000000D01*
X16758911Y-32917289D02*
X15097901Y-32917289D01*
X12789511Y-35225679D02*
X12789511Y-41820489D01*
%TO.N,/Speaker out left*%
X12065000Y-45720000D02*
X12065000Y-51938800D01*
X12065000Y-51938800D02*
X9503800Y-54500000D01*
X13784520Y-44000480D02*
X12065000Y-45720000D01*
X15584400Y-36631800D02*
X13784520Y-38431680D01*
X13784520Y-38431680D02*
X13784520Y-44000480D01*
X9503800Y-57000000D02*
X9503800Y-54500000D01*
%TO.N,/Speaker out right*%
X9503800Y-49500000D02*
X9503800Y-47000000D01*
X14072711Y-35457289D02*
X13335000Y-36195000D01*
X9503800Y-46096000D02*
X9503800Y-47000000D01*
X13335000Y-36195000D02*
X13335000Y-42264800D01*
X13335000Y-42264800D02*
X9503800Y-46096000D01*
X18124400Y-36631800D02*
X16949889Y-35457289D01*
X16949889Y-35457289D02*
X14072711Y-35457289D01*
%TO.N,/Rx*%
X13335000Y-69215000D02*
X15875000Y-66675000D01*
X15875000Y-66675000D02*
X15875000Y-49041200D01*
X13335000Y-71755000D02*
X13335000Y-69215000D01*
X12279600Y-72810400D02*
X13335000Y-71755000D01*
X10886331Y-72810400D02*
X12279600Y-72810400D01*
X15875000Y-49041200D02*
X18124400Y-46791800D01*
%TO.N,/Tx*%
X19298911Y-46305301D02*
X18610899Y-45617289D01*
X16758911Y-45617289D02*
X15584400Y-46791800D01*
X14605000Y-74295000D02*
X14605000Y-69215000D01*
X10886331Y-75580400D02*
X13319600Y-75580400D01*
X17780000Y-66040000D02*
X17780000Y-50800000D01*
X13319600Y-75580400D02*
X14605000Y-74295000D01*
X19298911Y-49281089D02*
X19298911Y-46305301D01*
X18610899Y-45617289D02*
X16758911Y-45617289D01*
X14605000Y-69215000D02*
X17780000Y-66040000D01*
X17780000Y-50800000D02*
X19298911Y-49281089D01*
%TD*%
%TA.AperFunction,Conductor*%
%TO.N,GNDA*%
G36*
X25396528Y-10091D02*
G01*
X25437405Y-37405D01*
X27614495Y-2214495D01*
X27641809Y-2255372D01*
X27651400Y-2303590D01*
X27651400Y-55754000D01*
X27634519Y-55817000D01*
X27588400Y-55863119D01*
X27525400Y-55880000D01*
X19050000Y-55880000D01*
X19050000Y-58929000D01*
X19033119Y-58992000D01*
X18987000Y-59038119D01*
X18924000Y-59055000D01*
X18539500Y-59055000D01*
X18476500Y-59038119D01*
X18430381Y-58992000D01*
X18413500Y-58929000D01*
X18413500Y-51114594D01*
X18423091Y-51066376D01*
X18450402Y-51025501D01*
X19687573Y-49788329D01*
X19703891Y-49775258D01*
X19705925Y-49773090D01*
X19705929Y-49773089D01*
X19752587Y-49723401D01*
X19755278Y-49720624D01*
X19775046Y-49700858D01*
X19777522Y-49697665D01*
X19785227Y-49688642D01*
X19815497Y-49656410D01*
X19825256Y-49638656D01*
X19836109Y-49622134D01*
X19848525Y-49606129D01*
X19866085Y-49565548D01*
X19871299Y-49554904D01*
X19892606Y-49516149D01*
X19897643Y-49496528D01*
X19904049Y-49477819D01*
X19912092Y-49459233D01*
X19919007Y-49415570D01*
X19921415Y-49403942D01*
X19932411Y-49361118D01*
X19932411Y-49340865D01*
X19933962Y-49321155D01*
X19937131Y-49301146D01*
X19932970Y-49257128D01*
X19932411Y-49245270D01*
X19932411Y-46389154D01*
X19934706Y-46368364D01*
X19932473Y-46297302D01*
X19932411Y-46293344D01*
X19932411Y-46265450D01*
X19932411Y-46265445D01*
X19931904Y-46261439D01*
X19930973Y-46249606D01*
X19929585Y-46205412D01*
X19923931Y-46185953D01*
X19919924Y-46166607D01*
X19917385Y-46146504D01*
X19901105Y-46105387D01*
X19897264Y-46094167D01*
X19884928Y-46051706D01*
X19874617Y-46034271D01*
X19865919Y-46016516D01*
X19858463Y-45997684D01*
X19832476Y-45961917D01*
X19825958Y-45951994D01*
X19803453Y-45913939D01*
X19789123Y-45899609D01*
X19776289Y-45884582D01*
X19764383Y-45868194D01*
X19764382Y-45868193D01*
X19730305Y-45840001D01*
X19721527Y-45832013D01*
X19179065Y-45289551D01*
X19146914Y-45234741D01*
X19145601Y-45171211D01*
X19175459Y-45115118D01*
X19199724Y-45088759D01*
X19322819Y-44900348D01*
X19413222Y-44694251D01*
X19460944Y-44505800D01*
X17996400Y-44505800D01*
X17933400Y-44488919D01*
X17887281Y-44442800D01*
X17870400Y-44379800D01*
X17870400Y-44123800D01*
X17887281Y-44060800D01*
X17933400Y-44014681D01*
X17996400Y-43997800D01*
X19460944Y-43997800D01*
X19460944Y-43997799D01*
X19413222Y-43809348D01*
X19322819Y-43603251D01*
X19199721Y-43414837D01*
X19047303Y-43249266D01*
X18869699Y-43111031D01*
X18836191Y-43092897D01*
X18787920Y-43046580D01*
X18770162Y-42982082D01*
X18787922Y-42917585D01*
X18836191Y-42871271D01*
X18869976Y-42852989D01*
X18934531Y-42802742D01*
X18972071Y-42782642D01*
X19685000Y-42545000D01*
X19685000Y-35560000D01*
X19684999Y-35559998D01*
X19146802Y-35201201D01*
X19109347Y-35162338D01*
X19091591Y-35111367D01*
X19096791Y-35057644D01*
X19123993Y-35011026D01*
X19199721Y-34928762D01*
X19322819Y-34740348D01*
X19413222Y-34534251D01*
X19460944Y-34345800D01*
X17996400Y-34345800D01*
X17933400Y-34328919D01*
X17887281Y-34282800D01*
X17870400Y-34219800D01*
X17870400Y-33963800D01*
X17887281Y-33900800D01*
X17933400Y-33854681D01*
X17996400Y-33837800D01*
X19460944Y-33837800D01*
X19460944Y-33837799D01*
X19413222Y-33649348D01*
X19322819Y-33443251D01*
X19249880Y-33331610D01*
X19230296Y-33278000D01*
X19236374Y-33221249D01*
X19266867Y-33173003D01*
X19315515Y-33143161D01*
X19685000Y-33020000D01*
X19685000Y-27940000D01*
X19684999Y-27939998D01*
X19146802Y-27581201D01*
X19109347Y-27542338D01*
X19091591Y-27491367D01*
X19096791Y-27437644D01*
X19123993Y-27391026D01*
X19199721Y-27308762D01*
X19322819Y-27120348D01*
X19413222Y-26914251D01*
X19460944Y-26725800D01*
X17996400Y-26725800D01*
X17933400Y-26708919D01*
X17887281Y-26662800D01*
X17870400Y-26599800D01*
X17870400Y-26343800D01*
X17887281Y-26280800D01*
X17933400Y-26234681D01*
X17996400Y-26217800D01*
X19460944Y-26217800D01*
X19460944Y-26217799D01*
X19413222Y-26029348D01*
X19322819Y-25823251D01*
X19249880Y-25711610D01*
X19230296Y-25658000D01*
X19236374Y-25601249D01*
X19266867Y-25553003D01*
X19315515Y-25523161D01*
X19685000Y-25400000D01*
X19685000Y-18415000D01*
X19684999Y-18414998D01*
X12736905Y-11466905D01*
X12709591Y-11426028D01*
X12700000Y-11377810D01*
X12700000Y-9602142D01*
X12700963Y-9593415D01*
X12700062Y-9564729D01*
X12700000Y-9560771D01*
X12700000Y-8890000D01*
X12699999Y-8889998D01*
X11010095Y-7200095D01*
X10979357Y-7149936D01*
X10974741Y-7091289D01*
X10997254Y-7036939D01*
X11041987Y-6998733D01*
X11099190Y-6985000D01*
X11430000Y-6985000D01*
X11430000Y-126500D01*
X11446881Y-63500D01*
X11493000Y-17381D01*
X11556000Y-500D01*
X25348310Y-500D01*
X25396528Y-10091D01*
G37*
%TD.AperFunction*%
%TA.AperFunction,Conductor*%
G36*
X4149857Y-7001654D02*
G01*
X4195912Y-7047214D01*
X4213244Y-7109635D01*
X4197269Y-7172418D01*
X4152210Y-7218964D01*
X3986064Y-7318929D01*
X3851759Y-7446150D01*
X3747941Y-7599270D01*
X3679469Y-7771124D01*
X3649539Y-7953683D01*
X3659555Y-8138407D01*
X3709045Y-8316658D01*
X3795699Y-8480103D01*
X3858339Y-8553849D01*
X3915463Y-8621100D01*
X4062736Y-8733054D01*
X4230633Y-8810732D01*
X4366135Y-8840558D01*
X4411302Y-8850500D01*
X4411303Y-8850500D01*
X4549913Y-8850500D01*
X4549916Y-8850500D01*
X4653260Y-8839260D01*
X4687710Y-8835514D01*
X4776795Y-8805497D01*
X4863019Y-8776445D01*
X4863021Y-8776444D01*
X5021536Y-8681070D01*
X5155841Y-8553849D01*
X5259658Y-8400730D01*
X5328131Y-8228875D01*
X5358060Y-8046317D01*
X5348045Y-7861593D01*
X5298554Y-7683341D01*
X5211900Y-7519896D01*
X5092138Y-7378901D01*
X4944864Y-7266946D01*
X4854964Y-7225353D01*
X4803583Y-7181710D01*
X4782057Y-7117822D01*
X4796549Y-7051981D01*
X4842912Y-7003036D01*
X4907872Y-6985000D01*
X7916679Y-6985000D01*
X7972842Y-6998209D01*
X8017229Y-7035068D01*
X8040534Y-7087848D01*
X8037869Y-7145482D01*
X8009794Y-7195886D01*
X7918131Y-7296434D01*
X7884475Y-7350791D01*
X7866444Y-7373554D01*
X7620000Y-7619999D01*
X7620000Y-9457567D01*
X7605091Y-9517021D01*
X7563892Y-9562405D01*
X5746743Y-10773838D01*
X5713364Y-10789594D01*
X5676851Y-10795000D01*
X3809998Y-10795000D01*
X3175000Y-11429998D01*
X3175000Y-14605001D01*
X3809998Y-15239999D01*
X3810000Y-15240000D01*
X5662810Y-15240000D01*
X5711028Y-15249591D01*
X5751905Y-15276905D01*
X7583095Y-17108095D01*
X7610409Y-17148972D01*
X7620000Y-17197190D01*
X7620000Y-57785000D01*
X7936736Y-57785000D01*
X7987630Y-57795736D01*
X8029849Y-57826112D01*
X8063274Y-57862778D01*
X8235201Y-57992612D01*
X8426502Y-58087868D01*
X8428060Y-58088644D01*
X8552873Y-58124155D01*
X8635276Y-58147601D01*
X8662072Y-58150084D01*
X8796053Y-58162500D01*
X8796058Y-58162500D01*
X10211542Y-58162500D01*
X10211547Y-58162500D01*
X10326386Y-58151857D01*
X10372324Y-58147601D01*
X10537128Y-58100710D01*
X10579539Y-58088644D01*
X10579539Y-58088643D01*
X10579542Y-58088643D01*
X10772399Y-57992612D01*
X10944326Y-57862778D01*
X10977750Y-57826112D01*
X11019970Y-57795736D01*
X11070864Y-57785000D01*
X11430000Y-57785000D01*
X11430000Y-53521895D01*
X11439591Y-53473677D01*
X11466902Y-53432802D01*
X12453663Y-52446040D01*
X12469981Y-52432968D01*
X12472015Y-52430801D01*
X12472018Y-52430800D01*
X12518660Y-52381129D01*
X12521351Y-52378352D01*
X12541135Y-52358570D01*
X12543621Y-52355364D01*
X12551310Y-52346361D01*
X12581586Y-52314121D01*
X12591342Y-52296371D01*
X12602195Y-52279850D01*
X12614614Y-52263841D01*
X12632175Y-52223254D01*
X12637388Y-52212613D01*
X12658695Y-52173860D01*
X12663733Y-52154234D01*
X12670137Y-52135532D01*
X12684505Y-52102333D01*
X12684668Y-52102403D01*
X12688688Y-52090032D01*
X12695698Y-52080383D01*
X12700000Y-52070000D01*
X12700000Y-51989105D01*
X12701551Y-51969394D01*
X12703220Y-51958857D01*
X12700558Y-51930706D01*
X12700000Y-51918849D01*
X12700000Y-48312190D01*
X12709591Y-48263972D01*
X12736905Y-48223095D01*
X13298095Y-47661905D01*
X13338972Y-47634591D01*
X13387190Y-47625000D01*
X14449664Y-47625000D01*
X14500277Y-47635612D01*
X14542365Y-47665662D01*
X14604404Y-47733053D01*
X14644348Y-47776444D01*
X14661162Y-47794708D01*
X14732843Y-47850500D01*
X14838824Y-47932989D01*
X14984320Y-48011727D01*
X15013445Y-48033445D01*
X15411052Y-48431052D01*
X15443664Y-48487536D01*
X15443664Y-48552758D01*
X15411052Y-48609242D01*
X15398866Y-48621427D01*
X15396380Y-48624632D01*
X15388688Y-48633637D01*
X15358414Y-48665877D01*
X15348652Y-48683634D01*
X15337801Y-48700152D01*
X15325385Y-48716159D01*
X15307824Y-48756739D01*
X15302604Y-48767395D01*
X15281304Y-48806140D01*
X15276267Y-48825759D01*
X15269864Y-48844461D01*
X15261818Y-48863055D01*
X15254901Y-48906724D01*
X15252495Y-48918344D01*
X15241500Y-48961170D01*
X15241500Y-48981424D01*
X15239949Y-49001134D01*
X15236779Y-49021142D01*
X15240941Y-49065161D01*
X15241500Y-49077019D01*
X15241500Y-58929000D01*
X15224619Y-58992000D01*
X15178500Y-59038119D01*
X15115500Y-59055000D01*
X126500Y-59055000D01*
X63500Y-59038119D01*
X17381Y-58992000D01*
X500Y-58929000D01*
X500Y-56953683D01*
X3649539Y-56953683D01*
X3659555Y-57138407D01*
X3709045Y-57316658D01*
X3795699Y-57480103D01*
X3858339Y-57553849D01*
X3915463Y-57621100D01*
X4062736Y-57733054D01*
X4230633Y-57810732D01*
X4366135Y-57840558D01*
X4411302Y-57850500D01*
X4411303Y-57850500D01*
X4549913Y-57850500D01*
X4549916Y-57850500D01*
X4653260Y-57839260D01*
X4687710Y-57835514D01*
X4776795Y-57805497D01*
X4863019Y-57776445D01*
X4863021Y-57776444D01*
X5021536Y-57681070D01*
X5155841Y-57553849D01*
X5259658Y-57400730D01*
X5328131Y-57228875D01*
X5358060Y-57046317D01*
X5348045Y-56861593D01*
X5298554Y-56683341D01*
X5211900Y-56519896D01*
X5211899Y-56519895D01*
X5092138Y-56378901D01*
X4944864Y-56266946D01*
X4944863Y-56266945D01*
X4776967Y-56189268D01*
X4776963Y-56189267D01*
X4596298Y-56149500D01*
X4596297Y-56149500D01*
X4457687Y-56149500D01*
X4457684Y-56149500D01*
X4319890Y-56164485D01*
X4144580Y-56223554D01*
X3986062Y-56318931D01*
X3851759Y-56446150D01*
X3747941Y-56599270D01*
X3679469Y-56771124D01*
X3649539Y-56953683D01*
X500Y-56953683D01*
X500Y-52254000D01*
X3341800Y-52254000D01*
X3341800Y-52707715D01*
X3356693Y-52868436D01*
X3415623Y-53075557D01*
X3511616Y-53268337D01*
X3641392Y-53440186D01*
X3800540Y-53585269D01*
X3983631Y-53698635D01*
X4184440Y-53776428D01*
X4249800Y-53788646D01*
X4249800Y-52254000D01*
X4757800Y-52254000D01*
X4757800Y-53788646D01*
X4823159Y-53776428D01*
X5023968Y-53698635D01*
X5207059Y-53585269D01*
X5366207Y-53440186D01*
X5495983Y-53268337D01*
X5591976Y-53075557D01*
X5650906Y-52868436D01*
X5665800Y-52707715D01*
X5665800Y-52254000D01*
X4757800Y-52254000D01*
X4249800Y-52254000D01*
X3341800Y-52254000D01*
X500Y-52254000D01*
X500Y-51746000D01*
X3341800Y-51746000D01*
X4249800Y-51746000D01*
X4249800Y-50211354D01*
X4757800Y-50211354D01*
X4757800Y-51746000D01*
X5665800Y-51746000D01*
X5665800Y-51292285D01*
X5650906Y-51131563D01*
X5591976Y-50924442D01*
X5495983Y-50731662D01*
X5366207Y-50559813D01*
X5207059Y-50414730D01*
X5023968Y-50301364D01*
X4823159Y-50223571D01*
X4757800Y-50211354D01*
X4249800Y-50211354D01*
X4184440Y-50223571D01*
X3983631Y-50301364D01*
X3800540Y-50414730D01*
X3641392Y-50559813D01*
X3511616Y-50731662D01*
X3415623Y-50924442D01*
X3356693Y-51131563D01*
X3341800Y-51292285D01*
X3341800Y-51746000D01*
X500Y-51746000D01*
X500Y-46953683D01*
X3649539Y-46953683D01*
X3659555Y-47138407D01*
X3709045Y-47316658D01*
X3795699Y-47480103D01*
X3858339Y-47553849D01*
X3915463Y-47621100D01*
X4062736Y-47733054D01*
X4230633Y-47810732D01*
X4366135Y-47840557D01*
X4411302Y-47850500D01*
X4411303Y-47850500D01*
X4549913Y-47850500D01*
X4549916Y-47850500D01*
X4653260Y-47839260D01*
X4687710Y-47835514D01*
X4776795Y-47805497D01*
X4863019Y-47776445D01*
X4863021Y-47776444D01*
X5021536Y-47681070D01*
X5155841Y-47553849D01*
X5259658Y-47400730D01*
X5328131Y-47228875D01*
X5358060Y-47046317D01*
X5348045Y-46861593D01*
X5298554Y-46683341D01*
X5211900Y-46519896D01*
X5211899Y-46519895D01*
X5092138Y-46378901D01*
X5074367Y-46365392D01*
X4944864Y-46266946D01*
X4776967Y-46189268D01*
X4776963Y-46189267D01*
X4596298Y-46149500D01*
X4596297Y-46149500D01*
X4457687Y-46149500D01*
X4457684Y-46149500D01*
X4319890Y-46164485D01*
X4144580Y-46223554D01*
X3986062Y-46318931D01*
X3851759Y-46446150D01*
X3747941Y-46599270D01*
X3679469Y-46771124D01*
X3649539Y-46953683D01*
X500Y-46953683D01*
X500Y-43953683D01*
X3649539Y-43953683D01*
X3659555Y-44138407D01*
X3709045Y-44316658D01*
X3795699Y-44480103D01*
X3858339Y-44553849D01*
X3915463Y-44621100D01*
X4062736Y-44733054D01*
X4230633Y-44810732D01*
X4366135Y-44840557D01*
X4411302Y-44850500D01*
X4411303Y-44850500D01*
X4549913Y-44850500D01*
X4549916Y-44850500D01*
X4653260Y-44839260D01*
X4687710Y-44835514D01*
X4776795Y-44805497D01*
X4863019Y-44776445D01*
X4863021Y-44776444D01*
X5021536Y-44681070D01*
X5155841Y-44553849D01*
X5259658Y-44400730D01*
X5328131Y-44228875D01*
X5358060Y-44046317D01*
X5348045Y-43861593D01*
X5298554Y-43683341D01*
X5211900Y-43519896D01*
X5211899Y-43519895D01*
X5092138Y-43378901D01*
X4944864Y-43266946D01*
X4944863Y-43266945D01*
X4776967Y-43189268D01*
X4776963Y-43189267D01*
X4596298Y-43149500D01*
X4596297Y-43149500D01*
X4457687Y-43149500D01*
X4457684Y-43149500D01*
X4319890Y-43164485D01*
X4144580Y-43223554D01*
X3986062Y-43318931D01*
X3851759Y-43446150D01*
X3747941Y-43599270D01*
X3679469Y-43771124D01*
X3649539Y-43953683D01*
X500Y-43953683D01*
X500Y-39254000D01*
X3341800Y-39254000D01*
X3341800Y-39707715D01*
X3356693Y-39868436D01*
X3415623Y-40075557D01*
X3511616Y-40268337D01*
X3641392Y-40440186D01*
X3800540Y-40585269D01*
X3983631Y-40698635D01*
X4184440Y-40776428D01*
X4249800Y-40788646D01*
X4249800Y-39254000D01*
X4757800Y-39254000D01*
X4757800Y-40788646D01*
X4823159Y-40776428D01*
X5023968Y-40698635D01*
X5207059Y-40585269D01*
X5366207Y-40440186D01*
X5495983Y-40268337D01*
X5591976Y-40075557D01*
X5650906Y-39868436D01*
X5665800Y-39707715D01*
X5665800Y-39254000D01*
X4757800Y-39254000D01*
X4249800Y-39254000D01*
X3341800Y-39254000D01*
X500Y-39254000D01*
X500Y-38746000D01*
X3341800Y-38746000D01*
X4249800Y-38746000D01*
X4249800Y-37211354D01*
X4757800Y-37211354D01*
X4757800Y-38746000D01*
X5665800Y-38746000D01*
X5665800Y-38292285D01*
X5650906Y-38131563D01*
X5591976Y-37924442D01*
X5495983Y-37731662D01*
X5366207Y-37559813D01*
X5207059Y-37414730D01*
X5023968Y-37301364D01*
X4823159Y-37223571D01*
X4757800Y-37211354D01*
X4249800Y-37211354D01*
X4184440Y-37223571D01*
X3983631Y-37301364D01*
X3800540Y-37414730D01*
X3641392Y-37559813D01*
X3511616Y-37731662D01*
X3415623Y-37924442D01*
X3356693Y-38131563D01*
X3341800Y-38292285D01*
X3341800Y-38746000D01*
X500Y-38746000D01*
X500Y-33953683D01*
X3649539Y-33953683D01*
X3659555Y-34138407D01*
X3709045Y-34316658D01*
X3795699Y-34480103D01*
X3858339Y-34553849D01*
X3915463Y-34621100D01*
X4062736Y-34733054D01*
X4230633Y-34810732D01*
X4366135Y-34840557D01*
X4411302Y-34850500D01*
X4411303Y-34850500D01*
X4549913Y-34850500D01*
X4549916Y-34850500D01*
X4653260Y-34839260D01*
X4687710Y-34835514D01*
X4776795Y-34805497D01*
X4863019Y-34776445D01*
X4863021Y-34776444D01*
X5021536Y-34681070D01*
X5155841Y-34553849D01*
X5259658Y-34400730D01*
X5328131Y-34228875D01*
X5358060Y-34046317D01*
X5348045Y-33861593D01*
X5298554Y-33683341D01*
X5211900Y-33519896D01*
X5211899Y-33519895D01*
X5092138Y-33378901D01*
X4944864Y-33266946D01*
X4776967Y-33189268D01*
X4776963Y-33189267D01*
X4596298Y-33149500D01*
X4596297Y-33149500D01*
X4457687Y-33149500D01*
X4457684Y-33149500D01*
X4319890Y-33164485D01*
X4144580Y-33223554D01*
X3986062Y-33318931D01*
X3851759Y-33446150D01*
X3747941Y-33599270D01*
X3679469Y-33771124D01*
X3649539Y-33953683D01*
X500Y-33953683D01*
X500Y-30953683D01*
X3649539Y-30953683D01*
X3659555Y-31138407D01*
X3709045Y-31316658D01*
X3795699Y-31480103D01*
X3858339Y-31553849D01*
X3915463Y-31621100D01*
X4062736Y-31733054D01*
X4230633Y-31810732D01*
X4366135Y-31840558D01*
X4411302Y-31850500D01*
X4411303Y-31850500D01*
X4549913Y-31850500D01*
X4549916Y-31850500D01*
X4653260Y-31839260D01*
X4687710Y-31835514D01*
X4776795Y-31805497D01*
X4863019Y-31776445D01*
X4863021Y-31776444D01*
X5021536Y-31681070D01*
X5155841Y-31553849D01*
X5259658Y-31400730D01*
X5328131Y-31228875D01*
X5358060Y-31046317D01*
X5348045Y-30861593D01*
X5298554Y-30683341D01*
X5211900Y-30519896D01*
X5092138Y-30378901D01*
X4944864Y-30266946D01*
X4944863Y-30266945D01*
X4776967Y-30189268D01*
X4776963Y-30189267D01*
X4596298Y-30149500D01*
X4596297Y-30149500D01*
X4457687Y-30149500D01*
X4457684Y-30149500D01*
X4319890Y-30164485D01*
X4144580Y-30223554D01*
X3986062Y-30318931D01*
X3851759Y-30446150D01*
X3747941Y-30599270D01*
X3679469Y-30771124D01*
X3649539Y-30953683D01*
X500Y-30953683D01*
X500Y-26254000D01*
X3341800Y-26254000D01*
X3341800Y-26707715D01*
X3356693Y-26868436D01*
X3415623Y-27075557D01*
X3511616Y-27268337D01*
X3641392Y-27440186D01*
X3800540Y-27585269D01*
X3983631Y-27698635D01*
X4184440Y-27776428D01*
X4249800Y-27788646D01*
X4249800Y-26254000D01*
X4757800Y-26254000D01*
X4757800Y-27788646D01*
X4823159Y-27776428D01*
X5023968Y-27698635D01*
X5207059Y-27585269D01*
X5366207Y-27440186D01*
X5495983Y-27268337D01*
X5591976Y-27075557D01*
X5650906Y-26868436D01*
X5665800Y-26707715D01*
X5665800Y-26254000D01*
X4757800Y-26254000D01*
X4249800Y-26254000D01*
X3341800Y-26254000D01*
X500Y-26254000D01*
X500Y-25746000D01*
X3341800Y-25746000D01*
X4249800Y-25746000D01*
X4249800Y-24211354D01*
X4757800Y-24211354D01*
X4757800Y-25746000D01*
X5665800Y-25746000D01*
X5665800Y-25292285D01*
X5650906Y-25131563D01*
X5591976Y-24924442D01*
X5495983Y-24731662D01*
X5366207Y-24559813D01*
X5207059Y-24414730D01*
X5023968Y-24301364D01*
X4823159Y-24223571D01*
X4757800Y-24211354D01*
X4249800Y-24211354D01*
X4184440Y-24223571D01*
X3983631Y-24301364D01*
X3800540Y-24414730D01*
X3641392Y-24559813D01*
X3511616Y-24731662D01*
X3415623Y-24924442D01*
X3356693Y-25131563D01*
X3341800Y-25292285D01*
X3341800Y-25746000D01*
X500Y-25746000D01*
X500Y-20953683D01*
X3649539Y-20953683D01*
X3659555Y-21138407D01*
X3709045Y-21316658D01*
X3795699Y-21480103D01*
X3858339Y-21553849D01*
X3915463Y-21621100D01*
X4062736Y-21733054D01*
X4230633Y-21810732D01*
X4366135Y-21840557D01*
X4411302Y-21850500D01*
X4411303Y-21850500D01*
X4549913Y-21850500D01*
X4549916Y-21850500D01*
X4653260Y-21839260D01*
X4687710Y-21835514D01*
X4776795Y-21805497D01*
X4863019Y-21776445D01*
X4863021Y-21776444D01*
X5021536Y-21681070D01*
X5155841Y-21553849D01*
X5259658Y-21400730D01*
X5328131Y-21228875D01*
X5358060Y-21046317D01*
X5348045Y-20861593D01*
X5298554Y-20683341D01*
X5211900Y-20519896D01*
X5092138Y-20378901D01*
X4944864Y-20266946D01*
X4944863Y-20266945D01*
X4776967Y-20189268D01*
X4776963Y-20189267D01*
X4596298Y-20149500D01*
X4596297Y-20149500D01*
X4457687Y-20149500D01*
X4457684Y-20149500D01*
X4319890Y-20164485D01*
X4144580Y-20223554D01*
X3986062Y-20318931D01*
X3851759Y-20446150D01*
X3747941Y-20599270D01*
X3679469Y-20771124D01*
X3649539Y-20953683D01*
X500Y-20953683D01*
X500Y-17953683D01*
X3649539Y-17953683D01*
X3659555Y-18138407D01*
X3709045Y-18316658D01*
X3795699Y-18480103D01*
X3858339Y-18553849D01*
X3915463Y-18621100D01*
X4062736Y-18733054D01*
X4230633Y-18810732D01*
X4366135Y-18840558D01*
X4411302Y-18850500D01*
X4411303Y-18850500D01*
X4549913Y-18850500D01*
X4549916Y-18850500D01*
X4653260Y-18839260D01*
X4687710Y-18835514D01*
X4776795Y-18805497D01*
X4863019Y-18776445D01*
X4863021Y-18776444D01*
X5021536Y-18681070D01*
X5155841Y-18553849D01*
X5259658Y-18400730D01*
X5328131Y-18228875D01*
X5358060Y-18046317D01*
X5348045Y-17861593D01*
X5298554Y-17683341D01*
X5211900Y-17519896D01*
X5211899Y-17519895D01*
X5092138Y-17378901D01*
X4944864Y-17266946D01*
X4944863Y-17266945D01*
X4776967Y-17189268D01*
X4776963Y-17189267D01*
X4596298Y-17149500D01*
X4596297Y-17149500D01*
X4457687Y-17149500D01*
X4457684Y-17149500D01*
X4319890Y-17164485D01*
X4144580Y-17223554D01*
X3986062Y-17318931D01*
X3851759Y-17446150D01*
X3747941Y-17599270D01*
X3679469Y-17771124D01*
X3649539Y-17953683D01*
X500Y-17953683D01*
X500Y-7111000D01*
X17381Y-7048000D01*
X63500Y-7001881D01*
X126500Y-6985000D01*
X4087251Y-6985000D01*
X4149857Y-7001654D01*
G37*
%TD.AperFunction*%
%TD*%
%TA.AperFunction,Conductor*%
%TO.N,GNDD*%
G36*
X15178500Y-59706881D02*
G01*
X15224619Y-59753000D01*
X15241500Y-59816000D01*
X15241500Y-66360405D01*
X15231909Y-66408623D01*
X15204595Y-66449500D01*
X13111000Y-68543095D01*
X13070123Y-68570409D01*
X13021905Y-68580000D01*
X10160000Y-68580000D01*
X6350000Y-69850000D01*
X6350000Y-80645000D01*
X7525668Y-80938916D01*
X7548344Y-80946954D01*
X7597088Y-80969684D01*
X7818244Y-81028943D01*
X7912211Y-81037163D01*
X7931782Y-81040445D01*
X8890000Y-81280000D01*
X8890001Y-81280000D01*
X9478271Y-81280000D01*
X9531521Y-81291805D01*
X9574793Y-81325009D01*
X9599978Y-81373389D01*
X9652517Y-81569470D01*
X9749243Y-81776897D01*
X9799231Y-81848287D01*
X10330617Y-81316904D01*
X10371494Y-81289591D01*
X10419712Y-81280000D01*
X10781750Y-81280000D01*
X10838953Y-81293733D01*
X10883686Y-81331939D01*
X10886331Y-81338324D01*
X10888976Y-81331939D01*
X10933709Y-81293733D01*
X10990912Y-81280000D01*
X11352951Y-81280000D01*
X11401169Y-81289591D01*
X11442047Y-81316905D01*
X11973429Y-81848288D01*
X11973430Y-81848288D01*
X12023418Y-81776898D01*
X12120144Y-81569470D01*
X12179379Y-81348399D01*
X12199326Y-81120400D01*
X12179379Y-80892400D01*
X12120144Y-80671329D01*
X12076805Y-80578389D01*
X12065000Y-80525139D01*
X12065000Y-80314799D01*
X14840902Y-80314799D01*
X14860857Y-80542887D01*
X14920115Y-80764043D01*
X15016877Y-80971550D01*
X15148204Y-81159103D01*
X15310096Y-81320995D01*
X15310099Y-81320997D01*
X15310100Y-81320998D01*
X15334844Y-81338324D01*
X15497649Y-81452322D01*
X15705156Y-81549084D01*
X15764414Y-81564962D01*
X15926313Y-81608343D01*
X16154400Y-81628298D01*
X16382487Y-81608343D01*
X16603643Y-81549084D01*
X16811149Y-81452323D01*
X16998700Y-81320998D01*
X17160598Y-81159100D01*
X17291923Y-80971549D01*
X17388684Y-80764043D01*
X17447943Y-80542887D01*
X17467898Y-80314800D01*
X17467898Y-80314799D01*
X17990502Y-80314799D01*
X18010457Y-80542887D01*
X18069715Y-80764043D01*
X18166477Y-80971550D01*
X18297804Y-81159103D01*
X18459696Y-81320995D01*
X18459699Y-81320997D01*
X18459700Y-81320998D01*
X18484444Y-81338324D01*
X18647249Y-81452322D01*
X18854756Y-81549084D01*
X18914014Y-81564962D01*
X19075913Y-81608343D01*
X19304000Y-81628298D01*
X19532087Y-81608343D01*
X19753243Y-81549084D01*
X19960749Y-81452323D01*
X20148300Y-81320998D01*
X20310198Y-81159100D01*
X20441523Y-80971549D01*
X20538284Y-80764043D01*
X20597543Y-80542887D01*
X20617498Y-80314800D01*
X20597543Y-80086713D01*
X20538284Y-79865557D01*
X20441523Y-79658051D01*
X20310198Y-79470500D01*
X20310197Y-79470499D01*
X20310195Y-79470496D01*
X20148303Y-79308604D01*
X19960750Y-79177277D01*
X19753243Y-79080515D01*
X19532087Y-79021257D01*
X19304000Y-79001302D01*
X19075912Y-79021257D01*
X18854756Y-79080515D01*
X18647249Y-79177277D01*
X18459696Y-79308604D01*
X18297804Y-79470496D01*
X18166477Y-79658049D01*
X18069715Y-79865556D01*
X18010457Y-80086712D01*
X17990502Y-80314799D01*
X17467898Y-80314799D01*
X17447943Y-80086713D01*
X17388684Y-79865557D01*
X17291923Y-79658051D01*
X17160598Y-79470500D01*
X17160597Y-79470499D01*
X17160595Y-79470496D01*
X16998703Y-79308604D01*
X16811150Y-79177277D01*
X16603643Y-79080515D01*
X16382487Y-79021257D01*
X16154400Y-79001302D01*
X15926312Y-79021257D01*
X15705156Y-79080515D01*
X15497649Y-79177277D01*
X15310096Y-79308604D01*
X15148204Y-79470496D01*
X15016877Y-79658049D01*
X14920115Y-79865556D01*
X14860857Y-80086712D01*
X14840902Y-80314799D01*
X12065000Y-80314799D01*
X12065000Y-78946844D01*
X12076805Y-78893594D01*
X12120615Y-78799642D01*
X12179874Y-78578487D01*
X12199829Y-78350400D01*
X12179874Y-78122313D01*
X12120615Y-77901157D01*
X12076804Y-77807204D01*
X12065000Y-77753956D01*
X12065000Y-76339900D01*
X12081881Y-76276900D01*
X12128000Y-76230781D01*
X12191000Y-76213900D01*
X13235747Y-76213900D01*
X13256535Y-76216195D01*
X13259507Y-76216101D01*
X13259509Y-76216102D01*
X13327585Y-76213962D01*
X13331545Y-76213900D01*
X13359452Y-76213900D01*
X13359456Y-76213900D01*
X13363465Y-76213393D01*
X13375299Y-76212461D01*
X13419489Y-76211073D01*
X13438938Y-76205421D01*
X13458298Y-76201412D01*
X13478397Y-76198874D01*
X13519515Y-76182593D01*
X13530717Y-76178757D01*
X13573193Y-76166418D01*
X13590639Y-76156099D01*
X13608380Y-76147409D01*
X13627217Y-76139952D01*
X13662992Y-76113958D01*
X13672903Y-76107448D01*
X13710962Y-76084942D01*
X13725291Y-76070612D01*
X13740319Y-76057777D01*
X13756707Y-76045872D01*
X13784903Y-76011786D01*
X13792872Y-76003030D01*
X14993658Y-74802245D01*
X15009980Y-74789169D01*
X15012014Y-74787001D01*
X15012018Y-74787000D01*
X15058661Y-74737328D01*
X15061352Y-74734551D01*
X15081135Y-74714770D01*
X15083621Y-74711564D01*
X15091310Y-74702561D01*
X15121586Y-74670321D01*
X15131342Y-74652571D01*
X15142195Y-74636050D01*
X15154614Y-74620041D01*
X15172175Y-74579454D01*
X15177388Y-74568813D01*
X15198695Y-74530060D01*
X15203733Y-74510434D01*
X15210137Y-74491732D01*
X15218181Y-74473144D01*
X15225096Y-74429482D01*
X15227504Y-74417853D01*
X15238500Y-74375029D01*
X15238500Y-74354776D01*
X15240051Y-74335066D01*
X15243220Y-74315057D01*
X15239059Y-74271039D01*
X15238500Y-74259181D01*
X15238500Y-73078690D01*
X15248091Y-73030472D01*
X15275405Y-72989595D01*
X15838095Y-72426905D01*
X15878972Y-72399591D01*
X15927190Y-72390000D01*
X20320000Y-72390000D01*
X20955000Y-71755000D01*
X20955000Y-69215000D01*
X20954999Y-69214998D01*
X18313369Y-66573369D01*
X18284367Y-66528196D01*
X18276802Y-66475050D01*
X18292046Y-66423579D01*
X18296584Y-66415322D01*
X18296586Y-66415321D01*
X18306346Y-66397565D01*
X18317195Y-66381050D01*
X18329614Y-66365041D01*
X18347175Y-66324454D01*
X18352388Y-66313813D01*
X18373695Y-66275060D01*
X18378733Y-66255434D01*
X18385137Y-66236732D01*
X18393181Y-66218144D01*
X18400096Y-66174482D01*
X18402504Y-66162853D01*
X18413500Y-66120029D01*
X18413500Y-66099776D01*
X18415051Y-66080066D01*
X18418220Y-66060057D01*
X18414059Y-66016039D01*
X18413500Y-66004181D01*
X18413500Y-59816000D01*
X18430381Y-59753000D01*
X18476500Y-59706881D01*
X18539500Y-59690000D01*
X18924000Y-59690000D01*
X18987000Y-59706881D01*
X19033119Y-59753000D01*
X19050000Y-59816000D01*
X19050000Y-62230000D01*
X27525400Y-62230000D01*
X27588400Y-62246881D01*
X27634519Y-62293000D01*
X27651400Y-62356000D01*
X27651400Y-99135652D01*
X27639504Y-99189096D01*
X27606063Y-99232447D01*
X26055072Y-100524940D01*
X25520645Y-100970296D01*
X25482876Y-100991974D01*
X25439982Y-100999500D01*
X6385005Y-100999500D01*
X6322399Y-100982846D01*
X6276344Y-100937286D01*
X6259012Y-100874865D01*
X6274987Y-100812082D01*
X6320046Y-100765536D01*
X6359135Y-100742016D01*
X6644693Y-100524939D01*
X6655496Y-100514706D01*
X4500001Y-98359210D01*
X4499999Y-98359210D01*
X2344502Y-100514706D01*
X2355307Y-100524940D01*
X2640863Y-100742016D01*
X2679954Y-100765536D01*
X2725013Y-100812082D01*
X2740988Y-100874865D01*
X2723656Y-100937286D01*
X2677601Y-100982846D01*
X2614995Y-100999500D01*
X1991691Y-100999500D01*
X1943473Y-100989909D01*
X1902596Y-100962595D01*
X37405Y-99097405D01*
X10091Y-99056528D01*
X500Y-99008310D01*
X500Y-98000000D01*
X1187140Y-98000000D01*
X1206561Y-98358183D01*
X1264593Y-98712166D01*
X1360557Y-99057797D01*
X1493331Y-99391032D01*
X1661352Y-99707955D01*
X1862655Y-100004854D01*
X1988168Y-100152620D01*
X4140789Y-98000001D01*
X4859210Y-98000001D01*
X7011831Y-100152620D01*
X7137344Y-100004854D01*
X7338647Y-99707955D01*
X7506668Y-99391032D01*
X7639442Y-99057797D01*
X7735406Y-98712166D01*
X7793438Y-98358183D01*
X7812859Y-97999999D01*
X7793438Y-97641816D01*
X7735406Y-97287833D01*
X7639442Y-96942202D01*
X7506668Y-96608967D01*
X7338647Y-96292044D01*
X7137341Y-95995140D01*
X7011831Y-95847377D01*
X4859210Y-97999999D01*
X4859210Y-98000001D01*
X4140789Y-98000001D01*
X4140789Y-97999999D01*
X1988167Y-95847377D01*
X1988166Y-95847378D01*
X1862658Y-95995139D01*
X1661352Y-96292044D01*
X1493331Y-96608967D01*
X1360557Y-96942202D01*
X1264593Y-97287833D01*
X1206561Y-97641816D01*
X1187140Y-98000000D01*
X500Y-98000000D01*
X500Y-95485292D01*
X2344502Y-95485292D01*
X4499999Y-97640789D01*
X4500001Y-97640789D01*
X6655496Y-95485292D01*
X6644692Y-95475059D01*
X6359139Y-95257986D01*
X6051766Y-95073046D01*
X5726217Y-94922431D01*
X5386284Y-94807894D01*
X5035959Y-94730782D01*
X4679358Y-94692000D01*
X4320642Y-94692000D01*
X3964040Y-94730782D01*
X3613715Y-94807894D01*
X3273782Y-94922431D01*
X2948233Y-95073046D01*
X2640860Y-95257986D01*
X2355303Y-95475062D01*
X2344502Y-95485292D01*
X500Y-95485292D01*
X500Y-90027088D01*
X7878852Y-90027088D01*
X8119816Y-90202159D01*
X8396365Y-90354193D01*
X8689789Y-90470367D01*
X8995448Y-90548848D01*
X9308538Y-90588400D01*
X9624124Y-90588400D01*
X9937213Y-90548848D01*
X10242872Y-90470367D01*
X10536296Y-90354193D01*
X10812845Y-90202159D01*
X11053808Y-90027088D01*
X11053808Y-90027086D01*
X9466332Y-88439610D01*
X9466330Y-88439610D01*
X7878852Y-90027086D01*
X7878852Y-90027088D01*
X500Y-90027088D01*
X500Y-88080399D01*
X6953371Y-88080399D01*
X6973186Y-88395355D01*
X7032320Y-88705344D01*
X7129842Y-89005484D01*
X7264208Y-89291028D01*
X7433302Y-89557478D01*
X7522373Y-89665145D01*
X7522374Y-89665146D01*
X9107121Y-88080401D01*
X9825541Y-88080401D01*
X11410286Y-89665146D01*
X11410287Y-89665145D01*
X11499358Y-89557478D01*
X11668453Y-89291027D01*
X11802819Y-89005484D01*
X11900341Y-88705344D01*
X11959475Y-88395355D01*
X11979290Y-88080400D01*
X11959475Y-87765444D01*
X11900341Y-87455455D01*
X11802819Y-87155315D01*
X11668453Y-86869771D01*
X11499359Y-86603321D01*
X11410287Y-86495653D01*
X11410286Y-86495652D01*
X9825541Y-88080399D01*
X9825541Y-88080401D01*
X9107121Y-88080401D01*
X9107121Y-88080399D01*
X7522374Y-86495652D01*
X7522373Y-86495652D01*
X7433301Y-86603322D01*
X7264208Y-86869771D01*
X7129842Y-87155315D01*
X7032320Y-87455455D01*
X6973186Y-87765444D01*
X6953371Y-88080399D01*
X500Y-88080399D01*
X500Y-86133712D01*
X7878852Y-86133712D01*
X9466330Y-87721190D01*
X9466332Y-87721190D01*
X11053808Y-86133712D01*
X11053808Y-86133710D01*
X10812845Y-85958640D01*
X10536296Y-85806606D01*
X10242872Y-85690432D01*
X9937213Y-85611951D01*
X9624124Y-85572400D01*
X9308538Y-85572400D01*
X8995448Y-85611951D01*
X8689789Y-85690432D01*
X8396365Y-85806606D01*
X8119813Y-85958642D01*
X7878852Y-86133709D01*
X7878852Y-86133712D01*
X500Y-86133712D01*
X500Y-82207500D01*
X10158441Y-82207500D01*
X10229828Y-82257485D01*
X10437260Y-82354213D01*
X10658331Y-82413448D01*
X10886331Y-82433395D01*
X11114330Y-82413448D01*
X11335401Y-82354213D01*
X11542829Y-82257487D01*
X11614219Y-82207499D01*
X11614219Y-82207497D01*
X10901817Y-81495095D01*
X10886331Y-81469824D01*
X10870845Y-81495096D01*
X10158441Y-82207498D01*
X10158441Y-82207500D01*
X500Y-82207500D01*
X500Y-65027088D01*
X7878852Y-65027088D01*
X8119816Y-65202159D01*
X8396365Y-65354193D01*
X8689789Y-65470367D01*
X8995448Y-65548848D01*
X9308538Y-65588400D01*
X9624124Y-65588400D01*
X9937213Y-65548848D01*
X10242872Y-65470367D01*
X10536296Y-65354193D01*
X10812845Y-65202159D01*
X11053808Y-65027088D01*
X11053808Y-65027086D01*
X9466332Y-63439610D01*
X9466330Y-63439610D01*
X7878852Y-65027086D01*
X7878852Y-65027088D01*
X500Y-65027088D01*
X500Y-63080400D01*
X6953371Y-63080400D01*
X6973186Y-63395355D01*
X7032320Y-63705344D01*
X7129842Y-64005484D01*
X7264208Y-64291028D01*
X7433302Y-64557478D01*
X7522373Y-64665145D01*
X7522374Y-64665146D01*
X9107121Y-63080401D01*
X9825541Y-63080401D01*
X11410286Y-64665146D01*
X11410287Y-64665145D01*
X11499358Y-64557478D01*
X11668453Y-64291027D01*
X11802819Y-64005484D01*
X11900341Y-63705344D01*
X11959475Y-63395355D01*
X11979290Y-63080400D01*
X11959475Y-62765444D01*
X11900341Y-62455455D01*
X11802819Y-62155315D01*
X11668453Y-61869771D01*
X11499359Y-61603321D01*
X11410287Y-61495653D01*
X11410286Y-61495652D01*
X9825541Y-63080399D01*
X9825541Y-63080401D01*
X9107121Y-63080401D01*
X9107121Y-63080399D01*
X7522374Y-61495652D01*
X7522373Y-61495652D01*
X7433301Y-61603322D01*
X7264208Y-61869771D01*
X7129842Y-62155315D01*
X7032320Y-62455455D01*
X6973186Y-62765444D01*
X6953371Y-63080400D01*
X500Y-63080400D01*
X500Y-61133712D01*
X7878852Y-61133712D01*
X9466330Y-62721190D01*
X9466332Y-62721190D01*
X11053808Y-61133712D01*
X11053808Y-61133710D01*
X10812845Y-60958640D01*
X10536296Y-60806606D01*
X10242872Y-60690432D01*
X9937213Y-60611951D01*
X9624124Y-60572400D01*
X9308538Y-60572400D01*
X8995448Y-60611951D01*
X8689789Y-60690432D01*
X8396365Y-60806606D01*
X8119813Y-60958642D01*
X7878852Y-61133709D01*
X7878852Y-61133712D01*
X500Y-61133712D01*
X500Y-59816000D01*
X17381Y-59753000D01*
X63500Y-59706881D01*
X126500Y-59690000D01*
X15115500Y-59690000D01*
X15178500Y-59706881D01*
G37*
%TD.AperFunction*%
%TD*%
M02*
