%TF.GenerationSoftware,KiCad,Pcbnew,7.0.1*%
%TF.CreationDate,2023-11-25T16:04:23-05:00*%
%TF.ProjectId,PCI bracket board,50434920-6272-4616-936b-657420626f61,rev?*%
%TF.SameCoordinates,Original*%
%TF.FileFunction,Drillmap*%
%TF.FilePolarity,Positive*%
%FSLAX45Y45*%
G04 Gerber Fmt 4.5, Leading zero omitted, Abs format (unit mm)*
G04 Created by KiCad (PCBNEW 7.0.1) date 2023-11-25 16:04:23*
%MOMM*%
%LPD*%
G01*
G04 APERTURE LIST*
%ADD10C,0.100000*%
%ADD11C,0.200000*%
%ADD12C,0.040000*%
%ADD13C,0.080000*%
%ADD14C,0.320000*%
G04 APERTURE END LIST*
D10*
X0Y-10100000D02*
X0Y0D01*
X2765190Y-10100000D02*
X0Y-10100000D01*
X2765190Y0D02*
X2765190Y-10100000D01*
X0Y0D02*
X2765190Y0D01*
D11*
D12*
X170500Y-6076000D02*
X210500Y-6116000D01*
X210500Y-6076000D02*
X170500Y-6116000D01*
X170500Y-6647500D02*
X210500Y-6687500D01*
X210500Y-6647500D02*
X170500Y-6687500D01*
X170500Y-7155500D02*
X210500Y-7195500D01*
X210500Y-7155500D02*
X170500Y-7195500D01*
X170500Y-7663500D02*
X210500Y-7703500D01*
X210500Y-7663500D02*
X170500Y-7703500D01*
X170500Y-8171500D02*
X210500Y-8211500D01*
X210500Y-8171500D02*
X170500Y-8211500D01*
X170500Y-8679500D02*
X210500Y-8719500D01*
X210500Y-8679500D02*
X170500Y-8719500D01*
X170500Y-9251000D02*
X210500Y-9291000D01*
X210500Y-9251000D02*
X170500Y-9291000D01*
X424500Y-6838000D02*
X464500Y-6878000D01*
X464500Y-6838000D02*
X424500Y-6878000D01*
X1313500Y-234000D02*
X1353500Y-274000D01*
X1353500Y-234000D02*
X1313500Y-274000D01*
X1504000Y-869000D02*
X1544000Y-909000D01*
X1544000Y-869000D02*
X1504000Y-909000D01*
X1631000Y-8933500D02*
X1671000Y-8973500D01*
X1671000Y-8933500D02*
X1631000Y-8973500D01*
X1631000Y-9251000D02*
X1671000Y-9291000D01*
X1671000Y-9251000D02*
X1631000Y-9291000D01*
X1631000Y-9505000D02*
X1671000Y-9545000D01*
X1671000Y-9505000D02*
X1631000Y-9545000D01*
X1631000Y-9759000D02*
X1671000Y-9799000D01*
X1671000Y-9759000D02*
X1631000Y-9799000D01*
X1821500Y-234000D02*
X1861500Y-274000D01*
X1861500Y-234000D02*
X1821500Y-274000D01*
X1885000Y-5377500D02*
X1925000Y-5417500D01*
X1925000Y-5377500D02*
X1885000Y-5417500D01*
X2012000Y-9251000D02*
X2052000Y-9291000D01*
X2052000Y-9251000D02*
X2012000Y-9291000D01*
X2012000Y-9505000D02*
X2052000Y-9545000D01*
X2052000Y-9505000D02*
X2012000Y-9545000D01*
X2012000Y-9759000D02*
X2052000Y-9799000D01*
X2052000Y-9759000D02*
X2012000Y-9799000D01*
X2075500Y-2647000D02*
X2115500Y-2687000D01*
X2115500Y-2647000D02*
X2075500Y-2687000D01*
X2202500Y-297500D02*
X2242500Y-337500D01*
X2242500Y-297500D02*
X2202500Y-337500D01*
X2202500Y-869000D02*
X2242500Y-909000D01*
X2242500Y-869000D02*
X2202500Y-909000D01*
X2520000Y-742000D02*
X2560000Y-782000D01*
X2560000Y-742000D02*
X2520000Y-782000D01*
X2520000Y-1504000D02*
X2560000Y-1544000D01*
X2560000Y-1504000D02*
X2520000Y-1544000D01*
X2520000Y-2075500D02*
X2560000Y-2115500D01*
X2560000Y-2075500D02*
X2520000Y-2115500D01*
X2520000Y-2647000D02*
X2560000Y-2687000D01*
X2560000Y-2647000D02*
X2520000Y-2687000D01*
X2520000Y-3409000D02*
X2560000Y-3449000D01*
X2560000Y-3409000D02*
X2520000Y-3449000D01*
X2520000Y-4107500D02*
X2560000Y-4147500D01*
X2560000Y-4107500D02*
X2520000Y-4147500D01*
X2520000Y-4552000D02*
X2560000Y-4592000D01*
X2560000Y-4552000D02*
X2520000Y-4592000D01*
X2520000Y-5060000D02*
X2560000Y-5100000D01*
X2560000Y-5060000D02*
X2520000Y-5100000D01*
X2520000Y-5377500D02*
X2560000Y-5417500D01*
X2560000Y-5377500D02*
X2520000Y-5417500D01*
X2520000Y-7028500D02*
X2560000Y-7068500D01*
X2560000Y-7028500D02*
X2520000Y-7068500D01*
X2520000Y-7600000D02*
X2560000Y-7640000D01*
X2560000Y-7600000D02*
X2520000Y-7640000D01*
X2520000Y-8362000D02*
X2560000Y-8402000D01*
X2560000Y-8362000D02*
X2520000Y-8402000D01*
X2520000Y-9060500D02*
X2560000Y-9100500D01*
X2560000Y-9060500D02*
X2520000Y-9100500D01*
X2520000Y-9759000D02*
X2560000Y-9799000D01*
X2560000Y-9759000D02*
X2520000Y-9799000D01*
D13*
X490380Y-1300000D02*
G75*
G03*
X490380Y-1300000I-40000J0D01*
G01*
D11*
X410380Y-1265000D02*
X410380Y-1335000D01*
X410380Y-1335000D02*
G75*
G03*
X490380Y-1335000I40000J0D01*
G01*
X490380Y-1335000D02*
X490380Y-1265000D01*
X490380Y-1265000D02*
G75*
G03*
X410380Y-1265000I-40000J0D01*
G01*
D13*
X490380Y-2600000D02*
G75*
G03*
X490380Y-2600000I-40000J0D01*
G01*
D11*
X410380Y-2565000D02*
X410380Y-2635000D01*
X410380Y-2635000D02*
G75*
G03*
X490380Y-2635000I40000J0D01*
G01*
X490380Y-2635000D02*
X490380Y-2565000D01*
X490380Y-2565000D02*
G75*
G03*
X410380Y-2565000I-40000J0D01*
G01*
D13*
X490380Y-3900000D02*
G75*
G03*
X490380Y-3900000I-40000J0D01*
G01*
D11*
X410380Y-3865000D02*
X410380Y-3935000D01*
X410380Y-3935000D02*
G75*
G03*
X490380Y-3935000I40000J0D01*
G01*
X490380Y-3935000D02*
X490380Y-3865000D01*
X490380Y-3865000D02*
G75*
G03*
X410380Y-3865000I-40000J0D01*
G01*
D13*
X490380Y-5200000D02*
G75*
G03*
X490380Y-5200000I-40000J0D01*
G01*
D11*
X410380Y-5165000D02*
X410380Y-5235000D01*
X410380Y-5235000D02*
G75*
G03*
X490380Y-5235000I40000J0D01*
G01*
X490380Y-5235000D02*
X490380Y-5165000D01*
X490380Y-5165000D02*
G75*
G03*
X410380Y-5165000I-40000J0D01*
G01*
D13*
X990380Y-800000D02*
G75*
G03*
X990380Y-800000I-40000J0D01*
G01*
D11*
X915380Y-840000D02*
X985380Y-840000D01*
X985380Y-840000D02*
G75*
G03*
X985380Y-760000I0J40000D01*
G01*
X985380Y-760000D02*
X915380Y-760000D01*
X915380Y-760000D02*
G75*
G03*
X915380Y-840000I0J-40000D01*
G01*
D13*
X990380Y-1050000D02*
G75*
G03*
X990380Y-1050000I-40000J0D01*
G01*
D11*
X915380Y-1090000D02*
X985380Y-1090000D01*
X985380Y-1090000D02*
G75*
G03*
X985380Y-1010000I0J40000D01*
G01*
X985380Y-1010000D02*
X915380Y-1010000D01*
X915380Y-1010000D02*
G75*
G03*
X915380Y-1090000I0J-40000D01*
G01*
D13*
X990380Y-1550000D02*
G75*
G03*
X990380Y-1550000I-40000J0D01*
G01*
D11*
X915380Y-1590000D02*
X985380Y-1590000D01*
X985380Y-1590000D02*
G75*
G03*
X985380Y-1510000I0J40000D01*
G01*
X985380Y-1510000D02*
X915380Y-1510000D01*
X915380Y-1510000D02*
G75*
G03*
X915380Y-1590000I0J-40000D01*
G01*
D13*
X990380Y-1800000D02*
G75*
G03*
X990380Y-1800000I-40000J0D01*
G01*
D11*
X915380Y-1840000D02*
X985380Y-1840000D01*
X985380Y-1840000D02*
G75*
G03*
X985380Y-1760000I0J40000D01*
G01*
X985380Y-1760000D02*
X915380Y-1760000D01*
X915380Y-1760000D02*
G75*
G03*
X915380Y-1840000I0J-40000D01*
G01*
D13*
X990380Y-2100000D02*
G75*
G03*
X990380Y-2100000I-40000J0D01*
G01*
D11*
X915380Y-2140000D02*
X985380Y-2140000D01*
X985380Y-2140000D02*
G75*
G03*
X985380Y-2060000I0J40000D01*
G01*
X985380Y-2060000D02*
X915380Y-2060000D01*
X915380Y-2060000D02*
G75*
G03*
X915380Y-2140000I0J-40000D01*
G01*
D13*
X990380Y-2350000D02*
G75*
G03*
X990380Y-2350000I-40000J0D01*
G01*
D11*
X915380Y-2390000D02*
X985380Y-2390000D01*
X985380Y-2390000D02*
G75*
G03*
X985380Y-2310000I0J40000D01*
G01*
X985380Y-2310000D02*
X915380Y-2310000D01*
X915380Y-2310000D02*
G75*
G03*
X915380Y-2390000I0J-40000D01*
G01*
D13*
X990380Y-2850000D02*
G75*
G03*
X990380Y-2850000I-40000J0D01*
G01*
D11*
X915380Y-2890000D02*
X985380Y-2890000D01*
X985380Y-2890000D02*
G75*
G03*
X985380Y-2810000I0J40000D01*
G01*
X985380Y-2810000D02*
X915380Y-2810000D01*
X915380Y-2810000D02*
G75*
G03*
X915380Y-2890000I0J-40000D01*
G01*
D13*
X990380Y-3100000D02*
G75*
G03*
X990380Y-3100000I-40000J0D01*
G01*
D11*
X915380Y-3140000D02*
X985380Y-3140000D01*
X985380Y-3140000D02*
G75*
G03*
X985380Y-3060000I0J40000D01*
G01*
X985380Y-3060000D02*
X915380Y-3060000D01*
X915380Y-3060000D02*
G75*
G03*
X915380Y-3140000I0J-40000D01*
G01*
D13*
X990380Y-3400000D02*
G75*
G03*
X990380Y-3400000I-40000J0D01*
G01*
D11*
X915380Y-3440000D02*
X985380Y-3440000D01*
X985380Y-3440000D02*
G75*
G03*
X985380Y-3360000I0J40000D01*
G01*
X985380Y-3360000D02*
X915380Y-3360000D01*
X915380Y-3360000D02*
G75*
G03*
X915380Y-3440000I0J-40000D01*
G01*
D13*
X990380Y-3650000D02*
G75*
G03*
X990380Y-3650000I-40000J0D01*
G01*
D11*
X915380Y-3690000D02*
X985380Y-3690000D01*
X985380Y-3690000D02*
G75*
G03*
X985380Y-3610000I0J40000D01*
G01*
X985380Y-3610000D02*
X915380Y-3610000D01*
X915380Y-3610000D02*
G75*
G03*
X915380Y-3690000I0J-40000D01*
G01*
D13*
X990380Y-4150000D02*
G75*
G03*
X990380Y-4150000I-40000J0D01*
G01*
D11*
X915380Y-4190000D02*
X985380Y-4190000D01*
X985380Y-4190000D02*
G75*
G03*
X985380Y-4110000I0J40000D01*
G01*
X985380Y-4110000D02*
X915380Y-4110000D01*
X915380Y-4110000D02*
G75*
G03*
X915380Y-4190000I0J-40000D01*
G01*
D13*
X990380Y-4400000D02*
G75*
G03*
X990380Y-4400000I-40000J0D01*
G01*
D11*
X915380Y-4440000D02*
X985380Y-4440000D01*
X985380Y-4440000D02*
G75*
G03*
X985380Y-4360000I0J40000D01*
G01*
X985380Y-4360000D02*
X915380Y-4360000D01*
X915380Y-4360000D02*
G75*
G03*
X915380Y-4440000I0J-40000D01*
G01*
D13*
X990380Y-4700000D02*
G75*
G03*
X990380Y-4700000I-40000J0D01*
G01*
D11*
X915380Y-4740000D02*
X985380Y-4740000D01*
X985380Y-4740000D02*
G75*
G03*
X985380Y-4660000I0J40000D01*
G01*
X985380Y-4660000D02*
X915380Y-4660000D01*
X915380Y-4660000D02*
G75*
G03*
X915380Y-4740000I0J-40000D01*
G01*
D13*
X990380Y-4950000D02*
G75*
G03*
X990380Y-4950000I-40000J0D01*
G01*
D11*
X915380Y-4990000D02*
X985380Y-4990000D01*
X985380Y-4990000D02*
G75*
G03*
X985380Y-4910000I0J40000D01*
G01*
X985380Y-4910000D02*
X915380Y-4910000D01*
X915380Y-4910000D02*
G75*
G03*
X915380Y-4990000I0J-40000D01*
G01*
D13*
X990380Y-5450000D02*
G75*
G03*
X990380Y-5450000I-40000J0D01*
G01*
D11*
X915380Y-5490000D02*
X985380Y-5490000D01*
X985380Y-5490000D02*
G75*
G03*
X985380Y-5410000I0J40000D01*
G01*
X985380Y-5410000D02*
X915380Y-5410000D01*
X915380Y-5410000D02*
G75*
G03*
X915380Y-5490000I0J-40000D01*
G01*
D13*
X990380Y-5700000D02*
G75*
G03*
X990380Y-5700000I-40000J0D01*
G01*
D11*
X915380Y-5740000D02*
X985380Y-5740000D01*
X985380Y-5740000D02*
G75*
G03*
X985380Y-5660000I0J40000D01*
G01*
X985380Y-5660000D02*
X915380Y-5660000D01*
X915380Y-5660000D02*
G75*
G03*
X915380Y-5740000I0J-40000D01*
G01*
D13*
X1655440Y-7015480D02*
G75*
G03*
X1655440Y-7015480I-40000J0D01*
G01*
X1655440Y-8031480D02*
G75*
G03*
X1655440Y-8031480I-40000J0D01*
G01*
X1970400Y-7015480D02*
G75*
G03*
X1970400Y-7015480I-40000J0D01*
G01*
X1970400Y-8031480D02*
G75*
G03*
X1970400Y-8031480I-40000J0D01*
G01*
D10*
X804633Y-7092540D02*
X804633Y-7192540D01*
X754633Y-7142540D02*
X854633Y-7142540D01*
X804633Y-7369540D02*
X804633Y-7469540D01*
X754633Y-7419540D02*
X854633Y-7419540D01*
X804633Y-7646540D02*
X804633Y-7746540D01*
X754633Y-7696540D02*
X854633Y-7696540D01*
X804633Y-7923540D02*
X804633Y-8023540D01*
X754633Y-7973540D02*
X854633Y-7973540D01*
X1088633Y-6954040D02*
X1088633Y-7054040D01*
X1038633Y-7004040D02*
X1138633Y-7004040D01*
X1088633Y-7231040D02*
X1088633Y-7331040D01*
X1038633Y-7281040D02*
X1138633Y-7281040D01*
X1088633Y-7508040D02*
X1088633Y-7608040D01*
X1038633Y-7558040D02*
X1138633Y-7558040D01*
X1088633Y-7785040D02*
X1088633Y-7885040D01*
X1038633Y-7835040D02*
X1138633Y-7835040D01*
X1088633Y-8062040D02*
X1088633Y-8162040D01*
X1038633Y-8112040D02*
X1138633Y-8112040D01*
X1558440Y-2343180D02*
X1558440Y-2443180D01*
X1508440Y-2393180D02*
X1608440Y-2393180D01*
X1558440Y-2597180D02*
X1558440Y-2697180D01*
X1508440Y-2647180D02*
X1608440Y-2647180D01*
X1558440Y-2851180D02*
X1558440Y-2951180D01*
X1508440Y-2901180D02*
X1608440Y-2901180D01*
X1558440Y-3105180D02*
X1558440Y-3205180D01*
X1508440Y-3155180D02*
X1608440Y-3155180D01*
X1558440Y-3359180D02*
X1558440Y-3459180D01*
X1508440Y-3409180D02*
X1608440Y-3409180D01*
X1558440Y-3613180D02*
X1558440Y-3713180D01*
X1508440Y-3663180D02*
X1608440Y-3663180D01*
X1558440Y-3867180D02*
X1558440Y-3967180D01*
X1508440Y-3917180D02*
X1608440Y-3917180D01*
X1558440Y-4121180D02*
X1558440Y-4221180D01*
X1508440Y-4171180D02*
X1608440Y-4171180D01*
X1558440Y-4375180D02*
X1558440Y-4475180D01*
X1508440Y-4425180D02*
X1608440Y-4425180D01*
X1558440Y-4629180D02*
X1558440Y-4729180D01*
X1508440Y-4679180D02*
X1608440Y-4679180D01*
X1812440Y-2343180D02*
X1812440Y-2443180D01*
X1762440Y-2393180D02*
X1862440Y-2393180D01*
X1812440Y-2597180D02*
X1812440Y-2697180D01*
X1762440Y-2647180D02*
X1862440Y-2647180D01*
X1812440Y-2851180D02*
X1812440Y-2951180D01*
X1762440Y-2901180D02*
X1862440Y-2901180D01*
X1812440Y-3105180D02*
X1812440Y-3205180D01*
X1762440Y-3155180D02*
X1862440Y-3155180D01*
X1812440Y-3359180D02*
X1812440Y-3459180D01*
X1762440Y-3409180D02*
X1862440Y-3409180D01*
X1812440Y-3613180D02*
X1812440Y-3713180D01*
X1762440Y-3663180D02*
X1862440Y-3663180D01*
X1812440Y-3867180D02*
X1812440Y-3967180D01*
X1762440Y-3917180D02*
X1862440Y-3917180D01*
X1812440Y-4121180D02*
X1812440Y-4221180D01*
X1762440Y-4171180D02*
X1862440Y-4171180D01*
X1812440Y-4375180D02*
X1812440Y-4475180D01*
X1762440Y-4425180D02*
X1862440Y-4425180D01*
X1812440Y-4629180D02*
X1812440Y-4729180D01*
X1762440Y-4679180D02*
X1862440Y-4679180D01*
X2150880Y-5703600D02*
X2150880Y-5803600D01*
X2100880Y-5753600D02*
X2200880Y-5753600D01*
X2150880Y-5957600D02*
X2150880Y-6057600D01*
X2100880Y-6007600D02*
X2200880Y-6007600D01*
X2404880Y-5703600D02*
X2404880Y-5803600D01*
X2354880Y-5753600D02*
X2454880Y-5753600D01*
X2404880Y-5957600D02*
X2404880Y-6057600D01*
X2354880Y-6007600D02*
X2454880Y-6007600D01*
D14*
X563138Y-9913138D02*
X563138Y-9686862D01*
X336862Y-9686862D01*
X336862Y-9913138D01*
X563138Y-9913138D01*
X1059771Y-6421178D02*
X1059771Y-6194902D01*
X833495Y-6194902D01*
X833495Y-6421178D01*
X1059771Y-6421178D01*
X1059771Y-8921178D02*
X1059771Y-8694902D01*
X833495Y-8694902D01*
X833495Y-8921178D01*
X1059771Y-8921178D01*
D11*
X242619Y-10417524D02*
X242619Y-10217524D01*
X242619Y-10217524D02*
X290238Y-10217524D01*
X290238Y-10217524D02*
X318810Y-10227048D01*
X318810Y-10227048D02*
X337857Y-10246095D01*
X337857Y-10246095D02*
X347381Y-10265143D01*
X347381Y-10265143D02*
X356905Y-10303238D01*
X356905Y-10303238D02*
X356905Y-10331810D01*
X356905Y-10331810D02*
X347381Y-10369905D01*
X347381Y-10369905D02*
X337857Y-10388952D01*
X337857Y-10388952D02*
X318810Y-10408000D01*
X318810Y-10408000D02*
X290238Y-10417524D01*
X290238Y-10417524D02*
X242619Y-10417524D01*
X442619Y-10417524D02*
X442619Y-10284190D01*
X442619Y-10322286D02*
X452143Y-10303238D01*
X452143Y-10303238D02*
X461667Y-10293714D01*
X461667Y-10293714D02*
X480714Y-10284190D01*
X480714Y-10284190D02*
X499762Y-10284190D01*
X566429Y-10417524D02*
X566429Y-10284190D01*
X566429Y-10217524D02*
X556905Y-10227048D01*
X556905Y-10227048D02*
X566429Y-10236571D01*
X566429Y-10236571D02*
X575952Y-10227048D01*
X575952Y-10227048D02*
X566429Y-10217524D01*
X566429Y-10217524D02*
X566429Y-10236571D01*
X690238Y-10417524D02*
X671190Y-10408000D01*
X671190Y-10408000D02*
X661667Y-10388952D01*
X661667Y-10388952D02*
X661667Y-10217524D01*
X795000Y-10417524D02*
X775952Y-10408000D01*
X775952Y-10408000D02*
X766428Y-10388952D01*
X766428Y-10388952D02*
X766428Y-10217524D01*
X1023571Y-10417524D02*
X1023571Y-10217524D01*
X1023571Y-10217524D02*
X1090238Y-10360381D01*
X1090238Y-10360381D02*
X1156905Y-10217524D01*
X1156905Y-10217524D02*
X1156905Y-10417524D01*
X1337857Y-10417524D02*
X1337857Y-10312762D01*
X1337857Y-10312762D02*
X1328333Y-10293714D01*
X1328333Y-10293714D02*
X1309286Y-10284190D01*
X1309286Y-10284190D02*
X1271190Y-10284190D01*
X1271190Y-10284190D02*
X1252143Y-10293714D01*
X1337857Y-10408000D02*
X1318810Y-10417524D01*
X1318810Y-10417524D02*
X1271190Y-10417524D01*
X1271190Y-10417524D02*
X1252143Y-10408000D01*
X1252143Y-10408000D02*
X1242619Y-10388952D01*
X1242619Y-10388952D02*
X1242619Y-10369905D01*
X1242619Y-10369905D02*
X1252143Y-10350857D01*
X1252143Y-10350857D02*
X1271190Y-10341333D01*
X1271190Y-10341333D02*
X1318810Y-10341333D01*
X1318810Y-10341333D02*
X1337857Y-10331810D01*
X1433095Y-10284190D02*
X1433095Y-10484190D01*
X1433095Y-10293714D02*
X1452143Y-10284190D01*
X1452143Y-10284190D02*
X1490238Y-10284190D01*
X1490238Y-10284190D02*
X1509286Y-10293714D01*
X1509286Y-10293714D02*
X1518809Y-10303238D01*
X1518809Y-10303238D02*
X1528333Y-10322286D01*
X1528333Y-10322286D02*
X1528333Y-10379429D01*
X1528333Y-10379429D02*
X1518809Y-10398476D01*
X1518809Y-10398476D02*
X1509286Y-10408000D01*
X1509286Y-10408000D02*
X1490238Y-10417524D01*
X1490238Y-10417524D02*
X1452143Y-10417524D01*
X1452143Y-10417524D02*
X1433095Y-10408000D01*
X1614048Y-10398476D02*
X1623571Y-10408000D01*
X1623571Y-10408000D02*
X1614048Y-10417524D01*
X1614048Y-10417524D02*
X1604524Y-10408000D01*
X1604524Y-10408000D02*
X1614048Y-10398476D01*
X1614048Y-10398476D02*
X1614048Y-10417524D01*
X1614048Y-10293714D02*
X1623571Y-10303238D01*
X1623571Y-10303238D02*
X1614048Y-10312762D01*
X1614048Y-10312762D02*
X1604524Y-10303238D01*
X1604524Y-10303238D02*
X1614048Y-10293714D01*
X1614048Y-10293714D02*
X1614048Y-10312762D01*
D12*
X-45000Y-10725000D02*
X-5000Y-10765000D01*
X-5000Y-10725000D02*
X-45000Y-10765000D01*
D11*
X280714Y-10637524D02*
X299762Y-10637524D01*
X299762Y-10637524D02*
X318810Y-10647048D01*
X318810Y-10647048D02*
X328333Y-10656571D01*
X328333Y-10656571D02*
X337857Y-10675619D01*
X337857Y-10675619D02*
X347381Y-10713714D01*
X347381Y-10713714D02*
X347381Y-10761333D01*
X347381Y-10761333D02*
X337857Y-10799429D01*
X337857Y-10799429D02*
X328333Y-10818476D01*
X328333Y-10818476D02*
X318810Y-10828000D01*
X318810Y-10828000D02*
X299762Y-10837524D01*
X299762Y-10837524D02*
X280714Y-10837524D01*
X280714Y-10837524D02*
X261667Y-10828000D01*
X261667Y-10828000D02*
X252143Y-10818476D01*
X252143Y-10818476D02*
X242619Y-10799429D01*
X242619Y-10799429D02*
X233095Y-10761333D01*
X233095Y-10761333D02*
X233095Y-10713714D01*
X233095Y-10713714D02*
X242619Y-10675619D01*
X242619Y-10675619D02*
X252143Y-10656571D01*
X252143Y-10656571D02*
X261667Y-10647048D01*
X261667Y-10647048D02*
X280714Y-10637524D01*
X433095Y-10818476D02*
X442619Y-10828000D01*
X442619Y-10828000D02*
X433095Y-10837524D01*
X433095Y-10837524D02*
X423571Y-10828000D01*
X423571Y-10828000D02*
X433095Y-10818476D01*
X433095Y-10818476D02*
X433095Y-10837524D01*
X614048Y-10704190D02*
X614048Y-10837524D01*
X566429Y-10628000D02*
X518809Y-10770857D01*
X518809Y-10770857D02*
X642619Y-10770857D01*
X756905Y-10637524D02*
X775952Y-10637524D01*
X775952Y-10637524D02*
X795000Y-10647048D01*
X795000Y-10647048D02*
X804524Y-10656571D01*
X804524Y-10656571D02*
X814048Y-10675619D01*
X814048Y-10675619D02*
X823571Y-10713714D01*
X823571Y-10713714D02*
X823571Y-10761333D01*
X823571Y-10761333D02*
X814048Y-10799429D01*
X814048Y-10799429D02*
X804524Y-10818476D01*
X804524Y-10818476D02*
X795000Y-10828000D01*
X795000Y-10828000D02*
X775952Y-10837524D01*
X775952Y-10837524D02*
X756905Y-10837524D01*
X756905Y-10837524D02*
X737857Y-10828000D01*
X737857Y-10828000D02*
X728333Y-10818476D01*
X728333Y-10818476D02*
X718809Y-10799429D01*
X718809Y-10799429D02*
X709286Y-10761333D01*
X709286Y-10761333D02*
X709286Y-10713714D01*
X709286Y-10713714D02*
X718809Y-10675619D01*
X718809Y-10675619D02*
X728333Y-10656571D01*
X728333Y-10656571D02*
X737857Y-10647048D01*
X737857Y-10647048D02*
X756905Y-10637524D01*
X947381Y-10637524D02*
X966429Y-10637524D01*
X966429Y-10637524D02*
X985476Y-10647048D01*
X985476Y-10647048D02*
X995000Y-10656571D01*
X995000Y-10656571D02*
X1004524Y-10675619D01*
X1004524Y-10675619D02*
X1014048Y-10713714D01*
X1014048Y-10713714D02*
X1014048Y-10761333D01*
X1014048Y-10761333D02*
X1004524Y-10799429D01*
X1004524Y-10799429D02*
X995000Y-10818476D01*
X995000Y-10818476D02*
X985476Y-10828000D01*
X985476Y-10828000D02*
X966429Y-10837524D01*
X966429Y-10837524D02*
X947381Y-10837524D01*
X947381Y-10837524D02*
X928333Y-10828000D01*
X928333Y-10828000D02*
X918809Y-10818476D01*
X918809Y-10818476D02*
X909286Y-10799429D01*
X909286Y-10799429D02*
X899762Y-10761333D01*
X899762Y-10761333D02*
X899762Y-10713714D01*
X899762Y-10713714D02*
X909286Y-10675619D01*
X909286Y-10675619D02*
X918809Y-10656571D01*
X918809Y-10656571D02*
X928333Y-10647048D01*
X928333Y-10647048D02*
X947381Y-10637524D01*
X1099762Y-10837524D02*
X1099762Y-10704190D01*
X1099762Y-10723238D02*
X1109286Y-10713714D01*
X1109286Y-10713714D02*
X1128333Y-10704190D01*
X1128333Y-10704190D02*
X1156905Y-10704190D01*
X1156905Y-10704190D02*
X1175952Y-10713714D01*
X1175952Y-10713714D02*
X1185476Y-10732762D01*
X1185476Y-10732762D02*
X1185476Y-10837524D01*
X1185476Y-10732762D02*
X1195000Y-10713714D01*
X1195000Y-10713714D02*
X1214048Y-10704190D01*
X1214048Y-10704190D02*
X1242619Y-10704190D01*
X1242619Y-10704190D02*
X1261667Y-10713714D01*
X1261667Y-10713714D02*
X1271191Y-10732762D01*
X1271191Y-10732762D02*
X1271191Y-10837524D01*
X1366429Y-10837524D02*
X1366429Y-10704190D01*
X1366429Y-10723238D02*
X1375952Y-10713714D01*
X1375952Y-10713714D02*
X1395000Y-10704190D01*
X1395000Y-10704190D02*
X1423571Y-10704190D01*
X1423571Y-10704190D02*
X1442619Y-10713714D01*
X1442619Y-10713714D02*
X1452143Y-10732762D01*
X1452143Y-10732762D02*
X1452143Y-10837524D01*
X1452143Y-10732762D02*
X1461667Y-10713714D01*
X1461667Y-10713714D02*
X1480714Y-10704190D01*
X1480714Y-10704190D02*
X1509286Y-10704190D01*
X1509286Y-10704190D02*
X1528333Y-10713714D01*
X1528333Y-10713714D02*
X1537857Y-10732762D01*
X1537857Y-10732762D02*
X1537857Y-10837524D01*
X1928333Y-10628000D02*
X1756905Y-10885143D01*
X2185476Y-10637524D02*
X2204524Y-10637524D01*
X2204524Y-10637524D02*
X2223572Y-10647048D01*
X2223572Y-10647048D02*
X2233095Y-10656571D01*
X2233095Y-10656571D02*
X2242619Y-10675619D01*
X2242619Y-10675619D02*
X2252143Y-10713714D01*
X2252143Y-10713714D02*
X2252143Y-10761333D01*
X2252143Y-10761333D02*
X2242619Y-10799429D01*
X2242619Y-10799429D02*
X2233095Y-10818476D01*
X2233095Y-10818476D02*
X2223572Y-10828000D01*
X2223572Y-10828000D02*
X2204524Y-10837524D01*
X2204524Y-10837524D02*
X2185476Y-10837524D01*
X2185476Y-10837524D02*
X2166429Y-10828000D01*
X2166429Y-10828000D02*
X2156905Y-10818476D01*
X2156905Y-10818476D02*
X2147381Y-10799429D01*
X2147381Y-10799429D02*
X2137857Y-10761333D01*
X2137857Y-10761333D02*
X2137857Y-10713714D01*
X2137857Y-10713714D02*
X2147381Y-10675619D01*
X2147381Y-10675619D02*
X2156905Y-10656571D01*
X2156905Y-10656571D02*
X2166429Y-10647048D01*
X2166429Y-10647048D02*
X2185476Y-10637524D01*
X2337857Y-10818476D02*
X2347381Y-10828000D01*
X2347381Y-10828000D02*
X2337857Y-10837524D01*
X2337857Y-10837524D02*
X2328334Y-10828000D01*
X2328334Y-10828000D02*
X2337857Y-10818476D01*
X2337857Y-10818476D02*
X2337857Y-10837524D01*
X2471191Y-10637524D02*
X2490238Y-10637524D01*
X2490238Y-10637524D02*
X2509286Y-10647048D01*
X2509286Y-10647048D02*
X2518810Y-10656571D01*
X2518810Y-10656571D02*
X2528334Y-10675619D01*
X2528334Y-10675619D02*
X2537857Y-10713714D01*
X2537857Y-10713714D02*
X2537857Y-10761333D01*
X2537857Y-10761333D02*
X2528334Y-10799429D01*
X2528334Y-10799429D02*
X2518810Y-10818476D01*
X2518810Y-10818476D02*
X2509286Y-10828000D01*
X2509286Y-10828000D02*
X2490238Y-10837524D01*
X2490238Y-10837524D02*
X2471191Y-10837524D01*
X2471191Y-10837524D02*
X2452143Y-10828000D01*
X2452143Y-10828000D02*
X2442619Y-10818476D01*
X2442619Y-10818476D02*
X2433095Y-10799429D01*
X2433095Y-10799429D02*
X2423572Y-10761333D01*
X2423572Y-10761333D02*
X2423572Y-10713714D01*
X2423572Y-10713714D02*
X2433095Y-10675619D01*
X2433095Y-10675619D02*
X2442619Y-10656571D01*
X2442619Y-10656571D02*
X2452143Y-10647048D01*
X2452143Y-10647048D02*
X2471191Y-10637524D01*
X2728334Y-10837524D02*
X2614048Y-10837524D01*
X2671191Y-10837524D02*
X2671191Y-10637524D01*
X2671191Y-10637524D02*
X2652143Y-10666095D01*
X2652143Y-10666095D02*
X2633095Y-10685143D01*
X2633095Y-10685143D02*
X2614048Y-10694667D01*
X2909286Y-10637524D02*
X2814048Y-10637524D01*
X2814048Y-10637524D02*
X2804524Y-10732762D01*
X2804524Y-10732762D02*
X2814048Y-10723238D01*
X2814048Y-10723238D02*
X2833095Y-10713714D01*
X2833095Y-10713714D02*
X2880714Y-10713714D01*
X2880714Y-10713714D02*
X2899762Y-10723238D01*
X2899762Y-10723238D02*
X2909286Y-10732762D01*
X2909286Y-10732762D02*
X2918810Y-10751810D01*
X2918810Y-10751810D02*
X2918810Y-10799429D01*
X2918810Y-10799429D02*
X2909286Y-10818476D01*
X2909286Y-10818476D02*
X2899762Y-10828000D01*
X2899762Y-10828000D02*
X2880714Y-10837524D01*
X2880714Y-10837524D02*
X2833095Y-10837524D01*
X2833095Y-10837524D02*
X2814048Y-10828000D01*
X2814048Y-10828000D02*
X2804524Y-10818476D01*
X2985476Y-10637524D02*
X3118810Y-10637524D01*
X3118810Y-10637524D02*
X3033095Y-10837524D01*
X3185476Y-10637524D02*
X3185476Y-10675619D01*
X3261667Y-10637524D02*
X3261667Y-10675619D01*
X3556905Y-10913714D02*
X3547381Y-10904190D01*
X3547381Y-10904190D02*
X3528334Y-10875619D01*
X3528334Y-10875619D02*
X3518810Y-10856571D01*
X3518810Y-10856571D02*
X3509286Y-10828000D01*
X3509286Y-10828000D02*
X3499762Y-10780381D01*
X3499762Y-10780381D02*
X3499762Y-10742286D01*
X3499762Y-10742286D02*
X3509286Y-10694667D01*
X3509286Y-10694667D02*
X3518810Y-10666095D01*
X3518810Y-10666095D02*
X3528334Y-10647048D01*
X3528334Y-10647048D02*
X3547381Y-10618476D01*
X3547381Y-10618476D02*
X3556905Y-10608952D01*
X3614048Y-10637524D02*
X3737857Y-10637524D01*
X3737857Y-10637524D02*
X3671191Y-10713714D01*
X3671191Y-10713714D02*
X3699762Y-10713714D01*
X3699762Y-10713714D02*
X3718810Y-10723238D01*
X3718810Y-10723238D02*
X3728334Y-10732762D01*
X3728334Y-10732762D02*
X3737857Y-10751810D01*
X3737857Y-10751810D02*
X3737857Y-10799429D01*
X3737857Y-10799429D02*
X3728334Y-10818476D01*
X3728334Y-10818476D02*
X3718810Y-10828000D01*
X3718810Y-10828000D02*
X3699762Y-10837524D01*
X3699762Y-10837524D02*
X3642619Y-10837524D01*
X3642619Y-10837524D02*
X3623572Y-10828000D01*
X3623572Y-10828000D02*
X3614048Y-10818476D01*
X3909286Y-10637524D02*
X3871191Y-10637524D01*
X3871191Y-10637524D02*
X3852143Y-10647048D01*
X3852143Y-10647048D02*
X3842619Y-10656571D01*
X3842619Y-10656571D02*
X3823572Y-10685143D01*
X3823572Y-10685143D02*
X3814048Y-10723238D01*
X3814048Y-10723238D02*
X3814048Y-10799429D01*
X3814048Y-10799429D02*
X3823572Y-10818476D01*
X3823572Y-10818476D02*
X3833095Y-10828000D01*
X3833095Y-10828000D02*
X3852143Y-10837524D01*
X3852143Y-10837524D02*
X3890238Y-10837524D01*
X3890238Y-10837524D02*
X3909286Y-10828000D01*
X3909286Y-10828000D02*
X3918810Y-10818476D01*
X3918810Y-10818476D02*
X3928334Y-10799429D01*
X3928334Y-10799429D02*
X3928334Y-10751810D01*
X3928334Y-10751810D02*
X3918810Y-10732762D01*
X3918810Y-10732762D02*
X3909286Y-10723238D01*
X3909286Y-10723238D02*
X3890238Y-10713714D01*
X3890238Y-10713714D02*
X3852143Y-10713714D01*
X3852143Y-10713714D02*
X3833095Y-10723238D01*
X3833095Y-10723238D02*
X3823572Y-10732762D01*
X3823572Y-10732762D02*
X3814048Y-10751810D01*
X4166429Y-10837524D02*
X4166429Y-10637524D01*
X4252143Y-10837524D02*
X4252143Y-10732762D01*
X4252143Y-10732762D02*
X4242619Y-10713714D01*
X4242619Y-10713714D02*
X4223572Y-10704190D01*
X4223572Y-10704190D02*
X4195000Y-10704190D01*
X4195000Y-10704190D02*
X4175953Y-10713714D01*
X4175953Y-10713714D02*
X4166429Y-10723238D01*
X4375953Y-10837524D02*
X4356905Y-10828000D01*
X4356905Y-10828000D02*
X4347381Y-10818476D01*
X4347381Y-10818476D02*
X4337858Y-10799429D01*
X4337858Y-10799429D02*
X4337858Y-10742286D01*
X4337858Y-10742286D02*
X4347381Y-10723238D01*
X4347381Y-10723238D02*
X4356905Y-10713714D01*
X4356905Y-10713714D02*
X4375953Y-10704190D01*
X4375953Y-10704190D02*
X4404524Y-10704190D01*
X4404524Y-10704190D02*
X4423572Y-10713714D01*
X4423572Y-10713714D02*
X4433096Y-10723238D01*
X4433096Y-10723238D02*
X4442619Y-10742286D01*
X4442619Y-10742286D02*
X4442619Y-10799429D01*
X4442619Y-10799429D02*
X4433096Y-10818476D01*
X4433096Y-10818476D02*
X4423572Y-10828000D01*
X4423572Y-10828000D02*
X4404524Y-10837524D01*
X4404524Y-10837524D02*
X4375953Y-10837524D01*
X4556905Y-10837524D02*
X4537858Y-10828000D01*
X4537858Y-10828000D02*
X4528334Y-10808952D01*
X4528334Y-10808952D02*
X4528334Y-10637524D01*
X4709286Y-10828000D02*
X4690239Y-10837524D01*
X4690239Y-10837524D02*
X4652143Y-10837524D01*
X4652143Y-10837524D02*
X4633096Y-10828000D01*
X4633096Y-10828000D02*
X4623572Y-10808952D01*
X4623572Y-10808952D02*
X4623572Y-10732762D01*
X4623572Y-10732762D02*
X4633096Y-10713714D01*
X4633096Y-10713714D02*
X4652143Y-10704190D01*
X4652143Y-10704190D02*
X4690239Y-10704190D01*
X4690239Y-10704190D02*
X4709286Y-10713714D01*
X4709286Y-10713714D02*
X4718810Y-10732762D01*
X4718810Y-10732762D02*
X4718810Y-10751810D01*
X4718810Y-10751810D02*
X4623572Y-10770857D01*
X4795000Y-10828000D02*
X4814048Y-10837524D01*
X4814048Y-10837524D02*
X4852143Y-10837524D01*
X4852143Y-10837524D02*
X4871191Y-10828000D01*
X4871191Y-10828000D02*
X4880715Y-10808952D01*
X4880715Y-10808952D02*
X4880715Y-10799429D01*
X4880715Y-10799429D02*
X4871191Y-10780381D01*
X4871191Y-10780381D02*
X4852143Y-10770857D01*
X4852143Y-10770857D02*
X4823572Y-10770857D01*
X4823572Y-10770857D02*
X4804524Y-10761333D01*
X4804524Y-10761333D02*
X4795000Y-10742286D01*
X4795000Y-10742286D02*
X4795000Y-10732762D01*
X4795000Y-10732762D02*
X4804524Y-10713714D01*
X4804524Y-10713714D02*
X4823572Y-10704190D01*
X4823572Y-10704190D02*
X4852143Y-10704190D01*
X4852143Y-10704190D02*
X4871191Y-10713714D01*
X4947381Y-10913714D02*
X4956905Y-10904190D01*
X4956905Y-10904190D02*
X4975953Y-10875619D01*
X4975953Y-10875619D02*
X4985477Y-10856571D01*
X4985477Y-10856571D02*
X4995000Y-10828000D01*
X4995000Y-10828000D02*
X5004524Y-10780381D01*
X5004524Y-10780381D02*
X5004524Y-10742286D01*
X5004524Y-10742286D02*
X4995000Y-10694667D01*
X4995000Y-10694667D02*
X4985477Y-10666095D01*
X4985477Y-10666095D02*
X4975953Y-10647048D01*
X4975953Y-10647048D02*
X4956905Y-10618476D01*
X4956905Y-10618476D02*
X4947381Y-10608952D01*
D13*
X-5000Y-11009000D02*
G75*
G03*
X-5000Y-11009000I-40000J0D01*
G01*
D11*
X280714Y-10901524D02*
X299762Y-10901524D01*
X299762Y-10901524D02*
X318810Y-10911048D01*
X318810Y-10911048D02*
X328333Y-10920571D01*
X328333Y-10920571D02*
X337857Y-10939619D01*
X337857Y-10939619D02*
X347381Y-10977714D01*
X347381Y-10977714D02*
X347381Y-11025333D01*
X347381Y-11025333D02*
X337857Y-11063429D01*
X337857Y-11063429D02*
X328333Y-11082476D01*
X328333Y-11082476D02*
X318810Y-11092000D01*
X318810Y-11092000D02*
X299762Y-11101524D01*
X299762Y-11101524D02*
X280714Y-11101524D01*
X280714Y-11101524D02*
X261667Y-11092000D01*
X261667Y-11092000D02*
X252143Y-11082476D01*
X252143Y-11082476D02*
X242619Y-11063429D01*
X242619Y-11063429D02*
X233095Y-11025333D01*
X233095Y-11025333D02*
X233095Y-10977714D01*
X233095Y-10977714D02*
X242619Y-10939619D01*
X242619Y-10939619D02*
X252143Y-10920571D01*
X252143Y-10920571D02*
X261667Y-10911048D01*
X261667Y-10911048D02*
X280714Y-10901524D01*
X433095Y-11082476D02*
X442619Y-11092000D01*
X442619Y-11092000D02*
X433095Y-11101524D01*
X433095Y-11101524D02*
X423571Y-11092000D01*
X423571Y-11092000D02*
X433095Y-11082476D01*
X433095Y-11082476D02*
X433095Y-11101524D01*
X556905Y-10987238D02*
X537857Y-10977714D01*
X537857Y-10977714D02*
X528333Y-10968190D01*
X528333Y-10968190D02*
X518809Y-10949143D01*
X518809Y-10949143D02*
X518809Y-10939619D01*
X518809Y-10939619D02*
X528333Y-10920571D01*
X528333Y-10920571D02*
X537857Y-10911048D01*
X537857Y-10911048D02*
X556905Y-10901524D01*
X556905Y-10901524D02*
X595000Y-10901524D01*
X595000Y-10901524D02*
X614048Y-10911048D01*
X614048Y-10911048D02*
X623571Y-10920571D01*
X623571Y-10920571D02*
X633095Y-10939619D01*
X633095Y-10939619D02*
X633095Y-10949143D01*
X633095Y-10949143D02*
X623571Y-10968190D01*
X623571Y-10968190D02*
X614048Y-10977714D01*
X614048Y-10977714D02*
X595000Y-10987238D01*
X595000Y-10987238D02*
X556905Y-10987238D01*
X556905Y-10987238D02*
X537857Y-10996762D01*
X537857Y-10996762D02*
X528333Y-11006286D01*
X528333Y-11006286D02*
X518809Y-11025333D01*
X518809Y-11025333D02*
X518809Y-11063429D01*
X518809Y-11063429D02*
X528333Y-11082476D01*
X528333Y-11082476D02*
X537857Y-11092000D01*
X537857Y-11092000D02*
X556905Y-11101524D01*
X556905Y-11101524D02*
X595000Y-11101524D01*
X595000Y-11101524D02*
X614048Y-11092000D01*
X614048Y-11092000D02*
X623571Y-11082476D01*
X623571Y-11082476D02*
X633095Y-11063429D01*
X633095Y-11063429D02*
X633095Y-11025333D01*
X633095Y-11025333D02*
X623571Y-11006286D01*
X623571Y-11006286D02*
X614048Y-10996762D01*
X614048Y-10996762D02*
X595000Y-10987238D01*
X756905Y-10901524D02*
X775952Y-10901524D01*
X775952Y-10901524D02*
X795000Y-10911048D01*
X795000Y-10911048D02*
X804524Y-10920571D01*
X804524Y-10920571D02*
X814048Y-10939619D01*
X814048Y-10939619D02*
X823571Y-10977714D01*
X823571Y-10977714D02*
X823571Y-11025333D01*
X823571Y-11025333D02*
X814048Y-11063429D01*
X814048Y-11063429D02*
X804524Y-11082476D01*
X804524Y-11082476D02*
X795000Y-11092000D01*
X795000Y-11092000D02*
X775952Y-11101524D01*
X775952Y-11101524D02*
X756905Y-11101524D01*
X756905Y-11101524D02*
X737857Y-11092000D01*
X737857Y-11092000D02*
X728333Y-11082476D01*
X728333Y-11082476D02*
X718809Y-11063429D01*
X718809Y-11063429D02*
X709286Y-11025333D01*
X709286Y-11025333D02*
X709286Y-10977714D01*
X709286Y-10977714D02*
X718809Y-10939619D01*
X718809Y-10939619D02*
X728333Y-10920571D01*
X728333Y-10920571D02*
X737857Y-10911048D01*
X737857Y-10911048D02*
X756905Y-10901524D01*
X947381Y-10901524D02*
X966429Y-10901524D01*
X966429Y-10901524D02*
X985476Y-10911048D01*
X985476Y-10911048D02*
X995000Y-10920571D01*
X995000Y-10920571D02*
X1004524Y-10939619D01*
X1004524Y-10939619D02*
X1014048Y-10977714D01*
X1014048Y-10977714D02*
X1014048Y-11025333D01*
X1014048Y-11025333D02*
X1004524Y-11063429D01*
X1004524Y-11063429D02*
X995000Y-11082476D01*
X995000Y-11082476D02*
X985476Y-11092000D01*
X985476Y-11092000D02*
X966429Y-11101524D01*
X966429Y-11101524D02*
X947381Y-11101524D01*
X947381Y-11101524D02*
X928333Y-11092000D01*
X928333Y-11092000D02*
X918809Y-11082476D01*
X918809Y-11082476D02*
X909286Y-11063429D01*
X909286Y-11063429D02*
X899762Y-11025333D01*
X899762Y-11025333D02*
X899762Y-10977714D01*
X899762Y-10977714D02*
X909286Y-10939619D01*
X909286Y-10939619D02*
X918809Y-10920571D01*
X918809Y-10920571D02*
X928333Y-10911048D01*
X928333Y-10911048D02*
X947381Y-10901524D01*
X1099762Y-11101524D02*
X1099762Y-10968190D01*
X1099762Y-10987238D02*
X1109286Y-10977714D01*
X1109286Y-10977714D02*
X1128333Y-10968190D01*
X1128333Y-10968190D02*
X1156905Y-10968190D01*
X1156905Y-10968190D02*
X1175952Y-10977714D01*
X1175952Y-10977714D02*
X1185476Y-10996762D01*
X1185476Y-10996762D02*
X1185476Y-11101524D01*
X1185476Y-10996762D02*
X1195000Y-10977714D01*
X1195000Y-10977714D02*
X1214048Y-10968190D01*
X1214048Y-10968190D02*
X1242619Y-10968190D01*
X1242619Y-10968190D02*
X1261667Y-10977714D01*
X1261667Y-10977714D02*
X1271191Y-10996762D01*
X1271191Y-10996762D02*
X1271191Y-11101524D01*
X1366429Y-11101524D02*
X1366429Y-10968190D01*
X1366429Y-10987238D02*
X1375952Y-10977714D01*
X1375952Y-10977714D02*
X1395000Y-10968190D01*
X1395000Y-10968190D02*
X1423571Y-10968190D01*
X1423571Y-10968190D02*
X1442619Y-10977714D01*
X1442619Y-10977714D02*
X1452143Y-10996762D01*
X1452143Y-10996762D02*
X1452143Y-11101524D01*
X1452143Y-10996762D02*
X1461667Y-10977714D01*
X1461667Y-10977714D02*
X1480714Y-10968190D01*
X1480714Y-10968190D02*
X1509286Y-10968190D01*
X1509286Y-10968190D02*
X1528333Y-10977714D01*
X1528333Y-10977714D02*
X1537857Y-10996762D01*
X1537857Y-10996762D02*
X1537857Y-11101524D01*
X1928333Y-10892000D02*
X1756905Y-11149143D01*
X2185476Y-10901524D02*
X2204524Y-10901524D01*
X2204524Y-10901524D02*
X2223572Y-10911048D01*
X2223572Y-10911048D02*
X2233095Y-10920571D01*
X2233095Y-10920571D02*
X2242619Y-10939619D01*
X2242619Y-10939619D02*
X2252143Y-10977714D01*
X2252143Y-10977714D02*
X2252143Y-11025333D01*
X2252143Y-11025333D02*
X2242619Y-11063429D01*
X2242619Y-11063429D02*
X2233095Y-11082476D01*
X2233095Y-11082476D02*
X2223572Y-11092000D01*
X2223572Y-11092000D02*
X2204524Y-11101524D01*
X2204524Y-11101524D02*
X2185476Y-11101524D01*
X2185476Y-11101524D02*
X2166429Y-11092000D01*
X2166429Y-11092000D02*
X2156905Y-11082476D01*
X2156905Y-11082476D02*
X2147381Y-11063429D01*
X2147381Y-11063429D02*
X2137857Y-11025333D01*
X2137857Y-11025333D02*
X2137857Y-10977714D01*
X2137857Y-10977714D02*
X2147381Y-10939619D01*
X2147381Y-10939619D02*
X2156905Y-10920571D01*
X2156905Y-10920571D02*
X2166429Y-10911048D01*
X2166429Y-10911048D02*
X2185476Y-10901524D01*
X2337857Y-11082476D02*
X2347381Y-11092000D01*
X2347381Y-11092000D02*
X2337857Y-11101524D01*
X2337857Y-11101524D02*
X2328334Y-11092000D01*
X2328334Y-11092000D02*
X2337857Y-11082476D01*
X2337857Y-11082476D02*
X2337857Y-11101524D01*
X2471191Y-10901524D02*
X2490238Y-10901524D01*
X2490238Y-10901524D02*
X2509286Y-10911048D01*
X2509286Y-10911048D02*
X2518810Y-10920571D01*
X2518810Y-10920571D02*
X2528334Y-10939619D01*
X2528334Y-10939619D02*
X2537857Y-10977714D01*
X2537857Y-10977714D02*
X2537857Y-11025333D01*
X2537857Y-11025333D02*
X2528334Y-11063429D01*
X2528334Y-11063429D02*
X2518810Y-11082476D01*
X2518810Y-11082476D02*
X2509286Y-11092000D01*
X2509286Y-11092000D02*
X2490238Y-11101524D01*
X2490238Y-11101524D02*
X2471191Y-11101524D01*
X2471191Y-11101524D02*
X2452143Y-11092000D01*
X2452143Y-11092000D02*
X2442619Y-11082476D01*
X2442619Y-11082476D02*
X2433095Y-11063429D01*
X2433095Y-11063429D02*
X2423572Y-11025333D01*
X2423572Y-11025333D02*
X2423572Y-10977714D01*
X2423572Y-10977714D02*
X2433095Y-10939619D01*
X2433095Y-10939619D02*
X2442619Y-10920571D01*
X2442619Y-10920571D02*
X2452143Y-10911048D01*
X2452143Y-10911048D02*
X2471191Y-10901524D01*
X2604524Y-10901524D02*
X2728334Y-10901524D01*
X2728334Y-10901524D02*
X2661667Y-10977714D01*
X2661667Y-10977714D02*
X2690238Y-10977714D01*
X2690238Y-10977714D02*
X2709286Y-10987238D01*
X2709286Y-10987238D02*
X2718810Y-10996762D01*
X2718810Y-10996762D02*
X2728334Y-11015810D01*
X2728334Y-11015810D02*
X2728334Y-11063429D01*
X2728334Y-11063429D02*
X2718810Y-11082476D01*
X2718810Y-11082476D02*
X2709286Y-11092000D01*
X2709286Y-11092000D02*
X2690238Y-11101524D01*
X2690238Y-11101524D02*
X2633095Y-11101524D01*
X2633095Y-11101524D02*
X2614048Y-11092000D01*
X2614048Y-11092000D02*
X2604524Y-11082476D01*
X2918810Y-11101524D02*
X2804524Y-11101524D01*
X2861667Y-11101524D02*
X2861667Y-10901524D01*
X2861667Y-10901524D02*
X2842619Y-10930095D01*
X2842619Y-10930095D02*
X2823572Y-10949143D01*
X2823572Y-10949143D02*
X2804524Y-10958667D01*
X3099762Y-10901524D02*
X3004524Y-10901524D01*
X3004524Y-10901524D02*
X2995000Y-10996762D01*
X2995000Y-10996762D02*
X3004524Y-10987238D01*
X3004524Y-10987238D02*
X3023572Y-10977714D01*
X3023572Y-10977714D02*
X3071191Y-10977714D01*
X3071191Y-10977714D02*
X3090238Y-10987238D01*
X3090238Y-10987238D02*
X3099762Y-10996762D01*
X3099762Y-10996762D02*
X3109286Y-11015810D01*
X3109286Y-11015810D02*
X3109286Y-11063429D01*
X3109286Y-11063429D02*
X3099762Y-11082476D01*
X3099762Y-11082476D02*
X3090238Y-11092000D01*
X3090238Y-11092000D02*
X3071191Y-11101524D01*
X3071191Y-11101524D02*
X3023572Y-11101524D01*
X3023572Y-11101524D02*
X3004524Y-11092000D01*
X3004524Y-11092000D02*
X2995000Y-11082476D01*
X3185476Y-10901524D02*
X3185476Y-10939619D01*
X3261667Y-10901524D02*
X3261667Y-10939619D01*
X3556905Y-11177714D02*
X3547381Y-11168190D01*
X3547381Y-11168190D02*
X3528334Y-11139619D01*
X3528334Y-11139619D02*
X3518810Y-11120571D01*
X3518810Y-11120571D02*
X3509286Y-11092000D01*
X3509286Y-11092000D02*
X3499762Y-11044381D01*
X3499762Y-11044381D02*
X3499762Y-11006286D01*
X3499762Y-11006286D02*
X3509286Y-10958667D01*
X3509286Y-10958667D02*
X3518810Y-10930095D01*
X3518810Y-10930095D02*
X3528334Y-10911048D01*
X3528334Y-10911048D02*
X3547381Y-10882476D01*
X3547381Y-10882476D02*
X3556905Y-10872952D01*
X3718810Y-10968190D02*
X3718810Y-11101524D01*
X3671191Y-10892000D02*
X3623572Y-11034857D01*
X3623572Y-11034857D02*
X3747381Y-11034857D01*
X3975953Y-11101524D02*
X3975953Y-10901524D01*
X4061667Y-11101524D02*
X4061667Y-10996762D01*
X4061667Y-10996762D02*
X4052143Y-10977714D01*
X4052143Y-10977714D02*
X4033096Y-10968190D01*
X4033096Y-10968190D02*
X4004524Y-10968190D01*
X4004524Y-10968190D02*
X3985476Y-10977714D01*
X3985476Y-10977714D02*
X3975953Y-10987238D01*
X4185476Y-11101524D02*
X4166429Y-11092000D01*
X4166429Y-11092000D02*
X4156905Y-11082476D01*
X4156905Y-11082476D02*
X4147381Y-11063429D01*
X4147381Y-11063429D02*
X4147381Y-11006286D01*
X4147381Y-11006286D02*
X4156905Y-10987238D01*
X4156905Y-10987238D02*
X4166429Y-10977714D01*
X4166429Y-10977714D02*
X4185476Y-10968190D01*
X4185476Y-10968190D02*
X4214048Y-10968190D01*
X4214048Y-10968190D02*
X4233096Y-10977714D01*
X4233096Y-10977714D02*
X4242619Y-10987238D01*
X4242619Y-10987238D02*
X4252143Y-11006286D01*
X4252143Y-11006286D02*
X4252143Y-11063429D01*
X4252143Y-11063429D02*
X4242619Y-11082476D01*
X4242619Y-11082476D02*
X4233096Y-11092000D01*
X4233096Y-11092000D02*
X4214048Y-11101524D01*
X4214048Y-11101524D02*
X4185476Y-11101524D01*
X4366429Y-11101524D02*
X4347381Y-11092000D01*
X4347381Y-11092000D02*
X4337858Y-11072952D01*
X4337858Y-11072952D02*
X4337858Y-10901524D01*
X4518810Y-11092000D02*
X4499762Y-11101524D01*
X4499762Y-11101524D02*
X4461667Y-11101524D01*
X4461667Y-11101524D02*
X4442619Y-11092000D01*
X4442619Y-11092000D02*
X4433096Y-11072952D01*
X4433096Y-11072952D02*
X4433096Y-10996762D01*
X4433096Y-10996762D02*
X4442619Y-10977714D01*
X4442619Y-10977714D02*
X4461667Y-10968190D01*
X4461667Y-10968190D02*
X4499762Y-10968190D01*
X4499762Y-10968190D02*
X4518810Y-10977714D01*
X4518810Y-10977714D02*
X4528334Y-10996762D01*
X4528334Y-10996762D02*
X4528334Y-11015810D01*
X4528334Y-11015810D02*
X4433096Y-11034857D01*
X4604524Y-11092000D02*
X4623572Y-11101524D01*
X4623572Y-11101524D02*
X4661667Y-11101524D01*
X4661667Y-11101524D02*
X4680715Y-11092000D01*
X4680715Y-11092000D02*
X4690239Y-11072952D01*
X4690239Y-11072952D02*
X4690239Y-11063429D01*
X4690239Y-11063429D02*
X4680715Y-11044381D01*
X4680715Y-11044381D02*
X4661667Y-11034857D01*
X4661667Y-11034857D02*
X4633096Y-11034857D01*
X4633096Y-11034857D02*
X4614048Y-11025333D01*
X4614048Y-11025333D02*
X4604524Y-11006286D01*
X4604524Y-11006286D02*
X4604524Y-10996762D01*
X4604524Y-10996762D02*
X4614048Y-10977714D01*
X4614048Y-10977714D02*
X4633096Y-10968190D01*
X4633096Y-10968190D02*
X4661667Y-10968190D01*
X4661667Y-10968190D02*
X4680715Y-10977714D01*
X4928334Y-11025333D02*
X5080715Y-11025333D01*
X5004524Y-11101524D02*
X5004524Y-10949143D01*
X5318810Y-10920571D02*
X5328334Y-10911048D01*
X5328334Y-10911048D02*
X5347381Y-10901524D01*
X5347381Y-10901524D02*
X5395001Y-10901524D01*
X5395001Y-10901524D02*
X5414048Y-10911048D01*
X5414048Y-10911048D02*
X5423572Y-10920571D01*
X5423572Y-10920571D02*
X5433096Y-10939619D01*
X5433096Y-10939619D02*
X5433096Y-10958667D01*
X5433096Y-10958667D02*
X5423572Y-10987238D01*
X5423572Y-10987238D02*
X5309286Y-11101524D01*
X5309286Y-11101524D02*
X5433096Y-11101524D01*
X5556905Y-10901524D02*
X5575953Y-10901524D01*
X5575953Y-10901524D02*
X5595000Y-10911048D01*
X5595000Y-10911048D02*
X5604524Y-10920571D01*
X5604524Y-10920571D02*
X5614048Y-10939619D01*
X5614048Y-10939619D02*
X5623572Y-10977714D01*
X5623572Y-10977714D02*
X5623572Y-11025333D01*
X5623572Y-11025333D02*
X5614048Y-11063429D01*
X5614048Y-11063429D02*
X5604524Y-11082476D01*
X5604524Y-11082476D02*
X5595000Y-11092000D01*
X5595000Y-11092000D02*
X5575953Y-11101524D01*
X5575953Y-11101524D02*
X5556905Y-11101524D01*
X5556905Y-11101524D02*
X5537858Y-11092000D01*
X5537858Y-11092000D02*
X5528334Y-11082476D01*
X5528334Y-11082476D02*
X5518810Y-11063429D01*
X5518810Y-11063429D02*
X5509286Y-11025333D01*
X5509286Y-11025333D02*
X5509286Y-10977714D01*
X5509286Y-10977714D02*
X5518810Y-10939619D01*
X5518810Y-10939619D02*
X5528334Y-10920571D01*
X5528334Y-10920571D02*
X5537858Y-10911048D01*
X5537858Y-10911048D02*
X5556905Y-10901524D01*
X5852143Y-11092000D02*
X5871191Y-11101524D01*
X5871191Y-11101524D02*
X5909286Y-11101524D01*
X5909286Y-11101524D02*
X5928334Y-11092000D01*
X5928334Y-11092000D02*
X5937858Y-11072952D01*
X5937858Y-11072952D02*
X5937858Y-11063429D01*
X5937858Y-11063429D02*
X5928334Y-11044381D01*
X5928334Y-11044381D02*
X5909286Y-11034857D01*
X5909286Y-11034857D02*
X5880715Y-11034857D01*
X5880715Y-11034857D02*
X5861667Y-11025333D01*
X5861667Y-11025333D02*
X5852143Y-11006286D01*
X5852143Y-11006286D02*
X5852143Y-10996762D01*
X5852143Y-10996762D02*
X5861667Y-10977714D01*
X5861667Y-10977714D02*
X5880715Y-10968190D01*
X5880715Y-10968190D02*
X5909286Y-10968190D01*
X5909286Y-10968190D02*
X5928334Y-10977714D01*
X6052143Y-11101524D02*
X6033096Y-11092000D01*
X6033096Y-11092000D02*
X6023572Y-11072952D01*
X6023572Y-11072952D02*
X6023572Y-10901524D01*
X6156905Y-11101524D02*
X6137858Y-11092000D01*
X6137858Y-11092000D02*
X6128334Y-11082476D01*
X6128334Y-11082476D02*
X6118810Y-11063429D01*
X6118810Y-11063429D02*
X6118810Y-11006286D01*
X6118810Y-11006286D02*
X6128334Y-10987238D01*
X6128334Y-10987238D02*
X6137858Y-10977714D01*
X6137858Y-10977714D02*
X6156905Y-10968190D01*
X6156905Y-10968190D02*
X6185477Y-10968190D01*
X6185477Y-10968190D02*
X6204524Y-10977714D01*
X6204524Y-10977714D02*
X6214048Y-10987238D01*
X6214048Y-10987238D02*
X6223572Y-11006286D01*
X6223572Y-11006286D02*
X6223572Y-11063429D01*
X6223572Y-11063429D02*
X6214048Y-11082476D01*
X6214048Y-11082476D02*
X6204524Y-11092000D01*
X6204524Y-11092000D02*
X6185477Y-11101524D01*
X6185477Y-11101524D02*
X6156905Y-11101524D01*
X6280715Y-10968190D02*
X6356905Y-10968190D01*
X6309286Y-10901524D02*
X6309286Y-11072952D01*
X6309286Y-11072952D02*
X6318810Y-11092000D01*
X6318810Y-11092000D02*
X6337858Y-11101524D01*
X6337858Y-11101524D02*
X6356905Y-11101524D01*
X6414048Y-11092000D02*
X6433096Y-11101524D01*
X6433096Y-11101524D02*
X6471191Y-11101524D01*
X6471191Y-11101524D02*
X6490239Y-11092000D01*
X6490239Y-11092000D02*
X6499762Y-11072952D01*
X6499762Y-11072952D02*
X6499762Y-11063429D01*
X6499762Y-11063429D02*
X6490239Y-11044381D01*
X6490239Y-11044381D02*
X6471191Y-11034857D01*
X6471191Y-11034857D02*
X6442620Y-11034857D01*
X6442620Y-11034857D02*
X6423572Y-11025333D01*
X6423572Y-11025333D02*
X6414048Y-11006286D01*
X6414048Y-11006286D02*
X6414048Y-10996762D01*
X6414048Y-10996762D02*
X6423572Y-10977714D01*
X6423572Y-10977714D02*
X6442620Y-10968190D01*
X6442620Y-10968190D02*
X6471191Y-10968190D01*
X6471191Y-10968190D02*
X6490239Y-10977714D01*
X6566429Y-11177714D02*
X6575953Y-11168190D01*
X6575953Y-11168190D02*
X6595001Y-11139619D01*
X6595001Y-11139619D02*
X6604524Y-11120571D01*
X6604524Y-11120571D02*
X6614048Y-11092000D01*
X6614048Y-11092000D02*
X6623572Y-11044381D01*
X6623572Y-11044381D02*
X6623572Y-11006286D01*
X6623572Y-11006286D02*
X6614048Y-10958667D01*
X6614048Y-10958667D02*
X6604524Y-10930095D01*
X6604524Y-10930095D02*
X6595001Y-10911048D01*
X6595001Y-10911048D02*
X6575953Y-10882476D01*
X6575953Y-10882476D02*
X6566429Y-10872952D01*
D10*
X-55000Y-11223000D02*
X-55000Y-11323000D01*
X-105000Y-11273000D02*
X-5000Y-11273000D01*
D11*
X347381Y-11365524D02*
X233095Y-11365524D01*
X290238Y-11365524D02*
X290238Y-11165524D01*
X290238Y-11165524D02*
X271190Y-11194095D01*
X271190Y-11194095D02*
X252143Y-11213143D01*
X252143Y-11213143D02*
X233095Y-11222667D01*
X433095Y-11346476D02*
X442619Y-11356000D01*
X442619Y-11356000D02*
X433095Y-11365524D01*
X433095Y-11365524D02*
X423571Y-11356000D01*
X423571Y-11356000D02*
X433095Y-11346476D01*
X433095Y-11346476D02*
X433095Y-11365524D01*
X566429Y-11165524D02*
X585476Y-11165524D01*
X585476Y-11165524D02*
X604524Y-11175048D01*
X604524Y-11175048D02*
X614048Y-11184571D01*
X614048Y-11184571D02*
X623571Y-11203619D01*
X623571Y-11203619D02*
X633095Y-11241714D01*
X633095Y-11241714D02*
X633095Y-11289333D01*
X633095Y-11289333D02*
X623571Y-11327428D01*
X623571Y-11327428D02*
X614048Y-11346476D01*
X614048Y-11346476D02*
X604524Y-11356000D01*
X604524Y-11356000D02*
X585476Y-11365524D01*
X585476Y-11365524D02*
X566429Y-11365524D01*
X566429Y-11365524D02*
X547381Y-11356000D01*
X547381Y-11356000D02*
X537857Y-11346476D01*
X537857Y-11346476D02*
X528333Y-11327428D01*
X528333Y-11327428D02*
X518809Y-11289333D01*
X518809Y-11289333D02*
X518809Y-11241714D01*
X518809Y-11241714D02*
X528333Y-11203619D01*
X528333Y-11203619D02*
X537857Y-11184571D01*
X537857Y-11184571D02*
X547381Y-11175048D01*
X547381Y-11175048D02*
X566429Y-11165524D01*
X756905Y-11165524D02*
X775952Y-11165524D01*
X775952Y-11165524D02*
X795000Y-11175048D01*
X795000Y-11175048D02*
X804524Y-11184571D01*
X804524Y-11184571D02*
X814048Y-11203619D01*
X814048Y-11203619D02*
X823571Y-11241714D01*
X823571Y-11241714D02*
X823571Y-11289333D01*
X823571Y-11289333D02*
X814048Y-11327428D01*
X814048Y-11327428D02*
X804524Y-11346476D01*
X804524Y-11346476D02*
X795000Y-11356000D01*
X795000Y-11356000D02*
X775952Y-11365524D01*
X775952Y-11365524D02*
X756905Y-11365524D01*
X756905Y-11365524D02*
X737857Y-11356000D01*
X737857Y-11356000D02*
X728333Y-11346476D01*
X728333Y-11346476D02*
X718809Y-11327428D01*
X718809Y-11327428D02*
X709286Y-11289333D01*
X709286Y-11289333D02*
X709286Y-11241714D01*
X709286Y-11241714D02*
X718809Y-11203619D01*
X718809Y-11203619D02*
X728333Y-11184571D01*
X728333Y-11184571D02*
X737857Y-11175048D01*
X737857Y-11175048D02*
X756905Y-11165524D01*
X947381Y-11165524D02*
X966429Y-11165524D01*
X966429Y-11165524D02*
X985476Y-11175048D01*
X985476Y-11175048D02*
X995000Y-11184571D01*
X995000Y-11184571D02*
X1004524Y-11203619D01*
X1004524Y-11203619D02*
X1014048Y-11241714D01*
X1014048Y-11241714D02*
X1014048Y-11289333D01*
X1014048Y-11289333D02*
X1004524Y-11327428D01*
X1004524Y-11327428D02*
X995000Y-11346476D01*
X995000Y-11346476D02*
X985476Y-11356000D01*
X985476Y-11356000D02*
X966429Y-11365524D01*
X966429Y-11365524D02*
X947381Y-11365524D01*
X947381Y-11365524D02*
X928333Y-11356000D01*
X928333Y-11356000D02*
X918809Y-11346476D01*
X918809Y-11346476D02*
X909286Y-11327428D01*
X909286Y-11327428D02*
X899762Y-11289333D01*
X899762Y-11289333D02*
X899762Y-11241714D01*
X899762Y-11241714D02*
X909286Y-11203619D01*
X909286Y-11203619D02*
X918809Y-11184571D01*
X918809Y-11184571D02*
X928333Y-11175048D01*
X928333Y-11175048D02*
X947381Y-11165524D01*
X1099762Y-11365524D02*
X1099762Y-11232190D01*
X1099762Y-11251238D02*
X1109286Y-11241714D01*
X1109286Y-11241714D02*
X1128333Y-11232190D01*
X1128333Y-11232190D02*
X1156905Y-11232190D01*
X1156905Y-11232190D02*
X1175952Y-11241714D01*
X1175952Y-11241714D02*
X1185476Y-11260762D01*
X1185476Y-11260762D02*
X1185476Y-11365524D01*
X1185476Y-11260762D02*
X1195000Y-11241714D01*
X1195000Y-11241714D02*
X1214048Y-11232190D01*
X1214048Y-11232190D02*
X1242619Y-11232190D01*
X1242619Y-11232190D02*
X1261667Y-11241714D01*
X1261667Y-11241714D02*
X1271191Y-11260762D01*
X1271191Y-11260762D02*
X1271191Y-11365524D01*
X1366429Y-11365524D02*
X1366429Y-11232190D01*
X1366429Y-11251238D02*
X1375952Y-11241714D01*
X1375952Y-11241714D02*
X1395000Y-11232190D01*
X1395000Y-11232190D02*
X1423571Y-11232190D01*
X1423571Y-11232190D02*
X1442619Y-11241714D01*
X1442619Y-11241714D02*
X1452143Y-11260762D01*
X1452143Y-11260762D02*
X1452143Y-11365524D01*
X1452143Y-11260762D02*
X1461667Y-11241714D01*
X1461667Y-11241714D02*
X1480714Y-11232190D01*
X1480714Y-11232190D02*
X1509286Y-11232190D01*
X1509286Y-11232190D02*
X1528333Y-11241714D01*
X1528333Y-11241714D02*
X1537857Y-11260762D01*
X1537857Y-11260762D02*
X1537857Y-11365524D01*
X1928333Y-11156000D02*
X1756905Y-11413143D01*
X2185476Y-11165524D02*
X2204524Y-11165524D01*
X2204524Y-11165524D02*
X2223572Y-11175048D01*
X2223572Y-11175048D02*
X2233095Y-11184571D01*
X2233095Y-11184571D02*
X2242619Y-11203619D01*
X2242619Y-11203619D02*
X2252143Y-11241714D01*
X2252143Y-11241714D02*
X2252143Y-11289333D01*
X2252143Y-11289333D02*
X2242619Y-11327428D01*
X2242619Y-11327428D02*
X2233095Y-11346476D01*
X2233095Y-11346476D02*
X2223572Y-11356000D01*
X2223572Y-11356000D02*
X2204524Y-11365524D01*
X2204524Y-11365524D02*
X2185476Y-11365524D01*
X2185476Y-11365524D02*
X2166429Y-11356000D01*
X2166429Y-11356000D02*
X2156905Y-11346476D01*
X2156905Y-11346476D02*
X2147381Y-11327428D01*
X2147381Y-11327428D02*
X2137857Y-11289333D01*
X2137857Y-11289333D02*
X2137857Y-11241714D01*
X2137857Y-11241714D02*
X2147381Y-11203619D01*
X2147381Y-11203619D02*
X2156905Y-11184571D01*
X2156905Y-11184571D02*
X2166429Y-11175048D01*
X2166429Y-11175048D02*
X2185476Y-11165524D01*
X2337857Y-11346476D02*
X2347381Y-11356000D01*
X2347381Y-11356000D02*
X2337857Y-11365524D01*
X2337857Y-11365524D02*
X2328334Y-11356000D01*
X2328334Y-11356000D02*
X2337857Y-11346476D01*
X2337857Y-11346476D02*
X2337857Y-11365524D01*
X2471191Y-11165524D02*
X2490238Y-11165524D01*
X2490238Y-11165524D02*
X2509286Y-11175048D01*
X2509286Y-11175048D02*
X2518810Y-11184571D01*
X2518810Y-11184571D02*
X2528334Y-11203619D01*
X2528334Y-11203619D02*
X2537857Y-11241714D01*
X2537857Y-11241714D02*
X2537857Y-11289333D01*
X2537857Y-11289333D02*
X2528334Y-11327428D01*
X2528334Y-11327428D02*
X2518810Y-11346476D01*
X2518810Y-11346476D02*
X2509286Y-11356000D01*
X2509286Y-11356000D02*
X2490238Y-11365524D01*
X2490238Y-11365524D02*
X2471191Y-11365524D01*
X2471191Y-11365524D02*
X2452143Y-11356000D01*
X2452143Y-11356000D02*
X2442619Y-11346476D01*
X2442619Y-11346476D02*
X2433095Y-11327428D01*
X2433095Y-11327428D02*
X2423572Y-11289333D01*
X2423572Y-11289333D02*
X2423572Y-11241714D01*
X2423572Y-11241714D02*
X2433095Y-11203619D01*
X2433095Y-11203619D02*
X2442619Y-11184571D01*
X2442619Y-11184571D02*
X2452143Y-11175048D01*
X2452143Y-11175048D02*
X2471191Y-11165524D01*
X2604524Y-11165524D02*
X2728334Y-11165524D01*
X2728334Y-11165524D02*
X2661667Y-11241714D01*
X2661667Y-11241714D02*
X2690238Y-11241714D01*
X2690238Y-11241714D02*
X2709286Y-11251238D01*
X2709286Y-11251238D02*
X2718810Y-11260762D01*
X2718810Y-11260762D02*
X2728334Y-11279809D01*
X2728334Y-11279809D02*
X2728334Y-11327428D01*
X2728334Y-11327428D02*
X2718810Y-11346476D01*
X2718810Y-11346476D02*
X2709286Y-11356000D01*
X2709286Y-11356000D02*
X2690238Y-11365524D01*
X2690238Y-11365524D02*
X2633095Y-11365524D01*
X2633095Y-11365524D02*
X2614048Y-11356000D01*
X2614048Y-11356000D02*
X2604524Y-11346476D01*
X2823572Y-11365524D02*
X2861667Y-11365524D01*
X2861667Y-11365524D02*
X2880714Y-11356000D01*
X2880714Y-11356000D02*
X2890238Y-11346476D01*
X2890238Y-11346476D02*
X2909286Y-11317905D01*
X2909286Y-11317905D02*
X2918810Y-11279809D01*
X2918810Y-11279809D02*
X2918810Y-11203619D01*
X2918810Y-11203619D02*
X2909286Y-11184571D01*
X2909286Y-11184571D02*
X2899762Y-11175048D01*
X2899762Y-11175048D02*
X2880714Y-11165524D01*
X2880714Y-11165524D02*
X2842619Y-11165524D01*
X2842619Y-11165524D02*
X2823572Y-11175048D01*
X2823572Y-11175048D02*
X2814048Y-11184571D01*
X2814048Y-11184571D02*
X2804524Y-11203619D01*
X2804524Y-11203619D02*
X2804524Y-11251238D01*
X2804524Y-11251238D02*
X2814048Y-11270286D01*
X2814048Y-11270286D02*
X2823572Y-11279809D01*
X2823572Y-11279809D02*
X2842619Y-11289333D01*
X2842619Y-11289333D02*
X2880714Y-11289333D01*
X2880714Y-11289333D02*
X2899762Y-11279809D01*
X2899762Y-11279809D02*
X2909286Y-11270286D01*
X2909286Y-11270286D02*
X2918810Y-11251238D01*
X3090238Y-11232190D02*
X3090238Y-11365524D01*
X3042619Y-11156000D02*
X2995000Y-11298857D01*
X2995000Y-11298857D02*
X3118810Y-11298857D01*
X3185476Y-11165524D02*
X3185476Y-11203619D01*
X3261667Y-11165524D02*
X3261667Y-11203619D01*
X3556905Y-11441714D02*
X3547381Y-11432190D01*
X3547381Y-11432190D02*
X3528334Y-11403619D01*
X3528334Y-11403619D02*
X3518810Y-11384571D01*
X3518810Y-11384571D02*
X3509286Y-11356000D01*
X3509286Y-11356000D02*
X3499762Y-11308381D01*
X3499762Y-11308381D02*
X3499762Y-11270286D01*
X3499762Y-11270286D02*
X3509286Y-11222667D01*
X3509286Y-11222667D02*
X3518810Y-11194095D01*
X3518810Y-11194095D02*
X3528334Y-11175048D01*
X3528334Y-11175048D02*
X3547381Y-11146476D01*
X3547381Y-11146476D02*
X3556905Y-11136952D01*
X3614048Y-11165524D02*
X3737857Y-11165524D01*
X3737857Y-11165524D02*
X3671191Y-11241714D01*
X3671191Y-11241714D02*
X3699762Y-11241714D01*
X3699762Y-11241714D02*
X3718810Y-11251238D01*
X3718810Y-11251238D02*
X3728334Y-11260762D01*
X3728334Y-11260762D02*
X3737857Y-11279809D01*
X3737857Y-11279809D02*
X3737857Y-11327428D01*
X3737857Y-11327428D02*
X3728334Y-11346476D01*
X3728334Y-11346476D02*
X3718810Y-11356000D01*
X3718810Y-11356000D02*
X3699762Y-11365524D01*
X3699762Y-11365524D02*
X3642619Y-11365524D01*
X3642619Y-11365524D02*
X3623572Y-11356000D01*
X3623572Y-11356000D02*
X3614048Y-11346476D01*
X3804524Y-11165524D02*
X3928334Y-11165524D01*
X3928334Y-11165524D02*
X3861667Y-11241714D01*
X3861667Y-11241714D02*
X3890238Y-11241714D01*
X3890238Y-11241714D02*
X3909286Y-11251238D01*
X3909286Y-11251238D02*
X3918810Y-11260762D01*
X3918810Y-11260762D02*
X3928334Y-11279809D01*
X3928334Y-11279809D02*
X3928334Y-11327428D01*
X3928334Y-11327428D02*
X3918810Y-11346476D01*
X3918810Y-11346476D02*
X3909286Y-11356000D01*
X3909286Y-11356000D02*
X3890238Y-11365524D01*
X3890238Y-11365524D02*
X3833095Y-11365524D01*
X3833095Y-11365524D02*
X3814048Y-11356000D01*
X3814048Y-11356000D02*
X3804524Y-11346476D01*
X4166429Y-11365524D02*
X4166429Y-11165524D01*
X4252143Y-11365524D02*
X4252143Y-11260762D01*
X4252143Y-11260762D02*
X4242619Y-11241714D01*
X4242619Y-11241714D02*
X4223572Y-11232190D01*
X4223572Y-11232190D02*
X4195000Y-11232190D01*
X4195000Y-11232190D02*
X4175953Y-11241714D01*
X4175953Y-11241714D02*
X4166429Y-11251238D01*
X4375953Y-11365524D02*
X4356905Y-11356000D01*
X4356905Y-11356000D02*
X4347381Y-11346476D01*
X4347381Y-11346476D02*
X4337858Y-11327428D01*
X4337858Y-11327428D02*
X4337858Y-11270286D01*
X4337858Y-11270286D02*
X4347381Y-11251238D01*
X4347381Y-11251238D02*
X4356905Y-11241714D01*
X4356905Y-11241714D02*
X4375953Y-11232190D01*
X4375953Y-11232190D02*
X4404524Y-11232190D01*
X4404524Y-11232190D02*
X4423572Y-11241714D01*
X4423572Y-11241714D02*
X4433096Y-11251238D01*
X4433096Y-11251238D02*
X4442619Y-11270286D01*
X4442619Y-11270286D02*
X4442619Y-11327428D01*
X4442619Y-11327428D02*
X4433096Y-11346476D01*
X4433096Y-11346476D02*
X4423572Y-11356000D01*
X4423572Y-11356000D02*
X4404524Y-11365524D01*
X4404524Y-11365524D02*
X4375953Y-11365524D01*
X4556905Y-11365524D02*
X4537858Y-11356000D01*
X4537858Y-11356000D02*
X4528334Y-11336952D01*
X4528334Y-11336952D02*
X4528334Y-11165524D01*
X4709286Y-11356000D02*
X4690239Y-11365524D01*
X4690239Y-11365524D02*
X4652143Y-11365524D01*
X4652143Y-11365524D02*
X4633096Y-11356000D01*
X4633096Y-11356000D02*
X4623572Y-11336952D01*
X4623572Y-11336952D02*
X4623572Y-11260762D01*
X4623572Y-11260762D02*
X4633096Y-11241714D01*
X4633096Y-11241714D02*
X4652143Y-11232190D01*
X4652143Y-11232190D02*
X4690239Y-11232190D01*
X4690239Y-11232190D02*
X4709286Y-11241714D01*
X4709286Y-11241714D02*
X4718810Y-11260762D01*
X4718810Y-11260762D02*
X4718810Y-11279809D01*
X4718810Y-11279809D02*
X4623572Y-11298857D01*
X4795000Y-11356000D02*
X4814048Y-11365524D01*
X4814048Y-11365524D02*
X4852143Y-11365524D01*
X4852143Y-11365524D02*
X4871191Y-11356000D01*
X4871191Y-11356000D02*
X4880715Y-11336952D01*
X4880715Y-11336952D02*
X4880715Y-11327428D01*
X4880715Y-11327428D02*
X4871191Y-11308381D01*
X4871191Y-11308381D02*
X4852143Y-11298857D01*
X4852143Y-11298857D02*
X4823572Y-11298857D01*
X4823572Y-11298857D02*
X4804524Y-11289333D01*
X4804524Y-11289333D02*
X4795000Y-11270286D01*
X4795000Y-11270286D02*
X4795000Y-11260762D01*
X4795000Y-11260762D02*
X4804524Y-11241714D01*
X4804524Y-11241714D02*
X4823572Y-11232190D01*
X4823572Y-11232190D02*
X4852143Y-11232190D01*
X4852143Y-11232190D02*
X4871191Y-11241714D01*
X4947381Y-11441714D02*
X4956905Y-11432190D01*
X4956905Y-11432190D02*
X4975953Y-11403619D01*
X4975953Y-11403619D02*
X4985477Y-11384571D01*
X4985477Y-11384571D02*
X4995000Y-11356000D01*
X4995000Y-11356000D02*
X5004524Y-11308381D01*
X5004524Y-11308381D02*
X5004524Y-11270286D01*
X5004524Y-11270286D02*
X4995000Y-11222667D01*
X4995000Y-11222667D02*
X4985477Y-11194095D01*
X4985477Y-11194095D02*
X4975953Y-11175048D01*
X4975953Y-11175048D02*
X4956905Y-11146476D01*
X4956905Y-11146476D02*
X4947381Y-11136952D01*
X-34289Y-11607711D02*
X-34289Y-11466289D01*
X-175711Y-11466289D01*
X-175711Y-11607711D01*
X-34289Y-11607711D01*
X223571Y-11429524D02*
X347381Y-11429524D01*
X347381Y-11429524D02*
X280714Y-11505714D01*
X280714Y-11505714D02*
X309286Y-11505714D01*
X309286Y-11505714D02*
X328333Y-11515238D01*
X328333Y-11515238D02*
X337857Y-11524762D01*
X337857Y-11524762D02*
X347381Y-11543809D01*
X347381Y-11543809D02*
X347381Y-11591428D01*
X347381Y-11591428D02*
X337857Y-11610476D01*
X337857Y-11610476D02*
X328333Y-11620000D01*
X328333Y-11620000D02*
X309286Y-11629524D01*
X309286Y-11629524D02*
X252143Y-11629524D01*
X252143Y-11629524D02*
X233095Y-11620000D01*
X233095Y-11620000D02*
X223571Y-11610476D01*
X433095Y-11610476D02*
X442619Y-11620000D01*
X442619Y-11620000D02*
X433095Y-11629524D01*
X433095Y-11629524D02*
X423571Y-11620000D01*
X423571Y-11620000D02*
X433095Y-11610476D01*
X433095Y-11610476D02*
X433095Y-11629524D01*
X518809Y-11448571D02*
X528333Y-11439048D01*
X528333Y-11439048D02*
X547381Y-11429524D01*
X547381Y-11429524D02*
X595000Y-11429524D01*
X595000Y-11429524D02*
X614048Y-11439048D01*
X614048Y-11439048D02*
X623571Y-11448571D01*
X623571Y-11448571D02*
X633095Y-11467619D01*
X633095Y-11467619D02*
X633095Y-11486667D01*
X633095Y-11486667D02*
X623571Y-11515238D01*
X623571Y-11515238D02*
X509286Y-11629524D01*
X509286Y-11629524D02*
X633095Y-11629524D01*
X756905Y-11429524D02*
X775952Y-11429524D01*
X775952Y-11429524D02*
X795000Y-11439048D01*
X795000Y-11439048D02*
X804524Y-11448571D01*
X804524Y-11448571D02*
X814048Y-11467619D01*
X814048Y-11467619D02*
X823571Y-11505714D01*
X823571Y-11505714D02*
X823571Y-11553333D01*
X823571Y-11553333D02*
X814048Y-11591428D01*
X814048Y-11591428D02*
X804524Y-11610476D01*
X804524Y-11610476D02*
X795000Y-11620000D01*
X795000Y-11620000D02*
X775952Y-11629524D01*
X775952Y-11629524D02*
X756905Y-11629524D01*
X756905Y-11629524D02*
X737857Y-11620000D01*
X737857Y-11620000D02*
X728333Y-11610476D01*
X728333Y-11610476D02*
X718809Y-11591428D01*
X718809Y-11591428D02*
X709286Y-11553333D01*
X709286Y-11553333D02*
X709286Y-11505714D01*
X709286Y-11505714D02*
X718809Y-11467619D01*
X718809Y-11467619D02*
X728333Y-11448571D01*
X728333Y-11448571D02*
X737857Y-11439048D01*
X737857Y-11439048D02*
X756905Y-11429524D01*
X947381Y-11429524D02*
X966429Y-11429524D01*
X966429Y-11429524D02*
X985476Y-11439048D01*
X985476Y-11439048D02*
X995000Y-11448571D01*
X995000Y-11448571D02*
X1004524Y-11467619D01*
X1004524Y-11467619D02*
X1014048Y-11505714D01*
X1014048Y-11505714D02*
X1014048Y-11553333D01*
X1014048Y-11553333D02*
X1004524Y-11591428D01*
X1004524Y-11591428D02*
X995000Y-11610476D01*
X995000Y-11610476D02*
X985476Y-11620000D01*
X985476Y-11620000D02*
X966429Y-11629524D01*
X966429Y-11629524D02*
X947381Y-11629524D01*
X947381Y-11629524D02*
X928333Y-11620000D01*
X928333Y-11620000D02*
X918809Y-11610476D01*
X918809Y-11610476D02*
X909286Y-11591428D01*
X909286Y-11591428D02*
X899762Y-11553333D01*
X899762Y-11553333D02*
X899762Y-11505714D01*
X899762Y-11505714D02*
X909286Y-11467619D01*
X909286Y-11467619D02*
X918809Y-11448571D01*
X918809Y-11448571D02*
X928333Y-11439048D01*
X928333Y-11439048D02*
X947381Y-11429524D01*
X1099762Y-11629524D02*
X1099762Y-11496190D01*
X1099762Y-11515238D02*
X1109286Y-11505714D01*
X1109286Y-11505714D02*
X1128333Y-11496190D01*
X1128333Y-11496190D02*
X1156905Y-11496190D01*
X1156905Y-11496190D02*
X1175952Y-11505714D01*
X1175952Y-11505714D02*
X1185476Y-11524762D01*
X1185476Y-11524762D02*
X1185476Y-11629524D01*
X1185476Y-11524762D02*
X1195000Y-11505714D01*
X1195000Y-11505714D02*
X1214048Y-11496190D01*
X1214048Y-11496190D02*
X1242619Y-11496190D01*
X1242619Y-11496190D02*
X1261667Y-11505714D01*
X1261667Y-11505714D02*
X1271191Y-11524762D01*
X1271191Y-11524762D02*
X1271191Y-11629524D01*
X1366429Y-11629524D02*
X1366429Y-11496190D01*
X1366429Y-11515238D02*
X1375952Y-11505714D01*
X1375952Y-11505714D02*
X1395000Y-11496190D01*
X1395000Y-11496190D02*
X1423571Y-11496190D01*
X1423571Y-11496190D02*
X1442619Y-11505714D01*
X1442619Y-11505714D02*
X1452143Y-11524762D01*
X1452143Y-11524762D02*
X1452143Y-11629524D01*
X1452143Y-11524762D02*
X1461667Y-11505714D01*
X1461667Y-11505714D02*
X1480714Y-11496190D01*
X1480714Y-11496190D02*
X1509286Y-11496190D01*
X1509286Y-11496190D02*
X1528333Y-11505714D01*
X1528333Y-11505714D02*
X1537857Y-11524762D01*
X1537857Y-11524762D02*
X1537857Y-11629524D01*
X1928333Y-11420000D02*
X1756905Y-11677143D01*
X2185476Y-11429524D02*
X2204524Y-11429524D01*
X2204524Y-11429524D02*
X2223572Y-11439048D01*
X2223572Y-11439048D02*
X2233095Y-11448571D01*
X2233095Y-11448571D02*
X2242619Y-11467619D01*
X2242619Y-11467619D02*
X2252143Y-11505714D01*
X2252143Y-11505714D02*
X2252143Y-11553333D01*
X2252143Y-11553333D02*
X2242619Y-11591428D01*
X2242619Y-11591428D02*
X2233095Y-11610476D01*
X2233095Y-11610476D02*
X2223572Y-11620000D01*
X2223572Y-11620000D02*
X2204524Y-11629524D01*
X2204524Y-11629524D02*
X2185476Y-11629524D01*
X2185476Y-11629524D02*
X2166429Y-11620000D01*
X2166429Y-11620000D02*
X2156905Y-11610476D01*
X2156905Y-11610476D02*
X2147381Y-11591428D01*
X2147381Y-11591428D02*
X2137857Y-11553333D01*
X2137857Y-11553333D02*
X2137857Y-11505714D01*
X2137857Y-11505714D02*
X2147381Y-11467619D01*
X2147381Y-11467619D02*
X2156905Y-11448571D01*
X2156905Y-11448571D02*
X2166429Y-11439048D01*
X2166429Y-11439048D02*
X2185476Y-11429524D01*
X2337857Y-11610476D02*
X2347381Y-11620000D01*
X2347381Y-11620000D02*
X2337857Y-11629524D01*
X2337857Y-11629524D02*
X2328334Y-11620000D01*
X2328334Y-11620000D02*
X2337857Y-11610476D01*
X2337857Y-11610476D02*
X2337857Y-11629524D01*
X2537857Y-11629524D02*
X2423572Y-11629524D01*
X2480714Y-11629524D02*
X2480714Y-11429524D01*
X2480714Y-11429524D02*
X2461667Y-11458095D01*
X2461667Y-11458095D02*
X2442619Y-11477143D01*
X2442619Y-11477143D02*
X2423572Y-11486667D01*
X2614048Y-11448571D02*
X2623572Y-11439048D01*
X2623572Y-11439048D02*
X2642619Y-11429524D01*
X2642619Y-11429524D02*
X2690238Y-11429524D01*
X2690238Y-11429524D02*
X2709286Y-11439048D01*
X2709286Y-11439048D02*
X2718810Y-11448571D01*
X2718810Y-11448571D02*
X2728334Y-11467619D01*
X2728334Y-11467619D02*
X2728334Y-11486667D01*
X2728334Y-11486667D02*
X2718810Y-11515238D01*
X2718810Y-11515238D02*
X2604524Y-11629524D01*
X2604524Y-11629524D02*
X2728334Y-11629524D01*
X2899762Y-11429524D02*
X2861667Y-11429524D01*
X2861667Y-11429524D02*
X2842619Y-11439048D01*
X2842619Y-11439048D02*
X2833095Y-11448571D01*
X2833095Y-11448571D02*
X2814048Y-11477143D01*
X2814048Y-11477143D02*
X2804524Y-11515238D01*
X2804524Y-11515238D02*
X2804524Y-11591428D01*
X2804524Y-11591428D02*
X2814048Y-11610476D01*
X2814048Y-11610476D02*
X2823572Y-11620000D01*
X2823572Y-11620000D02*
X2842619Y-11629524D01*
X2842619Y-11629524D02*
X2880714Y-11629524D01*
X2880714Y-11629524D02*
X2899762Y-11620000D01*
X2899762Y-11620000D02*
X2909286Y-11610476D01*
X2909286Y-11610476D02*
X2918810Y-11591428D01*
X2918810Y-11591428D02*
X2918810Y-11543809D01*
X2918810Y-11543809D02*
X2909286Y-11524762D01*
X2909286Y-11524762D02*
X2899762Y-11515238D01*
X2899762Y-11515238D02*
X2880714Y-11505714D01*
X2880714Y-11505714D02*
X2842619Y-11505714D01*
X2842619Y-11505714D02*
X2823572Y-11515238D01*
X2823572Y-11515238D02*
X2814048Y-11524762D01*
X2814048Y-11524762D02*
X2804524Y-11543809D01*
X3042619Y-11429524D02*
X3061667Y-11429524D01*
X3061667Y-11429524D02*
X3080714Y-11439048D01*
X3080714Y-11439048D02*
X3090238Y-11448571D01*
X3090238Y-11448571D02*
X3099762Y-11467619D01*
X3099762Y-11467619D02*
X3109286Y-11505714D01*
X3109286Y-11505714D02*
X3109286Y-11553333D01*
X3109286Y-11553333D02*
X3099762Y-11591428D01*
X3099762Y-11591428D02*
X3090238Y-11610476D01*
X3090238Y-11610476D02*
X3080714Y-11620000D01*
X3080714Y-11620000D02*
X3061667Y-11629524D01*
X3061667Y-11629524D02*
X3042619Y-11629524D01*
X3042619Y-11629524D02*
X3023572Y-11620000D01*
X3023572Y-11620000D02*
X3014048Y-11610476D01*
X3014048Y-11610476D02*
X3004524Y-11591428D01*
X3004524Y-11591428D02*
X2995000Y-11553333D01*
X2995000Y-11553333D02*
X2995000Y-11505714D01*
X2995000Y-11505714D02*
X3004524Y-11467619D01*
X3004524Y-11467619D02*
X3014048Y-11448571D01*
X3014048Y-11448571D02*
X3023572Y-11439048D01*
X3023572Y-11439048D02*
X3042619Y-11429524D01*
X3185476Y-11429524D02*
X3185476Y-11467619D01*
X3261667Y-11429524D02*
X3261667Y-11467619D01*
X3556905Y-11705714D02*
X3547381Y-11696190D01*
X3547381Y-11696190D02*
X3528334Y-11667619D01*
X3528334Y-11667619D02*
X3518810Y-11648571D01*
X3518810Y-11648571D02*
X3509286Y-11620000D01*
X3509286Y-11620000D02*
X3499762Y-11572381D01*
X3499762Y-11572381D02*
X3499762Y-11534286D01*
X3499762Y-11534286D02*
X3509286Y-11486667D01*
X3509286Y-11486667D02*
X3518810Y-11458095D01*
X3518810Y-11458095D02*
X3528334Y-11439048D01*
X3528334Y-11439048D02*
X3547381Y-11410476D01*
X3547381Y-11410476D02*
X3556905Y-11400952D01*
X3614048Y-11429524D02*
X3737857Y-11429524D01*
X3737857Y-11429524D02*
X3671191Y-11505714D01*
X3671191Y-11505714D02*
X3699762Y-11505714D01*
X3699762Y-11505714D02*
X3718810Y-11515238D01*
X3718810Y-11515238D02*
X3728334Y-11524762D01*
X3728334Y-11524762D02*
X3737857Y-11543809D01*
X3737857Y-11543809D02*
X3737857Y-11591428D01*
X3737857Y-11591428D02*
X3728334Y-11610476D01*
X3728334Y-11610476D02*
X3718810Y-11620000D01*
X3718810Y-11620000D02*
X3699762Y-11629524D01*
X3699762Y-11629524D02*
X3642619Y-11629524D01*
X3642619Y-11629524D02*
X3623572Y-11620000D01*
X3623572Y-11620000D02*
X3614048Y-11610476D01*
X3975953Y-11629524D02*
X3975953Y-11429524D01*
X4061667Y-11629524D02*
X4061667Y-11524762D01*
X4061667Y-11524762D02*
X4052143Y-11505714D01*
X4052143Y-11505714D02*
X4033096Y-11496190D01*
X4033096Y-11496190D02*
X4004524Y-11496190D01*
X4004524Y-11496190D02*
X3985476Y-11505714D01*
X3985476Y-11505714D02*
X3975953Y-11515238D01*
X4185476Y-11629524D02*
X4166429Y-11620000D01*
X4166429Y-11620000D02*
X4156905Y-11610476D01*
X4156905Y-11610476D02*
X4147381Y-11591428D01*
X4147381Y-11591428D02*
X4147381Y-11534286D01*
X4147381Y-11534286D02*
X4156905Y-11515238D01*
X4156905Y-11515238D02*
X4166429Y-11505714D01*
X4166429Y-11505714D02*
X4185476Y-11496190D01*
X4185476Y-11496190D02*
X4214048Y-11496190D01*
X4214048Y-11496190D02*
X4233096Y-11505714D01*
X4233096Y-11505714D02*
X4242619Y-11515238D01*
X4242619Y-11515238D02*
X4252143Y-11534286D01*
X4252143Y-11534286D02*
X4252143Y-11591428D01*
X4252143Y-11591428D02*
X4242619Y-11610476D01*
X4242619Y-11610476D02*
X4233096Y-11620000D01*
X4233096Y-11620000D02*
X4214048Y-11629524D01*
X4214048Y-11629524D02*
X4185476Y-11629524D01*
X4366429Y-11629524D02*
X4347381Y-11620000D01*
X4347381Y-11620000D02*
X4337858Y-11600952D01*
X4337858Y-11600952D02*
X4337858Y-11429524D01*
X4518810Y-11620000D02*
X4499762Y-11629524D01*
X4499762Y-11629524D02*
X4461667Y-11629524D01*
X4461667Y-11629524D02*
X4442619Y-11620000D01*
X4442619Y-11620000D02*
X4433096Y-11600952D01*
X4433096Y-11600952D02*
X4433096Y-11524762D01*
X4433096Y-11524762D02*
X4442619Y-11505714D01*
X4442619Y-11505714D02*
X4461667Y-11496190D01*
X4461667Y-11496190D02*
X4499762Y-11496190D01*
X4499762Y-11496190D02*
X4518810Y-11505714D01*
X4518810Y-11505714D02*
X4528334Y-11524762D01*
X4528334Y-11524762D02*
X4528334Y-11543809D01*
X4528334Y-11543809D02*
X4433096Y-11562857D01*
X4604524Y-11620000D02*
X4623572Y-11629524D01*
X4623572Y-11629524D02*
X4661667Y-11629524D01*
X4661667Y-11629524D02*
X4680715Y-11620000D01*
X4680715Y-11620000D02*
X4690239Y-11600952D01*
X4690239Y-11600952D02*
X4690239Y-11591428D01*
X4690239Y-11591428D02*
X4680715Y-11572381D01*
X4680715Y-11572381D02*
X4661667Y-11562857D01*
X4661667Y-11562857D02*
X4633096Y-11562857D01*
X4633096Y-11562857D02*
X4614048Y-11553333D01*
X4614048Y-11553333D02*
X4604524Y-11534286D01*
X4604524Y-11534286D02*
X4604524Y-11524762D01*
X4604524Y-11524762D02*
X4614048Y-11505714D01*
X4614048Y-11505714D02*
X4633096Y-11496190D01*
X4633096Y-11496190D02*
X4661667Y-11496190D01*
X4661667Y-11496190D02*
X4680715Y-11505714D01*
X4756905Y-11705714D02*
X4766429Y-11696190D01*
X4766429Y-11696190D02*
X4785477Y-11667619D01*
X4785477Y-11667619D02*
X4795000Y-11648571D01*
X4795000Y-11648571D02*
X4804524Y-11620000D01*
X4804524Y-11620000D02*
X4814048Y-11572381D01*
X4814048Y-11572381D02*
X4814048Y-11534286D01*
X4814048Y-11534286D02*
X4804524Y-11486667D01*
X4804524Y-11486667D02*
X4795000Y-11458095D01*
X4795000Y-11458095D02*
X4785477Y-11439048D01*
X4785477Y-11439048D02*
X4766429Y-11410476D01*
X4766429Y-11410476D02*
X4756905Y-11400952D01*
M02*
