%TF.GenerationSoftware,KiCad,Pcbnew,7.0.1*%
%TF.CreationDate,2023-11-25T16:04:20-05:00*%
%TF.ProjectId,PCI bracket board,50434920-6272-4616-936b-657420626f61,rev?*%
%TF.SameCoordinates,Original*%
%TF.FileFunction,Legend,Bot*%
%TF.FilePolarity,Positive*%
%FSLAX46Y46*%
G04 Gerber Fmt 4.6, Leading zero omitted, Abs format (unit mm)*
G04 Created by KiCad (PCBNEW 7.0.1) date 2023-11-25 16:04:20*
%MOMM*%
%LPD*%
G01*
G04 APERTURE LIST*
%ADD10C,0.100000*%
%ADD11C,0.150000*%
%ADD12C,1.200000*%
%ADD13O,1.308000X2.616000*%
%ADD14O,2.616000X1.308000*%
%ADD15R,1.700000X1.700000*%
%ADD16O,1.700000X1.700000*%
%ADD17C,4.000000*%
%ADD18R,1.600000X1.600000*%
%ADD19C,1.600000*%
%ADD20O,1.600000X1.600000*%
%ADD21C,3.200000*%
%ADD22C,5.600000*%
G04 APERTURE END LIST*
D10*
X2195500Y-47538334D02*
X2228833Y-47638334D01*
X2228833Y-47638334D02*
X2228833Y-47805001D01*
X2228833Y-47805001D02*
X2195500Y-47871667D01*
X2195500Y-47871667D02*
X2162166Y-47905001D01*
X2162166Y-47905001D02*
X2095500Y-47938334D01*
X2095500Y-47938334D02*
X2028833Y-47938334D01*
X2028833Y-47938334D02*
X1962166Y-47905001D01*
X1962166Y-47905001D02*
X1928833Y-47871667D01*
X1928833Y-47871667D02*
X1895500Y-47805001D01*
X1895500Y-47805001D02*
X1862166Y-47671667D01*
X1862166Y-47671667D02*
X1828833Y-47605001D01*
X1828833Y-47605001D02*
X1795500Y-47571667D01*
X1795500Y-47571667D02*
X1728833Y-47538334D01*
X1728833Y-47538334D02*
X1662166Y-47538334D01*
X1662166Y-47538334D02*
X1595500Y-47571667D01*
X1595500Y-47571667D02*
X1562166Y-47605001D01*
X1562166Y-47605001D02*
X1528833Y-47671667D01*
X1528833Y-47671667D02*
X1528833Y-47838334D01*
X1528833Y-47838334D02*
X1562166Y-47938334D01*
X1762166Y-48238334D02*
X2462166Y-48238334D01*
X1795500Y-48238334D02*
X1762166Y-48305001D01*
X1762166Y-48305001D02*
X1762166Y-48438334D01*
X1762166Y-48438334D02*
X1795500Y-48505001D01*
X1795500Y-48505001D02*
X1828833Y-48538334D01*
X1828833Y-48538334D02*
X1895500Y-48571668D01*
X1895500Y-48571668D02*
X2095500Y-48571668D01*
X2095500Y-48571668D02*
X2162166Y-48538334D01*
X2162166Y-48538334D02*
X2195500Y-48505001D01*
X2195500Y-48505001D02*
X2228833Y-48438334D01*
X2228833Y-48438334D02*
X2228833Y-48305001D01*
X2228833Y-48305001D02*
X2195500Y-48238334D01*
X2195500Y-49138334D02*
X2228833Y-49071667D01*
X2228833Y-49071667D02*
X2228833Y-48938334D01*
X2228833Y-48938334D02*
X2195500Y-48871667D01*
X2195500Y-48871667D02*
X2128833Y-48838334D01*
X2128833Y-48838334D02*
X1862166Y-48838334D01*
X1862166Y-48838334D02*
X1795500Y-48871667D01*
X1795500Y-48871667D02*
X1762166Y-48938334D01*
X1762166Y-48938334D02*
X1762166Y-49071667D01*
X1762166Y-49071667D02*
X1795500Y-49138334D01*
X1795500Y-49138334D02*
X1862166Y-49171667D01*
X1862166Y-49171667D02*
X1928833Y-49171667D01*
X1928833Y-49171667D02*
X1995500Y-48838334D01*
X2228833Y-49771667D02*
X1862166Y-49771667D01*
X1862166Y-49771667D02*
X1795500Y-49738334D01*
X1795500Y-49738334D02*
X1762166Y-49671667D01*
X1762166Y-49671667D02*
X1762166Y-49538334D01*
X1762166Y-49538334D02*
X1795500Y-49471667D01*
X2195500Y-49771667D02*
X2228833Y-49705001D01*
X2228833Y-49705001D02*
X2228833Y-49538334D01*
X2228833Y-49538334D02*
X2195500Y-49471667D01*
X2195500Y-49471667D02*
X2128833Y-49438334D01*
X2128833Y-49438334D02*
X2062166Y-49438334D01*
X2062166Y-49438334D02*
X1995500Y-49471667D01*
X1995500Y-49471667D02*
X1962166Y-49538334D01*
X1962166Y-49538334D02*
X1962166Y-49705001D01*
X1962166Y-49705001D02*
X1928833Y-49771667D01*
X2228833Y-50105000D02*
X1528833Y-50105000D01*
X1962166Y-50171667D02*
X2228833Y-50371667D01*
X1762166Y-50371667D02*
X2028833Y-50105000D01*
X2195500Y-50938334D02*
X2228833Y-50871667D01*
X2228833Y-50871667D02*
X2228833Y-50738334D01*
X2228833Y-50738334D02*
X2195500Y-50671667D01*
X2195500Y-50671667D02*
X2128833Y-50638334D01*
X2128833Y-50638334D02*
X1862166Y-50638334D01*
X1862166Y-50638334D02*
X1795500Y-50671667D01*
X1795500Y-50671667D02*
X1762166Y-50738334D01*
X1762166Y-50738334D02*
X1762166Y-50871667D01*
X1762166Y-50871667D02*
X1795500Y-50938334D01*
X1795500Y-50938334D02*
X1862166Y-50971667D01*
X1862166Y-50971667D02*
X1928833Y-50971667D01*
X1928833Y-50971667D02*
X1995500Y-50638334D01*
X2228833Y-51271667D02*
X1762166Y-51271667D01*
X1895500Y-51271667D02*
X1828833Y-51305001D01*
X1828833Y-51305001D02*
X1795500Y-51338334D01*
X1795500Y-51338334D02*
X1762166Y-51405001D01*
X1762166Y-51405001D02*
X1762166Y-51471667D01*
X2228833Y-52338333D02*
X2195500Y-52271667D01*
X2195500Y-52271667D02*
X2162166Y-52238333D01*
X2162166Y-52238333D02*
X2095500Y-52205000D01*
X2095500Y-52205000D02*
X1895500Y-52205000D01*
X1895500Y-52205000D02*
X1828833Y-52238333D01*
X1828833Y-52238333D02*
X1795500Y-52271667D01*
X1795500Y-52271667D02*
X1762166Y-52338333D01*
X1762166Y-52338333D02*
X1762166Y-52438333D01*
X1762166Y-52438333D02*
X1795500Y-52505000D01*
X1795500Y-52505000D02*
X1828833Y-52538333D01*
X1828833Y-52538333D02*
X1895500Y-52571667D01*
X1895500Y-52571667D02*
X2095500Y-52571667D01*
X2095500Y-52571667D02*
X2162166Y-52538333D01*
X2162166Y-52538333D02*
X2195500Y-52505000D01*
X2195500Y-52505000D02*
X2228833Y-52438333D01*
X2228833Y-52438333D02*
X2228833Y-52338333D01*
X1762166Y-53171666D02*
X2228833Y-53171666D01*
X1762166Y-52871666D02*
X2128833Y-52871666D01*
X2128833Y-52871666D02*
X2195500Y-52905000D01*
X2195500Y-52905000D02*
X2228833Y-52971666D01*
X2228833Y-52971666D02*
X2228833Y-53071666D01*
X2228833Y-53071666D02*
X2195500Y-53138333D01*
X2195500Y-53138333D02*
X2162166Y-53171666D01*
X1762166Y-53404999D02*
X1762166Y-53671666D01*
X1528833Y-53504999D02*
X2128833Y-53504999D01*
X2128833Y-53504999D02*
X2195500Y-53538333D01*
X2195500Y-53538333D02*
X2228833Y-53604999D01*
X2228833Y-53604999D02*
X2228833Y-53671666D01*
X2495500Y-54638332D02*
X2462166Y-54604999D01*
X2462166Y-54604999D02*
X2362166Y-54538332D01*
X2362166Y-54538332D02*
X2295500Y-54504999D01*
X2295500Y-54504999D02*
X2195500Y-54471666D01*
X2195500Y-54471666D02*
X2028833Y-54438332D01*
X2028833Y-54438332D02*
X1895500Y-54438332D01*
X1895500Y-54438332D02*
X1728833Y-54471666D01*
X1728833Y-54471666D02*
X1628833Y-54504999D01*
X1628833Y-54504999D02*
X1562166Y-54538332D01*
X1562166Y-54538332D02*
X1462166Y-54604999D01*
X1462166Y-54604999D02*
X1428833Y-54638332D01*
X2228833Y-54904999D02*
X1528833Y-54904999D01*
X1795500Y-54904999D02*
X1762166Y-54971666D01*
X1762166Y-54971666D02*
X1762166Y-55104999D01*
X1762166Y-55104999D02*
X1795500Y-55171666D01*
X1795500Y-55171666D02*
X1828833Y-55204999D01*
X1828833Y-55204999D02*
X1895500Y-55238333D01*
X1895500Y-55238333D02*
X2095500Y-55238333D01*
X2095500Y-55238333D02*
X2162166Y-55204999D01*
X2162166Y-55204999D02*
X2195500Y-55171666D01*
X2195500Y-55171666D02*
X2228833Y-55104999D01*
X2228833Y-55104999D02*
X2228833Y-54971666D01*
X2228833Y-54971666D02*
X2195500Y-54904999D01*
X2228833Y-55638332D02*
X2195500Y-55571666D01*
X2195500Y-55571666D02*
X2128833Y-55538332D01*
X2128833Y-55538332D02*
X1528833Y-55538332D01*
X2228833Y-56204999D02*
X1862166Y-56204999D01*
X1862166Y-56204999D02*
X1795500Y-56171666D01*
X1795500Y-56171666D02*
X1762166Y-56104999D01*
X1762166Y-56104999D02*
X1762166Y-55971666D01*
X1762166Y-55971666D02*
X1795500Y-55904999D01*
X2195500Y-56204999D02*
X2228833Y-56138333D01*
X2228833Y-56138333D02*
X2228833Y-55971666D01*
X2228833Y-55971666D02*
X2195500Y-55904999D01*
X2195500Y-55904999D02*
X2128833Y-55871666D01*
X2128833Y-55871666D02*
X2062166Y-55871666D01*
X2062166Y-55871666D02*
X1995500Y-55904999D01*
X1995500Y-55904999D02*
X1962166Y-55971666D01*
X1962166Y-55971666D02*
X1962166Y-56138333D01*
X1962166Y-56138333D02*
X1928833Y-56204999D01*
X2195500Y-56838332D02*
X2228833Y-56771666D01*
X2228833Y-56771666D02*
X2228833Y-56638332D01*
X2228833Y-56638332D02*
X2195500Y-56571666D01*
X2195500Y-56571666D02*
X2162166Y-56538332D01*
X2162166Y-56538332D02*
X2095500Y-56504999D01*
X2095500Y-56504999D02*
X1895500Y-56504999D01*
X1895500Y-56504999D02*
X1828833Y-56538332D01*
X1828833Y-56538332D02*
X1795500Y-56571666D01*
X1795500Y-56571666D02*
X1762166Y-56638332D01*
X1762166Y-56638332D02*
X1762166Y-56771666D01*
X1762166Y-56771666D02*
X1795500Y-56838332D01*
X2228833Y-57138332D02*
X1528833Y-57138332D01*
X1962166Y-57204999D02*
X2228833Y-57404999D01*
X1762166Y-57404999D02*
X2028833Y-57138332D01*
X2495500Y-57638333D02*
X2462166Y-57671666D01*
X2462166Y-57671666D02*
X2362166Y-57738333D01*
X2362166Y-57738333D02*
X2295500Y-57771666D01*
X2295500Y-57771666D02*
X2195500Y-57804999D01*
X2195500Y-57804999D02*
X2028833Y-57838333D01*
X2028833Y-57838333D02*
X1895500Y-57838333D01*
X1895500Y-57838333D02*
X1728833Y-57804999D01*
X1728833Y-57804999D02*
X1628833Y-57771666D01*
X1628833Y-57771666D02*
X1562166Y-57738333D01*
X1562166Y-57738333D02*
X1462166Y-57671666D01*
X1462166Y-57671666D02*
X1428833Y-57638333D01*
X2228833Y-10818333D02*
X1528833Y-10818333D01*
X1528833Y-10818333D02*
X2028833Y-11051667D01*
X2028833Y-11051667D02*
X1528833Y-11285000D01*
X1528833Y-11285000D02*
X2228833Y-11285000D01*
X2228833Y-11618333D02*
X1762166Y-11618333D01*
X1528833Y-11618333D02*
X1562166Y-11585000D01*
X1562166Y-11585000D02*
X1595500Y-11618333D01*
X1595500Y-11618333D02*
X1562166Y-11651667D01*
X1562166Y-11651667D02*
X1528833Y-11618333D01*
X1528833Y-11618333D02*
X1595500Y-11618333D01*
X2195500Y-12251666D02*
X2228833Y-12185000D01*
X2228833Y-12185000D02*
X2228833Y-12051666D01*
X2228833Y-12051666D02*
X2195500Y-11985000D01*
X2195500Y-11985000D02*
X2162166Y-11951666D01*
X2162166Y-11951666D02*
X2095500Y-11918333D01*
X2095500Y-11918333D02*
X1895500Y-11918333D01*
X1895500Y-11918333D02*
X1828833Y-11951666D01*
X1828833Y-11951666D02*
X1795500Y-11985000D01*
X1795500Y-11985000D02*
X1762166Y-12051666D01*
X1762166Y-12051666D02*
X1762166Y-12185000D01*
X1762166Y-12185000D02*
X1795500Y-12251666D01*
X2495500Y-13284999D02*
X2462166Y-13251666D01*
X2462166Y-13251666D02*
X2362166Y-13184999D01*
X2362166Y-13184999D02*
X2295500Y-13151666D01*
X2295500Y-13151666D02*
X2195500Y-13118333D01*
X2195500Y-13118333D02*
X2028833Y-13084999D01*
X2028833Y-13084999D02*
X1895500Y-13084999D01*
X1895500Y-13084999D02*
X1728833Y-13118333D01*
X1728833Y-13118333D02*
X1628833Y-13151666D01*
X1628833Y-13151666D02*
X1562166Y-13184999D01*
X1562166Y-13184999D02*
X1462166Y-13251666D01*
X1462166Y-13251666D02*
X1428833Y-13284999D01*
X1762166Y-13551666D02*
X2462166Y-13551666D01*
X1795500Y-13551666D02*
X1762166Y-13618333D01*
X1762166Y-13618333D02*
X1762166Y-13751666D01*
X1762166Y-13751666D02*
X1795500Y-13818333D01*
X1795500Y-13818333D02*
X1828833Y-13851666D01*
X1828833Y-13851666D02*
X1895500Y-13885000D01*
X1895500Y-13885000D02*
X2095500Y-13885000D01*
X2095500Y-13885000D02*
X2162166Y-13851666D01*
X2162166Y-13851666D02*
X2195500Y-13818333D01*
X2195500Y-13818333D02*
X2228833Y-13751666D01*
X2228833Y-13751666D02*
X2228833Y-13618333D01*
X2228833Y-13618333D02*
X2195500Y-13551666D01*
X2228833Y-14184999D02*
X1762166Y-14184999D01*
X1528833Y-14184999D02*
X1562166Y-14151666D01*
X1562166Y-14151666D02*
X1595500Y-14184999D01*
X1595500Y-14184999D02*
X1562166Y-14218333D01*
X1562166Y-14218333D02*
X1528833Y-14184999D01*
X1528833Y-14184999D02*
X1595500Y-14184999D01*
X1762166Y-14518332D02*
X2228833Y-14518332D01*
X1828833Y-14518332D02*
X1795500Y-14551666D01*
X1795500Y-14551666D02*
X1762166Y-14618332D01*
X1762166Y-14618332D02*
X1762166Y-14718332D01*
X1762166Y-14718332D02*
X1795500Y-14784999D01*
X1795500Y-14784999D02*
X1862166Y-14818332D01*
X1862166Y-14818332D02*
X2228833Y-14818332D01*
X2228833Y-15151665D02*
X1528833Y-15151665D01*
X1962166Y-15218332D02*
X2228833Y-15418332D01*
X1762166Y-15418332D02*
X2028833Y-15151665D01*
X2495500Y-15651666D02*
X2462166Y-15684999D01*
X2462166Y-15684999D02*
X2362166Y-15751666D01*
X2362166Y-15751666D02*
X2295500Y-15784999D01*
X2295500Y-15784999D02*
X2195500Y-15818332D01*
X2195500Y-15818332D02*
X2028833Y-15851666D01*
X2028833Y-15851666D02*
X1895500Y-15851666D01*
X1895500Y-15851666D02*
X1728833Y-15818332D01*
X1728833Y-15818332D02*
X1628833Y-15784999D01*
X1628833Y-15784999D02*
X1562166Y-15751666D01*
X1562166Y-15751666D02*
X1462166Y-15684999D01*
X1462166Y-15684999D02*
X1428833Y-15651666D01*
X13818333Y-46613833D02*
X13418333Y-46613833D01*
X13618333Y-47313833D02*
X13618333Y-46613833D01*
X13251667Y-47313833D02*
X12885000Y-46847166D01*
X13251667Y-46847166D02*
X12885000Y-47313833D01*
D11*
X23814809Y-18655235D02*
X23862428Y-18798092D01*
X23862428Y-18798092D02*
X23910047Y-18845711D01*
X23910047Y-18845711D02*
X24005285Y-18893330D01*
X24005285Y-18893330D02*
X24148142Y-18893330D01*
X24148142Y-18893330D02*
X24243380Y-18845711D01*
X24243380Y-18845711D02*
X24291000Y-18798092D01*
X24291000Y-18798092D02*
X24338619Y-18702854D01*
X24338619Y-18702854D02*
X24338619Y-18321902D01*
X24338619Y-18321902D02*
X23338619Y-18321902D01*
X23338619Y-18321902D02*
X23338619Y-18655235D01*
X23338619Y-18655235D02*
X23386238Y-18750473D01*
X23386238Y-18750473D02*
X23433857Y-18798092D01*
X23433857Y-18798092D02*
X23529095Y-18845711D01*
X23529095Y-18845711D02*
X23624333Y-18845711D01*
X23624333Y-18845711D02*
X23719571Y-18798092D01*
X23719571Y-18798092D02*
X23767190Y-18750473D01*
X23767190Y-18750473D02*
X23814809Y-18655235D01*
X23814809Y-18655235D02*
X23814809Y-18321902D01*
X23338619Y-19179045D02*
X23338619Y-19750473D01*
X24338619Y-19464759D02*
X23338619Y-19464759D01*
X23338619Y-20274283D02*
X23338619Y-20464759D01*
X23338619Y-20464759D02*
X23386238Y-20559997D01*
X23386238Y-20559997D02*
X23481476Y-20655235D01*
X23481476Y-20655235D02*
X23671952Y-20702854D01*
X23671952Y-20702854D02*
X24005285Y-20702854D01*
X24005285Y-20702854D02*
X24195761Y-20655235D01*
X24195761Y-20655235D02*
X24291000Y-20559997D01*
X24291000Y-20559997D02*
X24338619Y-20464759D01*
X24338619Y-20464759D02*
X24338619Y-20274283D01*
X24338619Y-20274283D02*
X24291000Y-20179045D01*
X24291000Y-20179045D02*
X24195761Y-20083807D01*
X24195761Y-20083807D02*
X24005285Y-20036188D01*
X24005285Y-20036188D02*
X23671952Y-20036188D01*
X23671952Y-20036188D02*
X23481476Y-20083807D01*
X23481476Y-20083807D02*
X23386238Y-20179045D01*
X23386238Y-20179045D02*
X23338619Y-20274283D01*
X24338619Y-21893331D02*
X23338619Y-21893331D01*
X23338619Y-21893331D02*
X23338619Y-22274283D01*
X23338619Y-22274283D02*
X23386238Y-22369521D01*
X23386238Y-22369521D02*
X23433857Y-22417140D01*
X23433857Y-22417140D02*
X23529095Y-22464759D01*
X23529095Y-22464759D02*
X23671952Y-22464759D01*
X23671952Y-22464759D02*
X23767190Y-22417140D01*
X23767190Y-22417140D02*
X23814809Y-22369521D01*
X23814809Y-22369521D02*
X23862428Y-22274283D01*
X23862428Y-22274283D02*
X23862428Y-21893331D01*
X24338619Y-23036188D02*
X24291000Y-22940950D01*
X24291000Y-22940950D02*
X24195761Y-22893331D01*
X24195761Y-22893331D02*
X23338619Y-22893331D01*
X23671952Y-23845712D02*
X24338619Y-23845712D01*
X23671952Y-23417141D02*
X24195761Y-23417141D01*
X24195761Y-23417141D02*
X24291000Y-23464760D01*
X24291000Y-23464760D02*
X24338619Y-23559998D01*
X24338619Y-23559998D02*
X24338619Y-23702855D01*
X24338619Y-23702855D02*
X24291000Y-23798093D01*
X24291000Y-23798093D02*
X24243380Y-23845712D01*
X24291000Y-24274284D02*
X24338619Y-24369522D01*
X24338619Y-24369522D02*
X24338619Y-24559998D01*
X24338619Y-24559998D02*
X24291000Y-24655236D01*
X24291000Y-24655236D02*
X24195761Y-24702855D01*
X24195761Y-24702855D02*
X24148142Y-24702855D01*
X24148142Y-24702855D02*
X24052904Y-24655236D01*
X24052904Y-24655236D02*
X24005285Y-24559998D01*
X24005285Y-24559998D02*
X24005285Y-24417141D01*
X24005285Y-24417141D02*
X23957666Y-24321903D01*
X23957666Y-24321903D02*
X23862428Y-24274284D01*
X23862428Y-24274284D02*
X23814809Y-24274284D01*
X23814809Y-24274284D02*
X23719571Y-24321903D01*
X23719571Y-24321903D02*
X23671952Y-24417141D01*
X23671952Y-24417141D02*
X23671952Y-24559998D01*
X23671952Y-24559998D02*
X23719571Y-24655236D01*
X24338619Y-25559998D02*
X23338619Y-25559998D01*
X24291000Y-25559998D02*
X24338619Y-25464760D01*
X24338619Y-25464760D02*
X24338619Y-25274284D01*
X24338619Y-25274284D02*
X24291000Y-25179046D01*
X24291000Y-25179046D02*
X24243380Y-25131427D01*
X24243380Y-25131427D02*
X24148142Y-25083808D01*
X24148142Y-25083808D02*
X23862428Y-25083808D01*
X23862428Y-25083808D02*
X23767190Y-25131427D01*
X23767190Y-25131427D02*
X23719571Y-25179046D01*
X23719571Y-25179046D02*
X23671952Y-25274284D01*
X23671952Y-25274284D02*
X23671952Y-25464760D01*
X23671952Y-25464760D02*
X23719571Y-25559998D01*
X24291000Y-26417141D02*
X24338619Y-26321903D01*
X24338619Y-26321903D02*
X24338619Y-26131427D01*
X24338619Y-26131427D02*
X24291000Y-26036189D01*
X24291000Y-26036189D02*
X24195761Y-25988570D01*
X24195761Y-25988570D02*
X23814809Y-25988570D01*
X23814809Y-25988570D02*
X23719571Y-26036189D01*
X23719571Y-26036189D02*
X23671952Y-26131427D01*
X23671952Y-26131427D02*
X23671952Y-26321903D01*
X23671952Y-26321903D02*
X23719571Y-26417141D01*
X23719571Y-26417141D02*
X23814809Y-26464760D01*
X23814809Y-26464760D02*
X23910047Y-26464760D01*
X23910047Y-26464760D02*
X24005285Y-25988570D01*
X24291000Y-27321903D02*
X24338619Y-27226665D01*
X24338619Y-27226665D02*
X24338619Y-27036189D01*
X24338619Y-27036189D02*
X24291000Y-26940951D01*
X24291000Y-26940951D02*
X24243380Y-26893332D01*
X24243380Y-26893332D02*
X24148142Y-26845713D01*
X24148142Y-26845713D02*
X23862428Y-26845713D01*
X23862428Y-26845713D02*
X23767190Y-26893332D01*
X23767190Y-26893332D02*
X23719571Y-26940951D01*
X23719571Y-26940951D02*
X23671952Y-27036189D01*
X23671952Y-27036189D02*
X23671952Y-27226665D01*
X23671952Y-27226665D02*
X23719571Y-27321903D01*
X24338619Y-27750475D02*
X23338619Y-27750475D01*
X23957666Y-27845713D02*
X24338619Y-28131427D01*
X23671952Y-28131427D02*
X24052904Y-27750475D01*
X23433857Y-29274285D02*
X23386238Y-29321904D01*
X23386238Y-29321904D02*
X23338619Y-29417142D01*
X23338619Y-29417142D02*
X23338619Y-29655237D01*
X23338619Y-29655237D02*
X23386238Y-29750475D01*
X23386238Y-29750475D02*
X23433857Y-29798094D01*
X23433857Y-29798094D02*
X23529095Y-29845713D01*
X23529095Y-29845713D02*
X23624333Y-29845713D01*
X23624333Y-29845713D02*
X23767190Y-29798094D01*
X23767190Y-29798094D02*
X24338619Y-29226666D01*
X24338619Y-29226666D02*
X24338619Y-29845713D01*
X24243380Y-30845713D02*
X24291000Y-30798094D01*
X24291000Y-30798094D02*
X24338619Y-30655237D01*
X24338619Y-30655237D02*
X24338619Y-30559999D01*
X24338619Y-30559999D02*
X24291000Y-30417142D01*
X24291000Y-30417142D02*
X24195761Y-30321904D01*
X24195761Y-30321904D02*
X24100523Y-30274285D01*
X24100523Y-30274285D02*
X23910047Y-30226666D01*
X23910047Y-30226666D02*
X23767190Y-30226666D01*
X23767190Y-30226666D02*
X23576714Y-30274285D01*
X23576714Y-30274285D02*
X23481476Y-30321904D01*
X23481476Y-30321904D02*
X23386238Y-30417142D01*
X23386238Y-30417142D02*
X23338619Y-30559999D01*
X23338619Y-30559999D02*
X23338619Y-30655237D01*
X23338619Y-30655237D02*
X23386238Y-30798094D01*
X23386238Y-30798094D02*
X23433857Y-30845713D01*
X24338619Y-32036190D02*
X23671952Y-32036190D01*
X23862428Y-32036190D02*
X23767190Y-32083809D01*
X23767190Y-32083809D02*
X23719571Y-32131428D01*
X23719571Y-32131428D02*
X23671952Y-32226666D01*
X23671952Y-32226666D02*
X23671952Y-32321904D01*
X24291000Y-33036190D02*
X24338619Y-32940952D01*
X24338619Y-32940952D02*
X24338619Y-32750476D01*
X24338619Y-32750476D02*
X24291000Y-32655238D01*
X24291000Y-32655238D02*
X24195761Y-32607619D01*
X24195761Y-32607619D02*
X23814809Y-32607619D01*
X23814809Y-32607619D02*
X23719571Y-32655238D01*
X23719571Y-32655238D02*
X23671952Y-32750476D01*
X23671952Y-32750476D02*
X23671952Y-32940952D01*
X23671952Y-32940952D02*
X23719571Y-33036190D01*
X23719571Y-33036190D02*
X23814809Y-33083809D01*
X23814809Y-33083809D02*
X23910047Y-33083809D01*
X23910047Y-33083809D02*
X24005285Y-32607619D01*
X23671952Y-33512381D02*
X24671952Y-33512381D01*
X23719571Y-33512381D02*
X23671952Y-33607619D01*
X23671952Y-33607619D02*
X23671952Y-33798095D01*
X23671952Y-33798095D02*
X23719571Y-33893333D01*
X23719571Y-33893333D02*
X23767190Y-33940952D01*
X23767190Y-33940952D02*
X23862428Y-33988571D01*
X23862428Y-33988571D02*
X24148142Y-33988571D01*
X24148142Y-33988571D02*
X24243380Y-33940952D01*
X24243380Y-33940952D02*
X24291000Y-33893333D01*
X24291000Y-33893333D02*
X24338619Y-33798095D01*
X24338619Y-33798095D02*
X24338619Y-33607619D01*
X24338619Y-33607619D02*
X24291000Y-33512381D01*
X24338619Y-34417143D02*
X23671952Y-34417143D01*
X23862428Y-34417143D02*
X23767190Y-34464762D01*
X23767190Y-34464762D02*
X23719571Y-34512381D01*
X23719571Y-34512381D02*
X23671952Y-34607619D01*
X23671952Y-34607619D02*
X23671952Y-34702857D01*
X24338619Y-35179048D02*
X24291000Y-35083810D01*
X24291000Y-35083810D02*
X24243380Y-35036191D01*
X24243380Y-35036191D02*
X24148142Y-34988572D01*
X24148142Y-34988572D02*
X23862428Y-34988572D01*
X23862428Y-34988572D02*
X23767190Y-35036191D01*
X23767190Y-35036191D02*
X23719571Y-35083810D01*
X23719571Y-35083810D02*
X23671952Y-35179048D01*
X23671952Y-35179048D02*
X23671952Y-35321905D01*
X23671952Y-35321905D02*
X23719571Y-35417143D01*
X23719571Y-35417143D02*
X23767190Y-35464762D01*
X23767190Y-35464762D02*
X23862428Y-35512381D01*
X23862428Y-35512381D02*
X24148142Y-35512381D01*
X24148142Y-35512381D02*
X24243380Y-35464762D01*
X24243380Y-35464762D02*
X24291000Y-35417143D01*
X24291000Y-35417143D02*
X24338619Y-35321905D01*
X24338619Y-35321905D02*
X24338619Y-35179048D01*
X24338619Y-36369524D02*
X23338619Y-36369524D01*
X24291000Y-36369524D02*
X24338619Y-36274286D01*
X24338619Y-36274286D02*
X24338619Y-36083810D01*
X24338619Y-36083810D02*
X24291000Y-35988572D01*
X24291000Y-35988572D02*
X24243380Y-35940953D01*
X24243380Y-35940953D02*
X24148142Y-35893334D01*
X24148142Y-35893334D02*
X23862428Y-35893334D01*
X23862428Y-35893334D02*
X23767190Y-35940953D01*
X23767190Y-35940953D02*
X23719571Y-35988572D01*
X23719571Y-35988572D02*
X23671952Y-36083810D01*
X23671952Y-36083810D02*
X23671952Y-36274286D01*
X23671952Y-36274286D02*
X23719571Y-36369524D01*
X23671952Y-37274286D02*
X24338619Y-37274286D01*
X23671952Y-36845715D02*
X24195761Y-36845715D01*
X24195761Y-36845715D02*
X24291000Y-36893334D01*
X24291000Y-36893334D02*
X24338619Y-36988572D01*
X24338619Y-36988572D02*
X24338619Y-37131429D01*
X24338619Y-37131429D02*
X24291000Y-37226667D01*
X24291000Y-37226667D02*
X24243380Y-37274286D01*
X24291000Y-38179048D02*
X24338619Y-38083810D01*
X24338619Y-38083810D02*
X24338619Y-37893334D01*
X24338619Y-37893334D02*
X24291000Y-37798096D01*
X24291000Y-37798096D02*
X24243380Y-37750477D01*
X24243380Y-37750477D02*
X24148142Y-37702858D01*
X24148142Y-37702858D02*
X23862428Y-37702858D01*
X23862428Y-37702858D02*
X23767190Y-37750477D01*
X23767190Y-37750477D02*
X23719571Y-37798096D01*
X23719571Y-37798096D02*
X23671952Y-37893334D01*
X23671952Y-37893334D02*
X23671952Y-38083810D01*
X23671952Y-38083810D02*
X23719571Y-38179048D01*
X23671952Y-38464763D02*
X23671952Y-38845715D01*
X23338619Y-38607620D02*
X24195761Y-38607620D01*
X24195761Y-38607620D02*
X24291000Y-38655239D01*
X24291000Y-38655239D02*
X24338619Y-38750477D01*
X24338619Y-38750477D02*
X24338619Y-38845715D01*
X24338619Y-39179049D02*
X23671952Y-39179049D01*
X23338619Y-39179049D02*
X23386238Y-39131430D01*
X23386238Y-39131430D02*
X23433857Y-39179049D01*
X23433857Y-39179049D02*
X23386238Y-39226668D01*
X23386238Y-39226668D02*
X23338619Y-39179049D01*
X23338619Y-39179049D02*
X23433857Y-39179049D01*
X24338619Y-39798096D02*
X24291000Y-39702858D01*
X24291000Y-39702858D02*
X24243380Y-39655239D01*
X24243380Y-39655239D02*
X24148142Y-39607620D01*
X24148142Y-39607620D02*
X23862428Y-39607620D01*
X23862428Y-39607620D02*
X23767190Y-39655239D01*
X23767190Y-39655239D02*
X23719571Y-39702858D01*
X23719571Y-39702858D02*
X23671952Y-39798096D01*
X23671952Y-39798096D02*
X23671952Y-39940953D01*
X23671952Y-39940953D02*
X23719571Y-40036191D01*
X23719571Y-40036191D02*
X23767190Y-40083810D01*
X23767190Y-40083810D02*
X23862428Y-40131429D01*
X23862428Y-40131429D02*
X24148142Y-40131429D01*
X24148142Y-40131429D02*
X24243380Y-40083810D01*
X24243380Y-40083810D02*
X24291000Y-40036191D01*
X24291000Y-40036191D02*
X24338619Y-39940953D01*
X24338619Y-39940953D02*
X24338619Y-39798096D01*
X23671952Y-40560001D02*
X24338619Y-40560001D01*
X23767190Y-40560001D02*
X23719571Y-40607620D01*
X23719571Y-40607620D02*
X23671952Y-40702858D01*
X23671952Y-40702858D02*
X23671952Y-40845715D01*
X23671952Y-40845715D02*
X23719571Y-40940953D01*
X23719571Y-40940953D02*
X23814809Y-40988572D01*
X23814809Y-40988572D02*
X24338619Y-40988572D01*
X24338619Y-42226668D02*
X23338619Y-42226668D01*
X23338619Y-42226668D02*
X23338619Y-42607620D01*
X23338619Y-42607620D02*
X23386238Y-42702858D01*
X23386238Y-42702858D02*
X23433857Y-42750477D01*
X23433857Y-42750477D02*
X23529095Y-42798096D01*
X23529095Y-42798096D02*
X23671952Y-42798096D01*
X23671952Y-42798096D02*
X23767190Y-42750477D01*
X23767190Y-42750477D02*
X23814809Y-42702858D01*
X23814809Y-42702858D02*
X23862428Y-42607620D01*
X23862428Y-42607620D02*
X23862428Y-42226668D01*
X24243380Y-43798096D02*
X24291000Y-43750477D01*
X24291000Y-43750477D02*
X24338619Y-43607620D01*
X24338619Y-43607620D02*
X24338619Y-43512382D01*
X24338619Y-43512382D02*
X24291000Y-43369525D01*
X24291000Y-43369525D02*
X24195761Y-43274287D01*
X24195761Y-43274287D02*
X24100523Y-43226668D01*
X24100523Y-43226668D02*
X23910047Y-43179049D01*
X23910047Y-43179049D02*
X23767190Y-43179049D01*
X23767190Y-43179049D02*
X23576714Y-43226668D01*
X23576714Y-43226668D02*
X23481476Y-43274287D01*
X23481476Y-43274287D02*
X23386238Y-43369525D01*
X23386238Y-43369525D02*
X23338619Y-43512382D01*
X23338619Y-43512382D02*
X23338619Y-43607620D01*
X23338619Y-43607620D02*
X23386238Y-43750477D01*
X23386238Y-43750477D02*
X23433857Y-43798096D01*
X24338619Y-44226668D02*
X23338619Y-44226668D01*
X24291000Y-45417144D02*
X24338619Y-45512382D01*
X24338619Y-45512382D02*
X24338619Y-45702858D01*
X24338619Y-45702858D02*
X24291000Y-45798096D01*
X24291000Y-45798096D02*
X24195761Y-45845715D01*
X24195761Y-45845715D02*
X24148142Y-45845715D01*
X24148142Y-45845715D02*
X24052904Y-45798096D01*
X24052904Y-45798096D02*
X24005285Y-45702858D01*
X24005285Y-45702858D02*
X24005285Y-45560001D01*
X24005285Y-45560001D02*
X23957666Y-45464763D01*
X23957666Y-45464763D02*
X23862428Y-45417144D01*
X23862428Y-45417144D02*
X23814809Y-45417144D01*
X23814809Y-45417144D02*
X23719571Y-45464763D01*
X23719571Y-45464763D02*
X23671952Y-45560001D01*
X23671952Y-45560001D02*
X23671952Y-45702858D01*
X23671952Y-45702858D02*
X23719571Y-45798096D01*
X24338619Y-46417144D02*
X24291000Y-46321906D01*
X24291000Y-46321906D02*
X24195761Y-46274287D01*
X24195761Y-46274287D02*
X23338619Y-46274287D01*
X24338619Y-46940954D02*
X24291000Y-46845716D01*
X24291000Y-46845716D02*
X24243380Y-46798097D01*
X24243380Y-46798097D02*
X24148142Y-46750478D01*
X24148142Y-46750478D02*
X23862428Y-46750478D01*
X23862428Y-46750478D02*
X23767190Y-46798097D01*
X23767190Y-46798097D02*
X23719571Y-46845716D01*
X23719571Y-46845716D02*
X23671952Y-46940954D01*
X23671952Y-46940954D02*
X23671952Y-47083811D01*
X23671952Y-47083811D02*
X23719571Y-47179049D01*
X23719571Y-47179049D02*
X23767190Y-47226668D01*
X23767190Y-47226668D02*
X23862428Y-47274287D01*
X23862428Y-47274287D02*
X24148142Y-47274287D01*
X24148142Y-47274287D02*
X24243380Y-47226668D01*
X24243380Y-47226668D02*
X24291000Y-47179049D01*
X24291000Y-47179049D02*
X24338619Y-47083811D01*
X24338619Y-47083811D02*
X24338619Y-46940954D01*
X23671952Y-47560002D02*
X23671952Y-47940954D01*
X23338619Y-47702859D02*
X24195761Y-47702859D01*
X24195761Y-47702859D02*
X24291000Y-47750478D01*
X24291000Y-47750478D02*
X24338619Y-47845716D01*
X24338619Y-47845716D02*
X24338619Y-47940954D01*
X24338619Y-49036193D02*
X23338619Y-49036193D01*
X23719571Y-49036193D02*
X23671952Y-49131431D01*
X23671952Y-49131431D02*
X23671952Y-49321907D01*
X23671952Y-49321907D02*
X23719571Y-49417145D01*
X23719571Y-49417145D02*
X23767190Y-49464764D01*
X23767190Y-49464764D02*
X23862428Y-49512383D01*
X23862428Y-49512383D02*
X24148142Y-49512383D01*
X24148142Y-49512383D02*
X24243380Y-49464764D01*
X24243380Y-49464764D02*
X24291000Y-49417145D01*
X24291000Y-49417145D02*
X24338619Y-49321907D01*
X24338619Y-49321907D02*
X24338619Y-49131431D01*
X24338619Y-49131431D02*
X24291000Y-49036193D01*
X24338619Y-50083812D02*
X24291000Y-49988574D01*
X24291000Y-49988574D02*
X24243380Y-49940955D01*
X24243380Y-49940955D02*
X24148142Y-49893336D01*
X24148142Y-49893336D02*
X23862428Y-49893336D01*
X23862428Y-49893336D02*
X23767190Y-49940955D01*
X23767190Y-49940955D02*
X23719571Y-49988574D01*
X23719571Y-49988574D02*
X23671952Y-50083812D01*
X23671952Y-50083812D02*
X23671952Y-50226669D01*
X23671952Y-50226669D02*
X23719571Y-50321907D01*
X23719571Y-50321907D02*
X23767190Y-50369526D01*
X23767190Y-50369526D02*
X23862428Y-50417145D01*
X23862428Y-50417145D02*
X24148142Y-50417145D01*
X24148142Y-50417145D02*
X24243380Y-50369526D01*
X24243380Y-50369526D02*
X24291000Y-50321907D01*
X24291000Y-50321907D02*
X24338619Y-50226669D01*
X24338619Y-50226669D02*
X24338619Y-50083812D01*
X24338619Y-51274288D02*
X23814809Y-51274288D01*
X23814809Y-51274288D02*
X23719571Y-51226669D01*
X23719571Y-51226669D02*
X23671952Y-51131431D01*
X23671952Y-51131431D02*
X23671952Y-50940955D01*
X23671952Y-50940955D02*
X23719571Y-50845717D01*
X24291000Y-51274288D02*
X24338619Y-51179050D01*
X24338619Y-51179050D02*
X24338619Y-50940955D01*
X24338619Y-50940955D02*
X24291000Y-50845717D01*
X24291000Y-50845717D02*
X24195761Y-50798098D01*
X24195761Y-50798098D02*
X24100523Y-50798098D01*
X24100523Y-50798098D02*
X24005285Y-50845717D01*
X24005285Y-50845717D02*
X23957666Y-50940955D01*
X23957666Y-50940955D02*
X23957666Y-51179050D01*
X23957666Y-51179050D02*
X23910047Y-51274288D01*
X24338619Y-51750479D02*
X23671952Y-51750479D01*
X23862428Y-51750479D02*
X23767190Y-51798098D01*
X23767190Y-51798098D02*
X23719571Y-51845717D01*
X23719571Y-51845717D02*
X23671952Y-51940955D01*
X23671952Y-51940955D02*
X23671952Y-52036193D01*
X24338619Y-52798098D02*
X23338619Y-52798098D01*
X24291000Y-52798098D02*
X24338619Y-52702860D01*
X24338619Y-52702860D02*
X24338619Y-52512384D01*
X24338619Y-52512384D02*
X24291000Y-52417146D01*
X24291000Y-52417146D02*
X24243380Y-52369527D01*
X24243380Y-52369527D02*
X24148142Y-52321908D01*
X24148142Y-52321908D02*
X23862428Y-52321908D01*
X23862428Y-52321908D02*
X23767190Y-52369527D01*
X23767190Y-52369527D02*
X23719571Y-52417146D01*
X23719571Y-52417146D02*
X23671952Y-52512384D01*
X23671952Y-52512384D02*
X23671952Y-52702860D01*
X23671952Y-52702860D02*
X23719571Y-52798098D01*
D10*
X2195500Y-34503334D02*
X2228833Y-34603334D01*
X2228833Y-34603334D02*
X2228833Y-34770001D01*
X2228833Y-34770001D02*
X2195500Y-34836667D01*
X2195500Y-34836667D02*
X2162166Y-34870001D01*
X2162166Y-34870001D02*
X2095500Y-34903334D01*
X2095500Y-34903334D02*
X2028833Y-34903334D01*
X2028833Y-34903334D02*
X1962166Y-34870001D01*
X1962166Y-34870001D02*
X1928833Y-34836667D01*
X1928833Y-34836667D02*
X1895500Y-34770001D01*
X1895500Y-34770001D02*
X1862166Y-34636667D01*
X1862166Y-34636667D02*
X1828833Y-34570001D01*
X1828833Y-34570001D02*
X1795500Y-34536667D01*
X1795500Y-34536667D02*
X1728833Y-34503334D01*
X1728833Y-34503334D02*
X1662166Y-34503334D01*
X1662166Y-34503334D02*
X1595500Y-34536667D01*
X1595500Y-34536667D02*
X1562166Y-34570001D01*
X1562166Y-34570001D02*
X1528833Y-34636667D01*
X1528833Y-34636667D02*
X1528833Y-34803334D01*
X1528833Y-34803334D02*
X1562166Y-34903334D01*
X1762166Y-35203334D02*
X2462166Y-35203334D01*
X1795500Y-35203334D02*
X1762166Y-35270001D01*
X1762166Y-35270001D02*
X1762166Y-35403334D01*
X1762166Y-35403334D02*
X1795500Y-35470001D01*
X1795500Y-35470001D02*
X1828833Y-35503334D01*
X1828833Y-35503334D02*
X1895500Y-35536668D01*
X1895500Y-35536668D02*
X2095500Y-35536668D01*
X2095500Y-35536668D02*
X2162166Y-35503334D01*
X2162166Y-35503334D02*
X2195500Y-35470001D01*
X2195500Y-35470001D02*
X2228833Y-35403334D01*
X2228833Y-35403334D02*
X2228833Y-35270001D01*
X2228833Y-35270001D02*
X2195500Y-35203334D01*
X2195500Y-36103334D02*
X2228833Y-36036667D01*
X2228833Y-36036667D02*
X2228833Y-35903334D01*
X2228833Y-35903334D02*
X2195500Y-35836667D01*
X2195500Y-35836667D02*
X2128833Y-35803334D01*
X2128833Y-35803334D02*
X1862166Y-35803334D01*
X1862166Y-35803334D02*
X1795500Y-35836667D01*
X1795500Y-35836667D02*
X1762166Y-35903334D01*
X1762166Y-35903334D02*
X1762166Y-36036667D01*
X1762166Y-36036667D02*
X1795500Y-36103334D01*
X1795500Y-36103334D02*
X1862166Y-36136667D01*
X1862166Y-36136667D02*
X1928833Y-36136667D01*
X1928833Y-36136667D02*
X1995500Y-35803334D01*
X2228833Y-36736667D02*
X1862166Y-36736667D01*
X1862166Y-36736667D02*
X1795500Y-36703334D01*
X1795500Y-36703334D02*
X1762166Y-36636667D01*
X1762166Y-36636667D02*
X1762166Y-36503334D01*
X1762166Y-36503334D02*
X1795500Y-36436667D01*
X2195500Y-36736667D02*
X2228833Y-36670001D01*
X2228833Y-36670001D02*
X2228833Y-36503334D01*
X2228833Y-36503334D02*
X2195500Y-36436667D01*
X2195500Y-36436667D02*
X2128833Y-36403334D01*
X2128833Y-36403334D02*
X2062166Y-36403334D01*
X2062166Y-36403334D02*
X1995500Y-36436667D01*
X1995500Y-36436667D02*
X1962166Y-36503334D01*
X1962166Y-36503334D02*
X1962166Y-36670001D01*
X1962166Y-36670001D02*
X1928833Y-36736667D01*
X2228833Y-37070000D02*
X1528833Y-37070000D01*
X1962166Y-37136667D02*
X2228833Y-37336667D01*
X1762166Y-37336667D02*
X2028833Y-37070000D01*
X2195500Y-37903334D02*
X2228833Y-37836667D01*
X2228833Y-37836667D02*
X2228833Y-37703334D01*
X2228833Y-37703334D02*
X2195500Y-37636667D01*
X2195500Y-37636667D02*
X2128833Y-37603334D01*
X2128833Y-37603334D02*
X1862166Y-37603334D01*
X1862166Y-37603334D02*
X1795500Y-37636667D01*
X1795500Y-37636667D02*
X1762166Y-37703334D01*
X1762166Y-37703334D02*
X1762166Y-37836667D01*
X1762166Y-37836667D02*
X1795500Y-37903334D01*
X1795500Y-37903334D02*
X1862166Y-37936667D01*
X1862166Y-37936667D02*
X1928833Y-37936667D01*
X1928833Y-37936667D02*
X1995500Y-37603334D01*
X2228833Y-38236667D02*
X1762166Y-38236667D01*
X1895500Y-38236667D02*
X1828833Y-38270001D01*
X1828833Y-38270001D02*
X1795500Y-38303334D01*
X1795500Y-38303334D02*
X1762166Y-38370001D01*
X1762166Y-38370001D02*
X1762166Y-38436667D01*
X2228833Y-39203333D02*
X1762166Y-39203333D01*
X1528833Y-39203333D02*
X1562166Y-39170000D01*
X1562166Y-39170000D02*
X1595500Y-39203333D01*
X1595500Y-39203333D02*
X1562166Y-39236667D01*
X1562166Y-39236667D02*
X1528833Y-39203333D01*
X1528833Y-39203333D02*
X1595500Y-39203333D01*
X1762166Y-39536666D02*
X2228833Y-39536666D01*
X1828833Y-39536666D02*
X1795500Y-39570000D01*
X1795500Y-39570000D02*
X1762166Y-39636666D01*
X1762166Y-39636666D02*
X1762166Y-39736666D01*
X1762166Y-39736666D02*
X1795500Y-39803333D01*
X1795500Y-39803333D02*
X1862166Y-39836666D01*
X1862166Y-39836666D02*
X2228833Y-39836666D01*
X2495500Y-40903332D02*
X2462166Y-40869999D01*
X2462166Y-40869999D02*
X2362166Y-40803332D01*
X2362166Y-40803332D02*
X2295500Y-40769999D01*
X2295500Y-40769999D02*
X2195500Y-40736666D01*
X2195500Y-40736666D02*
X2028833Y-40703332D01*
X2028833Y-40703332D02*
X1895500Y-40703332D01*
X1895500Y-40703332D02*
X1728833Y-40736666D01*
X1728833Y-40736666D02*
X1628833Y-40769999D01*
X1628833Y-40769999D02*
X1562166Y-40803332D01*
X1562166Y-40803332D02*
X1462166Y-40869999D01*
X1462166Y-40869999D02*
X1428833Y-40903332D01*
X1762166Y-41469999D02*
X2328833Y-41469999D01*
X2328833Y-41469999D02*
X2395500Y-41436666D01*
X2395500Y-41436666D02*
X2428833Y-41403333D01*
X2428833Y-41403333D02*
X2462166Y-41336666D01*
X2462166Y-41336666D02*
X2462166Y-41236666D01*
X2462166Y-41236666D02*
X2428833Y-41169999D01*
X2195500Y-41469999D02*
X2228833Y-41403333D01*
X2228833Y-41403333D02*
X2228833Y-41269999D01*
X2228833Y-41269999D02*
X2195500Y-41203333D01*
X2195500Y-41203333D02*
X2162166Y-41169999D01*
X2162166Y-41169999D02*
X2095500Y-41136666D01*
X2095500Y-41136666D02*
X1895500Y-41136666D01*
X1895500Y-41136666D02*
X1828833Y-41169999D01*
X1828833Y-41169999D02*
X1795500Y-41203333D01*
X1795500Y-41203333D02*
X1762166Y-41269999D01*
X1762166Y-41269999D02*
X1762166Y-41403333D01*
X1762166Y-41403333D02*
X1795500Y-41469999D01*
X2228833Y-41803332D02*
X1762166Y-41803332D01*
X1895500Y-41803332D02*
X1828833Y-41836666D01*
X1828833Y-41836666D02*
X1795500Y-41869999D01*
X1795500Y-41869999D02*
X1762166Y-41936666D01*
X1762166Y-41936666D02*
X1762166Y-42003332D01*
X2195500Y-42503332D02*
X2228833Y-42436665D01*
X2228833Y-42436665D02*
X2228833Y-42303332D01*
X2228833Y-42303332D02*
X2195500Y-42236665D01*
X2195500Y-42236665D02*
X2128833Y-42203332D01*
X2128833Y-42203332D02*
X1862166Y-42203332D01*
X1862166Y-42203332D02*
X1795500Y-42236665D01*
X1795500Y-42236665D02*
X1762166Y-42303332D01*
X1762166Y-42303332D02*
X1762166Y-42436665D01*
X1762166Y-42436665D02*
X1795500Y-42503332D01*
X1795500Y-42503332D02*
X1862166Y-42536665D01*
X1862166Y-42536665D02*
X1928833Y-42536665D01*
X1928833Y-42536665D02*
X1995500Y-42203332D01*
X2195500Y-43103332D02*
X2228833Y-43036665D01*
X2228833Y-43036665D02*
X2228833Y-42903332D01*
X2228833Y-42903332D02*
X2195500Y-42836665D01*
X2195500Y-42836665D02*
X2128833Y-42803332D01*
X2128833Y-42803332D02*
X1862166Y-42803332D01*
X1862166Y-42803332D02*
X1795500Y-42836665D01*
X1795500Y-42836665D02*
X1762166Y-42903332D01*
X1762166Y-42903332D02*
X1762166Y-43036665D01*
X1762166Y-43036665D02*
X1795500Y-43103332D01*
X1795500Y-43103332D02*
X1862166Y-43136665D01*
X1862166Y-43136665D02*
X1928833Y-43136665D01*
X1928833Y-43136665D02*
X1995500Y-42803332D01*
X1762166Y-43436665D02*
X2228833Y-43436665D01*
X1828833Y-43436665D02*
X1795500Y-43469999D01*
X1795500Y-43469999D02*
X1762166Y-43536665D01*
X1762166Y-43536665D02*
X1762166Y-43636665D01*
X1762166Y-43636665D02*
X1795500Y-43703332D01*
X1795500Y-43703332D02*
X1862166Y-43736665D01*
X1862166Y-43736665D02*
X2228833Y-43736665D01*
X2495500Y-44003332D02*
X2462166Y-44036665D01*
X2462166Y-44036665D02*
X2362166Y-44103332D01*
X2362166Y-44103332D02*
X2295500Y-44136665D01*
X2295500Y-44136665D02*
X2195500Y-44169998D01*
X2195500Y-44169998D02*
X2028833Y-44203332D01*
X2028833Y-44203332D02*
X1895500Y-44203332D01*
X1895500Y-44203332D02*
X1728833Y-44169998D01*
X1728833Y-44169998D02*
X1628833Y-44136665D01*
X1628833Y-44136665D02*
X1562166Y-44103332D01*
X1562166Y-44103332D02*
X1462166Y-44036665D01*
X1462166Y-44036665D02*
X1428833Y-44003332D01*
X13933332Y-31873833D02*
X13599999Y-31873833D01*
X13999999Y-32073833D02*
X13766666Y-31373833D01*
X13766666Y-31373833D02*
X13533332Y-32073833D01*
X12933332Y-31407166D02*
X12999999Y-31373833D01*
X12999999Y-31373833D02*
X13099999Y-31373833D01*
X13099999Y-31373833D02*
X13199999Y-31407166D01*
X13199999Y-31407166D02*
X13266666Y-31473833D01*
X13266666Y-31473833D02*
X13299999Y-31540500D01*
X13299999Y-31540500D02*
X13333332Y-31673833D01*
X13333332Y-31673833D02*
X13333332Y-31773833D01*
X13333332Y-31773833D02*
X13299999Y-31907166D01*
X13299999Y-31907166D02*
X13266666Y-31973833D01*
X13266666Y-31973833D02*
X13199999Y-32040500D01*
X13199999Y-32040500D02*
X13099999Y-32073833D01*
X13099999Y-32073833D02*
X13033332Y-32073833D01*
X13033332Y-32073833D02*
X12933332Y-32040500D01*
X12933332Y-32040500D02*
X12899999Y-32007166D01*
X12899999Y-32007166D02*
X12899999Y-31773833D01*
X12899999Y-31773833D02*
X13033332Y-31773833D01*
X12599999Y-32073833D02*
X12599999Y-31373833D01*
X12599999Y-31373833D02*
X12199999Y-32073833D01*
X12199999Y-32073833D02*
X12199999Y-31373833D01*
X11866666Y-32073833D02*
X11866666Y-31373833D01*
X11866666Y-31373833D02*
X11699999Y-31373833D01*
X11699999Y-31373833D02*
X11599999Y-31407166D01*
X11599999Y-31407166D02*
X11533333Y-31473833D01*
X11533333Y-31473833D02*
X11499999Y-31540500D01*
X11499999Y-31540500D02*
X11466666Y-31673833D01*
X11466666Y-31673833D02*
X11466666Y-31773833D01*
X11466666Y-31773833D02*
X11499999Y-31907166D01*
X11499999Y-31907166D02*
X11533333Y-31973833D01*
X11533333Y-31973833D02*
X11599999Y-32040500D01*
X11599999Y-32040500D02*
X11699999Y-32073833D01*
X11699999Y-32073833D02*
X11866666Y-32073833D01*
X22188332Y-34413833D02*
X21854999Y-34413833D01*
X22254999Y-34613833D02*
X22021666Y-33913833D01*
X22021666Y-33913833D02*
X21788332Y-34613833D01*
X21188332Y-33947166D02*
X21254999Y-33913833D01*
X21254999Y-33913833D02*
X21354999Y-33913833D01*
X21354999Y-33913833D02*
X21454999Y-33947166D01*
X21454999Y-33947166D02*
X21521666Y-34013833D01*
X21521666Y-34013833D02*
X21554999Y-34080500D01*
X21554999Y-34080500D02*
X21588332Y-34213833D01*
X21588332Y-34213833D02*
X21588332Y-34313833D01*
X21588332Y-34313833D02*
X21554999Y-34447166D01*
X21554999Y-34447166D02*
X21521666Y-34513833D01*
X21521666Y-34513833D02*
X21454999Y-34580500D01*
X21454999Y-34580500D02*
X21354999Y-34613833D01*
X21354999Y-34613833D02*
X21288332Y-34613833D01*
X21288332Y-34613833D02*
X21188332Y-34580500D01*
X21188332Y-34580500D02*
X21154999Y-34547166D01*
X21154999Y-34547166D02*
X21154999Y-34313833D01*
X21154999Y-34313833D02*
X21288332Y-34313833D01*
X20854999Y-34613833D02*
X20854999Y-33913833D01*
X20854999Y-33913833D02*
X20454999Y-34613833D01*
X20454999Y-34613833D02*
X20454999Y-33913833D01*
X20121666Y-34613833D02*
X20121666Y-33913833D01*
X20121666Y-33913833D02*
X19954999Y-33913833D01*
X19954999Y-33913833D02*
X19854999Y-33947166D01*
X19854999Y-33947166D02*
X19788333Y-34013833D01*
X19788333Y-34013833D02*
X19754999Y-34080500D01*
X19754999Y-34080500D02*
X19721666Y-34213833D01*
X19721666Y-34213833D02*
X19721666Y-34313833D01*
X19721666Y-34313833D02*
X19754999Y-34447166D01*
X19754999Y-34447166D02*
X19788333Y-34513833D01*
X19788333Y-34513833D02*
X19854999Y-34580500D01*
X19854999Y-34580500D02*
X19954999Y-34613833D01*
X19954999Y-34613833D02*
X20121666Y-34613833D01*
X21838333Y-29533833D02*
X22171666Y-29533833D01*
X22171666Y-29533833D02*
X22171666Y-28833833D01*
X21604999Y-29533833D02*
X21604999Y-29067166D01*
X21604999Y-28833833D02*
X21638332Y-28867166D01*
X21638332Y-28867166D02*
X21604999Y-28900500D01*
X21604999Y-28900500D02*
X21571666Y-28867166D01*
X21571666Y-28867166D02*
X21604999Y-28833833D01*
X21604999Y-28833833D02*
X21604999Y-28900500D01*
X21271666Y-29067166D02*
X21271666Y-29533833D01*
X21271666Y-29133833D02*
X21238333Y-29100500D01*
X21238333Y-29100500D02*
X21171666Y-29067166D01*
X21171666Y-29067166D02*
X21071666Y-29067166D01*
X21071666Y-29067166D02*
X21004999Y-29100500D01*
X21004999Y-29100500D02*
X20971666Y-29167166D01*
X20971666Y-29167166D02*
X20971666Y-29533833D01*
X19705000Y-29533833D02*
X19938333Y-29200500D01*
X20105000Y-29533833D02*
X20105000Y-28833833D01*
X20105000Y-28833833D02*
X19838333Y-28833833D01*
X19838333Y-28833833D02*
X19771667Y-28867166D01*
X19771667Y-28867166D02*
X19738333Y-28900500D01*
X19738333Y-28900500D02*
X19705000Y-28967166D01*
X19705000Y-28967166D02*
X19705000Y-29067166D01*
X19705000Y-29067166D02*
X19738333Y-29133833D01*
X19738333Y-29133833D02*
X19771667Y-29167166D01*
X19771667Y-29167166D02*
X19838333Y-29200500D01*
X19838333Y-29200500D02*
X20105000Y-29200500D01*
X13516666Y-29533833D02*
X13849999Y-29533833D01*
X13849999Y-29533833D02*
X13849999Y-28833833D01*
X13283332Y-29533833D02*
X13283332Y-29067166D01*
X13283332Y-28833833D02*
X13316665Y-28867166D01*
X13316665Y-28867166D02*
X13283332Y-28900500D01*
X13283332Y-28900500D02*
X13249999Y-28867166D01*
X13249999Y-28867166D02*
X13283332Y-28833833D01*
X13283332Y-28833833D02*
X13283332Y-28900500D01*
X12949999Y-29067166D02*
X12949999Y-29533833D01*
X12949999Y-29133833D02*
X12916666Y-29100500D01*
X12916666Y-29100500D02*
X12849999Y-29067166D01*
X12849999Y-29067166D02*
X12749999Y-29067166D01*
X12749999Y-29067166D02*
X12683332Y-29100500D01*
X12683332Y-29100500D02*
X12649999Y-29167166D01*
X12649999Y-29167166D02*
X12649999Y-29533833D01*
X11450000Y-29533833D02*
X11783333Y-29533833D01*
X11783333Y-29533833D02*
X11783333Y-28833833D01*
X22188332Y-32040500D02*
X22088332Y-32073833D01*
X22088332Y-32073833D02*
X21921666Y-32073833D01*
X21921666Y-32073833D02*
X21854999Y-32040500D01*
X21854999Y-32040500D02*
X21821666Y-32007166D01*
X21821666Y-32007166D02*
X21788332Y-31940500D01*
X21788332Y-31940500D02*
X21788332Y-31873833D01*
X21788332Y-31873833D02*
X21821666Y-31807166D01*
X21821666Y-31807166D02*
X21854999Y-31773833D01*
X21854999Y-31773833D02*
X21921666Y-31740500D01*
X21921666Y-31740500D02*
X22054999Y-31707166D01*
X22054999Y-31707166D02*
X22121666Y-31673833D01*
X22121666Y-31673833D02*
X22154999Y-31640500D01*
X22154999Y-31640500D02*
X22188332Y-31573833D01*
X22188332Y-31573833D02*
X22188332Y-31507166D01*
X22188332Y-31507166D02*
X22154999Y-31440500D01*
X22154999Y-31440500D02*
X22121666Y-31407166D01*
X22121666Y-31407166D02*
X22054999Y-31373833D01*
X22054999Y-31373833D02*
X21888332Y-31373833D01*
X21888332Y-31373833D02*
X21788332Y-31407166D01*
X21488332Y-32073833D02*
X21488332Y-31607166D01*
X21488332Y-31373833D02*
X21521665Y-31407166D01*
X21521665Y-31407166D02*
X21488332Y-31440500D01*
X21488332Y-31440500D02*
X21454999Y-31407166D01*
X21454999Y-31407166D02*
X21488332Y-31373833D01*
X21488332Y-31373833D02*
X21488332Y-31440500D01*
X21154999Y-31607166D02*
X21154999Y-32073833D01*
X21154999Y-31673833D02*
X21121666Y-31640500D01*
X21121666Y-31640500D02*
X21054999Y-31607166D01*
X21054999Y-31607166D02*
X20954999Y-31607166D01*
X20954999Y-31607166D02*
X20888332Y-31640500D01*
X20888332Y-31640500D02*
X20854999Y-31707166D01*
X20854999Y-31707166D02*
X20854999Y-32073833D01*
X19655000Y-32073833D02*
X19988333Y-32073833D01*
X19988333Y-32073833D02*
X19988333Y-31373833D01*
D11*
X14432619Y-76232856D02*
X13908809Y-76232856D01*
X13908809Y-76232856D02*
X13813571Y-76185237D01*
X13813571Y-76185237D02*
X13765952Y-76089999D01*
X13765952Y-76089999D02*
X13765952Y-75899523D01*
X13765952Y-75899523D02*
X13813571Y-75804285D01*
X14385000Y-76232856D02*
X14432619Y-76137618D01*
X14432619Y-76137618D02*
X14432619Y-75899523D01*
X14432619Y-75899523D02*
X14385000Y-75804285D01*
X14385000Y-75804285D02*
X14289761Y-75756666D01*
X14289761Y-75756666D02*
X14194523Y-75756666D01*
X14194523Y-75756666D02*
X14099285Y-75804285D01*
X14099285Y-75804285D02*
X14051666Y-75899523D01*
X14051666Y-75899523D02*
X14051666Y-76137618D01*
X14051666Y-76137618D02*
X14004047Y-76232856D01*
X14432619Y-76709047D02*
X13432619Y-76709047D01*
X13813571Y-76709047D02*
X13765952Y-76804285D01*
X13765952Y-76804285D02*
X13765952Y-76994761D01*
X13765952Y-76994761D02*
X13813571Y-77089999D01*
X13813571Y-77089999D02*
X13861190Y-77137618D01*
X13861190Y-77137618D02*
X13956428Y-77185237D01*
X13956428Y-77185237D02*
X14242142Y-77185237D01*
X14242142Y-77185237D02*
X14337380Y-77137618D01*
X14337380Y-77137618D02*
X14385000Y-77089999D01*
X14385000Y-77089999D02*
X14432619Y-76994761D01*
X14432619Y-76994761D02*
X14432619Y-76804285D01*
X14432619Y-76804285D02*
X14385000Y-76709047D01*
X13765952Y-77518571D02*
X13765952Y-78042380D01*
X13765952Y-78042380D02*
X14432619Y-77518571D01*
X14432619Y-77518571D02*
X14432619Y-78042380D01*
X14432619Y-78423333D02*
X13765952Y-78423333D01*
X13861190Y-78423333D02*
X13813571Y-78470952D01*
X13813571Y-78470952D02*
X13765952Y-78566190D01*
X13765952Y-78566190D02*
X13765952Y-78709047D01*
X13765952Y-78709047D02*
X13813571Y-78804285D01*
X13813571Y-78804285D02*
X13908809Y-78851904D01*
X13908809Y-78851904D02*
X14432619Y-78851904D01*
X13908809Y-78851904D02*
X13813571Y-78899523D01*
X13813571Y-78899523D02*
X13765952Y-78994761D01*
X13765952Y-78994761D02*
X13765952Y-79137618D01*
X13765952Y-79137618D02*
X13813571Y-79232857D01*
X13813571Y-79232857D02*
X13908809Y-79280476D01*
X13908809Y-79280476D02*
X14432619Y-79280476D01*
X14432619Y-80185237D02*
X13908809Y-80185237D01*
X13908809Y-80185237D02*
X13813571Y-80137618D01*
X13813571Y-80137618D02*
X13765952Y-80042380D01*
X13765952Y-80042380D02*
X13765952Y-79851904D01*
X13765952Y-79851904D02*
X13813571Y-79756666D01*
X14385000Y-80185237D02*
X14432619Y-80089999D01*
X14432619Y-80089999D02*
X14432619Y-79851904D01*
X14432619Y-79851904D02*
X14385000Y-79756666D01*
X14385000Y-79756666D02*
X14289761Y-79709047D01*
X14289761Y-79709047D02*
X14194523Y-79709047D01*
X14194523Y-79709047D02*
X14099285Y-79756666D01*
X14099285Y-79756666D02*
X14051666Y-79851904D01*
X14051666Y-79851904D02*
X14051666Y-80089999D01*
X14051666Y-80089999D02*
X14004047Y-80185237D01*
X13765952Y-80661428D02*
X14432619Y-80661428D01*
X13861190Y-80661428D02*
X13813571Y-80709047D01*
X13813571Y-80709047D02*
X13765952Y-80804285D01*
X13765952Y-80804285D02*
X13765952Y-80947142D01*
X13765952Y-80947142D02*
X13813571Y-81042380D01*
X13813571Y-81042380D02*
X13908809Y-81089999D01*
X13908809Y-81089999D02*
X14432619Y-81089999D01*
X13527857Y-81518571D02*
X13480238Y-81566190D01*
X13480238Y-81566190D02*
X13432619Y-81661428D01*
X13432619Y-81661428D02*
X13432619Y-81899523D01*
X13432619Y-81899523D02*
X13480238Y-81994761D01*
X13480238Y-81994761D02*
X13527857Y-82042380D01*
X13527857Y-82042380D02*
X13623095Y-82089999D01*
X13623095Y-82089999D02*
X13718333Y-82089999D01*
X13718333Y-82089999D02*
X13861190Y-82042380D01*
X13861190Y-82042380D02*
X14432619Y-81470952D01*
X14432619Y-81470952D02*
X14432619Y-82089999D01*
X14432619Y-82518571D02*
X13432619Y-82518571D01*
X14051666Y-82613809D02*
X14432619Y-82899523D01*
X13765952Y-82899523D02*
X14146904Y-82518571D01*
X14337380Y-83328095D02*
X14385000Y-83375714D01*
X14385000Y-83375714D02*
X14432619Y-83328095D01*
X14432619Y-83328095D02*
X14385000Y-83280476D01*
X14385000Y-83280476D02*
X14337380Y-83328095D01*
X14337380Y-83328095D02*
X14432619Y-83328095D01*
X13765952Y-83709047D02*
X14432619Y-83899523D01*
X14432619Y-83899523D02*
X13956428Y-84089999D01*
X13956428Y-84089999D02*
X14432619Y-84280475D01*
X14432619Y-84280475D02*
X13765952Y-84470951D01*
X14432619Y-84994761D02*
X14385000Y-84899523D01*
X14385000Y-84899523D02*
X14337380Y-84851904D01*
X14337380Y-84851904D02*
X14242142Y-84804285D01*
X14242142Y-84804285D02*
X13956428Y-84804285D01*
X13956428Y-84804285D02*
X13861190Y-84851904D01*
X13861190Y-84851904D02*
X13813571Y-84899523D01*
X13813571Y-84899523D02*
X13765952Y-84994761D01*
X13765952Y-84994761D02*
X13765952Y-85137618D01*
X13765952Y-85137618D02*
X13813571Y-85232856D01*
X13813571Y-85232856D02*
X13861190Y-85280475D01*
X13861190Y-85280475D02*
X13956428Y-85328094D01*
X13956428Y-85328094D02*
X14242142Y-85328094D01*
X14242142Y-85328094D02*
X14337380Y-85280475D01*
X14337380Y-85280475D02*
X14385000Y-85232856D01*
X14385000Y-85232856D02*
X14432619Y-85137618D01*
X14432619Y-85137618D02*
X14432619Y-84994761D01*
X14432619Y-85756666D02*
X13765952Y-85756666D01*
X13956428Y-85756666D02*
X13861190Y-85804285D01*
X13861190Y-85804285D02*
X13813571Y-85851904D01*
X13813571Y-85851904D02*
X13765952Y-85947142D01*
X13765952Y-85947142D02*
X13765952Y-86042380D01*
X14432619Y-86804285D02*
X13432619Y-86804285D01*
X14385000Y-86804285D02*
X14432619Y-86709047D01*
X14432619Y-86709047D02*
X14432619Y-86518571D01*
X14432619Y-86518571D02*
X14385000Y-86423333D01*
X14385000Y-86423333D02*
X14337380Y-86375714D01*
X14337380Y-86375714D02*
X14242142Y-86328095D01*
X14242142Y-86328095D02*
X13956428Y-86328095D01*
X13956428Y-86328095D02*
X13861190Y-86375714D01*
X13861190Y-86375714D02*
X13813571Y-86423333D01*
X13813571Y-86423333D02*
X13765952Y-86518571D01*
X13765952Y-86518571D02*
X13765952Y-86709047D01*
X13765952Y-86709047D02*
X13813571Y-86804285D01*
X13765952Y-87280476D02*
X14765952Y-87280476D01*
X13813571Y-87280476D02*
X13765952Y-87375714D01*
X13765952Y-87375714D02*
X13765952Y-87566190D01*
X13765952Y-87566190D02*
X13813571Y-87661428D01*
X13813571Y-87661428D02*
X13861190Y-87709047D01*
X13861190Y-87709047D02*
X13956428Y-87756666D01*
X13956428Y-87756666D02*
X14242142Y-87756666D01*
X14242142Y-87756666D02*
X14337380Y-87709047D01*
X14337380Y-87709047D02*
X14385000Y-87661428D01*
X14385000Y-87661428D02*
X14432619Y-87566190D01*
X14432619Y-87566190D02*
X14432619Y-87375714D01*
X14432619Y-87375714D02*
X14385000Y-87280476D01*
X14432619Y-88185238D02*
X13765952Y-88185238D01*
X13956428Y-88185238D02*
X13861190Y-88232857D01*
X13861190Y-88232857D02*
X13813571Y-88280476D01*
X13813571Y-88280476D02*
X13765952Y-88375714D01*
X13765952Y-88375714D02*
X13765952Y-88470952D01*
X14385000Y-89185238D02*
X14432619Y-89090000D01*
X14432619Y-89090000D02*
X14432619Y-88899524D01*
X14432619Y-88899524D02*
X14385000Y-88804286D01*
X14385000Y-88804286D02*
X14289761Y-88756667D01*
X14289761Y-88756667D02*
X13908809Y-88756667D01*
X13908809Y-88756667D02*
X13813571Y-88804286D01*
X13813571Y-88804286D02*
X13765952Y-88899524D01*
X13765952Y-88899524D02*
X13765952Y-89090000D01*
X13765952Y-89090000D02*
X13813571Y-89185238D01*
X13813571Y-89185238D02*
X13908809Y-89232857D01*
X13908809Y-89232857D02*
X14004047Y-89232857D01*
X14004047Y-89232857D02*
X14099285Y-88756667D01*
X14385000Y-89613810D02*
X14432619Y-89709048D01*
X14432619Y-89709048D02*
X14432619Y-89899524D01*
X14432619Y-89899524D02*
X14385000Y-89994762D01*
X14385000Y-89994762D02*
X14289761Y-90042381D01*
X14289761Y-90042381D02*
X14242142Y-90042381D01*
X14242142Y-90042381D02*
X14146904Y-89994762D01*
X14146904Y-89994762D02*
X14099285Y-89899524D01*
X14099285Y-89899524D02*
X14099285Y-89756667D01*
X14099285Y-89756667D02*
X14051666Y-89661429D01*
X14051666Y-89661429D02*
X13956428Y-89613810D01*
X13956428Y-89613810D02*
X13908809Y-89613810D01*
X13908809Y-89613810D02*
X13813571Y-89661429D01*
X13813571Y-89661429D02*
X13765952Y-89756667D01*
X13765952Y-89756667D02*
X13765952Y-89899524D01*
X13765952Y-89899524D02*
X13813571Y-89994762D01*
X14385000Y-90423334D02*
X14432619Y-90518572D01*
X14432619Y-90518572D02*
X14432619Y-90709048D01*
X14432619Y-90709048D02*
X14385000Y-90804286D01*
X14385000Y-90804286D02*
X14289761Y-90851905D01*
X14289761Y-90851905D02*
X14242142Y-90851905D01*
X14242142Y-90851905D02*
X14146904Y-90804286D01*
X14146904Y-90804286D02*
X14099285Y-90709048D01*
X14099285Y-90709048D02*
X14099285Y-90566191D01*
X14099285Y-90566191D02*
X14051666Y-90470953D01*
X14051666Y-90470953D02*
X13956428Y-90423334D01*
X13956428Y-90423334D02*
X13908809Y-90423334D01*
X13908809Y-90423334D02*
X13813571Y-90470953D01*
X13813571Y-90470953D02*
X13765952Y-90566191D01*
X13765952Y-90566191D02*
X13765952Y-90709048D01*
X13765952Y-90709048D02*
X13813571Y-90804286D01*
X14337380Y-91280477D02*
X14385000Y-91328096D01*
X14385000Y-91328096D02*
X14432619Y-91280477D01*
X14432619Y-91280477D02*
X14385000Y-91232858D01*
X14385000Y-91232858D02*
X14337380Y-91280477D01*
X14337380Y-91280477D02*
X14432619Y-91280477D01*
X14385000Y-92185238D02*
X14432619Y-92090000D01*
X14432619Y-92090000D02*
X14432619Y-91899524D01*
X14432619Y-91899524D02*
X14385000Y-91804286D01*
X14385000Y-91804286D02*
X14337380Y-91756667D01*
X14337380Y-91756667D02*
X14242142Y-91709048D01*
X14242142Y-91709048D02*
X13956428Y-91709048D01*
X13956428Y-91709048D02*
X13861190Y-91756667D01*
X13861190Y-91756667D02*
X13813571Y-91804286D01*
X13813571Y-91804286D02*
X13765952Y-91899524D01*
X13765952Y-91899524D02*
X13765952Y-92090000D01*
X13765952Y-92090000D02*
X13813571Y-92185238D01*
X14432619Y-92756667D02*
X14385000Y-92661429D01*
X14385000Y-92661429D02*
X14337380Y-92613810D01*
X14337380Y-92613810D02*
X14242142Y-92566191D01*
X14242142Y-92566191D02*
X13956428Y-92566191D01*
X13956428Y-92566191D02*
X13861190Y-92613810D01*
X13861190Y-92613810D02*
X13813571Y-92661429D01*
X13813571Y-92661429D02*
X13765952Y-92756667D01*
X13765952Y-92756667D02*
X13765952Y-92899524D01*
X13765952Y-92899524D02*
X13813571Y-92994762D01*
X13813571Y-92994762D02*
X13861190Y-93042381D01*
X13861190Y-93042381D02*
X13956428Y-93090000D01*
X13956428Y-93090000D02*
X14242142Y-93090000D01*
X14242142Y-93090000D02*
X14337380Y-93042381D01*
X14337380Y-93042381D02*
X14385000Y-92994762D01*
X14385000Y-92994762D02*
X14432619Y-92899524D01*
X14432619Y-92899524D02*
X14432619Y-92756667D01*
X14432619Y-93518572D02*
X13765952Y-93518572D01*
X13861190Y-93518572D02*
X13813571Y-93566191D01*
X13813571Y-93566191D02*
X13765952Y-93661429D01*
X13765952Y-93661429D02*
X13765952Y-93804286D01*
X13765952Y-93804286D02*
X13813571Y-93899524D01*
X13813571Y-93899524D02*
X13908809Y-93947143D01*
X13908809Y-93947143D02*
X14432619Y-93947143D01*
X13908809Y-93947143D02*
X13813571Y-93994762D01*
X13813571Y-93994762D02*
X13765952Y-94090000D01*
X13765952Y-94090000D02*
X13765952Y-94232857D01*
X13765952Y-94232857D02*
X13813571Y-94328096D01*
X13813571Y-94328096D02*
X13908809Y-94375715D01*
X13908809Y-94375715D02*
X14432619Y-94375715D01*
D10*
X13999999Y-34580500D02*
X13899999Y-34613833D01*
X13899999Y-34613833D02*
X13733333Y-34613833D01*
X13733333Y-34613833D02*
X13666666Y-34580500D01*
X13666666Y-34580500D02*
X13633333Y-34547166D01*
X13633333Y-34547166D02*
X13599999Y-34480500D01*
X13599999Y-34480500D02*
X13599999Y-34413833D01*
X13599999Y-34413833D02*
X13633333Y-34347166D01*
X13633333Y-34347166D02*
X13666666Y-34313833D01*
X13666666Y-34313833D02*
X13733333Y-34280500D01*
X13733333Y-34280500D02*
X13866666Y-34247166D01*
X13866666Y-34247166D02*
X13933333Y-34213833D01*
X13933333Y-34213833D02*
X13966666Y-34180500D01*
X13966666Y-34180500D02*
X13999999Y-34113833D01*
X13999999Y-34113833D02*
X13999999Y-34047166D01*
X13999999Y-34047166D02*
X13966666Y-33980500D01*
X13966666Y-33980500D02*
X13933333Y-33947166D01*
X13933333Y-33947166D02*
X13866666Y-33913833D01*
X13866666Y-33913833D02*
X13699999Y-33913833D01*
X13699999Y-33913833D02*
X13599999Y-33947166D01*
X13299999Y-34613833D02*
X13299999Y-34147166D01*
X13299999Y-33913833D02*
X13333332Y-33947166D01*
X13333332Y-33947166D02*
X13299999Y-33980500D01*
X13299999Y-33980500D02*
X13266666Y-33947166D01*
X13266666Y-33947166D02*
X13299999Y-33913833D01*
X13299999Y-33913833D02*
X13299999Y-33980500D01*
X12966666Y-34147166D02*
X12966666Y-34613833D01*
X12966666Y-34213833D02*
X12933333Y-34180500D01*
X12933333Y-34180500D02*
X12866666Y-34147166D01*
X12866666Y-34147166D02*
X12766666Y-34147166D01*
X12766666Y-34147166D02*
X12699999Y-34180500D01*
X12699999Y-34180500D02*
X12666666Y-34247166D01*
X12666666Y-34247166D02*
X12666666Y-34613833D01*
X11400000Y-34613833D02*
X11633333Y-34280500D01*
X11800000Y-34613833D02*
X11800000Y-33913833D01*
X11800000Y-33913833D02*
X11533333Y-33913833D01*
X11533333Y-33913833D02*
X11466667Y-33947166D01*
X11466667Y-33947166D02*
X11433333Y-33980500D01*
X11433333Y-33980500D02*
X11400000Y-34047166D01*
X11400000Y-34047166D02*
X11400000Y-34147166D01*
X11400000Y-34147166D02*
X11433333Y-34213833D01*
X11433333Y-34213833D02*
X11466667Y-34247166D01*
X11466667Y-34247166D02*
X11533333Y-34280500D01*
X11533333Y-34280500D02*
X11800000Y-34280500D01*
D11*
X4907619Y-71429761D02*
X4431428Y-71096428D01*
X4907619Y-70858333D02*
X3907619Y-70858333D01*
X3907619Y-70858333D02*
X3907619Y-71239285D01*
X3907619Y-71239285D02*
X3955238Y-71334523D01*
X3955238Y-71334523D02*
X4002857Y-71382142D01*
X4002857Y-71382142D02*
X4098095Y-71429761D01*
X4098095Y-71429761D02*
X4240952Y-71429761D01*
X4240952Y-71429761D02*
X4336190Y-71382142D01*
X4336190Y-71382142D02*
X4383809Y-71334523D01*
X4383809Y-71334523D02*
X4431428Y-71239285D01*
X4431428Y-71239285D02*
X4431428Y-70858333D01*
X4860000Y-71810714D02*
X4907619Y-71953571D01*
X4907619Y-71953571D02*
X4907619Y-72191666D01*
X4907619Y-72191666D02*
X4860000Y-72286904D01*
X4860000Y-72286904D02*
X4812380Y-72334523D01*
X4812380Y-72334523D02*
X4717142Y-72382142D01*
X4717142Y-72382142D02*
X4621904Y-72382142D01*
X4621904Y-72382142D02*
X4526666Y-72334523D01*
X4526666Y-72334523D02*
X4479047Y-72286904D01*
X4479047Y-72286904D02*
X4431428Y-72191666D01*
X4431428Y-72191666D02*
X4383809Y-72001190D01*
X4383809Y-72001190D02*
X4336190Y-71905952D01*
X4336190Y-71905952D02*
X4288571Y-71858333D01*
X4288571Y-71858333D02*
X4193333Y-71810714D01*
X4193333Y-71810714D02*
X4098095Y-71810714D01*
X4098095Y-71810714D02*
X4002857Y-71858333D01*
X4002857Y-71858333D02*
X3955238Y-71905952D01*
X3955238Y-71905952D02*
X3907619Y-72001190D01*
X3907619Y-72001190D02*
X3907619Y-72239285D01*
X3907619Y-72239285D02*
X3955238Y-72382142D01*
X4002857Y-72763095D02*
X3955238Y-72810714D01*
X3955238Y-72810714D02*
X3907619Y-72905952D01*
X3907619Y-72905952D02*
X3907619Y-73144047D01*
X3907619Y-73144047D02*
X3955238Y-73239285D01*
X3955238Y-73239285D02*
X4002857Y-73286904D01*
X4002857Y-73286904D02*
X4098095Y-73334523D01*
X4098095Y-73334523D02*
X4193333Y-73334523D01*
X4193333Y-73334523D02*
X4336190Y-73286904D01*
X4336190Y-73286904D02*
X4907619Y-72715476D01*
X4907619Y-72715476D02*
X4907619Y-73334523D01*
X3907619Y-73667857D02*
X3907619Y-74286904D01*
X3907619Y-74286904D02*
X4288571Y-73953571D01*
X4288571Y-73953571D02*
X4288571Y-74096428D01*
X4288571Y-74096428D02*
X4336190Y-74191666D01*
X4336190Y-74191666D02*
X4383809Y-74239285D01*
X4383809Y-74239285D02*
X4479047Y-74286904D01*
X4479047Y-74286904D02*
X4717142Y-74286904D01*
X4717142Y-74286904D02*
X4812380Y-74239285D01*
X4812380Y-74239285D02*
X4860000Y-74191666D01*
X4860000Y-74191666D02*
X4907619Y-74096428D01*
X4907619Y-74096428D02*
X4907619Y-73810714D01*
X4907619Y-73810714D02*
X4860000Y-73715476D01*
X4860000Y-73715476D02*
X4812380Y-73667857D01*
X4002857Y-74667857D02*
X3955238Y-74715476D01*
X3955238Y-74715476D02*
X3907619Y-74810714D01*
X3907619Y-74810714D02*
X3907619Y-75048809D01*
X3907619Y-75048809D02*
X3955238Y-75144047D01*
X3955238Y-75144047D02*
X4002857Y-75191666D01*
X4002857Y-75191666D02*
X4098095Y-75239285D01*
X4098095Y-75239285D02*
X4193333Y-75239285D01*
X4193333Y-75239285D02*
X4336190Y-75191666D01*
X4336190Y-75191666D02*
X4907619Y-74620238D01*
X4907619Y-74620238D02*
X4907619Y-75239285D01*
D10*
X13949999Y-26993833D02*
X13949999Y-26293833D01*
X13949999Y-26293833D02*
X13716666Y-26793833D01*
X13716666Y-26793833D02*
X13483332Y-26293833D01*
X13483332Y-26293833D02*
X13483332Y-26993833D01*
X13149999Y-26993833D02*
X13149999Y-26527166D01*
X13149999Y-26293833D02*
X13183332Y-26327166D01*
X13183332Y-26327166D02*
X13149999Y-26360500D01*
X13149999Y-26360500D02*
X13116666Y-26327166D01*
X13116666Y-26327166D02*
X13149999Y-26293833D01*
X13149999Y-26293833D02*
X13149999Y-26360500D01*
X12516666Y-26960500D02*
X12583333Y-26993833D01*
X12583333Y-26993833D02*
X12716666Y-26993833D01*
X12716666Y-26993833D02*
X12783333Y-26960500D01*
X12783333Y-26960500D02*
X12816666Y-26927166D01*
X12816666Y-26927166D02*
X12849999Y-26860500D01*
X12849999Y-26860500D02*
X12849999Y-26660500D01*
X12849999Y-26660500D02*
X12816666Y-26593833D01*
X12816666Y-26593833D02*
X12783333Y-26560500D01*
X12783333Y-26560500D02*
X12716666Y-26527166D01*
X12716666Y-26527166D02*
X12583333Y-26527166D01*
X12583333Y-26527166D02*
X12516666Y-26560500D01*
X11350000Y-26993833D02*
X11683333Y-26993833D01*
X11683333Y-26993833D02*
X11683333Y-26293833D01*
D11*
X4907619Y-78264048D02*
X3907619Y-78264048D01*
X3907619Y-78264048D02*
X3907619Y-78502143D01*
X3907619Y-78502143D02*
X3955238Y-78645000D01*
X3955238Y-78645000D02*
X4050476Y-78740238D01*
X4050476Y-78740238D02*
X4145714Y-78787857D01*
X4145714Y-78787857D02*
X4336190Y-78835476D01*
X4336190Y-78835476D02*
X4479047Y-78835476D01*
X4479047Y-78835476D02*
X4669523Y-78787857D01*
X4669523Y-78787857D02*
X4764761Y-78740238D01*
X4764761Y-78740238D02*
X4860000Y-78645000D01*
X4860000Y-78645000D02*
X4907619Y-78502143D01*
X4907619Y-78502143D02*
X4907619Y-78264048D01*
X4383809Y-79264048D02*
X4383809Y-79597381D01*
X4907619Y-79740238D02*
X4907619Y-79264048D01*
X4907619Y-79264048D02*
X3907619Y-79264048D01*
X3907619Y-79264048D02*
X3907619Y-79740238D01*
X4907619Y-80216429D02*
X4907619Y-80406905D01*
X4907619Y-80406905D02*
X4860000Y-80502143D01*
X4860000Y-80502143D02*
X4812380Y-80549762D01*
X4812380Y-80549762D02*
X4669523Y-80645000D01*
X4669523Y-80645000D02*
X4479047Y-80692619D01*
X4479047Y-80692619D02*
X4098095Y-80692619D01*
X4098095Y-80692619D02*
X4002857Y-80645000D01*
X4002857Y-80645000D02*
X3955238Y-80597381D01*
X3955238Y-80597381D02*
X3907619Y-80502143D01*
X3907619Y-80502143D02*
X3907619Y-80311667D01*
X3907619Y-80311667D02*
X3955238Y-80216429D01*
X3955238Y-80216429D02*
X4002857Y-80168810D01*
X4002857Y-80168810D02*
X4098095Y-80121191D01*
X4098095Y-80121191D02*
X4336190Y-80121191D01*
X4336190Y-80121191D02*
X4431428Y-80168810D01*
X4431428Y-80168810D02*
X4479047Y-80216429D01*
X4479047Y-80216429D02*
X4526666Y-80311667D01*
X4526666Y-80311667D02*
X4526666Y-80502143D01*
X4526666Y-80502143D02*
X4479047Y-80597381D01*
X4479047Y-80597381D02*
X4431428Y-80645000D01*
X4431428Y-80645000D02*
X4336190Y-80692619D01*
X4526666Y-81121191D02*
X4526666Y-81883096D01*
X4907619Y-82359286D02*
X3907619Y-82359286D01*
X3907619Y-82359286D02*
X4621904Y-82692619D01*
X4621904Y-82692619D02*
X3907619Y-83025952D01*
X3907619Y-83025952D02*
X4907619Y-83025952D01*
D10*
X22404999Y-37120500D02*
X22304999Y-37153833D01*
X22304999Y-37153833D02*
X22138333Y-37153833D01*
X22138333Y-37153833D02*
X22071666Y-37120500D01*
X22071666Y-37120500D02*
X22038333Y-37087166D01*
X22038333Y-37087166D02*
X22004999Y-37020500D01*
X22004999Y-37020500D02*
X22004999Y-36953833D01*
X22004999Y-36953833D02*
X22038333Y-36887166D01*
X22038333Y-36887166D02*
X22071666Y-36853833D01*
X22071666Y-36853833D02*
X22138333Y-36820500D01*
X22138333Y-36820500D02*
X22271666Y-36787166D01*
X22271666Y-36787166D02*
X22338333Y-36753833D01*
X22338333Y-36753833D02*
X22371666Y-36720500D01*
X22371666Y-36720500D02*
X22404999Y-36653833D01*
X22404999Y-36653833D02*
X22404999Y-36587166D01*
X22404999Y-36587166D02*
X22371666Y-36520500D01*
X22371666Y-36520500D02*
X22338333Y-36487166D01*
X22338333Y-36487166D02*
X22271666Y-36453833D01*
X22271666Y-36453833D02*
X22104999Y-36453833D01*
X22104999Y-36453833D02*
X22004999Y-36487166D01*
X21604999Y-37153833D02*
X21671666Y-37120500D01*
X21671666Y-37120500D02*
X21704999Y-37087166D01*
X21704999Y-37087166D02*
X21738332Y-37020500D01*
X21738332Y-37020500D02*
X21738332Y-36820500D01*
X21738332Y-36820500D02*
X21704999Y-36753833D01*
X21704999Y-36753833D02*
X21671666Y-36720500D01*
X21671666Y-36720500D02*
X21604999Y-36687166D01*
X21604999Y-36687166D02*
X21504999Y-36687166D01*
X21504999Y-36687166D02*
X21438332Y-36720500D01*
X21438332Y-36720500D02*
X21404999Y-36753833D01*
X21404999Y-36753833D02*
X21371666Y-36820500D01*
X21371666Y-36820500D02*
X21371666Y-37020500D01*
X21371666Y-37020500D02*
X21404999Y-37087166D01*
X21404999Y-37087166D02*
X21438332Y-37120500D01*
X21438332Y-37120500D02*
X21504999Y-37153833D01*
X21504999Y-37153833D02*
X21604999Y-37153833D01*
X20771666Y-36687166D02*
X20771666Y-37153833D01*
X21071666Y-36687166D02*
X21071666Y-37053833D01*
X21071666Y-37053833D02*
X21038333Y-37120500D01*
X21038333Y-37120500D02*
X20971666Y-37153833D01*
X20971666Y-37153833D02*
X20871666Y-37153833D01*
X20871666Y-37153833D02*
X20804999Y-37120500D01*
X20804999Y-37120500D02*
X20771666Y-37087166D01*
X19505000Y-37153833D02*
X19738333Y-36820500D01*
X19905000Y-37153833D02*
X19905000Y-36453833D01*
X19905000Y-36453833D02*
X19638333Y-36453833D01*
X19638333Y-36453833D02*
X19571667Y-36487166D01*
X19571667Y-36487166D02*
X19538333Y-36520500D01*
X19538333Y-36520500D02*
X19505000Y-36587166D01*
X19505000Y-36587166D02*
X19505000Y-36687166D01*
X19505000Y-36687166D02*
X19538333Y-36753833D01*
X19538333Y-36753833D02*
X19571667Y-36787166D01*
X19571667Y-36787166D02*
X19638333Y-36820500D01*
X19638333Y-36820500D02*
X19905000Y-36820500D01*
X22188332Y-26793833D02*
X21854999Y-26793833D01*
X22254999Y-26993833D02*
X22021666Y-26293833D01*
X22021666Y-26293833D02*
X21788332Y-26993833D01*
X21188332Y-26327166D02*
X21254999Y-26293833D01*
X21254999Y-26293833D02*
X21354999Y-26293833D01*
X21354999Y-26293833D02*
X21454999Y-26327166D01*
X21454999Y-26327166D02*
X21521666Y-26393833D01*
X21521666Y-26393833D02*
X21554999Y-26460500D01*
X21554999Y-26460500D02*
X21588332Y-26593833D01*
X21588332Y-26593833D02*
X21588332Y-26693833D01*
X21588332Y-26693833D02*
X21554999Y-26827166D01*
X21554999Y-26827166D02*
X21521666Y-26893833D01*
X21521666Y-26893833D02*
X21454999Y-26960500D01*
X21454999Y-26960500D02*
X21354999Y-26993833D01*
X21354999Y-26993833D02*
X21288332Y-26993833D01*
X21288332Y-26993833D02*
X21188332Y-26960500D01*
X21188332Y-26960500D02*
X21154999Y-26927166D01*
X21154999Y-26927166D02*
X21154999Y-26693833D01*
X21154999Y-26693833D02*
X21288332Y-26693833D01*
X20854999Y-26993833D02*
X20854999Y-26293833D01*
X20854999Y-26293833D02*
X20454999Y-26993833D01*
X20454999Y-26993833D02*
X20454999Y-26293833D01*
X20121666Y-26993833D02*
X20121666Y-26293833D01*
X20121666Y-26293833D02*
X19954999Y-26293833D01*
X19954999Y-26293833D02*
X19854999Y-26327166D01*
X19854999Y-26327166D02*
X19788333Y-26393833D01*
X19788333Y-26393833D02*
X19754999Y-26460500D01*
X19754999Y-26460500D02*
X19721666Y-26593833D01*
X19721666Y-26593833D02*
X19721666Y-26693833D01*
X19721666Y-26693833D02*
X19754999Y-26827166D01*
X19754999Y-26827166D02*
X19788333Y-26893833D01*
X19788333Y-26893833D02*
X19854999Y-26960500D01*
X19854999Y-26960500D02*
X19954999Y-26993833D01*
X19954999Y-26993833D02*
X20121666Y-26993833D01*
X22188332Y-44573833D02*
X21854999Y-44573833D01*
X22254999Y-44773833D02*
X22021666Y-44073833D01*
X22021666Y-44073833D02*
X21788332Y-44773833D01*
X21188332Y-44107166D02*
X21254999Y-44073833D01*
X21254999Y-44073833D02*
X21354999Y-44073833D01*
X21354999Y-44073833D02*
X21454999Y-44107166D01*
X21454999Y-44107166D02*
X21521666Y-44173833D01*
X21521666Y-44173833D02*
X21554999Y-44240500D01*
X21554999Y-44240500D02*
X21588332Y-44373833D01*
X21588332Y-44373833D02*
X21588332Y-44473833D01*
X21588332Y-44473833D02*
X21554999Y-44607166D01*
X21554999Y-44607166D02*
X21521666Y-44673833D01*
X21521666Y-44673833D02*
X21454999Y-44740500D01*
X21454999Y-44740500D02*
X21354999Y-44773833D01*
X21354999Y-44773833D02*
X21288332Y-44773833D01*
X21288332Y-44773833D02*
X21188332Y-44740500D01*
X21188332Y-44740500D02*
X21154999Y-44707166D01*
X21154999Y-44707166D02*
X21154999Y-44473833D01*
X21154999Y-44473833D02*
X21288332Y-44473833D01*
X20854999Y-44773833D02*
X20854999Y-44073833D01*
X20854999Y-44073833D02*
X20454999Y-44773833D01*
X20454999Y-44773833D02*
X20454999Y-44073833D01*
X20121666Y-44773833D02*
X20121666Y-44073833D01*
X20121666Y-44073833D02*
X19954999Y-44073833D01*
X19954999Y-44073833D02*
X19854999Y-44107166D01*
X19854999Y-44107166D02*
X19788333Y-44173833D01*
X19788333Y-44173833D02*
X19754999Y-44240500D01*
X19754999Y-44240500D02*
X19721666Y-44373833D01*
X19721666Y-44373833D02*
X19721666Y-44473833D01*
X19721666Y-44473833D02*
X19754999Y-44607166D01*
X19754999Y-44607166D02*
X19788333Y-44673833D01*
X19788333Y-44673833D02*
X19854999Y-44740500D01*
X19854999Y-44740500D02*
X19954999Y-44773833D01*
X19954999Y-44773833D02*
X20121666Y-44773833D01*
X14083332Y-37120500D02*
X13983332Y-37153833D01*
X13983332Y-37153833D02*
X13816666Y-37153833D01*
X13816666Y-37153833D02*
X13749999Y-37120500D01*
X13749999Y-37120500D02*
X13716666Y-37087166D01*
X13716666Y-37087166D02*
X13683332Y-37020500D01*
X13683332Y-37020500D02*
X13683332Y-36953833D01*
X13683332Y-36953833D02*
X13716666Y-36887166D01*
X13716666Y-36887166D02*
X13749999Y-36853833D01*
X13749999Y-36853833D02*
X13816666Y-36820500D01*
X13816666Y-36820500D02*
X13949999Y-36787166D01*
X13949999Y-36787166D02*
X14016666Y-36753833D01*
X14016666Y-36753833D02*
X14049999Y-36720500D01*
X14049999Y-36720500D02*
X14083332Y-36653833D01*
X14083332Y-36653833D02*
X14083332Y-36587166D01*
X14083332Y-36587166D02*
X14049999Y-36520500D01*
X14049999Y-36520500D02*
X14016666Y-36487166D01*
X14016666Y-36487166D02*
X13949999Y-36453833D01*
X13949999Y-36453833D02*
X13783332Y-36453833D01*
X13783332Y-36453833D02*
X13683332Y-36487166D01*
X13283332Y-37153833D02*
X13349999Y-37120500D01*
X13349999Y-37120500D02*
X13383332Y-37087166D01*
X13383332Y-37087166D02*
X13416665Y-37020500D01*
X13416665Y-37020500D02*
X13416665Y-36820500D01*
X13416665Y-36820500D02*
X13383332Y-36753833D01*
X13383332Y-36753833D02*
X13349999Y-36720500D01*
X13349999Y-36720500D02*
X13283332Y-36687166D01*
X13283332Y-36687166D02*
X13183332Y-36687166D01*
X13183332Y-36687166D02*
X13116665Y-36720500D01*
X13116665Y-36720500D02*
X13083332Y-36753833D01*
X13083332Y-36753833D02*
X13049999Y-36820500D01*
X13049999Y-36820500D02*
X13049999Y-37020500D01*
X13049999Y-37020500D02*
X13083332Y-37087166D01*
X13083332Y-37087166D02*
X13116665Y-37120500D01*
X13116665Y-37120500D02*
X13183332Y-37153833D01*
X13183332Y-37153833D02*
X13283332Y-37153833D01*
X12449999Y-36687166D02*
X12449999Y-37153833D01*
X12749999Y-36687166D02*
X12749999Y-37053833D01*
X12749999Y-37053833D02*
X12716666Y-37120500D01*
X12716666Y-37120500D02*
X12649999Y-37153833D01*
X12649999Y-37153833D02*
X12549999Y-37153833D01*
X12549999Y-37153833D02*
X12483332Y-37120500D01*
X12483332Y-37120500D02*
X12449999Y-37087166D01*
X11250000Y-37153833D02*
X11583333Y-37153833D01*
X11583333Y-37153833D02*
X11583333Y-36453833D01*
X22271666Y-24453833D02*
X22271666Y-23753833D01*
X22271666Y-23753833D02*
X22038333Y-24253833D01*
X22038333Y-24253833D02*
X21804999Y-23753833D01*
X21804999Y-23753833D02*
X21804999Y-24453833D01*
X21471666Y-24453833D02*
X21471666Y-23987166D01*
X21471666Y-23753833D02*
X21504999Y-23787166D01*
X21504999Y-23787166D02*
X21471666Y-23820500D01*
X21471666Y-23820500D02*
X21438333Y-23787166D01*
X21438333Y-23787166D02*
X21471666Y-23753833D01*
X21471666Y-23753833D02*
X21471666Y-23820500D01*
X20838333Y-24420500D02*
X20905000Y-24453833D01*
X20905000Y-24453833D02*
X21038333Y-24453833D01*
X21038333Y-24453833D02*
X21105000Y-24420500D01*
X21105000Y-24420500D02*
X21138333Y-24387166D01*
X21138333Y-24387166D02*
X21171666Y-24320500D01*
X21171666Y-24320500D02*
X21171666Y-24120500D01*
X21171666Y-24120500D02*
X21138333Y-24053833D01*
X21138333Y-24053833D02*
X21105000Y-24020500D01*
X21105000Y-24020500D02*
X21038333Y-23987166D01*
X21038333Y-23987166D02*
X20905000Y-23987166D01*
X20905000Y-23987166D02*
X20838333Y-24020500D01*
X19605000Y-24453833D02*
X19838333Y-24120500D01*
X20005000Y-24453833D02*
X20005000Y-23753833D01*
X20005000Y-23753833D02*
X19738333Y-23753833D01*
X19738333Y-23753833D02*
X19671667Y-23787166D01*
X19671667Y-23787166D02*
X19638333Y-23820500D01*
X19638333Y-23820500D02*
X19605000Y-23887166D01*
X19605000Y-23887166D02*
X19605000Y-23987166D01*
X19605000Y-23987166D02*
X19638333Y-24053833D01*
X19638333Y-24053833D02*
X19671667Y-24087166D01*
X19671667Y-24087166D02*
X19738333Y-24120500D01*
X19738333Y-24120500D02*
X20005000Y-24120500D01*
D11*
X21941619Y-66532095D02*
X20941619Y-66532095D01*
X20941619Y-66532095D02*
X21655904Y-66865428D01*
X21655904Y-66865428D02*
X20941619Y-67198761D01*
X20941619Y-67198761D02*
X21941619Y-67198761D01*
X21941619Y-68103523D02*
X21417809Y-68103523D01*
X21417809Y-68103523D02*
X21322571Y-68055904D01*
X21322571Y-68055904D02*
X21274952Y-67960666D01*
X21274952Y-67960666D02*
X21274952Y-67770190D01*
X21274952Y-67770190D02*
X21322571Y-67674952D01*
X21894000Y-68103523D02*
X21941619Y-68008285D01*
X21941619Y-68008285D02*
X21941619Y-67770190D01*
X21941619Y-67770190D02*
X21894000Y-67674952D01*
X21894000Y-67674952D02*
X21798761Y-67627333D01*
X21798761Y-67627333D02*
X21703523Y-67627333D01*
X21703523Y-67627333D02*
X21608285Y-67674952D01*
X21608285Y-67674952D02*
X21560666Y-67770190D01*
X21560666Y-67770190D02*
X21560666Y-68008285D01*
X21560666Y-68008285D02*
X21513047Y-68103523D01*
X21941619Y-68579714D02*
X20941619Y-68579714D01*
X21560666Y-68674952D02*
X21941619Y-68960666D01*
X21274952Y-68960666D02*
X21655904Y-68579714D01*
X21894000Y-69770190D02*
X21941619Y-69674952D01*
X21941619Y-69674952D02*
X21941619Y-69484476D01*
X21941619Y-69484476D02*
X21894000Y-69389238D01*
X21894000Y-69389238D02*
X21798761Y-69341619D01*
X21798761Y-69341619D02*
X21417809Y-69341619D01*
X21417809Y-69341619D02*
X21322571Y-69389238D01*
X21322571Y-69389238D02*
X21274952Y-69484476D01*
X21274952Y-69484476D02*
X21274952Y-69674952D01*
X21274952Y-69674952D02*
X21322571Y-69770190D01*
X21322571Y-69770190D02*
X21417809Y-69817809D01*
X21417809Y-69817809D02*
X21513047Y-69817809D01*
X21513047Y-69817809D02*
X21608285Y-69341619D01*
X21894000Y-70960667D02*
X21941619Y-71055905D01*
X21941619Y-71055905D02*
X21941619Y-71246381D01*
X21941619Y-71246381D02*
X21894000Y-71341619D01*
X21894000Y-71341619D02*
X21798761Y-71389238D01*
X21798761Y-71389238D02*
X21751142Y-71389238D01*
X21751142Y-71389238D02*
X21655904Y-71341619D01*
X21655904Y-71341619D02*
X21608285Y-71246381D01*
X21608285Y-71246381D02*
X21608285Y-71103524D01*
X21608285Y-71103524D02*
X21560666Y-71008286D01*
X21560666Y-71008286D02*
X21465428Y-70960667D01*
X21465428Y-70960667D02*
X21417809Y-70960667D01*
X21417809Y-70960667D02*
X21322571Y-71008286D01*
X21322571Y-71008286D02*
X21274952Y-71103524D01*
X21274952Y-71103524D02*
X21274952Y-71246381D01*
X21274952Y-71246381D02*
X21322571Y-71341619D01*
X21274952Y-72246381D02*
X21941619Y-72246381D01*
X21274952Y-71817810D02*
X21798761Y-71817810D01*
X21798761Y-71817810D02*
X21894000Y-71865429D01*
X21894000Y-71865429D02*
X21941619Y-71960667D01*
X21941619Y-71960667D02*
X21941619Y-72103524D01*
X21941619Y-72103524D02*
X21894000Y-72198762D01*
X21894000Y-72198762D02*
X21846380Y-72246381D01*
X21941619Y-72722572D02*
X21274952Y-72722572D01*
X21465428Y-72722572D02*
X21370190Y-72770191D01*
X21370190Y-72770191D02*
X21322571Y-72817810D01*
X21322571Y-72817810D02*
X21274952Y-72913048D01*
X21274952Y-72913048D02*
X21274952Y-73008286D01*
X21894000Y-73722572D02*
X21941619Y-73627334D01*
X21941619Y-73627334D02*
X21941619Y-73436858D01*
X21941619Y-73436858D02*
X21894000Y-73341620D01*
X21894000Y-73341620D02*
X21798761Y-73294001D01*
X21798761Y-73294001D02*
X21417809Y-73294001D01*
X21417809Y-73294001D02*
X21322571Y-73341620D01*
X21322571Y-73341620D02*
X21274952Y-73436858D01*
X21274952Y-73436858D02*
X21274952Y-73627334D01*
X21274952Y-73627334D02*
X21322571Y-73722572D01*
X21322571Y-73722572D02*
X21417809Y-73770191D01*
X21417809Y-73770191D02*
X21513047Y-73770191D01*
X21513047Y-73770191D02*
X21608285Y-73294001D01*
X21274952Y-74817811D02*
X21274952Y-75198763D01*
X20941619Y-74960668D02*
X21798761Y-74960668D01*
X21798761Y-74960668D02*
X21894000Y-75008287D01*
X21894000Y-75008287D02*
X21941619Y-75103525D01*
X21941619Y-75103525D02*
X21941619Y-75198763D01*
X21941619Y-75532097D02*
X20941619Y-75532097D01*
X21941619Y-75960668D02*
X21417809Y-75960668D01*
X21417809Y-75960668D02*
X21322571Y-75913049D01*
X21322571Y-75913049D02*
X21274952Y-75817811D01*
X21274952Y-75817811D02*
X21274952Y-75674954D01*
X21274952Y-75674954D02*
X21322571Y-75579716D01*
X21322571Y-75579716D02*
X21370190Y-75532097D01*
X21894000Y-76817811D02*
X21941619Y-76722573D01*
X21941619Y-76722573D02*
X21941619Y-76532097D01*
X21941619Y-76532097D02*
X21894000Y-76436859D01*
X21894000Y-76436859D02*
X21798761Y-76389240D01*
X21798761Y-76389240D02*
X21417809Y-76389240D01*
X21417809Y-76389240D02*
X21322571Y-76436859D01*
X21322571Y-76436859D02*
X21274952Y-76532097D01*
X21274952Y-76532097D02*
X21274952Y-76722573D01*
X21274952Y-76722573D02*
X21322571Y-76817811D01*
X21322571Y-76817811D02*
X21417809Y-76865430D01*
X21417809Y-76865430D02*
X21513047Y-76865430D01*
X21513047Y-76865430D02*
X21608285Y-76389240D01*
X21274952Y-78055907D02*
X22274952Y-78055907D01*
X21322571Y-78055907D02*
X21274952Y-78151145D01*
X21274952Y-78151145D02*
X21274952Y-78341621D01*
X21274952Y-78341621D02*
X21322571Y-78436859D01*
X21322571Y-78436859D02*
X21370190Y-78484478D01*
X21370190Y-78484478D02*
X21465428Y-78532097D01*
X21465428Y-78532097D02*
X21751142Y-78532097D01*
X21751142Y-78532097D02*
X21846380Y-78484478D01*
X21846380Y-78484478D02*
X21894000Y-78436859D01*
X21894000Y-78436859D02*
X21941619Y-78341621D01*
X21941619Y-78341621D02*
X21941619Y-78151145D01*
X21941619Y-78151145D02*
X21894000Y-78055907D01*
X21941619Y-79103526D02*
X21894000Y-79008288D01*
X21894000Y-79008288D02*
X21846380Y-78960669D01*
X21846380Y-78960669D02*
X21751142Y-78913050D01*
X21751142Y-78913050D02*
X21465428Y-78913050D01*
X21465428Y-78913050D02*
X21370190Y-78960669D01*
X21370190Y-78960669D02*
X21322571Y-79008288D01*
X21322571Y-79008288D02*
X21274952Y-79103526D01*
X21274952Y-79103526D02*
X21274952Y-79246383D01*
X21274952Y-79246383D02*
X21322571Y-79341621D01*
X21322571Y-79341621D02*
X21370190Y-79389240D01*
X21370190Y-79389240D02*
X21465428Y-79436859D01*
X21465428Y-79436859D02*
X21751142Y-79436859D01*
X21751142Y-79436859D02*
X21846380Y-79389240D01*
X21846380Y-79389240D02*
X21894000Y-79341621D01*
X21894000Y-79341621D02*
X21941619Y-79246383D01*
X21941619Y-79246383D02*
X21941619Y-79103526D01*
X21274952Y-79770193D02*
X21941619Y-79960669D01*
X21941619Y-79960669D02*
X21465428Y-80151145D01*
X21465428Y-80151145D02*
X21941619Y-80341621D01*
X21941619Y-80341621D02*
X21274952Y-80532097D01*
X21894000Y-81294002D02*
X21941619Y-81198764D01*
X21941619Y-81198764D02*
X21941619Y-81008288D01*
X21941619Y-81008288D02*
X21894000Y-80913050D01*
X21894000Y-80913050D02*
X21798761Y-80865431D01*
X21798761Y-80865431D02*
X21417809Y-80865431D01*
X21417809Y-80865431D02*
X21322571Y-80913050D01*
X21322571Y-80913050D02*
X21274952Y-81008288D01*
X21274952Y-81008288D02*
X21274952Y-81198764D01*
X21274952Y-81198764D02*
X21322571Y-81294002D01*
X21322571Y-81294002D02*
X21417809Y-81341621D01*
X21417809Y-81341621D02*
X21513047Y-81341621D01*
X21513047Y-81341621D02*
X21608285Y-80865431D01*
X21941619Y-81770193D02*
X21274952Y-81770193D01*
X21465428Y-81770193D02*
X21370190Y-81817812D01*
X21370190Y-81817812D02*
X21322571Y-81865431D01*
X21322571Y-81865431D02*
X21274952Y-81960669D01*
X21274952Y-81960669D02*
X21274952Y-82055907D01*
X21894000Y-83103527D02*
X21941619Y-83198765D01*
X21941619Y-83198765D02*
X21941619Y-83389241D01*
X21941619Y-83389241D02*
X21894000Y-83484479D01*
X21894000Y-83484479D02*
X21798761Y-83532098D01*
X21798761Y-83532098D02*
X21751142Y-83532098D01*
X21751142Y-83532098D02*
X21655904Y-83484479D01*
X21655904Y-83484479D02*
X21608285Y-83389241D01*
X21608285Y-83389241D02*
X21608285Y-83246384D01*
X21608285Y-83246384D02*
X21560666Y-83151146D01*
X21560666Y-83151146D02*
X21465428Y-83103527D01*
X21465428Y-83103527D02*
X21417809Y-83103527D01*
X21417809Y-83103527D02*
X21322571Y-83151146D01*
X21322571Y-83151146D02*
X21274952Y-83246384D01*
X21274952Y-83246384D02*
X21274952Y-83389241D01*
X21274952Y-83389241D02*
X21322571Y-83484479D01*
X21274952Y-84389241D02*
X21941619Y-84389241D01*
X21274952Y-83960670D02*
X21798761Y-83960670D01*
X21798761Y-83960670D02*
X21894000Y-84008289D01*
X21894000Y-84008289D02*
X21941619Y-84103527D01*
X21941619Y-84103527D02*
X21941619Y-84246384D01*
X21941619Y-84246384D02*
X21894000Y-84341622D01*
X21894000Y-84341622D02*
X21846380Y-84389241D01*
X21274952Y-84865432D02*
X22274952Y-84865432D01*
X21322571Y-84865432D02*
X21274952Y-84960670D01*
X21274952Y-84960670D02*
X21274952Y-85151146D01*
X21274952Y-85151146D02*
X21322571Y-85246384D01*
X21322571Y-85246384D02*
X21370190Y-85294003D01*
X21370190Y-85294003D02*
X21465428Y-85341622D01*
X21465428Y-85341622D02*
X21751142Y-85341622D01*
X21751142Y-85341622D02*
X21846380Y-85294003D01*
X21846380Y-85294003D02*
X21894000Y-85246384D01*
X21894000Y-85246384D02*
X21941619Y-85151146D01*
X21941619Y-85151146D02*
X21941619Y-84960670D01*
X21941619Y-84960670D02*
X21894000Y-84865432D01*
X21274952Y-85770194D02*
X22274952Y-85770194D01*
X21322571Y-85770194D02*
X21274952Y-85865432D01*
X21274952Y-85865432D02*
X21274952Y-86055908D01*
X21274952Y-86055908D02*
X21322571Y-86151146D01*
X21322571Y-86151146D02*
X21370190Y-86198765D01*
X21370190Y-86198765D02*
X21465428Y-86246384D01*
X21465428Y-86246384D02*
X21751142Y-86246384D01*
X21751142Y-86246384D02*
X21846380Y-86198765D01*
X21846380Y-86198765D02*
X21894000Y-86151146D01*
X21894000Y-86151146D02*
X21941619Y-86055908D01*
X21941619Y-86055908D02*
X21941619Y-85865432D01*
X21941619Y-85865432D02*
X21894000Y-85770194D01*
X21941619Y-86817813D02*
X21894000Y-86722575D01*
X21894000Y-86722575D02*
X21798761Y-86674956D01*
X21798761Y-86674956D02*
X20941619Y-86674956D01*
X21274952Y-87103528D02*
X21941619Y-87341623D01*
X21274952Y-87579718D02*
X21941619Y-87341623D01*
X21941619Y-87341623D02*
X22179714Y-87246385D01*
X22179714Y-87246385D02*
X22227333Y-87198766D01*
X22227333Y-87198766D02*
X22274952Y-87103528D01*
X21274952Y-89151147D02*
X22084476Y-89151147D01*
X22084476Y-89151147D02*
X22179714Y-89103528D01*
X22179714Y-89103528D02*
X22227333Y-89055909D01*
X22227333Y-89055909D02*
X22274952Y-88960671D01*
X22274952Y-88960671D02*
X22274952Y-88817814D01*
X22274952Y-88817814D02*
X22227333Y-88722576D01*
X21894000Y-89151147D02*
X21941619Y-89055909D01*
X21941619Y-89055909D02*
X21941619Y-88865433D01*
X21941619Y-88865433D02*
X21894000Y-88770195D01*
X21894000Y-88770195D02*
X21846380Y-88722576D01*
X21846380Y-88722576D02*
X21751142Y-88674957D01*
X21751142Y-88674957D02*
X21465428Y-88674957D01*
X21465428Y-88674957D02*
X21370190Y-88722576D01*
X21370190Y-88722576D02*
X21322571Y-88770195D01*
X21322571Y-88770195D02*
X21274952Y-88865433D01*
X21274952Y-88865433D02*
X21274952Y-89055909D01*
X21274952Y-89055909D02*
X21322571Y-89151147D01*
X21941619Y-89627338D02*
X21274952Y-89627338D01*
X21465428Y-89627338D02*
X21370190Y-89674957D01*
X21370190Y-89674957D02*
X21322571Y-89722576D01*
X21322571Y-89722576D02*
X21274952Y-89817814D01*
X21274952Y-89817814D02*
X21274952Y-89913052D01*
X21941619Y-90389243D02*
X21894000Y-90294005D01*
X21894000Y-90294005D02*
X21846380Y-90246386D01*
X21846380Y-90246386D02*
X21751142Y-90198767D01*
X21751142Y-90198767D02*
X21465428Y-90198767D01*
X21465428Y-90198767D02*
X21370190Y-90246386D01*
X21370190Y-90246386D02*
X21322571Y-90294005D01*
X21322571Y-90294005D02*
X21274952Y-90389243D01*
X21274952Y-90389243D02*
X21274952Y-90532100D01*
X21274952Y-90532100D02*
X21322571Y-90627338D01*
X21322571Y-90627338D02*
X21370190Y-90674957D01*
X21370190Y-90674957D02*
X21465428Y-90722576D01*
X21465428Y-90722576D02*
X21751142Y-90722576D01*
X21751142Y-90722576D02*
X21846380Y-90674957D01*
X21846380Y-90674957D02*
X21894000Y-90627338D01*
X21894000Y-90627338D02*
X21941619Y-90532100D01*
X21941619Y-90532100D02*
X21941619Y-90389243D01*
X21274952Y-91579719D02*
X21941619Y-91579719D01*
X21274952Y-91151148D02*
X21798761Y-91151148D01*
X21798761Y-91151148D02*
X21894000Y-91198767D01*
X21894000Y-91198767D02*
X21941619Y-91294005D01*
X21941619Y-91294005D02*
X21941619Y-91436862D01*
X21941619Y-91436862D02*
X21894000Y-91532100D01*
X21894000Y-91532100D02*
X21846380Y-91579719D01*
X21274952Y-92055910D02*
X21941619Y-92055910D01*
X21370190Y-92055910D02*
X21322571Y-92103529D01*
X21322571Y-92103529D02*
X21274952Y-92198767D01*
X21274952Y-92198767D02*
X21274952Y-92341624D01*
X21274952Y-92341624D02*
X21322571Y-92436862D01*
X21322571Y-92436862D02*
X21417809Y-92484481D01*
X21417809Y-92484481D02*
X21941619Y-92484481D01*
X21941619Y-93389243D02*
X20941619Y-93389243D01*
X21894000Y-93389243D02*
X21941619Y-93294005D01*
X21941619Y-93294005D02*
X21941619Y-93103529D01*
X21941619Y-93103529D02*
X21894000Y-93008291D01*
X21894000Y-93008291D02*
X21846380Y-92960672D01*
X21846380Y-92960672D02*
X21751142Y-92913053D01*
X21751142Y-92913053D02*
X21465428Y-92913053D01*
X21465428Y-92913053D02*
X21370190Y-92960672D01*
X21370190Y-92960672D02*
X21322571Y-93008291D01*
X21322571Y-93008291D02*
X21274952Y-93103529D01*
X21274952Y-93103529D02*
X21274952Y-93294005D01*
X21274952Y-93294005D02*
X21322571Y-93389243D01*
X23561619Y-66674952D02*
X23514000Y-66579714D01*
X23514000Y-66579714D02*
X23466380Y-66532095D01*
X23466380Y-66532095D02*
X23371142Y-66484476D01*
X23371142Y-66484476D02*
X23085428Y-66484476D01*
X23085428Y-66484476D02*
X22990190Y-66532095D01*
X22990190Y-66532095D02*
X22942571Y-66579714D01*
X22942571Y-66579714D02*
X22894952Y-66674952D01*
X22894952Y-66674952D02*
X22894952Y-66817809D01*
X22894952Y-66817809D02*
X22942571Y-66913047D01*
X22942571Y-66913047D02*
X22990190Y-66960666D01*
X22990190Y-66960666D02*
X23085428Y-67008285D01*
X23085428Y-67008285D02*
X23371142Y-67008285D01*
X23371142Y-67008285D02*
X23466380Y-66960666D01*
X23466380Y-66960666D02*
X23514000Y-66913047D01*
X23514000Y-66913047D02*
X23561619Y-66817809D01*
X23561619Y-66817809D02*
X23561619Y-66674952D01*
X22894952Y-67436857D02*
X23561619Y-67436857D01*
X22990190Y-67436857D02*
X22942571Y-67484476D01*
X22942571Y-67484476D02*
X22894952Y-67579714D01*
X22894952Y-67579714D02*
X22894952Y-67722571D01*
X22894952Y-67722571D02*
X22942571Y-67817809D01*
X22942571Y-67817809D02*
X23037809Y-67865428D01*
X23037809Y-67865428D02*
X23561619Y-67865428D01*
X22894952Y-68960667D02*
X22894952Y-69341619D01*
X22561619Y-69103524D02*
X23418761Y-69103524D01*
X23418761Y-69103524D02*
X23514000Y-69151143D01*
X23514000Y-69151143D02*
X23561619Y-69246381D01*
X23561619Y-69246381D02*
X23561619Y-69341619D01*
X23561619Y-69674953D02*
X22561619Y-69674953D01*
X23561619Y-70103524D02*
X23037809Y-70103524D01*
X23037809Y-70103524D02*
X22942571Y-70055905D01*
X22942571Y-70055905D02*
X22894952Y-69960667D01*
X22894952Y-69960667D02*
X22894952Y-69817810D01*
X22894952Y-69817810D02*
X22942571Y-69722572D01*
X22942571Y-69722572D02*
X22990190Y-69674953D01*
X23514000Y-70960667D02*
X23561619Y-70865429D01*
X23561619Y-70865429D02*
X23561619Y-70674953D01*
X23561619Y-70674953D02*
X23514000Y-70579715D01*
X23514000Y-70579715D02*
X23418761Y-70532096D01*
X23418761Y-70532096D02*
X23037809Y-70532096D01*
X23037809Y-70532096D02*
X22942571Y-70579715D01*
X22942571Y-70579715D02*
X22894952Y-70674953D01*
X22894952Y-70674953D02*
X22894952Y-70865429D01*
X22894952Y-70865429D02*
X22942571Y-70960667D01*
X22942571Y-70960667D02*
X23037809Y-71008286D01*
X23037809Y-71008286D02*
X23133047Y-71008286D01*
X23133047Y-71008286D02*
X23228285Y-70532096D01*
X22894952Y-72198763D02*
X23894952Y-72198763D01*
X22942571Y-72198763D02*
X22894952Y-72294001D01*
X22894952Y-72294001D02*
X22894952Y-72484477D01*
X22894952Y-72484477D02*
X22942571Y-72579715D01*
X22942571Y-72579715D02*
X22990190Y-72627334D01*
X22990190Y-72627334D02*
X23085428Y-72674953D01*
X23085428Y-72674953D02*
X23371142Y-72674953D01*
X23371142Y-72674953D02*
X23466380Y-72627334D01*
X23466380Y-72627334D02*
X23514000Y-72579715D01*
X23514000Y-72579715D02*
X23561619Y-72484477D01*
X23561619Y-72484477D02*
X23561619Y-72294001D01*
X23561619Y-72294001D02*
X23514000Y-72198763D01*
X23561619Y-73246382D02*
X23514000Y-73151144D01*
X23514000Y-73151144D02*
X23418761Y-73103525D01*
X23418761Y-73103525D02*
X22561619Y-73103525D01*
X22894952Y-74055906D02*
X23561619Y-74055906D01*
X22894952Y-73627335D02*
X23418761Y-73627335D01*
X23418761Y-73627335D02*
X23514000Y-73674954D01*
X23514000Y-73674954D02*
X23561619Y-73770192D01*
X23561619Y-73770192D02*
X23561619Y-73913049D01*
X23561619Y-73913049D02*
X23514000Y-74008287D01*
X23514000Y-74008287D02*
X23466380Y-74055906D01*
X23514000Y-74484478D02*
X23561619Y-74579716D01*
X23561619Y-74579716D02*
X23561619Y-74770192D01*
X23561619Y-74770192D02*
X23514000Y-74865430D01*
X23514000Y-74865430D02*
X23418761Y-74913049D01*
X23418761Y-74913049D02*
X23371142Y-74913049D01*
X23371142Y-74913049D02*
X23275904Y-74865430D01*
X23275904Y-74865430D02*
X23228285Y-74770192D01*
X23228285Y-74770192D02*
X23228285Y-74627335D01*
X23228285Y-74627335D02*
X23180666Y-74532097D01*
X23180666Y-74532097D02*
X23085428Y-74484478D01*
X23085428Y-74484478D02*
X23037809Y-74484478D01*
X23037809Y-74484478D02*
X22942571Y-74532097D01*
X22942571Y-74532097D02*
X22894952Y-74627335D01*
X22894952Y-74627335D02*
X22894952Y-74770192D01*
X22894952Y-74770192D02*
X22942571Y-74865430D01*
X23561619Y-75770192D02*
X22561619Y-75770192D01*
X23514000Y-75770192D02*
X23561619Y-75674954D01*
X23561619Y-75674954D02*
X23561619Y-75484478D01*
X23561619Y-75484478D02*
X23514000Y-75389240D01*
X23514000Y-75389240D02*
X23466380Y-75341621D01*
X23466380Y-75341621D02*
X23371142Y-75294002D01*
X23371142Y-75294002D02*
X23085428Y-75294002D01*
X23085428Y-75294002D02*
X22990190Y-75341621D01*
X22990190Y-75341621D02*
X22942571Y-75389240D01*
X22942571Y-75389240D02*
X22894952Y-75484478D01*
X22894952Y-75484478D02*
X22894952Y-75674954D01*
X22894952Y-75674954D02*
X22942571Y-75770192D01*
X23514000Y-76627335D02*
X23561619Y-76532097D01*
X23561619Y-76532097D02*
X23561619Y-76341621D01*
X23561619Y-76341621D02*
X23514000Y-76246383D01*
X23514000Y-76246383D02*
X23418761Y-76198764D01*
X23418761Y-76198764D02*
X23037809Y-76198764D01*
X23037809Y-76198764D02*
X22942571Y-76246383D01*
X22942571Y-76246383D02*
X22894952Y-76341621D01*
X22894952Y-76341621D02*
X22894952Y-76532097D01*
X22894952Y-76532097D02*
X22942571Y-76627335D01*
X22942571Y-76627335D02*
X23037809Y-76674954D01*
X23037809Y-76674954D02*
X23133047Y-76674954D01*
X23133047Y-76674954D02*
X23228285Y-76198764D01*
X23514000Y-77532097D02*
X23561619Y-77436859D01*
X23561619Y-77436859D02*
X23561619Y-77246383D01*
X23561619Y-77246383D02*
X23514000Y-77151145D01*
X23514000Y-77151145D02*
X23466380Y-77103526D01*
X23466380Y-77103526D02*
X23371142Y-77055907D01*
X23371142Y-77055907D02*
X23085428Y-77055907D01*
X23085428Y-77055907D02*
X22990190Y-77103526D01*
X22990190Y-77103526D02*
X22942571Y-77151145D01*
X22942571Y-77151145D02*
X22894952Y-77246383D01*
X22894952Y-77246383D02*
X22894952Y-77436859D01*
X22894952Y-77436859D02*
X22942571Y-77532097D01*
X23561619Y-77960669D02*
X22561619Y-77960669D01*
X23180666Y-78055907D02*
X23561619Y-78341621D01*
X22894952Y-78341621D02*
X23275904Y-77960669D01*
X23561619Y-79532098D02*
X22894952Y-79532098D01*
X22561619Y-79532098D02*
X22609238Y-79484479D01*
X22609238Y-79484479D02*
X22656857Y-79532098D01*
X22656857Y-79532098D02*
X22609238Y-79579717D01*
X22609238Y-79579717D02*
X22561619Y-79532098D01*
X22561619Y-79532098D02*
X22656857Y-79532098D01*
X23514000Y-79960669D02*
X23561619Y-80055907D01*
X23561619Y-80055907D02*
X23561619Y-80246383D01*
X23561619Y-80246383D02*
X23514000Y-80341621D01*
X23514000Y-80341621D02*
X23418761Y-80389240D01*
X23418761Y-80389240D02*
X23371142Y-80389240D01*
X23371142Y-80389240D02*
X23275904Y-80341621D01*
X23275904Y-80341621D02*
X23228285Y-80246383D01*
X23228285Y-80246383D02*
X23228285Y-80103526D01*
X23228285Y-80103526D02*
X23180666Y-80008288D01*
X23180666Y-80008288D02*
X23085428Y-79960669D01*
X23085428Y-79960669D02*
X23037809Y-79960669D01*
X23037809Y-79960669D02*
X22942571Y-80008288D01*
X22942571Y-80008288D02*
X22894952Y-80103526D01*
X22894952Y-80103526D02*
X22894952Y-80246383D01*
X22894952Y-80246383D02*
X22942571Y-80341621D01*
X23514000Y-82008288D02*
X23561619Y-81913050D01*
X23561619Y-81913050D02*
X23561619Y-81722574D01*
X23561619Y-81722574D02*
X23514000Y-81627336D01*
X23514000Y-81627336D02*
X23466380Y-81579717D01*
X23466380Y-81579717D02*
X23371142Y-81532098D01*
X23371142Y-81532098D02*
X23085428Y-81532098D01*
X23085428Y-81532098D02*
X22990190Y-81579717D01*
X22990190Y-81579717D02*
X22942571Y-81627336D01*
X22942571Y-81627336D02*
X22894952Y-81722574D01*
X22894952Y-81722574D02*
X22894952Y-81913050D01*
X22894952Y-81913050D02*
X22942571Y-82008288D01*
X23561619Y-82579717D02*
X23514000Y-82484479D01*
X23514000Y-82484479D02*
X23466380Y-82436860D01*
X23466380Y-82436860D02*
X23371142Y-82389241D01*
X23371142Y-82389241D02*
X23085428Y-82389241D01*
X23085428Y-82389241D02*
X22990190Y-82436860D01*
X22990190Y-82436860D02*
X22942571Y-82484479D01*
X22942571Y-82484479D02*
X22894952Y-82579717D01*
X22894952Y-82579717D02*
X22894952Y-82722574D01*
X22894952Y-82722574D02*
X22942571Y-82817812D01*
X22942571Y-82817812D02*
X22990190Y-82865431D01*
X22990190Y-82865431D02*
X23085428Y-82913050D01*
X23085428Y-82913050D02*
X23371142Y-82913050D01*
X23371142Y-82913050D02*
X23466380Y-82865431D01*
X23466380Y-82865431D02*
X23514000Y-82817812D01*
X23514000Y-82817812D02*
X23561619Y-82722574D01*
X23561619Y-82722574D02*
X23561619Y-82579717D01*
X23561619Y-83341622D02*
X22894952Y-83341622D01*
X22990190Y-83341622D02*
X22942571Y-83389241D01*
X22942571Y-83389241D02*
X22894952Y-83484479D01*
X22894952Y-83484479D02*
X22894952Y-83627336D01*
X22894952Y-83627336D02*
X22942571Y-83722574D01*
X22942571Y-83722574D02*
X23037809Y-83770193D01*
X23037809Y-83770193D02*
X23561619Y-83770193D01*
X23037809Y-83770193D02*
X22942571Y-83817812D01*
X22942571Y-83817812D02*
X22894952Y-83913050D01*
X22894952Y-83913050D02*
X22894952Y-84055907D01*
X22894952Y-84055907D02*
X22942571Y-84151146D01*
X22942571Y-84151146D02*
X23037809Y-84198765D01*
X23037809Y-84198765D02*
X23561619Y-84198765D01*
X23561619Y-84674955D02*
X22894952Y-84674955D01*
X22990190Y-84674955D02*
X22942571Y-84722574D01*
X22942571Y-84722574D02*
X22894952Y-84817812D01*
X22894952Y-84817812D02*
X22894952Y-84960669D01*
X22894952Y-84960669D02*
X22942571Y-85055907D01*
X22942571Y-85055907D02*
X23037809Y-85103526D01*
X23037809Y-85103526D02*
X23561619Y-85103526D01*
X23037809Y-85103526D02*
X22942571Y-85151145D01*
X22942571Y-85151145D02*
X22894952Y-85246383D01*
X22894952Y-85246383D02*
X22894952Y-85389240D01*
X22894952Y-85389240D02*
X22942571Y-85484479D01*
X22942571Y-85484479D02*
X23037809Y-85532098D01*
X23037809Y-85532098D02*
X23561619Y-85532098D01*
X23561619Y-86151145D02*
X23514000Y-86055907D01*
X23514000Y-86055907D02*
X23466380Y-86008288D01*
X23466380Y-86008288D02*
X23371142Y-85960669D01*
X23371142Y-85960669D02*
X23085428Y-85960669D01*
X23085428Y-85960669D02*
X22990190Y-86008288D01*
X22990190Y-86008288D02*
X22942571Y-86055907D01*
X22942571Y-86055907D02*
X22894952Y-86151145D01*
X22894952Y-86151145D02*
X22894952Y-86294002D01*
X22894952Y-86294002D02*
X22942571Y-86389240D01*
X22942571Y-86389240D02*
X22990190Y-86436859D01*
X22990190Y-86436859D02*
X23085428Y-86484478D01*
X23085428Y-86484478D02*
X23371142Y-86484478D01*
X23371142Y-86484478D02*
X23466380Y-86436859D01*
X23466380Y-86436859D02*
X23514000Y-86389240D01*
X23514000Y-86389240D02*
X23561619Y-86294002D01*
X23561619Y-86294002D02*
X23561619Y-86151145D01*
X22894952Y-86913050D02*
X23561619Y-86913050D01*
X22990190Y-86913050D02*
X22942571Y-86960669D01*
X22942571Y-86960669D02*
X22894952Y-87055907D01*
X22894952Y-87055907D02*
X22894952Y-87198764D01*
X22894952Y-87198764D02*
X22942571Y-87294002D01*
X22942571Y-87294002D02*
X23037809Y-87341621D01*
X23037809Y-87341621D02*
X23561619Y-87341621D01*
X22894952Y-88484479D02*
X23561619Y-88674955D01*
X23561619Y-88674955D02*
X23085428Y-88865431D01*
X23085428Y-88865431D02*
X23561619Y-89055907D01*
X23561619Y-89055907D02*
X22894952Y-89246383D01*
X23561619Y-89627336D02*
X22894952Y-89627336D01*
X22561619Y-89627336D02*
X22609238Y-89579717D01*
X22609238Y-89579717D02*
X22656857Y-89627336D01*
X22656857Y-89627336D02*
X22609238Y-89674955D01*
X22609238Y-89674955D02*
X22561619Y-89627336D01*
X22561619Y-89627336D02*
X22656857Y-89627336D01*
X22894952Y-89960669D02*
X22894952Y-90341621D01*
X22561619Y-90103526D02*
X23418761Y-90103526D01*
X23418761Y-90103526D02*
X23514000Y-90151145D01*
X23514000Y-90151145D02*
X23561619Y-90246383D01*
X23561619Y-90246383D02*
X23561619Y-90341621D01*
X23561619Y-90674955D02*
X22561619Y-90674955D01*
X23561619Y-91103526D02*
X23037809Y-91103526D01*
X23037809Y-91103526D02*
X22942571Y-91055907D01*
X22942571Y-91055907D02*
X22894952Y-90960669D01*
X22894952Y-90960669D02*
X22894952Y-90817812D01*
X22894952Y-90817812D02*
X22942571Y-90722574D01*
X22942571Y-90722574D02*
X22990190Y-90674955D01*
X24514952Y-66389238D02*
X24514952Y-66770190D01*
X24181619Y-66532095D02*
X25038761Y-66532095D01*
X25038761Y-66532095D02*
X25134000Y-66579714D01*
X25134000Y-66579714D02*
X25181619Y-66674952D01*
X25181619Y-66674952D02*
X25181619Y-66770190D01*
X25181619Y-67103524D02*
X24181619Y-67103524D01*
X25181619Y-67532095D02*
X24657809Y-67532095D01*
X24657809Y-67532095D02*
X24562571Y-67484476D01*
X24562571Y-67484476D02*
X24514952Y-67389238D01*
X24514952Y-67389238D02*
X24514952Y-67246381D01*
X24514952Y-67246381D02*
X24562571Y-67151143D01*
X24562571Y-67151143D02*
X24610190Y-67103524D01*
X25134000Y-68389238D02*
X25181619Y-68294000D01*
X25181619Y-68294000D02*
X25181619Y-68103524D01*
X25181619Y-68103524D02*
X25134000Y-68008286D01*
X25134000Y-68008286D02*
X25038761Y-67960667D01*
X25038761Y-67960667D02*
X24657809Y-67960667D01*
X24657809Y-67960667D02*
X24562571Y-68008286D01*
X24562571Y-68008286D02*
X24514952Y-68103524D01*
X24514952Y-68103524D02*
X24514952Y-68294000D01*
X24514952Y-68294000D02*
X24562571Y-68389238D01*
X24562571Y-68389238D02*
X24657809Y-68436857D01*
X24657809Y-68436857D02*
X24753047Y-68436857D01*
X24753047Y-68436857D02*
X24848285Y-67960667D01*
X25134000Y-69579715D02*
X25181619Y-69674953D01*
X25181619Y-69674953D02*
X25181619Y-69865429D01*
X25181619Y-69865429D02*
X25134000Y-69960667D01*
X25134000Y-69960667D02*
X25038761Y-70008286D01*
X25038761Y-70008286D02*
X24991142Y-70008286D01*
X24991142Y-70008286D02*
X24895904Y-69960667D01*
X24895904Y-69960667D02*
X24848285Y-69865429D01*
X24848285Y-69865429D02*
X24848285Y-69722572D01*
X24848285Y-69722572D02*
X24800666Y-69627334D01*
X24800666Y-69627334D02*
X24705428Y-69579715D01*
X24705428Y-69579715D02*
X24657809Y-69579715D01*
X24657809Y-69579715D02*
X24562571Y-69627334D01*
X24562571Y-69627334D02*
X24514952Y-69722572D01*
X24514952Y-69722572D02*
X24514952Y-69865429D01*
X24514952Y-69865429D02*
X24562571Y-69960667D01*
X25134000Y-70817810D02*
X25181619Y-70722572D01*
X25181619Y-70722572D02*
X25181619Y-70532096D01*
X25181619Y-70532096D02*
X25134000Y-70436858D01*
X25134000Y-70436858D02*
X25038761Y-70389239D01*
X25038761Y-70389239D02*
X24657809Y-70389239D01*
X24657809Y-70389239D02*
X24562571Y-70436858D01*
X24562571Y-70436858D02*
X24514952Y-70532096D01*
X24514952Y-70532096D02*
X24514952Y-70722572D01*
X24514952Y-70722572D02*
X24562571Y-70817810D01*
X24562571Y-70817810D02*
X24657809Y-70865429D01*
X24657809Y-70865429D02*
X24753047Y-70865429D01*
X24753047Y-70865429D02*
X24848285Y-70389239D01*
X25181619Y-71294001D02*
X24514952Y-71294001D01*
X24705428Y-71294001D02*
X24610190Y-71341620D01*
X24610190Y-71341620D02*
X24562571Y-71389239D01*
X24562571Y-71389239D02*
X24514952Y-71484477D01*
X24514952Y-71484477D02*
X24514952Y-71579715D01*
X25181619Y-71913049D02*
X24514952Y-71913049D01*
X24181619Y-71913049D02*
X24229238Y-71865430D01*
X24229238Y-71865430D02*
X24276857Y-71913049D01*
X24276857Y-71913049D02*
X24229238Y-71960668D01*
X24229238Y-71960668D02*
X24181619Y-71913049D01*
X24181619Y-71913049D02*
X24276857Y-71913049D01*
X25181619Y-72817810D02*
X24657809Y-72817810D01*
X24657809Y-72817810D02*
X24562571Y-72770191D01*
X24562571Y-72770191D02*
X24514952Y-72674953D01*
X24514952Y-72674953D02*
X24514952Y-72484477D01*
X24514952Y-72484477D02*
X24562571Y-72389239D01*
X25134000Y-72817810D02*
X25181619Y-72722572D01*
X25181619Y-72722572D02*
X25181619Y-72484477D01*
X25181619Y-72484477D02*
X25134000Y-72389239D01*
X25134000Y-72389239D02*
X25038761Y-72341620D01*
X25038761Y-72341620D02*
X24943523Y-72341620D01*
X24943523Y-72341620D02*
X24848285Y-72389239D01*
X24848285Y-72389239D02*
X24800666Y-72484477D01*
X24800666Y-72484477D02*
X24800666Y-72722572D01*
X24800666Y-72722572D02*
X24753047Y-72817810D01*
X25181619Y-73436858D02*
X25134000Y-73341620D01*
X25134000Y-73341620D02*
X25038761Y-73294001D01*
X25038761Y-73294001D02*
X24181619Y-73294001D01*
X24514952Y-74579716D02*
X25514952Y-74579716D01*
X24562571Y-74579716D02*
X24514952Y-74674954D01*
X24514952Y-74674954D02*
X24514952Y-74865430D01*
X24514952Y-74865430D02*
X24562571Y-74960668D01*
X24562571Y-74960668D02*
X24610190Y-75008287D01*
X24610190Y-75008287D02*
X24705428Y-75055906D01*
X24705428Y-75055906D02*
X24991142Y-75055906D01*
X24991142Y-75055906D02*
X25086380Y-75008287D01*
X25086380Y-75008287D02*
X25134000Y-74960668D01*
X25134000Y-74960668D02*
X25181619Y-74865430D01*
X25181619Y-74865430D02*
X25181619Y-74674954D01*
X25181619Y-74674954D02*
X25134000Y-74579716D01*
X25181619Y-75627335D02*
X25134000Y-75532097D01*
X25134000Y-75532097D02*
X25086380Y-75484478D01*
X25086380Y-75484478D02*
X24991142Y-75436859D01*
X24991142Y-75436859D02*
X24705428Y-75436859D01*
X24705428Y-75436859D02*
X24610190Y-75484478D01*
X24610190Y-75484478D02*
X24562571Y-75532097D01*
X24562571Y-75532097D02*
X24514952Y-75627335D01*
X24514952Y-75627335D02*
X24514952Y-75770192D01*
X24514952Y-75770192D02*
X24562571Y-75865430D01*
X24562571Y-75865430D02*
X24610190Y-75913049D01*
X24610190Y-75913049D02*
X24705428Y-75960668D01*
X24705428Y-75960668D02*
X24991142Y-75960668D01*
X24991142Y-75960668D02*
X25086380Y-75913049D01*
X25086380Y-75913049D02*
X25134000Y-75865430D01*
X25134000Y-75865430D02*
X25181619Y-75770192D01*
X25181619Y-75770192D02*
X25181619Y-75627335D01*
X25181619Y-76389240D02*
X24514952Y-76389240D01*
X24705428Y-76389240D02*
X24610190Y-76436859D01*
X24610190Y-76436859D02*
X24562571Y-76484478D01*
X24562571Y-76484478D02*
X24514952Y-76579716D01*
X24514952Y-76579716D02*
X24514952Y-76674954D01*
X24514952Y-76865431D02*
X24514952Y-77246383D01*
X24181619Y-77008288D02*
X25038761Y-77008288D01*
X25038761Y-77008288D02*
X25134000Y-77055907D01*
X25134000Y-77055907D02*
X25181619Y-77151145D01*
X25181619Y-77151145D02*
X25181619Y-77246383D01*
X24514952Y-78770193D02*
X25324476Y-78770193D01*
X25324476Y-78770193D02*
X25419714Y-78722574D01*
X25419714Y-78722574D02*
X25467333Y-78674955D01*
X25467333Y-78674955D02*
X25514952Y-78579717D01*
X25514952Y-78579717D02*
X25514952Y-78436860D01*
X25514952Y-78436860D02*
X25467333Y-78341622D01*
X25134000Y-78770193D02*
X25181619Y-78674955D01*
X25181619Y-78674955D02*
X25181619Y-78484479D01*
X25181619Y-78484479D02*
X25134000Y-78389241D01*
X25134000Y-78389241D02*
X25086380Y-78341622D01*
X25086380Y-78341622D02*
X24991142Y-78294003D01*
X24991142Y-78294003D02*
X24705428Y-78294003D01*
X24705428Y-78294003D02*
X24610190Y-78341622D01*
X24610190Y-78341622D02*
X24562571Y-78389241D01*
X24562571Y-78389241D02*
X24514952Y-78484479D01*
X24514952Y-78484479D02*
X24514952Y-78674955D01*
X24514952Y-78674955D02*
X24562571Y-78770193D01*
X25181619Y-79246384D02*
X24514952Y-79246384D01*
X24705428Y-79246384D02*
X24610190Y-79294003D01*
X24610190Y-79294003D02*
X24562571Y-79341622D01*
X24562571Y-79341622D02*
X24514952Y-79436860D01*
X24514952Y-79436860D02*
X24514952Y-79532098D01*
X25181619Y-80008289D02*
X25134000Y-79913051D01*
X25134000Y-79913051D02*
X25086380Y-79865432D01*
X25086380Y-79865432D02*
X24991142Y-79817813D01*
X24991142Y-79817813D02*
X24705428Y-79817813D01*
X24705428Y-79817813D02*
X24610190Y-79865432D01*
X24610190Y-79865432D02*
X24562571Y-79913051D01*
X24562571Y-79913051D02*
X24514952Y-80008289D01*
X24514952Y-80008289D02*
X24514952Y-80151146D01*
X24514952Y-80151146D02*
X24562571Y-80246384D01*
X24562571Y-80246384D02*
X24610190Y-80294003D01*
X24610190Y-80294003D02*
X24705428Y-80341622D01*
X24705428Y-80341622D02*
X24991142Y-80341622D01*
X24991142Y-80341622D02*
X25086380Y-80294003D01*
X25086380Y-80294003D02*
X25134000Y-80246384D01*
X25134000Y-80246384D02*
X25181619Y-80151146D01*
X25181619Y-80151146D02*
X25181619Y-80008289D01*
X24514952Y-81198765D02*
X25181619Y-81198765D01*
X24514952Y-80770194D02*
X25038761Y-80770194D01*
X25038761Y-80770194D02*
X25134000Y-80817813D01*
X25134000Y-80817813D02*
X25181619Y-80913051D01*
X25181619Y-80913051D02*
X25181619Y-81055908D01*
X25181619Y-81055908D02*
X25134000Y-81151146D01*
X25134000Y-81151146D02*
X25086380Y-81198765D01*
X24514952Y-81674956D02*
X25181619Y-81674956D01*
X24610190Y-81674956D02*
X24562571Y-81722575D01*
X24562571Y-81722575D02*
X24514952Y-81817813D01*
X24514952Y-81817813D02*
X24514952Y-81960670D01*
X24514952Y-81960670D02*
X24562571Y-82055908D01*
X24562571Y-82055908D02*
X24657809Y-82103527D01*
X24657809Y-82103527D02*
X25181619Y-82103527D01*
X25181619Y-83008289D02*
X24181619Y-83008289D01*
X25134000Y-83008289D02*
X25181619Y-82913051D01*
X25181619Y-82913051D02*
X25181619Y-82722575D01*
X25181619Y-82722575D02*
X25134000Y-82627337D01*
X25134000Y-82627337D02*
X25086380Y-82579718D01*
X25086380Y-82579718D02*
X24991142Y-82532099D01*
X24991142Y-82532099D02*
X24705428Y-82532099D01*
X24705428Y-82532099D02*
X24610190Y-82579718D01*
X24610190Y-82579718D02*
X24562571Y-82627337D01*
X24562571Y-82627337D02*
X24514952Y-82722575D01*
X24514952Y-82722575D02*
X24514952Y-82913051D01*
X24514952Y-82913051D02*
X24562571Y-83008289D01*
X26801619Y-66674952D02*
X26754000Y-66579714D01*
X26754000Y-66579714D02*
X26706380Y-66532095D01*
X26706380Y-66532095D02*
X26611142Y-66484476D01*
X26611142Y-66484476D02*
X26325428Y-66484476D01*
X26325428Y-66484476D02*
X26230190Y-66532095D01*
X26230190Y-66532095D02*
X26182571Y-66579714D01*
X26182571Y-66579714D02*
X26134952Y-66674952D01*
X26134952Y-66674952D02*
X26134952Y-66817809D01*
X26134952Y-66817809D02*
X26182571Y-66913047D01*
X26182571Y-66913047D02*
X26230190Y-66960666D01*
X26230190Y-66960666D02*
X26325428Y-67008285D01*
X26325428Y-67008285D02*
X26611142Y-67008285D01*
X26611142Y-67008285D02*
X26706380Y-66960666D01*
X26706380Y-66960666D02*
X26754000Y-66913047D01*
X26754000Y-66913047D02*
X26801619Y-66817809D01*
X26801619Y-66817809D02*
X26801619Y-66674952D01*
X26801619Y-67436857D02*
X26134952Y-67436857D01*
X26325428Y-67436857D02*
X26230190Y-67484476D01*
X26230190Y-67484476D02*
X26182571Y-67532095D01*
X26182571Y-67532095D02*
X26134952Y-67627333D01*
X26134952Y-67627333D02*
X26134952Y-67722571D01*
X26754000Y-68770191D02*
X26801619Y-68865429D01*
X26801619Y-68865429D02*
X26801619Y-69055905D01*
X26801619Y-69055905D02*
X26754000Y-69151143D01*
X26754000Y-69151143D02*
X26658761Y-69198762D01*
X26658761Y-69198762D02*
X26611142Y-69198762D01*
X26611142Y-69198762D02*
X26515904Y-69151143D01*
X26515904Y-69151143D02*
X26468285Y-69055905D01*
X26468285Y-69055905D02*
X26468285Y-68913048D01*
X26468285Y-68913048D02*
X26420666Y-68817810D01*
X26420666Y-68817810D02*
X26325428Y-68770191D01*
X26325428Y-68770191D02*
X26277809Y-68770191D01*
X26277809Y-68770191D02*
X26182571Y-68817810D01*
X26182571Y-68817810D02*
X26134952Y-68913048D01*
X26134952Y-68913048D02*
X26134952Y-69055905D01*
X26134952Y-69055905D02*
X26182571Y-69151143D01*
X26801619Y-69627334D02*
X25801619Y-69627334D01*
X26801619Y-70055905D02*
X26277809Y-70055905D01*
X26277809Y-70055905D02*
X26182571Y-70008286D01*
X26182571Y-70008286D02*
X26134952Y-69913048D01*
X26134952Y-69913048D02*
X26134952Y-69770191D01*
X26134952Y-69770191D02*
X26182571Y-69674953D01*
X26182571Y-69674953D02*
X26230190Y-69627334D01*
X26801619Y-70674953D02*
X26754000Y-70579715D01*
X26754000Y-70579715D02*
X26706380Y-70532096D01*
X26706380Y-70532096D02*
X26611142Y-70484477D01*
X26611142Y-70484477D02*
X26325428Y-70484477D01*
X26325428Y-70484477D02*
X26230190Y-70532096D01*
X26230190Y-70532096D02*
X26182571Y-70579715D01*
X26182571Y-70579715D02*
X26134952Y-70674953D01*
X26134952Y-70674953D02*
X26134952Y-70817810D01*
X26134952Y-70817810D02*
X26182571Y-70913048D01*
X26182571Y-70913048D02*
X26230190Y-70960667D01*
X26230190Y-70960667D02*
X26325428Y-71008286D01*
X26325428Y-71008286D02*
X26611142Y-71008286D01*
X26611142Y-71008286D02*
X26706380Y-70960667D01*
X26706380Y-70960667D02*
X26754000Y-70913048D01*
X26754000Y-70913048D02*
X26801619Y-70817810D01*
X26801619Y-70817810D02*
X26801619Y-70674953D01*
X26801619Y-71436858D02*
X26134952Y-71436858D01*
X26325428Y-71436858D02*
X26230190Y-71484477D01*
X26230190Y-71484477D02*
X26182571Y-71532096D01*
X26182571Y-71532096D02*
X26134952Y-71627334D01*
X26134952Y-71627334D02*
X26134952Y-71722572D01*
X26134952Y-71913049D02*
X26134952Y-72294001D01*
X25801619Y-72055906D02*
X26658761Y-72055906D01*
X26658761Y-72055906D02*
X26754000Y-72103525D01*
X26754000Y-72103525D02*
X26801619Y-72198763D01*
X26801619Y-72198763D02*
X26801619Y-72294001D01*
X26134952Y-73246383D02*
X26134952Y-73627335D01*
X25801619Y-73389240D02*
X26658761Y-73389240D01*
X26658761Y-73389240D02*
X26754000Y-73436859D01*
X26754000Y-73436859D02*
X26801619Y-73532097D01*
X26801619Y-73532097D02*
X26801619Y-73627335D01*
X26801619Y-73960669D02*
X25801619Y-73960669D01*
X26801619Y-74389240D02*
X26277809Y-74389240D01*
X26277809Y-74389240D02*
X26182571Y-74341621D01*
X26182571Y-74341621D02*
X26134952Y-74246383D01*
X26134952Y-74246383D02*
X26134952Y-74103526D01*
X26134952Y-74103526D02*
X26182571Y-74008288D01*
X26182571Y-74008288D02*
X26230190Y-73960669D01*
X26754000Y-75246383D02*
X26801619Y-75151145D01*
X26801619Y-75151145D02*
X26801619Y-74960669D01*
X26801619Y-74960669D02*
X26754000Y-74865431D01*
X26754000Y-74865431D02*
X26658761Y-74817812D01*
X26658761Y-74817812D02*
X26277809Y-74817812D01*
X26277809Y-74817812D02*
X26182571Y-74865431D01*
X26182571Y-74865431D02*
X26134952Y-74960669D01*
X26134952Y-74960669D02*
X26134952Y-75151145D01*
X26134952Y-75151145D02*
X26182571Y-75246383D01*
X26182571Y-75246383D02*
X26277809Y-75294002D01*
X26277809Y-75294002D02*
X26373047Y-75294002D01*
X26373047Y-75294002D02*
X26468285Y-74817812D01*
X26134952Y-76484479D02*
X26992095Y-76484479D01*
X26992095Y-76484479D02*
X27087333Y-76436860D01*
X27087333Y-76436860D02*
X27134952Y-76341622D01*
X27134952Y-76341622D02*
X27134952Y-76294003D01*
X25801619Y-76484479D02*
X25849238Y-76436860D01*
X25849238Y-76436860D02*
X25896857Y-76484479D01*
X25896857Y-76484479D02*
X25849238Y-76532098D01*
X25849238Y-76532098D02*
X25801619Y-76484479D01*
X25801619Y-76484479D02*
X25896857Y-76484479D01*
X26134952Y-77389240D02*
X26801619Y-77389240D01*
X26134952Y-76960669D02*
X26658761Y-76960669D01*
X26658761Y-76960669D02*
X26754000Y-77008288D01*
X26754000Y-77008288D02*
X26801619Y-77103526D01*
X26801619Y-77103526D02*
X26801619Y-77246383D01*
X26801619Y-77246383D02*
X26754000Y-77341621D01*
X26754000Y-77341621D02*
X26706380Y-77389240D01*
X26801619Y-77865431D02*
X26134952Y-77865431D01*
X26230190Y-77865431D02*
X26182571Y-77913050D01*
X26182571Y-77913050D02*
X26134952Y-78008288D01*
X26134952Y-78008288D02*
X26134952Y-78151145D01*
X26134952Y-78151145D02*
X26182571Y-78246383D01*
X26182571Y-78246383D02*
X26277809Y-78294002D01*
X26277809Y-78294002D02*
X26801619Y-78294002D01*
X26277809Y-78294002D02*
X26182571Y-78341621D01*
X26182571Y-78341621D02*
X26134952Y-78436859D01*
X26134952Y-78436859D02*
X26134952Y-78579716D01*
X26134952Y-78579716D02*
X26182571Y-78674955D01*
X26182571Y-78674955D02*
X26277809Y-78722574D01*
X26277809Y-78722574D02*
X26801619Y-78722574D01*
X26134952Y-79198764D02*
X27134952Y-79198764D01*
X26182571Y-79198764D02*
X26134952Y-79294002D01*
X26134952Y-79294002D02*
X26134952Y-79484478D01*
X26134952Y-79484478D02*
X26182571Y-79579716D01*
X26182571Y-79579716D02*
X26230190Y-79627335D01*
X26230190Y-79627335D02*
X26325428Y-79674954D01*
X26325428Y-79674954D02*
X26611142Y-79674954D01*
X26611142Y-79674954D02*
X26706380Y-79627335D01*
X26706380Y-79627335D02*
X26754000Y-79579716D01*
X26754000Y-79579716D02*
X26801619Y-79484478D01*
X26801619Y-79484478D02*
X26801619Y-79294002D01*
X26801619Y-79294002D02*
X26754000Y-79198764D01*
X26754000Y-80484478D02*
X26801619Y-80389240D01*
X26801619Y-80389240D02*
X26801619Y-80198764D01*
X26801619Y-80198764D02*
X26754000Y-80103526D01*
X26754000Y-80103526D02*
X26658761Y-80055907D01*
X26658761Y-80055907D02*
X26277809Y-80055907D01*
X26277809Y-80055907D02*
X26182571Y-80103526D01*
X26182571Y-80103526D02*
X26134952Y-80198764D01*
X26134952Y-80198764D02*
X26134952Y-80389240D01*
X26134952Y-80389240D02*
X26182571Y-80484478D01*
X26182571Y-80484478D02*
X26277809Y-80532097D01*
X26277809Y-80532097D02*
X26373047Y-80532097D01*
X26373047Y-80532097D02*
X26468285Y-80055907D01*
X26801619Y-80960669D02*
X26134952Y-80960669D01*
X26325428Y-80960669D02*
X26230190Y-81008288D01*
X26230190Y-81008288D02*
X26182571Y-81055907D01*
X26182571Y-81055907D02*
X26134952Y-81151145D01*
X26134952Y-81151145D02*
X26134952Y-81246383D01*
D10*
X20386666Y-47313833D02*
X20619999Y-46980500D01*
X20786666Y-47313833D02*
X20786666Y-46613833D01*
X20786666Y-46613833D02*
X20519999Y-46613833D01*
X20519999Y-46613833D02*
X20453333Y-46647166D01*
X20453333Y-46647166D02*
X20419999Y-46680500D01*
X20419999Y-46680500D02*
X20386666Y-46747166D01*
X20386666Y-46747166D02*
X20386666Y-46847166D01*
X20386666Y-46847166D02*
X20419999Y-46913833D01*
X20419999Y-46913833D02*
X20453333Y-46947166D01*
X20453333Y-46947166D02*
X20519999Y-46980500D01*
X20519999Y-46980500D02*
X20786666Y-46980500D01*
X20153333Y-47313833D02*
X19786666Y-46847166D01*
X20153333Y-46847166D02*
X19786666Y-47313833D01*
X14016666Y-24453833D02*
X14016666Y-23753833D01*
X14016666Y-23753833D02*
X13783333Y-24253833D01*
X13783333Y-24253833D02*
X13549999Y-23753833D01*
X13549999Y-23753833D02*
X13549999Y-24453833D01*
X13216666Y-24453833D02*
X13216666Y-23987166D01*
X13216666Y-23753833D02*
X13249999Y-23787166D01*
X13249999Y-23787166D02*
X13216666Y-23820500D01*
X13216666Y-23820500D02*
X13183333Y-23787166D01*
X13183333Y-23787166D02*
X13216666Y-23753833D01*
X13216666Y-23753833D02*
X13216666Y-23820500D01*
X12583333Y-24420500D02*
X12650000Y-24453833D01*
X12650000Y-24453833D02*
X12783333Y-24453833D01*
X12783333Y-24453833D02*
X12850000Y-24420500D01*
X12850000Y-24420500D02*
X12883333Y-24387166D01*
X12883333Y-24387166D02*
X12916666Y-24320500D01*
X12916666Y-24320500D02*
X12916666Y-24120500D01*
X12916666Y-24120500D02*
X12883333Y-24053833D01*
X12883333Y-24053833D02*
X12850000Y-24020500D01*
X12850000Y-24020500D02*
X12783333Y-23987166D01*
X12783333Y-23987166D02*
X12650000Y-23987166D01*
X12650000Y-23987166D02*
X12583333Y-24020500D01*
X11383333Y-23787166D02*
X11450000Y-23753833D01*
X11450000Y-23753833D02*
X11550000Y-23753833D01*
X11550000Y-23753833D02*
X11650000Y-23787166D01*
X11650000Y-23787166D02*
X11716667Y-23853833D01*
X11716667Y-23853833D02*
X11750000Y-23920500D01*
X11750000Y-23920500D02*
X11783333Y-24053833D01*
X11783333Y-24053833D02*
X11783333Y-24153833D01*
X11783333Y-24153833D02*
X11750000Y-24287166D01*
X11750000Y-24287166D02*
X11716667Y-24353833D01*
X11716667Y-24353833D02*
X11650000Y-24420500D01*
X11650000Y-24420500D02*
X11550000Y-24453833D01*
X11550000Y-24453833D02*
X11483333Y-24453833D01*
X11483333Y-24453833D02*
X11383333Y-24420500D01*
X11383333Y-24420500D02*
X11350000Y-24387166D01*
X11350000Y-24387166D02*
X11350000Y-24153833D01*
X11350000Y-24153833D02*
X11483333Y-24153833D01*
X2228833Y-22868334D02*
X2228833Y-22535000D01*
X2228833Y-22535000D02*
X1528833Y-22535000D01*
X2228833Y-23101667D02*
X1762166Y-23101667D01*
X1528833Y-23101667D02*
X1562166Y-23068334D01*
X1562166Y-23068334D02*
X1595500Y-23101667D01*
X1595500Y-23101667D02*
X1562166Y-23135001D01*
X1562166Y-23135001D02*
X1528833Y-23101667D01*
X1528833Y-23101667D02*
X1595500Y-23101667D01*
X1762166Y-23435000D02*
X2228833Y-23435000D01*
X1828833Y-23435000D02*
X1795500Y-23468334D01*
X1795500Y-23468334D02*
X1762166Y-23535000D01*
X1762166Y-23535000D02*
X1762166Y-23635000D01*
X1762166Y-23635000D02*
X1795500Y-23701667D01*
X1795500Y-23701667D02*
X1862166Y-23735000D01*
X1862166Y-23735000D02*
X2228833Y-23735000D01*
X2195500Y-24335000D02*
X2228833Y-24268333D01*
X2228833Y-24268333D02*
X2228833Y-24135000D01*
X2228833Y-24135000D02*
X2195500Y-24068333D01*
X2195500Y-24068333D02*
X2128833Y-24035000D01*
X2128833Y-24035000D02*
X1862166Y-24035000D01*
X1862166Y-24035000D02*
X1795500Y-24068333D01*
X1795500Y-24068333D02*
X1762166Y-24135000D01*
X1762166Y-24135000D02*
X1762166Y-24268333D01*
X1762166Y-24268333D02*
X1795500Y-24335000D01*
X1795500Y-24335000D02*
X1862166Y-24368333D01*
X1862166Y-24368333D02*
X1928833Y-24368333D01*
X1928833Y-24368333D02*
X1995500Y-24035000D01*
X2228833Y-25201666D02*
X1762166Y-25201666D01*
X1528833Y-25201666D02*
X1562166Y-25168333D01*
X1562166Y-25168333D02*
X1595500Y-25201666D01*
X1595500Y-25201666D02*
X1562166Y-25235000D01*
X1562166Y-25235000D02*
X1528833Y-25201666D01*
X1528833Y-25201666D02*
X1595500Y-25201666D01*
X1762166Y-25534999D02*
X2228833Y-25534999D01*
X1828833Y-25534999D02*
X1795500Y-25568333D01*
X1795500Y-25568333D02*
X1762166Y-25634999D01*
X1762166Y-25634999D02*
X1762166Y-25734999D01*
X1762166Y-25734999D02*
X1795500Y-25801666D01*
X1795500Y-25801666D02*
X1862166Y-25834999D01*
X1862166Y-25834999D02*
X2228833Y-25834999D01*
X2495500Y-26901665D02*
X2462166Y-26868332D01*
X2462166Y-26868332D02*
X2362166Y-26801665D01*
X2362166Y-26801665D02*
X2295500Y-26768332D01*
X2295500Y-26768332D02*
X2195500Y-26734999D01*
X2195500Y-26734999D02*
X2028833Y-26701665D01*
X2028833Y-26701665D02*
X1895500Y-26701665D01*
X1895500Y-26701665D02*
X1728833Y-26734999D01*
X1728833Y-26734999D02*
X1628833Y-26768332D01*
X1628833Y-26768332D02*
X1562166Y-26801665D01*
X1562166Y-26801665D02*
X1462166Y-26868332D01*
X1462166Y-26868332D02*
X1428833Y-26901665D01*
X2228833Y-27168332D02*
X1528833Y-27168332D01*
X1795500Y-27168332D02*
X1762166Y-27234999D01*
X1762166Y-27234999D02*
X1762166Y-27368332D01*
X1762166Y-27368332D02*
X1795500Y-27434999D01*
X1795500Y-27434999D02*
X1828833Y-27468332D01*
X1828833Y-27468332D02*
X1895500Y-27501666D01*
X1895500Y-27501666D02*
X2095500Y-27501666D01*
X2095500Y-27501666D02*
X2162166Y-27468332D01*
X2162166Y-27468332D02*
X2195500Y-27434999D01*
X2195500Y-27434999D02*
X2228833Y-27368332D01*
X2228833Y-27368332D02*
X2228833Y-27234999D01*
X2228833Y-27234999D02*
X2195500Y-27168332D01*
X2228833Y-27901665D02*
X2195500Y-27834999D01*
X2195500Y-27834999D02*
X2128833Y-27801665D01*
X2128833Y-27801665D02*
X1528833Y-27801665D01*
X1762166Y-28468332D02*
X2228833Y-28468332D01*
X1762166Y-28168332D02*
X2128833Y-28168332D01*
X2128833Y-28168332D02*
X2195500Y-28201666D01*
X2195500Y-28201666D02*
X2228833Y-28268332D01*
X2228833Y-28268332D02*
X2228833Y-28368332D01*
X2228833Y-28368332D02*
X2195500Y-28434999D01*
X2195500Y-28434999D02*
X2162166Y-28468332D01*
X2195500Y-29068332D02*
X2228833Y-29001665D01*
X2228833Y-29001665D02*
X2228833Y-28868332D01*
X2228833Y-28868332D02*
X2195500Y-28801665D01*
X2195500Y-28801665D02*
X2128833Y-28768332D01*
X2128833Y-28768332D02*
X1862166Y-28768332D01*
X1862166Y-28768332D02*
X1795500Y-28801665D01*
X1795500Y-28801665D02*
X1762166Y-28868332D01*
X1762166Y-28868332D02*
X1762166Y-29001665D01*
X1762166Y-29001665D02*
X1795500Y-29068332D01*
X1795500Y-29068332D02*
X1862166Y-29101665D01*
X1862166Y-29101665D02*
X1928833Y-29101665D01*
X1928833Y-29101665D02*
X1995500Y-28768332D01*
X2495500Y-29334999D02*
X2462166Y-29368332D01*
X2462166Y-29368332D02*
X2362166Y-29434999D01*
X2362166Y-29434999D02*
X2295500Y-29468332D01*
X2295500Y-29468332D02*
X2195500Y-29501665D01*
X2195500Y-29501665D02*
X2028833Y-29534999D01*
X2028833Y-29534999D02*
X1895500Y-29534999D01*
X1895500Y-29534999D02*
X1728833Y-29501665D01*
X1728833Y-29501665D02*
X1628833Y-29468332D01*
X1628833Y-29468332D02*
X1562166Y-29434999D01*
X1562166Y-29434999D02*
X1462166Y-29368332D01*
X1462166Y-29368332D02*
X1428833Y-29334999D01*
%TO.C,G\u002A\u002A\u002A*%
G36*
X11873359Y-97026944D02*
G01*
X12195563Y-97350318D01*
X12210648Y-97415424D01*
X12215608Y-97435993D01*
X12257275Y-97568706D01*
X12313675Y-97694310D01*
X12383755Y-97810400D01*
X12396776Y-97829270D01*
X12414881Y-97855792D01*
X12427347Y-97874435D01*
X12432030Y-97882017D01*
X12429690Y-97882264D01*
X12412930Y-97882710D01*
X12381546Y-97883117D01*
X12337329Y-97883473D01*
X12282074Y-97883770D01*
X12217574Y-97883994D01*
X12145622Y-97884137D01*
X12068011Y-97884187D01*
X11703824Y-97884187D01*
X11687531Y-97847294D01*
X11683315Y-97837044D01*
X11672674Y-97808739D01*
X11659318Y-97771397D01*
X11644895Y-97729794D01*
X11631049Y-97688708D01*
X11619428Y-97652913D01*
X11611677Y-97627188D01*
X11610136Y-97625418D01*
X11595435Y-97620264D01*
X11568289Y-97615438D01*
X11532320Y-97611648D01*
X11508277Y-97609622D01*
X11459312Y-97604928D01*
X11405838Y-97599273D01*
X11355780Y-97593475D01*
X11329929Y-97590369D01*
X11272018Y-97583705D01*
X11212369Y-97577149D01*
X11160462Y-97571757D01*
X11129954Y-97568654D01*
X11088914Y-97564266D01*
X11054651Y-97560364D01*
X11032420Y-97557529D01*
X10999867Y-97552791D01*
X10999867Y-96765891D01*
X11032420Y-96761152D01*
X11046815Y-96759265D01*
X11078163Y-96755603D01*
X11117796Y-96751287D01*
X11160462Y-96746900D01*
X11189705Y-96743925D01*
X11246621Y-96737918D01*
X11306411Y-96731396D01*
X11360120Y-96725327D01*
X11398732Y-96720868D01*
X11443232Y-96715754D01*
X11481377Y-96711397D01*
X11507722Y-96708419D01*
X11551154Y-96703569D01*
X11873359Y-97026944D01*
G37*
G36*
X14990386Y-95507344D02*
G01*
X15012053Y-95529038D01*
X15075697Y-95593218D01*
X15131320Y-95650026D01*
X15178179Y-95698678D01*
X15215534Y-95738388D01*
X15242643Y-95768372D01*
X15258764Y-95787847D01*
X15263157Y-95796026D01*
X15261981Y-95797539D01*
X15251657Y-95810529D01*
X15232690Y-95834245D01*
X15206793Y-95866548D01*
X15175679Y-95905303D01*
X15141060Y-95948370D01*
X15133643Y-95957593D01*
X15097607Y-96002424D01*
X15063961Y-96044317D01*
X15034827Y-96080625D01*
X15012331Y-96108701D01*
X14998595Y-96125898D01*
X14991459Y-96134804D01*
X14967902Y-96163552D01*
X14946558Y-96188834D01*
X14921787Y-96217475D01*
X14012644Y-96217475D01*
X13953462Y-96179190D01*
X13882138Y-96137255D01*
X13764660Y-96083231D01*
X13638415Y-96041590D01*
X13506446Y-96013458D01*
X13500466Y-96012414D01*
X13481527Y-96007335D01*
X13473893Y-96002177D01*
X13475216Y-96000224D01*
X13486474Y-95987687D01*
X13508163Y-95964836D01*
X13538999Y-95932985D01*
X13577702Y-95893445D01*
X13622987Y-95847531D01*
X13673573Y-95796554D01*
X13728178Y-95741829D01*
X13982463Y-95487653D01*
X14034176Y-95510364D01*
X14043989Y-95514746D01*
X14079696Y-95531356D01*
X14121217Y-95551361D01*
X14161444Y-95571355D01*
X14237000Y-95609637D01*
X14304647Y-95555473D01*
X14322248Y-95541363D01*
X14351712Y-95517666D01*
X14375508Y-95498433D01*
X14389686Y-95486850D01*
X14393231Y-95483936D01*
X14410094Y-95470226D01*
X14437306Y-95448196D01*
X14472653Y-95419636D01*
X14513922Y-95386335D01*
X14558898Y-95350082D01*
X14710717Y-95227774D01*
X14990386Y-95507344D01*
G37*
G36*
X14494976Y-97297402D02*
G01*
X14507503Y-97308297D01*
X14530304Y-97329630D01*
X14562090Y-97360146D01*
X14601568Y-97398595D01*
X14647451Y-97443722D01*
X14698448Y-97494277D01*
X14753269Y-97549007D01*
X15009575Y-97805751D01*
X14987591Y-97855820D01*
X14983220Y-97865601D01*
X14966928Y-97900580D01*
X14947184Y-97941514D01*
X14927326Y-97981444D01*
X14889045Y-98057000D01*
X14943208Y-98124647D01*
X14957318Y-98142248D01*
X14981016Y-98171712D01*
X15000249Y-98195508D01*
X15011832Y-98209686D01*
X15014745Y-98213231D01*
X15028456Y-98230094D01*
X15050486Y-98257306D01*
X15079046Y-98292653D01*
X15112347Y-98333922D01*
X15148599Y-98378898D01*
X15270908Y-98530717D01*
X14991337Y-98810386D01*
X14969643Y-98832053D01*
X14905463Y-98895697D01*
X14848655Y-98951320D01*
X14800004Y-98998179D01*
X14760294Y-99035534D01*
X14730309Y-99062643D01*
X14710835Y-99078764D01*
X14702656Y-99083157D01*
X14695794Y-99077746D01*
X14677160Y-99062883D01*
X14649434Y-99040696D01*
X14615025Y-99013121D01*
X14576344Y-98982093D01*
X14535801Y-98949547D01*
X14495806Y-98917418D01*
X14458769Y-98887640D01*
X14427100Y-98862148D01*
X14403210Y-98842877D01*
X14389508Y-98831763D01*
X14373910Y-98819167D01*
X14349886Y-98799961D01*
X14322643Y-98778309D01*
X14273347Y-98739245D01*
X14272937Y-98293051D01*
X14272526Y-97846858D01*
X14314601Y-97780885D01*
X14341905Y-97736033D01*
X14404530Y-97612178D01*
X14450751Y-97484993D01*
X14480102Y-97355679D01*
X14484860Y-97328511D01*
X14489624Y-97306287D01*
X14492957Y-97296269D01*
X14494976Y-97297402D01*
G37*
G36*
X11992494Y-95247374D02*
G01*
X11993627Y-95248185D01*
X12014078Y-95263527D01*
X12041827Y-95285144D01*
X12071208Y-95308627D01*
X12077662Y-95313853D01*
X12107214Y-95337702D01*
X12144937Y-95368064D01*
X12186657Y-95401581D01*
X12228199Y-95434895D01*
X12246803Y-95449828D01*
X12282155Y-95478383D01*
X12312006Y-95502724D01*
X12333665Y-95520649D01*
X12344438Y-95529957D01*
X12357040Y-95540597D01*
X12376991Y-95554990D01*
X12397475Y-95568412D01*
X12397475Y-96489123D01*
X12368083Y-96533425D01*
X12340761Y-96578039D01*
X12310198Y-96634151D01*
X12281823Y-96691897D01*
X12259578Y-96743640D01*
X12252316Y-96763765D01*
X12238387Y-96807702D01*
X12224030Y-96858279D01*
X12210772Y-96909734D01*
X12200141Y-96956307D01*
X12193664Y-96992235D01*
X12191453Y-97005983D01*
X12186601Y-97025716D01*
X12182038Y-97033469D01*
X12179953Y-97032025D01*
X12167216Y-97020533D01*
X12144185Y-96998632D01*
X12112168Y-96967603D01*
X12072474Y-96928723D01*
X12026411Y-96883271D01*
X11975287Y-96832525D01*
X11920411Y-96777765D01*
X11664817Y-96522062D01*
X11693898Y-96454406D01*
X11694075Y-96453994D01*
X11713224Y-96411624D01*
X11735444Y-96365563D01*
X11755960Y-96325710D01*
X11788942Y-96264670D01*
X11758454Y-96225881D01*
X11746099Y-96210250D01*
X11726992Y-96186377D01*
X11713318Y-96169660D01*
X11710766Y-96166609D01*
X11691657Y-96143389D01*
X11664561Y-96110074D01*
X11631837Y-96069603D01*
X11595845Y-96024915D01*
X11558943Y-95978947D01*
X11523493Y-95934637D01*
X11491852Y-95894924D01*
X11466380Y-95862745D01*
X11449436Y-95841039D01*
X11408540Y-95787775D01*
X11966602Y-95228937D01*
X11992494Y-95247374D01*
G37*
G36*
X12724904Y-98138988D02*
G01*
X12790571Y-98178524D01*
X12857207Y-98212099D01*
X12931343Y-98242529D01*
X12962113Y-98253420D01*
X13006092Y-98267381D01*
X13051170Y-98280275D01*
X13092975Y-98290934D01*
X13127138Y-98298187D01*
X13149288Y-98300865D01*
X13162365Y-98301758D01*
X13182376Y-98306134D01*
X13189224Y-98309518D01*
X13196108Y-98317041D01*
X13195003Y-98318674D01*
X13184202Y-98330652D01*
X13162931Y-98352993D01*
X13132478Y-98384381D01*
X13094133Y-98423496D01*
X13049185Y-98469023D01*
X12998923Y-98519643D01*
X12944637Y-98574038D01*
X12693166Y-98825397D01*
X12660341Y-98813810D01*
X12642804Y-98806741D01*
X12612103Y-98793017D01*
X12574476Y-98775311D01*
X12534481Y-98755728D01*
X12441447Y-98709234D01*
X12373917Y-98763303D01*
X12356426Y-98777322D01*
X12326974Y-98800996D01*
X12303179Y-98820205D01*
X12288995Y-98831763D01*
X12278821Y-98840056D01*
X12257128Y-98857595D01*
X12227029Y-98881857D01*
X12190962Y-98910885D01*
X12151363Y-98942723D01*
X12110668Y-98975413D01*
X12071313Y-99006999D01*
X12035735Y-99035523D01*
X12006371Y-99059029D01*
X11985655Y-99075559D01*
X11976026Y-99083157D01*
X11974709Y-99083081D01*
X11962875Y-99074901D01*
X11939993Y-99055226D01*
X11906850Y-99024798D01*
X11864228Y-98984359D01*
X11812914Y-98934650D01*
X11753691Y-98876412D01*
X11687344Y-98810386D01*
X11407774Y-98530717D01*
X11530230Y-98378898D01*
X11544073Y-98361733D01*
X11580870Y-98316081D01*
X11614896Y-98273834D01*
X11644119Y-98237517D01*
X11666504Y-98209658D01*
X11680018Y-98192783D01*
X11687197Y-98183846D01*
X11710779Y-98155112D01*
X11732123Y-98129847D01*
X11756895Y-98101207D01*
X12666038Y-98101207D01*
X12724904Y-98138988D01*
G37*
G36*
X14052016Y-98077387D02*
G01*
X14052825Y-98093940D01*
X14053563Y-98125137D01*
X14054211Y-98169183D01*
X14054748Y-98224278D01*
X14055156Y-98288625D01*
X14055415Y-98360427D01*
X14055506Y-98437884D01*
X14055506Y-98800603D01*
X13996911Y-98823156D01*
X13970666Y-98832917D01*
X13927770Y-98848054D01*
X13881966Y-98863543D01*
X13839643Y-98877236D01*
X13807188Y-98886983D01*
X13805413Y-98888536D01*
X13800262Y-98903259D01*
X13795436Y-98930411D01*
X13791648Y-98966362D01*
X13789622Y-98990404D01*
X13784928Y-99039369D01*
X13779273Y-99092843D01*
X13773475Y-99142902D01*
X13770369Y-99168753D01*
X13763705Y-99226664D01*
X13757149Y-99286312D01*
X13751757Y-99338220D01*
X13748654Y-99368727D01*
X13744266Y-99409768D01*
X13740364Y-99444030D01*
X13737529Y-99466261D01*
X13732791Y-99498814D01*
X12945891Y-99498814D01*
X12941152Y-99466261D01*
X12939265Y-99451867D01*
X12935603Y-99420518D01*
X12931287Y-99380885D01*
X12926900Y-99338220D01*
X12923922Y-99308969D01*
X12917902Y-99252055D01*
X12911358Y-99192268D01*
X12905261Y-99138562D01*
X12900885Y-99100770D01*
X12895542Y-99054141D01*
X12890882Y-99012968D01*
X12887576Y-98983143D01*
X12882016Y-98931894D01*
X13197442Y-98616379D01*
X13209783Y-98604041D01*
X13290950Y-98523298D01*
X13360258Y-98455118D01*
X13417761Y-98399450D01*
X13463513Y-98356242D01*
X13497569Y-98325443D01*
X13519983Y-98307001D01*
X13530809Y-98300865D01*
X13548149Y-98298903D01*
X13579955Y-98292337D01*
X13620114Y-98282274D01*
X13664289Y-98269879D01*
X13708143Y-98256314D01*
X13747338Y-98242745D01*
X13759711Y-98238020D01*
X13839100Y-98202866D01*
X13919605Y-98159905D01*
X13992471Y-98113742D01*
X13998602Y-98109474D01*
X14024212Y-98092032D01*
X14043113Y-98079786D01*
X14051582Y-98075164D01*
X14052016Y-98077387D01*
G37*
G36*
X14991151Y-96471388D02*
G01*
X14995367Y-96481637D01*
X15006008Y-96509942D01*
X15019363Y-96547284D01*
X15033787Y-96588887D01*
X15047632Y-96629974D01*
X15059254Y-96665768D01*
X15067004Y-96691493D01*
X15068545Y-96693264D01*
X15083247Y-96698417D01*
X15110393Y-96703244D01*
X15146362Y-96707034D01*
X15170404Y-96709060D01*
X15219369Y-96713754D01*
X15272843Y-96719408D01*
X15322902Y-96725207D01*
X15348753Y-96728313D01*
X15406664Y-96734977D01*
X15466312Y-96741532D01*
X15518220Y-96746925D01*
X15548727Y-96750027D01*
X15589768Y-96754415D01*
X15624030Y-96758318D01*
X15646261Y-96761152D01*
X15678814Y-96765891D01*
X15678814Y-97552791D01*
X15646261Y-97557529D01*
X15631867Y-97559417D01*
X15600518Y-97563078D01*
X15560885Y-97567394D01*
X15518220Y-97571782D01*
X15488977Y-97574756D01*
X15432060Y-97580764D01*
X15372271Y-97587285D01*
X15318562Y-97593354D01*
X15280338Y-97597772D01*
X15234812Y-97603018D01*
X15195214Y-97607565D01*
X15167204Y-97610761D01*
X15120016Y-97616108D01*
X14800441Y-97296620D01*
X14777728Y-97273880D01*
X14717520Y-97213255D01*
X14661618Y-97156477D01*
X14611168Y-97104740D01*
X14567318Y-97059240D01*
X14531216Y-97021174D01*
X14504008Y-96991736D01*
X14486842Y-96972124D01*
X14480865Y-96963532D01*
X14480837Y-96962311D01*
X14477782Y-96942073D01*
X14470502Y-96910119D01*
X14460177Y-96870759D01*
X14447990Y-96828303D01*
X14435119Y-96787061D01*
X14422745Y-96751343D01*
X14415426Y-96732436D01*
X14380821Y-96655439D01*
X14339323Y-96577943D01*
X14295574Y-96508796D01*
X14293838Y-96506311D01*
X14275119Y-96479321D01*
X14260189Y-96457492D01*
X14252143Y-96445346D01*
X14252310Y-96443546D01*
X14258565Y-96441110D01*
X14273265Y-96439123D01*
X14297686Y-96437548D01*
X14333100Y-96436346D01*
X14380781Y-96435478D01*
X14442002Y-96434906D01*
X14518036Y-96434591D01*
X14610158Y-96434495D01*
X14974858Y-96434495D01*
X14991151Y-96471388D01*
G37*
G36*
X13737529Y-94852420D02*
G01*
X13739419Y-94866816D01*
X13743088Y-94898165D01*
X13747417Y-94937797D01*
X13751820Y-94980462D01*
X13754678Y-95008716D01*
X13758340Y-95043864D01*
X13762427Y-95081779D01*
X13767261Y-95125357D01*
X13773164Y-95177492D01*
X13780458Y-95241079D01*
X13789464Y-95319013D01*
X13791805Y-95340774D01*
X13793782Y-95362373D01*
X13792666Y-95365159D01*
X13781807Y-95379485D01*
X13760534Y-95403874D01*
X13730246Y-95436914D01*
X13692343Y-95477196D01*
X13648225Y-95523307D01*
X13599292Y-95573838D01*
X13546943Y-95627377D01*
X13492578Y-95682513D01*
X13437597Y-95737836D01*
X13383400Y-95791934D01*
X13331385Y-95843396D01*
X13282954Y-95890813D01*
X13239505Y-95932772D01*
X13202439Y-95967862D01*
X13173154Y-95994674D01*
X13153052Y-96011796D01*
X13143532Y-96017816D01*
X13142311Y-96017844D01*
X13122073Y-96020900D01*
X13090119Y-96028180D01*
X13050759Y-96038504D01*
X13008303Y-96050692D01*
X12967061Y-96063563D01*
X12931343Y-96075936D01*
X12912436Y-96083255D01*
X12835439Y-96117861D01*
X12757943Y-96159358D01*
X12688796Y-96203108D01*
X12686311Y-96204843D01*
X12659321Y-96223563D01*
X12637492Y-96238493D01*
X12625346Y-96246538D01*
X12623546Y-96246371D01*
X12621110Y-96240117D01*
X12619123Y-96225416D01*
X12617548Y-96200996D01*
X12616346Y-96165582D01*
X12615478Y-96117901D01*
X12614906Y-96056680D01*
X12614591Y-95980645D01*
X12614495Y-95888523D01*
X12614495Y-95523824D01*
X12651388Y-95507531D01*
X12661637Y-95503315D01*
X12689942Y-95492674D01*
X12727284Y-95479318D01*
X12768887Y-95464895D01*
X12809974Y-95451049D01*
X12845768Y-95439428D01*
X12871493Y-95431677D01*
X12873264Y-95430136D01*
X12878417Y-95415435D01*
X12883244Y-95388289D01*
X12887034Y-95352320D01*
X12889060Y-95328277D01*
X12893754Y-95279312D01*
X12899408Y-95225838D01*
X12905207Y-95175780D01*
X12908313Y-95149929D01*
X12914977Y-95092018D01*
X12921532Y-95032369D01*
X12926925Y-94980462D01*
X12930027Y-94949954D01*
X12934415Y-94908914D01*
X12938318Y-94874651D01*
X12941152Y-94852420D01*
X12945891Y-94819867D01*
X13732791Y-94819867D01*
X13737529Y-94852420D01*
G37*
G36*
X13187427Y-96587564D02*
G01*
X13196108Y-96585605D01*
X13289859Y-96574920D01*
X13398477Y-96574601D01*
X13502408Y-96587215D01*
X13600020Y-96612204D01*
X13689683Y-96649009D01*
X13769762Y-96697071D01*
X13838628Y-96755831D01*
X13894647Y-96824732D01*
X13899074Y-96831505D01*
X13937187Y-96900402D01*
X13967088Y-96973983D01*
X13985755Y-97044948D01*
X13988331Y-97066441D01*
X13990520Y-97103701D01*
X13991519Y-97148101D01*
X13991126Y-97194064D01*
X13990533Y-97213925D01*
X13987992Y-97260496D01*
X13983480Y-97297676D01*
X13976109Y-97331336D01*
X13964994Y-97367349D01*
X13963405Y-97371965D01*
X13923702Y-97459735D01*
X13869289Y-97539021D01*
X13801246Y-97608496D01*
X13720656Y-97666836D01*
X13670979Y-97696888D01*
X13637542Y-97659209D01*
X13617277Y-97634019D01*
X13606219Y-97611374D01*
X13608128Y-97592853D01*
X13622417Y-97575194D01*
X13641027Y-97556418D01*
X13671290Y-97520452D01*
X13702265Y-97478747D01*
X13729771Y-97437029D01*
X13749626Y-97401023D01*
X13753676Y-97392242D01*
X13762626Y-97370332D01*
X13768375Y-97349274D01*
X13771620Y-97324514D01*
X13773056Y-97291502D01*
X13773380Y-97245685D01*
X13773233Y-97203966D01*
X13772181Y-97171302D01*
X13769312Y-97146826D01*
X13763715Y-97125778D01*
X13754478Y-97103396D01*
X13740690Y-97074920D01*
X13720049Y-97038617D01*
X13671123Y-96978197D01*
X13610660Y-96928917D01*
X13540712Y-96892001D01*
X13463333Y-96868673D01*
X13380575Y-96860158D01*
X13343681Y-96859853D01*
X13343681Y-97658086D01*
X13321905Y-97672355D01*
X13310497Y-97677636D01*
X13279590Y-97684876D01*
X13238038Y-97689633D01*
X13189999Y-97691775D01*
X13139630Y-97691166D01*
X13091089Y-97687673D01*
X13048534Y-97681162D01*
X13011304Y-97671860D01*
X12928253Y-97639966D01*
X12853467Y-97595304D01*
X12789327Y-97539465D01*
X12738214Y-97474036D01*
X12736419Y-97471167D01*
X12703449Y-97411005D01*
X12680862Y-97351180D01*
X12667002Y-97286080D01*
X12660209Y-97210094D01*
X12659277Y-97184764D01*
X12826305Y-97184764D01*
X12831932Y-97238130D01*
X12847458Y-97283402D01*
X12859184Y-97303782D01*
X12900575Y-97355132D01*
X12951158Y-97393921D01*
X13008517Y-97418583D01*
X13070236Y-97427557D01*
X13099768Y-97426229D01*
X13137702Y-97416398D01*
X13163391Y-97396190D01*
X13178536Y-97364617D01*
X13180656Y-97350387D01*
X13182846Y-97319943D01*
X13184695Y-97276809D01*
X13186122Y-97223483D01*
X13187044Y-97162461D01*
X13187378Y-97096240D01*
X13187427Y-96859523D01*
X13167895Y-96863962D01*
X13159802Y-96865773D01*
X13134636Y-96871280D01*
X13105233Y-96877611D01*
X13075827Y-96885141D01*
X13005999Y-96913478D01*
X12943330Y-96953713D01*
X12890970Y-97003567D01*
X12852067Y-97060764D01*
X12844245Y-97078078D01*
X12830451Y-97129386D01*
X12826305Y-97184764D01*
X12659277Y-97184764D01*
X12658736Y-97170080D01*
X12658961Y-97133898D01*
X12661919Y-97103279D01*
X12668276Y-97071888D01*
X12678691Y-97033393D01*
X12688108Y-97003082D01*
X12724972Y-96915991D01*
X12774793Y-96837627D01*
X12839742Y-96764365D01*
X12859349Y-96745703D01*
X12933627Y-96685915D01*
X13012170Y-96640479D01*
X13098491Y-96607630D01*
X13187427Y-96587564D01*
G37*
G36*
X17099364Y-6280295D02*
G01*
X16935261Y-6280305D01*
X16902446Y-6280338D01*
X16858757Y-6280559D01*
X16825000Y-6281070D01*
X16799591Y-6281964D01*
X16780944Y-6283335D01*
X16767474Y-6285277D01*
X16757595Y-6287882D01*
X16749722Y-6291245D01*
X16734290Y-6301153D01*
X16713292Y-6324887D01*
X16701753Y-6353879D01*
X16700525Y-6385401D01*
X16710462Y-6416728D01*
X16723221Y-6441206D01*
X16679346Y-6477301D01*
X16678397Y-6478080D01*
X16656992Y-6495049D01*
X16642879Y-6504490D01*
X16634283Y-6507377D01*
X16629426Y-6504685D01*
X16610579Y-6468657D01*
X16600391Y-6426050D01*
X16600800Y-6382323D01*
X16611756Y-6340140D01*
X16633210Y-6302163D01*
X16649889Y-6280295D01*
X16605492Y-6280295D01*
X16605492Y-6180271D01*
X17099364Y-6180271D01*
X17099364Y-6280295D01*
G37*
G36*
X17099364Y-4273552D02*
G01*
X16938148Y-4273552D01*
X16916833Y-4273557D01*
X16872135Y-4273657D01*
X16837579Y-4273980D01*
X16811483Y-4274651D01*
X16792165Y-4275797D01*
X16777943Y-4277541D01*
X16767136Y-4280009D01*
X16758062Y-4283326D01*
X16749039Y-4287618D01*
X16728807Y-4301596D01*
X16709808Y-4326211D01*
X16700030Y-4355339D01*
X16700323Y-4386073D01*
X16711539Y-4415510D01*
X16723766Y-4435564D01*
X16682025Y-4470211D01*
X16674116Y-4476699D01*
X16655800Y-4491104D01*
X16641956Y-4501110D01*
X16635103Y-4504859D01*
X16631371Y-4501637D01*
X16623697Y-4489721D01*
X16614643Y-4472038D01*
X16609084Y-4458604D01*
X16599588Y-4416320D01*
X16600965Y-4373812D01*
X16612909Y-4333677D01*
X16635115Y-4298510D01*
X16656479Y-4273552D01*
X16605492Y-4273552D01*
X16605492Y-4173527D01*
X17099364Y-4173527D01*
X17099364Y-4273552D01*
G37*
G36*
X16316611Y-6350625D02*
G01*
X16314796Y-6402200D01*
X16142878Y-6405326D01*
X16116424Y-6405813D01*
X16068364Y-6406830D01*
X16030612Y-6408058D01*
X16001674Y-6409791D01*
X15980055Y-6412320D01*
X15964263Y-6415940D01*
X15952801Y-6420943D01*
X15944178Y-6427622D01*
X15936898Y-6436270D01*
X15929468Y-6447180D01*
X15922232Y-6463775D01*
X15918181Y-6490885D01*
X15920096Y-6519575D01*
X15928054Y-6544512D01*
X15938286Y-6564297D01*
X15910863Y-6588309D01*
X15899505Y-6598083D01*
X15881055Y-6613374D01*
X15866784Y-6624520D01*
X15850129Y-6636720D01*
X15837421Y-6616158D01*
X15824594Y-6588683D01*
X15816486Y-6551295D01*
X15816265Y-6512384D01*
X15823593Y-6474995D01*
X15838131Y-6442175D01*
X15859542Y-6416969D01*
X15860481Y-6416185D01*
X15864819Y-6410912D01*
X15860413Y-6407804D01*
X15845400Y-6405326D01*
X15820924Y-6402200D01*
X15819108Y-6350625D01*
X15817293Y-6299050D01*
X16318427Y-6299050D01*
X16316611Y-6350625D01*
G37*
G36*
X16005344Y-5795833D02*
G01*
X16011771Y-5795835D01*
X16063487Y-5795886D01*
X16104436Y-5796080D01*
X16136183Y-5796523D01*
X16160292Y-5797318D01*
X16178328Y-5798569D01*
X16191855Y-5800383D01*
X16202436Y-5802862D01*
X16211638Y-5806111D01*
X16221022Y-5810235D01*
X16238573Y-5819395D01*
X16274845Y-5847647D01*
X16301638Y-5883802D01*
X16318307Y-5927083D01*
X16320289Y-5936687D01*
X16321291Y-5978322D01*
X16310917Y-6020748D01*
X16289650Y-6061699D01*
X16268754Y-6092749D01*
X16317921Y-6092749D01*
X16317921Y-6192774D01*
X15817798Y-6192774D01*
X15817798Y-6092749D01*
X15979014Y-6092749D01*
X16000468Y-6092744D01*
X16045131Y-6092644D01*
X16079655Y-6092321D01*
X16105721Y-6091649D01*
X16125008Y-6090504D01*
X16139197Y-6088759D01*
X16149969Y-6086291D01*
X16159003Y-6082974D01*
X16167980Y-6078683D01*
X16176387Y-6074032D01*
X16200627Y-6053314D01*
X16214554Y-6026195D01*
X16218845Y-5991515D01*
X16218738Y-5986631D01*
X16214097Y-5958753D01*
X16201186Y-5936121D01*
X16177994Y-5914967D01*
X16174993Y-5912831D01*
X16168882Y-5909445D01*
X16160918Y-5906814D01*
X16149580Y-5904819D01*
X16133346Y-5903342D01*
X16110694Y-5902263D01*
X16080104Y-5901463D01*
X16040054Y-5900826D01*
X15989023Y-5900230D01*
X15817302Y-5898384D01*
X15819113Y-5847092D01*
X15820924Y-5795801D01*
X16005344Y-5795833D01*
G37*
G36*
X16317921Y-4253890D02*
G01*
X16150693Y-4255906D01*
X16114193Y-4256361D01*
X16071886Y-4256999D01*
X16039355Y-4257755D01*
X16015000Y-4258768D01*
X15997222Y-4260179D01*
X15984420Y-4262127D01*
X15974994Y-4264752D01*
X15967343Y-4268193D01*
X15959869Y-4272592D01*
X15955537Y-4275404D01*
X15933786Y-4295657D01*
X15921614Y-4321441D01*
X15917823Y-4355109D01*
X15921765Y-4387501D01*
X15934841Y-4413871D01*
X15957742Y-4433681D01*
X15964182Y-4437038D01*
X15972755Y-4439933D01*
X15984551Y-4442209D01*
X16001116Y-4443989D01*
X16023997Y-4445394D01*
X16054741Y-4446549D01*
X16094895Y-4447575D01*
X16146004Y-4448595D01*
X16314796Y-4451720D01*
X16316619Y-4503787D01*
X16318443Y-4555853D01*
X16132199Y-4553799D01*
X16129587Y-4553770D01*
X16076735Y-4553146D01*
X16034759Y-4552497D01*
X16002104Y-4551704D01*
X15977211Y-4550651D01*
X15958524Y-4549218D01*
X15944486Y-4547289D01*
X15933541Y-4544745D01*
X15924130Y-4541470D01*
X15914697Y-4537344D01*
X15882025Y-4518806D01*
X15854184Y-4492855D01*
X15831819Y-4457972D01*
X15828112Y-4450102D01*
X15817882Y-4414442D01*
X15815572Y-4376247D01*
X15820800Y-4338838D01*
X15833183Y-4305534D01*
X15852339Y-4279655D01*
X15861500Y-4270349D01*
X15866696Y-4260851D01*
X15860629Y-4256096D01*
X15842804Y-4254797D01*
X15817798Y-4254797D01*
X15817798Y-4154772D01*
X16317921Y-4154772D01*
X16317921Y-4253890D01*
G37*
G36*
X16024099Y-3665729D02*
G01*
X16032424Y-3664364D01*
X16084975Y-3662797D01*
X16136625Y-3668068D01*
X16185000Y-3680207D01*
X16227730Y-3699244D01*
X16262443Y-3725209D01*
X16281949Y-3748373D01*
X16303874Y-3787452D01*
X16317715Y-3830516D01*
X16320811Y-3858307D01*
X16319766Y-3896941D01*
X16314114Y-3936580D01*
X16304376Y-3971701D01*
X16298062Y-3985673D01*
X16283007Y-4010872D01*
X16265966Y-4032857D01*
X16239777Y-4061349D01*
X16210185Y-4025488D01*
X16203494Y-4017330D01*
X16191362Y-4001584D01*
X16185842Y-3991438D01*
X16185788Y-3984121D01*
X16190052Y-3976864D01*
X16192275Y-3973796D01*
X16212592Y-3936179D01*
X16222834Y-3896307D01*
X16222639Y-3856809D01*
X16211645Y-3820314D01*
X16193031Y-3795116D01*
X16164670Y-3775862D01*
X16128812Y-3764532D01*
X16105369Y-3760359D01*
X16105369Y-4073502D01*
X16066297Y-4073455D01*
X16041930Y-4072960D01*
X15988407Y-4067514D01*
X15943594Y-4055600D01*
X15905759Y-4036648D01*
X15873165Y-4010090D01*
X15850489Y-3982717D01*
X15829044Y-3941787D01*
X15817312Y-3897448D01*
X15815532Y-3856499D01*
X15911741Y-3856499D01*
X15913494Y-3888414D01*
X15923170Y-3917156D01*
X15934653Y-3932195D01*
X15956635Y-3949667D01*
X15982179Y-3962339D01*
X16006328Y-3967226D01*
X16024099Y-3967226D01*
X16024099Y-3761238D01*
X16003781Y-3764906D01*
X15978361Y-3771796D01*
X15947597Y-3788016D01*
X15925720Y-3810299D01*
X15917794Y-3826371D01*
X15911741Y-3856499D01*
X15815532Y-3856499D01*
X15815332Y-3851907D01*
X15823143Y-3807372D01*
X15840782Y-3766052D01*
X15868288Y-3730152D01*
X15893073Y-3709798D01*
X15934101Y-3687894D01*
X15981342Y-3672740D01*
X16024099Y-3665729D01*
G37*
G36*
X16805541Y-6517871D02*
G01*
X16806349Y-6517715D01*
X16817044Y-6516669D01*
X16872588Y-6515588D01*
X16925463Y-6521521D01*
X16972828Y-6533988D01*
X17011842Y-6552506D01*
X17033242Y-6567364D01*
X17060475Y-6593273D01*
X17080912Y-6624568D01*
X17097229Y-6664765D01*
X17102181Y-6686808D01*
X17104604Y-6722902D01*
X17102480Y-6762094D01*
X17096135Y-6799620D01*
X17085895Y-6830716D01*
X17082955Y-6836807D01*
X17070974Y-6857925D01*
X17057124Y-6878413D01*
X17043394Y-6895698D01*
X17031774Y-6907209D01*
X17024256Y-6910374D01*
X17024097Y-6910301D01*
X17017625Y-6904471D01*
X17005762Y-6891777D01*
X16990952Y-6874828D01*
X16962278Y-6841080D01*
X16977629Y-6822837D01*
X16991108Y-6801300D01*
X17002553Y-6771054D01*
X17008929Y-6739311D01*
X17008702Y-6711567D01*
X16997814Y-6678449D01*
X16977784Y-6650246D01*
X16950845Y-6629956D01*
X16919091Y-6619723D01*
X16893063Y-6616232D01*
X16893063Y-6925777D01*
X16821836Y-6923051D01*
X16816763Y-6922853D01*
X16785901Y-6921280D01*
X16763369Y-6918949D01*
X16745495Y-6915105D01*
X16728609Y-6908994D01*
X16709040Y-6899860D01*
X16673225Y-6877934D01*
X16639336Y-6844865D01*
X16615766Y-6804924D01*
X16602762Y-6758552D01*
X16601518Y-6728808D01*
X16694240Y-6728808D01*
X16702018Y-6761408D01*
X16720292Y-6788100D01*
X16748287Y-6807943D01*
X16785224Y-6819995D01*
X16805541Y-6823867D01*
X16805541Y-6616232D01*
X16779513Y-6619723D01*
X16748679Y-6628919D01*
X16722012Y-6648280D01*
X16703467Y-6675879D01*
X16694577Y-6710083D01*
X16694240Y-6728808D01*
X16601518Y-6728808D01*
X16600572Y-6706192D01*
X16601027Y-6699924D01*
X16610742Y-6651421D01*
X16630773Y-6609701D01*
X16660736Y-6575117D01*
X16700243Y-6548023D01*
X16748909Y-6528771D01*
X16805541Y-6517871D01*
G37*
G36*
X16024099Y-7056278D02*
G01*
X16024472Y-7056238D01*
X16060519Y-7054946D01*
X16098025Y-7055549D01*
X16132379Y-7058012D01*
X16158969Y-7062300D01*
X16197741Y-7074903D01*
X16241724Y-7099298D01*
X16276624Y-7132048D01*
X16302074Y-7172788D01*
X16317708Y-7221152D01*
X16318295Y-7224130D01*
X16322426Y-7278105D01*
X16314787Y-7331452D01*
X16295941Y-7381918D01*
X16266447Y-7427250D01*
X16260882Y-7433731D01*
X16249868Y-7444910D01*
X16243207Y-7449333D01*
X16242966Y-7449302D01*
X16236179Y-7444211D01*
X16224098Y-7432093D01*
X16209170Y-7415388D01*
X16180169Y-7381443D01*
X16195524Y-7358816D01*
X16197850Y-7355265D01*
X16209624Y-7334103D01*
X16218217Y-7313955D01*
X16220786Y-7304095D01*
X16223513Y-7276681D01*
X16221956Y-7247149D01*
X16216555Y-7220254D01*
X16207748Y-7200750D01*
X16191790Y-7185184D01*
X16168823Y-7170490D01*
X16144144Y-7159703D01*
X16122799Y-7155511D01*
X16105369Y-7155511D01*
X16105369Y-7463186D01*
X16035039Y-7460622D01*
X15989718Y-7457417D01*
X15952731Y-7450639D01*
X15922451Y-7439270D01*
X15896071Y-7422249D01*
X15870789Y-7398516D01*
X15842394Y-7360916D01*
X15822477Y-7316096D01*
X15814200Y-7268392D01*
X15814910Y-7259202D01*
X15911571Y-7259202D01*
X15911768Y-7266051D01*
X15919359Y-7299667D01*
X15937311Y-7327028D01*
X15964713Y-7347114D01*
X16000656Y-7358909D01*
X16024099Y-7363203D01*
X16024099Y-7155511D01*
X16006328Y-7155511D01*
X15987786Y-7158550D01*
X15962124Y-7169765D01*
X15938933Y-7186437D01*
X15923170Y-7205581D01*
X15922698Y-7206480D01*
X15914620Y-7230697D01*
X15911571Y-7259202D01*
X15814910Y-7259202D01*
X15817995Y-7219267D01*
X15831291Y-7176671D01*
X15855633Y-7136169D01*
X15889780Y-7103239D01*
X15933495Y-7078106D01*
X15986537Y-7060994D01*
X15994494Y-7059460D01*
X16024099Y-7056278D01*
G37*
G36*
X16126558Y-6629743D02*
G01*
X16177106Y-6642320D01*
X16221354Y-6662355D01*
X16257062Y-6689283D01*
X16263200Y-6695687D01*
X16287577Y-6728798D01*
X16306771Y-6767084D01*
X16317867Y-6804997D01*
X16321394Y-6828978D01*
X16322908Y-6856670D01*
X16320074Y-6881901D01*
X16312619Y-6910201D01*
X16308538Y-6922013D01*
X16292273Y-6957092D01*
X16271747Y-6989455D01*
X16249882Y-7014257D01*
X16240808Y-7021684D01*
X16233513Y-7022232D01*
X16223459Y-7014257D01*
X16219658Y-7010622D01*
X16206044Y-6996005D01*
X16191782Y-6979038D01*
X16173296Y-6955728D01*
X16190423Y-6933273D01*
X16194027Y-6928332D01*
X16211417Y-6894322D01*
X16218831Y-6858431D01*
X16216672Y-6822967D01*
X16205349Y-6790235D01*
X16185264Y-6762541D01*
X16156825Y-6742192D01*
X16155244Y-6741424D01*
X16138391Y-6734469D01*
X16120822Y-6730301D01*
X16098618Y-6728284D01*
X16067860Y-6727784D01*
X16058915Y-6727823D01*
X16031334Y-6728651D01*
X16011228Y-6731075D01*
X15994631Y-6735785D01*
X15977574Y-6743468D01*
X15952155Y-6760104D01*
X15931800Y-6784968D01*
X15920986Y-6816789D01*
X15919096Y-6856761D01*
X15919829Y-6868017D01*
X15923086Y-6890578D01*
X15929754Y-6908529D01*
X15941636Y-6927527D01*
X15961942Y-6956336D01*
X15943697Y-6979342D01*
X15939039Y-6985083D01*
X15924426Y-7001847D01*
X15912195Y-7014316D01*
X15910144Y-7016160D01*
X15901479Y-7022440D01*
X15894261Y-7021071D01*
X15883254Y-7011551D01*
X15880425Y-7008813D01*
X15855751Y-6978014D01*
X15834886Y-6939930D01*
X15820443Y-6899236D01*
X15817973Y-6889168D01*
X15813847Y-6865509D01*
X15813690Y-6843430D01*
X15817238Y-6816129D01*
X15826047Y-6778008D01*
X15846097Y-6731166D01*
X15875091Y-6692973D01*
X15913168Y-6663298D01*
X15960468Y-6642010D01*
X16017132Y-6628978D01*
X16071952Y-6625187D01*
X16126558Y-6629743D01*
G37*
G36*
X16067860Y-2704416D02*
G01*
X16071846Y-2704424D01*
X16125644Y-2706611D01*
X16169692Y-2713113D01*
X16206065Y-2724568D01*
X16236840Y-2741617D01*
X16264091Y-2764899D01*
X16278032Y-2780457D01*
X16303863Y-2821470D01*
X16318036Y-2866458D01*
X16320788Y-2901686D01*
X16318121Y-2942255D01*
X16310277Y-2979483D01*
X16299783Y-3005070D01*
X16274732Y-3042097D01*
X16241289Y-3073178D01*
X16201896Y-3095695D01*
X16188802Y-3100041D01*
X16157798Y-3106031D01*
X16119595Y-3109834D01*
X16077443Y-3111445D01*
X16034595Y-3110863D01*
X15994300Y-3108084D01*
X15959811Y-3103106D01*
X15934377Y-3095926D01*
X15914878Y-3086497D01*
X15877228Y-3059243D01*
X15847967Y-3024871D01*
X15827456Y-2985176D01*
X15816056Y-2941955D01*
X15815199Y-2921961D01*
X15917361Y-2921961D01*
X15925271Y-2951431D01*
X15942171Y-2977162D01*
X15968059Y-2996675D01*
X15980271Y-3002328D01*
X15994273Y-3006657D01*
X16011421Y-3009189D01*
X16034832Y-3010359D01*
X16067622Y-3010604D01*
X16096827Y-3009991D01*
X16136015Y-3006390D01*
X16165494Y-2999182D01*
X16186791Y-2987929D01*
X16201431Y-2972193D01*
X16201454Y-2972158D01*
X16214496Y-2942301D01*
X16218697Y-2909090D01*
X16214083Y-2876617D01*
X16200678Y-2848969D01*
X16193094Y-2839509D01*
X16178574Y-2826023D01*
X16161180Y-2816830D01*
X16138524Y-2811187D01*
X16108214Y-2808347D01*
X16067860Y-2807566D01*
X16064198Y-2807568D01*
X16031228Y-2807882D01*
X16007807Y-2808976D01*
X15991236Y-2811198D01*
X15978818Y-2814893D01*
X15967856Y-2820407D01*
X15947609Y-2835882D01*
X15928528Y-2861709D01*
X15918446Y-2891228D01*
X15917361Y-2921961D01*
X15815199Y-2921961D01*
X15814129Y-2897003D01*
X15822034Y-2852116D01*
X15840134Y-2809089D01*
X15868789Y-2769719D01*
X15877975Y-2760248D01*
X15904849Y-2738249D01*
X15935103Y-2722378D01*
X15970908Y-2711924D01*
X16014437Y-2706174D01*
X16067860Y-2704416D01*
G37*
G36*
X16067622Y-5303614D02*
G01*
X16098596Y-5304112D01*
X16141582Y-5307654D01*
X16179055Y-5313981D01*
X16207669Y-5323063D01*
X16245762Y-5346048D01*
X16279331Y-5379489D01*
X16303832Y-5420169D01*
X16317858Y-5466256D01*
X16319265Y-5476045D01*
X16320441Y-5515970D01*
X16315546Y-5556214D01*
X16305182Y-5590858D01*
X16290797Y-5616615D01*
X16264539Y-5648392D01*
X16233013Y-5675370D01*
X16200035Y-5693811D01*
X16189799Y-5697674D01*
X16174735Y-5702143D01*
X16158039Y-5705118D01*
X16136993Y-5706898D01*
X16108881Y-5707784D01*
X16070986Y-5708076D01*
X16057509Y-5708061D01*
X16012476Y-5706988D01*
X15976867Y-5703824D01*
X15948289Y-5697932D01*
X15924350Y-5688676D01*
X15902655Y-5675421D01*
X15880813Y-5657529D01*
X15851796Y-5625192D01*
X15829438Y-5584966D01*
X15816922Y-5541715D01*
X15814733Y-5508771D01*
X15917823Y-5508771D01*
X15917825Y-5509487D01*
X15923568Y-5544170D01*
X15940289Y-5572888D01*
X15967856Y-5595414D01*
X15968891Y-5596015D01*
X15979874Y-5601345D01*
X15992566Y-5604888D01*
X16009662Y-5606989D01*
X16033861Y-5607996D01*
X16067860Y-5608255D01*
X16090778Y-5608048D01*
X16125510Y-5606256D01*
X16151462Y-5602008D01*
X16171017Y-5594564D01*
X16186558Y-5583187D01*
X16200466Y-5567136D01*
X16211316Y-5548176D01*
X16218735Y-5515133D01*
X16214881Y-5478593D01*
X16214820Y-5478355D01*
X16205895Y-5452675D01*
X16192919Y-5433484D01*
X16174248Y-5419962D01*
X16148237Y-5411290D01*
X16113243Y-5406648D01*
X16067622Y-5405217D01*
X16038170Y-5405393D01*
X16013809Y-5406430D01*
X15996081Y-5408778D01*
X15981870Y-5412871D01*
X15968059Y-5419146D01*
X15960788Y-5423209D01*
X15936670Y-5444344D01*
X15922473Y-5472643D01*
X15917823Y-5508771D01*
X15814733Y-5508771D01*
X15813968Y-5497257D01*
X15820294Y-5453414D01*
X15835621Y-5412002D01*
X15859667Y-5374843D01*
X15892152Y-5343754D01*
X15932796Y-5320555D01*
X15938404Y-5318405D01*
X15970000Y-5310502D01*
X16009460Y-5305506D01*
X16053440Y-5303386D01*
X16067622Y-5303614D01*
G37*
G36*
X16882486Y-4514278D02*
G01*
X16912999Y-4514396D01*
X16942442Y-4514886D01*
X16964143Y-4515897D01*
X16980095Y-4517615D01*
X16992291Y-4520223D01*
X17002724Y-4523907D01*
X17013388Y-4528851D01*
X17020791Y-4532805D01*
X17052005Y-4556302D01*
X17078135Y-4586657D01*
X17095505Y-4619795D01*
X17097243Y-4625202D01*
X17102683Y-4650154D01*
X17105122Y-4674978D01*
X17104651Y-4686487D01*
X17099859Y-4714078D01*
X17091148Y-4742305D01*
X17080019Y-4766795D01*
X17067975Y-4783171D01*
X17063290Y-4787648D01*
X17056470Y-4797775D01*
X17061086Y-4803274D01*
X17077483Y-4804932D01*
X17099364Y-4804932D01*
X17099364Y-4904957D01*
X16398665Y-4904957D01*
X16400491Y-4856508D01*
X16402317Y-4808058D01*
X16525785Y-4806363D01*
X16532201Y-4806268D01*
X16569317Y-4805420D01*
X16601464Y-4804193D01*
X16626758Y-4802695D01*
X16643315Y-4801033D01*
X16649253Y-4799314D01*
X16647273Y-4794540D01*
X16638881Y-4785380D01*
X16635796Y-4782526D01*
X16622342Y-4763405D01*
X16610674Y-4737133D01*
X16604874Y-4716662D01*
X16699486Y-4716662D01*
X16706665Y-4745259D01*
X16722231Y-4770249D01*
X16746152Y-4788875D01*
X16747958Y-4789794D01*
X16760206Y-4795003D01*
X16774052Y-4798476D01*
X16792222Y-4800547D01*
X16817439Y-4801546D01*
X16852428Y-4801805D01*
X16854233Y-4801804D01*
X16896573Y-4800976D01*
X16928550Y-4798121D01*
X16952164Y-4792537D01*
X16969413Y-4783519D01*
X16982296Y-4770363D01*
X16992811Y-4752365D01*
X17000832Y-4732004D01*
X17004449Y-4701227D01*
X16997097Y-4668451D01*
X16994566Y-4662281D01*
X16979740Y-4641431D01*
X16956685Y-4626300D01*
X16924552Y-4616603D01*
X16882486Y-4612056D01*
X16829638Y-4612372D01*
X16794000Y-4614862D01*
X16763902Y-4619445D01*
X16744312Y-4626028D01*
X16728578Y-4636776D01*
X16710411Y-4659665D01*
X16700724Y-4687212D01*
X16699486Y-4716662D01*
X16604874Y-4716662D01*
X16602443Y-4708083D01*
X16599302Y-4680627D01*
X16599433Y-4671283D01*
X16604481Y-4632105D01*
X16617925Y-4598730D01*
X16641230Y-4567188D01*
X16656443Y-4551274D01*
X16671465Y-4538704D01*
X16687877Y-4529322D01*
X16707528Y-4522671D01*
X16732270Y-4518295D01*
X16763955Y-4515735D01*
X16804432Y-4514534D01*
X16855554Y-4514236D01*
X16873820Y-4514244D01*
X16882486Y-4514278D01*
G37*
G36*
X16232685Y-4824020D02*
G01*
X16241242Y-4831159D01*
X16253355Y-4846168D01*
X16267200Y-4866422D01*
X16280956Y-4889295D01*
X16292800Y-4912164D01*
X16301572Y-4933134D01*
X16311252Y-4961655D01*
X16317356Y-4986227D01*
X16319276Y-4998821D01*
X16321589Y-5049133D01*
X16315800Y-5097563D01*
X16302634Y-5142152D01*
X16282812Y-5180943D01*
X16257060Y-5211979D01*
X16226098Y-5233302D01*
X16198604Y-5241763D01*
X16162819Y-5244401D01*
X16126406Y-5240066D01*
X16094383Y-5228924D01*
X16092092Y-5227725D01*
X16069241Y-5212663D01*
X16051351Y-5193596D01*
X16037699Y-5168838D01*
X16027565Y-5136705D01*
X16020225Y-5095511D01*
X16014958Y-5043572D01*
X16014950Y-5043470D01*
X16011876Y-5017941D01*
X16007231Y-4994993D01*
X16002017Y-4979585D01*
X15992077Y-4966354D01*
X15974409Y-4956969D01*
X15954678Y-4957470D01*
X15935755Y-4967593D01*
X15920511Y-4987074D01*
X15914058Y-5006099D01*
X15911109Y-5037299D01*
X15913912Y-5072288D01*
X15922083Y-5107154D01*
X15935241Y-5137984D01*
X15954826Y-5172687D01*
X15921261Y-5201362D01*
X15920233Y-5202238D01*
X15903032Y-5216270D01*
X15889483Y-5226224D01*
X15882442Y-5229994D01*
X15880712Y-5229498D01*
X15872151Y-5221357D01*
X15860807Y-5205322D01*
X15848462Y-5184117D01*
X15836902Y-5160464D01*
X15828958Y-5137668D01*
X15821275Y-5104637D01*
X15815866Y-5068993D01*
X15813432Y-5035511D01*
X15814672Y-5008966D01*
X15819969Y-4981948D01*
X15835908Y-4936194D01*
X15859083Y-4900596D01*
X15889461Y-4875189D01*
X15927007Y-4860006D01*
X15971686Y-4855082D01*
X15979215Y-4855411D01*
X16004819Y-4859509D01*
X16027225Y-4866760D01*
X16038849Y-4872707D01*
X16062793Y-4890437D01*
X16081253Y-4914083D01*
X16095022Y-4945236D01*
X16104892Y-4985491D01*
X16111656Y-5036439D01*
X16113527Y-5054366D01*
X16118525Y-5088711D01*
X16124940Y-5112918D01*
X16133542Y-5128649D01*
X16145105Y-5137565D01*
X16160399Y-5141327D01*
X16176094Y-5141179D01*
X16197300Y-5132679D01*
X16212297Y-5113687D01*
X16221206Y-5084015D01*
X16224148Y-5043478D01*
X16224144Y-5041777D01*
X16220304Y-4997364D01*
X16208264Y-4958532D01*
X16186552Y-4920459D01*
X16167204Y-4892338D01*
X16197239Y-4858092D01*
X16199063Y-4856020D01*
X16213995Y-4839719D01*
X16225578Y-4828172D01*
X16231437Y-4823766D01*
X16232685Y-4824020D01*
G37*
G36*
X16952599Y-3666501D02*
G01*
X16966167Y-3665322D01*
X17000740Y-3670723D01*
X17020757Y-3679078D01*
X17052802Y-3702420D01*
X17078586Y-3735089D01*
X17096616Y-3775455D01*
X17102020Y-3800842D01*
X17104812Y-3835582D01*
X17103875Y-3870599D01*
X17099088Y-3899828D01*
X17098657Y-3901309D01*
X17089380Y-3922683D01*
X17076687Y-3942026D01*
X17060743Y-3960975D01*
X17099364Y-3960975D01*
X17099364Y-4068349D01*
X16910255Y-4065792D01*
X16907355Y-4065753D01*
X16846620Y-4064725D01*
X16797473Y-4063452D01*
X16759040Y-4061887D01*
X16730444Y-4059988D01*
X16710811Y-4057708D01*
X16699265Y-4055002D01*
X16671681Y-4041557D01*
X16642763Y-4016718D01*
X16620477Y-3982099D01*
X16616171Y-3972947D01*
X16609373Y-3955213D01*
X16604986Y-3936330D01*
X16602268Y-3912514D01*
X16600479Y-3879980D01*
X16599870Y-3853568D01*
X16602008Y-3809985D01*
X16609034Y-3774575D01*
X16621543Y-3744909D01*
X16640132Y-3718560D01*
X16649729Y-3707830D01*
X16661123Y-3696539D01*
X16667491Y-3692159D01*
X16668031Y-3692307D01*
X16674955Y-3698389D01*
X16686767Y-3711604D01*
X16701248Y-3729496D01*
X16730244Y-3766834D01*
X16715518Y-3782723D01*
X16708351Y-3791730D01*
X16699342Y-3810847D01*
X16694474Y-3836413D01*
X16693014Y-3871310D01*
X16693657Y-3886706D01*
X16699125Y-3916852D01*
X16709349Y-3940268D01*
X16723331Y-3954220D01*
X16730205Y-3956660D01*
X16748354Y-3959762D01*
X16770065Y-3960975D01*
X16804179Y-3960975D01*
X16892094Y-3960975D01*
X16927272Y-3960975D01*
X16941452Y-3960396D01*
X16969494Y-3955275D01*
X16990439Y-3945665D01*
X17001712Y-3932549D01*
X17002600Y-3929845D01*
X17005827Y-3911831D01*
X17007946Y-3886829D01*
X17008796Y-3859293D01*
X17008214Y-3833672D01*
X17006036Y-3814418D01*
X17003911Y-3806359D01*
X16991711Y-3783535D01*
X16973733Y-3768156D01*
X16952599Y-3761257D01*
X16930929Y-3763873D01*
X16911344Y-3777039D01*
X16905676Y-3783659D01*
X16901213Y-3791613D01*
X16898238Y-3802551D01*
X16896340Y-3818852D01*
X16895111Y-3842897D01*
X16894141Y-3877063D01*
X16892094Y-3960975D01*
X16804179Y-3960975D01*
X16806805Y-3868765D01*
X16808565Y-3825996D01*
X16811623Y-3791170D01*
X16816508Y-3764320D01*
X16823814Y-3743137D01*
X16834137Y-3725312D01*
X16848071Y-3708538D01*
X16860966Y-3697051D01*
X16892197Y-3679497D01*
X16928625Y-3668583D01*
X16952599Y-3666501D01*
G37*
G36*
X16950890Y-5671018D02*
G01*
X16973767Y-5670511D01*
X17012519Y-5680896D01*
X17046522Y-5701830D01*
X17074309Y-5732546D01*
X17094415Y-5772277D01*
X17094592Y-5772775D01*
X17101670Y-5803050D01*
X17104914Y-5839335D01*
X17104122Y-5875789D01*
X17099088Y-5906572D01*
X17098657Y-5908052D01*
X17089380Y-5929426D01*
X17076687Y-5948770D01*
X17060743Y-5967718D01*
X17099364Y-5967718D01*
X17099364Y-6067743D01*
X16913380Y-6067708D01*
X16878627Y-6067618D01*
X16824609Y-6067087D01*
X16778939Y-6066110D01*
X16742654Y-6064719D01*
X16716792Y-6062948D01*
X16702391Y-6060832D01*
X16698610Y-6059686D01*
X16670853Y-6044895D01*
X16645037Y-6020988D01*
X16623802Y-5990910D01*
X16609788Y-5957603D01*
X16605206Y-5937099D01*
X16600574Y-5897431D01*
X16599642Y-5854894D01*
X16602434Y-5814419D01*
X16608971Y-5780934D01*
X16610500Y-5776323D01*
X16619593Y-5756592D01*
X16632137Y-5735931D01*
X16645921Y-5717395D01*
X16658735Y-5704034D01*
X16668369Y-5698902D01*
X16668840Y-5699007D01*
X16675775Y-5704878D01*
X16687545Y-5717957D01*
X16701889Y-5735759D01*
X16706106Y-5741263D01*
X16718615Y-5758425D01*
X16724431Y-5769094D01*
X16724568Y-5775803D01*
X16720041Y-5781083D01*
X16710698Y-5791791D01*
X16699890Y-5816017D01*
X16693970Y-5846142D01*
X16692950Y-5878722D01*
X16696843Y-5910317D01*
X16705661Y-5937483D01*
X16719416Y-5956778D01*
X16723986Y-5960080D01*
X16741354Y-5965906D01*
X16768151Y-5967718D01*
X16804395Y-5967718D01*
X16893063Y-5967718D01*
X16923914Y-5967718D01*
X16926370Y-5967708D01*
X16958220Y-5964746D01*
X16980765Y-5956007D01*
X16996041Y-5940727D01*
X16996552Y-5939897D01*
X17002004Y-5924592D01*
X17006400Y-5901737D01*
X17009227Y-5875875D01*
X17009973Y-5851551D01*
X17008129Y-5833310D01*
X17005948Y-5824019D01*
X17002062Y-5806582D01*
X16993436Y-5787430D01*
X16975406Y-5772943D01*
X16950890Y-5767868D01*
X16945813Y-5767994D01*
X16926719Y-5770887D01*
X16912699Y-5778704D01*
X16903037Y-5792942D01*
X16897020Y-5815100D01*
X16893933Y-5846674D01*
X16893063Y-5889163D01*
X16893063Y-5967718D01*
X16804395Y-5967718D01*
X16806639Y-5875508D01*
X16806901Y-5865272D01*
X16808178Y-5829625D01*
X16809992Y-5803330D01*
X16812665Y-5783849D01*
X16816518Y-5768641D01*
X16821873Y-5755166D01*
X16843461Y-5720470D01*
X16873661Y-5693204D01*
X16910731Y-5676160D01*
X16931733Y-5671442D01*
X16950890Y-5671018D01*
G37*
G36*
X16609205Y-4961252D02*
G01*
X16616929Y-4963528D01*
X16634824Y-4969056D01*
X16661349Y-4977348D01*
X16694962Y-4987914D01*
X16734123Y-5000265D01*
X16777290Y-5013913D01*
X16822923Y-5028369D01*
X16869480Y-5043143D01*
X16915421Y-5057747D01*
X16959204Y-5071692D01*
X16999289Y-5084488D01*
X17034135Y-5095648D01*
X17062200Y-5104681D01*
X17081944Y-5111099D01*
X17091825Y-5114413D01*
X17092237Y-5114583D01*
X17096492Y-5121095D01*
X17098366Y-5136579D01*
X17098076Y-5162726D01*
X17096238Y-5208123D01*
X16929291Y-5257643D01*
X16923166Y-5259463D01*
X16880454Y-5272337D01*
X16842276Y-5284155D01*
X16810128Y-5294431D01*
X16785504Y-5302679D01*
X16769899Y-5308412D01*
X16764806Y-5311145D01*
X16764938Y-5311274D01*
X16772492Y-5314366D01*
X16790325Y-5320436D01*
X16816880Y-5328992D01*
X16850601Y-5339537D01*
X16889932Y-5351580D01*
X16933315Y-5364625D01*
X17099364Y-5414124D01*
X17099364Y-5504272D01*
X16972770Y-5544824D01*
X16935180Y-5556855D01*
X16882832Y-5573585D01*
X16828767Y-5590840D01*
X16777526Y-5607173D01*
X16733649Y-5621133D01*
X16733288Y-5621248D01*
X16697513Y-5632638D01*
X16665618Y-5642836D01*
X16639612Y-5651194D01*
X16621505Y-5657068D01*
X16613306Y-5659810D01*
X16610595Y-5659557D01*
X16607595Y-5652722D01*
X16605977Y-5636597D01*
X16605492Y-5609593D01*
X16605495Y-5607263D01*
X16606390Y-5578142D01*
X16608953Y-5560500D01*
X16613306Y-5553463D01*
X16619707Y-5551522D01*
X16636867Y-5546664D01*
X16662913Y-5539434D01*
X16696149Y-5530300D01*
X16734880Y-5519730D01*
X16777409Y-5508192D01*
X16815260Y-5497867D01*
X16854124Y-5487070D01*
X16887524Y-5477581D01*
X16913806Y-5469879D01*
X16931314Y-5464441D01*
X16938395Y-5461744D01*
X16938400Y-5461434D01*
X16931638Y-5457813D01*
X16914696Y-5451048D01*
X16889018Y-5441658D01*
X16856047Y-5430158D01*
X16817228Y-5417066D01*
X16774002Y-5402897D01*
X16604911Y-5348219D01*
X16606764Y-5309839D01*
X16608618Y-5271459D01*
X16775724Y-5217927D01*
X16782491Y-5215757D01*
X16825207Y-5201936D01*
X16863542Y-5189330D01*
X16895989Y-5178449D01*
X16921040Y-5169805D01*
X16937185Y-5163908D01*
X16942917Y-5161270D01*
X16939573Y-5159701D01*
X16925741Y-5155165D01*
X16902694Y-5148258D01*
X16872062Y-5139456D01*
X16835475Y-5129233D01*
X16794565Y-5118065D01*
X16765819Y-5110303D01*
X16725316Y-5099362D01*
X16689124Y-5089582D01*
X16659182Y-5081486D01*
X16637430Y-5075600D01*
X16625810Y-5072448D01*
X16605492Y-5066909D01*
X16605492Y-5014065D01*
X16605550Y-5004526D01*
X16606203Y-4982387D01*
X16607426Y-4966992D01*
X16609029Y-4961221D01*
X16609205Y-4961252D01*
G37*
G36*
X16080623Y-3198287D02*
G01*
X17099364Y-3198287D01*
X17099364Y-3297566D01*
X16932135Y-3299502D01*
X16902512Y-3299855D01*
X16858597Y-3300481D01*
X16824697Y-3301217D01*
X16799222Y-3302195D01*
X16780577Y-3303549D01*
X16767172Y-3305413D01*
X16757412Y-3307920D01*
X16749706Y-3311203D01*
X16742461Y-3315397D01*
X16741494Y-3316008D01*
X16719799Y-3336851D01*
X16705771Y-3364488D01*
X16700062Y-3395479D01*
X16703325Y-3426380D01*
X16716214Y-3453751D01*
X16724294Y-3464018D01*
X16733344Y-3472756D01*
X16744322Y-3479472D01*
X16758738Y-3484429D01*
X16778103Y-3487893D01*
X16803927Y-3490127D01*
X16837721Y-3491397D01*
X16880995Y-3491966D01*
X16935261Y-3492100D01*
X17099364Y-3492109D01*
X17099364Y-3592646D01*
X16907129Y-3590827D01*
X16896827Y-3590729D01*
X16841085Y-3590129D01*
X16796100Y-3589314D01*
X16760373Y-3588002D01*
X16732404Y-3585912D01*
X16710694Y-3582760D01*
X16693744Y-3578265D01*
X16680054Y-3572145D01*
X16668126Y-3564116D01*
X16656460Y-3553897D01*
X16643557Y-3541206D01*
X16630508Y-3526044D01*
X16610927Y-3490329D01*
X16600566Y-3450208D01*
X16599657Y-3408609D01*
X16608430Y-3368462D01*
X16627116Y-3332695D01*
X16628586Y-3330666D01*
X16638746Y-3316225D01*
X16645376Y-3306126D01*
X16645602Y-3305299D01*
X16642698Y-3303180D01*
X16633631Y-3301508D01*
X16617346Y-3300239D01*
X16592785Y-3299329D01*
X16558893Y-3298734D01*
X16514612Y-3298410D01*
X16458886Y-3298312D01*
X16267781Y-3298312D01*
X16289443Y-3331132D01*
X16298433Y-3346338D01*
X16310327Y-3371560D01*
X16317693Y-3393771D01*
X16321451Y-3424806D01*
X16316887Y-3466864D01*
X16301972Y-3505758D01*
X16277870Y-3539496D01*
X16245746Y-3566086D01*
X16206763Y-3583536D01*
X16203742Y-3584348D01*
X16179146Y-3588505D01*
X16145661Y-3591441D01*
X16106333Y-3593156D01*
X16064209Y-3593651D01*
X16022334Y-3592928D01*
X15983754Y-3590986D01*
X15951517Y-3587827D01*
X15928668Y-3583452D01*
X15909939Y-3576756D01*
X15874125Y-3555352D01*
X15846222Y-3526270D01*
X15826821Y-3491328D01*
X15816514Y-3452346D01*
X15815892Y-3411145D01*
X15816589Y-3408142D01*
X15918596Y-3408142D01*
X15924064Y-3438605D01*
X15937914Y-3461298D01*
X15960828Y-3477714D01*
X15972489Y-3482425D01*
X15986916Y-3485669D01*
X16006514Y-3487677D01*
X16033724Y-3488699D01*
X16070986Y-3488984D01*
X16109380Y-3488502D01*
X16141556Y-3486518D01*
X16165193Y-3482468D01*
X16182347Y-3475790D01*
X16195073Y-3465924D01*
X16205429Y-3452309D01*
X16213480Y-3435244D01*
X16219127Y-3405777D01*
X16217293Y-3375349D01*
X16208372Y-3347881D01*
X16192764Y-3327296D01*
X16184379Y-3321301D01*
X16156046Y-3309033D01*
X16120414Y-3301243D01*
X16080623Y-3297912D01*
X16039815Y-3299021D01*
X16001130Y-3304551D01*
X15967709Y-3314484D01*
X15942694Y-3328800D01*
X15932959Y-3337655D01*
X15925372Y-3348522D01*
X15921336Y-3363125D01*
X15919032Y-3385847D01*
X15918596Y-3408142D01*
X15816589Y-3408142D01*
X15825547Y-3369543D01*
X15846070Y-3329362D01*
X15866965Y-3298312D01*
X15817798Y-3298312D01*
X15817798Y-3198287D01*
X16080623Y-3198287D01*
G37*
G36*
X13962380Y-3235797D02*
G01*
X14023530Y-3235837D01*
X14073474Y-3235979D01*
X14113368Y-3236272D01*
X14144366Y-3236766D01*
X14167623Y-3237511D01*
X14184295Y-3238556D01*
X14195537Y-3239952D01*
X14202504Y-3241747D01*
X14206351Y-3243992D01*
X14208233Y-3246736D01*
X14210385Y-3255039D01*
X14214547Y-3274235D01*
X14220416Y-3302843D01*
X14227702Y-3339411D01*
X14236116Y-3382488D01*
X14245369Y-3430623D01*
X14255173Y-3482366D01*
X14260726Y-3511755D01*
X14271767Y-3569136D01*
X14281034Y-3615523D01*
X14288736Y-3651839D01*
X14295085Y-3679007D01*
X14300289Y-3697950D01*
X14304560Y-3709591D01*
X14308108Y-3714853D01*
X14309600Y-3715744D01*
X14321358Y-3721317D01*
X14342708Y-3730638D01*
X14372110Y-3743062D01*
X14408027Y-3757942D01*
X14448920Y-3774635D01*
X14493250Y-3792495D01*
X14533008Y-3808286D01*
X14583836Y-3827969D01*
X14623990Y-3842786D01*
X14653911Y-3852889D01*
X14674039Y-3858435D01*
X14684813Y-3859576D01*
X14692173Y-3856348D01*
X14709078Y-3846653D01*
X14733802Y-3831351D01*
X14765050Y-3811274D01*
X14801529Y-3787256D01*
X14841944Y-3760129D01*
X14885001Y-3730726D01*
X14923495Y-3704383D01*
X14963662Y-3677266D01*
X14999781Y-3653271D01*
X15030609Y-3633204D01*
X15054907Y-3617871D01*
X15071434Y-3608080D01*
X15078948Y-3604637D01*
X15079879Y-3604934D01*
X15088668Y-3611386D01*
X15104950Y-3625549D01*
X15127715Y-3646468D01*
X15155948Y-3673186D01*
X15188639Y-3704750D01*
X15224775Y-3740205D01*
X15263343Y-3778595D01*
X15291412Y-3806776D01*
X15331395Y-3847169D01*
X15363566Y-3880090D01*
X15388638Y-3906321D01*
X15407324Y-3926647D01*
X15420336Y-3941852D01*
X15428387Y-3952720D01*
X15432190Y-3960034D01*
X15432458Y-3964578D01*
X15429169Y-3970464D01*
X15419400Y-3985918D01*
X15404073Y-4009333D01*
X15384033Y-4039443D01*
X15360125Y-4074980D01*
X15333193Y-4114677D01*
X15304082Y-4157267D01*
X15279526Y-4193302D01*
X15252542Y-4233503D01*
X15228644Y-4269761D01*
X15208642Y-4300813D01*
X15193350Y-4325396D01*
X15183579Y-4342246D01*
X15180141Y-4350100D01*
X15180687Y-4353031D01*
X15185812Y-4366659D01*
X15195468Y-4387967D01*
X15208594Y-4414676D01*
X15224128Y-4444504D01*
X15231123Y-4457773D01*
X15245502Y-4486394D01*
X15256838Y-4510850D01*
X15264117Y-4528888D01*
X15266325Y-4538256D01*
X15265138Y-4540152D01*
X15258986Y-4544712D01*
X15247039Y-4551383D01*
X15228651Y-4560450D01*
X15203179Y-4572197D01*
X15169977Y-4586907D01*
X15128400Y-4604866D01*
X15077804Y-4626357D01*
X15017543Y-4651664D01*
X14946973Y-4681071D01*
X14865449Y-4714862D01*
X14822880Y-4732443D01*
X14757673Y-4759260D01*
X14696273Y-4784376D01*
X14639647Y-4807403D01*
X14588760Y-4827953D01*
X14544580Y-4845637D01*
X14508075Y-4860067D01*
X14480210Y-4870855D01*
X14461954Y-4877612D01*
X14454273Y-4879951D01*
X14451090Y-4879398D01*
X14438750Y-4870766D01*
X14425067Y-4853382D01*
X14422721Y-4849788D01*
X14409425Y-4830222D01*
X14392478Y-4806114D01*
X14374960Y-4781860D01*
X14345131Y-4744829D01*
X14288696Y-4689853D01*
X14225520Y-4644528D01*
X14156825Y-4609328D01*
X14083831Y-4584726D01*
X14007763Y-4571194D01*
X13929841Y-4569205D01*
X13851288Y-4579233D01*
X13830870Y-4583907D01*
X13757745Y-4608525D01*
X13689523Y-4643850D01*
X13627286Y-4688869D01*
X13572119Y-4742567D01*
X13525104Y-4803930D01*
X13487327Y-4871943D01*
X13459870Y-4945592D01*
X13454961Y-4965475D01*
X13447619Y-5014236D01*
X13444439Y-5068444D01*
X13445421Y-5123790D01*
X13450565Y-5175965D01*
X13459870Y-5220660D01*
X13475173Y-5266639D01*
X13504533Y-5329487D01*
X13542993Y-5387189D01*
X13592248Y-5442589D01*
X13600386Y-5450644D01*
X13640485Y-5487393D01*
X13678186Y-5516112D01*
X13716811Y-5539103D01*
X13759684Y-5558669D01*
X13825314Y-5580391D01*
X13902516Y-5594458D01*
X13979636Y-5596842D01*
X14055501Y-5587874D01*
X14128939Y-5567886D01*
X14198777Y-5537213D01*
X14263842Y-5496184D01*
X14322961Y-5445133D01*
X14374960Y-5384392D01*
X14379131Y-5378684D01*
X14396793Y-5354060D01*
X14413132Y-5330656D01*
X14425067Y-5312870D01*
X14429321Y-5306657D01*
X14442847Y-5291759D01*
X14454273Y-5286301D01*
X14457824Y-5287237D01*
X14472276Y-5292403D01*
X14496694Y-5301743D01*
X14530111Y-5314869D01*
X14571561Y-5331393D01*
X14620076Y-5350927D01*
X14674689Y-5373081D01*
X14734434Y-5397469D01*
X14798343Y-5423701D01*
X14865449Y-5451390D01*
X14917472Y-5472935D01*
X14992107Y-5503967D01*
X15056190Y-5530790D01*
X15110365Y-5553691D01*
X15155276Y-5572951D01*
X15191569Y-5588857D01*
X15219888Y-5601691D01*
X15240879Y-5611738D01*
X15255185Y-5619281D01*
X15263452Y-5624606D01*
X15266325Y-5627996D01*
X15266047Y-5630887D01*
X15261494Y-5644329D01*
X15252313Y-5665454D01*
X15239520Y-5692011D01*
X15224128Y-5721747D01*
X15217219Y-5734814D01*
X15202591Y-5763579D01*
X15190827Y-5788245D01*
X15182990Y-5806529D01*
X15180141Y-5816152D01*
X15182601Y-5822149D01*
X15191434Y-5837673D01*
X15205915Y-5861128D01*
X15225232Y-5891250D01*
X15248574Y-5926776D01*
X15275128Y-5966442D01*
X15304082Y-6008985D01*
X15328514Y-6044708D01*
X15355865Y-6084970D01*
X15380330Y-6121281D01*
X15401066Y-6152375D01*
X15417229Y-6176983D01*
X15427975Y-6193838D01*
X15432458Y-6201673D01*
X15432681Y-6204115D01*
X15430376Y-6210229D01*
X15424106Y-6219583D01*
X15413161Y-6232962D01*
X15396827Y-6251149D01*
X15374390Y-6274928D01*
X15345140Y-6305083D01*
X15308362Y-6342398D01*
X15263343Y-6387656D01*
X15253165Y-6397840D01*
X15215130Y-6435561D01*
X15179790Y-6470098D01*
X15148158Y-6500498D01*
X15121246Y-6525804D01*
X15100065Y-6545062D01*
X15085628Y-6557317D01*
X15078948Y-6561615D01*
X15072635Y-6558828D01*
X15056972Y-6549648D01*
X15033411Y-6534844D01*
X15003192Y-6515223D01*
X14967557Y-6491592D01*
X14927746Y-6464757D01*
X14885001Y-6435526D01*
X14847226Y-6409704D01*
X14806409Y-6382245D01*
X14769366Y-6357791D01*
X14737391Y-6337175D01*
X14711777Y-6321228D01*
X14693820Y-6310784D01*
X14684813Y-6306675D01*
X14678701Y-6306947D01*
X14661780Y-6310988D01*
X14635215Y-6319535D01*
X14598565Y-6332743D01*
X14551390Y-6350766D01*
X14493250Y-6373757D01*
X14478684Y-6379600D01*
X14435294Y-6397154D01*
X14395836Y-6413333D01*
X14361850Y-6427493D01*
X14334875Y-6438987D01*
X14316448Y-6447171D01*
X14308108Y-6451399D01*
X14306601Y-6453017D01*
X14302757Y-6461011D01*
X14298095Y-6475796D01*
X14292406Y-6498294D01*
X14285480Y-6529429D01*
X14277106Y-6570124D01*
X14267073Y-6621302D01*
X14255173Y-6683886D01*
X14245496Y-6734964D01*
X14236233Y-6783156D01*
X14227806Y-6826310D01*
X14220504Y-6862973D01*
X14214615Y-6891696D01*
X14210428Y-6911027D01*
X14208233Y-6919515D01*
X14208069Y-6919881D01*
X14206007Y-6922561D01*
X14201839Y-6924748D01*
X14194409Y-6926492D01*
X14182563Y-6927842D01*
X14165144Y-6928848D01*
X14140997Y-6929559D01*
X14108969Y-6930026D01*
X14067903Y-6930298D01*
X14016644Y-6930424D01*
X13954037Y-6930455D01*
X13704510Y-6930455D01*
X13698600Y-6916389D01*
X13696378Y-6908209D01*
X13692099Y-6888892D01*
X13686158Y-6860144D01*
X13678851Y-6823453D01*
X13670474Y-6780311D01*
X13661325Y-6732208D01*
X13651699Y-6680633D01*
X13642689Y-6632676D01*
X13633311Y-6584392D01*
X13624570Y-6541017D01*
X13616780Y-6504031D01*
X13610253Y-6474912D01*
X13605301Y-6455142D01*
X13602235Y-6446200D01*
X13598343Y-6442960D01*
X13583900Y-6434636D01*
X13560799Y-6422962D01*
X13530833Y-6408714D01*
X13495794Y-6392669D01*
X13457476Y-6375604D01*
X13417672Y-6358294D01*
X13378174Y-6341517D01*
X13340776Y-6326049D01*
X13307271Y-6312667D01*
X13279451Y-6302147D01*
X13259109Y-6295265D01*
X13248039Y-6292798D01*
X13247674Y-6292815D01*
X13236809Y-6297018D01*
X13216026Y-6308595D01*
X13185440Y-6327476D01*
X13145165Y-6353586D01*
X13095317Y-6386854D01*
X13036009Y-6427207D01*
X13030138Y-6431227D01*
X12986082Y-6461147D01*
X12945031Y-6488600D01*
X12908195Y-6512809D01*
X12876784Y-6532993D01*
X12852008Y-6548375D01*
X12835076Y-6558175D01*
X12827199Y-6561615D01*
X12822539Y-6559040D01*
X12809664Y-6548659D01*
X12790176Y-6531411D01*
X12765271Y-6508472D01*
X12736147Y-6481015D01*
X12703999Y-6450218D01*
X12670023Y-6417254D01*
X12635415Y-6383298D01*
X12601373Y-6349527D01*
X12569092Y-6317115D01*
X12539767Y-6287237D01*
X12514596Y-6261068D01*
X12494775Y-6239784D01*
X12481500Y-6224560D01*
X12475967Y-6216570D01*
X12475499Y-6215120D01*
X12474597Y-6211639D01*
X12474616Y-6207709D01*
X12476169Y-6202342D01*
X12479870Y-6194552D01*
X12486336Y-6183353D01*
X12496181Y-6167759D01*
X12510019Y-6146782D01*
X12528465Y-6119437D01*
X12552134Y-6084738D01*
X12581641Y-6041697D01*
X12617601Y-5989329D01*
X12638294Y-5959103D01*
X12673517Y-5907064D01*
X12701719Y-5864477D01*
X12723158Y-5830931D01*
X12738093Y-5806018D01*
X12746783Y-5789327D01*
X12749485Y-5780449D01*
X12748981Y-5777546D01*
X12744611Y-5763374D01*
X12736387Y-5740463D01*
X12725071Y-5710669D01*
X12711422Y-5675846D01*
X12696200Y-5637848D01*
X12680166Y-5598530D01*
X12664079Y-5559746D01*
X12648700Y-5523352D01*
X12634788Y-5491202D01*
X12623103Y-5465149D01*
X12614406Y-5447050D01*
X12609457Y-5438759D01*
X12608946Y-5438407D01*
X12599161Y-5435165D01*
X12578705Y-5430050D01*
X12548968Y-5423355D01*
X12511339Y-5415379D01*
X12467209Y-5406416D01*
X12417967Y-5396763D01*
X12365004Y-5386715D01*
X12356196Y-5385068D01*
X12303520Y-5375095D01*
X12254621Y-5365633D01*
X12210921Y-5356971D01*
X12173839Y-5349398D01*
X12144795Y-5343204D01*
X12125210Y-5338678D01*
X12116505Y-5336108D01*
X12115010Y-5335235D01*
X12112228Y-5332686D01*
X12109980Y-5328246D01*
X12108207Y-5320734D01*
X12106854Y-5308972D01*
X12105864Y-5291781D01*
X12105181Y-5267982D01*
X12104748Y-5236396D01*
X12104508Y-5195844D01*
X12104406Y-5145147D01*
X12104385Y-5083126D01*
X12104388Y-5050631D01*
X12104442Y-4994430D01*
X12104603Y-4948962D01*
X12104928Y-4913048D01*
X12105476Y-4885510D01*
X12106302Y-4865166D01*
X12107464Y-4850837D01*
X12109019Y-4841345D01*
X12111024Y-4835509D01*
X12113535Y-4832149D01*
X12116610Y-4830087D01*
X12117217Y-4829818D01*
X12127783Y-4826906D01*
X12149002Y-4822091D01*
X12179450Y-4815659D01*
X12217706Y-4807901D01*
X12262349Y-4799106D01*
X12311957Y-4789562D01*
X12365108Y-4779559D01*
X12374436Y-4777818D01*
X12426856Y-4767836D01*
X12475320Y-4758288D01*
X12518436Y-4749470D01*
X12554812Y-4741680D01*
X12583058Y-4735213D01*
X12601782Y-4730367D01*
X12609591Y-4727437D01*
X12611118Y-4725342D01*
X12617716Y-4712773D01*
X12627748Y-4691153D01*
X12640451Y-4662340D01*
X12655066Y-4628190D01*
X12670832Y-4590561D01*
X12686987Y-4551311D01*
X12702772Y-4512298D01*
X12717425Y-4475379D01*
X12730186Y-4442412D01*
X12740293Y-4415254D01*
X12746986Y-4395764D01*
X12749505Y-4385797D01*
X12748922Y-4382440D01*
X12743311Y-4369772D01*
X12731554Y-4349052D01*
X12713396Y-4319878D01*
X12688582Y-4281848D01*
X12656858Y-4234558D01*
X12617970Y-4177606D01*
X12606042Y-4160252D01*
X12572091Y-4110830D01*
X12544409Y-4070424D01*
X12522381Y-4038047D01*
X12505393Y-4012712D01*
X12492831Y-3993434D01*
X12484079Y-3979224D01*
X12478523Y-3969096D01*
X12475549Y-3962065D01*
X12474541Y-3957143D01*
X12474885Y-3953344D01*
X12475967Y-3949682D01*
X12479512Y-3944196D01*
X12491125Y-3930520D01*
X12509557Y-3910516D01*
X12533611Y-3885359D01*
X12562093Y-3856224D01*
X12593804Y-3824287D01*
X12627550Y-3790722D01*
X12662134Y-3756706D01*
X12696359Y-3723412D01*
X12729030Y-3692016D01*
X12758950Y-3663693D01*
X12784924Y-3639619D01*
X12805754Y-3620968D01*
X12820244Y-3608916D01*
X12827199Y-3604637D01*
X12827667Y-3604697D01*
X12836787Y-3609005D01*
X12854805Y-3619573D01*
X12880510Y-3635622D01*
X12912693Y-3656372D01*
X12950143Y-3681045D01*
X12991652Y-3708863D01*
X13036009Y-3739045D01*
X13040208Y-3741922D01*
X13098896Y-3781810D01*
X13148116Y-3814608D01*
X13187756Y-3840244D01*
X13217699Y-3858645D01*
X13237831Y-3869739D01*
X13248039Y-3873453D01*
X13254070Y-3872397D01*
X13271357Y-3866978D01*
X13296753Y-3857648D01*
X13328465Y-3845183D01*
X13364699Y-3830360D01*
X13403663Y-3813955D01*
X13443564Y-3796744D01*
X13482609Y-3779504D01*
X13519004Y-3763012D01*
X13550958Y-3748044D01*
X13576676Y-3735377D01*
X13594366Y-3725787D01*
X13602235Y-3720051D01*
X13605017Y-3712119D01*
X13609846Y-3693070D01*
X13616271Y-3664567D01*
X13623982Y-3628090D01*
X13632665Y-3585120D01*
X13642008Y-3537136D01*
X13651699Y-3485618D01*
X13660626Y-3437759D01*
X13669820Y-3389347D01*
X13678264Y-3345787D01*
X13685660Y-3308568D01*
X13691713Y-3279181D01*
X13696125Y-3259116D01*
X13698600Y-3249862D01*
X13704510Y-3235796D01*
X13954037Y-3235796D01*
X13962380Y-3235797D01*
G37*
%TD*%
%LPC*%
D12*
%TO.C,J4*%
X4503800Y-21000000D03*
X4503800Y-31000000D03*
X9503800Y-26000000D03*
D13*
X4503800Y-26000000D03*
D14*
X9503800Y-31000000D03*
X9503800Y-21000000D03*
X9503800Y-28500000D03*
X9503800Y-23500000D03*
%TD*%
D15*
%TO.C,J1*%
X21508800Y-60076000D03*
D16*
X21508800Y-57536000D03*
X24048800Y-60076000D03*
X24048800Y-57536000D03*
%TD*%
D17*
%TO.C,J7*%
X9466331Y-63080400D03*
X9466331Y-88080400D03*
D18*
X10886331Y-70040400D03*
D19*
X10886331Y-72810400D03*
X10886331Y-75580400D03*
X10886331Y-78350400D03*
X10886331Y-81120400D03*
X8046331Y-71425400D03*
X8046331Y-74195400D03*
X8046331Y-76965400D03*
X8046331Y-79735400D03*
%TD*%
%TO.C,AR1*%
X16154400Y-80314800D03*
D20*
X16154400Y-70154800D03*
%TD*%
D15*
%TO.C,W8*%
X15584400Y-23931800D03*
D16*
X18124400Y-23931800D03*
X15584400Y-26471800D03*
X18124400Y-26471800D03*
X15584400Y-29011800D03*
X18124400Y-29011800D03*
X15584400Y-31551800D03*
X18124400Y-31551800D03*
X15584400Y-34091800D03*
X18124400Y-34091800D03*
X15584400Y-36631800D03*
X18124400Y-36631800D03*
X15584400Y-39171800D03*
X18124400Y-39171800D03*
X15584400Y-41711800D03*
X18124400Y-41711800D03*
X15584400Y-44251800D03*
X18124400Y-44251800D03*
X15584400Y-46791800D03*
X18124400Y-46791800D03*
%TD*%
D12*
%TO.C,J3*%
X4503800Y-8000000D03*
X4503800Y-18000000D03*
X9503800Y-13000000D03*
D13*
X4503800Y-13000000D03*
D14*
X9503800Y-18000000D03*
X9503800Y-8000000D03*
X9503800Y-15500000D03*
X9503800Y-10500000D03*
%TD*%
D12*
%TO.C,J6*%
X4503800Y-47000000D03*
X4503800Y-57000000D03*
X9503800Y-52000000D03*
D13*
X4503800Y-52000000D03*
D14*
X9503800Y-57000000D03*
X9503800Y-47000000D03*
X9503800Y-54500000D03*
X9503800Y-49500000D03*
%TD*%
D19*
%TO.C,AR2*%
X19304000Y-80314800D03*
D20*
X19304000Y-70154800D03*
%TD*%
D21*
%TO.C,REF\u002A\u002A*%
X4500000Y-3000000D03*
%TD*%
D22*
%TO.C,REF\u002A\u002A*%
X4500000Y-98000000D03*
%TD*%
D12*
%TO.C,J5*%
X4503800Y-34000000D03*
X4503800Y-44000000D03*
X9503800Y-39000000D03*
D13*
X4503800Y-39000000D03*
D14*
X9503800Y-44000000D03*
X9503800Y-34000000D03*
X9503800Y-41500000D03*
X9503800Y-36500000D03*
%TD*%
M02*
