%TF.GenerationSoftware,KiCad,Pcbnew,7.0.1*%
%TF.CreationDate,2023-11-25T16:04:20-05:00*%
%TF.ProjectId,PCI bracket board,50434920-6272-4616-936b-657420626f61,rev?*%
%TF.SameCoordinates,Original*%
%TF.FileFunction,Copper,L1,Top*%
%TF.FilePolarity,Positive*%
%FSLAX46Y46*%
G04 Gerber Fmt 4.6, Leading zero omitted, Abs format (unit mm)*
G04 Created by KiCad (PCBNEW 7.0.1) date 2023-11-25 16:04:20*
%MOMM*%
%LPD*%
G01*
G04 APERTURE LIST*
%TA.AperFunction,ComponentPad*%
%ADD10O,1.308000X2.616000*%
%TD*%
%TA.AperFunction,ComponentPad*%
%ADD11O,2.616000X1.308000*%
%TD*%
%TA.AperFunction,ComponentPad*%
%ADD12R,1.700000X1.700000*%
%TD*%
%TA.AperFunction,ComponentPad*%
%ADD13O,1.700000X1.700000*%
%TD*%
%TA.AperFunction,ComponentPad*%
%ADD14C,4.000000*%
%TD*%
%TA.AperFunction,ComponentPad*%
%ADD15R,1.600000X1.600000*%
%TD*%
%TA.AperFunction,ComponentPad*%
%ADD16C,1.600000*%
%TD*%
%TA.AperFunction,ComponentPad*%
%ADD17O,1.600000X1.600000*%
%TD*%
%TA.AperFunction,ComponentPad*%
%ADD18C,5.600000*%
%TD*%
%TA.AperFunction,ViaPad*%
%ADD19C,0.800000*%
%TD*%
%TA.AperFunction,Conductor*%
%ADD20C,0.250000*%
%TD*%
%TA.AperFunction,Conductor*%
%ADD21C,1.000000*%
%TD*%
G04 APERTURE END LIST*
D10*
%TO.P,J4,1*%
%TO.N,GNDA*%
X4503800Y-26000000D03*
D11*
%TO.P,J4,2*%
%TO.N,/Line out left*%
X9503800Y-31000000D03*
%TO.P,J4,3*%
%TO.N,/Line out right*%
X9503800Y-21000000D03*
%TO.P,J4,10*%
%TO.N,/Line out left*%
X9503800Y-28500000D03*
%TO.P,J4,11*%
%TO.N,/Line out right*%
X9503800Y-23500000D03*
%TD*%
D12*
%TO.P,J1,1,Pin_1*%
%TO.N,GNDD*%
X21508800Y-60076000D03*
D13*
%TO.P,J1,2,Pin_2*%
%TO.N,unconnected-(J1-Pad2)*%
X21508800Y-57536000D03*
%TO.P,J1,3,Pin_3*%
%TO.N,GNDD*%
X24048800Y-60076000D03*
%TO.P,J1,4,Pin_4*%
%TO.N,GNDA*%
X24048800Y-57536000D03*
%TD*%
D14*
%TO.P,J7,0,PAD*%
%TO.N,GNDD*%
X9466331Y-63080400D03*
X9466331Y-88080400D03*
D15*
%TO.P,J7,1,1*%
%TO.N,Net-(J7-Pad1)*%
X10886331Y-70040400D03*
D16*
%TO.P,J7,2,2*%
%TO.N,/Rx*%
X10886331Y-72810400D03*
%TO.P,J7,3,3*%
%TO.N,/Tx*%
X10886331Y-75580400D03*
%TO.P,J7,4,4*%
%TO.N,Net-(J7-Pad4)*%
X10886331Y-78350400D03*
%TO.P,J7,5,5*%
%TO.N,GNDD*%
X10886331Y-81120400D03*
%TO.P,J7,6,6*%
%TO.N,Net-(J7-Pad1)*%
X8046331Y-71425400D03*
%TO.P,J7,7,7*%
%TO.N,Net-(J7-Pad7)*%
X8046331Y-74195400D03*
%TO.P,J7,8,8*%
%TO.N,Net-(J7-Pad8)*%
X8046331Y-76965400D03*
%TO.P,J7,9,9*%
%TO.N,unconnected-(J7-Pad9)*%
X8046331Y-79735400D03*
%TD*%
%TO.P,AR1,1*%
%TO.N,Net-(J7-Pad4)*%
X16154400Y-80314800D03*
D17*
%TO.P,AR1,2*%
%TO.N,Net-(J7-Pad1)*%
X16154400Y-70154800D03*
%TD*%
D12*
%TO.P,W8,1,Pin_1*%
%TO.N,/Mic pass through*%
X15584400Y-23931800D03*
D13*
%TO.P,W8,2,Pin_2*%
%TO.N,/Mic right*%
X18124400Y-23931800D03*
%TO.P,W8,3,Pin_3*%
%TO.N,/Mic left*%
X15584400Y-26471800D03*
%TO.P,W8,4,Pin_4*%
%TO.N,GNDA*%
X18124400Y-26471800D03*
%TO.P,W8,5,Pin_5*%
%TO.N,/Line out left*%
X15584400Y-29011800D03*
%TO.P,W8,6,Pin_6*%
%TO.N,/Line out right*%
X18124400Y-29011800D03*
%TO.P,W8,7,Pin_7*%
%TO.N,GNDA*%
X15584400Y-31551800D03*
%TO.P,W8,8,Pin_8*%
%TO.N,/Speaker in left*%
X18124400Y-31551800D03*
%TO.P,W8,9,Pin_9*%
%TO.N,/Speaker in right*%
X15584400Y-34091800D03*
%TO.P,W8,10,Pin_10*%
%TO.N,GNDA*%
X18124400Y-34091800D03*
%TO.P,W8,11,Pin_11*%
%TO.N,/Speaker out left*%
X15584400Y-36631800D03*
%TO.P,W8,12,Pin_12*%
%TO.N,/Speaker out right*%
X18124400Y-36631800D03*
%TO.P,W8,13,Pin_13*%
%TO.N,unconnected-(W8-Pad13)*%
X15584400Y-39171800D03*
%TO.P,W8,14,Pin_14*%
%TO.N,unconnected-(W8-Pad14)*%
X18124400Y-39171800D03*
%TO.P,W8,15,Pin_15*%
%TO.N,unconnected-(W8-Pad15)*%
X15584400Y-41711800D03*
%TO.P,W8,16,Pin_16*%
%TO.N,unconnected-(W8-Pad16)*%
X18124400Y-41711800D03*
%TO.P,W8,17,Pin_17*%
%TO.N,unconnected-(W8-Pad17)*%
X15584400Y-44251800D03*
%TO.P,W8,18,Pin_18*%
%TO.N,GNDA*%
X18124400Y-44251800D03*
%TO.P,W8,19,Pin_19*%
%TO.N,/Tx*%
X15584400Y-46791800D03*
%TO.P,W8,20,Pin_20*%
%TO.N,/Rx*%
X18124400Y-46791800D03*
%TD*%
D10*
%TO.P,J3,1*%
%TO.N,/Mic pass through*%
X4503800Y-13000000D03*
D11*
%TO.P,J3,2*%
%TO.N,/Mic left*%
X9503800Y-18000000D03*
%TO.P,J3,3*%
%TO.N,/Mic right*%
X9503800Y-8000000D03*
%TO.P,J3,10*%
%TO.N,/Mic pass through*%
X9503800Y-15500000D03*
%TO.P,J3,11*%
X9503800Y-10500000D03*
%TD*%
D10*
%TO.P,J6,1*%
%TO.N,GNDA*%
X4503800Y-52000000D03*
D11*
%TO.P,J6,2*%
%TO.N,/Speaker out left*%
X9503800Y-57000000D03*
%TO.P,J6,3*%
%TO.N,/Speaker out right*%
X9503800Y-47000000D03*
%TO.P,J6,10*%
%TO.N,/Speaker out left*%
X9503800Y-54500000D03*
%TO.P,J6,11*%
%TO.N,/Speaker out right*%
X9503800Y-49500000D03*
%TD*%
D16*
%TO.P,AR2,1*%
%TO.N,Net-(J7-Pad8)*%
X19304000Y-80314800D03*
D17*
%TO.P,AR2,2*%
%TO.N,Net-(J7-Pad7)*%
X19304000Y-70154800D03*
%TD*%
D18*
%TO.P,REF\u002A\u002A,1*%
%TO.N,GNDD*%
X4500000Y-98000000D03*
%TD*%
D10*
%TO.P,J5,1*%
%TO.N,GNDA*%
X4503800Y-39000000D03*
D11*
%TO.P,J5,2*%
%TO.N,/Speaker in left*%
X9503800Y-44000000D03*
%TO.P,J5,3*%
%TO.N,/Speaker in right*%
X9503800Y-34000000D03*
%TO.P,J5,10*%
%TO.N,GNDA*%
X9503800Y-41500000D03*
%TO.P,J5,11*%
X9503800Y-36500000D03*
%TD*%
D19*
%TO.N,GNDD*%
X16510000Y-97790000D03*
X1905000Y-86995000D03*
X25400000Y-76200000D03*
X4445000Y-68580000D03*
X1905000Y-92710000D03*
X20320000Y-95250000D03*
X1905000Y-76835000D03*
X1905000Y-60960000D03*
X16510000Y-95250000D03*
X16510000Y-92710000D03*
X1905000Y-81915000D03*
X16510000Y-89535000D03*
X25400000Y-97790000D03*
X1905000Y-66675000D03*
X25400000Y-90805000D03*
X25400000Y-83820000D03*
X25400000Y-70485000D03*
X1905000Y-71755000D03*
X20320000Y-97790000D03*
X20320000Y-92710000D03*
%TO.N,GNDA*%
X25400000Y-7620000D03*
X13335000Y-2540000D03*
X18415000Y-2540000D03*
X25400000Y-20955000D03*
X15240000Y-8890000D03*
X19050000Y-53975000D03*
X25400000Y-15240000D03*
X25400000Y-50800000D03*
X22225000Y-8890000D03*
X22225000Y-3175000D03*
X25400000Y-41275000D03*
X25400000Y-26670000D03*
X25400000Y-45720000D03*
X25400000Y-53975000D03*
X20955000Y-26670000D03*
X25400000Y-34290000D03*
%TD*%
D20*
%TO.N,Net-(J7-Pad4)*%
X11275931Y-78740000D02*
X10886331Y-78350400D01*
X16154400Y-80314800D02*
X14579600Y-78740000D01*
X14579600Y-78740000D02*
X11275931Y-78740000D01*
%TO.N,Net-(J7-Pad1)*%
X14883800Y-71425400D02*
X8046331Y-71425400D01*
X10886331Y-70040400D02*
X9431331Y-70040400D01*
X16154400Y-70154800D02*
X14883800Y-71425400D01*
X9431331Y-70040400D02*
X8046331Y-71425400D01*
%TO.N,Net-(J7-Pad8)*%
X15954600Y-76965400D02*
X8046331Y-76965400D01*
X19304000Y-80314800D02*
X15954600Y-76965400D01*
%TO.N,Net-(J7-Pad7)*%
X15263400Y-74195400D02*
X8046331Y-74195400D01*
X19304000Y-70154800D02*
X15263400Y-74195400D01*
D21*
%TO.N,GNDA*%
X15584400Y-31551800D02*
X18124400Y-34091800D01*
D20*
%TO.N,/Speaker in right*%
X9595600Y-34091800D02*
X9503800Y-34000000D01*
X15584400Y-34091800D02*
X9595600Y-34091800D01*
%TD*%
%TA.AperFunction,Conductor*%
%TO.N,GNDA*%
G36*
X16914069Y-32210800D02*
G01*
X16959583Y-32252698D01*
X17048678Y-32389068D01*
X17201162Y-32554708D01*
X17378822Y-32692988D01*
X17378824Y-32692989D01*
X17412605Y-32711270D01*
X17460877Y-32757585D01*
X17478637Y-32822082D01*
X17460879Y-32886579D01*
X17412609Y-32932896D01*
X17379102Y-32951029D01*
X17201496Y-33089266D01*
X17049078Y-33254837D01*
X16960182Y-33390902D01*
X16914668Y-33432800D01*
X16854699Y-33447986D01*
X16794729Y-33432800D01*
X16749216Y-33390901D01*
X16741376Y-33378901D01*
X16660122Y-33254532D01*
X16507640Y-33088894D01*
X16507639Y-33088893D01*
X16507637Y-33088891D01*
X16401041Y-33005924D01*
X16329976Y-32950611D01*
X16296192Y-32932328D01*
X16247921Y-32886012D01*
X16230162Y-32821515D01*
X16247921Y-32757017D01*
X16296193Y-32710701D01*
X16329700Y-32692568D01*
X16507303Y-32554333D01*
X16659723Y-32388760D01*
X16748617Y-32252699D01*
X16794130Y-32210800D01*
X16854100Y-32195614D01*
X16914069Y-32210800D01*
G37*
%TD.AperFunction*%
%TA.AperFunction,Conductor*%
G36*
X25396528Y-10091D02*
G01*
X25437405Y-37405D01*
X27614495Y-2214495D01*
X27641809Y-2255372D01*
X27651400Y-2303590D01*
X27651400Y-55754000D01*
X27634519Y-55817000D01*
X27588400Y-55863119D01*
X27525400Y-55880000D01*
X19050000Y-55880000D01*
X19050000Y-57732810D01*
X19040409Y-57781028D01*
X19013095Y-57821905D01*
X17816905Y-59018095D01*
X17776028Y-59045409D01*
X17727810Y-59055000D01*
X126500Y-59055000D01*
X63500Y-59038119D01*
X17381Y-58992000D01*
X500Y-58929000D01*
X500Y-56953683D01*
X3649539Y-56953683D01*
X3659555Y-57138407D01*
X3709045Y-57316658D01*
X3795699Y-57480103D01*
X3858339Y-57553849D01*
X3915463Y-57621100D01*
X4062736Y-57733054D01*
X4230633Y-57810732D01*
X4366135Y-57840558D01*
X4411302Y-57850500D01*
X4411303Y-57850500D01*
X4549913Y-57850500D01*
X4549916Y-57850500D01*
X4653260Y-57839260D01*
X4687710Y-57835514D01*
X4776795Y-57805497D01*
X4863019Y-57776445D01*
X4863021Y-57776444D01*
X5021536Y-57681070D01*
X5155841Y-57553849D01*
X5259658Y-57400730D01*
X5328131Y-57228875D01*
X5347993Y-57107721D01*
X7687300Y-57107721D01*
X7709948Y-57228875D01*
X7726888Y-57319496D01*
X7804715Y-57520392D01*
X7825431Y-57553849D01*
X7918131Y-57703564D01*
X8063274Y-57862778D01*
X8235201Y-57992612D01*
X8426502Y-58087868D01*
X8428060Y-58088644D01*
X8552873Y-58124155D01*
X8635276Y-58147601D01*
X8662072Y-58150084D01*
X8796053Y-58162500D01*
X8796058Y-58162500D01*
X10211542Y-58162500D01*
X10211547Y-58162500D01*
X10326386Y-58151857D01*
X10372324Y-58147601D01*
X10537128Y-58100710D01*
X10579539Y-58088644D01*
X10579539Y-58088643D01*
X10579542Y-58088643D01*
X10772399Y-57992612D01*
X10944326Y-57862778D01*
X11089469Y-57703564D01*
X11202885Y-57520391D01*
X11280712Y-57319496D01*
X11320300Y-57107721D01*
X11320300Y-56892279D01*
X11280712Y-56680504D01*
X11202885Y-56479609D01*
X11089469Y-56296436D01*
X10944326Y-56137222D01*
X10944325Y-56137221D01*
X10944324Y-56137220D01*
X10772401Y-56007389D01*
X10579540Y-55911356D01*
X10438367Y-55871189D01*
X10382934Y-55838267D01*
X10351042Y-55782235D01*
X10351043Y-55717762D01*
X10382935Y-55661730D01*
X10438366Y-55628810D01*
X10579542Y-55588643D01*
X10772399Y-55492612D01*
X10944326Y-55362778D01*
X11089469Y-55203564D01*
X11202885Y-55020391D01*
X11280712Y-54819496D01*
X11320300Y-54607721D01*
X11320300Y-54392279D01*
X11280712Y-54180504D01*
X11202885Y-53979609D01*
X11089469Y-53796436D01*
X10944326Y-53637222D01*
X10944325Y-53637221D01*
X10944324Y-53637220D01*
X10772401Y-53507389D01*
X10579539Y-53411355D01*
X10372322Y-53352398D01*
X10211547Y-53337500D01*
X10211542Y-53337500D01*
X8796058Y-53337500D01*
X8796053Y-53337500D01*
X8635277Y-53352398D01*
X8428060Y-53411355D01*
X8235198Y-53507389D01*
X8063275Y-53637220D01*
X7918130Y-53796437D01*
X7804715Y-53979607D01*
X7726888Y-54180503D01*
X7687300Y-54392281D01*
X7687300Y-54607719D01*
X7726888Y-54819496D01*
X7804715Y-55020392D01*
X7886606Y-55152649D01*
X7918131Y-55203564D01*
X8063274Y-55362778D01*
X8235201Y-55492612D01*
X8428058Y-55588643D01*
X8569233Y-55628810D01*
X8624664Y-55661730D01*
X8656556Y-55717762D01*
X8656557Y-55782235D01*
X8624665Y-55838267D01*
X8569232Y-55871189D01*
X8428060Y-55911356D01*
X8235198Y-56007389D01*
X8063275Y-56137220D01*
X7918130Y-56296437D01*
X7804715Y-56479607D01*
X7726888Y-56680503D01*
X7713691Y-56751095D01*
X7687300Y-56892279D01*
X7687300Y-57107721D01*
X5347993Y-57107721D01*
X5358060Y-57046317D01*
X5348045Y-56861593D01*
X5298554Y-56683341D01*
X5211900Y-56519896D01*
X5177678Y-56479607D01*
X5092138Y-56378901D01*
X4944864Y-56266946D01*
X4944863Y-56266945D01*
X4776967Y-56189268D01*
X4776963Y-56189267D01*
X4596298Y-56149500D01*
X4596297Y-56149500D01*
X4457687Y-56149500D01*
X4457684Y-56149500D01*
X4319890Y-56164485D01*
X4144580Y-56223554D01*
X3986062Y-56318931D01*
X3851759Y-56446150D01*
X3747941Y-56599270D01*
X3679469Y-56771124D01*
X3649539Y-56953683D01*
X500Y-56953683D01*
X500Y-52254000D01*
X3341800Y-52254000D01*
X3341800Y-52707715D01*
X3356693Y-52868436D01*
X3415623Y-53075557D01*
X3511616Y-53268337D01*
X3641392Y-53440186D01*
X3800540Y-53585269D01*
X3983631Y-53698635D01*
X4184440Y-53776428D01*
X4249800Y-53788646D01*
X4249800Y-52254000D01*
X4757800Y-52254000D01*
X4757800Y-53788646D01*
X4823159Y-53776428D01*
X5023968Y-53698635D01*
X5207059Y-53585269D01*
X5366207Y-53440186D01*
X5495983Y-53268337D01*
X5591976Y-53075557D01*
X5650906Y-52868436D01*
X5665800Y-52707715D01*
X5665800Y-52254000D01*
X4757800Y-52254000D01*
X4249800Y-52254000D01*
X3341800Y-52254000D01*
X500Y-52254000D01*
X500Y-51953683D01*
X8649539Y-51953683D01*
X8659555Y-52138407D01*
X8709045Y-52316658D01*
X8795699Y-52480103D01*
X8858339Y-52553849D01*
X8915463Y-52621100D01*
X9062736Y-52733054D01*
X9230633Y-52810732D01*
X9366135Y-52840557D01*
X9411302Y-52850500D01*
X9411303Y-52850500D01*
X9549913Y-52850500D01*
X9549916Y-52850500D01*
X9653260Y-52839260D01*
X9687710Y-52835514D01*
X9776795Y-52805497D01*
X9863019Y-52776445D01*
X9863021Y-52776444D01*
X10021536Y-52681070D01*
X10155841Y-52553849D01*
X10259658Y-52400730D01*
X10328131Y-52228875D01*
X10358060Y-52046317D01*
X10348045Y-51861593D01*
X10298554Y-51683341D01*
X10211900Y-51519896D01*
X10092138Y-51378901D01*
X9944864Y-51266946D01*
X9944863Y-51266945D01*
X9776967Y-51189268D01*
X9776963Y-51189267D01*
X9596298Y-51149500D01*
X9596297Y-51149500D01*
X9457687Y-51149500D01*
X9457684Y-51149500D01*
X9319890Y-51164485D01*
X9144580Y-51223554D01*
X8986062Y-51318931D01*
X8851759Y-51446150D01*
X8747941Y-51599270D01*
X8679469Y-51771124D01*
X8649539Y-51953683D01*
X500Y-51953683D01*
X500Y-51746000D01*
X3341800Y-51746000D01*
X4249800Y-51746000D01*
X4249800Y-50211354D01*
X4757800Y-50211354D01*
X4757800Y-51746000D01*
X5665800Y-51746000D01*
X5665800Y-51292285D01*
X5650906Y-51131563D01*
X5591976Y-50924442D01*
X5495983Y-50731662D01*
X5366207Y-50559813D01*
X5207059Y-50414730D01*
X5023968Y-50301364D01*
X4823159Y-50223571D01*
X4757800Y-50211354D01*
X4249800Y-50211354D01*
X4184440Y-50223571D01*
X3983631Y-50301364D01*
X3800540Y-50414730D01*
X3641392Y-50559813D01*
X3511616Y-50731662D01*
X3415623Y-50924442D01*
X3356693Y-51131563D01*
X3341800Y-51292285D01*
X3341800Y-51746000D01*
X500Y-51746000D01*
X500Y-49607719D01*
X7687300Y-49607719D01*
X7726888Y-49819496D01*
X7804715Y-50020392D01*
X7886606Y-50152649D01*
X7918131Y-50203564D01*
X8063274Y-50362778D01*
X8235201Y-50492612D01*
X8426502Y-50587868D01*
X8428060Y-50588644D01*
X8552873Y-50624155D01*
X8635276Y-50647601D01*
X8662072Y-50650084D01*
X8796053Y-50662500D01*
X8796058Y-50662500D01*
X10211542Y-50662500D01*
X10211547Y-50662500D01*
X10326386Y-50651857D01*
X10372324Y-50647601D01*
X10537128Y-50600710D01*
X10579539Y-50588644D01*
X10579539Y-50588643D01*
X10579542Y-50588643D01*
X10772399Y-50492612D01*
X10944326Y-50362778D01*
X11089469Y-50203564D01*
X11202885Y-50020391D01*
X11280712Y-49819496D01*
X11320300Y-49607721D01*
X11320300Y-49392279D01*
X11280712Y-49180504D01*
X11202885Y-48979609D01*
X11089469Y-48796436D01*
X10944326Y-48637222D01*
X10944325Y-48637221D01*
X10944324Y-48637220D01*
X10772401Y-48507389D01*
X10772399Y-48507388D01*
X10579542Y-48411357D01*
X10579539Y-48411356D01*
X10438368Y-48371190D01*
X10382934Y-48338269D01*
X10351043Y-48282236D01*
X10351043Y-48217764D01*
X10382934Y-48161731D01*
X10438368Y-48128810D01*
X10579542Y-48088643D01*
X10772399Y-47992612D01*
X10944326Y-47862778D01*
X11089469Y-47703564D01*
X11202885Y-47520391D01*
X11280712Y-47319496D01*
X11320300Y-47107721D01*
X11320300Y-46892279D01*
X11280712Y-46680504D01*
X11202885Y-46479609D01*
X11089469Y-46296436D01*
X10944326Y-46137222D01*
X10944325Y-46137221D01*
X10944324Y-46137220D01*
X10772401Y-46007389D01*
X10579539Y-45911355D01*
X10372322Y-45852398D01*
X10211547Y-45837500D01*
X10211542Y-45837500D01*
X8796058Y-45837500D01*
X8796053Y-45837500D01*
X8635277Y-45852398D01*
X8428060Y-45911355D01*
X8235198Y-46007389D01*
X8063275Y-46137220D01*
X7918130Y-46296437D01*
X7804715Y-46479607D01*
X7726888Y-46680503D01*
X7713692Y-46751095D01*
X7687300Y-46892279D01*
X7687300Y-47107721D01*
X7709948Y-47228875D01*
X7726888Y-47319496D01*
X7804715Y-47520392D01*
X7825431Y-47553849D01*
X7918131Y-47703564D01*
X8063274Y-47862778D01*
X8235201Y-47992612D01*
X8428058Y-48088643D01*
X8428060Y-48088643D01*
X8428061Y-48088644D01*
X8569231Y-48128810D01*
X8624665Y-48161731D01*
X8656557Y-48217764D01*
X8656557Y-48282236D01*
X8624665Y-48338269D01*
X8569231Y-48371190D01*
X8428061Y-48411355D01*
X8235198Y-48507389D01*
X8063275Y-48637220D01*
X7918130Y-48796437D01*
X7804715Y-48979607D01*
X7726888Y-49180503D01*
X7687300Y-49392281D01*
X7687300Y-49607719D01*
X500Y-49607719D01*
X500Y-46953683D01*
X3649539Y-46953683D01*
X3659555Y-47138407D01*
X3709045Y-47316658D01*
X3795699Y-47480103D01*
X3858339Y-47553849D01*
X3915463Y-47621100D01*
X4062736Y-47733054D01*
X4230633Y-47810732D01*
X4366135Y-47840557D01*
X4411302Y-47850500D01*
X4411303Y-47850500D01*
X4549913Y-47850500D01*
X4549916Y-47850500D01*
X4653260Y-47839260D01*
X4687710Y-47835514D01*
X4776795Y-47805497D01*
X4863019Y-47776445D01*
X4863021Y-47776444D01*
X5021536Y-47681070D01*
X5155841Y-47553849D01*
X5259658Y-47400730D01*
X5328131Y-47228875D01*
X5358060Y-47046317D01*
X5348045Y-46861593D01*
X5298554Y-46683341D01*
X5211900Y-46519896D01*
X5177678Y-46479607D01*
X5092138Y-46378901D01*
X5053051Y-46349188D01*
X4944864Y-46266946D01*
X4776967Y-46189268D01*
X4776963Y-46189267D01*
X4596298Y-46149500D01*
X4596297Y-46149500D01*
X4457687Y-46149500D01*
X4457684Y-46149500D01*
X4319890Y-46164485D01*
X4144580Y-46223554D01*
X3986062Y-46318931D01*
X3851759Y-46446150D01*
X3747941Y-46599270D01*
X3679469Y-46771124D01*
X3649539Y-46953683D01*
X500Y-46953683D01*
X500Y-43953683D01*
X3649539Y-43953683D01*
X3659555Y-44138407D01*
X3709045Y-44316658D01*
X3795699Y-44480103D01*
X3858339Y-44553849D01*
X3915463Y-44621100D01*
X4062736Y-44733054D01*
X4230633Y-44810732D01*
X4366135Y-44840557D01*
X4411302Y-44850500D01*
X4411303Y-44850500D01*
X4549913Y-44850500D01*
X4549916Y-44850500D01*
X4653260Y-44839260D01*
X4687710Y-44835514D01*
X4776795Y-44805497D01*
X4863019Y-44776445D01*
X4863021Y-44776444D01*
X5021536Y-44681070D01*
X5155841Y-44553849D01*
X5259658Y-44400730D01*
X5328131Y-44228875D01*
X5347993Y-44107721D01*
X7687300Y-44107721D01*
X7709948Y-44228875D01*
X7726888Y-44319496D01*
X7804715Y-44520392D01*
X7825431Y-44553849D01*
X7918131Y-44703564D01*
X7984571Y-44776445D01*
X8063275Y-44862779D01*
X8182346Y-44952698D01*
X8235201Y-44992612D01*
X8426502Y-45087868D01*
X8428060Y-45088644D01*
X8552873Y-45124155D01*
X8635276Y-45147601D01*
X8662072Y-45150084D01*
X8796053Y-45162500D01*
X8796058Y-45162500D01*
X10211542Y-45162500D01*
X10211547Y-45162500D01*
X10326386Y-45151857D01*
X10372324Y-45147601D01*
X10537128Y-45100710D01*
X10579539Y-45088644D01*
X10579539Y-45088643D01*
X10579542Y-45088643D01*
X10772399Y-44992612D01*
X10944326Y-44862778D01*
X11089469Y-44703564D01*
X11202885Y-44520391D01*
X11280712Y-44319496D01*
X11320300Y-44107721D01*
X11320300Y-43892279D01*
X11280712Y-43680504D01*
X11202885Y-43479609D01*
X11089469Y-43296436D01*
X10944326Y-43137222D01*
X10944325Y-43137221D01*
X10944324Y-43137220D01*
X10772401Y-43007389D01*
X10579538Y-42911355D01*
X10437456Y-42870930D01*
X10382022Y-42838008D01*
X10350130Y-42781976D01*
X10350131Y-42717504D01*
X10382022Y-42661471D01*
X10437456Y-42628550D01*
X10579358Y-42588176D01*
X10772137Y-42492183D01*
X10943986Y-42362407D01*
X11089069Y-42203259D01*
X11202435Y-42020168D01*
X11280228Y-41819359D01*
X11292446Y-41754000D01*
X7715154Y-41754000D01*
X7727371Y-41819359D01*
X7805164Y-42020168D01*
X7918530Y-42203259D01*
X8063613Y-42362407D01*
X8235462Y-42492183D01*
X8428242Y-42588176D01*
X8570143Y-42628550D01*
X8625577Y-42661471D01*
X8657468Y-42717504D01*
X8657469Y-42781976D01*
X8625577Y-42838008D01*
X8570144Y-42870930D01*
X8428059Y-42911356D01*
X8235198Y-43007389D01*
X8063275Y-43137220D01*
X7918130Y-43296437D01*
X7804715Y-43479607D01*
X7726888Y-43680503D01*
X7713692Y-43751095D01*
X7687300Y-43892279D01*
X7687300Y-44107721D01*
X5347993Y-44107721D01*
X5358060Y-44046317D01*
X5348045Y-43861593D01*
X5298554Y-43683341D01*
X5211900Y-43519896D01*
X5177678Y-43479607D01*
X5092138Y-43378901D01*
X4944864Y-43266946D01*
X4944863Y-43266945D01*
X4776967Y-43189268D01*
X4776963Y-43189267D01*
X4596298Y-43149500D01*
X4596297Y-43149500D01*
X4457687Y-43149500D01*
X4457684Y-43149500D01*
X4319890Y-43164485D01*
X4144580Y-43223554D01*
X3986062Y-43318931D01*
X3851759Y-43446150D01*
X3747941Y-43599270D01*
X3679469Y-43771124D01*
X3649539Y-43953683D01*
X500Y-43953683D01*
X500Y-41246000D01*
X7715154Y-41246000D01*
X9249800Y-41246000D01*
X9249800Y-40338000D01*
X9757800Y-40338000D01*
X9757800Y-41246000D01*
X11292446Y-41246000D01*
X11280228Y-41180640D01*
X11202435Y-40979831D01*
X11089069Y-40796740D01*
X10943986Y-40637592D01*
X10772137Y-40507816D01*
X10579357Y-40411823D01*
X10372236Y-40352893D01*
X10211515Y-40338000D01*
X9757800Y-40338000D01*
X9249800Y-40338000D01*
X8796085Y-40338000D01*
X8635363Y-40352893D01*
X8428242Y-40411823D01*
X8235462Y-40507816D01*
X8063613Y-40637592D01*
X7918530Y-40796740D01*
X7805164Y-40979831D01*
X7727371Y-41180640D01*
X7715154Y-41246000D01*
X500Y-41246000D01*
X500Y-39254000D01*
X3341800Y-39254000D01*
X3341800Y-39707715D01*
X3356693Y-39868436D01*
X3415623Y-40075557D01*
X3511616Y-40268337D01*
X3641392Y-40440186D01*
X3800540Y-40585269D01*
X3983631Y-40698635D01*
X4184440Y-40776428D01*
X4249800Y-40788646D01*
X4249800Y-39254000D01*
X4757800Y-39254000D01*
X4757800Y-40788646D01*
X4823159Y-40776428D01*
X5023968Y-40698635D01*
X5207059Y-40585269D01*
X5366207Y-40440186D01*
X5495983Y-40268337D01*
X5591976Y-40075557D01*
X5650906Y-39868436D01*
X5665800Y-39707715D01*
X5665800Y-39254000D01*
X4757800Y-39254000D01*
X4249800Y-39254000D01*
X3341800Y-39254000D01*
X500Y-39254000D01*
X500Y-38953683D01*
X8649539Y-38953683D01*
X8659555Y-39138407D01*
X8709045Y-39316658D01*
X8795699Y-39480103D01*
X8909785Y-39614416D01*
X8915463Y-39621100D01*
X9062736Y-39733054D01*
X9230633Y-39810732D01*
X9366135Y-39840557D01*
X9411302Y-39850500D01*
X9411303Y-39850500D01*
X9549913Y-39850500D01*
X9549916Y-39850500D01*
X9653260Y-39839260D01*
X9687710Y-39835514D01*
X9776795Y-39805497D01*
X9863019Y-39776445D01*
X9863021Y-39776444D01*
X10021536Y-39681070D01*
X10155841Y-39553849D01*
X10259658Y-39400730D01*
X10328131Y-39228875D01*
X10358060Y-39046317D01*
X10348045Y-38861593D01*
X10298554Y-38683341D01*
X10211900Y-38519896D01*
X10169895Y-38470444D01*
X10092138Y-38378901D01*
X10033770Y-38334531D01*
X9944864Y-38266946D01*
X9776967Y-38189268D01*
X9776963Y-38189267D01*
X9596298Y-38149500D01*
X9596297Y-38149500D01*
X9457687Y-38149500D01*
X9457684Y-38149500D01*
X9319890Y-38164485D01*
X9144580Y-38223554D01*
X8986062Y-38318931D01*
X8851759Y-38446150D01*
X8747941Y-38599270D01*
X8679469Y-38771124D01*
X8649539Y-38953683D01*
X500Y-38953683D01*
X500Y-38746000D01*
X3341800Y-38746000D01*
X4249800Y-38746000D01*
X4249800Y-37211354D01*
X4757800Y-37211354D01*
X4757800Y-38746000D01*
X5665800Y-38746000D01*
X5665800Y-38292285D01*
X5650906Y-38131563D01*
X5591976Y-37924442D01*
X5495983Y-37731662D01*
X5366207Y-37559813D01*
X5207059Y-37414730D01*
X5023968Y-37301364D01*
X4823159Y-37223571D01*
X4757800Y-37211354D01*
X4249800Y-37211354D01*
X4184440Y-37223571D01*
X3983631Y-37301364D01*
X3800540Y-37414730D01*
X3641392Y-37559813D01*
X3511616Y-37731662D01*
X3415623Y-37924442D01*
X3356693Y-38131563D01*
X3341800Y-38292285D01*
X3341800Y-38746000D01*
X500Y-38746000D01*
X500Y-36754000D01*
X7715154Y-36754000D01*
X7727371Y-36819359D01*
X7805164Y-37020168D01*
X7918530Y-37203259D01*
X8063613Y-37362407D01*
X8235462Y-37492183D01*
X8428242Y-37588176D01*
X8635363Y-37647106D01*
X8796085Y-37662000D01*
X9249800Y-37662000D01*
X9249800Y-36754000D01*
X9757800Y-36754000D01*
X9757800Y-37662000D01*
X10211515Y-37662000D01*
X10372236Y-37647106D01*
X10579357Y-37588176D01*
X10772137Y-37492183D01*
X10943986Y-37362407D01*
X11089069Y-37203259D01*
X11202435Y-37020168D01*
X11280228Y-36819359D01*
X11292446Y-36754000D01*
X9757800Y-36754000D01*
X9249800Y-36754000D01*
X7715154Y-36754000D01*
X500Y-36754000D01*
X500Y-33953683D01*
X3649539Y-33953683D01*
X3659555Y-34138407D01*
X3709045Y-34316658D01*
X3795699Y-34480103D01*
X3858339Y-34553849D01*
X3915463Y-34621100D01*
X4062736Y-34733054D01*
X4230633Y-34810732D01*
X4366135Y-34840557D01*
X4411302Y-34850500D01*
X4411303Y-34850500D01*
X4549913Y-34850500D01*
X4549916Y-34850500D01*
X4653260Y-34839260D01*
X4687710Y-34835514D01*
X4814785Y-34792697D01*
X4863019Y-34776445D01*
X4879691Y-34766414D01*
X5021536Y-34681070D01*
X5155841Y-34553849D01*
X5259658Y-34400730D01*
X5328131Y-34228875D01*
X5347993Y-34107721D01*
X7687300Y-34107721D01*
X7709948Y-34228875D01*
X7726888Y-34319496D01*
X7804715Y-34520392D01*
X7825431Y-34553849D01*
X7918131Y-34703564D01*
X7999387Y-34792697D01*
X8063275Y-34862779D01*
X8151055Y-34929068D01*
X8235201Y-34992612D01*
X8428058Y-35088643D01*
X8570143Y-35129069D01*
X8625576Y-35161990D01*
X8657468Y-35218022D01*
X8657469Y-35282495D01*
X8625577Y-35338527D01*
X8570144Y-35371449D01*
X8428241Y-35411824D01*
X8235462Y-35507816D01*
X8063613Y-35637592D01*
X7918530Y-35796740D01*
X7805164Y-35979831D01*
X7727371Y-36180640D01*
X7715154Y-36246000D01*
X11292446Y-36246000D01*
X11280228Y-36180640D01*
X11202435Y-35979831D01*
X11089069Y-35796740D01*
X10943986Y-35637592D01*
X10772137Y-35507816D01*
X10579358Y-35411824D01*
X10437455Y-35371449D01*
X10382022Y-35338527D01*
X10350130Y-35282495D01*
X10350131Y-35218022D01*
X10382023Y-35161990D01*
X10437454Y-35129070D01*
X10579542Y-35088643D01*
X10772399Y-34992612D01*
X10944326Y-34862778D01*
X11032174Y-34766412D01*
X11074394Y-34736036D01*
X11125288Y-34725300D01*
X14307362Y-34725300D01*
X14367331Y-34740486D01*
X14412844Y-34782383D01*
X14447556Y-34835514D01*
X14508678Y-34929068D01*
X14661162Y-35094708D01*
X14838818Y-35232985D01*
X14838820Y-35232986D01*
X14838824Y-35232989D01*
X14872082Y-35250987D01*
X14920352Y-35297303D01*
X14938111Y-35361800D01*
X14920352Y-35426297D01*
X14872082Y-35472612D01*
X14847194Y-35486081D01*
X14838818Y-35490614D01*
X14661162Y-35628891D01*
X14508678Y-35794531D01*
X14385539Y-35983009D01*
X14295102Y-36189188D01*
X14239837Y-36407427D01*
X14239836Y-36407432D01*
X14221244Y-36631800D01*
X14239836Y-36856168D01*
X14239836Y-36856171D01*
X14239837Y-36856172D01*
X14295102Y-37074411D01*
X14385539Y-37280590D01*
X14419882Y-37333156D01*
X14508678Y-37469068D01*
X14592215Y-37559813D01*
X14661162Y-37634708D01*
X14838818Y-37772985D01*
X14838820Y-37772986D01*
X14838824Y-37772989D01*
X14872082Y-37790987D01*
X14920352Y-37837303D01*
X14938111Y-37901800D01*
X14920352Y-37966297D01*
X14872082Y-38012612D01*
X14847194Y-38026081D01*
X14838818Y-38030614D01*
X14661162Y-38168891D01*
X14508678Y-38334531D01*
X14385539Y-38523009D01*
X14295102Y-38729188D01*
X14261573Y-38861593D01*
X14239836Y-38947432D01*
X14221244Y-39171800D01*
X14239836Y-39396168D01*
X14239836Y-39396171D01*
X14239837Y-39396172D01*
X14295102Y-39614411D01*
X14385539Y-39820590D01*
X14508678Y-40009068D01*
X14661162Y-40174708D01*
X14838818Y-40312985D01*
X14838820Y-40312986D01*
X14838824Y-40312989D01*
X14872082Y-40330987D01*
X14920352Y-40377303D01*
X14938111Y-40441800D01*
X14920352Y-40506297D01*
X14872082Y-40552612D01*
X14847194Y-40566081D01*
X14838818Y-40570614D01*
X14661162Y-40708891D01*
X14508678Y-40874531D01*
X14385539Y-41063009D01*
X14295102Y-41269188D01*
X14239837Y-41487427D01*
X14239836Y-41487432D01*
X14221244Y-41711800D01*
X14239836Y-41936168D01*
X14239836Y-41936171D01*
X14239837Y-41936172D01*
X14295102Y-42154411D01*
X14385539Y-42360590D01*
X14508678Y-42549068D01*
X14661162Y-42714708D01*
X14838818Y-42852985D01*
X14838820Y-42852986D01*
X14838824Y-42852989D01*
X14872082Y-42870987D01*
X14920352Y-42917303D01*
X14938111Y-42981800D01*
X14920352Y-43046297D01*
X14872082Y-43092612D01*
X14847194Y-43106081D01*
X14838818Y-43110614D01*
X14661162Y-43248891D01*
X14508678Y-43414531D01*
X14385539Y-43603009D01*
X14295102Y-43809188D01*
X14243065Y-44014681D01*
X14239836Y-44027432D01*
X14221244Y-44251800D01*
X14239836Y-44476168D01*
X14239836Y-44476171D01*
X14239837Y-44476172D01*
X14295102Y-44694411D01*
X14385539Y-44900590D01*
X14508678Y-45089068D01*
X14661162Y-45254708D01*
X14763011Y-45333981D01*
X14838824Y-45392989D01*
X14872082Y-45410987D01*
X14920351Y-45457300D01*
X14938111Y-45521797D01*
X14920353Y-45586294D01*
X14872083Y-45632611D01*
X14838823Y-45650610D01*
X14661162Y-45788891D01*
X14508678Y-45954531D01*
X14385539Y-46143009D01*
X14295102Y-46349188D01*
X14239837Y-46567427D01*
X14239836Y-46567432D01*
X14221244Y-46791800D01*
X14239836Y-47016168D01*
X14239836Y-47016171D01*
X14239837Y-47016172D01*
X14295102Y-47234411D01*
X14385539Y-47440590D01*
X14459535Y-47553849D01*
X14508678Y-47629068D01*
X14644349Y-47776445D01*
X14661162Y-47794708D01*
X14748619Y-47862779D01*
X14838824Y-47932989D01*
X15036826Y-48040142D01*
X15249765Y-48113244D01*
X15471831Y-48150300D01*
X15696966Y-48150300D01*
X15696969Y-48150300D01*
X15919035Y-48113244D01*
X16131974Y-48040142D01*
X16329976Y-47932989D01*
X16507640Y-47794706D01*
X16660122Y-47629068D01*
X16748918Y-47493154D01*
X16794431Y-47451258D01*
X16854400Y-47436072D01*
X16914369Y-47451258D01*
X16959881Y-47493154D01*
X17048678Y-47629068D01*
X17184349Y-47776445D01*
X17201162Y-47794708D01*
X17288619Y-47862779D01*
X17378824Y-47932989D01*
X17576826Y-48040142D01*
X17789765Y-48113244D01*
X18011831Y-48150300D01*
X18236966Y-48150300D01*
X18236969Y-48150300D01*
X18459035Y-48113244D01*
X18671974Y-48040142D01*
X18869976Y-47932989D01*
X19047640Y-47794706D01*
X19200122Y-47629068D01*
X19323260Y-47440591D01*
X19413696Y-47234416D01*
X19468964Y-47016168D01*
X19487556Y-46791800D01*
X19468964Y-46567432D01*
X19413696Y-46349184D01*
X19323260Y-46143009D01*
X19200122Y-45954532D01*
X19047640Y-45788894D01*
X19047639Y-45788893D01*
X19047637Y-45788891D01*
X18941041Y-45705924D01*
X18869976Y-45650611D01*
X18836192Y-45632328D01*
X18787921Y-45586012D01*
X18770162Y-45521515D01*
X18787921Y-45457017D01*
X18836193Y-45410701D01*
X18869700Y-45392568D01*
X19047303Y-45254333D01*
X19199721Y-45088762D01*
X19322819Y-44900348D01*
X19413222Y-44694251D01*
X19460944Y-44505800D01*
X17996400Y-44505800D01*
X17933400Y-44488919D01*
X17887281Y-44442800D01*
X17870400Y-44379800D01*
X17870400Y-44123800D01*
X17887281Y-44060800D01*
X17933400Y-44014681D01*
X17996400Y-43997800D01*
X19460944Y-43997800D01*
X19460944Y-43997799D01*
X19413222Y-43809348D01*
X19322819Y-43603251D01*
X19199721Y-43414837D01*
X19047303Y-43249266D01*
X18869699Y-43111031D01*
X18836191Y-43092897D01*
X18787920Y-43046580D01*
X18770162Y-42982082D01*
X18787922Y-42917585D01*
X18836191Y-42871271D01*
X18869976Y-42852989D01*
X19047640Y-42714706D01*
X19200122Y-42549068D01*
X19323260Y-42360591D01*
X19413696Y-42154416D01*
X19468964Y-41936168D01*
X19487556Y-41711800D01*
X19468964Y-41487432D01*
X19413696Y-41269184D01*
X19323260Y-41063009D01*
X19200122Y-40874532D01*
X19047640Y-40708894D01*
X19047639Y-40708893D01*
X19047637Y-40708891D01*
X18869979Y-40570613D01*
X18869977Y-40570612D01*
X18869976Y-40570611D01*
X18836717Y-40552612D01*
X18788447Y-40506298D01*
X18770688Y-40441800D01*
X18788447Y-40377302D01*
X18836717Y-40330987D01*
X18869976Y-40312989D01*
X19047640Y-40174706D01*
X19200122Y-40009068D01*
X19323260Y-39820591D01*
X19413696Y-39614416D01*
X19468964Y-39396168D01*
X19487556Y-39171800D01*
X19468964Y-38947432D01*
X19413696Y-38729184D01*
X19323260Y-38523009D01*
X19200122Y-38334532D01*
X19047640Y-38168894D01*
X19047639Y-38168893D01*
X19047637Y-38168891D01*
X18869979Y-38030613D01*
X18869977Y-38030612D01*
X18869976Y-38030611D01*
X18836717Y-38012612D01*
X18788447Y-37966298D01*
X18770688Y-37901800D01*
X18788447Y-37837302D01*
X18836717Y-37790987D01*
X18869976Y-37772989D01*
X19047640Y-37634706D01*
X19200122Y-37469068D01*
X19323260Y-37280591D01*
X19413696Y-37074416D01*
X19468964Y-36856168D01*
X19487556Y-36631800D01*
X19468964Y-36407432D01*
X19413696Y-36189184D01*
X19323260Y-35983009D01*
X19200122Y-35794532D01*
X19047640Y-35628894D01*
X19047639Y-35628893D01*
X19047637Y-35628891D01*
X18941041Y-35545924D01*
X18869976Y-35490611D01*
X18836192Y-35472328D01*
X18787921Y-35426012D01*
X18770162Y-35361515D01*
X18787921Y-35297017D01*
X18836193Y-35250701D01*
X18869700Y-35232568D01*
X19047303Y-35094333D01*
X19199721Y-34928762D01*
X19322819Y-34740348D01*
X19413222Y-34534251D01*
X19460944Y-34345800D01*
X17996400Y-34345800D01*
X17933400Y-34328919D01*
X17887281Y-34282800D01*
X17870400Y-34219800D01*
X17870400Y-33963800D01*
X17887281Y-33900800D01*
X17933400Y-33854681D01*
X17996400Y-33837800D01*
X19460944Y-33837800D01*
X19460944Y-33837799D01*
X19413222Y-33649348D01*
X19322819Y-33443251D01*
X19199721Y-33254837D01*
X19047303Y-33089266D01*
X18869699Y-32951031D01*
X18836191Y-32932897D01*
X18787920Y-32886580D01*
X18770162Y-32822082D01*
X18787922Y-32757585D01*
X18836191Y-32711271D01*
X18869976Y-32692989D01*
X19047640Y-32554706D01*
X19200122Y-32389068D01*
X19323260Y-32200591D01*
X19413696Y-31994416D01*
X19468964Y-31776168D01*
X19487556Y-31551800D01*
X19468964Y-31327432D01*
X19413696Y-31109184D01*
X19323260Y-30903009D01*
X19200122Y-30714532D01*
X19047640Y-30548894D01*
X19047639Y-30548893D01*
X19047637Y-30548891D01*
X18869978Y-30410612D01*
X18836717Y-30392612D01*
X18788446Y-30346295D01*
X18770688Y-30281797D01*
X18788449Y-30217299D01*
X18836717Y-30170987D01*
X18869976Y-30152989D01*
X19047640Y-30014706D01*
X19200122Y-29849068D01*
X19323260Y-29660591D01*
X19413696Y-29454416D01*
X19468964Y-29236168D01*
X19487556Y-29011800D01*
X19468964Y-28787432D01*
X19413696Y-28569184D01*
X19323260Y-28363009D01*
X19200122Y-28174532D01*
X19047640Y-28008894D01*
X19047639Y-28008893D01*
X19047637Y-28008891D01*
X18941041Y-27925924D01*
X18869976Y-27870611D01*
X18836192Y-27852328D01*
X18787921Y-27806012D01*
X18770162Y-27741515D01*
X18787921Y-27677017D01*
X18836193Y-27630701D01*
X18869700Y-27612568D01*
X19047303Y-27474333D01*
X19199721Y-27308762D01*
X19322819Y-27120348D01*
X19413222Y-26914251D01*
X19460944Y-26725800D01*
X17996400Y-26725800D01*
X17933400Y-26708919D01*
X17887281Y-26662800D01*
X17870400Y-26599800D01*
X17870400Y-26343800D01*
X17887281Y-26280800D01*
X17933400Y-26234681D01*
X17996400Y-26217800D01*
X19460944Y-26217800D01*
X19460944Y-26217799D01*
X19413222Y-26029348D01*
X19322819Y-25823251D01*
X19199721Y-25634837D01*
X19047303Y-25469266D01*
X18869699Y-25331031D01*
X18836191Y-25312897D01*
X18787920Y-25266580D01*
X18770162Y-25202082D01*
X18787922Y-25137585D01*
X18836191Y-25091271D01*
X18869976Y-25072989D01*
X19047640Y-24934706D01*
X19200122Y-24769068D01*
X19323260Y-24580591D01*
X19413696Y-24374416D01*
X19468964Y-24156168D01*
X19487556Y-23931800D01*
X19468964Y-23707432D01*
X19413696Y-23489184D01*
X19323260Y-23283009D01*
X19200122Y-23094532D01*
X19047640Y-22928894D01*
X19047639Y-22928893D01*
X19047637Y-22928891D01*
X18869978Y-22790612D01*
X18671973Y-22683457D01*
X18518910Y-22630911D01*
X18459035Y-22610356D01*
X18236969Y-22573300D01*
X18011831Y-22573300D01*
X17789765Y-22610356D01*
X17789762Y-22610356D01*
X17789762Y-22610357D01*
X17576826Y-22683457D01*
X17378821Y-22790612D01*
X17201158Y-22928894D01*
X17140154Y-22995162D01*
X17086682Y-23029562D01*
X17023220Y-23033472D01*
X16965930Y-23005896D01*
X16929398Y-22953856D01*
X16920088Y-22928894D01*
X16885289Y-22835596D01*
X16855975Y-22796437D01*
X16797661Y-22718538D01*
X16680605Y-22630911D01*
X16612102Y-22605360D01*
X16543601Y-22579811D01*
X16483038Y-22573300D01*
X14685762Y-22573300D01*
X14625199Y-22579811D01*
X14488194Y-22630911D01*
X14371138Y-22718538D01*
X14283511Y-22835594D01*
X14248713Y-22928891D01*
X14232411Y-22972599D01*
X14225900Y-23033162D01*
X14225900Y-24830438D01*
X14232411Y-24891001D01*
X14244884Y-24924442D01*
X14283511Y-25028005D01*
X14371138Y-25145061D01*
X14488194Y-25232688D01*
X14488195Y-25232688D01*
X14488196Y-25232689D01*
X14603209Y-25275587D01*
X14653540Y-25310148D01*
X14681715Y-25364319D01*
X14681112Y-25425374D01*
X14651875Y-25478978D01*
X14508681Y-25634528D01*
X14385539Y-25823009D01*
X14295102Y-26029188D01*
X14244535Y-26228875D01*
X14239836Y-26247432D01*
X14221244Y-26471800D01*
X14239836Y-26696168D01*
X14239836Y-26696171D01*
X14239837Y-26696172D01*
X14295102Y-26914411D01*
X14385539Y-27120590D01*
X14419583Y-27172698D01*
X14508678Y-27309068D01*
X14548566Y-27352398D01*
X14661162Y-27474708D01*
X14763011Y-27553981D01*
X14838824Y-27612989D01*
X14872082Y-27630987D01*
X14920351Y-27677300D01*
X14938111Y-27741797D01*
X14920353Y-27806294D01*
X14872083Y-27852611D01*
X14838823Y-27870610D01*
X14661162Y-28008891D01*
X14508678Y-28174531D01*
X14385539Y-28363009D01*
X14295102Y-28569188D01*
X14239837Y-28787427D01*
X14239836Y-28787432D01*
X14221244Y-29011800D01*
X14239836Y-29236168D01*
X14239836Y-29236171D01*
X14239837Y-29236172D01*
X14295102Y-29454411D01*
X14385539Y-29660590D01*
X14508678Y-29849068D01*
X14661162Y-30014708D01*
X14838822Y-30152988D01*
X14838824Y-30152989D01*
X14872605Y-30171270D01*
X14920877Y-30217585D01*
X14938637Y-30282082D01*
X14920879Y-30346579D01*
X14872609Y-30392896D01*
X14839102Y-30411029D01*
X14661496Y-30549266D01*
X14509078Y-30714837D01*
X14385980Y-30903251D01*
X14295577Y-31109348D01*
X14247855Y-31297799D01*
X14247856Y-31297800D01*
X15712400Y-31297800D01*
X15775400Y-31314681D01*
X15821519Y-31360800D01*
X15838400Y-31423800D01*
X15838400Y-31679800D01*
X15821519Y-31742800D01*
X15775400Y-31788919D01*
X15712400Y-31805800D01*
X14247855Y-31805800D01*
X14295577Y-31994251D01*
X14385980Y-32200348D01*
X14509078Y-32388762D01*
X14661496Y-32554333D01*
X14839102Y-32692569D01*
X14872607Y-32710702D01*
X14920878Y-32757018D01*
X14938637Y-32821515D01*
X14920878Y-32886012D01*
X14872607Y-32932328D01*
X14838823Y-32950611D01*
X14661162Y-33088891D01*
X14508678Y-33254531D01*
X14481300Y-33296437D01*
X14427425Y-33378900D01*
X14412845Y-33401216D01*
X14367331Y-33443114D01*
X14307362Y-33458300D01*
X11259872Y-33458300D01*
X11198560Y-33442376D01*
X11152746Y-33398632D01*
X11089469Y-33296436D01*
X10944326Y-33137222D01*
X10944325Y-33137221D01*
X10944324Y-33137220D01*
X10772401Y-33007389D01*
X10579539Y-32911355D01*
X10372322Y-32852398D01*
X10211547Y-32837500D01*
X10211542Y-32837500D01*
X8796058Y-32837500D01*
X8796053Y-32837500D01*
X8635277Y-32852398D01*
X8428060Y-32911355D01*
X8235198Y-33007389D01*
X8063275Y-33137220D01*
X7918130Y-33296437D01*
X7804715Y-33479607D01*
X7726888Y-33680503D01*
X7713692Y-33751095D01*
X7687300Y-33892279D01*
X7687300Y-34107721D01*
X5347993Y-34107721D01*
X5358060Y-34046317D01*
X5348045Y-33861593D01*
X5298554Y-33683341D01*
X5211900Y-33519896D01*
X5150819Y-33447986D01*
X5092138Y-33378901D01*
X4944864Y-33266946D01*
X4918036Y-33254534D01*
X4776967Y-33189268D01*
X4776963Y-33189267D01*
X4596298Y-33149500D01*
X4596297Y-33149500D01*
X4457687Y-33149500D01*
X4457684Y-33149500D01*
X4319890Y-33164485D01*
X4144580Y-33223554D01*
X3986062Y-33318931D01*
X3851759Y-33446150D01*
X3747941Y-33599270D01*
X3679469Y-33771124D01*
X3649539Y-33953683D01*
X500Y-33953683D01*
X500Y-30953683D01*
X3649539Y-30953683D01*
X3659555Y-31138407D01*
X3709045Y-31316658D01*
X3795699Y-31480103D01*
X3858339Y-31553849D01*
X3915463Y-31621100D01*
X4062736Y-31733054D01*
X4230633Y-31810732D01*
X4366135Y-31840558D01*
X4411302Y-31850500D01*
X4411303Y-31850500D01*
X4549913Y-31850500D01*
X4549916Y-31850500D01*
X4653260Y-31839260D01*
X4687710Y-31835514D01*
X4776795Y-31805497D01*
X4863019Y-31776445D01*
X4863473Y-31776172D01*
X5021536Y-31681070D01*
X5155841Y-31553849D01*
X5259658Y-31400730D01*
X5328131Y-31228875D01*
X5347993Y-31107721D01*
X7687300Y-31107721D01*
X7709948Y-31228875D01*
X7726888Y-31319496D01*
X7804715Y-31520392D01*
X7825431Y-31553849D01*
X7918131Y-31703564D01*
X8063274Y-31862778D01*
X8235201Y-31992612D01*
X8426502Y-32087868D01*
X8428060Y-32088644D01*
X8552873Y-32124155D01*
X8635276Y-32147601D01*
X8662073Y-32150084D01*
X8796053Y-32162500D01*
X8796058Y-32162500D01*
X10211542Y-32162500D01*
X10211547Y-32162500D01*
X10326386Y-32151857D01*
X10372324Y-32147601D01*
X10537128Y-32100710D01*
X10579539Y-32088644D01*
X10579539Y-32088643D01*
X10579542Y-32088643D01*
X10772399Y-31992612D01*
X10944326Y-31862778D01*
X11089469Y-31703564D01*
X11202885Y-31520391D01*
X11280712Y-31319496D01*
X11320300Y-31107721D01*
X11320300Y-30892279D01*
X11280712Y-30680504D01*
X11202885Y-30479609D01*
X11089469Y-30296436D01*
X10944326Y-30137222D01*
X10944325Y-30137221D01*
X10944324Y-30137220D01*
X10772401Y-30007389D01*
X10772399Y-30007388D01*
X10579542Y-29911357D01*
X10579539Y-29911356D01*
X10438368Y-29871190D01*
X10382934Y-29838269D01*
X10351043Y-29782236D01*
X10351043Y-29717764D01*
X10382934Y-29661731D01*
X10438368Y-29628810D01*
X10579542Y-29588643D01*
X10772399Y-29492612D01*
X10944326Y-29362778D01*
X11089469Y-29203564D01*
X11202885Y-29020391D01*
X11280712Y-28819496D01*
X11320300Y-28607721D01*
X11320300Y-28392279D01*
X11280712Y-28180504D01*
X11202885Y-27979609D01*
X11089469Y-27796436D01*
X10944326Y-27637222D01*
X10944325Y-27637221D01*
X10944324Y-27637220D01*
X10772401Y-27507389D01*
X10579539Y-27411355D01*
X10372322Y-27352398D01*
X10211547Y-27337500D01*
X10211542Y-27337500D01*
X8796058Y-27337500D01*
X8796053Y-27337500D01*
X8635277Y-27352398D01*
X8428060Y-27411355D01*
X8235198Y-27507389D01*
X8063275Y-27637220D01*
X7918130Y-27796437D01*
X7804715Y-27979607D01*
X7726888Y-28180503D01*
X7687300Y-28392281D01*
X7687300Y-28607719D01*
X7726888Y-28819496D01*
X7804715Y-29020392D01*
X7886606Y-29152649D01*
X7918131Y-29203564D01*
X8063274Y-29362778D01*
X8063275Y-29362779D01*
X8184621Y-29454416D01*
X8235201Y-29492612D01*
X8428058Y-29588643D01*
X8428060Y-29588643D01*
X8428061Y-29588644D01*
X8569231Y-29628810D01*
X8624665Y-29661731D01*
X8656557Y-29717764D01*
X8656557Y-29782236D01*
X8624665Y-29838269D01*
X8569231Y-29871190D01*
X8428061Y-29911355D01*
X8235198Y-30007389D01*
X8063275Y-30137220D01*
X7918130Y-30296437D01*
X7804715Y-30479607D01*
X7726888Y-30680503D01*
X7720527Y-30714531D01*
X7687300Y-30892279D01*
X7687300Y-31107721D01*
X5347993Y-31107721D01*
X5358060Y-31046317D01*
X5348045Y-30861593D01*
X5298554Y-30683341D01*
X5211900Y-30519896D01*
X5177678Y-30479607D01*
X5092138Y-30378901D01*
X5049244Y-30346294D01*
X4944864Y-30266946D01*
X4776967Y-30189268D01*
X4776963Y-30189267D01*
X4596298Y-30149500D01*
X4596297Y-30149500D01*
X4457687Y-30149500D01*
X4457684Y-30149500D01*
X4319890Y-30164485D01*
X4144580Y-30223554D01*
X3986062Y-30318931D01*
X3851759Y-30446150D01*
X3747941Y-30599270D01*
X3679469Y-30771124D01*
X3649539Y-30953683D01*
X500Y-30953683D01*
X500Y-26254000D01*
X3341800Y-26254000D01*
X3341800Y-26707715D01*
X3356693Y-26868436D01*
X3415623Y-27075557D01*
X3511616Y-27268337D01*
X3641392Y-27440186D01*
X3800540Y-27585269D01*
X3983631Y-27698635D01*
X4184440Y-27776428D01*
X4249800Y-27788646D01*
X4249800Y-26254000D01*
X4757800Y-26254000D01*
X4757800Y-27788646D01*
X4823159Y-27776428D01*
X5023968Y-27698635D01*
X5207059Y-27585269D01*
X5366207Y-27440186D01*
X5495983Y-27268337D01*
X5591976Y-27075557D01*
X5650906Y-26868436D01*
X5665800Y-26707715D01*
X5665800Y-26254000D01*
X4757800Y-26254000D01*
X4249800Y-26254000D01*
X3341800Y-26254000D01*
X500Y-26254000D01*
X500Y-25953683D01*
X8649539Y-25953683D01*
X8659555Y-26138407D01*
X8709045Y-26316658D01*
X8795699Y-26480103D01*
X8897370Y-26599800D01*
X8915463Y-26621100D01*
X9062736Y-26733054D01*
X9230633Y-26810732D01*
X9366135Y-26840557D01*
X9411302Y-26850500D01*
X9411303Y-26850500D01*
X9549913Y-26850500D01*
X9549916Y-26850500D01*
X9653260Y-26839260D01*
X9687710Y-26835514D01*
X9776795Y-26805497D01*
X9863019Y-26776445D01*
X9863021Y-26776444D01*
X10021536Y-26681070D01*
X10155841Y-26553849D01*
X10259658Y-26400730D01*
X10328131Y-26228875D01*
X10358060Y-26046317D01*
X10348045Y-25861593D01*
X10298554Y-25683341D01*
X10211900Y-25519896D01*
X10168579Y-25468894D01*
X10092138Y-25378901D01*
X10005311Y-25312897D01*
X9944864Y-25266946D01*
X9776967Y-25189268D01*
X9776963Y-25189267D01*
X9596298Y-25149500D01*
X9596297Y-25149500D01*
X9457687Y-25149500D01*
X9457684Y-25149500D01*
X9319890Y-25164485D01*
X9144580Y-25223554D01*
X8986062Y-25318931D01*
X8851759Y-25446150D01*
X8747941Y-25599270D01*
X8679469Y-25771124D01*
X8649539Y-25953683D01*
X500Y-25953683D01*
X500Y-25746000D01*
X3341800Y-25746000D01*
X4249800Y-25746000D01*
X4249800Y-24211354D01*
X4757800Y-24211354D01*
X4757800Y-25746000D01*
X5665800Y-25746000D01*
X5665800Y-25292285D01*
X5650906Y-25131563D01*
X5591976Y-24924442D01*
X5495983Y-24731662D01*
X5366207Y-24559813D01*
X5207059Y-24414730D01*
X5023968Y-24301364D01*
X4823159Y-24223571D01*
X4757800Y-24211354D01*
X4249800Y-24211354D01*
X4184440Y-24223571D01*
X3983631Y-24301364D01*
X3800540Y-24414730D01*
X3641392Y-24559813D01*
X3511616Y-24731662D01*
X3415623Y-24924442D01*
X3356693Y-25131563D01*
X3341800Y-25292285D01*
X3341800Y-25746000D01*
X500Y-25746000D01*
X500Y-23607721D01*
X7687300Y-23607721D01*
X7726887Y-23819495D01*
X7726888Y-23819496D01*
X7804715Y-24020392D01*
X7886606Y-24152649D01*
X7918131Y-24203564D01*
X8063274Y-24362778D01*
X8235201Y-24492612D01*
X8411885Y-24580590D01*
X8428060Y-24588644D01*
X8552873Y-24624155D01*
X8635276Y-24647601D01*
X8662073Y-24650084D01*
X8796053Y-24662500D01*
X8796058Y-24662500D01*
X10211542Y-24662500D01*
X10211547Y-24662500D01*
X10326386Y-24651857D01*
X10372324Y-24647601D01*
X10537128Y-24600710D01*
X10579539Y-24588644D01*
X10579539Y-24588643D01*
X10579542Y-24588643D01*
X10772399Y-24492612D01*
X10944326Y-24362778D01*
X11089469Y-24203564D01*
X11202885Y-24020391D01*
X11280712Y-23819496D01*
X11320300Y-23607721D01*
X11320300Y-23392279D01*
X11280712Y-23180504D01*
X11202885Y-22979609D01*
X11186939Y-22953856D01*
X11171360Y-22928694D01*
X11089469Y-22796436D01*
X10944326Y-22637222D01*
X10944325Y-22637221D01*
X10944324Y-22637220D01*
X10772401Y-22507389D01*
X10772399Y-22507388D01*
X10579542Y-22411357D01*
X10579539Y-22411356D01*
X10438368Y-22371190D01*
X10382934Y-22338269D01*
X10351043Y-22282236D01*
X10351043Y-22217764D01*
X10382934Y-22161731D01*
X10438368Y-22128810D01*
X10579542Y-22088643D01*
X10772399Y-21992612D01*
X10944326Y-21862778D01*
X11089469Y-21703564D01*
X11202885Y-21520391D01*
X11280712Y-21319496D01*
X11320300Y-21107721D01*
X11320300Y-20892279D01*
X11280712Y-20680504D01*
X11202885Y-20479609D01*
X11089469Y-20296436D01*
X10944326Y-20137222D01*
X10944325Y-20137221D01*
X10944324Y-20137220D01*
X10772401Y-20007389D01*
X10579539Y-19911355D01*
X10372322Y-19852398D01*
X10211547Y-19837500D01*
X10211542Y-19837500D01*
X8796058Y-19837500D01*
X8796053Y-19837500D01*
X8635277Y-19852398D01*
X8428060Y-19911355D01*
X8235198Y-20007389D01*
X8063275Y-20137220D01*
X7918130Y-20296437D01*
X7804715Y-20479607D01*
X7726888Y-20680503D01*
X7713691Y-20751095D01*
X7687300Y-20892279D01*
X7687300Y-21107721D01*
X7709948Y-21228875D01*
X7726888Y-21319496D01*
X7804715Y-21520392D01*
X7825431Y-21553849D01*
X7918131Y-21703564D01*
X8063274Y-21862778D01*
X8235201Y-21992612D01*
X8428058Y-22088643D01*
X8428060Y-22088643D01*
X8428061Y-22088644D01*
X8569231Y-22128810D01*
X8624665Y-22161731D01*
X8656557Y-22217764D01*
X8656557Y-22282236D01*
X8624665Y-22338269D01*
X8569231Y-22371190D01*
X8428061Y-22411355D01*
X8235198Y-22507389D01*
X8063275Y-22637220D01*
X7918130Y-22796437D01*
X7804715Y-22979607D01*
X7726888Y-23180503D01*
X7726888Y-23180504D01*
X7687300Y-23392279D01*
X7687300Y-23607721D01*
X500Y-23607721D01*
X500Y-20953683D01*
X3649539Y-20953683D01*
X3659555Y-21138407D01*
X3709045Y-21316658D01*
X3795699Y-21480103D01*
X3858339Y-21553849D01*
X3915463Y-21621100D01*
X4062736Y-21733054D01*
X4230633Y-21810732D01*
X4366135Y-21840557D01*
X4411302Y-21850500D01*
X4411303Y-21850500D01*
X4549913Y-21850500D01*
X4549916Y-21850500D01*
X4653260Y-21839260D01*
X4687710Y-21835514D01*
X4776795Y-21805497D01*
X4863019Y-21776445D01*
X4863021Y-21776444D01*
X5021536Y-21681070D01*
X5155841Y-21553849D01*
X5259658Y-21400730D01*
X5328131Y-21228875D01*
X5358060Y-21046317D01*
X5348045Y-20861593D01*
X5298554Y-20683341D01*
X5211900Y-20519896D01*
X5177678Y-20479607D01*
X5092138Y-20378901D01*
X4944864Y-20266946D01*
X4944863Y-20266945D01*
X4776967Y-20189268D01*
X4776963Y-20189267D01*
X4596298Y-20149500D01*
X4596297Y-20149500D01*
X4457687Y-20149500D01*
X4457684Y-20149500D01*
X4319890Y-20164485D01*
X4144580Y-20223554D01*
X3986062Y-20318931D01*
X3851759Y-20446150D01*
X3747941Y-20599270D01*
X3679469Y-20771124D01*
X3649539Y-20953683D01*
X500Y-20953683D01*
X500Y-17953683D01*
X3649539Y-17953683D01*
X3659555Y-18138407D01*
X3709045Y-18316658D01*
X3795699Y-18480103D01*
X3858339Y-18553849D01*
X3915463Y-18621100D01*
X4062736Y-18733054D01*
X4230633Y-18810732D01*
X4366135Y-18840558D01*
X4411302Y-18850500D01*
X4411303Y-18850500D01*
X4549913Y-18850500D01*
X4549916Y-18850500D01*
X4653260Y-18839260D01*
X4687710Y-18835514D01*
X4776795Y-18805497D01*
X4863019Y-18776445D01*
X4863021Y-18776444D01*
X5021536Y-18681070D01*
X5155841Y-18553849D01*
X5259658Y-18400730D01*
X5328131Y-18228875D01*
X5347993Y-18107721D01*
X7687300Y-18107721D01*
X7709948Y-18228875D01*
X7726888Y-18319496D01*
X7804715Y-18520392D01*
X7825431Y-18553849D01*
X7918131Y-18703564D01*
X8063274Y-18862778D01*
X8235201Y-18992612D01*
X8426502Y-19087868D01*
X8428060Y-19088644D01*
X8552873Y-19124155D01*
X8635276Y-19147601D01*
X8662073Y-19150084D01*
X8796053Y-19162500D01*
X8796058Y-19162500D01*
X10211542Y-19162500D01*
X10211547Y-19162500D01*
X10326386Y-19151857D01*
X10372324Y-19147601D01*
X10537128Y-19100710D01*
X10579539Y-19088644D01*
X10579539Y-19088643D01*
X10579542Y-19088643D01*
X10772399Y-18992612D01*
X10944326Y-18862778D01*
X11089469Y-18703564D01*
X11202885Y-18520391D01*
X11280712Y-18319496D01*
X11320300Y-18107721D01*
X11320300Y-17892279D01*
X11280712Y-17680504D01*
X11202885Y-17479609D01*
X11089469Y-17296436D01*
X10944326Y-17137222D01*
X10944325Y-17137221D01*
X10944324Y-17137220D01*
X10772401Y-17007389D01*
X10579540Y-16911356D01*
X10438367Y-16871189D01*
X10382934Y-16838267D01*
X10351042Y-16782235D01*
X10351043Y-16717762D01*
X10382935Y-16661730D01*
X10438366Y-16628810D01*
X10579542Y-16588643D01*
X10772399Y-16492612D01*
X10944326Y-16362778D01*
X11089469Y-16203564D01*
X11202885Y-16020391D01*
X11280712Y-15819496D01*
X11320300Y-15607721D01*
X11320300Y-15392279D01*
X11280712Y-15180504D01*
X11202885Y-14979609D01*
X11089469Y-14796436D01*
X10944326Y-14637222D01*
X10944325Y-14637221D01*
X10944324Y-14637220D01*
X10772401Y-14507389D01*
X10579539Y-14411355D01*
X10372322Y-14352398D01*
X10211547Y-14337500D01*
X10211542Y-14337500D01*
X8796058Y-14337500D01*
X8796053Y-14337500D01*
X8635277Y-14352398D01*
X8428060Y-14411355D01*
X8235198Y-14507389D01*
X8063275Y-14637220D01*
X7918130Y-14796437D01*
X7804715Y-14979607D01*
X7726888Y-15180503D01*
X7687300Y-15392281D01*
X7687300Y-15607719D01*
X7726888Y-15819496D01*
X7804715Y-16020392D01*
X7886606Y-16152649D01*
X7918131Y-16203564D01*
X8063274Y-16362778D01*
X8235201Y-16492612D01*
X8428058Y-16588643D01*
X8569233Y-16628810D01*
X8624664Y-16661730D01*
X8656556Y-16717762D01*
X8656557Y-16782235D01*
X8624665Y-16838267D01*
X8569232Y-16871189D01*
X8428060Y-16911356D01*
X8235198Y-17007389D01*
X8063275Y-17137220D01*
X7918130Y-17296437D01*
X7804715Y-17479607D01*
X7726888Y-17680503D01*
X7713692Y-17751095D01*
X7687300Y-17892279D01*
X7687300Y-18107721D01*
X5347993Y-18107721D01*
X5358060Y-18046317D01*
X5348045Y-17861593D01*
X5298554Y-17683341D01*
X5211900Y-17519896D01*
X5177678Y-17479607D01*
X5092138Y-17378901D01*
X4944864Y-17266946D01*
X4944863Y-17266945D01*
X4776967Y-17189268D01*
X4776963Y-17189267D01*
X4596298Y-17149500D01*
X4596297Y-17149500D01*
X4457687Y-17149500D01*
X4457684Y-17149500D01*
X4319890Y-17164485D01*
X4144580Y-17223554D01*
X3986062Y-17318931D01*
X3851759Y-17446150D01*
X3747941Y-17599270D01*
X3679469Y-17771124D01*
X3649539Y-17953683D01*
X500Y-17953683D01*
X500Y-13707747D01*
X3341300Y-13707747D01*
X3356198Y-13868522D01*
X3415155Y-14075739D01*
X3511189Y-14268601D01*
X3618994Y-14411357D01*
X3641022Y-14440526D01*
X3800236Y-14585669D01*
X3983409Y-14699085D01*
X4184304Y-14776912D01*
X4396079Y-14816500D01*
X4611519Y-14816500D01*
X4611521Y-14816500D01*
X4823296Y-14776912D01*
X5024191Y-14699085D01*
X5207364Y-14585669D01*
X5366578Y-14440526D01*
X5496412Y-14268599D01*
X5592443Y-14075742D01*
X5651401Y-13868524D01*
X5659934Y-13776444D01*
X5666300Y-13707747D01*
X5666300Y-12953683D01*
X8649539Y-12953683D01*
X8659555Y-13138407D01*
X8709045Y-13316658D01*
X8795699Y-13480103D01*
X8858339Y-13553849D01*
X8915463Y-13621100D01*
X9062736Y-13733054D01*
X9230633Y-13810732D01*
X9366135Y-13840558D01*
X9411302Y-13850500D01*
X9411303Y-13850500D01*
X9549913Y-13850500D01*
X9549916Y-13850500D01*
X9653260Y-13839260D01*
X9687710Y-13835514D01*
X9776795Y-13805497D01*
X9863019Y-13776445D01*
X9863021Y-13776444D01*
X10021536Y-13681070D01*
X10155841Y-13553849D01*
X10259658Y-13400730D01*
X10328131Y-13228875D01*
X10358060Y-13046317D01*
X10348045Y-12861593D01*
X10298554Y-12683341D01*
X10211900Y-12519896D01*
X10092138Y-12378901D01*
X9944864Y-12266946D01*
X9776967Y-12189268D01*
X9776963Y-12189267D01*
X9596298Y-12149500D01*
X9596297Y-12149500D01*
X9457687Y-12149500D01*
X9457684Y-12149500D01*
X9319890Y-12164485D01*
X9144580Y-12223554D01*
X8986062Y-12318931D01*
X8851759Y-12446150D01*
X8747941Y-12599270D01*
X8679469Y-12771124D01*
X8649539Y-12953683D01*
X5666300Y-12953683D01*
X5666300Y-12292253D01*
X5651401Y-12131477D01*
X5592444Y-11924260D01*
X5591668Y-11922702D01*
X5496412Y-11731401D01*
X5388606Y-11588644D01*
X5366579Y-11559475D01*
X5293234Y-11492612D01*
X5207364Y-11414331D01*
X5124103Y-11362778D01*
X5024192Y-11300915D01*
X4823296Y-11223088D01*
X4611521Y-11183500D01*
X4396079Y-11183500D01*
X4254895Y-11209892D01*
X4184303Y-11223088D01*
X3983407Y-11300915D01*
X3800237Y-11414330D01*
X3641020Y-11559475D01*
X3511189Y-11731398D01*
X3415155Y-11924260D01*
X3356198Y-12131477D01*
X3341300Y-12292253D01*
X3341300Y-13707747D01*
X500Y-13707747D01*
X500Y-7111000D01*
X17381Y-7048000D01*
X63500Y-7001881D01*
X126500Y-6985000D01*
X4087251Y-6985000D01*
X4149857Y-7001654D01*
X4195912Y-7047214D01*
X4213244Y-7109635D01*
X4197269Y-7172418D01*
X4152210Y-7218964D01*
X3986064Y-7318929D01*
X3851759Y-7446150D01*
X3747941Y-7599270D01*
X3679469Y-7771124D01*
X3649539Y-7953683D01*
X3659555Y-8138407D01*
X3709045Y-8316658D01*
X3795699Y-8480103D01*
X3858339Y-8553849D01*
X3915463Y-8621100D01*
X4062736Y-8733054D01*
X4230633Y-8810732D01*
X4366135Y-8840558D01*
X4411302Y-8850500D01*
X4411303Y-8850500D01*
X4549913Y-8850500D01*
X4549916Y-8850500D01*
X4653260Y-8839260D01*
X4687710Y-8835514D01*
X4776795Y-8805497D01*
X4863019Y-8776445D01*
X4863021Y-8776444D01*
X5021536Y-8681070D01*
X5155841Y-8553849D01*
X5259658Y-8400730D01*
X5328131Y-8228875D01*
X5358060Y-8046317D01*
X5348045Y-7861593D01*
X5298554Y-7683341D01*
X5211900Y-7519896D01*
X5177678Y-7479607D01*
X5092138Y-7378901D01*
X4944864Y-7266946D01*
X4854964Y-7225353D01*
X4803583Y-7181710D01*
X4782057Y-7117822D01*
X4796549Y-7051981D01*
X4842912Y-7003036D01*
X4907872Y-6985000D01*
X7916680Y-6985000D01*
X7972843Y-6998209D01*
X8017230Y-7035068D01*
X8040535Y-7087848D01*
X8037870Y-7145482D01*
X8009795Y-7195886D01*
X7918130Y-7296437D01*
X7804715Y-7479607D01*
X7726888Y-7680503D01*
X7713691Y-7751095D01*
X7687300Y-7892279D01*
X7687300Y-8107721D01*
X7709948Y-8228875D01*
X7726888Y-8319496D01*
X7804715Y-8520392D01*
X7825431Y-8553849D01*
X7918131Y-8703564D01*
X8063274Y-8862778D01*
X8235201Y-8992612D01*
X8428058Y-9088643D01*
X8428060Y-9088643D01*
X8428061Y-9088644D01*
X8569231Y-9128810D01*
X8624665Y-9161731D01*
X8656557Y-9217764D01*
X8656557Y-9282236D01*
X8624665Y-9338269D01*
X8569231Y-9371190D01*
X8428061Y-9411355D01*
X8235198Y-9507389D01*
X8063275Y-9637220D01*
X7918130Y-9796437D01*
X7804715Y-9979607D01*
X7726888Y-10180503D01*
X7687300Y-10392281D01*
X7687300Y-10607719D01*
X7726888Y-10819496D01*
X7804715Y-11020392D01*
X7886606Y-11152649D01*
X7918131Y-11203564D01*
X8063274Y-11362778D01*
X8063275Y-11362779D01*
X8131540Y-11414331D01*
X8235201Y-11492612D01*
X8369479Y-11559474D01*
X8428060Y-11588644D01*
X8552873Y-11624155D01*
X8635276Y-11647601D01*
X8662072Y-11650084D01*
X8796053Y-11662500D01*
X8796058Y-11662500D01*
X10211542Y-11662500D01*
X10211547Y-11662500D01*
X10326386Y-11651857D01*
X10372324Y-11647601D01*
X10537128Y-11600710D01*
X10579539Y-11588644D01*
X10579539Y-11588643D01*
X10579542Y-11588643D01*
X10772399Y-11492612D01*
X10944326Y-11362778D01*
X11089469Y-11203564D01*
X11202885Y-11020391D01*
X11280712Y-10819496D01*
X11320300Y-10607721D01*
X11320300Y-10392279D01*
X11280712Y-10180504D01*
X11202885Y-9979609D01*
X11089469Y-9796436D01*
X10944326Y-9637222D01*
X10944325Y-9637221D01*
X10944324Y-9637220D01*
X10772401Y-9507389D01*
X10772399Y-9507388D01*
X10579542Y-9411357D01*
X10579539Y-9411356D01*
X10438368Y-9371190D01*
X10382934Y-9338269D01*
X10351043Y-9282236D01*
X10351043Y-9217764D01*
X10382934Y-9161731D01*
X10438368Y-9128810D01*
X10579542Y-9088643D01*
X10772399Y-8992612D01*
X10944326Y-8862778D01*
X11089469Y-8703564D01*
X11202885Y-8520391D01*
X11280712Y-8319496D01*
X11320300Y-8107721D01*
X11320300Y-7892279D01*
X11280712Y-7680504D01*
X11202885Y-7479609D01*
X11089469Y-7296436D01*
X10997804Y-7195884D01*
X10969730Y-7145482D01*
X10967065Y-7087848D01*
X10990370Y-7035068D01*
X11034757Y-6998209D01*
X11090920Y-6985000D01*
X11430000Y-6985000D01*
X11430000Y-126500D01*
X11446881Y-63500D01*
X11493000Y-17381D01*
X11556000Y-500D01*
X25348310Y-500D01*
X25396528Y-10091D01*
G37*
%TD.AperFunction*%
%TD*%
%TA.AperFunction,Conductor*%
%TO.N,GNDD*%
G36*
X17776028Y-59699591D02*
G01*
X17816905Y-59726905D01*
X19013095Y-60923095D01*
X19040409Y-60963972D01*
X19050000Y-61012190D01*
X19050000Y-62230000D01*
X27525400Y-62230000D01*
X27588400Y-62246881D01*
X27634519Y-62293000D01*
X27651400Y-62356000D01*
X27651400Y-99135652D01*
X27639504Y-99189096D01*
X27606063Y-99232447D01*
X26055072Y-100524940D01*
X25520645Y-100970296D01*
X25482876Y-100991974D01*
X25439982Y-100999500D01*
X6385005Y-100999500D01*
X6322399Y-100982846D01*
X6276344Y-100937286D01*
X6259012Y-100874865D01*
X6274987Y-100812082D01*
X6320046Y-100765536D01*
X6359135Y-100742016D01*
X6644693Y-100524939D01*
X6655496Y-100514706D01*
X4500001Y-98359210D01*
X4499999Y-98359210D01*
X2344502Y-100514706D01*
X2355307Y-100524940D01*
X2640863Y-100742016D01*
X2679954Y-100765536D01*
X2725013Y-100812082D01*
X2740988Y-100874865D01*
X2723656Y-100937286D01*
X2677601Y-100982846D01*
X2614995Y-100999500D01*
X1991691Y-100999500D01*
X1943473Y-100989909D01*
X1902596Y-100962595D01*
X37405Y-99097405D01*
X10091Y-99056528D01*
X500Y-99008310D01*
X500Y-98000000D01*
X1187140Y-98000000D01*
X1206561Y-98358183D01*
X1264593Y-98712166D01*
X1360557Y-99057797D01*
X1493331Y-99391032D01*
X1661352Y-99707955D01*
X1862655Y-100004854D01*
X1988168Y-100152620D01*
X4140789Y-98000001D01*
X4859210Y-98000001D01*
X7011831Y-100152620D01*
X7137344Y-100004854D01*
X7338647Y-99707955D01*
X7506668Y-99391032D01*
X7639442Y-99057797D01*
X7735406Y-98712166D01*
X7793438Y-98358183D01*
X7812859Y-97999999D01*
X7793438Y-97641816D01*
X7735406Y-97287833D01*
X7639442Y-96942202D01*
X7506668Y-96608967D01*
X7338647Y-96292044D01*
X7137341Y-95995140D01*
X7011831Y-95847377D01*
X4859210Y-97999999D01*
X4859210Y-98000001D01*
X4140789Y-98000001D01*
X4140789Y-97999999D01*
X1988167Y-95847377D01*
X1988166Y-95847378D01*
X1862658Y-95995139D01*
X1661352Y-96292044D01*
X1493331Y-96608967D01*
X1360557Y-96942202D01*
X1264593Y-97287833D01*
X1206561Y-97641816D01*
X1187140Y-98000000D01*
X500Y-98000000D01*
X500Y-95485292D01*
X2344502Y-95485292D01*
X4499999Y-97640789D01*
X4500001Y-97640789D01*
X6655496Y-95485292D01*
X6644692Y-95475059D01*
X6359139Y-95257986D01*
X6051766Y-95073046D01*
X5726217Y-94922431D01*
X5386284Y-94807894D01*
X5035959Y-94730782D01*
X4679358Y-94692000D01*
X4320642Y-94692000D01*
X3964040Y-94730782D01*
X3613715Y-94807894D01*
X3273782Y-94922431D01*
X2948233Y-95073046D01*
X2640860Y-95257986D01*
X2355303Y-95475062D01*
X2344502Y-95485292D01*
X500Y-95485292D01*
X500Y-90027088D01*
X7878852Y-90027088D01*
X8119816Y-90202159D01*
X8396365Y-90354193D01*
X8689789Y-90470367D01*
X8995448Y-90548848D01*
X9308538Y-90588400D01*
X9624124Y-90588400D01*
X9937213Y-90548848D01*
X10242872Y-90470367D01*
X10536296Y-90354193D01*
X10812845Y-90202159D01*
X11053808Y-90027088D01*
X11053808Y-90027086D01*
X9466332Y-88439610D01*
X9466330Y-88439610D01*
X7878852Y-90027086D01*
X7878852Y-90027088D01*
X500Y-90027088D01*
X500Y-88080399D01*
X6953371Y-88080399D01*
X6973186Y-88395355D01*
X7032320Y-88705344D01*
X7129842Y-89005484D01*
X7264208Y-89291028D01*
X7433302Y-89557478D01*
X7522373Y-89665145D01*
X7522374Y-89665146D01*
X9107121Y-88080401D01*
X9825541Y-88080401D01*
X11410286Y-89665146D01*
X11410287Y-89665145D01*
X11499358Y-89557478D01*
X11668453Y-89291027D01*
X11802819Y-89005484D01*
X11900341Y-88705344D01*
X11959475Y-88395355D01*
X11979290Y-88080400D01*
X11959475Y-87765444D01*
X11900341Y-87455455D01*
X11802819Y-87155315D01*
X11668453Y-86869771D01*
X11499359Y-86603321D01*
X11410287Y-86495653D01*
X11410286Y-86495652D01*
X9825541Y-88080399D01*
X9825541Y-88080401D01*
X9107121Y-88080401D01*
X9107121Y-88080399D01*
X7522374Y-86495652D01*
X7522373Y-86495652D01*
X7433301Y-86603322D01*
X7264208Y-86869771D01*
X7129842Y-87155315D01*
X7032320Y-87455455D01*
X6973186Y-87765444D01*
X6953371Y-88080399D01*
X500Y-88080399D01*
X500Y-86133712D01*
X7878852Y-86133712D01*
X9466330Y-87721190D01*
X9466332Y-87721190D01*
X11053808Y-86133712D01*
X11053808Y-86133710D01*
X10812845Y-85958640D01*
X10536296Y-85806606D01*
X10242872Y-85690432D01*
X9937213Y-85611951D01*
X9624124Y-85572400D01*
X9308538Y-85572400D01*
X8995448Y-85611951D01*
X8689789Y-85690432D01*
X8396365Y-85806606D01*
X8119813Y-85958642D01*
X7878852Y-86133709D01*
X7878852Y-86133712D01*
X500Y-86133712D01*
X500Y-82207500D01*
X10158441Y-82207500D01*
X10229828Y-82257485D01*
X10437260Y-82354213D01*
X10658331Y-82413448D01*
X10886331Y-82433395D01*
X11114330Y-82413448D01*
X11335401Y-82354213D01*
X11542829Y-82257487D01*
X11614219Y-82207499D01*
X11614219Y-82207497D01*
X10886332Y-81479610D01*
X10886331Y-81479610D01*
X10158441Y-82207498D01*
X10158441Y-82207500D01*
X500Y-82207500D01*
X500Y-81120400D01*
X9573335Y-81120400D01*
X9593282Y-81348399D01*
X9652517Y-81569470D01*
X9749243Y-81776897D01*
X9799231Y-81848287D01*
X10527120Y-81120401D01*
X11245541Y-81120401D01*
X11973428Y-81848288D01*
X11973430Y-81848288D01*
X12023418Y-81776898D01*
X12120144Y-81569470D01*
X12179379Y-81348399D01*
X12199326Y-81120400D01*
X12179379Y-80892400D01*
X12120144Y-80671329D01*
X12023416Y-80463897D01*
X11973431Y-80392510D01*
X11973429Y-80392510D01*
X11245541Y-81120400D01*
X11245541Y-81120401D01*
X10527120Y-81120401D01*
X10527121Y-81120400D01*
X10527121Y-81120399D01*
X9799231Y-80392509D01*
X9749244Y-80463899D01*
X9652517Y-80671329D01*
X9593282Y-80892400D01*
X9573335Y-81120400D01*
X500Y-81120400D01*
X500Y-79735400D01*
X6732833Y-79735400D01*
X6752788Y-79963487D01*
X6812046Y-80184643D01*
X6908808Y-80392150D01*
X7040135Y-80579703D01*
X7202027Y-80741595D01*
X7389580Y-80872922D01*
X7597087Y-80969684D01*
X7656346Y-80985562D01*
X7818244Y-81028943D01*
X8046331Y-81048898D01*
X8274418Y-81028943D01*
X8495574Y-80969684D01*
X8703080Y-80872923D01*
X8890631Y-80741598D01*
X9052529Y-80579700D01*
X9183854Y-80392149D01*
X9280615Y-80184643D01*
X9339874Y-79963487D01*
X9359829Y-79735400D01*
X9339874Y-79507313D01*
X9280615Y-79286157D01*
X9183854Y-79078651D01*
X9155570Y-79038258D01*
X9052526Y-78891096D01*
X8890634Y-78729204D01*
X8703081Y-78597877D01*
X8495574Y-78501115D01*
X8404835Y-78476802D01*
X8387310Y-78472106D01*
X8330827Y-78439495D01*
X8298215Y-78383011D01*
X8298215Y-78317789D01*
X8330827Y-78261305D01*
X8387310Y-78228693D01*
X8495574Y-78199684D01*
X8703080Y-78102923D01*
X8890631Y-77971598D01*
X9052529Y-77809700D01*
X9162512Y-77652627D01*
X9207544Y-77613137D01*
X9265724Y-77598900D01*
X9595211Y-77598900D01*
X9655816Y-77614432D01*
X9701478Y-77657200D01*
X9720941Y-77716659D01*
X9709406Y-77778150D01*
X9652046Y-77901157D01*
X9592788Y-78122312D01*
X9572833Y-78350400D01*
X9592788Y-78578487D01*
X9652046Y-78799643D01*
X9748808Y-79007150D01*
X9880135Y-79194703D01*
X10042027Y-79356595D01*
X10042030Y-79356597D01*
X10042031Y-79356598D01*
X10079867Y-79383091D01*
X10229580Y-79487922D01*
X10437087Y-79584684D01*
X10475296Y-79594922D01*
X10546316Y-79613951D01*
X10602799Y-79646562D01*
X10635411Y-79703046D01*
X10635411Y-79768269D01*
X10602800Y-79824753D01*
X10546316Y-79857364D01*
X10437264Y-79886584D01*
X10229830Y-79983313D01*
X10158440Y-80033300D01*
X10886330Y-80761190D01*
X10886331Y-80761190D01*
X11614219Y-80033299D01*
X11542828Y-79983312D01*
X11335402Y-79886587D01*
X11226345Y-79857365D01*
X11169861Y-79824753D01*
X11137250Y-79768269D01*
X11137250Y-79703046D01*
X11169862Y-79646562D01*
X11226343Y-79613952D01*
X11335574Y-79584684D01*
X11543080Y-79487923D01*
X11673949Y-79396287D01*
X11708332Y-79379332D01*
X11746221Y-79373500D01*
X14265006Y-79373500D01*
X14313224Y-79383091D01*
X14354101Y-79410405D01*
X14845247Y-79901551D01*
X14877858Y-79958034D01*
X14877859Y-80023256D01*
X14860857Y-80086710D01*
X14840902Y-80314799D01*
X14860857Y-80542887D01*
X14920115Y-80764043D01*
X15016877Y-80971550D01*
X15148204Y-81159103D01*
X15310096Y-81320995D01*
X15497649Y-81452322D01*
X15705156Y-81549084D01*
X15764414Y-81564962D01*
X15926313Y-81608343D01*
X16154400Y-81628298D01*
X16382487Y-81608343D01*
X16603643Y-81549084D01*
X16811149Y-81452323D01*
X16998700Y-81320998D01*
X17160598Y-81159100D01*
X17291923Y-80971549D01*
X17388684Y-80764043D01*
X17447943Y-80542887D01*
X17467898Y-80314800D01*
X17447943Y-80086713D01*
X17388684Y-79865557D01*
X17291923Y-79658051D01*
X17283878Y-79646562D01*
X17160595Y-79470496D01*
X16998703Y-79308604D01*
X16811150Y-79177277D01*
X16603643Y-79080515D01*
X16382487Y-79021257D01*
X16154400Y-79001302D01*
X15926310Y-79021257D01*
X15862857Y-79038259D01*
X15797635Y-79038258D01*
X15741152Y-79005647D01*
X15086844Y-78351339D01*
X15073771Y-78335021D01*
X15021948Y-78286356D01*
X15019136Y-78283631D01*
X14999370Y-78263865D01*
X14996175Y-78261386D01*
X14987153Y-78253681D01*
X14954920Y-78223413D01*
X14937167Y-78213653D01*
X14920641Y-78202797D01*
X14904641Y-78190386D01*
X14864066Y-78172828D01*
X14853404Y-78167604D01*
X14814663Y-78146305D01*
X14800913Y-78142775D01*
X14795037Y-78141266D01*
X14776331Y-78134862D01*
X14757745Y-78126819D01*
X14714075Y-78119902D01*
X14702453Y-78117495D01*
X14659630Y-78106500D01*
X14659629Y-78106500D01*
X14639376Y-78106500D01*
X14619666Y-78104949D01*
X14599657Y-78101779D01*
X14555639Y-78105941D01*
X14543781Y-78106500D01*
X12272320Y-78106500D01*
X12219070Y-78094695D01*
X12175798Y-78061491D01*
X12150613Y-78013111D01*
X12120615Y-77901156D01*
X12084360Y-77823408D01*
X12063255Y-77778149D01*
X12051721Y-77716659D01*
X12071184Y-77657200D01*
X12116846Y-77614432D01*
X12177451Y-77598900D01*
X15640006Y-77598900D01*
X15688224Y-77608491D01*
X15729101Y-77635805D01*
X17994847Y-79901552D01*
X18027458Y-79958035D01*
X18027459Y-80023257D01*
X18010457Y-80086710D01*
X17990502Y-80314799D01*
X18010457Y-80542887D01*
X18069715Y-80764043D01*
X18166477Y-80971550D01*
X18297804Y-81159103D01*
X18459696Y-81320995D01*
X18647249Y-81452322D01*
X18854756Y-81549084D01*
X18914014Y-81564962D01*
X19075913Y-81608343D01*
X19304000Y-81628298D01*
X19532087Y-81608343D01*
X19753243Y-81549084D01*
X19960749Y-81452323D01*
X20148300Y-81320998D01*
X20310198Y-81159100D01*
X20441523Y-80971549D01*
X20538284Y-80764043D01*
X20597543Y-80542887D01*
X20617498Y-80314800D01*
X20597543Y-80086713D01*
X20538284Y-79865557D01*
X20441523Y-79658051D01*
X20433478Y-79646562D01*
X20310195Y-79470496D01*
X20148303Y-79308604D01*
X19960750Y-79177277D01*
X19753243Y-79080515D01*
X19532087Y-79021257D01*
X19304000Y-79001302D01*
X19075910Y-79021257D01*
X19012456Y-79038259D01*
X18947234Y-79038258D01*
X18890751Y-79005647D01*
X17694807Y-77809703D01*
X16461844Y-76576739D01*
X16448771Y-76560421D01*
X16401633Y-76516156D01*
X16396948Y-76511756D01*
X16394137Y-76509032D01*
X16374370Y-76489265D01*
X16371175Y-76486786D01*
X16362153Y-76479081D01*
X16329920Y-76448813D01*
X16312167Y-76439053D01*
X16295641Y-76428197D01*
X16279641Y-76415786D01*
X16239066Y-76398228D01*
X16228404Y-76393004D01*
X16189663Y-76371705D01*
X16175913Y-76368175D01*
X16170037Y-76366666D01*
X16151331Y-76360262D01*
X16132745Y-76352219D01*
X16089075Y-76345302D01*
X16077453Y-76342895D01*
X16034630Y-76331900D01*
X16034629Y-76331900D01*
X16014376Y-76331900D01*
X15994666Y-76330349D01*
X15974657Y-76327179D01*
X15930639Y-76331341D01*
X15918781Y-76331900D01*
X12177451Y-76331900D01*
X12116846Y-76316368D01*
X12071184Y-76273600D01*
X12051721Y-76214141D01*
X12063256Y-76152650D01*
X12120615Y-76029642D01*
X12139489Y-75959204D01*
X12179874Y-75808487D01*
X12199829Y-75580400D01*
X12179874Y-75352313D01*
X12120615Y-75131157D01*
X12063255Y-75008149D01*
X12051721Y-74946659D01*
X12071184Y-74887200D01*
X12116846Y-74844432D01*
X12177451Y-74828900D01*
X15179547Y-74828900D01*
X15200335Y-74831195D01*
X15203307Y-74831101D01*
X15203309Y-74831102D01*
X15271385Y-74828962D01*
X15275345Y-74828900D01*
X15303252Y-74828900D01*
X15303256Y-74828900D01*
X15307265Y-74828393D01*
X15319099Y-74827461D01*
X15363289Y-74826073D01*
X15382738Y-74820421D01*
X15402098Y-74816412D01*
X15422197Y-74813874D01*
X15463315Y-74797593D01*
X15474517Y-74793757D01*
X15516993Y-74781418D01*
X15534439Y-74771099D01*
X15552180Y-74762409D01*
X15571017Y-74754952D01*
X15606792Y-74728958D01*
X15616703Y-74722448D01*
X15654762Y-74699942D01*
X15669091Y-74685612D01*
X15684119Y-74672777D01*
X15700507Y-74660872D01*
X15728703Y-74626786D01*
X15736672Y-74618030D01*
X18890753Y-71463949D01*
X18947235Y-71431339D01*
X19012457Y-71431339D01*
X19075913Y-71448343D01*
X19304000Y-71468298D01*
X19532087Y-71448343D01*
X19753243Y-71389084D01*
X19960749Y-71292323D01*
X20148300Y-71160998D01*
X20310198Y-70999100D01*
X20441523Y-70811549D01*
X20538284Y-70604043D01*
X20597543Y-70382887D01*
X20617498Y-70154800D01*
X20597543Y-69926713D01*
X20538284Y-69705557D01*
X20497351Y-69617776D01*
X20441522Y-69498049D01*
X20310195Y-69310496D01*
X20148303Y-69148604D01*
X19960750Y-69017277D01*
X19753243Y-68920515D01*
X19532087Y-68861257D01*
X19304000Y-68841302D01*
X19075912Y-68861257D01*
X18854756Y-68920515D01*
X18647249Y-69017277D01*
X18459696Y-69148604D01*
X18297804Y-69310496D01*
X18166477Y-69498049D01*
X18069715Y-69705556D01*
X18010457Y-69926712D01*
X18010457Y-69926713D01*
X17990502Y-70154800D01*
X17993679Y-70191115D01*
X18010457Y-70382887D01*
X18027459Y-70446340D01*
X18027459Y-70511562D01*
X17994847Y-70568046D01*
X15037900Y-73524995D01*
X14997023Y-73552309D01*
X14948805Y-73561900D01*
X12177451Y-73561900D01*
X12116846Y-73546368D01*
X12071184Y-73503600D01*
X12051721Y-73444141D01*
X12063256Y-73382650D01*
X12120615Y-73259642D01*
X12139489Y-73189204D01*
X12179874Y-73038487D01*
X12199829Y-72810400D01*
X12179874Y-72582313D01*
X12120615Y-72361157D01*
X12063255Y-72238149D01*
X12051721Y-72176659D01*
X12071184Y-72117200D01*
X12116846Y-72074432D01*
X12177451Y-72058900D01*
X14799947Y-72058900D01*
X14820735Y-72061195D01*
X14823707Y-72061101D01*
X14823709Y-72061102D01*
X14891785Y-72058962D01*
X14895745Y-72058900D01*
X14923652Y-72058900D01*
X14923656Y-72058900D01*
X14927665Y-72058393D01*
X14939499Y-72057461D01*
X14983689Y-72056073D01*
X15003138Y-72050421D01*
X15022498Y-72046412D01*
X15042597Y-72043874D01*
X15083715Y-72027593D01*
X15094917Y-72023757D01*
X15137393Y-72011418D01*
X15154839Y-72001099D01*
X15172580Y-71992409D01*
X15191417Y-71984952D01*
X15227192Y-71958958D01*
X15237103Y-71952448D01*
X15275162Y-71929942D01*
X15289491Y-71915612D01*
X15304519Y-71902777D01*
X15320907Y-71890872D01*
X15349098Y-71856793D01*
X15357068Y-71848034D01*
X15741154Y-71463949D01*
X15797636Y-71431340D01*
X15862858Y-71431340D01*
X15926313Y-71448343D01*
X16154400Y-71468298D01*
X16382487Y-71448343D01*
X16603643Y-71389084D01*
X16811149Y-71292323D01*
X16998700Y-71160998D01*
X17160598Y-70999100D01*
X17291923Y-70811549D01*
X17388684Y-70604043D01*
X17447943Y-70382887D01*
X17467898Y-70154800D01*
X17447943Y-69926713D01*
X17388684Y-69705557D01*
X17347751Y-69617776D01*
X17291922Y-69498049D01*
X17160595Y-69310496D01*
X16998703Y-69148604D01*
X16811150Y-69017277D01*
X16603643Y-68920515D01*
X16382487Y-68861257D01*
X16154400Y-68841302D01*
X15926312Y-68861257D01*
X15705156Y-68920515D01*
X15497649Y-69017277D01*
X15310096Y-69148604D01*
X15148204Y-69310496D01*
X15016877Y-69498049D01*
X14920115Y-69705556D01*
X14860857Y-69926712D01*
X14860857Y-69926713D01*
X14840902Y-70154800D01*
X14844079Y-70191115D01*
X14860857Y-70382887D01*
X14877859Y-70446340D01*
X14877859Y-70511562D01*
X14845248Y-70568046D01*
X14658300Y-70754995D01*
X14617422Y-70782309D01*
X14569204Y-70791900D01*
X12320831Y-70791900D01*
X12257831Y-70775019D01*
X12211712Y-70728900D01*
X12194831Y-70665900D01*
X12194831Y-69191762D01*
X12188320Y-69131199D01*
X12137220Y-68994196D01*
X12082064Y-68920516D01*
X12049592Y-68877138D01*
X11932536Y-68789511D01*
X11864033Y-68763961D01*
X11795532Y-68738411D01*
X11734969Y-68731900D01*
X10037693Y-68731900D01*
X9977130Y-68738411D01*
X9840125Y-68789511D01*
X9723069Y-68877138D01*
X9635442Y-68994194D01*
X9584342Y-69131199D01*
X9577831Y-69191762D01*
X9577831Y-69279880D01*
X9561604Y-69341734D01*
X9517102Y-69387656D01*
X9455789Y-69405817D01*
X9423333Y-69406838D01*
X9419375Y-69406900D01*
X9391473Y-69406900D01*
X9387465Y-69407406D01*
X9375644Y-69408336D01*
X9331439Y-69409725D01*
X9311982Y-69415378D01*
X9292632Y-69419386D01*
X9272533Y-69421925D01*
X9231424Y-69438202D01*
X9220196Y-69442046D01*
X9177739Y-69454381D01*
X9160295Y-69464697D01*
X9142548Y-69473390D01*
X9123715Y-69480846D01*
X9087942Y-69506837D01*
X9078024Y-69513351D01*
X9039970Y-69535857D01*
X9025643Y-69550183D01*
X9010614Y-69563018D01*
X8994225Y-69574925D01*
X8966037Y-69608998D01*
X8958049Y-69617776D01*
X8459576Y-70116248D01*
X8403092Y-70148859D01*
X8337871Y-70148859D01*
X8274418Y-70131857D01*
X8046331Y-70111902D01*
X7818243Y-70131857D01*
X7597087Y-70191115D01*
X7389580Y-70287877D01*
X7202027Y-70419204D01*
X7040135Y-70581096D01*
X6908808Y-70768649D01*
X6812046Y-70976156D01*
X6752788Y-71197312D01*
X6732833Y-71425400D01*
X6752788Y-71653487D01*
X6812046Y-71874643D01*
X6908808Y-72082150D01*
X7040135Y-72269703D01*
X7202027Y-72431595D01*
X7389580Y-72562922D01*
X7597087Y-72659684D01*
X7705350Y-72688693D01*
X7761835Y-72721305D01*
X7794446Y-72777789D01*
X7794446Y-72843011D01*
X7761835Y-72899495D01*
X7705350Y-72932107D01*
X7597087Y-72961115D01*
X7389580Y-73057877D01*
X7202027Y-73189204D01*
X7040135Y-73351096D01*
X6908808Y-73538649D01*
X6812046Y-73746156D01*
X6752788Y-73967312D01*
X6732833Y-74195400D01*
X6752788Y-74423487D01*
X6812046Y-74644643D01*
X6908808Y-74852150D01*
X7040135Y-75039703D01*
X7202027Y-75201595D01*
X7389580Y-75332922D01*
X7597087Y-75429684D01*
X7705350Y-75458693D01*
X7761835Y-75491305D01*
X7794446Y-75547789D01*
X7794446Y-75613011D01*
X7761835Y-75669495D01*
X7705350Y-75702107D01*
X7597087Y-75731115D01*
X7389580Y-75827877D01*
X7202027Y-75959204D01*
X7040135Y-76121096D01*
X6908808Y-76308649D01*
X6812046Y-76516156D01*
X6752788Y-76737312D01*
X6732833Y-76965399D01*
X6752788Y-77193487D01*
X6812046Y-77414643D01*
X6908808Y-77622150D01*
X7040135Y-77809703D01*
X7202027Y-77971595D01*
X7389580Y-78102922D01*
X7597087Y-78199684D01*
X7705350Y-78228693D01*
X7761835Y-78261305D01*
X7794446Y-78317789D01*
X7794446Y-78383011D01*
X7761835Y-78439495D01*
X7705350Y-78472107D01*
X7597087Y-78501115D01*
X7389580Y-78597877D01*
X7202027Y-78729204D01*
X7040135Y-78891096D01*
X6908808Y-79078649D01*
X6812046Y-79286156D01*
X6752788Y-79507312D01*
X6732833Y-79735400D01*
X500Y-79735400D01*
X500Y-65027088D01*
X7878852Y-65027088D01*
X8119816Y-65202159D01*
X8396365Y-65354193D01*
X8689789Y-65470367D01*
X8995448Y-65548848D01*
X9308538Y-65588400D01*
X9624124Y-65588400D01*
X9937213Y-65548848D01*
X10242872Y-65470367D01*
X10536296Y-65354193D01*
X10812845Y-65202159D01*
X11053808Y-65027088D01*
X11053808Y-65027086D01*
X9466332Y-63439610D01*
X9466330Y-63439610D01*
X7878852Y-65027086D01*
X7878852Y-65027088D01*
X500Y-65027088D01*
X500Y-63080400D01*
X6953371Y-63080400D01*
X6973186Y-63395355D01*
X7032320Y-63705344D01*
X7129842Y-64005484D01*
X7264208Y-64291028D01*
X7433302Y-64557478D01*
X7522373Y-64665145D01*
X7522374Y-64665146D01*
X9107121Y-63080401D01*
X9825541Y-63080401D01*
X11410286Y-64665146D01*
X11410287Y-64665145D01*
X11499358Y-64557478D01*
X11668453Y-64291027D01*
X11802819Y-64005484D01*
X11900341Y-63705344D01*
X11959475Y-63395355D01*
X11979290Y-63080400D01*
X11959475Y-62765444D01*
X11900341Y-62455455D01*
X11802819Y-62155315D01*
X11668453Y-61869771D01*
X11499359Y-61603321D01*
X11410287Y-61495653D01*
X11410286Y-61495652D01*
X9825541Y-63080399D01*
X9825541Y-63080401D01*
X9107121Y-63080401D01*
X9107121Y-63080399D01*
X7522374Y-61495652D01*
X7522373Y-61495652D01*
X7433301Y-61603322D01*
X7264208Y-61869771D01*
X7129842Y-62155315D01*
X7032320Y-62455455D01*
X6973186Y-62765444D01*
X6953371Y-63080400D01*
X500Y-63080400D01*
X500Y-61133712D01*
X7878852Y-61133712D01*
X9466330Y-62721190D01*
X9466332Y-62721190D01*
X11053808Y-61133712D01*
X11053808Y-61133710D01*
X10812845Y-60958640D01*
X10536296Y-60806606D01*
X10242872Y-60690432D01*
X9937213Y-60611951D01*
X9624124Y-60572400D01*
X9308538Y-60572400D01*
X8995448Y-60611951D01*
X8689789Y-60690432D01*
X8396365Y-60806606D01*
X8119813Y-60958642D01*
X7878852Y-61133709D01*
X7878852Y-61133712D01*
X500Y-61133712D01*
X500Y-59816000D01*
X17381Y-59753000D01*
X63500Y-59706881D01*
X126500Y-59690000D01*
X17727810Y-59690000D01*
X17776028Y-59699591D01*
G37*
%TD.AperFunction*%
%TD*%
M02*
