%TF.GenerationSoftware,KiCad,Pcbnew,(6.0.0)*%
%TF.CreationDate,2022-03-13T21:14:02-04:00*%
%TF.ProjectId,PCI bracket board,50434920-6272-4616-936b-657420626f61,rev?*%
%TF.SameCoordinates,Original*%
%TF.FileFunction,Soldermask,Bot*%
%TF.FilePolarity,Negative*%
%FSLAX46Y46*%
G04 Gerber Fmt 4.6, Leading zero omitted, Abs format (unit mm)*
G04 Created by KiCad (PCBNEW (6.0.0)) date 2022-03-13 21:14:02*
%MOMM*%
%LPD*%
G01*
G04 APERTURE LIST*
%ADD10C,1.200000*%
%ADD11O,1.308000X2.616000*%
%ADD12O,2.616000X1.308000*%
%ADD13R,1.700000X1.700000*%
%ADD14O,1.700000X1.700000*%
%ADD15C,4.000000*%
%ADD16R,1.600000X1.600000*%
%ADD17C,1.600000*%
%ADD18O,1.600000X1.600000*%
%ADD19C,3.200000*%
%ADD20C,5.600000*%
G04 APERTURE END LIST*
D10*
%TO.C,J4*%
X9503800Y-26000000D03*
X4503800Y-21000000D03*
X4503800Y-31000000D03*
D11*
X4503800Y-26000000D03*
D12*
X9503800Y-31000000D03*
X9503800Y-21000000D03*
X9503800Y-28500000D03*
X9503800Y-23500000D03*
%TD*%
D13*
%TO.C,J1*%
X21508800Y-60076000D03*
D14*
X21508800Y-57536000D03*
X24048800Y-60076000D03*
X24048800Y-57536000D03*
%TD*%
D15*
%TO.C,J7*%
X9466331Y-88080400D03*
X9466331Y-63080400D03*
D16*
X10886331Y-70040400D03*
D17*
X10886331Y-72810400D03*
X10886331Y-75580400D03*
X10886331Y-78350400D03*
X10886331Y-81120400D03*
X8046331Y-71425400D03*
X8046331Y-74195400D03*
X8046331Y-76965400D03*
X8046331Y-79735400D03*
%TD*%
%TO.C,AR1*%
X16154400Y-80314800D03*
D18*
X16154400Y-70154800D03*
%TD*%
D13*
%TO.C,W8*%
X15584400Y-23931800D03*
D14*
X18124400Y-23931800D03*
X15584400Y-26471800D03*
X18124400Y-26471800D03*
X15584400Y-29011800D03*
X18124400Y-29011800D03*
X15584400Y-31551800D03*
X18124400Y-31551800D03*
X15584400Y-34091800D03*
X18124400Y-34091800D03*
X15584400Y-36631800D03*
X18124400Y-36631800D03*
X15584400Y-39171800D03*
X18124400Y-39171800D03*
X15584400Y-41711800D03*
X18124400Y-41711800D03*
X15584400Y-44251800D03*
X18124400Y-44251800D03*
X15584400Y-46791800D03*
X18124400Y-46791800D03*
%TD*%
D10*
%TO.C,J3*%
X4503800Y-8000000D03*
X4503800Y-18000000D03*
X9503800Y-13000000D03*
D11*
X4503800Y-13000000D03*
D12*
X9503800Y-18000000D03*
X9503800Y-8000000D03*
X9503800Y-15500000D03*
X9503800Y-10500000D03*
%TD*%
D10*
%TO.C,J6*%
X4503800Y-47000000D03*
X9503800Y-52000000D03*
X4503800Y-57000000D03*
D11*
X4503800Y-52000000D03*
D12*
X9503800Y-57000000D03*
X9503800Y-47000000D03*
X9503800Y-54500000D03*
X9503800Y-49500000D03*
%TD*%
D17*
%TO.C,AR2*%
X19304000Y-80314800D03*
D18*
X19304000Y-70154800D03*
%TD*%
D19*
%TO.C,REF\u002A\u002A*%
X4500000Y-3000000D03*
%TD*%
D20*
%TO.C,REF\u002A\u002A*%
X4500000Y-98000000D03*
%TD*%
D10*
%TO.C,J5*%
X4503800Y-44000000D03*
X4503800Y-34000000D03*
X9503800Y-39000000D03*
D11*
X4503800Y-39000000D03*
D12*
X9503800Y-44000000D03*
X9503800Y-34000000D03*
X9503800Y-41500000D03*
X9503800Y-36500000D03*
%TD*%
M02*
