%TF.GenerationSoftware,KiCad,Pcbnew,7.0.1*%
%TF.CreationDate,2023-11-25T16:04:23-05:00*%
%TF.ProjectId,PCI bracket board,50434920-6272-4616-936b-657420626f61,rev?*%
%TF.SameCoordinates,Original*%
%TF.FileFunction,Drillmap*%
%TF.FilePolarity,Positive*%
%FSLAX45Y45*%
G04 Gerber Fmt 4.5, Leading zero omitted, Abs format (unit mm)*
G04 Created by KiCad (PCBNEW 7.0.1) date 2023-11-25 16:04:23*
%MOMM*%
%LPD*%
G01*
G04 APERTURE LIST*
%ADD10C,0.100000*%
%ADD11C,0.200000*%
%ADD12C,0.120000*%
%ADD13C,0.320000*%
G04 APERTURE END LIST*
D10*
X0Y-10100000D02*
X0Y0D01*
X2765190Y-10100000D02*
X0Y-10100000D01*
X2765190Y0D02*
X2765190Y-10100000D01*
X0Y0D02*
X2765190Y0D01*
D11*
D12*
X390380Y-740000D02*
X510380Y-860000D01*
X510380Y-740000D02*
X390380Y-860000D01*
X390380Y-1740000D02*
X510380Y-1860000D01*
X510380Y-1740000D02*
X390380Y-1860000D01*
X390380Y-2040000D02*
X510380Y-2160000D01*
X510380Y-2040000D02*
X390380Y-2160000D01*
X390380Y-3040000D02*
X510380Y-3160000D01*
X510380Y-3040000D02*
X390380Y-3160000D01*
X390380Y-3340000D02*
X510380Y-3460000D01*
X510380Y-3340000D02*
X390380Y-3460000D01*
X390380Y-4340000D02*
X510380Y-4460000D01*
X510380Y-4340000D02*
X390380Y-4460000D01*
X390380Y-4640000D02*
X510380Y-4760000D01*
X510380Y-4640000D02*
X390380Y-4760000D01*
X390380Y-5640000D02*
X510380Y-5760000D01*
X510380Y-5640000D02*
X390380Y-5760000D01*
X890380Y-1240000D02*
X1010380Y-1360000D01*
X1010380Y-1240000D02*
X890380Y-1360000D01*
X890380Y-2540000D02*
X1010380Y-2660000D01*
X1010380Y-2540000D02*
X890380Y-2660000D01*
X890380Y-3840000D02*
X1010380Y-3960000D01*
X1010380Y-3840000D02*
X890380Y-3960000D01*
X890380Y-5140000D02*
X1010380Y-5260000D01*
X1010380Y-5140000D02*
X890380Y-5260000D01*
D13*
X610000Y-300000D02*
G75*
G03*
X610000Y-300000I-160000J0D01*
G01*
D11*
X242619Y-10417524D02*
X242619Y-10217524D01*
X242619Y-10217524D02*
X290238Y-10217524D01*
X290238Y-10217524D02*
X318810Y-10227048D01*
X318810Y-10227048D02*
X337857Y-10246095D01*
X337857Y-10246095D02*
X347381Y-10265143D01*
X347381Y-10265143D02*
X356905Y-10303238D01*
X356905Y-10303238D02*
X356905Y-10331810D01*
X356905Y-10331810D02*
X347381Y-10369905D01*
X347381Y-10369905D02*
X337857Y-10388952D01*
X337857Y-10388952D02*
X318810Y-10408000D01*
X318810Y-10408000D02*
X290238Y-10417524D01*
X290238Y-10417524D02*
X242619Y-10417524D01*
X442619Y-10417524D02*
X442619Y-10284190D01*
X442619Y-10322286D02*
X452143Y-10303238D01*
X452143Y-10303238D02*
X461667Y-10293714D01*
X461667Y-10293714D02*
X480714Y-10284190D01*
X480714Y-10284190D02*
X499762Y-10284190D01*
X566429Y-10417524D02*
X566429Y-10284190D01*
X566429Y-10217524D02*
X556905Y-10227048D01*
X556905Y-10227048D02*
X566429Y-10236571D01*
X566429Y-10236571D02*
X575952Y-10227048D01*
X575952Y-10227048D02*
X566429Y-10217524D01*
X566429Y-10217524D02*
X566429Y-10236571D01*
X690238Y-10417524D02*
X671190Y-10408000D01*
X671190Y-10408000D02*
X661667Y-10388952D01*
X661667Y-10388952D02*
X661667Y-10217524D01*
X795000Y-10417524D02*
X775952Y-10408000D01*
X775952Y-10408000D02*
X766428Y-10388952D01*
X766428Y-10388952D02*
X766428Y-10217524D01*
X1023571Y-10417524D02*
X1023571Y-10217524D01*
X1023571Y-10217524D02*
X1090238Y-10360381D01*
X1090238Y-10360381D02*
X1156905Y-10217524D01*
X1156905Y-10217524D02*
X1156905Y-10417524D01*
X1337857Y-10417524D02*
X1337857Y-10312762D01*
X1337857Y-10312762D02*
X1328333Y-10293714D01*
X1328333Y-10293714D02*
X1309286Y-10284190D01*
X1309286Y-10284190D02*
X1271190Y-10284190D01*
X1271190Y-10284190D02*
X1252143Y-10293714D01*
X1337857Y-10408000D02*
X1318810Y-10417524D01*
X1318810Y-10417524D02*
X1271190Y-10417524D01*
X1271190Y-10417524D02*
X1252143Y-10408000D01*
X1252143Y-10408000D02*
X1242619Y-10388952D01*
X1242619Y-10388952D02*
X1242619Y-10369905D01*
X1242619Y-10369905D02*
X1252143Y-10350857D01*
X1252143Y-10350857D02*
X1271190Y-10341333D01*
X1271190Y-10341333D02*
X1318810Y-10341333D01*
X1318810Y-10341333D02*
X1337857Y-10331810D01*
X1433095Y-10284190D02*
X1433095Y-10484190D01*
X1433095Y-10293714D02*
X1452143Y-10284190D01*
X1452143Y-10284190D02*
X1490238Y-10284190D01*
X1490238Y-10284190D02*
X1509286Y-10293714D01*
X1509286Y-10293714D02*
X1518809Y-10303238D01*
X1518809Y-10303238D02*
X1528333Y-10322286D01*
X1528333Y-10322286D02*
X1528333Y-10379429D01*
X1528333Y-10379429D02*
X1518809Y-10398476D01*
X1518809Y-10398476D02*
X1509286Y-10408000D01*
X1509286Y-10408000D02*
X1490238Y-10417524D01*
X1490238Y-10417524D02*
X1452143Y-10417524D01*
X1452143Y-10417524D02*
X1433095Y-10408000D01*
X1614048Y-10398476D02*
X1623571Y-10408000D01*
X1623571Y-10408000D02*
X1614048Y-10417524D01*
X1614048Y-10417524D02*
X1604524Y-10408000D01*
X1604524Y-10408000D02*
X1614048Y-10398476D01*
X1614048Y-10398476D02*
X1614048Y-10417524D01*
X1614048Y-10293714D02*
X1623571Y-10303238D01*
X1623571Y-10303238D02*
X1614048Y-10312762D01*
X1614048Y-10312762D02*
X1604524Y-10303238D01*
X1604524Y-10303238D02*
X1614048Y-10293714D01*
X1614048Y-10293714D02*
X1614048Y-10312762D01*
D12*
X-125000Y-10685000D02*
X-5000Y-10805000D01*
X-5000Y-10685000D02*
X-125000Y-10805000D01*
D11*
X347381Y-10837524D02*
X233095Y-10837524D01*
X290238Y-10837524D02*
X290238Y-10637524D01*
X290238Y-10637524D02*
X271190Y-10666095D01*
X271190Y-10666095D02*
X252143Y-10685143D01*
X252143Y-10685143D02*
X233095Y-10694667D01*
X433095Y-10818476D02*
X442619Y-10828000D01*
X442619Y-10828000D02*
X433095Y-10837524D01*
X433095Y-10837524D02*
X423571Y-10828000D01*
X423571Y-10828000D02*
X433095Y-10818476D01*
X433095Y-10818476D02*
X433095Y-10837524D01*
X518809Y-10656571D02*
X528333Y-10647048D01*
X528333Y-10647048D02*
X547381Y-10637524D01*
X547381Y-10637524D02*
X595000Y-10637524D01*
X595000Y-10637524D02*
X614048Y-10647048D01*
X614048Y-10647048D02*
X623571Y-10656571D01*
X623571Y-10656571D02*
X633095Y-10675619D01*
X633095Y-10675619D02*
X633095Y-10694667D01*
X633095Y-10694667D02*
X623571Y-10723238D01*
X623571Y-10723238D02*
X509286Y-10837524D01*
X509286Y-10837524D02*
X633095Y-10837524D01*
X756905Y-10637524D02*
X775952Y-10637524D01*
X775952Y-10637524D02*
X795000Y-10647048D01*
X795000Y-10647048D02*
X804524Y-10656571D01*
X804524Y-10656571D02*
X814048Y-10675619D01*
X814048Y-10675619D02*
X823571Y-10713714D01*
X823571Y-10713714D02*
X823571Y-10761333D01*
X823571Y-10761333D02*
X814048Y-10799429D01*
X814048Y-10799429D02*
X804524Y-10818476D01*
X804524Y-10818476D02*
X795000Y-10828000D01*
X795000Y-10828000D02*
X775952Y-10837524D01*
X775952Y-10837524D02*
X756905Y-10837524D01*
X756905Y-10837524D02*
X737857Y-10828000D01*
X737857Y-10828000D02*
X728333Y-10818476D01*
X728333Y-10818476D02*
X718809Y-10799429D01*
X718809Y-10799429D02*
X709286Y-10761333D01*
X709286Y-10761333D02*
X709286Y-10713714D01*
X709286Y-10713714D02*
X718809Y-10675619D01*
X718809Y-10675619D02*
X728333Y-10656571D01*
X728333Y-10656571D02*
X737857Y-10647048D01*
X737857Y-10647048D02*
X756905Y-10637524D01*
X947381Y-10637524D02*
X966429Y-10637524D01*
X966429Y-10637524D02*
X985476Y-10647048D01*
X985476Y-10647048D02*
X995000Y-10656571D01*
X995000Y-10656571D02*
X1004524Y-10675619D01*
X1004524Y-10675619D02*
X1014048Y-10713714D01*
X1014048Y-10713714D02*
X1014048Y-10761333D01*
X1014048Y-10761333D02*
X1004524Y-10799429D01*
X1004524Y-10799429D02*
X995000Y-10818476D01*
X995000Y-10818476D02*
X985476Y-10828000D01*
X985476Y-10828000D02*
X966429Y-10837524D01*
X966429Y-10837524D02*
X947381Y-10837524D01*
X947381Y-10837524D02*
X928333Y-10828000D01*
X928333Y-10828000D02*
X918809Y-10818476D01*
X918809Y-10818476D02*
X909286Y-10799429D01*
X909286Y-10799429D02*
X899762Y-10761333D01*
X899762Y-10761333D02*
X899762Y-10713714D01*
X899762Y-10713714D02*
X909286Y-10675619D01*
X909286Y-10675619D02*
X918809Y-10656571D01*
X918809Y-10656571D02*
X928333Y-10647048D01*
X928333Y-10647048D02*
X947381Y-10637524D01*
X1099762Y-10837524D02*
X1099762Y-10704190D01*
X1099762Y-10723238D02*
X1109286Y-10713714D01*
X1109286Y-10713714D02*
X1128333Y-10704190D01*
X1128333Y-10704190D02*
X1156905Y-10704190D01*
X1156905Y-10704190D02*
X1175952Y-10713714D01*
X1175952Y-10713714D02*
X1185476Y-10732762D01*
X1185476Y-10732762D02*
X1185476Y-10837524D01*
X1185476Y-10732762D02*
X1195000Y-10713714D01*
X1195000Y-10713714D02*
X1214048Y-10704190D01*
X1214048Y-10704190D02*
X1242619Y-10704190D01*
X1242619Y-10704190D02*
X1261667Y-10713714D01*
X1261667Y-10713714D02*
X1271191Y-10732762D01*
X1271191Y-10732762D02*
X1271191Y-10837524D01*
X1366429Y-10837524D02*
X1366429Y-10704190D01*
X1366429Y-10723238D02*
X1375952Y-10713714D01*
X1375952Y-10713714D02*
X1395000Y-10704190D01*
X1395000Y-10704190D02*
X1423571Y-10704190D01*
X1423571Y-10704190D02*
X1442619Y-10713714D01*
X1442619Y-10713714D02*
X1452143Y-10732762D01*
X1452143Y-10732762D02*
X1452143Y-10837524D01*
X1452143Y-10732762D02*
X1461667Y-10713714D01*
X1461667Y-10713714D02*
X1480714Y-10704190D01*
X1480714Y-10704190D02*
X1509286Y-10704190D01*
X1509286Y-10704190D02*
X1528333Y-10713714D01*
X1528333Y-10713714D02*
X1537857Y-10732762D01*
X1537857Y-10732762D02*
X1537857Y-10837524D01*
X1928333Y-10628000D02*
X1756905Y-10885143D01*
X2185476Y-10637524D02*
X2204524Y-10637524D01*
X2204524Y-10637524D02*
X2223572Y-10647048D01*
X2223572Y-10647048D02*
X2233095Y-10656571D01*
X2233095Y-10656571D02*
X2242619Y-10675619D01*
X2242619Y-10675619D02*
X2252143Y-10713714D01*
X2252143Y-10713714D02*
X2252143Y-10761333D01*
X2252143Y-10761333D02*
X2242619Y-10799429D01*
X2242619Y-10799429D02*
X2233095Y-10818476D01*
X2233095Y-10818476D02*
X2223572Y-10828000D01*
X2223572Y-10828000D02*
X2204524Y-10837524D01*
X2204524Y-10837524D02*
X2185476Y-10837524D01*
X2185476Y-10837524D02*
X2166429Y-10828000D01*
X2166429Y-10828000D02*
X2156905Y-10818476D01*
X2156905Y-10818476D02*
X2147381Y-10799429D01*
X2147381Y-10799429D02*
X2137857Y-10761333D01*
X2137857Y-10761333D02*
X2137857Y-10713714D01*
X2137857Y-10713714D02*
X2147381Y-10675619D01*
X2147381Y-10675619D02*
X2156905Y-10656571D01*
X2156905Y-10656571D02*
X2166429Y-10647048D01*
X2166429Y-10647048D02*
X2185476Y-10637524D01*
X2337857Y-10818476D02*
X2347381Y-10828000D01*
X2347381Y-10828000D02*
X2337857Y-10837524D01*
X2337857Y-10837524D02*
X2328334Y-10828000D01*
X2328334Y-10828000D02*
X2337857Y-10818476D01*
X2337857Y-10818476D02*
X2337857Y-10837524D01*
X2471191Y-10637524D02*
X2490238Y-10637524D01*
X2490238Y-10637524D02*
X2509286Y-10647048D01*
X2509286Y-10647048D02*
X2518810Y-10656571D01*
X2518810Y-10656571D02*
X2528334Y-10675619D01*
X2528334Y-10675619D02*
X2537857Y-10713714D01*
X2537857Y-10713714D02*
X2537857Y-10761333D01*
X2537857Y-10761333D02*
X2528334Y-10799429D01*
X2528334Y-10799429D02*
X2518810Y-10818476D01*
X2518810Y-10818476D02*
X2509286Y-10828000D01*
X2509286Y-10828000D02*
X2490238Y-10837524D01*
X2490238Y-10837524D02*
X2471191Y-10837524D01*
X2471191Y-10837524D02*
X2452143Y-10828000D01*
X2452143Y-10828000D02*
X2442619Y-10818476D01*
X2442619Y-10818476D02*
X2433095Y-10799429D01*
X2433095Y-10799429D02*
X2423572Y-10761333D01*
X2423572Y-10761333D02*
X2423572Y-10713714D01*
X2423572Y-10713714D02*
X2433095Y-10675619D01*
X2433095Y-10675619D02*
X2442619Y-10656571D01*
X2442619Y-10656571D02*
X2452143Y-10647048D01*
X2452143Y-10647048D02*
X2471191Y-10637524D01*
X2709286Y-10704190D02*
X2709286Y-10837524D01*
X2661667Y-10628000D02*
X2614048Y-10770857D01*
X2614048Y-10770857D02*
X2737857Y-10770857D01*
X2795000Y-10637524D02*
X2928333Y-10637524D01*
X2928333Y-10637524D02*
X2842619Y-10837524D01*
X2995000Y-10656571D02*
X3004524Y-10647048D01*
X3004524Y-10647048D02*
X3023572Y-10637524D01*
X3023572Y-10637524D02*
X3071191Y-10637524D01*
X3071191Y-10637524D02*
X3090238Y-10647048D01*
X3090238Y-10647048D02*
X3099762Y-10656571D01*
X3099762Y-10656571D02*
X3109286Y-10675619D01*
X3109286Y-10675619D02*
X3109286Y-10694667D01*
X3109286Y-10694667D02*
X3099762Y-10723238D01*
X3099762Y-10723238D02*
X2985476Y-10837524D01*
X2985476Y-10837524D02*
X3109286Y-10837524D01*
X3185476Y-10637524D02*
X3185476Y-10675619D01*
X3261667Y-10637524D02*
X3261667Y-10675619D01*
X3556905Y-10913714D02*
X3547381Y-10904190D01*
X3547381Y-10904190D02*
X3528334Y-10875619D01*
X3528334Y-10875619D02*
X3518810Y-10856571D01*
X3518810Y-10856571D02*
X3509286Y-10828000D01*
X3509286Y-10828000D02*
X3499762Y-10780381D01*
X3499762Y-10780381D02*
X3499762Y-10742286D01*
X3499762Y-10742286D02*
X3509286Y-10694667D01*
X3509286Y-10694667D02*
X3518810Y-10666095D01*
X3518810Y-10666095D02*
X3528334Y-10647048D01*
X3528334Y-10647048D02*
X3547381Y-10618476D01*
X3547381Y-10618476D02*
X3556905Y-10608952D01*
X3737857Y-10837524D02*
X3623572Y-10837524D01*
X3680714Y-10837524D02*
X3680714Y-10637524D01*
X3680714Y-10637524D02*
X3661667Y-10666095D01*
X3661667Y-10666095D02*
X3642619Y-10685143D01*
X3642619Y-10685143D02*
X3623572Y-10694667D01*
X3814048Y-10656571D02*
X3823572Y-10647048D01*
X3823572Y-10647048D02*
X3842619Y-10637524D01*
X3842619Y-10637524D02*
X3890238Y-10637524D01*
X3890238Y-10637524D02*
X3909286Y-10647048D01*
X3909286Y-10647048D02*
X3918810Y-10656571D01*
X3918810Y-10656571D02*
X3928334Y-10675619D01*
X3928334Y-10675619D02*
X3928334Y-10694667D01*
X3928334Y-10694667D02*
X3918810Y-10723238D01*
X3918810Y-10723238D02*
X3804524Y-10837524D01*
X3804524Y-10837524D02*
X3928334Y-10837524D01*
X4166429Y-10837524D02*
X4166429Y-10637524D01*
X4252143Y-10837524D02*
X4252143Y-10732762D01*
X4252143Y-10732762D02*
X4242619Y-10713714D01*
X4242619Y-10713714D02*
X4223572Y-10704190D01*
X4223572Y-10704190D02*
X4195000Y-10704190D01*
X4195000Y-10704190D02*
X4175953Y-10713714D01*
X4175953Y-10713714D02*
X4166429Y-10723238D01*
X4375953Y-10837524D02*
X4356905Y-10828000D01*
X4356905Y-10828000D02*
X4347381Y-10818476D01*
X4347381Y-10818476D02*
X4337858Y-10799429D01*
X4337858Y-10799429D02*
X4337858Y-10742286D01*
X4337858Y-10742286D02*
X4347381Y-10723238D01*
X4347381Y-10723238D02*
X4356905Y-10713714D01*
X4356905Y-10713714D02*
X4375953Y-10704190D01*
X4375953Y-10704190D02*
X4404524Y-10704190D01*
X4404524Y-10704190D02*
X4423572Y-10713714D01*
X4423572Y-10713714D02*
X4433096Y-10723238D01*
X4433096Y-10723238D02*
X4442619Y-10742286D01*
X4442619Y-10742286D02*
X4442619Y-10799429D01*
X4442619Y-10799429D02*
X4433096Y-10818476D01*
X4433096Y-10818476D02*
X4423572Y-10828000D01*
X4423572Y-10828000D02*
X4404524Y-10837524D01*
X4404524Y-10837524D02*
X4375953Y-10837524D01*
X4556905Y-10837524D02*
X4537858Y-10828000D01*
X4537858Y-10828000D02*
X4528334Y-10808952D01*
X4528334Y-10808952D02*
X4528334Y-10637524D01*
X4709286Y-10828000D02*
X4690239Y-10837524D01*
X4690239Y-10837524D02*
X4652143Y-10837524D01*
X4652143Y-10837524D02*
X4633096Y-10828000D01*
X4633096Y-10828000D02*
X4623572Y-10808952D01*
X4623572Y-10808952D02*
X4623572Y-10732762D01*
X4623572Y-10732762D02*
X4633096Y-10713714D01*
X4633096Y-10713714D02*
X4652143Y-10704190D01*
X4652143Y-10704190D02*
X4690239Y-10704190D01*
X4690239Y-10704190D02*
X4709286Y-10713714D01*
X4709286Y-10713714D02*
X4718810Y-10732762D01*
X4718810Y-10732762D02*
X4718810Y-10751810D01*
X4718810Y-10751810D02*
X4623572Y-10770857D01*
X4795000Y-10828000D02*
X4814048Y-10837524D01*
X4814048Y-10837524D02*
X4852143Y-10837524D01*
X4852143Y-10837524D02*
X4871191Y-10828000D01*
X4871191Y-10828000D02*
X4880715Y-10808952D01*
X4880715Y-10808952D02*
X4880715Y-10799429D01*
X4880715Y-10799429D02*
X4871191Y-10780381D01*
X4871191Y-10780381D02*
X4852143Y-10770857D01*
X4852143Y-10770857D02*
X4823572Y-10770857D01*
X4823572Y-10770857D02*
X4804524Y-10761333D01*
X4804524Y-10761333D02*
X4795000Y-10742286D01*
X4795000Y-10742286D02*
X4795000Y-10732762D01*
X4795000Y-10732762D02*
X4804524Y-10713714D01*
X4804524Y-10713714D02*
X4823572Y-10704190D01*
X4823572Y-10704190D02*
X4852143Y-10704190D01*
X4852143Y-10704190D02*
X4871191Y-10713714D01*
X4947381Y-10913714D02*
X4956905Y-10904190D01*
X4956905Y-10904190D02*
X4975953Y-10875619D01*
X4975953Y-10875619D02*
X4985477Y-10856571D01*
X4985477Y-10856571D02*
X4995000Y-10828000D01*
X4995000Y-10828000D02*
X5004524Y-10780381D01*
X5004524Y-10780381D02*
X5004524Y-10742286D01*
X5004524Y-10742286D02*
X4995000Y-10694667D01*
X4995000Y-10694667D02*
X4985477Y-10666095D01*
X4985477Y-10666095D02*
X4975953Y-10647048D01*
X4975953Y-10647048D02*
X4956905Y-10618476D01*
X4956905Y-10618476D02*
X4947381Y-10608952D01*
X5309286Y-10913714D02*
X5299762Y-10904190D01*
X5299762Y-10904190D02*
X5280715Y-10875619D01*
X5280715Y-10875619D02*
X5271191Y-10856571D01*
X5271191Y-10856571D02*
X5261667Y-10828000D01*
X5261667Y-10828000D02*
X5252143Y-10780381D01*
X5252143Y-10780381D02*
X5252143Y-10742286D01*
X5252143Y-10742286D02*
X5261667Y-10694667D01*
X5261667Y-10694667D02*
X5271191Y-10666095D01*
X5271191Y-10666095D02*
X5280715Y-10647048D01*
X5280715Y-10647048D02*
X5299762Y-10618476D01*
X5299762Y-10618476D02*
X5309286Y-10608952D01*
X5385477Y-10704190D02*
X5385477Y-10837524D01*
X5385477Y-10723238D02*
X5395000Y-10713714D01*
X5395000Y-10713714D02*
X5414048Y-10704190D01*
X5414048Y-10704190D02*
X5442620Y-10704190D01*
X5442620Y-10704190D02*
X5461667Y-10713714D01*
X5461667Y-10713714D02*
X5471191Y-10732762D01*
X5471191Y-10732762D02*
X5471191Y-10837524D01*
X5595000Y-10837524D02*
X5575953Y-10828000D01*
X5575953Y-10828000D02*
X5566429Y-10818476D01*
X5566429Y-10818476D02*
X5556905Y-10799429D01*
X5556905Y-10799429D02*
X5556905Y-10742286D01*
X5556905Y-10742286D02*
X5566429Y-10723238D01*
X5566429Y-10723238D02*
X5575953Y-10713714D01*
X5575953Y-10713714D02*
X5595000Y-10704190D01*
X5595000Y-10704190D02*
X5623572Y-10704190D01*
X5623572Y-10704190D02*
X5642619Y-10713714D01*
X5642619Y-10713714D02*
X5652143Y-10723238D01*
X5652143Y-10723238D02*
X5661667Y-10742286D01*
X5661667Y-10742286D02*
X5661667Y-10799429D01*
X5661667Y-10799429D02*
X5652143Y-10818476D01*
X5652143Y-10818476D02*
X5642619Y-10828000D01*
X5642619Y-10828000D02*
X5623572Y-10837524D01*
X5623572Y-10837524D02*
X5595000Y-10837524D01*
X5718810Y-10704190D02*
X5795000Y-10704190D01*
X5747381Y-10637524D02*
X5747381Y-10808952D01*
X5747381Y-10808952D02*
X5756905Y-10828000D01*
X5756905Y-10828000D02*
X5775953Y-10837524D01*
X5775953Y-10837524D02*
X5795000Y-10837524D01*
X6014048Y-10704190D02*
X6014048Y-10904190D01*
X6014048Y-10713714D02*
X6033096Y-10704190D01*
X6033096Y-10704190D02*
X6071191Y-10704190D01*
X6071191Y-10704190D02*
X6090239Y-10713714D01*
X6090239Y-10713714D02*
X6099762Y-10723238D01*
X6099762Y-10723238D02*
X6109286Y-10742286D01*
X6109286Y-10742286D02*
X6109286Y-10799429D01*
X6109286Y-10799429D02*
X6099762Y-10818476D01*
X6099762Y-10818476D02*
X6090239Y-10828000D01*
X6090239Y-10828000D02*
X6071191Y-10837524D01*
X6071191Y-10837524D02*
X6033096Y-10837524D01*
X6033096Y-10837524D02*
X6014048Y-10828000D01*
X6223572Y-10837524D02*
X6204524Y-10828000D01*
X6204524Y-10828000D02*
X6195000Y-10808952D01*
X6195000Y-10808952D02*
X6195000Y-10637524D01*
X6385477Y-10837524D02*
X6385477Y-10732762D01*
X6385477Y-10732762D02*
X6375953Y-10713714D01*
X6375953Y-10713714D02*
X6356905Y-10704190D01*
X6356905Y-10704190D02*
X6318810Y-10704190D01*
X6318810Y-10704190D02*
X6299762Y-10713714D01*
X6385477Y-10828000D02*
X6366429Y-10837524D01*
X6366429Y-10837524D02*
X6318810Y-10837524D01*
X6318810Y-10837524D02*
X6299762Y-10828000D01*
X6299762Y-10828000D02*
X6290239Y-10808952D01*
X6290239Y-10808952D02*
X6290239Y-10789905D01*
X6290239Y-10789905D02*
X6299762Y-10770857D01*
X6299762Y-10770857D02*
X6318810Y-10761333D01*
X6318810Y-10761333D02*
X6366429Y-10761333D01*
X6366429Y-10761333D02*
X6385477Y-10751810D01*
X6452143Y-10704190D02*
X6528334Y-10704190D01*
X6480715Y-10637524D02*
X6480715Y-10808952D01*
X6480715Y-10808952D02*
X6490239Y-10828000D01*
X6490239Y-10828000D02*
X6509286Y-10837524D01*
X6509286Y-10837524D02*
X6528334Y-10837524D01*
X6671191Y-10828000D02*
X6652143Y-10837524D01*
X6652143Y-10837524D02*
X6614048Y-10837524D01*
X6614048Y-10837524D02*
X6595000Y-10828000D01*
X6595000Y-10828000D02*
X6585477Y-10808952D01*
X6585477Y-10808952D02*
X6585477Y-10732762D01*
X6585477Y-10732762D02*
X6595000Y-10713714D01*
X6595000Y-10713714D02*
X6614048Y-10704190D01*
X6614048Y-10704190D02*
X6652143Y-10704190D01*
X6652143Y-10704190D02*
X6671191Y-10713714D01*
X6671191Y-10713714D02*
X6680715Y-10732762D01*
X6680715Y-10732762D02*
X6680715Y-10751810D01*
X6680715Y-10751810D02*
X6585477Y-10770857D01*
X6852143Y-10837524D02*
X6852143Y-10637524D01*
X6852143Y-10828000D02*
X6833096Y-10837524D01*
X6833096Y-10837524D02*
X6795000Y-10837524D01*
X6795000Y-10837524D02*
X6775953Y-10828000D01*
X6775953Y-10828000D02*
X6766429Y-10818476D01*
X6766429Y-10818476D02*
X6756905Y-10799429D01*
X6756905Y-10799429D02*
X6756905Y-10742286D01*
X6756905Y-10742286D02*
X6766429Y-10723238D01*
X6766429Y-10723238D02*
X6775953Y-10713714D01*
X6775953Y-10713714D02*
X6795000Y-10704190D01*
X6795000Y-10704190D02*
X6833096Y-10704190D01*
X6833096Y-10704190D02*
X6852143Y-10713714D01*
X6928334Y-10913714D02*
X6937858Y-10904190D01*
X6937858Y-10904190D02*
X6956905Y-10875619D01*
X6956905Y-10875619D02*
X6966429Y-10856571D01*
X6966429Y-10856571D02*
X6975953Y-10828000D01*
X6975953Y-10828000D02*
X6985477Y-10780381D01*
X6985477Y-10780381D02*
X6985477Y-10742286D01*
X6985477Y-10742286D02*
X6975953Y-10694667D01*
X6975953Y-10694667D02*
X6966429Y-10666095D01*
X6966429Y-10666095D02*
X6956905Y-10647048D01*
X6956905Y-10647048D02*
X6937858Y-10618476D01*
X6937858Y-10618476D02*
X6928334Y-10608952D01*
X-5000Y-11009000D02*
G75*
G03*
X-5000Y-11009000I-100000J0D01*
G01*
X223571Y-10901524D02*
X347381Y-10901524D01*
X347381Y-10901524D02*
X280714Y-10977714D01*
X280714Y-10977714D02*
X309286Y-10977714D01*
X309286Y-10977714D02*
X328333Y-10987238D01*
X328333Y-10987238D02*
X337857Y-10996762D01*
X337857Y-10996762D02*
X347381Y-11015810D01*
X347381Y-11015810D02*
X347381Y-11063429D01*
X347381Y-11063429D02*
X337857Y-11082476D01*
X337857Y-11082476D02*
X328333Y-11092000D01*
X328333Y-11092000D02*
X309286Y-11101524D01*
X309286Y-11101524D02*
X252143Y-11101524D01*
X252143Y-11101524D02*
X233095Y-11092000D01*
X233095Y-11092000D02*
X223571Y-11082476D01*
X433095Y-11082476D02*
X442619Y-11092000D01*
X442619Y-11092000D02*
X433095Y-11101524D01*
X433095Y-11101524D02*
X423571Y-11092000D01*
X423571Y-11092000D02*
X433095Y-11082476D01*
X433095Y-11082476D02*
X433095Y-11101524D01*
X518809Y-10920571D02*
X528333Y-10911048D01*
X528333Y-10911048D02*
X547381Y-10901524D01*
X547381Y-10901524D02*
X595000Y-10901524D01*
X595000Y-10901524D02*
X614048Y-10911048D01*
X614048Y-10911048D02*
X623571Y-10920571D01*
X623571Y-10920571D02*
X633095Y-10939619D01*
X633095Y-10939619D02*
X633095Y-10958667D01*
X633095Y-10958667D02*
X623571Y-10987238D01*
X623571Y-10987238D02*
X509286Y-11101524D01*
X509286Y-11101524D02*
X633095Y-11101524D01*
X756905Y-10901524D02*
X775952Y-10901524D01*
X775952Y-10901524D02*
X795000Y-10911048D01*
X795000Y-10911048D02*
X804524Y-10920571D01*
X804524Y-10920571D02*
X814048Y-10939619D01*
X814048Y-10939619D02*
X823571Y-10977714D01*
X823571Y-10977714D02*
X823571Y-11025333D01*
X823571Y-11025333D02*
X814048Y-11063429D01*
X814048Y-11063429D02*
X804524Y-11082476D01*
X804524Y-11082476D02*
X795000Y-11092000D01*
X795000Y-11092000D02*
X775952Y-11101524D01*
X775952Y-11101524D02*
X756905Y-11101524D01*
X756905Y-11101524D02*
X737857Y-11092000D01*
X737857Y-11092000D02*
X728333Y-11082476D01*
X728333Y-11082476D02*
X718809Y-11063429D01*
X718809Y-11063429D02*
X709286Y-11025333D01*
X709286Y-11025333D02*
X709286Y-10977714D01*
X709286Y-10977714D02*
X718809Y-10939619D01*
X718809Y-10939619D02*
X728333Y-10920571D01*
X728333Y-10920571D02*
X737857Y-10911048D01*
X737857Y-10911048D02*
X756905Y-10901524D01*
X947381Y-10901524D02*
X966429Y-10901524D01*
X966429Y-10901524D02*
X985476Y-10911048D01*
X985476Y-10911048D02*
X995000Y-10920571D01*
X995000Y-10920571D02*
X1004524Y-10939619D01*
X1004524Y-10939619D02*
X1014048Y-10977714D01*
X1014048Y-10977714D02*
X1014048Y-11025333D01*
X1014048Y-11025333D02*
X1004524Y-11063429D01*
X1004524Y-11063429D02*
X995000Y-11082476D01*
X995000Y-11082476D02*
X985476Y-11092000D01*
X985476Y-11092000D02*
X966429Y-11101524D01*
X966429Y-11101524D02*
X947381Y-11101524D01*
X947381Y-11101524D02*
X928333Y-11092000D01*
X928333Y-11092000D02*
X918809Y-11082476D01*
X918809Y-11082476D02*
X909286Y-11063429D01*
X909286Y-11063429D02*
X899762Y-11025333D01*
X899762Y-11025333D02*
X899762Y-10977714D01*
X899762Y-10977714D02*
X909286Y-10939619D01*
X909286Y-10939619D02*
X918809Y-10920571D01*
X918809Y-10920571D02*
X928333Y-10911048D01*
X928333Y-10911048D02*
X947381Y-10901524D01*
X1099762Y-11101524D02*
X1099762Y-10968190D01*
X1099762Y-10987238D02*
X1109286Y-10977714D01*
X1109286Y-10977714D02*
X1128333Y-10968190D01*
X1128333Y-10968190D02*
X1156905Y-10968190D01*
X1156905Y-10968190D02*
X1175952Y-10977714D01*
X1175952Y-10977714D02*
X1185476Y-10996762D01*
X1185476Y-10996762D02*
X1185476Y-11101524D01*
X1185476Y-10996762D02*
X1195000Y-10977714D01*
X1195000Y-10977714D02*
X1214048Y-10968190D01*
X1214048Y-10968190D02*
X1242619Y-10968190D01*
X1242619Y-10968190D02*
X1261667Y-10977714D01*
X1261667Y-10977714D02*
X1271191Y-10996762D01*
X1271191Y-10996762D02*
X1271191Y-11101524D01*
X1366429Y-11101524D02*
X1366429Y-10968190D01*
X1366429Y-10987238D02*
X1375952Y-10977714D01*
X1375952Y-10977714D02*
X1395000Y-10968190D01*
X1395000Y-10968190D02*
X1423571Y-10968190D01*
X1423571Y-10968190D02*
X1442619Y-10977714D01*
X1442619Y-10977714D02*
X1452143Y-10996762D01*
X1452143Y-10996762D02*
X1452143Y-11101524D01*
X1452143Y-10996762D02*
X1461667Y-10977714D01*
X1461667Y-10977714D02*
X1480714Y-10968190D01*
X1480714Y-10968190D02*
X1509286Y-10968190D01*
X1509286Y-10968190D02*
X1528333Y-10977714D01*
X1528333Y-10977714D02*
X1537857Y-10996762D01*
X1537857Y-10996762D02*
X1537857Y-11101524D01*
X1928333Y-10892000D02*
X1756905Y-11149143D01*
X2185476Y-10901524D02*
X2204524Y-10901524D01*
X2204524Y-10901524D02*
X2223572Y-10911048D01*
X2223572Y-10911048D02*
X2233095Y-10920571D01*
X2233095Y-10920571D02*
X2242619Y-10939619D01*
X2242619Y-10939619D02*
X2252143Y-10977714D01*
X2252143Y-10977714D02*
X2252143Y-11025333D01*
X2252143Y-11025333D02*
X2242619Y-11063429D01*
X2242619Y-11063429D02*
X2233095Y-11082476D01*
X2233095Y-11082476D02*
X2223572Y-11092000D01*
X2223572Y-11092000D02*
X2204524Y-11101524D01*
X2204524Y-11101524D02*
X2185476Y-11101524D01*
X2185476Y-11101524D02*
X2166429Y-11092000D01*
X2166429Y-11092000D02*
X2156905Y-11082476D01*
X2156905Y-11082476D02*
X2147381Y-11063429D01*
X2147381Y-11063429D02*
X2137857Y-11025333D01*
X2137857Y-11025333D02*
X2137857Y-10977714D01*
X2137857Y-10977714D02*
X2147381Y-10939619D01*
X2147381Y-10939619D02*
X2156905Y-10920571D01*
X2156905Y-10920571D02*
X2166429Y-10911048D01*
X2166429Y-10911048D02*
X2185476Y-10901524D01*
X2337857Y-11082476D02*
X2347381Y-11092000D01*
X2347381Y-11092000D02*
X2337857Y-11101524D01*
X2337857Y-11101524D02*
X2328334Y-11092000D01*
X2328334Y-11092000D02*
X2337857Y-11082476D01*
X2337857Y-11082476D02*
X2337857Y-11101524D01*
X2537857Y-11101524D02*
X2423572Y-11101524D01*
X2480714Y-11101524D02*
X2480714Y-10901524D01*
X2480714Y-10901524D02*
X2461667Y-10930095D01*
X2461667Y-10930095D02*
X2442619Y-10949143D01*
X2442619Y-10949143D02*
X2423572Y-10958667D01*
X2614048Y-10920571D02*
X2623572Y-10911048D01*
X2623572Y-10911048D02*
X2642619Y-10901524D01*
X2642619Y-10901524D02*
X2690238Y-10901524D01*
X2690238Y-10901524D02*
X2709286Y-10911048D01*
X2709286Y-10911048D02*
X2718810Y-10920571D01*
X2718810Y-10920571D02*
X2728334Y-10939619D01*
X2728334Y-10939619D02*
X2728334Y-10958667D01*
X2728334Y-10958667D02*
X2718810Y-10987238D01*
X2718810Y-10987238D02*
X2604524Y-11101524D01*
X2604524Y-11101524D02*
X2728334Y-11101524D01*
X2899762Y-10901524D02*
X2861667Y-10901524D01*
X2861667Y-10901524D02*
X2842619Y-10911048D01*
X2842619Y-10911048D02*
X2833095Y-10920571D01*
X2833095Y-10920571D02*
X2814048Y-10949143D01*
X2814048Y-10949143D02*
X2804524Y-10987238D01*
X2804524Y-10987238D02*
X2804524Y-11063429D01*
X2804524Y-11063429D02*
X2814048Y-11082476D01*
X2814048Y-11082476D02*
X2823572Y-11092000D01*
X2823572Y-11092000D02*
X2842619Y-11101524D01*
X2842619Y-11101524D02*
X2880714Y-11101524D01*
X2880714Y-11101524D02*
X2899762Y-11092000D01*
X2899762Y-11092000D02*
X2909286Y-11082476D01*
X2909286Y-11082476D02*
X2918810Y-11063429D01*
X2918810Y-11063429D02*
X2918810Y-11015810D01*
X2918810Y-11015810D02*
X2909286Y-10996762D01*
X2909286Y-10996762D02*
X2899762Y-10987238D01*
X2899762Y-10987238D02*
X2880714Y-10977714D01*
X2880714Y-10977714D02*
X2842619Y-10977714D01*
X2842619Y-10977714D02*
X2823572Y-10987238D01*
X2823572Y-10987238D02*
X2814048Y-10996762D01*
X2814048Y-10996762D02*
X2804524Y-11015810D01*
X3042619Y-10901524D02*
X3061667Y-10901524D01*
X3061667Y-10901524D02*
X3080714Y-10911048D01*
X3080714Y-10911048D02*
X3090238Y-10920571D01*
X3090238Y-10920571D02*
X3099762Y-10939619D01*
X3099762Y-10939619D02*
X3109286Y-10977714D01*
X3109286Y-10977714D02*
X3109286Y-11025333D01*
X3109286Y-11025333D02*
X3099762Y-11063429D01*
X3099762Y-11063429D02*
X3090238Y-11082476D01*
X3090238Y-11082476D02*
X3080714Y-11092000D01*
X3080714Y-11092000D02*
X3061667Y-11101524D01*
X3061667Y-11101524D02*
X3042619Y-11101524D01*
X3042619Y-11101524D02*
X3023572Y-11092000D01*
X3023572Y-11092000D02*
X3014048Y-11082476D01*
X3014048Y-11082476D02*
X3004524Y-11063429D01*
X3004524Y-11063429D02*
X2995000Y-11025333D01*
X2995000Y-11025333D02*
X2995000Y-10977714D01*
X2995000Y-10977714D02*
X3004524Y-10939619D01*
X3004524Y-10939619D02*
X3014048Y-10920571D01*
X3014048Y-10920571D02*
X3023572Y-10911048D01*
X3023572Y-10911048D02*
X3042619Y-10901524D01*
X3185476Y-10901524D02*
X3185476Y-10939619D01*
X3261667Y-10901524D02*
X3261667Y-10939619D01*
X3556905Y-11177714D02*
X3547381Y-11168190D01*
X3547381Y-11168190D02*
X3528334Y-11139619D01*
X3528334Y-11139619D02*
X3518810Y-11120571D01*
X3518810Y-11120571D02*
X3509286Y-11092000D01*
X3509286Y-11092000D02*
X3499762Y-11044381D01*
X3499762Y-11044381D02*
X3499762Y-11006286D01*
X3499762Y-11006286D02*
X3509286Y-10958667D01*
X3509286Y-10958667D02*
X3518810Y-10930095D01*
X3518810Y-10930095D02*
X3528334Y-10911048D01*
X3528334Y-10911048D02*
X3547381Y-10882476D01*
X3547381Y-10882476D02*
X3556905Y-10872952D01*
X3737857Y-11101524D02*
X3623572Y-11101524D01*
X3680714Y-11101524D02*
X3680714Y-10901524D01*
X3680714Y-10901524D02*
X3661667Y-10930095D01*
X3661667Y-10930095D02*
X3642619Y-10949143D01*
X3642619Y-10949143D02*
X3623572Y-10958667D01*
X3975953Y-11101524D02*
X3975953Y-10901524D01*
X4061667Y-11101524D02*
X4061667Y-10996762D01*
X4061667Y-10996762D02*
X4052143Y-10977714D01*
X4052143Y-10977714D02*
X4033096Y-10968190D01*
X4033096Y-10968190D02*
X4004524Y-10968190D01*
X4004524Y-10968190D02*
X3985476Y-10977714D01*
X3985476Y-10977714D02*
X3975953Y-10987238D01*
X4185476Y-11101524D02*
X4166429Y-11092000D01*
X4166429Y-11092000D02*
X4156905Y-11082476D01*
X4156905Y-11082476D02*
X4147381Y-11063429D01*
X4147381Y-11063429D02*
X4147381Y-11006286D01*
X4147381Y-11006286D02*
X4156905Y-10987238D01*
X4156905Y-10987238D02*
X4166429Y-10977714D01*
X4166429Y-10977714D02*
X4185476Y-10968190D01*
X4185476Y-10968190D02*
X4214048Y-10968190D01*
X4214048Y-10968190D02*
X4233096Y-10977714D01*
X4233096Y-10977714D02*
X4242619Y-10987238D01*
X4242619Y-10987238D02*
X4252143Y-11006286D01*
X4252143Y-11006286D02*
X4252143Y-11063429D01*
X4252143Y-11063429D02*
X4242619Y-11082476D01*
X4242619Y-11082476D02*
X4233096Y-11092000D01*
X4233096Y-11092000D02*
X4214048Y-11101524D01*
X4214048Y-11101524D02*
X4185476Y-11101524D01*
X4366429Y-11101524D02*
X4347381Y-11092000D01*
X4347381Y-11092000D02*
X4337858Y-11072952D01*
X4337858Y-11072952D02*
X4337858Y-10901524D01*
X4518810Y-11092000D02*
X4499762Y-11101524D01*
X4499762Y-11101524D02*
X4461667Y-11101524D01*
X4461667Y-11101524D02*
X4442619Y-11092000D01*
X4442619Y-11092000D02*
X4433096Y-11072952D01*
X4433096Y-11072952D02*
X4433096Y-10996762D01*
X4433096Y-10996762D02*
X4442619Y-10977714D01*
X4442619Y-10977714D02*
X4461667Y-10968190D01*
X4461667Y-10968190D02*
X4499762Y-10968190D01*
X4499762Y-10968190D02*
X4518810Y-10977714D01*
X4518810Y-10977714D02*
X4528334Y-10996762D01*
X4528334Y-10996762D02*
X4528334Y-11015810D01*
X4528334Y-11015810D02*
X4433096Y-11034857D01*
X4595000Y-11177714D02*
X4604524Y-11168190D01*
X4604524Y-11168190D02*
X4623572Y-11139619D01*
X4623572Y-11139619D02*
X4633096Y-11120571D01*
X4633096Y-11120571D02*
X4642619Y-11092000D01*
X4642619Y-11092000D02*
X4652143Y-11044381D01*
X4652143Y-11044381D02*
X4652143Y-11006286D01*
X4652143Y-11006286D02*
X4642619Y-10958667D01*
X4642619Y-10958667D02*
X4633096Y-10930095D01*
X4633096Y-10930095D02*
X4623572Y-10911048D01*
X4623572Y-10911048D02*
X4604524Y-10882476D01*
X4604524Y-10882476D02*
X4595000Y-10872952D01*
X4956905Y-11177714D02*
X4947381Y-11168190D01*
X4947381Y-11168190D02*
X4928334Y-11139619D01*
X4928334Y-11139619D02*
X4918810Y-11120571D01*
X4918810Y-11120571D02*
X4909286Y-11092000D01*
X4909286Y-11092000D02*
X4899762Y-11044381D01*
X4899762Y-11044381D02*
X4899762Y-11006286D01*
X4899762Y-11006286D02*
X4909286Y-10958667D01*
X4909286Y-10958667D02*
X4918810Y-10930095D01*
X4918810Y-10930095D02*
X4928334Y-10911048D01*
X4928334Y-10911048D02*
X4947381Y-10882476D01*
X4947381Y-10882476D02*
X4956905Y-10872952D01*
X5033096Y-10968190D02*
X5033096Y-11101524D01*
X5033096Y-10987238D02*
X5042619Y-10977714D01*
X5042619Y-10977714D02*
X5061667Y-10968190D01*
X5061667Y-10968190D02*
X5090239Y-10968190D01*
X5090239Y-10968190D02*
X5109286Y-10977714D01*
X5109286Y-10977714D02*
X5118810Y-10996762D01*
X5118810Y-10996762D02*
X5118810Y-11101524D01*
X5242619Y-11101524D02*
X5223572Y-11092000D01*
X5223572Y-11092000D02*
X5214048Y-11082476D01*
X5214048Y-11082476D02*
X5204524Y-11063429D01*
X5204524Y-11063429D02*
X5204524Y-11006286D01*
X5204524Y-11006286D02*
X5214048Y-10987238D01*
X5214048Y-10987238D02*
X5223572Y-10977714D01*
X5223572Y-10977714D02*
X5242619Y-10968190D01*
X5242619Y-10968190D02*
X5271191Y-10968190D01*
X5271191Y-10968190D02*
X5290239Y-10977714D01*
X5290239Y-10977714D02*
X5299762Y-10987238D01*
X5299762Y-10987238D02*
X5309286Y-11006286D01*
X5309286Y-11006286D02*
X5309286Y-11063429D01*
X5309286Y-11063429D02*
X5299762Y-11082476D01*
X5299762Y-11082476D02*
X5290239Y-11092000D01*
X5290239Y-11092000D02*
X5271191Y-11101524D01*
X5271191Y-11101524D02*
X5242619Y-11101524D01*
X5366429Y-10968190D02*
X5442619Y-10968190D01*
X5395000Y-10901524D02*
X5395000Y-11072952D01*
X5395000Y-11072952D02*
X5404524Y-11092000D01*
X5404524Y-11092000D02*
X5423572Y-11101524D01*
X5423572Y-11101524D02*
X5442619Y-11101524D01*
X5661667Y-10968190D02*
X5661667Y-11168190D01*
X5661667Y-10977714D02*
X5680715Y-10968190D01*
X5680715Y-10968190D02*
X5718810Y-10968190D01*
X5718810Y-10968190D02*
X5737858Y-10977714D01*
X5737858Y-10977714D02*
X5747381Y-10987238D01*
X5747381Y-10987238D02*
X5756905Y-11006286D01*
X5756905Y-11006286D02*
X5756905Y-11063429D01*
X5756905Y-11063429D02*
X5747381Y-11082476D01*
X5747381Y-11082476D02*
X5737858Y-11092000D01*
X5737858Y-11092000D02*
X5718810Y-11101524D01*
X5718810Y-11101524D02*
X5680715Y-11101524D01*
X5680715Y-11101524D02*
X5661667Y-11092000D01*
X5871191Y-11101524D02*
X5852143Y-11092000D01*
X5852143Y-11092000D02*
X5842619Y-11072952D01*
X5842619Y-11072952D02*
X5842619Y-10901524D01*
X6033096Y-11101524D02*
X6033096Y-10996762D01*
X6033096Y-10996762D02*
X6023572Y-10977714D01*
X6023572Y-10977714D02*
X6004524Y-10968190D01*
X6004524Y-10968190D02*
X5966429Y-10968190D01*
X5966429Y-10968190D02*
X5947381Y-10977714D01*
X6033096Y-11092000D02*
X6014048Y-11101524D01*
X6014048Y-11101524D02*
X5966429Y-11101524D01*
X5966429Y-11101524D02*
X5947381Y-11092000D01*
X5947381Y-11092000D02*
X5937858Y-11072952D01*
X5937858Y-11072952D02*
X5937858Y-11053905D01*
X5937858Y-11053905D02*
X5947381Y-11034857D01*
X5947381Y-11034857D02*
X5966429Y-11025333D01*
X5966429Y-11025333D02*
X6014048Y-11025333D01*
X6014048Y-11025333D02*
X6033096Y-11015810D01*
X6099762Y-10968190D02*
X6175953Y-10968190D01*
X6128334Y-10901524D02*
X6128334Y-11072952D01*
X6128334Y-11072952D02*
X6137858Y-11092000D01*
X6137858Y-11092000D02*
X6156905Y-11101524D01*
X6156905Y-11101524D02*
X6175953Y-11101524D01*
X6318810Y-11092000D02*
X6299762Y-11101524D01*
X6299762Y-11101524D02*
X6261667Y-11101524D01*
X6261667Y-11101524D02*
X6242619Y-11092000D01*
X6242619Y-11092000D02*
X6233096Y-11072952D01*
X6233096Y-11072952D02*
X6233096Y-10996762D01*
X6233096Y-10996762D02*
X6242619Y-10977714D01*
X6242619Y-10977714D02*
X6261667Y-10968190D01*
X6261667Y-10968190D02*
X6299762Y-10968190D01*
X6299762Y-10968190D02*
X6318810Y-10977714D01*
X6318810Y-10977714D02*
X6328334Y-10996762D01*
X6328334Y-10996762D02*
X6328334Y-11015810D01*
X6328334Y-11015810D02*
X6233096Y-11034857D01*
X6499762Y-11101524D02*
X6499762Y-10901524D01*
X6499762Y-11092000D02*
X6480715Y-11101524D01*
X6480715Y-11101524D02*
X6442619Y-11101524D01*
X6442619Y-11101524D02*
X6423572Y-11092000D01*
X6423572Y-11092000D02*
X6414048Y-11082476D01*
X6414048Y-11082476D02*
X6404524Y-11063429D01*
X6404524Y-11063429D02*
X6404524Y-11006286D01*
X6404524Y-11006286D02*
X6414048Y-10987238D01*
X6414048Y-10987238D02*
X6423572Y-10977714D01*
X6423572Y-10977714D02*
X6442619Y-10968190D01*
X6442619Y-10968190D02*
X6480715Y-10968190D01*
X6480715Y-10968190D02*
X6499762Y-10977714D01*
X6575953Y-11177714D02*
X6585477Y-11168190D01*
X6585477Y-11168190D02*
X6604524Y-11139619D01*
X6604524Y-11139619D02*
X6614048Y-11120571D01*
X6614048Y-11120571D02*
X6623572Y-11092000D01*
X6623572Y-11092000D02*
X6633096Y-11044381D01*
X6633096Y-11044381D02*
X6633096Y-11006286D01*
X6633096Y-11006286D02*
X6623572Y-10958667D01*
X6623572Y-10958667D02*
X6614048Y-10930095D01*
X6614048Y-10930095D02*
X6604524Y-10911048D01*
X6604524Y-10911048D02*
X6585477Y-10882476D01*
X6585477Y-10882476D02*
X6575953Y-10872952D01*
M02*
