%FSLAX45Y45*%
G04 Gerber Fmt 4.5, Leading zero omitted, Abs format (unit mm)*
G04 Created by KiCad (PCBNEW (6.0.0)) date 2022-03-13 21:14:06*
%MOMM*%
%LPD*%
G01*
G04 APERTURE LIST*
%TA.AperFunction,Profile*%
%ADD10C,0.100000*%
%TD*%
%ADD11C,0.200000*%
%ADD12C,0.040000*%
%ADD13C,0.080000*%
%ADD14C,0.100000*%
%ADD15C,0.320000*%
G04 APERTURE END LIST*
D10*
X0Y-10100000D02*
X0Y0D01*
X2765190Y-10100000D02*
X0Y-10100000D01*
X2765190Y0D02*
X2765190Y-10100000D01*
X0Y0D02*
X2765190Y0D01*
D11*
D12*
X170500Y-6076000D02*
X210500Y-6116000D01*
X210500Y-6076000D02*
X170500Y-6116000D01*
X170500Y-6647500D02*
X210500Y-6687500D01*
X210500Y-6647500D02*
X170500Y-6687500D01*
X170500Y-7155500D02*
X210500Y-7195500D01*
X210500Y-7155500D02*
X170500Y-7195500D01*
X170500Y-7663500D02*
X210500Y-7703500D01*
X210500Y-7663500D02*
X170500Y-7703500D01*
X170500Y-8171500D02*
X210500Y-8211500D01*
X210500Y-8171500D02*
X170500Y-8211500D01*
X170500Y-8679500D02*
X210500Y-8719500D01*
X210500Y-8679500D02*
X170500Y-8719500D01*
X170500Y-9251000D02*
X210500Y-9291000D01*
X210500Y-9251000D02*
X170500Y-9291000D01*
X424500Y-6838000D02*
X464500Y-6878000D01*
X464500Y-6838000D02*
X424500Y-6878000D01*
X1313500Y-234000D02*
X1353500Y-274000D01*
X1353500Y-234000D02*
X1313500Y-274000D01*
X1504000Y-869000D02*
X1544000Y-909000D01*
X1544000Y-869000D02*
X1504000Y-909000D01*
X1631000Y-8933500D02*
X1671000Y-8973500D01*
X1671000Y-8933500D02*
X1631000Y-8973500D01*
X1631000Y-9251000D02*
X1671000Y-9291000D01*
X1671000Y-9251000D02*
X1631000Y-9291000D01*
X1631000Y-9505000D02*
X1671000Y-9545000D01*
X1671000Y-9505000D02*
X1631000Y-9545000D01*
X1631000Y-9759000D02*
X1671000Y-9799000D01*
X1671000Y-9759000D02*
X1631000Y-9799000D01*
X1821500Y-234000D02*
X1861500Y-274000D01*
X1861500Y-234000D02*
X1821500Y-274000D01*
X1885000Y-5377500D02*
X1925000Y-5417500D01*
X1925000Y-5377500D02*
X1885000Y-5417500D01*
X2012000Y-9251000D02*
X2052000Y-9291000D01*
X2052000Y-9251000D02*
X2012000Y-9291000D01*
X2012000Y-9505000D02*
X2052000Y-9545000D01*
X2052000Y-9505000D02*
X2012000Y-9545000D01*
X2012000Y-9759000D02*
X2052000Y-9799000D01*
X2052000Y-9759000D02*
X2012000Y-9799000D01*
X2075500Y-2647000D02*
X2115500Y-2687000D01*
X2115500Y-2647000D02*
X2075500Y-2687000D01*
X2202500Y-297500D02*
X2242500Y-337500D01*
X2242500Y-297500D02*
X2202500Y-337500D01*
X2202500Y-869000D02*
X2242500Y-909000D01*
X2242500Y-869000D02*
X2202500Y-909000D01*
X2520000Y-742000D02*
X2560000Y-782000D01*
X2560000Y-742000D02*
X2520000Y-782000D01*
X2520000Y-1504000D02*
X2560000Y-1544000D01*
X2560000Y-1504000D02*
X2520000Y-1544000D01*
X2520000Y-2075500D02*
X2560000Y-2115500D01*
X2560000Y-2075500D02*
X2520000Y-2115500D01*
X2520000Y-2647000D02*
X2560000Y-2687000D01*
X2560000Y-2647000D02*
X2520000Y-2687000D01*
X2520000Y-3409000D02*
X2560000Y-3449000D01*
X2560000Y-3409000D02*
X2520000Y-3449000D01*
X2520000Y-4107500D02*
X2560000Y-4147500D01*
X2560000Y-4107500D02*
X2520000Y-4147500D01*
X2520000Y-4552000D02*
X2560000Y-4592000D01*
X2560000Y-4552000D02*
X2520000Y-4592000D01*
X2520000Y-5060000D02*
X2560000Y-5100000D01*
X2560000Y-5060000D02*
X2520000Y-5100000D01*
X2520000Y-5377500D02*
X2560000Y-5417500D01*
X2560000Y-5377500D02*
X2520000Y-5417500D01*
X2520000Y-7028500D02*
X2560000Y-7068500D01*
X2560000Y-7028500D02*
X2520000Y-7068500D01*
X2520000Y-7600000D02*
X2560000Y-7640000D01*
X2560000Y-7600000D02*
X2520000Y-7640000D01*
X2520000Y-8362000D02*
X2560000Y-8402000D01*
X2560000Y-8362000D02*
X2520000Y-8402000D01*
X2520000Y-9060500D02*
X2560000Y-9100500D01*
X2560000Y-9060500D02*
X2520000Y-9100500D01*
X2520000Y-9759000D02*
X2560000Y-9799000D01*
X2560000Y-9759000D02*
X2520000Y-9799000D01*
D13*
X490380Y-1300000D02*
G75*
G03*
X490380Y-1300000I-40000J0D01*
G01*
D11*
X420380Y-1265000D02*
X420380Y-1335000D01*
X480380Y-1265000D02*
X480380Y-1335000D01*
X420380Y-1335000D02*
G75*
G03*
X480380Y-1335000I30000J0D01*
G01*
X480380Y-1265000D02*
G75*
G03*
X420380Y-1265000I-30000J0D01*
G01*
D13*
X490380Y-2600000D02*
G75*
G03*
X490380Y-2600000I-40000J0D01*
G01*
D11*
X420380Y-2565000D02*
X420380Y-2635000D01*
X480380Y-2565000D02*
X480380Y-2635000D01*
X420380Y-2635000D02*
G75*
G03*
X480380Y-2635000I30000J0D01*
G01*
X480380Y-2565000D02*
G75*
G03*
X420380Y-2565000I-30000J0D01*
G01*
D13*
X490380Y-3900000D02*
G75*
G03*
X490380Y-3900000I-40000J0D01*
G01*
D11*
X420380Y-3865000D02*
X420380Y-3935000D01*
X480380Y-3865000D02*
X480380Y-3935000D01*
X420380Y-3935000D02*
G75*
G03*
X480380Y-3935000I30000J0D01*
G01*
X480380Y-3865000D02*
G75*
G03*
X420380Y-3865000I-30000J0D01*
G01*
D13*
X490380Y-5200000D02*
G75*
G03*
X490380Y-5200000I-40000J0D01*
G01*
D11*
X420380Y-5165000D02*
X420380Y-5235000D01*
X480380Y-5165000D02*
X480380Y-5235000D01*
X420380Y-5235000D02*
G75*
G03*
X480380Y-5235000I30000J0D01*
G01*
X480380Y-5165000D02*
G75*
G03*
X420380Y-5165000I-30000J0D01*
G01*
D13*
X990380Y-800000D02*
G75*
G03*
X990380Y-800000I-40000J0D01*
G01*
D11*
X915380Y-830000D02*
X985380Y-830000D01*
X915380Y-770000D02*
X985380Y-770000D01*
X985380Y-830000D02*
G75*
G03*
X985380Y-770000I0J30000D01*
G01*
X915380Y-770000D02*
G75*
G03*
X915380Y-830000I0J-30000D01*
G01*
D13*
X990380Y-1050000D02*
G75*
G03*
X990380Y-1050000I-40000J0D01*
G01*
D11*
X915380Y-1080000D02*
X985380Y-1080000D01*
X915380Y-1020000D02*
X985380Y-1020000D01*
X985380Y-1080000D02*
G75*
G03*
X985380Y-1020000I0J30000D01*
G01*
X915380Y-1020000D02*
G75*
G03*
X915380Y-1080000I0J-30000D01*
G01*
D13*
X990380Y-1550000D02*
G75*
G03*
X990380Y-1550000I-40000J0D01*
G01*
D11*
X915380Y-1580000D02*
X985380Y-1580000D01*
X915380Y-1520000D02*
X985380Y-1520000D01*
X985380Y-1580000D02*
G75*
G03*
X985380Y-1520000I0J30000D01*
G01*
X915380Y-1520000D02*
G75*
G03*
X915380Y-1580000I0J-30000D01*
G01*
D13*
X990380Y-1800000D02*
G75*
G03*
X990380Y-1800000I-40000J0D01*
G01*
D11*
X915380Y-1830000D02*
X985380Y-1830000D01*
X915380Y-1770000D02*
X985380Y-1770000D01*
X985380Y-1830000D02*
G75*
G03*
X985380Y-1770000I0J30000D01*
G01*
X915380Y-1770000D02*
G75*
G03*
X915380Y-1830000I0J-30000D01*
G01*
D13*
X990380Y-2100000D02*
G75*
G03*
X990380Y-2100000I-40000J0D01*
G01*
D11*
X915380Y-2130000D02*
X985380Y-2130000D01*
X915380Y-2070000D02*
X985380Y-2070000D01*
X985380Y-2130000D02*
G75*
G03*
X985380Y-2070000I0J30000D01*
G01*
X915380Y-2070000D02*
G75*
G03*
X915380Y-2130000I0J-30000D01*
G01*
D13*
X990380Y-2350000D02*
G75*
G03*
X990380Y-2350000I-40000J0D01*
G01*
D11*
X915380Y-2380000D02*
X985380Y-2380000D01*
X915380Y-2320000D02*
X985380Y-2320000D01*
X985380Y-2380000D02*
G75*
G03*
X985380Y-2320000I0J30000D01*
G01*
X915380Y-2320000D02*
G75*
G03*
X915380Y-2380000I0J-30000D01*
G01*
D13*
X990380Y-2850000D02*
G75*
G03*
X990380Y-2850000I-40000J0D01*
G01*
D11*
X915380Y-2880000D02*
X985380Y-2880000D01*
X915380Y-2820000D02*
X985380Y-2820000D01*
X985380Y-2880000D02*
G75*
G03*
X985380Y-2820000I0J30000D01*
G01*
X915380Y-2820000D02*
G75*
G03*
X915380Y-2880000I0J-30000D01*
G01*
D13*
X990380Y-3100000D02*
G75*
G03*
X990380Y-3100000I-40000J0D01*
G01*
D11*
X915380Y-3130000D02*
X985380Y-3130000D01*
X915380Y-3070000D02*
X985380Y-3070000D01*
X985380Y-3130000D02*
G75*
G03*
X985380Y-3070000I0J30000D01*
G01*
X915380Y-3070000D02*
G75*
G03*
X915380Y-3130000I0J-30000D01*
G01*
D13*
X990380Y-3400000D02*
G75*
G03*
X990380Y-3400000I-40000J0D01*
G01*
D11*
X915380Y-3430000D02*
X985380Y-3430000D01*
X915380Y-3370000D02*
X985380Y-3370000D01*
X985380Y-3430000D02*
G75*
G03*
X985380Y-3370000I0J30000D01*
G01*
X915380Y-3370000D02*
G75*
G03*
X915380Y-3430000I0J-30000D01*
G01*
D13*
X990380Y-3650000D02*
G75*
G03*
X990380Y-3650000I-40000J0D01*
G01*
D11*
X915380Y-3680000D02*
X985380Y-3680000D01*
X915380Y-3620000D02*
X985380Y-3620000D01*
X985380Y-3680000D02*
G75*
G03*
X985380Y-3620000I0J30000D01*
G01*
X915380Y-3620000D02*
G75*
G03*
X915380Y-3680000I0J-30000D01*
G01*
D13*
X990380Y-4150000D02*
G75*
G03*
X990380Y-4150000I-40000J0D01*
G01*
D11*
X915380Y-4180000D02*
X985380Y-4180000D01*
X915380Y-4120000D02*
X985380Y-4120000D01*
X985380Y-4180000D02*
G75*
G03*
X985380Y-4120000I0J30000D01*
G01*
X915380Y-4120000D02*
G75*
G03*
X915380Y-4180000I0J-30000D01*
G01*
D13*
X990380Y-4400000D02*
G75*
G03*
X990380Y-4400000I-40000J0D01*
G01*
D11*
X915380Y-4430000D02*
X985380Y-4430000D01*
X915380Y-4370000D02*
X985380Y-4370000D01*
X985380Y-4430000D02*
G75*
G03*
X985380Y-4370000I0J30000D01*
G01*
X915380Y-4370000D02*
G75*
G03*
X915380Y-4430000I0J-30000D01*
G01*
D13*
X990380Y-4700000D02*
G75*
G03*
X990380Y-4700000I-40000J0D01*
G01*
D11*
X915380Y-4730000D02*
X985380Y-4730000D01*
X915380Y-4670000D02*
X985380Y-4670000D01*
X985380Y-4730000D02*
G75*
G03*
X985380Y-4670000I0J30000D01*
G01*
X915380Y-4670000D02*
G75*
G03*
X915380Y-4730000I0J-30000D01*
G01*
D13*
X990380Y-4950000D02*
G75*
G03*
X990380Y-4950000I-40000J0D01*
G01*
D11*
X915380Y-4980000D02*
X985380Y-4980000D01*
X915380Y-4920000D02*
X985380Y-4920000D01*
X985380Y-4980000D02*
G75*
G03*
X985380Y-4920000I0J30000D01*
G01*
X915380Y-4920000D02*
G75*
G03*
X915380Y-4980000I0J-30000D01*
G01*
D13*
X990380Y-5450000D02*
G75*
G03*
X990380Y-5450000I-40000J0D01*
G01*
D11*
X915380Y-5480000D02*
X985380Y-5480000D01*
X915380Y-5420000D02*
X985380Y-5420000D01*
X985380Y-5480000D02*
G75*
G03*
X985380Y-5420000I0J30000D01*
G01*
X915380Y-5420000D02*
G75*
G03*
X915380Y-5480000I0J-30000D01*
G01*
D13*
X990380Y-5700000D02*
G75*
G03*
X990380Y-5700000I-40000J0D01*
G01*
D11*
X915380Y-5730000D02*
X985380Y-5730000D01*
X915380Y-5670000D02*
X985380Y-5670000D01*
X985380Y-5730000D02*
G75*
G03*
X985380Y-5670000I0J30000D01*
G01*
X915380Y-5670000D02*
G75*
G03*
X915380Y-5730000I0J-30000D01*
G01*
D13*
X1655440Y-7015480D02*
G75*
G03*
X1655440Y-7015480I-40000J0D01*
G01*
X1655440Y-8031480D02*
G75*
G03*
X1655440Y-8031480I-40000J0D01*
G01*
X1970400Y-7015480D02*
G75*
G03*
X1970400Y-7015480I-40000J0D01*
G01*
X1970400Y-8031480D02*
G75*
G03*
X1970400Y-8031480I-40000J0D01*
G01*
D14*
X804633Y-7092540D02*
X804633Y-7192540D01*
X754633Y-7142540D02*
X854633Y-7142540D01*
X804633Y-7369540D02*
X804633Y-7469540D01*
X754633Y-7419540D02*
X854633Y-7419540D01*
X804633Y-7646540D02*
X804633Y-7746540D01*
X754633Y-7696540D02*
X854633Y-7696540D01*
X804633Y-7923540D02*
X804633Y-8023540D01*
X754633Y-7973540D02*
X854633Y-7973540D01*
X1088633Y-6954040D02*
X1088633Y-7054040D01*
X1038633Y-7004040D02*
X1138633Y-7004040D01*
X1088633Y-7231040D02*
X1088633Y-7331040D01*
X1038633Y-7281040D02*
X1138633Y-7281040D01*
X1088633Y-7508040D02*
X1088633Y-7608040D01*
X1038633Y-7558040D02*
X1138633Y-7558040D01*
X1088633Y-7785040D02*
X1088633Y-7885040D01*
X1038633Y-7835040D02*
X1138633Y-7835040D01*
X1088633Y-8062040D02*
X1088633Y-8162040D01*
X1038633Y-8112040D02*
X1138633Y-8112040D01*
X1558440Y-2343180D02*
X1558440Y-2443180D01*
X1508440Y-2393180D02*
X1608440Y-2393180D01*
X1558440Y-2597180D02*
X1558440Y-2697180D01*
X1508440Y-2647180D02*
X1608440Y-2647180D01*
X1558440Y-2851180D02*
X1558440Y-2951180D01*
X1508440Y-2901180D02*
X1608440Y-2901180D01*
X1558440Y-3105180D02*
X1558440Y-3205180D01*
X1508440Y-3155180D02*
X1608440Y-3155180D01*
X1558440Y-3359180D02*
X1558440Y-3459180D01*
X1508440Y-3409180D02*
X1608440Y-3409180D01*
X1558440Y-3613180D02*
X1558440Y-3713180D01*
X1508440Y-3663180D02*
X1608440Y-3663180D01*
X1558440Y-3867180D02*
X1558440Y-3967180D01*
X1508440Y-3917180D02*
X1608440Y-3917180D01*
X1558440Y-4121180D02*
X1558440Y-4221180D01*
X1508440Y-4171180D02*
X1608440Y-4171180D01*
X1558440Y-4375180D02*
X1558440Y-4475180D01*
X1508440Y-4425180D02*
X1608440Y-4425180D01*
X1558440Y-4629180D02*
X1558440Y-4729180D01*
X1508440Y-4679180D02*
X1608440Y-4679180D01*
X1812440Y-2343180D02*
X1812440Y-2443180D01*
X1762440Y-2393180D02*
X1862440Y-2393180D01*
X1812440Y-2597180D02*
X1812440Y-2697180D01*
X1762440Y-2647180D02*
X1862440Y-2647180D01*
X1812440Y-2851180D02*
X1812440Y-2951180D01*
X1762440Y-2901180D02*
X1862440Y-2901180D01*
X1812440Y-3105180D02*
X1812440Y-3205180D01*
X1762440Y-3155180D02*
X1862440Y-3155180D01*
X1812440Y-3359180D02*
X1812440Y-3459180D01*
X1762440Y-3409180D02*
X1862440Y-3409180D01*
X1812440Y-3613180D02*
X1812440Y-3713180D01*
X1762440Y-3663180D02*
X1862440Y-3663180D01*
X1812440Y-3867180D02*
X1812440Y-3967180D01*
X1762440Y-3917180D02*
X1862440Y-3917180D01*
X1812440Y-4121180D02*
X1812440Y-4221180D01*
X1762440Y-4171180D02*
X1862440Y-4171180D01*
X1812440Y-4375180D02*
X1812440Y-4475180D01*
X1762440Y-4425180D02*
X1862440Y-4425180D01*
X1812440Y-4629180D02*
X1812440Y-4729180D01*
X1762440Y-4679180D02*
X1862440Y-4679180D01*
X2150880Y-5703600D02*
X2150880Y-5803600D01*
X2100880Y-5753600D02*
X2200880Y-5753600D01*
X2150880Y-5957600D02*
X2150880Y-6057600D01*
X2100880Y-6007600D02*
X2200880Y-6007600D01*
X2404880Y-5703600D02*
X2404880Y-5803600D01*
X2354880Y-5753600D02*
X2454880Y-5753600D01*
X2404880Y-5957600D02*
X2404880Y-6057600D01*
X2354880Y-6007600D02*
X2454880Y-6007600D01*
D15*
X563138Y-9913138D02*
X563138Y-9686862D01*
X336862Y-9686862D01*
X336862Y-9913138D01*
X563138Y-9913138D01*
X1059771Y-6421178D02*
X1059771Y-6194902D01*
X833495Y-6194902D01*
X833495Y-6421178D01*
X1059771Y-6421178D01*
X1059771Y-8921178D02*
X1059771Y-8694902D01*
X833495Y-8694902D01*
X833495Y-8921178D01*
X1059771Y-8921178D01*
D11*
X252619Y-10415476D02*
X252619Y-10215476D01*
X300238Y-10215476D01*
X328810Y-10225000D01*
X347857Y-10244048D01*
X357381Y-10263095D01*
X366905Y-10301190D01*
X366905Y-10329762D01*
X357381Y-10367857D01*
X347857Y-10386905D01*
X328810Y-10405952D01*
X300238Y-10415476D01*
X252619Y-10415476D01*
X452619Y-10415476D02*
X452619Y-10282143D01*
X452619Y-10320238D02*
X462143Y-10301190D01*
X471667Y-10291667D01*
X490714Y-10282143D01*
X509762Y-10282143D01*
X576429Y-10415476D02*
X576429Y-10282143D01*
X576429Y-10215476D02*
X566905Y-10225000D01*
X576429Y-10234524D01*
X585952Y-10225000D01*
X576429Y-10215476D01*
X576429Y-10234524D01*
X700238Y-10415476D02*
X681190Y-10405952D01*
X671667Y-10386905D01*
X671667Y-10215476D01*
X805000Y-10415476D02*
X785952Y-10405952D01*
X776428Y-10386905D01*
X776428Y-10215476D01*
X1033571Y-10415476D02*
X1033571Y-10215476D01*
X1100238Y-10358333D01*
X1166905Y-10215476D01*
X1166905Y-10415476D01*
X1347857Y-10415476D02*
X1347857Y-10310714D01*
X1338333Y-10291667D01*
X1319286Y-10282143D01*
X1281190Y-10282143D01*
X1262143Y-10291667D01*
X1347857Y-10405952D02*
X1328810Y-10415476D01*
X1281190Y-10415476D01*
X1262143Y-10405952D01*
X1252619Y-10386905D01*
X1252619Y-10367857D01*
X1262143Y-10348810D01*
X1281190Y-10339286D01*
X1328810Y-10339286D01*
X1347857Y-10329762D01*
X1443095Y-10282143D02*
X1443095Y-10482143D01*
X1443095Y-10291667D02*
X1462143Y-10282143D01*
X1500238Y-10282143D01*
X1519286Y-10291667D01*
X1528809Y-10301190D01*
X1538333Y-10320238D01*
X1538333Y-10377381D01*
X1528809Y-10396429D01*
X1519286Y-10405952D01*
X1500238Y-10415476D01*
X1462143Y-10415476D01*
X1443095Y-10405952D01*
X1624048Y-10396429D02*
X1633571Y-10405952D01*
X1624048Y-10415476D01*
X1614524Y-10405952D01*
X1624048Y-10396429D01*
X1624048Y-10415476D01*
X1624048Y-10291667D02*
X1633571Y-10301190D01*
X1624048Y-10310714D01*
X1614524Y-10301190D01*
X1624048Y-10291667D01*
X1624048Y-10310714D01*
D12*
X-45000Y-10725000D02*
X-5000Y-10765000D01*
X-5000Y-10725000D02*
X-45000Y-10765000D01*
D11*
X290714Y-10635476D02*
X309762Y-10635476D01*
X328810Y-10645000D01*
X338333Y-10654524D01*
X347857Y-10673571D01*
X357381Y-10711667D01*
X357381Y-10759286D01*
X347857Y-10797381D01*
X338333Y-10816429D01*
X328810Y-10825952D01*
X309762Y-10835476D01*
X290714Y-10835476D01*
X271667Y-10825952D01*
X262143Y-10816429D01*
X252619Y-10797381D01*
X243095Y-10759286D01*
X243095Y-10711667D01*
X252619Y-10673571D01*
X262143Y-10654524D01*
X271667Y-10645000D01*
X290714Y-10635476D01*
X443095Y-10816429D02*
X452619Y-10825952D01*
X443095Y-10835476D01*
X433571Y-10825952D01*
X443095Y-10816429D01*
X443095Y-10835476D01*
X624048Y-10702143D02*
X624048Y-10835476D01*
X576429Y-10625952D02*
X528810Y-10768810D01*
X652619Y-10768810D01*
X766905Y-10635476D02*
X785952Y-10635476D01*
X805000Y-10645000D01*
X814524Y-10654524D01*
X824048Y-10673571D01*
X833571Y-10711667D01*
X833571Y-10759286D01*
X824048Y-10797381D01*
X814524Y-10816429D01*
X805000Y-10825952D01*
X785952Y-10835476D01*
X766905Y-10835476D01*
X747857Y-10825952D01*
X738333Y-10816429D01*
X728809Y-10797381D01*
X719286Y-10759286D01*
X719286Y-10711667D01*
X728809Y-10673571D01*
X738333Y-10654524D01*
X747857Y-10645000D01*
X766905Y-10635476D01*
X957381Y-10635476D02*
X976428Y-10635476D01*
X995476Y-10645000D01*
X1005000Y-10654524D01*
X1014524Y-10673571D01*
X1024048Y-10711667D01*
X1024048Y-10759286D01*
X1014524Y-10797381D01*
X1005000Y-10816429D01*
X995476Y-10825952D01*
X976428Y-10835476D01*
X957381Y-10835476D01*
X938333Y-10825952D01*
X928809Y-10816429D01*
X919286Y-10797381D01*
X909762Y-10759286D01*
X909762Y-10711667D01*
X919286Y-10673571D01*
X928809Y-10654524D01*
X938333Y-10645000D01*
X957381Y-10635476D01*
X1109762Y-10835476D02*
X1109762Y-10702143D01*
X1109762Y-10721190D02*
X1119286Y-10711667D01*
X1138333Y-10702143D01*
X1166905Y-10702143D01*
X1185952Y-10711667D01*
X1195476Y-10730714D01*
X1195476Y-10835476D01*
X1195476Y-10730714D02*
X1205000Y-10711667D01*
X1224048Y-10702143D01*
X1252619Y-10702143D01*
X1271667Y-10711667D01*
X1281190Y-10730714D01*
X1281190Y-10835476D01*
X1376429Y-10835476D02*
X1376429Y-10702143D01*
X1376429Y-10721190D02*
X1385952Y-10711667D01*
X1405000Y-10702143D01*
X1433571Y-10702143D01*
X1452619Y-10711667D01*
X1462143Y-10730714D01*
X1462143Y-10835476D01*
X1462143Y-10730714D02*
X1471667Y-10711667D01*
X1490714Y-10702143D01*
X1519286Y-10702143D01*
X1538333Y-10711667D01*
X1547857Y-10730714D01*
X1547857Y-10835476D01*
X1938333Y-10625952D02*
X1766905Y-10883095D01*
X2195476Y-10635476D02*
X2214524Y-10635476D01*
X2233571Y-10645000D01*
X2243095Y-10654524D01*
X2252619Y-10673571D01*
X2262143Y-10711667D01*
X2262143Y-10759286D01*
X2252619Y-10797381D01*
X2243095Y-10816429D01*
X2233571Y-10825952D01*
X2214524Y-10835476D01*
X2195476Y-10835476D01*
X2176429Y-10825952D01*
X2166905Y-10816429D01*
X2157381Y-10797381D01*
X2147857Y-10759286D01*
X2147857Y-10711667D01*
X2157381Y-10673571D01*
X2166905Y-10654524D01*
X2176429Y-10645000D01*
X2195476Y-10635476D01*
X2347857Y-10816429D02*
X2357381Y-10825952D01*
X2347857Y-10835476D01*
X2338333Y-10825952D01*
X2347857Y-10816429D01*
X2347857Y-10835476D01*
X2481190Y-10635476D02*
X2500238Y-10635476D01*
X2519286Y-10645000D01*
X2528810Y-10654524D01*
X2538333Y-10673571D01*
X2547857Y-10711667D01*
X2547857Y-10759286D01*
X2538333Y-10797381D01*
X2528810Y-10816429D01*
X2519286Y-10825952D01*
X2500238Y-10835476D01*
X2481190Y-10835476D01*
X2462143Y-10825952D01*
X2452619Y-10816429D01*
X2443095Y-10797381D01*
X2433571Y-10759286D01*
X2433571Y-10711667D01*
X2443095Y-10673571D01*
X2452619Y-10654524D01*
X2462143Y-10645000D01*
X2481190Y-10635476D01*
X2738333Y-10835476D02*
X2624048Y-10835476D01*
X2681190Y-10835476D02*
X2681190Y-10635476D01*
X2662143Y-10664048D01*
X2643095Y-10683095D01*
X2624048Y-10692619D01*
X2919286Y-10635476D02*
X2824048Y-10635476D01*
X2814524Y-10730714D01*
X2824048Y-10721190D01*
X2843095Y-10711667D01*
X2890714Y-10711667D01*
X2909762Y-10721190D01*
X2919286Y-10730714D01*
X2928809Y-10749762D01*
X2928809Y-10797381D01*
X2919286Y-10816429D01*
X2909762Y-10825952D01*
X2890714Y-10835476D01*
X2843095Y-10835476D01*
X2824048Y-10825952D01*
X2814524Y-10816429D01*
X2995476Y-10635476D02*
X3128809Y-10635476D01*
X3043095Y-10835476D01*
X3195476Y-10635476D02*
X3195476Y-10673571D01*
X3271667Y-10635476D02*
X3271667Y-10673571D01*
X3566905Y-10911667D02*
X3557381Y-10902143D01*
X3538333Y-10873571D01*
X3528809Y-10854524D01*
X3519286Y-10825952D01*
X3509762Y-10778333D01*
X3509762Y-10740238D01*
X3519286Y-10692619D01*
X3528809Y-10664048D01*
X3538333Y-10645000D01*
X3557381Y-10616429D01*
X3566905Y-10606905D01*
X3624048Y-10635476D02*
X3747857Y-10635476D01*
X3681190Y-10711667D01*
X3709762Y-10711667D01*
X3728809Y-10721190D01*
X3738333Y-10730714D01*
X3747857Y-10749762D01*
X3747857Y-10797381D01*
X3738333Y-10816429D01*
X3728809Y-10825952D01*
X3709762Y-10835476D01*
X3652619Y-10835476D01*
X3633571Y-10825952D01*
X3624048Y-10816429D01*
X3919286Y-10635476D02*
X3881190Y-10635476D01*
X3862143Y-10645000D01*
X3852619Y-10654524D01*
X3833571Y-10683095D01*
X3824048Y-10721190D01*
X3824048Y-10797381D01*
X3833571Y-10816429D01*
X3843095Y-10825952D01*
X3862143Y-10835476D01*
X3900238Y-10835476D01*
X3919286Y-10825952D01*
X3928809Y-10816429D01*
X3938333Y-10797381D01*
X3938333Y-10749762D01*
X3928809Y-10730714D01*
X3919286Y-10721190D01*
X3900238Y-10711667D01*
X3862143Y-10711667D01*
X3843095Y-10721190D01*
X3833571Y-10730714D01*
X3824048Y-10749762D01*
X4176428Y-10835476D02*
X4176428Y-10635476D01*
X4262143Y-10835476D02*
X4262143Y-10730714D01*
X4252619Y-10711667D01*
X4233571Y-10702143D01*
X4205000Y-10702143D01*
X4185952Y-10711667D01*
X4176428Y-10721190D01*
X4385952Y-10835476D02*
X4366905Y-10825952D01*
X4357381Y-10816429D01*
X4347857Y-10797381D01*
X4347857Y-10740238D01*
X4357381Y-10721190D01*
X4366905Y-10711667D01*
X4385952Y-10702143D01*
X4414524Y-10702143D01*
X4433571Y-10711667D01*
X4443095Y-10721190D01*
X4452619Y-10740238D01*
X4452619Y-10797381D01*
X4443095Y-10816429D01*
X4433571Y-10825952D01*
X4414524Y-10835476D01*
X4385952Y-10835476D01*
X4566905Y-10835476D02*
X4547857Y-10825952D01*
X4538333Y-10806905D01*
X4538333Y-10635476D01*
X4719286Y-10825952D02*
X4700238Y-10835476D01*
X4662143Y-10835476D01*
X4643095Y-10825952D01*
X4633571Y-10806905D01*
X4633571Y-10730714D01*
X4643095Y-10711667D01*
X4662143Y-10702143D01*
X4700238Y-10702143D01*
X4719286Y-10711667D01*
X4728810Y-10730714D01*
X4728810Y-10749762D01*
X4633571Y-10768810D01*
X4805000Y-10825952D02*
X4824048Y-10835476D01*
X4862143Y-10835476D01*
X4881190Y-10825952D01*
X4890714Y-10806905D01*
X4890714Y-10797381D01*
X4881190Y-10778333D01*
X4862143Y-10768810D01*
X4833571Y-10768810D01*
X4814524Y-10759286D01*
X4805000Y-10740238D01*
X4805000Y-10730714D01*
X4814524Y-10711667D01*
X4833571Y-10702143D01*
X4862143Y-10702143D01*
X4881190Y-10711667D01*
X4957381Y-10911667D02*
X4966905Y-10902143D01*
X4985952Y-10873571D01*
X4995476Y-10854524D01*
X5005000Y-10825952D01*
X5014524Y-10778333D01*
X5014524Y-10740238D01*
X5005000Y-10692619D01*
X4995476Y-10664048D01*
X4985952Y-10645000D01*
X4966905Y-10616429D01*
X4957381Y-10606905D01*
D13*
X-5000Y-11009000D02*
G75*
G03*
X-5000Y-11009000I-40000J0D01*
G01*
D11*
X290714Y-10899476D02*
X309762Y-10899476D01*
X328810Y-10909000D01*
X338333Y-10918524D01*
X347857Y-10937571D01*
X357381Y-10975667D01*
X357381Y-11023286D01*
X347857Y-11061381D01*
X338333Y-11080429D01*
X328810Y-11089952D01*
X309762Y-11099476D01*
X290714Y-11099476D01*
X271667Y-11089952D01*
X262143Y-11080429D01*
X252619Y-11061381D01*
X243095Y-11023286D01*
X243095Y-10975667D01*
X252619Y-10937571D01*
X262143Y-10918524D01*
X271667Y-10909000D01*
X290714Y-10899476D01*
X443095Y-11080429D02*
X452619Y-11089952D01*
X443095Y-11099476D01*
X433571Y-11089952D01*
X443095Y-11080429D01*
X443095Y-11099476D01*
X566905Y-10985190D02*
X547857Y-10975667D01*
X538333Y-10966143D01*
X528810Y-10947095D01*
X528810Y-10937571D01*
X538333Y-10918524D01*
X547857Y-10909000D01*
X566905Y-10899476D01*
X605000Y-10899476D01*
X624048Y-10909000D01*
X633571Y-10918524D01*
X643095Y-10937571D01*
X643095Y-10947095D01*
X633571Y-10966143D01*
X624048Y-10975667D01*
X605000Y-10985190D01*
X566905Y-10985190D01*
X547857Y-10994714D01*
X538333Y-11004238D01*
X528810Y-11023286D01*
X528810Y-11061381D01*
X538333Y-11080429D01*
X547857Y-11089952D01*
X566905Y-11099476D01*
X605000Y-11099476D01*
X624048Y-11089952D01*
X633571Y-11080429D01*
X643095Y-11061381D01*
X643095Y-11023286D01*
X633571Y-11004238D01*
X624048Y-10994714D01*
X605000Y-10985190D01*
X766905Y-10899476D02*
X785952Y-10899476D01*
X805000Y-10909000D01*
X814524Y-10918524D01*
X824048Y-10937571D01*
X833571Y-10975667D01*
X833571Y-11023286D01*
X824048Y-11061381D01*
X814524Y-11080429D01*
X805000Y-11089952D01*
X785952Y-11099476D01*
X766905Y-11099476D01*
X747857Y-11089952D01*
X738333Y-11080429D01*
X728809Y-11061381D01*
X719286Y-11023286D01*
X719286Y-10975667D01*
X728809Y-10937571D01*
X738333Y-10918524D01*
X747857Y-10909000D01*
X766905Y-10899476D01*
X957381Y-10899476D02*
X976428Y-10899476D01*
X995476Y-10909000D01*
X1005000Y-10918524D01*
X1014524Y-10937571D01*
X1024048Y-10975667D01*
X1024048Y-11023286D01*
X1014524Y-11061381D01*
X1005000Y-11080429D01*
X995476Y-11089952D01*
X976428Y-11099476D01*
X957381Y-11099476D01*
X938333Y-11089952D01*
X928809Y-11080429D01*
X919286Y-11061381D01*
X909762Y-11023286D01*
X909762Y-10975667D01*
X919286Y-10937571D01*
X928809Y-10918524D01*
X938333Y-10909000D01*
X957381Y-10899476D01*
X1109762Y-11099476D02*
X1109762Y-10966143D01*
X1109762Y-10985190D02*
X1119286Y-10975667D01*
X1138333Y-10966143D01*
X1166905Y-10966143D01*
X1185952Y-10975667D01*
X1195476Y-10994714D01*
X1195476Y-11099476D01*
X1195476Y-10994714D02*
X1205000Y-10975667D01*
X1224048Y-10966143D01*
X1252619Y-10966143D01*
X1271667Y-10975667D01*
X1281190Y-10994714D01*
X1281190Y-11099476D01*
X1376429Y-11099476D02*
X1376429Y-10966143D01*
X1376429Y-10985190D02*
X1385952Y-10975667D01*
X1405000Y-10966143D01*
X1433571Y-10966143D01*
X1452619Y-10975667D01*
X1462143Y-10994714D01*
X1462143Y-11099476D01*
X1462143Y-10994714D02*
X1471667Y-10975667D01*
X1490714Y-10966143D01*
X1519286Y-10966143D01*
X1538333Y-10975667D01*
X1547857Y-10994714D01*
X1547857Y-11099476D01*
X1938333Y-10889952D02*
X1766905Y-11147095D01*
X2195476Y-10899476D02*
X2214524Y-10899476D01*
X2233571Y-10909000D01*
X2243095Y-10918524D01*
X2252619Y-10937571D01*
X2262143Y-10975667D01*
X2262143Y-11023286D01*
X2252619Y-11061381D01*
X2243095Y-11080429D01*
X2233571Y-11089952D01*
X2214524Y-11099476D01*
X2195476Y-11099476D01*
X2176429Y-11089952D01*
X2166905Y-11080429D01*
X2157381Y-11061381D01*
X2147857Y-11023286D01*
X2147857Y-10975667D01*
X2157381Y-10937571D01*
X2166905Y-10918524D01*
X2176429Y-10909000D01*
X2195476Y-10899476D01*
X2347857Y-11080429D02*
X2357381Y-11089952D01*
X2347857Y-11099476D01*
X2338333Y-11089952D01*
X2347857Y-11080429D01*
X2347857Y-11099476D01*
X2481190Y-10899476D02*
X2500238Y-10899476D01*
X2519286Y-10909000D01*
X2528810Y-10918524D01*
X2538333Y-10937571D01*
X2547857Y-10975667D01*
X2547857Y-11023286D01*
X2538333Y-11061381D01*
X2528810Y-11080429D01*
X2519286Y-11089952D01*
X2500238Y-11099476D01*
X2481190Y-11099476D01*
X2462143Y-11089952D01*
X2452619Y-11080429D01*
X2443095Y-11061381D01*
X2433571Y-11023286D01*
X2433571Y-10975667D01*
X2443095Y-10937571D01*
X2452619Y-10918524D01*
X2462143Y-10909000D01*
X2481190Y-10899476D01*
X2614524Y-10899476D02*
X2738333Y-10899476D01*
X2671667Y-10975667D01*
X2700238Y-10975667D01*
X2719286Y-10985190D01*
X2728810Y-10994714D01*
X2738333Y-11013762D01*
X2738333Y-11061381D01*
X2728810Y-11080429D01*
X2719286Y-11089952D01*
X2700238Y-11099476D01*
X2643095Y-11099476D01*
X2624048Y-11089952D01*
X2614524Y-11080429D01*
X2928809Y-11099476D02*
X2814524Y-11099476D01*
X2871667Y-11099476D02*
X2871667Y-10899476D01*
X2852619Y-10928048D01*
X2833571Y-10947095D01*
X2814524Y-10956619D01*
X3109762Y-10899476D02*
X3014524Y-10899476D01*
X3005000Y-10994714D01*
X3014524Y-10985190D01*
X3033571Y-10975667D01*
X3081190Y-10975667D01*
X3100238Y-10985190D01*
X3109762Y-10994714D01*
X3119286Y-11013762D01*
X3119286Y-11061381D01*
X3109762Y-11080429D01*
X3100238Y-11089952D01*
X3081190Y-11099476D01*
X3033571Y-11099476D01*
X3014524Y-11089952D01*
X3005000Y-11080429D01*
X3195476Y-10899476D02*
X3195476Y-10937571D01*
X3271667Y-10899476D02*
X3271667Y-10937571D01*
X3566905Y-11175667D02*
X3557381Y-11166143D01*
X3538333Y-11137571D01*
X3528809Y-11118524D01*
X3519286Y-11089952D01*
X3509762Y-11042333D01*
X3509762Y-11004238D01*
X3519286Y-10956619D01*
X3528809Y-10928048D01*
X3538333Y-10909000D01*
X3557381Y-10880429D01*
X3566905Y-10870905D01*
X3728809Y-10966143D02*
X3728809Y-11099476D01*
X3681190Y-10889952D02*
X3633571Y-11032810D01*
X3757381Y-11032810D01*
X3985952Y-11099476D02*
X3985952Y-10899476D01*
X4071667Y-11099476D02*
X4071667Y-10994714D01*
X4062143Y-10975667D01*
X4043095Y-10966143D01*
X4014524Y-10966143D01*
X3995476Y-10975667D01*
X3985952Y-10985190D01*
X4195476Y-11099476D02*
X4176428Y-11089952D01*
X4166905Y-11080429D01*
X4157381Y-11061381D01*
X4157381Y-11004238D01*
X4166905Y-10985190D01*
X4176428Y-10975667D01*
X4195476Y-10966143D01*
X4224048Y-10966143D01*
X4243095Y-10975667D01*
X4252619Y-10985190D01*
X4262143Y-11004238D01*
X4262143Y-11061381D01*
X4252619Y-11080429D01*
X4243095Y-11089952D01*
X4224048Y-11099476D01*
X4195476Y-11099476D01*
X4376429Y-11099476D02*
X4357381Y-11089952D01*
X4347857Y-11070905D01*
X4347857Y-10899476D01*
X4528810Y-11089952D02*
X4509762Y-11099476D01*
X4471667Y-11099476D01*
X4452619Y-11089952D01*
X4443095Y-11070905D01*
X4443095Y-10994714D01*
X4452619Y-10975667D01*
X4471667Y-10966143D01*
X4509762Y-10966143D01*
X4528810Y-10975667D01*
X4538333Y-10994714D01*
X4538333Y-11013762D01*
X4443095Y-11032810D01*
X4614524Y-11089952D02*
X4633571Y-11099476D01*
X4671667Y-11099476D01*
X4690714Y-11089952D01*
X4700238Y-11070905D01*
X4700238Y-11061381D01*
X4690714Y-11042333D01*
X4671667Y-11032810D01*
X4643095Y-11032810D01*
X4624048Y-11023286D01*
X4614524Y-11004238D01*
X4614524Y-10994714D01*
X4624048Y-10975667D01*
X4643095Y-10966143D01*
X4671667Y-10966143D01*
X4690714Y-10975667D01*
X4938333Y-11023286D02*
X5090714Y-11023286D01*
X5014524Y-11099476D02*
X5014524Y-10947095D01*
X5328810Y-10918524D02*
X5338333Y-10909000D01*
X5357381Y-10899476D01*
X5405000Y-10899476D01*
X5424048Y-10909000D01*
X5433571Y-10918524D01*
X5443095Y-10937571D01*
X5443095Y-10956619D01*
X5433571Y-10985190D01*
X5319286Y-11099476D01*
X5443095Y-11099476D01*
X5566905Y-10899476D02*
X5585952Y-10899476D01*
X5605000Y-10909000D01*
X5614524Y-10918524D01*
X5624048Y-10937571D01*
X5633571Y-10975667D01*
X5633571Y-11023286D01*
X5624048Y-11061381D01*
X5614524Y-11080429D01*
X5605000Y-11089952D01*
X5585952Y-11099476D01*
X5566905Y-11099476D01*
X5547857Y-11089952D01*
X5538333Y-11080429D01*
X5528810Y-11061381D01*
X5519286Y-11023286D01*
X5519286Y-10975667D01*
X5528810Y-10937571D01*
X5538333Y-10918524D01*
X5547857Y-10909000D01*
X5566905Y-10899476D01*
X5862143Y-11089952D02*
X5881190Y-11099476D01*
X5919286Y-11099476D01*
X5938333Y-11089952D01*
X5947857Y-11070905D01*
X5947857Y-11061381D01*
X5938333Y-11042333D01*
X5919286Y-11032810D01*
X5890714Y-11032810D01*
X5871667Y-11023286D01*
X5862143Y-11004238D01*
X5862143Y-10994714D01*
X5871667Y-10975667D01*
X5890714Y-10966143D01*
X5919286Y-10966143D01*
X5938333Y-10975667D01*
X6062143Y-11099476D02*
X6043095Y-11089952D01*
X6033571Y-11070905D01*
X6033571Y-10899476D01*
X6166905Y-11099476D02*
X6147857Y-11089952D01*
X6138333Y-11080429D01*
X6128809Y-11061381D01*
X6128809Y-11004238D01*
X6138333Y-10985190D01*
X6147857Y-10975667D01*
X6166905Y-10966143D01*
X6195476Y-10966143D01*
X6214524Y-10975667D01*
X6224048Y-10985190D01*
X6233571Y-11004238D01*
X6233571Y-11061381D01*
X6224048Y-11080429D01*
X6214524Y-11089952D01*
X6195476Y-11099476D01*
X6166905Y-11099476D01*
X6290714Y-10966143D02*
X6366905Y-10966143D01*
X6319286Y-10899476D02*
X6319286Y-11070905D01*
X6328809Y-11089952D01*
X6347857Y-11099476D01*
X6366905Y-11099476D01*
X6424048Y-11089952D02*
X6443095Y-11099476D01*
X6481190Y-11099476D01*
X6500238Y-11089952D01*
X6509762Y-11070905D01*
X6509762Y-11061381D01*
X6500238Y-11042333D01*
X6481190Y-11032810D01*
X6452619Y-11032810D01*
X6433571Y-11023286D01*
X6424048Y-11004238D01*
X6424048Y-10994714D01*
X6433571Y-10975667D01*
X6452619Y-10966143D01*
X6481190Y-10966143D01*
X6500238Y-10975667D01*
X6576428Y-11175667D02*
X6585952Y-11166143D01*
X6605000Y-11137571D01*
X6614524Y-11118524D01*
X6624048Y-11089952D01*
X6633571Y-11042333D01*
X6633571Y-11004238D01*
X6624048Y-10956619D01*
X6614524Y-10928048D01*
X6605000Y-10909000D01*
X6585952Y-10880429D01*
X6576428Y-10870905D01*
D14*
X-55000Y-11223000D02*
X-55000Y-11323000D01*
X-105000Y-11273000D02*
X-5000Y-11273000D01*
D11*
X357381Y-11363476D02*
X243095Y-11363476D01*
X300238Y-11363476D02*
X300238Y-11163476D01*
X281190Y-11192048D01*
X262143Y-11211095D01*
X243095Y-11220619D01*
X443095Y-11344428D02*
X452619Y-11353952D01*
X443095Y-11363476D01*
X433571Y-11353952D01*
X443095Y-11344428D01*
X443095Y-11363476D01*
X576429Y-11163476D02*
X595476Y-11163476D01*
X614524Y-11173000D01*
X624048Y-11182524D01*
X633571Y-11201571D01*
X643095Y-11239667D01*
X643095Y-11287286D01*
X633571Y-11325381D01*
X624048Y-11344428D01*
X614524Y-11353952D01*
X595476Y-11363476D01*
X576429Y-11363476D01*
X557381Y-11353952D01*
X547857Y-11344428D01*
X538333Y-11325381D01*
X528810Y-11287286D01*
X528810Y-11239667D01*
X538333Y-11201571D01*
X547857Y-11182524D01*
X557381Y-11173000D01*
X576429Y-11163476D01*
X766905Y-11163476D02*
X785952Y-11163476D01*
X805000Y-11173000D01*
X814524Y-11182524D01*
X824048Y-11201571D01*
X833571Y-11239667D01*
X833571Y-11287286D01*
X824048Y-11325381D01*
X814524Y-11344428D01*
X805000Y-11353952D01*
X785952Y-11363476D01*
X766905Y-11363476D01*
X747857Y-11353952D01*
X738333Y-11344428D01*
X728809Y-11325381D01*
X719286Y-11287286D01*
X719286Y-11239667D01*
X728809Y-11201571D01*
X738333Y-11182524D01*
X747857Y-11173000D01*
X766905Y-11163476D01*
X957381Y-11163476D02*
X976428Y-11163476D01*
X995476Y-11173000D01*
X1005000Y-11182524D01*
X1014524Y-11201571D01*
X1024048Y-11239667D01*
X1024048Y-11287286D01*
X1014524Y-11325381D01*
X1005000Y-11344428D01*
X995476Y-11353952D01*
X976428Y-11363476D01*
X957381Y-11363476D01*
X938333Y-11353952D01*
X928809Y-11344428D01*
X919286Y-11325381D01*
X909762Y-11287286D01*
X909762Y-11239667D01*
X919286Y-11201571D01*
X928809Y-11182524D01*
X938333Y-11173000D01*
X957381Y-11163476D01*
X1109762Y-11363476D02*
X1109762Y-11230143D01*
X1109762Y-11249190D02*
X1119286Y-11239667D01*
X1138333Y-11230143D01*
X1166905Y-11230143D01*
X1185952Y-11239667D01*
X1195476Y-11258714D01*
X1195476Y-11363476D01*
X1195476Y-11258714D02*
X1205000Y-11239667D01*
X1224048Y-11230143D01*
X1252619Y-11230143D01*
X1271667Y-11239667D01*
X1281190Y-11258714D01*
X1281190Y-11363476D01*
X1376429Y-11363476D02*
X1376429Y-11230143D01*
X1376429Y-11249190D02*
X1385952Y-11239667D01*
X1405000Y-11230143D01*
X1433571Y-11230143D01*
X1452619Y-11239667D01*
X1462143Y-11258714D01*
X1462143Y-11363476D01*
X1462143Y-11258714D02*
X1471667Y-11239667D01*
X1490714Y-11230143D01*
X1519286Y-11230143D01*
X1538333Y-11239667D01*
X1547857Y-11258714D01*
X1547857Y-11363476D01*
X1938333Y-11153952D02*
X1766905Y-11411095D01*
X2195476Y-11163476D02*
X2214524Y-11163476D01*
X2233571Y-11173000D01*
X2243095Y-11182524D01*
X2252619Y-11201571D01*
X2262143Y-11239667D01*
X2262143Y-11287286D01*
X2252619Y-11325381D01*
X2243095Y-11344428D01*
X2233571Y-11353952D01*
X2214524Y-11363476D01*
X2195476Y-11363476D01*
X2176429Y-11353952D01*
X2166905Y-11344428D01*
X2157381Y-11325381D01*
X2147857Y-11287286D01*
X2147857Y-11239667D01*
X2157381Y-11201571D01*
X2166905Y-11182524D01*
X2176429Y-11173000D01*
X2195476Y-11163476D01*
X2347857Y-11344428D02*
X2357381Y-11353952D01*
X2347857Y-11363476D01*
X2338333Y-11353952D01*
X2347857Y-11344428D01*
X2347857Y-11363476D01*
X2481190Y-11163476D02*
X2500238Y-11163476D01*
X2519286Y-11173000D01*
X2528810Y-11182524D01*
X2538333Y-11201571D01*
X2547857Y-11239667D01*
X2547857Y-11287286D01*
X2538333Y-11325381D01*
X2528810Y-11344428D01*
X2519286Y-11353952D01*
X2500238Y-11363476D01*
X2481190Y-11363476D01*
X2462143Y-11353952D01*
X2452619Y-11344428D01*
X2443095Y-11325381D01*
X2433571Y-11287286D01*
X2433571Y-11239667D01*
X2443095Y-11201571D01*
X2452619Y-11182524D01*
X2462143Y-11173000D01*
X2481190Y-11163476D01*
X2614524Y-11163476D02*
X2738333Y-11163476D01*
X2671667Y-11239667D01*
X2700238Y-11239667D01*
X2719286Y-11249190D01*
X2728810Y-11258714D01*
X2738333Y-11277762D01*
X2738333Y-11325381D01*
X2728810Y-11344428D01*
X2719286Y-11353952D01*
X2700238Y-11363476D01*
X2643095Y-11363476D01*
X2624048Y-11353952D01*
X2614524Y-11344428D01*
X2833571Y-11363476D02*
X2871667Y-11363476D01*
X2890714Y-11353952D01*
X2900238Y-11344428D01*
X2919286Y-11315857D01*
X2928809Y-11277762D01*
X2928809Y-11201571D01*
X2919286Y-11182524D01*
X2909762Y-11173000D01*
X2890714Y-11163476D01*
X2852619Y-11163476D01*
X2833571Y-11173000D01*
X2824048Y-11182524D01*
X2814524Y-11201571D01*
X2814524Y-11249190D01*
X2824048Y-11268238D01*
X2833571Y-11277762D01*
X2852619Y-11287286D01*
X2890714Y-11287286D01*
X2909762Y-11277762D01*
X2919286Y-11268238D01*
X2928809Y-11249190D01*
X3100238Y-11230143D02*
X3100238Y-11363476D01*
X3052619Y-11153952D02*
X3005000Y-11296809D01*
X3128809Y-11296809D01*
X3195476Y-11163476D02*
X3195476Y-11201571D01*
X3271667Y-11163476D02*
X3271667Y-11201571D01*
X3566905Y-11439667D02*
X3557381Y-11430143D01*
X3538333Y-11401571D01*
X3528809Y-11382524D01*
X3519286Y-11353952D01*
X3509762Y-11306333D01*
X3509762Y-11268238D01*
X3519286Y-11220619D01*
X3528809Y-11192048D01*
X3538333Y-11173000D01*
X3557381Y-11144429D01*
X3566905Y-11134905D01*
X3624048Y-11163476D02*
X3747857Y-11163476D01*
X3681190Y-11239667D01*
X3709762Y-11239667D01*
X3728809Y-11249190D01*
X3738333Y-11258714D01*
X3747857Y-11277762D01*
X3747857Y-11325381D01*
X3738333Y-11344428D01*
X3728809Y-11353952D01*
X3709762Y-11363476D01*
X3652619Y-11363476D01*
X3633571Y-11353952D01*
X3624048Y-11344428D01*
X3814524Y-11163476D02*
X3938333Y-11163476D01*
X3871667Y-11239667D01*
X3900238Y-11239667D01*
X3919286Y-11249190D01*
X3928809Y-11258714D01*
X3938333Y-11277762D01*
X3938333Y-11325381D01*
X3928809Y-11344428D01*
X3919286Y-11353952D01*
X3900238Y-11363476D01*
X3843095Y-11363476D01*
X3824048Y-11353952D01*
X3814524Y-11344428D01*
X4176428Y-11363476D02*
X4176428Y-11163476D01*
X4262143Y-11363476D02*
X4262143Y-11258714D01*
X4252619Y-11239667D01*
X4233571Y-11230143D01*
X4205000Y-11230143D01*
X4185952Y-11239667D01*
X4176428Y-11249190D01*
X4385952Y-11363476D02*
X4366905Y-11353952D01*
X4357381Y-11344428D01*
X4347857Y-11325381D01*
X4347857Y-11268238D01*
X4357381Y-11249190D01*
X4366905Y-11239667D01*
X4385952Y-11230143D01*
X4414524Y-11230143D01*
X4433571Y-11239667D01*
X4443095Y-11249190D01*
X4452619Y-11268238D01*
X4452619Y-11325381D01*
X4443095Y-11344428D01*
X4433571Y-11353952D01*
X4414524Y-11363476D01*
X4385952Y-11363476D01*
X4566905Y-11363476D02*
X4547857Y-11353952D01*
X4538333Y-11334905D01*
X4538333Y-11163476D01*
X4719286Y-11353952D02*
X4700238Y-11363476D01*
X4662143Y-11363476D01*
X4643095Y-11353952D01*
X4633571Y-11334905D01*
X4633571Y-11258714D01*
X4643095Y-11239667D01*
X4662143Y-11230143D01*
X4700238Y-11230143D01*
X4719286Y-11239667D01*
X4728810Y-11258714D01*
X4728810Y-11277762D01*
X4633571Y-11296809D01*
X4805000Y-11353952D02*
X4824048Y-11363476D01*
X4862143Y-11363476D01*
X4881190Y-11353952D01*
X4890714Y-11334905D01*
X4890714Y-11325381D01*
X4881190Y-11306333D01*
X4862143Y-11296809D01*
X4833571Y-11296809D01*
X4814524Y-11287286D01*
X4805000Y-11268238D01*
X4805000Y-11258714D01*
X4814524Y-11239667D01*
X4833571Y-11230143D01*
X4862143Y-11230143D01*
X4881190Y-11239667D01*
X4957381Y-11439667D02*
X4966905Y-11430143D01*
X4985952Y-11401571D01*
X4995476Y-11382524D01*
X5005000Y-11353952D01*
X5014524Y-11306333D01*
X5014524Y-11268238D01*
X5005000Y-11220619D01*
X4995476Y-11192048D01*
X4985952Y-11173000D01*
X4966905Y-11144429D01*
X4957381Y-11134905D01*
X-34289Y-11607711D02*
X-34289Y-11466289D01*
X-175711Y-11466289D01*
X-175711Y-11607711D01*
X-34289Y-11607711D01*
X233571Y-11427476D02*
X357381Y-11427476D01*
X290714Y-11503667D01*
X319286Y-11503667D01*
X338333Y-11513190D01*
X347857Y-11522714D01*
X357381Y-11541762D01*
X357381Y-11589381D01*
X347857Y-11608428D01*
X338333Y-11617952D01*
X319286Y-11627476D01*
X262143Y-11627476D01*
X243095Y-11617952D01*
X233571Y-11608428D01*
X443095Y-11608428D02*
X452619Y-11617952D01*
X443095Y-11627476D01*
X433571Y-11617952D01*
X443095Y-11608428D01*
X443095Y-11627476D01*
X528810Y-11446524D02*
X538333Y-11437000D01*
X557381Y-11427476D01*
X605000Y-11427476D01*
X624048Y-11437000D01*
X633571Y-11446524D01*
X643095Y-11465571D01*
X643095Y-11484619D01*
X633571Y-11513190D01*
X519286Y-11627476D01*
X643095Y-11627476D01*
X766905Y-11427476D02*
X785952Y-11427476D01*
X805000Y-11437000D01*
X814524Y-11446524D01*
X824048Y-11465571D01*
X833571Y-11503667D01*
X833571Y-11551286D01*
X824048Y-11589381D01*
X814524Y-11608428D01*
X805000Y-11617952D01*
X785952Y-11627476D01*
X766905Y-11627476D01*
X747857Y-11617952D01*
X738333Y-11608428D01*
X728809Y-11589381D01*
X719286Y-11551286D01*
X719286Y-11503667D01*
X728809Y-11465571D01*
X738333Y-11446524D01*
X747857Y-11437000D01*
X766905Y-11427476D01*
X957381Y-11427476D02*
X976428Y-11427476D01*
X995476Y-11437000D01*
X1005000Y-11446524D01*
X1014524Y-11465571D01*
X1024048Y-11503667D01*
X1024048Y-11551286D01*
X1014524Y-11589381D01*
X1005000Y-11608428D01*
X995476Y-11617952D01*
X976428Y-11627476D01*
X957381Y-11627476D01*
X938333Y-11617952D01*
X928809Y-11608428D01*
X919286Y-11589381D01*
X909762Y-11551286D01*
X909762Y-11503667D01*
X919286Y-11465571D01*
X928809Y-11446524D01*
X938333Y-11437000D01*
X957381Y-11427476D01*
X1109762Y-11627476D02*
X1109762Y-11494143D01*
X1109762Y-11513190D02*
X1119286Y-11503667D01*
X1138333Y-11494143D01*
X1166905Y-11494143D01*
X1185952Y-11503667D01*
X1195476Y-11522714D01*
X1195476Y-11627476D01*
X1195476Y-11522714D02*
X1205000Y-11503667D01*
X1224048Y-11494143D01*
X1252619Y-11494143D01*
X1271667Y-11503667D01*
X1281190Y-11522714D01*
X1281190Y-11627476D01*
X1376429Y-11627476D02*
X1376429Y-11494143D01*
X1376429Y-11513190D02*
X1385952Y-11503667D01*
X1405000Y-11494143D01*
X1433571Y-11494143D01*
X1452619Y-11503667D01*
X1462143Y-11522714D01*
X1462143Y-11627476D01*
X1462143Y-11522714D02*
X1471667Y-11503667D01*
X1490714Y-11494143D01*
X1519286Y-11494143D01*
X1538333Y-11503667D01*
X1547857Y-11522714D01*
X1547857Y-11627476D01*
X1938333Y-11417952D02*
X1766905Y-11675095D01*
X2195476Y-11427476D02*
X2214524Y-11427476D01*
X2233571Y-11437000D01*
X2243095Y-11446524D01*
X2252619Y-11465571D01*
X2262143Y-11503667D01*
X2262143Y-11551286D01*
X2252619Y-11589381D01*
X2243095Y-11608428D01*
X2233571Y-11617952D01*
X2214524Y-11627476D01*
X2195476Y-11627476D01*
X2176429Y-11617952D01*
X2166905Y-11608428D01*
X2157381Y-11589381D01*
X2147857Y-11551286D01*
X2147857Y-11503667D01*
X2157381Y-11465571D01*
X2166905Y-11446524D01*
X2176429Y-11437000D01*
X2195476Y-11427476D01*
X2347857Y-11608428D02*
X2357381Y-11617952D01*
X2347857Y-11627476D01*
X2338333Y-11617952D01*
X2347857Y-11608428D01*
X2347857Y-11627476D01*
X2547857Y-11627476D02*
X2433571Y-11627476D01*
X2490714Y-11627476D02*
X2490714Y-11427476D01*
X2471667Y-11456048D01*
X2452619Y-11475095D01*
X2433571Y-11484619D01*
X2624048Y-11446524D02*
X2633571Y-11437000D01*
X2652619Y-11427476D01*
X2700238Y-11427476D01*
X2719286Y-11437000D01*
X2728810Y-11446524D01*
X2738333Y-11465571D01*
X2738333Y-11484619D01*
X2728810Y-11513190D01*
X2614524Y-11627476D01*
X2738333Y-11627476D01*
X2909762Y-11427476D02*
X2871667Y-11427476D01*
X2852619Y-11437000D01*
X2843095Y-11446524D01*
X2824048Y-11475095D01*
X2814524Y-11513190D01*
X2814524Y-11589381D01*
X2824048Y-11608428D01*
X2833571Y-11617952D01*
X2852619Y-11627476D01*
X2890714Y-11627476D01*
X2909762Y-11617952D01*
X2919286Y-11608428D01*
X2928809Y-11589381D01*
X2928809Y-11541762D01*
X2919286Y-11522714D01*
X2909762Y-11513190D01*
X2890714Y-11503667D01*
X2852619Y-11503667D01*
X2833571Y-11513190D01*
X2824048Y-11522714D01*
X2814524Y-11541762D01*
X3052619Y-11427476D02*
X3071667Y-11427476D01*
X3090714Y-11437000D01*
X3100238Y-11446524D01*
X3109762Y-11465571D01*
X3119286Y-11503667D01*
X3119286Y-11551286D01*
X3109762Y-11589381D01*
X3100238Y-11608428D01*
X3090714Y-11617952D01*
X3071667Y-11627476D01*
X3052619Y-11627476D01*
X3033571Y-11617952D01*
X3024048Y-11608428D01*
X3014524Y-11589381D01*
X3005000Y-11551286D01*
X3005000Y-11503667D01*
X3014524Y-11465571D01*
X3024048Y-11446524D01*
X3033571Y-11437000D01*
X3052619Y-11427476D01*
X3195476Y-11427476D02*
X3195476Y-11465571D01*
X3271667Y-11427476D02*
X3271667Y-11465571D01*
X3566905Y-11703667D02*
X3557381Y-11694143D01*
X3538333Y-11665571D01*
X3528809Y-11646524D01*
X3519286Y-11617952D01*
X3509762Y-11570333D01*
X3509762Y-11532238D01*
X3519286Y-11484619D01*
X3528809Y-11456048D01*
X3538333Y-11437000D01*
X3557381Y-11408428D01*
X3566905Y-11398905D01*
X3624048Y-11427476D02*
X3747857Y-11427476D01*
X3681190Y-11503667D01*
X3709762Y-11503667D01*
X3728809Y-11513190D01*
X3738333Y-11522714D01*
X3747857Y-11541762D01*
X3747857Y-11589381D01*
X3738333Y-11608428D01*
X3728809Y-11617952D01*
X3709762Y-11627476D01*
X3652619Y-11627476D01*
X3633571Y-11617952D01*
X3624048Y-11608428D01*
X3985952Y-11627476D02*
X3985952Y-11427476D01*
X4071667Y-11627476D02*
X4071667Y-11522714D01*
X4062143Y-11503667D01*
X4043095Y-11494143D01*
X4014524Y-11494143D01*
X3995476Y-11503667D01*
X3985952Y-11513190D01*
X4195476Y-11627476D02*
X4176428Y-11617952D01*
X4166905Y-11608428D01*
X4157381Y-11589381D01*
X4157381Y-11532238D01*
X4166905Y-11513190D01*
X4176428Y-11503667D01*
X4195476Y-11494143D01*
X4224048Y-11494143D01*
X4243095Y-11503667D01*
X4252619Y-11513190D01*
X4262143Y-11532238D01*
X4262143Y-11589381D01*
X4252619Y-11608428D01*
X4243095Y-11617952D01*
X4224048Y-11627476D01*
X4195476Y-11627476D01*
X4376429Y-11627476D02*
X4357381Y-11617952D01*
X4347857Y-11598905D01*
X4347857Y-11427476D01*
X4528810Y-11617952D02*
X4509762Y-11627476D01*
X4471667Y-11627476D01*
X4452619Y-11617952D01*
X4443095Y-11598905D01*
X4443095Y-11522714D01*
X4452619Y-11503667D01*
X4471667Y-11494143D01*
X4509762Y-11494143D01*
X4528810Y-11503667D01*
X4538333Y-11522714D01*
X4538333Y-11541762D01*
X4443095Y-11560809D01*
X4614524Y-11617952D02*
X4633571Y-11627476D01*
X4671667Y-11627476D01*
X4690714Y-11617952D01*
X4700238Y-11598905D01*
X4700238Y-11589381D01*
X4690714Y-11570333D01*
X4671667Y-11560809D01*
X4643095Y-11560809D01*
X4624048Y-11551286D01*
X4614524Y-11532238D01*
X4614524Y-11522714D01*
X4624048Y-11503667D01*
X4643095Y-11494143D01*
X4671667Y-11494143D01*
X4690714Y-11503667D01*
X4766905Y-11703667D02*
X4776429Y-11694143D01*
X4795476Y-11665571D01*
X4805000Y-11646524D01*
X4814524Y-11617952D01*
X4824048Y-11570333D01*
X4824048Y-11532238D01*
X4814524Y-11484619D01*
X4805000Y-11456048D01*
X4795476Y-11437000D01*
X4776429Y-11408428D01*
X4766905Y-11398905D01*
M02*
